<svg version="1.1" xmlns="http://www.w3.org/2000/svg" xmlns:xlink="http://www.w3.org/1999/xlink" width="306.10126" height="297.61876" viewBox="0,0,306.10126,297.61876"><g transform="translate(-81.23939,-47.2)"><g data-paper-data="{&quot;isPaintingLayer&quot;:true}" fill="#f90805" fill-rule="evenodd" stroke="none" stroke-width="1" stroke-linecap="butt" stroke-linejoin="miter" stroke-miterlimit="10" stroke-dasharray="" stroke-dashoffset="0" style="mix-blend-mode: normal"><path d="M176,137.376c0,-64.977 0.122,-90.176 0.437,-90.176c0.371,0 24.807,13.792 36.663,20.693c4.299,2.503 4.14,2.021 2.1,6.355c-0.88,1.87 -1.6,3.481 -1.6,3.58c0,0.099 -0.354,0.944 -0.786,1.876c-5.482,11.834 -9.96,30.159 -11.262,46.096c-0.508,6.22 -0.232,23.259 0.457,28.2c0.923,6.625 1.127,7.932 1.735,11.144c0.655,3.456 2.078,9.501 2.649,11.256c0.178,0.55 0.633,2.08 1.009,3.4c1.567,5.499 4.077,11.972 8.403,21.672c1.415,3.174 1.465,3.092 -3.656,5.989c-2.392,1.354 -5.969,3.404 -7.949,4.555c-1.98,1.152 -4.23,2.451 -5,2.888c-0.77,0.436 -4.37,2.509 -8,4.607c-3.63,2.097 -7.14,4.123 -7.8,4.501c-0.66,0.378 -2.46,1.411 -4,2.295c-1.54,0.883 -2.935,1.525 -3.1,1.426c-0.165,-0.099 -0.3,-40.76 -0.3,-90.357M238.899,88.9c1.099,-2.475 2.161,-4.5 2.361,-4.5c0.384,0 1.783,0.781 12.14,6.773c3.52,2.036 8.511,4.9 11.091,6.365c5.233,2.969 5.096,2.739 3.682,6.17c-0.565,1.371 -1.556,4.112 -2.202,6.092c-3.468,10.629 -4.171,15.244 -4.171,27.4c0,13.319 1.544,21.482 6.289,33.255c1.488,3.691 1.452,3.807 -1.747,5.674c-15.033,8.773 -24.614,14.142 -24.985,13.999c-0.375,-0.144 -1.658,-2.699 -3.783,-7.528c-12.427,-28.249 -11.924,-63.843 1.325,-93.7M292.297,117.9c1.285,-3.848 0.656,-3.926 9.388,1.162c4.023,2.344 7.945,4.615 8.715,5.046c9.11,5.106 22,12.854 22,13.223c0,0.259 -1.395,1.306 -3.1,2.327c-4.845,2.9 -12.152,7.142 -12.304,7.142c-0.076,0 -1.604,0.9 -3.396,2c-1.792,1.1 -3.339,2 -3.436,2c-0.098,0 -1.48,0.783 -3.071,1.741c-4.153,2.499 -12.053,6.992 -12.796,7.277c-1.064,0.409 -2.817,-4.529 -4.48,-12.618c-0.727,-3.539 -0.851,-15.59 -0.194,-18.88c0.833,-4.168 1.654,-7.367 2.674,-10.42M259.2,285.648c23.971,-3.866 37.276,11.413 25.263,29.013c-0.912,1.335 -3.639,4.743 -6.06,7.572c-2.422,2.829 -4.403,5.284 -4.403,5.455c0,0.172 3.204,0.312 7.12,0.312c8.838,0 8.08,-0.751 8.08,8c0,4.942 -0.143,7.183 -0.48,7.52c-0.617,0.617 -41.737,0.7 -42.117,0.085c-0.134,-0.217 3.492,-5.932 8.057,-12.7c4.565,-6.768 9.188,-13.642 10.274,-15.277c5.188,-7.812 5.655,-13.798 1.251,-16.028c-2.076,-1.051 -10.364,-0.503 -13.068,0.865c-0.507,0.256 -0.803,0.122 -1.144,-0.515c-0.771,-1.441 -3.573,-9.537 -3.573,-10.324c0,-1.272 4.658,-2.987 10.8,-3.978M314.528,285.795c16.193,-3.959 27.258,7.892 27.268,29.205c0.008,17.077 -6.176,27.21 -17.943,29.398c-16.272,3.025 -27.261,-10.523 -26.112,-32.195c0.769,-14.501 6.783,-23.962 16.787,-26.408M357,285.762c16.074,-2.671 28.659,3.169 30.106,13.97c0.933,6.965 -1.447,12.14 -10.291,22.38c-2.428,2.812 -4.415,5.287 -4.415,5.5c0,0.235 2.718,0.39 6.9,0.394c3.795,0.003 7.17,0.178 7.5,0.387c0.6,0.382 0.76,14.301 0.175,15.247c-0.365,0.591 -42.175,0.467 -42.175,-0.126c0,-0.452 8.937,-13.927 13.275,-20.015c1.059,-1.486 1.925,-2.773 1.925,-2.859c0,-0.087 1.18,-1.885 2.622,-3.997c9.303,-13.625 5.671,-20.422 -8.91,-16.672c-3.463,0.891 -3.121,1.2 -5.263,-4.754c-2.57,-7.143 -2.077,-7.688 8.551,-9.455M81.345,286.599c0.204,-0.532 1.546,-0.599 10.145,-0.506l9.91,0.107l0.517,2c0.285,1.1 0.67,2.81 0.857,3.8c0.187,0.99 0.814,3.96 1.395,6.6c0.58,2.64 1.338,6.15 1.684,7.8c0.593,2.825 0.908,4.263 1.662,7.598c0.478,2.108 0.571,1.834 2.517,-7.398c0.185,-0.88 0.615,-2.86 0.954,-4.4c0.339,-1.54 0.887,-4.06 1.216,-5.6c0.33,-1.54 1.009,-4.51 1.51,-6.6l0.91,-3.8l9.289,-0.107c7.481,-0.087 9.289,-0.005 9.289,0.42c0,0.291 -0.461,2.049 -1.024,3.908c-0.564,1.858 -1.178,3.919 -1.365,4.579c-0.494,1.738 -4.2,13.914 -5.235,17.2c-0.486,1.54 -1.774,5.68 -2.862,9.2c-2.59,8.374 -5.864,18.836 -6.447,20.6c-0.667,2.018 -0.522,1.987 -9.299,1.994c-7.932,0.006 -8.039,-0.005 -8.488,-0.894c-0.418,-0.827 -2.027,-5.894 -5.494,-17.3c-0.735,-2.42 -2.35,-7.64 -3.589,-11.6c-2.752,-8.8 -3.7,-11.861 -4.396,-14.2c-0.295,-0.99 -1.197,-3.96 -2.006,-6.6c-0.808,-2.64 -1.563,-5.112 -1.677,-5.494c-0.115,-0.382 -0.102,-0.97 0.027,-1.307M147.665,286.693c0.341,-0.651 1.138,-0.699 10.053,-0.6l9.682,0.107l1.64,5c0.902,2.75 2.574,7.97 3.716,11.6c1.141,3.63 2.628,8.31 3.304,10.4c0.676,2.09 1.462,4.61 1.746,5.6c0.283,0.99 1.631,5.4 2.994,9.8c3.986,12.868 4.458,14.582 4.152,15.078c-0.11,0.177 -4.518,0.322 -9.796,0.322h-9.597l-0.541,-1.3c-0.298,-0.715 -0.671,-2.164 -0.828,-3.22c-0.443,-2.965 -0.688,-3.08 -6.563,-3.08c-2.813,0 -5.927,0.111 -6.918,0.247l-1.803,0.247l-0.497,2.253c-0.274,1.239 -0.738,2.838 -1.033,3.553l-0.535,1.3h-8.197c-4.508,0 -8.296,-0.161 -8.418,-0.358c-0.121,-0.196 0.336,-2.221 1.017,-4.5c0.68,-2.278 1.471,-4.952 1.757,-5.942c0.287,-0.99 1.083,-3.6 1.77,-5.8c0.687,-2.2 1.671,-5.35 2.186,-7c0.515,-1.65 1.703,-5.52 2.64,-8.6c0.937,-3.08 1.849,-5.96 2.027,-6.4c0.178,-0.44 0.767,-2.24 1.31,-4c2.955,-9.583 4.4,-14.075 4.732,-14.707M188.987,286.493c0.15,-0.395 2.312,-0.484 9.703,-0.4l9.51,0.107l0.2,21.88c0.129,14.062 0.346,22.026 0.608,22.288c0.224,0.224 2.834,0.458 5.8,0.52l5.392,0.112l0.11,6.043c0.087,4.778 -0.006,6.139 -0.447,6.504c-0.404,0.336 -4.699,0.434 -15.71,0.358l-15.153,-0.105l-0.104,-28.4c-0.056,-15.62 -0.016,-28.628 0.091,-28.907M320.822,297.612c-3.526,-1.887 -4.829,2.869 -4.808,17.555c0.019,12.725 0.833,16.413 3.701,16.757c2.957,0.355 4.257,-4.807 4.264,-16.924c0.006,-10.303 -1.078,-16.276 -3.157,-17.388M157.2,307.764c0,-2.636 -0.725,-1.662 -1.593,2.142c-0.489,2.142 -1.501,6.299 -2.248,9.239c-0.747,2.94 -1.359,5.505 -1.359,5.7c0,0.195 1.988,0.355 4.418,0.355h4.418l-0.253,-1.5c-0.139,-0.825 -0.498,-2.58 -0.797,-3.9c-0.299,-1.32 -0.84,-3.75 -1.203,-5.4c-0.363,-1.65 -0.822,-3.522 -1.021,-4.16c-0.199,-0.638 -0.362,-1.752 -0.362,-2.476"/></g></g></svg>