<svg version="1.1" xmlns="http://www.w3.org/2000/svg" xmlns:xlink="http://www.w3.org/1999/xlink" width="288" height="288" viewBox="0,0,288,288"><g transform="translate(-96,-36)"><g data-paper-data="{&quot;isPaintingLayer&quot;:true}" stroke="none" stroke-linecap="butt" stroke-linejoin="miter" stroke-miterlimit="10" stroke-dasharray="" stroke-dashoffset="0" style="mix-blend-mode: normal"><path d="M96,324v-288h288v288z" fill="#fbfbfb" fill-rule="nonzero" stroke-width="0"/><path d="M173.75,143.473c-1.639,-0.227 -8.344,-0.337 -8.917,-0.145c-0.229,0.076 -0.696,0.146 -1.038,0.155c-0.63,0.017 -2.895,0.408 -3.962,0.684c-0.945,0.245 -3.555,1.019 -3.916,1.161c-0.184,0.073 -0.671,0.264 -1.084,0.425c-2.221,0.866 -5.651,2.589 -6.346,3.187c-0.145,0.125 -0.313,0.227 -0.375,0.227c-0.134,0 -2.239,1.488 -3.278,2.318c-1.843,1.471 -4.17,3.781 -5.64,5.598c-0.519,0.641 -1.075,1.311 -1.236,1.489c-0.16,0.178 -0.291,0.38 -0.291,0.448c0,0.067 -0.102,0.225 -0.227,0.35c-1.364,1.364 -4.645,8.125 -5.442,11.213c-0.071,0.275 -0.254,0.95 -0.406,1.5c-1.187,4.281 -1.462,12.182 -0.573,16.5c0.297,1.445 0.659,2.985 0.803,3.417c0.077,0.229 0.235,0.754 0.352,1.167c0.273,0.96 1.789,4.754 2.174,5.441c0.161,0.288 0.528,0.963 0.815,1.5c4.324,8.093 11.185,13.906 20.92,17.726c4.32,1.695 12.725,2.723 15.726,1.924c3.457,-0.92 4.624,-4.94 2.213,-7.624c-1.102,-1.226 -1.778,-1.467 -4.138,-1.471c-8.506,-0.014 -15.734,-2.849 -21.361,-8.38c-4.025,-3.956 -6.296,-7.894 -7.855,-13.616c-1.09,-3.999 -1.077,-10.085 0.031,-14.25c5.002,-18.82 25.667,-27.523 42.55,-17.922c0.584,0.332 1.049,0.646 2.911,1.965c1.513,1.071 3.74,3.258 5.26,5.164c0.457,0.573 0.884,1.042 0.949,1.042c0.182,0.001 0.464,-0.602 0.464,-0.992c0,-0.749 0.939,-2.435 1.684,-3.025c1.248,-0.987 1.521,-1.067 3.592,-1.051c1.04,0.007 1.891,-0.017 1.891,-0.054c0,-0.194 -1.23,-1.805 -2.509,-3.285c-4.026,-4.659 -9.076,-8.199 -14.991,-10.506c-0.413,-0.161 -0.9,-0.352 -1.083,-0.425c-0.519,-0.204 -3.083,-0.944 -3.917,-1.129c-0.413,-0.092 -1.125,-0.251 -1.583,-0.353zM170.816,160.927c-2.126,-0.631 -4.564,-0.171 -6.257,1.182c-0.689,0.55 -2.226,2.894 -2.226,3.394c0,0.145 -0.06,0.335 -0.133,0.422c-0.073,0.087 -0.267,0.571 -0.431,1.075c-0.163,0.504 -0.36,1.067 -0.436,1.25c-0.077,0.183 -0.339,0.896 -0.583,1.583c-0.244,0.688 -0.504,1.4 -0.579,1.584c-0.075,0.183 -0.262,0.708 -0.416,1.166c-0.155,0.459 -0.346,0.984 -0.426,1.167c-0.08,0.183 -0.259,0.671 -0.397,1.083c-0.138,0.413 -0.486,1.388 -0.774,2.167c-0.288,0.779 -0.584,1.604 -0.659,1.833c-0.074,0.23 -0.335,0.942 -0.579,1.584c-0.245,0.641 -0.507,1.354 -0.583,1.583c-0.076,0.229 -0.414,1.167 -0.752,2.083c-0.337,0.917 -0.677,1.855 -0.754,2.084c-0.078,0.229 -0.379,1.054 -0.669,1.833c-0.29,0.779 -0.588,1.604 -0.663,1.833c-0.074,0.23 -0.336,0.942 -0.581,1.584c-0.245,0.641 -0.483,1.316 -0.529,1.5c-0.046,0.183 -0.146,0.483 -0.222,0.666c-1.543,3.705 1.009,7.134 4.884,6.56c1.628,-0.24 2.889,-1.801 3.617,-4.476c0.113,-0.413 0.308,-1.082 0.435,-1.488c0.127,-0.406 0.23,-0.87 0.23,-1.03c0,-0.811 0.045,-0.816 7.486,-0.816c7.963,0 7.218,-0.159 7.812,1.667c0.532,1.638 1.367,4.041 1.534,4.417c0.081,0.183 0.374,1.008 0.65,1.833c0.442,1.323 1.276,3.712 2.617,7.5c0.227,0.642 0.558,1.602 0.737,2.135c1.787,5.343 5.09,6.082 9.82,2.198c2.6,-2.134 4.161,-3.623 5.738,-5.475c0.38,-0.445 0.859,-1.008 1.066,-1.25c2.277,-2.664 4.994,-7.856 6.293,-12.025c1.432,-4.595 1.471,-4.14 -0.547,-6.303c-0.116,-0.124 -0.405,-0.481 -0.643,-0.793c-0.684,-0.896 -0.729,-0.644 -0.73,4.065c0,5.968 -0.29,7.559 -1.685,9.252c-2.148,2.606 -6.777,2.075 -8.103,-0.929c-0.379,-0.859 -0.696,-0.788 -1.497,0.333c-0.998,1.398 -2.703,3.209 -3.022,3.209c-0.193,0 -0.373,-0.314 -0.598,-1.042c-0.177,-0.573 -0.368,-1.117 -0.423,-1.208c-0.056,-0.092 -0.197,-0.467 -0.313,-0.834c-0.117,-0.366 -0.329,-0.966 -0.472,-1.333c-0.143,-0.367 -0.318,-0.817 -0.389,-1c-0.071,-0.183 -0.255,-0.708 -0.409,-1.167c-0.155,-0.458 -0.346,-0.983 -0.426,-1.166c-0.08,-0.184 -0.255,-0.671 -0.388,-1.084c-0.134,-0.412 -0.334,-0.975 -0.446,-1.25c-0.112,-0.275 -0.263,-0.65 -0.336,-0.833c-0.218,-0.549 -0.952,-2.613 -1.215,-3.417c-0.135,-0.412 -0.337,-0.975 -0.449,-1.25c-0.112,-0.275 -0.263,-0.65 -0.336,-0.833c-0.218,-0.549 -0.952,-2.613 -1.215,-3.417c-0.135,-0.412 -0.337,-0.975 -0.449,-1.25c-0.388,-0.954 -0.471,-1.173 -0.898,-2.375c-0.237,-0.664 -0.624,-1.752 -0.86,-2.416c-0.237,-0.665 -0.493,-1.359 -0.57,-1.542c-0.077,-0.183 -0.334,-0.877 -0.57,-1.542c-0.237,-0.664 -0.624,-1.752 -0.86,-2.416c-0.237,-0.665 -0.493,-1.359 -0.57,-1.542c-0.077,-0.183 -0.34,-0.896 -0.584,-1.583c-0.244,-0.688 -0.503,-1.4 -0.576,-1.584c-0.074,-0.183 -0.269,-0.67 -0.435,-1.083zM310.083,160.948c-0.573,-0.309 -3.235,-0.319 -4.083,-0.016c-1.987,0.71 -3.681,2.738 -4.582,5.485c-0.333,1.015 -1.059,3.043 -1.253,3.5c-0.078,0.183 -0.293,0.783 -0.478,1.333c-0.709,2.106 -1.376,4.013 -1.515,4.333c-0.08,0.184 -0.332,0.859 -0.561,1.5c-0.228,0.642 -0.578,1.617 -0.776,2.167c-0.199,0.55 -0.399,1.15 -0.445,1.333c-0.085,0.334 -0.171,0.567 -0.554,1.5c-0.113,0.275 -0.342,0.913 -0.509,1.417c-0.167,0.504 -0.611,1.779 -0.988,2.833c-0.377,1.054 -0.798,2.254 -0.937,2.667c-0.139,0.412 -0.315,0.9 -0.393,1.083c-0.077,0.184 -0.267,0.709 -0.421,1.167c-0.154,0.458 -0.342,0.983 -0.417,1.167c-1.657,4.058 -0.635,7.212 2.565,7.916c2.39,0.527 3.985,-1.01 5.275,-5.083c0.291,-0.917 0.635,-1.91 0.766,-2.208l0.239,-0.542h6.549c7.556,0 6.879,-0.168 7.405,1.833c1.158,4.406 2.582,6.167 4.987,6.167c2.726,0 4.66,-2.183 4.305,-4.858c-0.098,-0.739 -3.114,-10.161 -3.593,-11.225c-0.083,-0.184 -0.533,-1.496 -0.999,-2.917c-0.467,-1.421 -0.915,-2.733 -0.996,-2.917c-0.08,-0.183 -0.184,-0.483 -0.231,-0.666c-0.047,-0.184 -0.848,-2.546 -1.781,-5.25c-0.933,-2.705 -1.734,-5.124 -1.781,-5.377c-0.048,-0.254 -0.152,-0.502 -0.234,-0.552c-0.081,-0.05 -0.147,-0.209 -0.147,-0.354c0,-1.204 -2.306,-4.431 -3.593,-5.028zM260.953,160.933c-2.259,-0.754 -4.351,0.286 -5.203,2.585c-0.489,1.318 -0.518,22.573 -0.035,24.732c0.641,2.858 1.842,6.087 2.451,6.583c0.056,0.046 0.269,0.359 0.474,0.696c0.42,0.693 2.482,2.667 3.161,3.028c3.782,2.01 5.077,2.332 9.449,2.348c3.299,0.013 5.09,-0.268 7.083,-1.109c5.104,-2.155 7.639,-5.893 8.737,-12.887c0.383,-2.433 0.391,-21.002 0.011,-22.499c-1.078,-4.24 -5.976,-5.196 -7.655,-1.493c-0.633,1.396 -0.641,1.52 -0.767,12.083c-0.137,11.473 -0.153,11.647 -1.25,13.888c-2.358,4.816 -10.036,4.801 -12.248,-0.024c-1.148,-2.506 -1.161,-2.644 -1.161,-12.776zM199.533,161.035c-1.486,-0.834 -3.974,-0.161 -5.013,1.355c-1.03,1.504 -1.02,1.334 -1.02,18.215c0,16.249 -0.012,15.978 0.758,17.665c1.247,2.733 5.699,2.757 7.027,0.038c0.735,-1.507 0.752,-1.678 0.84,-8.548l0.085,-6.657l0.52,0.576c0.286,0.317 1.007,1.135 1.603,1.817c0.596,0.682 1.389,1.581 1.763,1.997c0.373,0.416 0.907,1.019 1.185,1.34c0.84,0.969 3.121,3.571 3.301,3.766c0.092,0.1 1.068,1.224 2.168,2.497c3.827,4.43 4.754,5.154 6.596,5.154c2.03,-0.001 3.944,-1.885 3.979,-3.917c0.01,-0.6 -0.477,-2.206 -0.7,-2.305c-0.069,-0.031 -0.127,-0.143 -0.129,-0.25c-0.007,-0.269 -1.184,-1.798 -2.598,-3.374c-0.653,-0.726 -1.888,-2.108 -2.747,-3.071c-0.858,-0.962 -1.599,-1.787 -1.647,-1.833c-0.048,-0.046 -0.569,-0.646 -1.158,-1.333c-0.589,-0.688 -1.152,-1.325 -1.25,-1.417c-0.099,-0.092 -0.667,-0.729 -1.263,-1.415c-0.596,-0.687 -1.253,-1.437 -1.461,-1.667c-0.503,-0.556 -0.483,-0.6 0.961,-2.119c4.633,-4.869 7.121,-7.521 8.648,-9.216c1.229,-1.363 1.697,-3.645 1.041,-5.083c-0.379,-0.832 -1.142,-1.75 -1.453,-1.75c-0.13,0 -0.236,-0.057 -0.236,-0.126c0,-0.201 -1.263,-0.541 -2.008,-0.541c-1.366,0 -3.064,1.182 -4.992,3.476c-1.062,1.265 -1.3,1.543 -1.804,2.108c-0.245,0.275 -0.662,0.762 -0.926,1.083c-0.264,0.321 -0.873,1.033 -1.352,1.583c-0.479,0.55 -2.026,2.348 -3.436,3.995l-2.565,2.995l-0.1,-5.578zM248.195,161.432c-1.247,-0.313 -18.387,-0.363 -19.612,-0.056c-2.647,0.662 -3.75,1.832 -3.75,3.98c0,2.889 1.688,3.977 6.417,4.137l2.667,0.09l0.092,13.417c0.093,13.503 0.124,14.154 0.725,15.306c1.285,2.467 5.071,2.773 6.691,0.541c1.097,-1.511 1.075,-1.192 1.075,-15.892v-13.273l0.542,-0.084c0.298,-0.046 1.591,-0.117 2.875,-0.158c4.195,-0.133 5.75,-1.242 5.75,-4.1zM333.489,160.945c-2.041,-0.66 -4.076,0.121 -4.857,1.863c-0.191,0.426 -0.43,0.955 -0.531,1.176c-0.131,0.283 -0.184,5.114 -0.184,16.513v16.113l0.48,0.949c1.056,2.087 2.516,2.441 10.059,2.441c9.55,0 11.905,-1.107 11.039,-5.191c-0.557,-2.622 -2.526,-3.3 -9.614,-3.306l-3.37,-0.003l-0.05,-13.375l-0.051,-13.375l-0.389,-1.103zM258.696,141.033c-1.268,-0.285 -5.979,-0.235 -6.556,0.07c-0.884,0.467 -0.973,1.165 -0.973,7.599c0,7.744 -0.111,7.507 3.536,7.606c5.765,0.158 8.074,-1.322 9.059,-5.808zM231.397,141.018c-1.23,-0.331 -5.39,-0.239 -6,0.134c-0.858,0.523 -0.897,0.852 -0.897,7.545c0,7.303 0.112,7.803 1.75,7.803c1.295,0 1.75,-0.952 1.75,-3.659c0,-1.074 0.048,-2 0.106,-2.058c0.058,-0.058 1,1.053 2.093,2.468c2.68,3.47 3.623,4.019 4.703,2.736c0.889,-1.056 0.598,-1.83 -1.686,-4.482c-1.268,-1.472 -1.443,-1.838 -0.879,-1.838c0.876,0 2.27,-1.338 2.659,-2.555zM244.237,140.992c-2.066,-1.277 -3.335,-0.11 -4.902,4.508c-0.171,0.504 -0.619,1.779 -0.996,2.833c-0.377,1.054 -0.798,2.254 -0.937,2.667c-0.139,0.413 -0.315,0.9 -0.393,1.083c-1.114,2.64 -0.769,4.417 0.858,4.417c0.953,0 1.375,-0.487 2.06,-2.379l0.288,-0.796l2.594,0.046l2.593,0.046l0.371,1.083c0.941,2.744 4.232,2.606 3.625,-0.153c-0.14,-0.632 -1.39,-4.382 -1.574,-4.72c-0.086,-0.159 -0.157,-0.425 -0.157,-0.591c0,-0.167 -0.06,-0.374 -0.133,-0.461c-0.073,-0.087 -0.269,-0.608 -0.436,-1.158c-0.167,-0.55 -0.365,-1.15 -0.441,-1.334c-0.075,-0.183 -0.373,-1.046 -0.661,-1.916zM282.592,140.92c-0.886,-0.404 -4.024,-0.519 -5.092,-0.186c-0.412,0.129 -0.919,0.288 -1.125,0.353c-0.206,0.065 -0.375,0.185 -0.375,0.266c0,0.081 -0.104,0.147 -0.232,0.147c-0.378,0 -2.097,1.979 -2.518,2.899c-3.368,7.348 2.87,14.822 9.711,11.635l-0.13038,-5.34045c-0.74625,2.17946 -2.70289,3.24536 -4.63062,2.23845l0.623,-8.946c1.85463,-0.36855 3.23154,0.3909 3.89257,1.9955zM269.176,140.838c-1.076,-0.576 -2.221,0.051 -2.512,1.374c-0.287,1.309 -0.161,12.725 0.147,13.288c0.532,0.973 1.455,1.256 2.357,0.722c0.816,-0.481 0.832,-0.632 0.832,-7.655zM204.028,166.838c-0.795,-1.976 -0.861,-1.797 -0.861,2.315c0,3.16 0.035,3.68 0.25,3.68c0.137,0 0.252,-0.056 0.255,-0.125c0.003,-0.068 0.378,-0.537 0.833,-1.041c1.01,-1.119 1.012,-1.171 0.161,-3.25zM282.71557,145.9815l0.11504,4.71205c0.16386,-0.47855 0.26936,-1.01078 0.30338,-1.58655c0.07359,-1.24149 -0.07684,-2.29633 -0.41843,-3.1255z" fill="#fbfbfb" fill-rule="nonzero" stroke-width="1"/><path d="" fill="#fbfbfb" fill-rule="nonzero" stroke-width="1"/><path d="" fill="#fbfbfb" fill-rule="nonzero" stroke-width="0"/><path d="M166.917,161.024c3.328,-1.093 6.824,0.843 8.234,4.559c0.209,0.55 0.479,1.263 0.602,1.584c0.122,0.32 0.423,1.146 0.668,1.833c0.245,0.688 0.694,1.925 0.998,2.75c0.303,0.825 0.753,2.063 1,2.75c0.246,0.688 0.696,1.925 1,2.75c0.303,0.825 0.752,2.063 0.996,2.75c0.245,0.688 0.508,1.4 0.585,1.583c0.077,0.184 0.333,0.877 0.57,1.542c0.236,0.665 0.624,1.752 0.86,2.417c0.237,0.664 0.493,1.358 0.57,1.541c0.077,0.184 0.333,0.877 0.57,1.542c0.236,0.665 0.624,1.752 0.86,2.417c0.237,0.664 0.493,1.358 0.57,1.541c0.077,0.184 0.333,0.877 0.57,1.542c0.236,0.665 0.624,1.752 0.86,2.417c0.237,0.664 0.493,1.358 0.57,1.541c0.077,0.184 0.34,0.896 0.585,1.584c0.774,2.177 0.938,2.577 1.158,2.833c0.119,0.138 0.31,0.55 0.424,0.917c0.115,0.366 0.299,0.854 0.409,1.083c0.109,0.229 0.3,0.754 0.424,1.167c0.124,0.412 0.287,0.821 0.362,0.908c0.076,0.087 0.138,0.326 0.138,0.532c0,0.205 0.068,0.415 0.151,0.467c0.083,0.051 0.279,0.524 0.435,1.051c0.255,0.866 0.544,1.609 0.936,2.41c0.265,0.542 -0.014,0.925 -1.272,1.746c-0.367,0.24 -0.704,0.482 -0.75,0.539c-0.449,0.56 -2.195,1.084 -3.195,0.959c-2.334,-0.293 -3.179,-1.001 -4.105,-3.446c-0.087,-0.229 -0.251,-0.641 -0.363,-0.916c-0.112,-0.275 -0.417,-1.138 -0.677,-1.917c-0.606,-1.815 -0.844,-2.503 -1.01,-2.917c-0.15,-0.375 -0.994,-2.818 -1.496,-4.333c-0.183,-0.55 -0.4,-1.15 -0.483,-1.333c-0.083,-0.184 -0.376,-1.009 -0.651,-1.834c-0.934,-2.802 -1.735,-4.999 -1.898,-5.208c-0.238,-0.304 -14.336,-0.303 -14.589,0.002c-0.096,0.115 -0.329,0.802 -0.519,1.525c-0.415,1.588 -0.672,2.417 -0.868,2.804c-0.08,0.159 -0.146,0.369 -0.146,0.466c0,1.305 -2.044,2.828 -3.796,2.828c-3.805,0 -5.286,-3.109 -3.533,-7.417c0.203,-0.5 0.94,-2.564 1.219,-3.416c0.135,-0.413 0.337,-0.975 0.448,-1.25c0.112,-0.275 0.263,-0.65 0.336,-0.834c0.218,-0.549 0.953,-2.613 1.216,-3.416c0.135,-0.413 0.337,-0.975 0.448,-1.25c0.112,-0.275 0.263,-0.65 0.336,-0.834c0.174,-0.436 0.901,-2.465 1.226,-3.416c0.496,-1.455 0.706,-1.995 0.819,-2.108c0.063,-0.063 0.114,-0.275 0.114,-0.47c0,-0.196 0.067,-0.427 0.149,-0.514c0.081,-0.087 0.379,-0.833 0.662,-1.658c0.796,-2.32 0.952,-2.735 1.075,-2.858c0.063,-0.063 0.114,-0.275 0.114,-0.47c0,-0.196 0.065,-0.427 0.144,-0.514c0.079,-0.087 0.372,-0.833 0.651,-1.658c1.57,-4.641 2.628,-6.02 5.289,-6.893M196.474,161.081c1.792,-0.659 3.645,0.012 4.614,1.669c0.781,1.337 0.912,2.507 0.912,8.167c0,2.877 0.063,5.269 0.141,5.317c0.077,0.048 1.071,-1.01 2.208,-2.351c1.137,-1.342 2.143,-2.52 2.234,-2.619c0.092,-0.099 0.579,-0.668 1.083,-1.264c0.503,-0.596 0.954,-1.121 1.001,-1.167c0.047,-0.045 0.497,-0.571 1,-1.166c0.503,-0.596 0.955,-1.121 1.004,-1.167c0.05,-0.046 0.527,-0.608 1.061,-1.25c3.713,-4.46 6.248,-5.399 8.395,-3.109c1.932,2.061 1.348,4.499 -1.897,7.914c-8.318,8.752 -8.39,8.83 -8.393,9.058c-0.002,0.108 0.09,0.297 0.205,0.419c0.114,0.122 0.733,0.821 1.375,1.553c0.641,0.733 1.241,1.412 1.333,1.51c0.092,0.098 0.654,0.734 1.25,1.412c0.596,0.679 1.461,1.648 1.922,2.155c0.461,0.507 1.131,1.259 1.487,1.671c0.357,0.413 1.207,1.368 1.89,2.123c4.261,4.713 4.851,6.743 2.609,8.99c-2.08,2.083 -4.245,1.559 -7.055,-1.707c-0.31,-0.361 -0.873,-0.993 -1.252,-1.406c-0.378,-0.412 -1.436,-1.612 -2.35,-2.666c-0.914,-1.055 -1.859,-2.142 -2.1,-2.417c-4.766,-5.437 -6.178,-7.055 -6.574,-7.533c-0.541,-0.654 -0.577,-0.281 -0.577,5.968c0,8.892 -0.49,10.468 -3.39,10.903c-2.575,0.386 -3.97,-0.618 -4.708,-3.388c-0.343,-1.289 -0.338,-30.971 0.006,-32.411c0.422,-1.767 1.162,-2.692 2.566,-3.208M258.195,161.045c1.784,-0.571 3.657,0.033 4.566,1.473c0.917,1.453 0.938,1.706 1.055,13.065c0.073,7.026 0.169,10.611 0.29,10.834c0.099,0.183 0.224,0.566 0.278,0.85c1.18,6.242 10.538,7.35 13.232,1.566c1.081,-2.319 1.092,-2.445 1.21,-13.833c0.108,-10.409 0.126,-10.702 0.757,-12.083c1.198,-2.622 5.293,-2.761 6.716,-0.228c0.835,1.486 0.868,1.965 0.868,12.571c0,9.818 -0.044,10.793 -0.609,13.573c-1.978,9.738 -10.163,14.051 -21.253,11.199c-4.834,-1.243 -8.131,-5.476 -9.501,-12.199c-0.396,-1.942 -0.314,-23.148 0.094,-24.32c0.362,-1.041 1.434,-2.192 2.297,-2.468M305.583,161.304c2.113,-0.995 5.06,-0.418 6.665,1.305c1.123,1.206 2.143,3.352 2.919,6.141c0.076,0.275 0.713,2.15 1.415,4.167c0.702,2.016 1.315,3.816 1.362,4c0.047,0.183 0.127,0.445 0.177,0.583c0.449,1.22 1.756,4.988 1.822,5.25c0.047,0.183 0.149,0.483 0.228,0.667c1.285,2.981 3.89,11.641 3.887,12.918c-0.005,2.088 -0.781,3.178 -2.675,3.752c-3.221,0.977 -5.039,-0.82 -6.41,-6.337c-0.336,-1.355 0.254,-1.259 -7.37,-1.21l-6.853,0.043l-0.762,2.27c-1.535,4.571 -2.837,5.834 -5.4,5.238c-2.582,-0.6 -3.774,-3.427 -2.711,-6.424c0.147,-0.413 0.578,-1.613 0.958,-2.667c0.381,-1.054 0.833,-2.329 1.004,-2.833c0.171,-0.505 0.623,-1.78 1.004,-2.834c0.381,-1.054 0.731,-2.086 0.778,-2.294c0.047,-0.207 0.152,-0.418 0.232,-0.468c0.081,-0.05 0.147,-0.269 0.147,-0.488c0,-0.218 0.069,-0.439 0.154,-0.492c0.084,-0.052 0.206,-0.335 0.271,-0.629c0.065,-0.294 0.18,-0.649 0.258,-0.79c0.127,-0.232 0.59,-1.543 1.504,-4.255c0.185,-0.55 0.4,-1.15 0.478,-1.334c0.161,-0.378 0.853,-2.294 1.234,-3.416c0.141,-0.413 0.566,-1.613 0.946,-2.667c0.38,-1.054 0.729,-2.087 0.776,-2.294c0.047,-0.208 0.152,-0.418 0.232,-0.468c0.081,-0.05 0.147,-0.194 0.147,-0.319c0,-0.974 2.145,-3.438 3.583,-4.115M330.7,161.113c2.514,-0.889 4.744,0.451 5.358,3.22c0.098,0.443 0.206,6.188 0.262,14l0.097,13.25l4.333,0.113c4.743,0.123 5.604,0.224 6.8,0.798c2.393,1.149 2.562,4.955 0.283,6.351c-1.144,0.702 -1.609,0.738 -9.333,0.738c-11.65,0 -10.523,2.093 -10.462,-19.427l0.045,-15.739l0.379,-0.937c0.469,-1.158 1.297,-2.034 2.238,-2.367M228.5,161.578c1.268,-0.291 17.728,-0.331 19.314,-0.047c2.504,0.45 3.741,1.698 3.728,3.762c-0.019,2.925 -1.396,3.84 -6.042,4.014l-2.917,0.11l-0.099,13.416c-0.105,14.194 -0.091,13.939 -0.872,15.442c-1.34,2.577 -5.367,2.562 -6.672,-0.025c-0.829,-1.643 -0.839,-1.815 -0.934,-15.75l-0.089,-13.083l-2.75,-0.098c-4.508,-0.161 -5.918,-0.985 -6.126,-3.579c-0.184,-2.285 0.884,-3.569 3.459,-4.162M169.811,172.792c-0.869,-2.781 -1.016,-2.879 -1.562,-1.042c-0.163,0.55 -0.539,1.75 -0.835,2.667c-0.296,0.916 -0.929,2.904 -1.407,4.416c-0.478,1.513 -1.055,3.302 -1.282,3.977c-0.611,1.811 -0.904,1.69 4.108,1.69c5.175,0 4.949,0.162 3.834,-2.75c-0.123,-0.32 -0.405,-1.22 -1.41,-4.5c-0.253,-0.825 -0.52,-1.65 -0.594,-1.833c-0.074,-0.184 -0.458,-1.365 -0.852,-2.625M308.405,172.042c-0.626,-2.072 -0.609,-2.085 -1.667,1.291c-0.244,0.779 -0.502,1.567 -0.573,1.75c-0.071,0.184 -0.401,1.196 -0.733,2.25c-0.332,1.054 -0.969,3.042 -1.414,4.417c-0.446,1.375 -0.778,2.556 -0.738,2.625c0.04,0.069 2.019,0.125 4.397,0.125h4.323v-0.409c0,-0.225 -0.071,-0.581 -0.157,-0.791c-0.185,-0.453 -1.154,-3.643 -2.166,-7.133c-0.199,-0.688 -0.462,-1.55 -0.584,-1.917c-0.122,-0.367 -0.432,-1.36 -0.688,-2.208" fill="#10389d" fill-rule="evenodd" stroke-width="1"/><path d="M168.719,171.042c0.205,-0.276 0.448,-0.266 0.448,0.018c0,0.125 0.263,1.044 0.586,2.042c1.033,3.202 1.687,5.261 2.402,7.565c0.385,1.237 0.769,2.422 0.855,2.633c0.439,1.074 0.604,1.033 -4.177,1.033c-3.207,0 -4.333,-0.051 -4.333,-0.195c0,-0.108 0.179,-0.727 0.397,-1.375c0.218,-0.649 0.675,-2.08 1.015,-3.18c0.34,-1.1 0.679,-2.15 0.752,-2.333c0.073,-0.183 0.338,-1.008 0.589,-1.833c0.25,-0.825 0.516,-1.65 0.592,-1.834c0.075,-0.183 0.268,-0.783 0.428,-1.333z" fill="#fbfbfb" fill-rule="nonzero" stroke-width="1"/><path d="M307.135,172.625c0.673,-2.042 0.712,-2.08 1.012,-1c0.121,0.435 0.317,1.092 0.436,1.458c0.119,0.367 0.309,1.004 0.424,1.417c0.114,0.412 0.3,1.05 0.413,1.417c0.113,0.366 0.374,1.229 0.579,1.916c0.205,0.688 0.469,1.55 0.587,1.917c0.117,0.367 0.295,0.967 0.394,1.333c0.1,0.367 0.333,1.148 0.518,1.736c0.184,0.588 0.335,1.169 0.335,1.292c0,0.18 -0.82,0.222 -4.267,0.222c-3.998,0 -4.261,-0.018 -4.154,-0.291c0.064,-0.161 0.342,-1.005 0.619,-1.875c0.276,-0.871 0.562,-1.734 0.635,-1.917c0.073,-0.183 0.525,-1.571 1.006,-3.083z" fill="#fbfbfb" fill-rule="nonzero" stroke-width="1"/><path d="M254.944,144.278c0.367,-0.366 3.09,0.109 3.849,0.672c0.967,0.717 1.263,1.552 1.258,3.552c-0.007,3.119 -1.116,4.331 -3.962,4.331h-1.256v-4.222z" fill="#fbfbfb" fill-rule="nonzero" stroke-width="1"/><path d="M228.071,144.388c0.216,-0.562 2.55,-0.176 3.134,0.519c1.037,1.235 0.059,2.676 -1.815,2.676h-1.307l-0.048,-1.486z" fill="#fbfbfb" fill-rule="nonzero" stroke-width="1"/><path d="M242.711,145.377c0.219,-0.283 0.4,-0.136 0.506,0.413c0.049,0.253 0.167,0.722 0.262,1.043c0.096,0.321 0.297,0.996 0.447,1.5c0.547,1.834 0.655,1.667 -1.073,1.667c-1.336,0 -1.52,-0.035 -1.521,-0.292z" fill="#fbfbfb" fill-rule="nonzero" stroke-width="1"/><path d="M277.5,140.734c2.035,-0.634 4.898,-0.142 6.639,1.142c4.348,3.208 3.623,11.921 -1.178,14.158c-6.841,3.187 -13.079,-4.287 -9.711,-11.635c0.421,-0.92 2.14,-2.899 2.518,-2.899c0.128,0 0.232,-0.066 0.232,-0.147c0,-0.081 0.169,-0.201 0.375,-0.266c0.206,-0.065 0.713,-0.224 1.125,-0.353M241.662,140.937c1.763,-1.095 3.275,0.032 4.334,3.23c0.288,0.87 0.586,1.733 0.661,1.916c0.076,0.184 0.274,0.784 0.441,1.334c0.167,0.55 0.363,1.071 0.436,1.158c0.073,0.087 0.133,0.294 0.133,0.461c0,0.166 0.071,0.432 0.157,0.591c0.184,0.338 1.434,4.088 1.574,4.72c0.607,2.759 -2.684,2.897 -3.625,0.153l-0.371,-1.083l-2.593,-0.046l-2.594,-0.046l-0.288,0.796c-0.685,1.892 -1.107,2.379 -2.06,2.379c-1.627,0 -1.972,-1.777 -0.858,-4.417c0.078,-0.183 0.254,-0.67 0.393,-1.083c0.139,-0.413 0.56,-1.613 0.937,-2.667c0.377,-1.054 0.825,-2.329 0.996,-2.833c1.037,-3.056 1.563,-4.088 2.327,-4.563M267.284,141.003c0.803,-0.631 2.007,-0.39 2.464,0.494c0.316,0.61 0.38,13.372 0.071,14.051c-0.39,0.857 -1.729,1.22 -2.424,0.657c-0.792,-0.642 -0.808,-0.775 -0.867,-7.122c-0.06,-6.597 0.025,-7.505 0.756,-8.08M225.397,141.152c1.851,-1.129 7.706,-0.098 8.891,1.565c1.789,2.512 0.543,6.95 -1.951,6.95c-0.564,0 -0.389,0.366 0.879,1.838c2.284,2.652 2.575,3.426 1.686,4.482c-1.08,1.283 -2.023,0.734 -4.703,-2.736c-1.093,-1.415 -2.035,-2.526 -2.093,-2.468c-0.058,0.058 -0.106,0.984 -0.106,2.058c0,2.707 -0.455,3.659 -1.75,3.659c-1.638,0 -1.75,-0.5 -1.75,-7.803c0,-6.693 0.039,-7.022 0.897,-7.545M252.14,141.103c0.577,-0.305 5.288,-0.355 6.556,-0.07c1.705,0.384 3.072,1.359 4.043,2.884c1.899,2.984 1.576,7.916 -0.674,10.291c-1.552,1.637 -3.542,2.205 -7.362,2.1c-3.647,-0.099 -3.536,0.138 -3.536,-7.606c0,-6.434 0.089,-7.132 0.973,-7.599M164.833,143.328c1.085,-0.363 8.759,-0.004 11.084,0.518c0.458,0.102 1.17,0.261 1.583,0.353c0.834,0.185 3.398,0.925 3.917,1.129c0.183,0.073 0.67,0.264 1.083,0.425c5.915,2.307 10.965,5.847 14.991,10.506c1.279,1.48 2.509,3.091 2.509,3.285c0,0.037 -0.851,0.061 -1.891,0.054c-2.071,-0.016 -2.344,0.064 -3.592,1.051c-0.745,0.59 -1.684,2.276 -1.684,3.025c0,0.39 -0.282,0.993 -0.464,0.992c-0.065,0 -0.492,-0.469 -0.949,-1.042c-1.52,-1.906 -3.747,-4.093 -5.26,-5.164c-1.862,-1.319 -2.327,-1.633 -2.911,-1.965c-16.883,-9.601 -37.548,-0.898 -42.55,17.922c-1.108,4.165 -1.121,10.251 -0.031,14.25c3.694,13.558 14.87,21.973 29.216,21.996c2.36,0.004 3.036,0.245 4.138,1.471c2.411,2.684 1.244,6.704 -2.213,7.624c-3.001,0.799 -11.406,-0.229 -15.726,-1.924c-9.735,-3.82 -16.596,-9.633 -20.92,-17.726c-0.287,-0.537 -0.654,-1.212 -0.815,-1.5c-0.385,-0.687 -1.901,-4.481 -2.174,-5.441c-0.117,-0.413 -0.275,-0.938 -0.352,-1.167c-0.144,-0.432 -0.506,-1.972 -0.803,-3.417c-0.889,-4.318 -0.614,-12.219 0.573,-16.5c0.152,-0.55 0.335,-1.225 0.406,-1.5c0.797,-3.088 4.078,-9.849 5.442,-11.213c0.125,-0.125 0.227,-0.283 0.227,-0.35c0,-0.068 0.131,-0.27 0.291,-0.448c0.161,-0.178 0.717,-0.848 1.236,-1.489c1.47,-1.817 3.797,-4.127 5.64,-5.598c1.039,-0.83 3.144,-2.318 3.278,-2.318c0.062,0 0.23,-0.102 0.375,-0.227c0.695,-0.598 4.125,-2.321 6.346,-3.187c0.413,-0.161 0.9,-0.352 1.084,-0.425c0.361,-0.142 2.971,-0.916 3.916,-1.161c1.067,-0.276 3.332,-0.667 3.962,-0.684c0.342,-0.009 0.809,-0.079 1.038,-0.155M281.469,144.373c-3.031,-1.832 -5.867,1.153 -5.15,5.421c0.476,2.831 2.681,4.228 4.898,3.101c2.498,-1.27 2.67,-7.06 0.252,-8.522M230.45,144.365c-0.647,-0.276 -2.27,-0.26 -2.379,0.023c-0.047,0.122 -0.063,0.891 -0.036,1.709l0.048,1.486h1.307c2.329,0 3.103,-2.347 1.06,-3.218M257.264,144.357c-1.1,-0.212 -2.151,-0.248 -2.32,-0.079c-0.061,0.061 -0.111,2.011 -0.111,4.333v4.222h1.256c2.846,0 3.955,-1.212 3.962,-4.331c0.006,-2.675 -0.713,-3.745 -2.787,-4.145M243.217,145.79c-0.215,-1.115 -0.496,-0.738 -1.276,1.71c-0.848,2.662 -0.907,2.5 0.912,2.5c1.728,0 1.62,0.167 1.073,-1.667c-0.15,-0.504 -0.351,-1.179 -0.447,-1.5c-0.095,-0.321 -0.213,-0.79 -0.262,-1.043M168.125,160.789c-0.39,-0.035 -0.071,-0.064 0.708,-0.064c0.779,0 1.098,0.029 0.709,0.064c-0.39,0.035 -1.027,0.035 -1.417,0M196.627,160.833c0.251,-0.076 0.794,-0.134 1.206,-0.13c0.715,0.007 0.706,0.013 -0.209,0.13c-1.471,0.189 -2.44,0.765 -3.082,1.834c-0.298,0.496 -0.542,0.806 -0.542,0.689c0,-0.723 1.531,-2.193 2.627,-2.523M259.211,160.786c-0.254,-0.038 -0.086,-0.07 0.372,-0.072c0.459,-0.001 0.666,0.03 0.461,0.07c-0.205,0.04 -0.58,0.041 -0.833,0.002M283.167,160.832l-0.917,-0.122l0.75,-0.014c1.734,-0.034 3.837,1.537 3.833,2.861c-0.001,0.106 -0.186,-0.171 -0.411,-0.616c-0.672,-1.323 -1.532,-1.881 -3.255,-2.109M308.083,160.822l-1.5,-0.123l1.625,0.033c1.113,0.023 1.69,0.104 1.833,0.259c0.172,0.185 0.151,0.201 -0.124,0.09c-0.184,-0.074 -1.009,-0.191 -1.834,-0.259M330.791,160.904c0.344,-0.122 0.963,-0.216 1.376,-0.208l0.75,0.014l-0.917,0.122c-1.746,0.231 -2.724,0.888 -3.352,2.251c-0.169,0.367 -0.309,0.57 -0.311,0.452c-0.014,-0.847 1.247,-2.2 2.454,-2.631M166.5,161c0.138,-0.089 0.4,-0.157 0.583,-0.152l0.334,0.009l-0.334,0.143c-0.498,0.214 -0.914,0.214 -0.583,0M170.583,161c-0.21,-0.09 -0.241,-0.143 -0.083,-0.143c0.137,0 0.4,0.064 0.583,0.143c0.21,0.09 0.241,0.143 0.084,0.143c-0.138,0 -0.4,-0.064 -0.584,-0.143M198.917,161c-0.322,-0.138 -0.321,-0.144 0.031,-0.155c0.201,-0.006 0.412,0.063 0.469,0.155c0.122,0.197 -0.042,0.197 -0.5,0M216.391,160.961c0.106,-0.067 0.567,-0.123 1.026,-0.123c0.458,0 0.92,0.056 1.025,0.123c0.106,0.067 -0.355,0.122 -1.025,0.122c-0.67,0 -1.132,-0.055 -1.026,-0.122M281.417,161c0.056,-0.092 0.267,-0.161 0.468,-0.155c0.352,0.011 0.353,0.017 0.032,0.155c-0.459,0.197 -0.622,0.197 -0.5,0M305.46,161.158c0.343,-0.171 0.736,-0.311 0.873,-0.31c0.138,0 -0.2,0.209 -0.75,0.464c-1.16,0.537 -2.216,1.548 -2.941,2.815c-0.281,0.491 -0.548,0.856 -0.592,0.812c-0.382,-0.382 2.089,-3.121 3.41,-3.781M165.583,161.385c0.476,-0.284 0.708,-0.264 0.324,0.026c-0.178,0.135 -0.402,0.247 -0.497,0.25c-0.487,0.015 -2.098,1.973 -2.61,3.172c-0.589,1.379 -0.779,1.733 -0.789,1.469c-0.006,-0.156 0.064,-0.329 0.156,-0.385c0.091,-0.057 0.166,-0.233 0.166,-0.39c0,-0.907 1.915,-3.347 3.25,-4.142M172.086,161.606c-0.737,-0.488 -0.699,-0.606 0.048,-0.148c1.066,0.655 2.911,2.719 2.657,2.973c-0.046,0.046 -0.274,-0.238 -0.507,-0.632c-0.474,-0.804 -1.213,-1.541 -2.198,-2.193M200.233,161.674c-0.318,-0.279 -0.516,-0.507 -0.439,-0.507c0.416,0 1.873,1.963 1.873,2.524c0,0.114 -0.193,-0.179 -0.428,-0.651c-0.236,-0.472 -0.688,-1.087 -1.006,-1.366M215.333,161.461c0.873,-0.579 0.678,-0.263 -0.229,0.372c-0.524,0.367 -0.992,0.667 -1.041,0.667c-0.108,0 0.698,-0.659 1.27,-1.039M228.964,161.303c0.629,-0.249 18.236,-0.136 19.119,0.122l0.834,0.245l-0.834,-0.127c-0.458,-0.069 -5.012,-0.126 -10.119,-0.126c-5.107,0 -9.157,-0.051 -9,-0.114M256.681,161.94c0.374,-0.425 0.768,-0.771 0.875,-0.769c0.107,0.003 -0.051,0.209 -0.351,0.458c-0.3,0.25 -0.693,0.679 -0.874,0.954c-0.181,0.275 -0.329,0.417 -0.33,0.315c-0.001,-0.101 0.305,-0.532 0.68,-0.958M261.887,161.528c-0.259,-0.193 -0.385,-0.353 -0.281,-0.356c0.598,-0.017 2.073,2.358 2.05,3.3c-0.008,0.301 -0.087,0.163 -0.246,-0.427c-0.282,-1.048 -0.882,-2.039 -1.523,-2.517M280.266,161.767c0.331,-0.33 0.668,-0.6 0.751,-0.6c0.083,0 -0.151,0.272 -0.519,0.605c-0.772,0.697 -1.063,1.248 -1.397,2.645c-0.134,0.559 -0.246,0.809 -0.254,0.566c-0.03,-0.94 0.623,-2.42 1.419,-3.216M310.347,161.22c-0.038,-0.029 0.037,-0.053 0.167,-0.053c0.13,0.001 0.461,0.19 0.736,0.42l0.5,0.42l-0.667,-0.367c-0.366,-0.202 -0.698,-0.391 -0.736,-0.42M220.007,162.033c-0.293,-0.293 -0.459,-0.533 -0.368,-0.533c0.251,0 1.042,1.001 1.383,1.75c0.409,0.897 0.401,2.453 -0.018,3.375c-0.433,0.955 -0.577,0.907 -0.165,-0.055c0.647,-1.509 0.299,-3.406 -0.832,-4.537M227.333,161.767c0.23,-0.14 0.605,-0.25 0.834,-0.244c0.381,0.01 0.374,0.022 -0.084,0.14c-0.275,0.071 -0.65,0.181 -0.833,0.245c-0.221,0.076 -0.193,0.029 0.083,-0.141M249,161.735c0,-0.146 0.249,-0.052 0.957,0.363c0.879,0.515 1.718,1.744 1.691,2.476c-0.019,0.487 -0.025,0.483 -0.14,-0.107c-0.185,-0.956 -0.889,-1.88 -1.747,-2.295c-0.419,-0.203 -0.761,-0.399 -0.761,-0.437M335.022,162.083c-0.272,-0.332 -0.271,-0.332 0.117,-0.003c0.214,0.181 0.495,0.584 0.625,0.895c0.343,0.822 0.276,0.88 -0.125,0.108c-0.19,-0.366 -0.468,-0.816 -0.617,-1M225.925,162.608c0.335,-0.334 0.689,-0.608 0.788,-0.608c0.099,0 -0.127,0.263 -0.503,0.585c-0.932,0.797 -1.282,1.755 -1.167,3.189c0.054,0.667 0.031,1.014 -0.058,0.875c-0.544,-0.86 -0.03,-3.071 0.94,-4.041M311.941,162.166c-0.071,-0.137 0.213,0.124 0.631,0.579c0.419,0.456 0.759,0.906 0.756,1c-0.003,0.095 -0.114,0.028 -0.246,-0.147c-0.133,-0.175 -0.414,-0.513 -0.627,-0.751c-0.212,-0.238 -0.443,-0.544 -0.514,-0.681M213.212,163.292c0.289,-0.344 0.601,-0.625 0.693,-0.625c0.091,0 -0.174,0.356 -0.589,0.791c-0.415,0.436 -1.162,1.279 -1.659,1.875c-0.498,0.596 -0.943,1.121 -0.99,1.167c-0.047,0.046 -0.497,0.571 -1,1.167c-0.503,0.595 -0.953,1.121 -1,1.166c-0.047,0.046 -0.498,0.571 -1.001,1.167c-0.504,0.596 -0.991,1.165 -1.083,1.264c-0.091,0.099 -1.097,1.277 -2.234,2.619c-1.137,1.341 -2.131,2.399 -2.208,2.351c-0.078,-0.048 -0.124,-2.201 -0.103,-4.786l0.037,-4.698l0.088,4.661l0.087,4.661l2.565,-2.994c1.41,-1.647 2.957,-3.445 3.436,-3.995c0.479,-0.55 1.087,-1.262 1.351,-1.583c0.264,-0.321 0.559,-0.668 0.656,-0.771c0.098,-0.104 0.511,-0.58 0.918,-1.059c0.407,-0.48 0.914,-1.07 1.125,-1.312c0.211,-0.243 0.621,-0.723 0.911,-1.066M255.683,163.692c0.101,-0.289 0.218,-0.525 0.261,-0.525c0.043,0 0.023,0.168 -0.045,0.375c-0.068,0.206 -0.177,0.637 -0.242,0.958c-0.098,0.48 -0.122,0.506 -0.138,0.15c-0.01,-0.239 0.063,-0.67 0.164,-0.958M193.683,164.497c0.101,-0.469 0.22,-0.816 0.265,-0.771c0.045,0.045 -0.004,0.481 -0.11,0.969c-0.208,0.969 -0.169,31.278 0.042,32.222c0.065,0.286 0.013,0.215 -0.121,-0.167c-0.304,-0.867 -0.374,-30.862 -0.076,-32.253M286.857,164.083v-0.333l0.143,0.333c0.079,0.184 0.143,0.484 0.143,0.667v0.333l-0.143,-0.333c-0.079,-0.183 -0.143,-0.483 -0.143,-0.667M328.111,163.944c0.194,-0.193 0.216,-0.026 0.064,0.481c-0.144,0.483 -0.147,0.484 -0.161,0.061c-0.008,-0.237 0.036,-0.48 0.097,-0.542M201.695,164.25l-0.005,-0.333l0.143,0.333c0.079,0.183 0.141,0.521 0.139,0.75l-0.005,0.417l-0.134,-0.417c-0.073,-0.229 -0.135,-0.567 -0.138,-0.75M313.834,165.123c-0.261,-0.62 -0.415,-1.089 -0.341,-1.044c0.074,0.046 0.339,0.59 0.59,1.21c0.251,0.62 0.535,1.296 0.631,1.502c0.097,0.207 0.135,0.415 0.086,0.464c-0.048,0.049 -0.179,-0.157 -0.29,-0.458c-0.111,-0.301 -0.415,-1.054 -0.676,-1.674M336.023,164.333c0,-0.379 0.013,-0.387 0.144,-0.083c0.078,0.183 0.143,0.521 0.143,0.75c0,0.38 -0.013,0.387 -0.143,0.083c-0.079,-0.183 -0.144,-0.52 -0.144,-0.75M174.839,164.689c0.012,-0.217 0.482,0.737 0.482,0.978c0,0.137 -0.11,-0.003 -0.244,-0.311c-0.134,-0.309 -0.241,-0.609 -0.238,-0.667M263.797,174.25c-0.026,-5.133 0.002,-8.921 0.062,-8.417c0.059,0.504 0.103,4.967 0.096,9.917c-0.006,4.95 -0.034,8.737 -0.061,8.417c-0.028,-0.321 -0.072,-4.784 -0.097,-9.917M255.423,176.167l-0.034,-11.084l0.11,11.084c0.077,7.772 0.168,11.257 0.305,11.665c0.108,0.32 0.19,0.733 0.182,0.917c-0.008,0.184 -0.13,-0.078 -0.272,-0.582c-0.219,-0.779 -0.263,-2.58 -0.291,-12M287.207,175.2l0.04,-10.117l0.05,9.917c0.044,8.989 -0.135,14.187 -0.427,12.369c-0.034,-0.21 0.019,-0.758 0.118,-1.217c0.113,-0.531 0.193,-4.525 0.219,-10.952M301.833,165.183c0,-0.04 0.05,-0.022 0.112,0.039c0.061,0.062 0.03,0.28 -0.068,0.487c-0.099,0.206 -0.295,0.674 -0.436,1.041c-0.142,0.367 -0.261,0.591 -0.266,0.498c-0.004,-0.093 0.142,-0.58 0.325,-1.081c0.183,-0.502 0.333,-0.945 0.333,-0.984M203.167,169.153c0,-4.112 0.066,-4.291 0.861,-2.315c0.276,0.685 0.563,1.395 0.638,1.579c0.851,2.079 0.849,2.131 -0.161,3.25c-0.455,0.504 -0.83,0.973 -0.833,1.041c-0.003,0.069 -0.118,0.125 -0.255,0.125c-0.215,0 -0.25,-0.52 -0.25,-3.68M336.415,178.583l-0.001,-13l0.044,12.955l0.044,12.956l3.666,0.049l3.666,0.05l-3.709,-0.005l-3.708,-0.005l-0.002,-13M251.517,166.083l0.033,-0.5l0.071,0.473c0.122,0.819 -1.286,2.777 -1.997,2.777c-0.083,0 0.175,-0.247 0.571,-0.549c0.781,-0.594 1.27,-1.408 1.322,-2.201M327.913,180.667c0,-8.296 0.02,-11.69 0.045,-7.542c0.025,4.148 0.025,10.935 0,15.083c-0.025,4.148 -0.045,0.754 -0.045,-7.541M175.496,166.484c-0.078,-0.27 -0.08,-0.453 -0.005,-0.406c0.075,0.046 0.173,0.254 0.218,0.461c0.045,0.208 0.134,0.528 0.199,0.711c0.109,0.309 0.103,0.311 -0.077,0.029c-0.107,-0.167 -0.258,-0.524 -0.335,-0.795M161.696,167.154c0.108,-0.309 0.222,-0.483 0.254,-0.387c0.032,0.096 -0.053,0.432 -0.189,0.746c-0.297,0.683 -0.342,0.435 -0.065,-0.359M278.705,175.5l0.042,-8.75l0.045,9.023c0.029,5.948 -0.015,9.158 -0.128,9.417c-0.145,0.331 -0.159,0.287 -0.087,-0.273c0.047,-0.367 0.105,-4.604 0.128,-9.417M225.167,167.061c0,-0.076 0.189,0.141 0.421,0.482c0.232,0.341 0.651,0.739 0.932,0.884c0.281,0.145 0.471,0.304 0.422,0.353c-0.225,0.225 -1.775,-1.276 -1.775,-1.719M220.025,168.002c0.202,-0.274 0.399,-0.466 0.438,-0.428c0.093,0.093 -0.51,0.914 -0.676,0.921c-0.072,0.003 0.035,-0.219 0.238,-0.493M176.007,167.773c0.003,-0.105 0.116,0.063 0.25,0.371c0.133,0.309 0.24,0.646 0.236,0.75c-0.003,0.104 -0.116,-0.063 -0.25,-0.371c-0.133,-0.309 -0.24,-0.646 -0.236,-0.75M161.231,168.458c0.051,-0.16 0.137,-0.291 0.192,-0.291c0.055,0 0.047,0.168 -0.017,0.375c-0.25,0.8 -0.419,1.167 -0.5,1.086c-0.047,-0.047 -0.013,-0.263 0.074,-0.481c0.088,-0.219 0.201,-0.528 0.251,-0.689M300.498,169.041c0.122,-0.39 0.253,-0.679 0.291,-0.641c0.078,0.078 -0.392,1.523 -0.625,1.92c-0.137,0.235 -0.154,0.235 -0.159,0.005c-0.003,-0.142 0.057,-0.33 0.133,-0.417c0.075,-0.087 0.238,-0.477 0.36,-0.867M315.167,168.663c0,-0.12 0.028,-0.187 0.062,-0.149c0.142,0.159 0.795,2.184 0.727,2.252c-0.088,0.088 -0.789,-1.781 -0.789,-2.103M218.233,170.052c0.724,-0.762 1.354,-1.385 1.399,-1.385c0.107,0 -2.298,2.575 -8.299,8.882c-1.444,1.519 -1.464,1.563 -0.961,2.119c1.456,1.61 2.474,2.831 2.353,2.822c-0.078,-0.005 -0.536,-0.474 -1.018,-1.041c-0.481,-0.568 -1.1,-1.286 -1.375,-1.597c-0.274,-0.31 -0.497,-0.647 -0.495,-0.75c0.003,-0.216 0.128,-0.35 8.396,-9.05M227.333,169c-0.222,-0.144 -0.222,-0.162 0,-0.162c0.138,0 0.363,0.073 0.5,0.162c0.223,0.144 0.223,0.162 0,0.162c-0.137,0 -0.362,-0.073 -0.5,-0.162M228.249,169.304c-0.129,-0.128 5.475,0.044 5.618,0.174c0.065,0.058 -1.153,0.063 -2.705,0.011c-1.552,-0.051 -2.863,-0.135 -2.913,-0.185M245.003,169.292c1.236,-0.029 2.547,-0.06 2.914,-0.069c0.61,-0.016 0.596,-0.006 -0.167,0.117c-1.096,0.177 -5.268,0.278 -5.114,0.123c0.066,-0.066 1.132,-0.143 2.367,-0.171M160.504,170.519c0.127,-0.402 0.262,-0.638 0.3,-0.525c0.037,0.113 -0.008,0.367 -0.101,0.564c-0.093,0.197 -0.266,0.615 -0.385,0.929c-0.119,0.314 -0.246,0.48 -0.283,0.369c-0.036,-0.11 0.002,-0.292 0.086,-0.403c0.084,-0.112 0.256,-0.532 0.383,-0.934M176.833,170.111c0,-0.092 0.031,-0.135 0.069,-0.097c0.115,0.116 0.765,1.891 0.758,2.069c-0.009,0.208 -0.827,-1.744 -0.827,-1.972M168.616,170.625c0.092,-0.164 0.551,-0.162 0.551,0.002c0,0.069 -0.134,0.209 -0.297,0.311c-0.163,0.102 -0.396,0.574 -0.518,1.05c-0.121,0.476 -0.261,0.825 -0.311,0.776c-0.078,-0.078 0.385,-1.801 0.575,-2.139M307.412,171.292c0.252,-0.708 0.588,-1.065 0.588,-0.625c0,0.091 -0.062,0.166 -0.139,0.166c-0.076,0 -0.313,0.525 -0.528,1.167c-0.214,0.641 -0.424,1.131 -0.467,1.088c-0.043,-0.042 -0.001,-0.286 0.094,-0.541c0.094,-0.255 0.297,-0.82 0.452,-1.255M299.435,171.963c0.255,-0.707 0.493,-1.257 0.53,-1.22c0.078,0.077 -0.923,2.942 -1.076,3.08c-0.139,0.125 -0.011,-0.312 0.546,-1.86M169.18,171.079c0.007,-0.089 0.192,0.363 0.411,1.004c0.219,0.642 0.378,1.236 0.353,1.32c-0.051,0.17 -0.785,-2.065 -0.764,-2.324M316,171.062c0,-0.241 0.134,0.05 0.494,1.075c0.203,0.58 0.333,1.091 0.289,1.136c-0.073,0.073 -0.783,-1.93 -0.783,-2.211M308.341,172.189c0.004,-0.15 0.115,0.028 0.247,0.394c0.311,0.864 0.304,1.164 -0.011,0.44c-0.134,-0.309 -0.24,-0.684 -0.236,-0.834M159.664,172.874c0.123,-0.39 0.255,-0.677 0.295,-0.637c0.099,0.099 -0.799,2.642 -1.006,2.846c-0.114,0.112 -0.127,0.058 -0.042,-0.166c0.07,-0.184 0.167,-0.484 0.215,-0.667c0.049,-0.183 0.139,-0.408 0.201,-0.5c0.062,-0.092 0.214,-0.486 0.337,-0.876M178.007,173.273c0.003,-0.105 0.116,0.063 0.25,0.371c0.133,0.309 0.24,0.646 0.236,0.75c-0.003,0.104 -0.116,-0.063 -0.25,-0.371c-0.133,-0.309 -0.24,-0.646 -0.236,-0.75M306.511,174.041c0.115,-0.39 0.242,-0.677 0.281,-0.638c0.072,0.072 -0.147,0.829 -0.557,1.93c-0.12,0.321 -0.222,0.451 -0.226,0.29c-0.005,-0.162 0.059,-0.424 0.141,-0.584c0.083,-0.159 0.245,-0.608 0.361,-0.998M316.833,173.603c0,-0.057 0.031,-0.103 0.069,-0.103c0.098,0 0.795,2.192 0.72,2.266c-0.058,0.058 -0.789,-1.946 -0.789,-2.163M170.085,174c-0.069,-0.277 -0.016,-0.229 0.156,0.144c0.142,0.309 0.259,0.698 0.259,0.865c0,0.168 0.075,0.351 0.167,0.408c0.091,0.056 0.162,0.267 0.156,0.468c-0.016,0.562 -0.324,-0.224 -0.738,-1.885M167.201,175.035c0.21,-0.645 0.412,-1.143 0.448,-1.107c0.037,0.036 -0.102,0.597 -0.307,1.247c-0.205,0.651 -0.407,1.149 -0.448,1.107c-0.042,-0.041 0.096,-0.602 0.307,-1.247M308.833,173.919c0,-0.371 0.237,0.184 0.617,1.444c0.561,1.865 0.654,2.53 0.135,0.97c-0.698,-2.095 -0.752,-2.268 -0.752,-2.414M158.667,175.516c0,-0.039 0.05,-0.021 0.111,0.04c0.061,0.061 0.031,0.28 -0.066,0.486c-0.098,0.206 -0.271,0.621 -0.384,0.922c-0.114,0.301 -0.232,0.521 -0.264,0.489c-0.032,-0.032 0.091,-0.465 0.272,-0.961c0.182,-0.497 0.331,-0.936 0.331,-0.976M178.833,175.611c0,-0.092 0.031,-0.135 0.069,-0.097c0.115,0.116 0.765,1.891 0.758,2.069c-0.009,0.208 -0.827,-1.744 -0.827,-1.972M305.346,177.596c0.29,-0.887 0.559,-1.58 0.597,-1.541c0.039,0.038 -0.166,0.796 -0.456,1.682c-0.29,0.887 -0.558,1.581 -0.597,1.542c-0.039,-0.039 0.166,-0.796 0.456,-1.683M170.833,176.447c0,-0.371 0.189,0.037 0.506,1.095c0.199,0.664 0.44,1.417 0.534,1.672c0.095,0.255 0.136,0.499 0.093,0.542c-0.043,0.044 -0.176,-0.24 -0.295,-0.63c-0.118,-0.39 -0.356,-1.127 -0.527,-1.637c-0.171,-0.51 -0.311,-0.979 -0.311,-1.042M297.833,176.367c0,-0.049 0.048,-0.042 0.105,0.016c0.058,0.058 -0.049,0.501 -0.237,0.986c-0.189,0.485 -0.431,1.167 -0.538,1.517c-0.108,0.35 -0.233,0.599 -0.278,0.554c-0.046,-0.045 0.149,-0.735 0.433,-1.533c0.283,-0.798 0.515,-1.491 0.515,-1.54M318.007,177.115c0.005,-0.288 0.059,-0.243 0.255,0.21c0.138,0.316 0.218,0.691 0.18,0.833c-0.043,0.161 -0.077,0.12 -0.089,-0.106c-0.011,-0.201 -0.095,-0.412 -0.186,-0.469c-0.092,-0.056 -0.164,-0.267 -0.16,-0.468M166.297,177.833c0.065,-0.261 0.124,-0.32 0.159,-0.158c0.031,0.143 -0.064,0.518 -0.209,0.834c-0.165,0.357 -0.225,0.417 -0.159,0.158c0.058,-0.229 0.152,-0.604 0.209,-0.834M157.435,178.963c0.255,-0.707 0.493,-1.257 0.53,-1.22c0.078,0.077 -0.923,2.942 -1.076,3.08c-0.139,0.125 -0.011,-0.312 0.546,-1.86M180.007,178.773c0.003,-0.105 0.116,0.063 0.25,0.371c0.133,0.309 0.24,0.646 0.236,0.75c-0.003,0.104 -0.116,-0.063 -0.25,-0.371c-0.133,-0.309 -0.24,-0.646 -0.236,-0.75M310.341,178.856c0.004,-0.15 0.115,0.027 0.247,0.394c0.311,0.864 0.304,1.164 -0.011,0.439c-0.134,-0.308 -0.24,-0.683 -0.236,-0.833M318.833,179.436c0,-0.056 0.031,-0.103 0.069,-0.103c0.098,0 0.795,2.193 0.72,2.267c-0.058,0.058 -0.789,-1.946 -0.789,-2.164M296.515,180.13c0.119,-0.287 0.247,-0.426 0.286,-0.311c0.038,0.116 -0.014,0.294 -0.116,0.396c-0.102,0.102 -0.191,0.339 -0.198,0.527c-0.008,0.193 -0.051,0.247 -0.1,0.125c-0.048,-0.12 0.01,-0.451 0.128,-0.737M172.009,180.083c0.002,-0.091 0.114,0.086 0.248,0.394c0.133,0.309 0.24,0.684 0.236,0.834c-0.004,0.15 -0.116,-0.028 -0.248,-0.394c-0.132,-0.367 -0.238,-0.742 -0.236,-0.834M165.193,181.36c0.204,-0.652 0.401,-1.155 0.437,-1.118c0.037,0.037 -0.1,0.599 -0.305,1.249c-0.206,0.651 -0.403,1.154 -0.438,1.118c-0.035,-0.035 0.102,-0.597 0.306,-1.249M304.297,180.833c0.065,-0.261 0.124,-0.32 0.159,-0.158c0.031,0.143 -0.064,0.518 -0.209,0.834c-0.165,0.357 -0.225,0.417 -0.159,0.158c0.058,-0.229 0.152,-0.604 0.209,-0.834M310.838,180.667c0,-0.223 0.018,-0.223 0.162,0c0.089,0.137 0.162,0.362 0.162,0.5c0,0.222 -0.018,0.222 -0.162,0c-0.089,-0.138 -0.162,-0.363 -0.162,-0.5M156.667,181.016c0,-0.039 0.05,-0.021 0.111,0.04c0.061,0.061 0.031,0.28 -0.066,0.486c-0.098,0.206 -0.271,0.621 -0.384,0.922c-0.114,0.301 -0.232,0.521 -0.264,0.489c-0.032,-0.032 0.091,-0.465 0.272,-0.961c0.182,-0.497 0.331,-0.936 0.331,-0.976M180.838,181.175c0.005,-0.23 0.022,-0.23 0.159,0.005c0.233,0.397 0.703,1.842 0.625,1.92c-0.037,0.038 -0.168,-0.251 -0.291,-0.641c-0.122,-0.39 -0.284,-0.78 -0.36,-0.867c-0.076,-0.087 -0.135,-0.275 -0.133,-0.417M311.184,181.667c0.014,-0.375 0.805,2.024 0.811,2.458l0.005,0.375h-4.323c-2.378,0 -4.359,-0.056 -4.401,-0.125c-0.043,-0.069 1.865,-0.104 4.24,-0.078c4.872,0.053 4.515,0.178 3.988,-1.396c-0.181,-0.541 -0.325,-1.097 -0.32,-1.234M172.512,181.782c-0.007,-0.074 0.063,-0.089 0.155,-0.032c0.091,0.057 0.161,0.267 0.155,0.468c-0.012,0.363 -0.273,-0.004 -0.31,-0.436M295.833,182.016c0,-0.039 0.05,-0.021 0.112,0.04c0.061,0.061 0.03,0.28 -0.068,0.486c-0.099,0.206 -0.295,0.675 -0.436,1.041c-0.142,0.367 -0.261,0.591 -0.266,0.498c-0.004,-0.093 0.142,-0.579 0.325,-1.081c0.183,-0.502 0.333,-0.944 0.333,-0.984M303.75,182.5c0.063,-0.197 0.151,-0.321 0.197,-0.275c0.046,0.046 0.032,0.245 -0.03,0.442c-0.063,0.197 -0.152,0.321 -0.197,0.275c-0.046,-0.046 -0.033,-0.245 0.03,-0.442M172.93,183c-0.068,-0.283 -0.017,-0.237 0.16,0.146c0.602,1.298 0.707,1.265 -4.219,1.315c-4.897,0.05 -4.808,0.072 -4.299,-1.086c0.151,-0.344 0.228,-0.437 0.171,-0.208c-0.057,0.229 -0.143,0.585 -0.193,0.791l-0.089,0.375h4.372h4.371l-0.086,-0.458c-0.048,-0.252 -0.132,-0.646 -0.188,-0.875M213.35,183.271c-0.33,-0.355 -0.517,-0.618 -0.416,-0.584c0.101,0.035 0.701,0.663 1.333,1.396c0.632,0.734 1.496,1.709 1.919,2.167c1.665,1.801 3.14,3.506 3.144,3.633c0.002,0.073 -0.54,-0.486 -1.205,-1.243c-0.665,-0.758 -1.621,-1.834 -2.125,-2.392c-0.504,-0.559 -1.172,-1.312 -1.483,-1.673c-0.312,-0.362 -0.837,-0.949 -1.167,-1.304M202.112,182.944c0.061,-0.062 0.23,0.022 0.375,0.186c0.145,0.164 0.75,0.858 1.346,1.542c0.596,0.685 1.281,1.47 1.521,1.745c0.436,0.497 2.962,3.381 3.797,4.333c1.766,2.015 3.594,4.198 2.995,3.577c-0.401,-0.416 -0.954,-1.016 -1.229,-1.333c-0.275,-0.318 -1.092,-1.252 -1.815,-2.077c-0.723,-0.825 -1.543,-1.763 -1.821,-2.084c-0.278,-0.321 -0.812,-0.924 -1.185,-1.34c-0.374,-0.417 -0.904,-1.017 -1.179,-1.334c-0.275,-0.317 -0.988,-1.128 -1.584,-1.804l-1.083,-1.228l-0.087,5.562l-0.086,5.561l-0.039,-5.597c-0.021,-3.079 0.012,-5.648 0.074,-5.709M155.435,184.463c0.255,-0.707 0.493,-1.257 0.53,-1.22c0.078,0.077 -0.923,2.942 -1.076,3.08c-0.139,0.125 -0.011,-0.312 0.546,-1.86M182.007,184.273c0.003,-0.105 0.116,0.063 0.25,0.371c0.133,0.309 0.24,0.646 0.236,0.75c-0.003,0.104 -0.116,-0.063 -0.25,-0.371c-0.133,-0.309 -0.24,-0.646 -0.236,-0.75M294.458,185.956c0.143,-0.436 0.292,-0.762 0.33,-0.724c0.086,0.086 -0.407,1.562 -0.642,1.922c-0.139,0.214 -0.15,0.201 -0.06,-0.071c0.061,-0.183 0.229,-0.69 0.372,-1.127M320.833,185.223c0,-0.265 0.161,0.121 0.661,1.584c0.292,0.856 0.497,1.591 0.455,1.633c-0.069,0.069 -1.116,-2.95 -1.116,-3.217M264.07,185.833c-0.055,-0.448 -0.015,-0.389 0.172,0.25c0.134,0.459 0.239,0.984 0.234,1.167c-0.012,0.415 -0.311,-0.626 -0.406,-1.417M203.289,185.766c0.068,-0.067 0.262,0.052 0.431,0.264c0.427,0.535 1.052,1.257 1.825,2.109c0.854,0.943 0.85,0.994 -0.459,5.194c-0.866,2.778 -1.755,4.799 -3.412,7.75c-0.497,0.887 -2.407,3.72 -2.881,4.275c-0.207,0.242 -0.686,0.805 -1.066,1.25c-1.577,1.852 -3.138,3.341 -5.738,5.475c-0.63,0.518 -2.146,1.584 -2.251,1.584c-0.167,0 0.332,-0.434 1.016,-0.885c1.258,-0.828 1.532,-1.206 1.268,-1.747c-0.392,-0.801 -0.681,-1.544 -0.936,-2.41c-0.156,-0.527 -0.352,-1 -0.435,-1.051c-0.083,-0.052 -0.151,-0.262 -0.151,-0.467c0,-0.206 -0.062,-0.445 -0.138,-0.532c-0.075,-0.087 -0.238,-0.496 -0.362,-0.908c-0.124,-0.413 -0.315,-0.938 -0.424,-1.167c-0.11,-0.229 -0.294,-0.717 -0.409,-1.083c-0.114,-0.367 -0.323,-0.798 -0.463,-0.959c-0.233,-0.266 -0.225,-0.291 0.087,-0.291c0.384,0 1.992,-1.67 3.09,-3.209c0.801,-1.121 1.118,-1.192 1.497,-0.333c1.326,3.004 5.955,3.535 8.103,0.929c1.394,-1.692 1.685,-3.285 1.685,-9.235c0.001,-2.436 0.056,-4.485 0.123,-4.553M278.372,186.167c0,-0.321 0.034,-0.452 0.076,-0.292c0.042,0.16 0.042,0.423 0,0.583c-0.042,0.161 -0.076,0.029 -0.076,-0.291M154.667,186.516c0,-0.039 0.05,-0.021 0.111,0.04c0.061,0.061 0.031,0.28 -0.066,0.486c-0.098,0.206 -0.271,0.621 -0.384,0.922c-0.114,0.301 -0.232,0.521 -0.264,0.489c-0.032,-0.032 0.091,-0.465 0.272,-0.961c0.182,-0.497 0.331,-0.936 0.331,-0.976M182.838,186.675c0.005,-0.23 0.022,-0.23 0.159,0.005c0.233,0.397 0.703,1.842 0.625,1.92c-0.037,0.038 -0.168,-0.251 -0.291,-0.641c-0.122,-0.39 -0.284,-0.78 -0.36,-0.867c-0.076,-0.087 -0.135,-0.275 -0.133,-0.417M278.083,187.167c0.063,-0.197 0.152,-0.321 0.197,-0.275c0.046,0.045 0.033,0.244 -0.03,0.441c-0.063,0.197 -0.151,0.321 -0.197,0.275c-0.046,-0.045 -0.032,-0.244 0.03,-0.441M293.689,188.161c0.35,-0.935 0.299,-0.409 -0.062,0.633c-0.196,0.568 -0.39,0.999 -0.431,0.958c-0.041,-0.041 0.011,-0.302 0.115,-0.58c0.104,-0.278 0.274,-0.733 0.378,-1.011M277.44,188.813c0.253,-0.533 0.495,-0.934 0.537,-0.892c0.49,0.49 -2.601,4.084 -3.507,4.077c-0.121,0 0.166,-0.222 0.637,-0.493c1.023,-0.586 1.709,-1.379 2.333,-2.692M286.443,189.333c0.164,-0.687 0.322,-1.13 0.352,-0.983c0.056,0.281 -0.582,2.833 -0.746,2.981c-0.099,0.09 -0.083,0.009 0.394,-1.998M264.833,188.578c0,-0.248 0.215,-0.004 0.412,0.469c0.327,0.78 1.358,1.901 2.208,2.4c0.401,0.235 0.693,0.462 0.65,0.506c-0.365,0.364 -3.27,-2.635 -3.27,-3.375M153.435,189.963c0.255,-0.707 0.493,-1.257 0.53,-1.22c0.078,0.077 -0.923,2.942 -1.076,3.08c-0.139,0.125 -0.011,-0.312 0.546,-1.86M322,188.742c0,-0.255 0.128,0.021 0.494,1.062c0.203,0.58 0.339,1.085 0.302,1.122c-0.067,0.068 -0.796,-1.932 -0.796,-2.184M256.014,189.583l0.009,-0.333l0.144,0.333c0.214,0.499 0.214,0.915 0,0.584c-0.089,-0.138 -0.158,-0.4 -0.153,-0.584M184.007,189.773c0.003,-0.105 0.116,0.063 0.25,0.371c0.133,0.309 0.24,0.646 0.236,0.75c-0.003,0.104 -0.116,-0.063 -0.25,-0.371c-0.133,-0.309 -0.24,-0.646 -0.236,-0.75M219.5,190.099c0,-0.053 0.394,0.334 0.875,0.861c0.939,1.026 2.125,2.586 2.125,2.796c0,0.07 -0.235,-0.203 -0.523,-0.606c-0.287,-0.403 -0.962,-1.233 -1.5,-1.844c-0.537,-0.611 -0.977,-1.154 -0.977,-1.207M256.339,190.667c0.004,-0.138 0.145,0.125 0.315,0.583c0.169,0.458 0.366,0.983 0.437,1.167c0.073,0.188 0.065,0.275 -0.017,0.2c-0.193,-0.176 -0.742,-1.634 -0.735,-1.95M292.538,191.375c0.112,-0.311 0.227,-0.498 0.254,-0.416c0.027,0.082 -0.062,0.406 -0.198,0.72c-0.301,0.693 -0.34,0.481 -0.056,-0.304M322.833,191.27c0,-0.057 0.031,-0.103 0.069,-0.103c0.098,0 0.795,2.192 0.72,2.266c-0.058,0.058 -0.789,-1.946 -0.789,-2.163M285.493,192.452c0.211,-0.53 0.412,-0.936 0.447,-0.901c0.323,0.323 -1.841,3.992 -3.108,5.271c-0.967,0.975 -2.953,2.446 -3.102,2.297c-0.043,-0.043 0.281,-0.288 0.721,-0.544c1.873,-1.091 4.127,-3.829 5.042,-6.123M344.917,191.843l-0.667,-0.138l0.667,-0.003c0.366,-0.001 0.854,0.058 1.083,0.131l0.417,0.134l-0.417,0.007c-0.229,0.004 -0.717,-0.055 -1.083,-0.131M152.515,192.463c0.119,-0.286 0.247,-0.426 0.286,-0.31c0.038,0.115 -0.014,0.293 -0.116,0.395c-0.102,0.102 -0.191,0.339 -0.198,0.527c-0.008,0.193 -0.051,0.247 -0.1,0.125c-0.048,-0.119 0.01,-0.451 0.128,-0.737M184.838,192.175c0.005,-0.23 0.022,-0.23 0.159,0.005c0.233,0.397 0.703,1.842 0.625,1.92c-0.037,0.038 -0.168,-0.251 -0.291,-0.641c-0.122,-0.39 -0.284,-0.78 -0.36,-0.867c-0.076,-0.087 -0.135,-0.275 -0.133,-0.417M268.811,192.241c-0.349,-0.161 -0.403,-0.217 -0.144,-0.148c0.229,0.061 0.791,0.167 1.25,0.236l0.833,0.124l-0.689,0.024c-0.379,0.012 -0.942,-0.094 -1.25,-0.236M273.417,192.175c0.742,-0.209 0.901,-0.177 0.333,0.067c-0.275,0.118 -1.062,0.255 -1.75,0.304l-1.25,0.088l1.083,-0.159c0.596,-0.088 1.309,-0.223 1.584,-0.3M347.401,192.423c-0.996,-0.494 -0.855,-0.56 0.168,-0.079c0.403,0.189 0.871,0.508 1.04,0.708c0.306,0.363 0.306,0.363 -0.042,0.07c-0.192,-0.161 -0.717,-0.476 -1.166,-0.699M161.533,192.367c0.288,-0.288 14.313,-0.288 14.6,0c0.324,0.323 0.229,0.544 -0.104,0.242c-0.452,-0.409 -14.026,-0.422 -14.434,-0.014c-0.144,0.144 -0.262,0.197 -0.262,0.117c0,-0.08 0.09,-0.235 0.2,-0.345M300.673,192.822c0.094,-0.177 0.2,-0.322 0.234,-0.322c0.116,0 -0.113,0.672 -0.26,0.762c-0.195,0.121 -0.186,-0.045 0.026,-0.44M314.369,192.792c-0.14,-0.161 -0.182,-0.292 -0.095,-0.292c0.276,0 0.56,0.386 0.546,0.742c-0.009,0.24 -0.04,0.267 -0.105,0.091c-0.05,-0.137 -0.206,-0.381 -0.346,-0.541M257.169,192.882c0.001,-0.073 0.19,0.197 0.42,0.6c0.23,0.403 0.385,0.766 0.343,0.808c-0.08,0.08 -0.767,-1.186 -0.763,-1.408M161.028,193.778c0.113,-0.422 0.238,-0.734 0.278,-0.694c0.04,0.04 -0.022,0.415 -0.139,0.833c-0.117,0.417 -0.243,0.73 -0.279,0.694c-0.036,-0.037 0.027,-0.411 0.14,-0.833M176.34,193.106c0.003,-0.104 0.116,0.063 0.25,0.371c0.134,0.309 0.24,0.646 0.237,0.75c-0.004,0.105 -0.116,-0.063 -0.25,-0.371c-0.134,-0.309 -0.241,-0.646 -0.237,-0.75M291.685,193.778c0.119,-0.361 0.244,-0.576 0.277,-0.477c0.033,0.1 -0.02,0.33 -0.118,0.512c-0.097,0.183 -0.188,0.58 -0.2,0.884c-0.018,0.446 -0.037,0.474 -0.099,0.145c-0.042,-0.224 0.021,-0.703 0.14,-1.064M300.297,193.833c0.065,-0.261 0.124,-0.32 0.159,-0.158c0.031,0.143 -0.064,0.518 -0.209,0.834c-0.165,0.357 -0.225,0.417 -0.159,0.158c0.058,-0.229 0.152,-0.604 0.209,-0.834M348.939,193.667c-0.161,-0.213 -0.149,-0.219 0.08,-0.04c1.219,0.951 0.478,4.564 -1.088,5.302c-0.283,0.133 -0.371,0.148 -0.196,0.032c1.623,-1.076 2.263,-3.892 1.204,-5.294M314.857,193.833c0,-0.157 0.053,-0.126 0.143,0.084c0.079,0.183 0.143,0.445 0.143,0.583c0,0.158 -0.053,0.127 -0.143,-0.083c-0.079,-0.184 -0.143,-0.446 -0.143,-0.584M242.365,195l0.035,-1.25l0.057,1.223c0.069,1.452 -0.267,2.774 -0.961,3.784c-0.47,0.682 -1.279,1.349 -1.441,1.186c-0.046,-0.045 0.092,-0.176 0.306,-0.289c1.16,-0.615 1.942,-2.43 2.004,-4.654M234.003,195.181c-0.004,-1.392 0.092,-1.253 0.218,0.319c0.065,0.814 0.045,1.162 -0.058,1c-0.087,-0.138 -0.159,-0.731 -0.16,-1.319M151.771,195.021c0.151,-0.757 0.166,-0.672 0.155,0.889c-0.005,0.776 -0.06,1.282 -0.123,1.125c-0.148,-0.372 -0.163,-1.358 -0.032,-2.014M176.881,194.75c-0.053,-0.183 -0.05,-0.291 0.008,-0.239c0.167,0.15 1.15,3.006 1.064,3.092c-0.066,0.066 -0.765,-1.792 -1.072,-2.853M222.96,195c-0.093,-0.315 -0.065,-0.295 0.117,0.083c0.133,0.275 0.241,0.8 0.241,1.167c0,0.367 -0.108,0.892 -0.241,1.167c-0.182,0.378 -0.21,0.398 -0.117,0.083c0.068,-0.229 0.123,-0.792 0.123,-1.25c0,-0.458 -0.055,-1.021 -0.123,-1.25M324.07,196.134c-0.002,-0.922 0.043,-1.348 0.11,-1.051c0.152,0.669 0.158,1.928 0.011,2.301c-0.065,0.165 -0.12,-0.397 -0.121,-1.25M315.18,194.965c0.007,-0.118 0.192,0.31 0.411,0.952c0.219,0.641 0.376,1.241 0.348,1.333c-0.059,0.196 -0.779,-1.969 -0.759,-2.285M160.508,195.708c0.117,-0.391 0.245,-0.677 0.284,-0.638c0.067,0.067 -0.116,0.725 -0.504,1.81c-0.092,0.255 -0.206,0.424 -0.255,0.375c-0.049,-0.049 -0.01,-0.257 0.087,-0.464c0.096,-0.206 0.271,-0.693 0.388,-1.083M258.616,195.477l-0.301,-0.56l0.464,0.583c0.618,0.778 1.835,1.987 2.554,2.538c0.321,0.245 0.501,0.45 0.401,0.454c-0.292,0.013 -2.788,-2.401 -3.118,-3.015M186.014,195.273c0.018,-0.263 0.471,0.752 0.472,1.06c0.001,0.138 -0.109,-0.002 -0.243,-0.31c-0.133,-0.309 -0.237,-0.646 -0.229,-0.75M213.858,196.375c-0.583,-0.665 -0.995,-1.203 -0.917,-1.198c0.163,0.013 2.274,2.416 2.377,2.707c0.083,0.233 -0.089,0.055 -1.46,-1.509M299.503,196.282c0.201,-0.625 0.402,-1.099 0.447,-1.055c0.081,0.082 -0.524,1.929 -0.818,2.496c-0.088,0.168 -0.201,0.263 -0.253,0.212c-0.051,-0.052 -0.014,-0.189 0.082,-0.306c0.097,-0.117 0.34,-0.723 0.542,-1.347M291.381,196.083c-0.001,-0.458 0.03,-0.665 0.07,-0.46c0.039,0.205 0.04,0.58 0.002,0.833c-0.038,0.253 -0.071,0.086 -0.072,-0.373M201.7,196.635c0.124,-0.605 0.239,-0.891 0.27,-0.674c0.172,1.207 -1.527,4.078 -2.383,4.029c-0.094,-0.005 -0.033,-0.099 0.135,-0.208c1.106,-0.718 1.658,-1.596 1.978,-3.147M328.013,196.427c0.009,-0.241 0.041,-0.269 0.106,-0.094c0.051,0.138 0.225,0.607 0.387,1.042c0.163,0.435 0.267,0.792 0.232,0.792c-0.144,0 -0.737,-1.423 -0.725,-1.74M234.356,197.144l0.023,-0.394l0.074,0.394c0.042,0.217 0.262,0.73 0.491,1.14c0.229,0.41 0.385,0.776 0.346,0.815c-0.139,0.139 -0.956,-1.571 -0.934,-1.955M291.523,197.343l0.022,-0.426l0.075,0.416c0.041,0.23 0.144,0.488 0.227,0.575c0.084,0.087 0.151,0.237 0.148,0.334c-0.003,0.096 -0.116,0.029 -0.25,-0.149c-0.135,-0.178 -0.235,-0.515 -0.222,-0.75M152,197.624c0,-0.083 0.247,0.175 0.548,0.571c0.302,0.397 0.955,0.965 1.451,1.263c0.497,0.298 0.811,0.542 0.699,0.542c-0.566,0 -2.698,-1.878 -2.698,-2.376M159.365,198.334c0.286,-0.461 0.553,-0.805 0.594,-0.764c0.04,0.04 -0.161,0.414 -0.448,0.83c-0.523,0.761 -1.613,1.72 -1.773,1.561c-0.047,-0.048 0.183,-0.245 0.51,-0.438c0.328,-0.193 0.83,-0.728 1.117,-1.189M186.838,197.675c0.005,-0.23 0.022,-0.23 0.159,0.005c0.233,0.397 0.703,1.842 0.625,1.92c-0.037,0.038 -0.168,-0.251 -0.291,-0.641c-0.122,-0.39 -0.284,-0.78 -0.36,-0.867c-0.076,-0.087 -0.135,-0.275 -0.133,-0.417M194.014,197.627c0.008,-0.116 0.158,0.103 0.334,0.486c0.177,0.383 0.639,0.973 1.028,1.312c0.389,0.339 0.557,0.538 0.374,0.442c-0.657,-0.341 -1.767,-1.774 -1.736,-2.24M316,197.599c0,-0.235 0.162,-0.052 0.567,0.639c0.238,0.405 0.712,0.968 1.054,1.25c0.342,0.281 0.545,0.512 0.451,0.512c-0.305,0 -2.072,-2.048 -2.072,-2.401M215.5,198.09c0,-0.089 0.356,0.184 0.792,0.605c0.435,0.422 0.967,0.856 1.181,0.966c0.214,0.11 0.35,0.238 0.302,0.286c-0.157,0.157 -2.275,-1.573 -2.275,-1.857M221.897,198.938c0.946,-0.965 1.246,-1.096 0.5,-0.219c-1.064,1.25 -2.94,1.931 -4.064,1.475c-0.334,-0.136 -0.251,-0.152 0.417,-0.081c1.317,0.141 2.169,-0.177 3.147,-1.175M323.59,198.488c0.147,-0.286 0.31,-0.477 0.362,-0.425c0.222,0.222 -1.442,1.937 -1.878,1.937c-0.068,0 0.185,-0.224 0.562,-0.497c0.377,-0.273 0.806,-0.73 0.954,-1.015M297.89,199.107c0.9,-0.934 1.246,-1.137 0.581,-0.341c-0.546,0.654 -1.164,1.234 -1.314,1.234c-0.07,0 0.26,-0.402 0.733,-0.893M328.997,198.579c-0.116,-0.139 -0.132,-0.246 -0.038,-0.246c0.092,0 0.27,0.124 0.396,0.276c0.246,0.298 1.092,0.699 1.895,0.899c0.415,0.103 0.434,0.127 0.115,0.142c-0.451,0.02 -2.072,-0.713 -2.368,-1.071M262.25,198.759c-0.183,-0.148 0.163,-0.022 0.771,0.278c0.607,0.301 1.079,0.575 1.048,0.609c-0.079,0.089 -1.418,-0.564 -1.819,-0.887M235.5,199.309c0,-0.084 0.224,0.013 0.498,0.216c0.274,0.202 0.468,0.398 0.431,0.435c-0.102,0.102 -0.929,-0.477 -0.929,-0.651M278.833,199.431c0.561,-0.311 0.808,-0.323 0.407,-0.02c-0.178,0.135 -0.436,0.246 -0.573,0.248c-0.14,0.001 -0.066,-0.099 0.166,-0.228M292.667,199.236c0,-0.05 0.235,0.075 0.522,0.28c0.739,0.526 2.163,0.831 2.913,0.624c0.328,-0.09 0.634,-0.126 0.68,-0.08c0.236,0.236 -1.305,0.436 -2.062,0.269c-0.729,-0.162 -2.053,-0.866 -2.053,-1.093M346.667,199.333c0.137,-0.089 0.362,-0.159 0.5,-0.157c0.137,0.002 -0.011,0.117 -0.329,0.255c-0.318,0.138 -0.768,0.221 -1,0.185c-0.381,-0.06 -0.373,-0.069 0.079,-0.094c0.275,-0.015 0.612,-0.1 0.75,-0.189M332.75,199.841c-0.472,-0.074 2.054,-0.129 5.833,-0.129c3.742,0.001 6.265,0.057 5.75,0.128c-1.206,0.167 -10.513,0.168 -11.583,0.001M155.038,200.094c-0.051,-0.052 0.494,-0.094 1.212,-0.094c0.718,0 1.263,0.042 1.212,0.094c-0.052,0.051 -0.597,0.094 -1.212,0.094c-0.615,0 -1.16,-0.043 -1.212,-0.094M196.532,200.192c-0.212,-0.06 0.329,-0.109 1.202,-0.109c0.873,0 1.458,0.051 1.301,0.114c-0.358,0.142 -1.991,0.139 -2.503,-0.005M237.032,200.192c-0.212,-0.06 0.329,-0.109 1.202,-0.109c0.873,0 1.458,0.051 1.301,0.114c-0.358,0.142 -1.991,0.139 -2.503,-0.005M265.311,200.165c-0.361,-0.158 -0.352,-0.164 0.106,-0.077c2.124,0.405 3.433,0.714 3.083,0.728c-0.512,0.021 -2.65,-0.416 -3.189,-0.651M276.333,200.258c1.029,-0.294 1.366,-0.295 0.69,-0.001c-0.309,0.133 -0.759,0.237 -1,0.23c-0.334,-0.011 -0.259,-0.065 0.31,-0.229M318.667,200.237l-0.417,-0.251l0.417,0.132c0.528,0.167 2.096,0.165 2.75,-0.005c0.48,-0.124 0.477,-0.119 -0.061,0.129c-0.709,0.326 -2.144,0.324 -2.689,-0.005M178.834,200.264c-0.002,-0.317 0.167,0.04 0.589,1.244c0.545,1.555 0.654,1.933 0.523,1.816c-0.12,-0.107 -1.111,-2.834 -1.112,-3.06M274.333,200.667c0.321,-0.068 0.734,-0.128 0.917,-0.133l0.333,-0.011l-0.333,0.144c-0.183,0.078 -0.596,0.138 -0.917,0.133l-0.583,-0.011l0.583,-0.122M188.007,200.773c0.003,-0.105 0.116,0.063 0.25,0.371c0.133,0.309 0.24,0.646 0.236,0.75c-0.003,0.104 -0.116,-0.063 -0.25,-0.371c-0.133,-0.309 -0.24,-0.646 -0.236,-0.75M270.375,200.956c-0.527,-0.033 -0.096,-0.06 0.958,-0.06c1.054,0 1.486,0.027 0.959,0.06c-0.527,0.034 -1.39,0.034 -1.917,0M180.009,203.561c0.004,-0.079 0.124,0.156 0.265,0.522c0.141,0.367 0.333,0.828 0.427,1.026c0.094,0.197 0.141,0.447 0.105,0.556c-0.062,0.188 -0.816,-1.798 -0.797,-2.104M180.92,206.25c-0.099,-0.294 -0.09,-0.3 0.073,-0.047c0.101,0.157 0.325,0.72 0.497,1.25c0.171,0.53 0.362,1.114 0.424,1.297c0.098,0.294 0.089,0.3 -0.073,0.047c-0.102,-0.157 -0.325,-0.72 -0.497,-1.25c-0.172,-0.53 -0.363,-1.114 -0.424,-1.297M182.011,209.336c0.006,-0.047 0.127,0.177 0.27,0.497c0.142,0.321 0.325,0.714 0.406,0.873c0.16,0.317 0.2,0.737 0.056,0.593c-0.103,-0.103 -0.748,-1.834 -0.732,-1.963M182.835,211.592c0.001,-0.096 0.23,0.224 0.51,0.711c0.293,0.512 0.754,1.032 1.089,1.229c0.319,0.189 0.544,0.379 0.499,0.424c-0.277,0.277 -2.103,-1.78 -2.098,-2.364M185.667,214.236c-0.53,-0.217 -0.538,-0.229 -0.084,-0.13c0.717,0.157 2.414,0.161 3,0.008c0.48,-0.125 0.477,-0.12 -0.06,0.128c-0.689,0.317 -2.073,0.314 -2.856,-0.006" fill="#68b845" fill-rule="evenodd" stroke-width="1"/></g></g></svg>