<svg version="1.1" xmlns="http://www.w3.org/2000/svg" xmlns:xlink="http://www.w3.org/1999/xlink" width="315.23395" height="326.67298" viewBox="0,0,315.23395,326.67298"><g transform="translate(-84.05783,-11.66547)"><g data-paper-data="{&quot;isPaintingLayer&quot;:true}" fill="#0c5ba3" fill-rule="evenodd" stroke="none" stroke-width="1" stroke-linecap="butt" stroke-linejoin="miter" stroke-miterlimit="10" stroke-dasharray="" stroke-dashoffset="0" style="mix-blend-mode: normal"><path d="M254.81,12.03258c17.44,-2.451 34.142,7.694 34.25,20.803c0.156,18.935 -31.82,27.133 -49.315,12.644c-1.597,-1.323 -2.601,-1.991 -2.674,-1.778c-0.063,0.188 -0.484,7.366 -0.935,15.952c-0.451,8.585 -1.236,23.295 -1.745,32.688c-0.509,9.393 -0.926,17.318 -0.927,17.612c-0.002,0.521 0.176,0.533 7.537,0.533c11.549,0 18.982,1.477 28.937,5.748c1.696,0.728 3.121,1.324 3.166,1.324c0.135,0 2.689,-4.324 10.794,-18.279c7.408,-12.755 8.731,-14.917 9.649,-15.769c8.18,-7.59 25.733,1.085 25.697,12.7c-0.035,11.601 -17.513,12.693 -25.754,1.609c-0.768,-1.032 -1.471,-1.876 -1.563,-1.876c-0.125,0 -7.113,11.805 -9.489,16.029c-0.152,0.271 -1.207,2.105 -2.345,4.078c-1.954,3.388 -2.387,4.443 -1.824,4.443c0.432,0 6.218,3.993 8.829,6.093c4.758,3.827 10.808,10.289 13.846,14.788c1.044,1.546 1.356,1.564 3.467,0.2c0.908,-0.587 1.703,-1.068 1.766,-1.068c0.11,0 3.164,-1.898 3.748,-2.329c0.153,-0.113 0.588,-0.386 0.968,-0.606c0.608,-0.353 11.003,-6.776 13.819,-8.539c2.934,-1.836 5.44,-3.377 6.091,-3.744c0.399,-0.225 1.205,-0.722 1.792,-1.103c8.196,-5.325 10.428,-6.282 14.009,-6.006c17.058,1.314 26.705,28.762 12.409,35.308c-10.303,4.718 -24.913,-7.993 -24.946,-21.704c-0.006,-2.506 0.15,-2.508 -4.007,0.059c-4.395,2.715 -7.958,4.899 -12.008,7.361c-1.688,1.027 -3.669,2.264 -4.403,2.75c-0.734,0.486 -2.955,1.877 -4.937,3.091c-1.981,1.214 -3.654,2.252 -3.717,2.308c-0.063,0.055 0.501,1.329 1.254,2.831c4.345,8.669 7.8,21.002 7.8,27.844v0.852l3.002,0.163c1.651,0.089 10.988,0.405 20.748,0.703c48.067,1.465 49.093,1.507 50.967,2.101c7.747,2.454 12.151,13.075 9.967,24.037c-2.589,12.997 -14.619,18.493 -22.619,10.334c-6.705,-6.837 -7.427,-20.134 -1.552,-28.571c0.495,-0.711 0.828,-1.365 0.739,-1.454c-0.255,-0.254 -60.534,-1.947 -60.775,-1.706c-0.118,0.118 -0.337,1.829 -0.486,3.801c-0.305,4.035 -0.86,7.861 -1.615,11.136c-0.281,1.216 -0.51,2.42 -0.51,2.674c0,0.532 0.035,0.546 11.741,4.62c1.247,0.434 3.229,1.137 4.403,1.563c1.174,0.425 7.118,2.524 13.209,4.664c10.771,3.784 12.907,4.602 13.806,5.285c12.466,9.477 3.629,35.923 -12.014,35.95c-14.134,0.025 -16.496,-23.518 -3.417,-34.074c0.871,-0.704 1.56,-1.38 1.53,-1.503c-0.03,-0.124 -4.794,-1.898 -10.587,-3.943c-5.793,-2.046 -11.914,-4.211 -13.601,-4.811c-7.224,-2.569 -6.678,-2.558 -7.594,-0.162c-4.173,10.908 -12.148,22.026 -21.358,29.774c-1.321,1.112 -2.394,2.207 -2.384,2.435c0.016,0.337 8.29,11.852 18.637,25.935c1.04,1.416 2.62,3.578 3.51,4.804c1.616,2.225 2.482,3.412 14.752,20.241c8.273,11.346 8.834,12.542 8.498,18.122c-1.189,19.725 -29.672,35.062 -43.021,23.164c-14.077,-12.547 3.922,-39.685 26.321,-39.685c1.451,0 2.639,-0.065 2.639,-0.143c0,-0.29 -9.029,-12.854 -16.676,-23.206c-0.759,-1.028 -3.112,-4.252 -5.228,-7.165c-12.065,-16.611 -13.914,-19.119 -14.092,-19.119c-0.097,0 -0.435,0.181 -0.751,0.402c-7.681,5.38 -21.875,10.155 -32.591,10.964c-3.131,0.236 -2.878,-0.506 -3.077,9.047c-0.095,4.55 -0.293,13.316 -0.44,19.48c-0.725,30.421 -0.752,31.178 -1.181,32.589c-5.209,17.147 -38.172,13.891 -38.172,-3.77c0,-12.907 19.164,-19.507 31.848,-10.968c0.785,0.529 1.523,0.961 1.639,0.961c0.255,0 0.442,-4.816 0.796,-20.547c0.147,-6.531 0.346,-15.132 0.443,-19.114l0.176,-7.24l-2.775,-0.184c-4.484,-0.297 -9.892,-1.161 -14.216,-2.272c-3.735,-0.96 -4.062,-1.004 -4.387,-0.59c-0.193,0.246 -1.513,2.489 -2.933,4.984c-1.42,2.495 -2.703,4.745 -2.851,4.999c-1.007,1.731 -4.954,8.6 -5.635,9.807c-7.774,13.777 -9.085,15.822 -11.005,17.154c-11.485,7.973 -31.852,-2.891 -31.905,-17.017c-0.058,-15.749 24.833,-15.803 34,-0.074c1.515,2.599 1.424,2.62 3.367,-0.793c0.898,-1.578 3.934,-6.864 6.748,-11.747c6.126,-10.631 5.665,-9.569 4.39,-10.095c-6.756,-2.788 -15.279,-8.307 -20.827,-13.489c-1.716,-1.603 -1.138,-1.678 -6.277,0.811c-6.127,2.967 -10.486,5.051 -12.351,5.905c-0.881,0.403 -3.222,1.513 -5.203,2.466c-3.224,1.551 -10.468,5.023 -19.213,9.207c-1.688,0.807 -4.15,1.977 -5.471,2.598c-1.32,0.622 -4.142,1.976 -6.27,3.009c-9.086,4.412 -15.393,3.158 -22.478,-4.469c-15.467,-16.648 -5.327,-43.139 12.911,-33.731c0.536,0.276 1.401,0.723 1.921,0.993c7.71,3.998 14.03,17.747 12.382,26.941c-0.481,2.687 -0.786,2.694 5.038,-0.114c2.77,-1.335 6.236,-2.998 7.704,-3.694c1.468,-0.697 3.869,-1.842 5.337,-2.544c1.467,-0.703 4.602,-2.203 6.965,-3.335c5.201,-2.489 4.921,-2.036 3.134,-5.085c-1.95,-3.328 -5.036,-9.145 -4.967,-9.365c0.03,-0.096 -0.122,-0.321 -0.338,-0.5c-0.215,-0.179 -0.391,-0.436 -0.391,-0.573c0,-0.136 -0.471,-1.192 -1.047,-2.345c-2.719,-5.45 -6.019,-14.352 -8.462,-22.825c-0.804,-2.789 -1.605,-5.204 -1.78,-5.368c-0.208,-0.194 -8.662,-0.736 -24.202,-1.551c-35.06,-1.841 -32.239,-1.482 -36.461,-4.643c-8.501,-6.364 -10.834,-24.94 -4.363,-34.736c1.55,-2.346 1.988,-2.915 3.256,-4.223c3.207,-3.31 6.143,-4.799 9.95,-5.044c15.655,-1.011 23.643,24.809 12.318,39.815c-0.758,1.003 -1.493,1.98 -1.635,2.17c-0.437,0.586 -0.457,0.584 17.611,1.56c9.682,0.522 21.892,1.189 27.134,1.481c5.241,0.293 10.024,0.532 10.627,0.532h1.098l-0.185,-4.203c-0.478,-10.883 1.856,-23.174 6.169,-32.488c0.408,-0.881 0.751,-1.661 0.763,-1.734c0.105,-0.68 3.469,-6.542 5.423,-9.451c0.781,-1.162 1.384,-2.26 1.342,-2.44c-0.061,-0.256 -25.166,-27.237 -36.852,-39.606c-1.237,-1.309 -2.402,-2.839 -2.764,-3.63c-6.659,-14.546 17.586,-32.774 27.547,-20.71c6.538,7.92 -1.204,22.809 -13.559,26.074c-0.991,0.261 -1.802,0.561 -1.802,0.666c0,0.218 29.973,32.292 30.524,32.663c0.266,0.179 1.37,-0.77 4.199,-3.61c2.11,-2.12 5.064,-4.811 6.565,-5.981c3.205,-2.499 3.163,-2.337 1.508,-5.733c-1.463,-3.002 -3.772,-7.828 -5.17,-10.804c-0.973,-2.07 -1.98,-4.18 -5.733,-12.008c-6.787,-14.157 -6.679,-13.869 -6.481,-17.284c0.943,-16.26 29.172,-25.115 35.923,-11.268c5.157,10.576 -6.916,23.743 -21.775,23.747c-4.219,0.002 -4.413,0.06 -3.678,1.108c0.215,0.307 0.315,0.634 0.222,0.727c-0.093,0.092 -0.028,0.168 0.143,0.168c0.171,0 0.311,0.156 0.311,0.346c0,0.19 0.522,1.421 1.159,2.735c0.637,1.314 1.798,3.74 2.58,5.391c1.611,3.403 1.56,3.373 3.282,1.95c0.7,-0.579 1.718,-1.323 2.263,-1.654c0.544,-0.33 1.05,-0.674 1.123,-0.764c2.16,-2.632 16.595,-6.135 25.284,-6.136h2.735v-1.806c0,-1.545 0.668,-14.575 1.597,-31.149c0.14,-2.495 0.558,-10.361 0.929,-17.479c0.821,-15.749 1.002,-17.841 1.713,-19.862c2.619,-7.435 10.758,-12.924 21.378,-14.416M228.658,102.94858l0.001,-1.134l-2.068,0.047c-9.866,0.222 -16.013,1.788 -23.732,6.044c-1.008,0.556 -4.086,3.535 -4.086,3.955c0,0.523 4.061,8.9 4.315,8.9c0.112,0 1.499,-0.71 3.081,-1.577c1.583,-0.868 4.078,-2.079 5.545,-2.691c1.468,-0.613 3.029,-1.273 3.469,-1.466c1.819,-0.8 6.079,-2.085 9.313,-2.809c1.897,-0.425 3.532,-0.906 3.633,-1.069c0.173,-0.28 0.527,-5.76 0.529,-8.2M168.133,195.98458c-0.475,-0.097 -2.848,-0.264 -5.272,-0.371l-4.407,-0.194l0.181,0.762c0.294,1.242 2.668,9.048 3.802,12.504c2.553,7.779 12.554,27.885 13.87,27.885c0.209,0 1.777,-0.667 3.485,-1.483c1.707,-0.815 3.791,-1.806 4.631,-2.201c1.861,-0.875 1.877,-1.054 0.257,-2.95c-6.977,-8.171 -12.463,-19.355 -14.943,-30.465l-0.738,-3.31l-0.866,-0.177"/></g></g></svg>