<svg id="svg" version="1.1" xmlns="http://www.w3.org/2000/svg" xmlns:xlink="http://www.w3.org/1999/xlink" width="400" height="400.26684456304207" viewBox="0, 0, 400,400.26684456304207"><g id="svgg"><path id="path0" d="M0.016 10.740 C 0.028 19.150,0.100 21.375,0.349 20.992 C 6.602 11.369,12.074 5.450,18.881 0.945 C 19.504 0.533,20.013 0.152,20.013 0.098 C 20.013 0.044,15.510 0.000,10.007 0.000 L 0.000 0.000 0.016 10.740 M381.201 0.221 C 381.340 0.342,382.115 0.910,382.922 1.484 C 389.068 5.849,396.000 13.134,399.284 18.679 L 399.995 19.880 399.997 9.940 L 400.000 0.000 390.474 0.000 C 385.234 0.000,381.061 0.099,381.201 0.221 M214.810 32.166 C 204.190 33.658,196.051 39.147,193.432 46.582 C 192.721 48.603,192.540 50.695,191.719 66.444 C 191.348 73.562,190.930 81.428,190.790 83.923 C 189.861 100.497,189.193 113.527,189.193 115.072 L 189.193 116.878 186.458 116.878 C 177.769 116.879,163.334 120.382,161.174 123.014 C 161.101 123.104,160.595 123.448,160.051 123.778 C 159.506 124.109,158.488 124.853,157.788 125.432 C 156.066 126.855,156.117 126.885,154.506 123.482 C 153.724 121.831,152.563 119.405,151.926 118.091 C 151.289 116.777,150.767 115.546,150.767 115.356 C 150.767 115.166,150.627 115.010,150.456 115.010 C 150.285 115.010,150.220 114.934,150.313 114.842 C 150.406 114.749,150.306 114.422,150.091 114.115 C 149.356 113.067,149.550 113.009,153.769 113.007 C 168.628 113.003,180.701 99.836,175.544 89.260 C 168.793 75.413,140.564 84.268,139.621 100.528 C 139.423 103.943,139.315 103.655,146.102 117.812 C 149.855 125.640,150.862 127.750,151.835 129.820 C 153.233 132.796,155.542 137.622,157.005 140.624 C 158.660 144.020,158.702 143.858,155.497 146.357 C 153.996 147.527,151.042 150.218,148.932 152.338 C 146.103 155.178,144.999 156.127,144.733 155.948 C 144.182 155.577,114.209 123.503,114.209 123.285 C 114.209 123.180,115.020 122.880,116.011 122.619 C 128.366 119.354,136.108 104.465,129.570 96.545 C 119.609 84.481,95.364 102.709,102.023 117.255 C 102.385 118.046,103.550 119.576,104.787 120.885 C 116.473 133.254,141.578 160.235,141.639 160.491 C 141.681 160.671,141.078 161.769,140.297 162.931 C 138.343 165.840,134.979 171.702,134.874 172.382 C 134.862 172.455,134.519 173.235,134.111 174.116 C 129.798 183.430,127.464 195.721,127.942 206.604 L 128.127 210.807 127.029 210.807 C 126.426 210.807,121.643 210.568,116.402 210.275 C 111.160 209.983,98.950 209.316,89.268 208.794 C 71.200 207.818,71.220 207.820,71.657 207.234 C 71.799 207.044,72.534 206.067,73.292 205.064 C 84.617 190.058,76.629 164.238,60.974 165.249 C 57.167 165.494,54.231 166.983,51.024 170.293 C 49.756 171.601,49.318 172.170,47.768 174.516 C 41.297 184.312,43.630 202.888,52.131 209.252 C 56.353 212.413,53.532 212.054,88.592 213.895 C 104.132 214.710,112.586 215.252,112.794 215.446 C 112.969 215.610,113.770 218.025,114.574 220.814 C 117.017 229.287,120.317 238.189,123.036 243.639 C 123.612 244.792,124.083 245.848,124.083 245.984 C 124.083 246.121,124.259 246.378,124.474 246.557 C 124.690 246.736,124.842 246.961,124.812 247.057 C 124.743 247.277,127.829 253.094,129.779 256.422 C 131.566 259.471,131.846 259.018,126.645 261.507 C 124.282 262.639,121.147 264.139,119.680 264.842 C 118.212 265.544,115.811 266.689,114.343 267.386 C 112.875 268.082,109.409 269.745,106.639 271.080 C 100.815 273.888,101.120 273.881,101.601 271.194 C 103.249 262.000,96.929 248.251,89.219 244.253 C 88.699 243.983,87.834 243.536,87.298 243.260 C 69.060 233.852,58.920 260.343,74.387 276.991 C 81.472 284.618,87.779 285.872,96.865 281.460 C 98.993 280.427,101.815 279.073,103.135 278.451 C 104.456 277.830,106.918 276.660,108.606 275.853 C 117.351 271.669,124.595 268.197,127.819 266.646 C 129.800 265.693,132.141 264.583,133.022 264.180 C 134.887 263.326,139.246 261.242,145.373 258.275 C 150.512 255.786,149.934 255.861,151.650 257.464 C 157.198 262.646,165.721 268.165,172.477 270.953 C 173.752 271.479,174.213 270.417,168.087 281.048 C 165.273 285.931,162.237 291.217,161.339 292.795 C 159.396 296.208,159.487 296.187,157.972 293.588 C 148.805 277.859,123.914 277.913,123.972 293.662 C 124.025 307.788,144.392 318.652,155.877 310.679 C 157.797 309.347,159.108 307.302,166.882 293.525 C 167.563 292.318,171.510 285.449,172.517 283.718 C 172.665 283.464,173.948 281.214,175.368 278.719 C 176.788 276.224,178.108 273.981,178.301 273.735 C 178.626 273.321,178.953 273.365,182.688 274.325 C 187.012 275.436,192.420 276.300,196.904 276.597 L 199.679 276.781 199.503 284.021 C 199.406 288.003,199.207 296.604,199.060 303.135 C 198.706 318.866,198.519 323.682,198.264 323.682 C 198.148 323.682,197.410 323.250,196.625 322.721 C 183.941 314.182,164.777 320.782,164.777 333.689 C 164.777 351.350,197.740 354.606,202.949 337.459 C 203.378 336.048,203.405 335.291,204.130 304.870 C 204.277 298.706,204.475 289.940,204.570 285.390 C 204.769 275.837,204.516 276.579,207.647 276.343 C 218.363 275.534,232.557 270.759,240.238 265.379 C 240.554 265.158,240.892 264.977,240.989 264.977 C 241.167 264.977,243.016 267.485,255.081 284.096 C 257.197 287.009,259.550 290.233,260.309 291.261 C 267.956 301.613,276.985 314.177,276.985 314.467 C 276.985 314.545,275.797 314.610,274.346 314.610 C 251.947 314.610,233.948 341.748,248.025 354.295 C 261.374 366.193,289.857 350.856,291.046 331.131 C 291.382 325.551,290.821 324.355,282.548 313.009 C 270.278 296.180,269.412 294.993,267.796 292.768 C 266.906 291.542,265.326 289.380,264.286 287.964 C 253.939 273.881,245.665 262.366,245.649 262.029 C 245.639 261.801,246.712 260.706,248.033 259.594 C 257.243 251.846,265.218 240.728,269.391 229.820 C 270.307 227.424,269.761 227.413,276.985 229.982 C 278.672 230.582,284.793 232.747,290.586 234.793 C 296.379 236.838,301.143 238.612,301.173 238.736 C 301.203 238.859,300.514 239.535,299.643 240.239 C 286.564 250.795,288.926 274.338,303.060 274.313 C 318.703 274.286,327.540 247.840,315.074 238.363 C 314.175 237.680,312.039 236.862,301.268 233.078 C 295.177 230.938,289.233 228.839,288.059 228.414 C 286.885 227.988,284.903 227.285,283.656 226.851 C 271.950 222.777,271.915 222.763,271.915 222.231 C 271.915 221.977,272.144 220.773,272.425 219.557 C 273.180 216.282,273.735 212.456,274.040 208.421 C 274.189 206.449,274.408 204.738,274.526 204.620 C 274.767 204.379,335.046 206.072,335.301 206.326 C 335.390 206.415,335.057 207.069,334.562 207.780 C 328.687 216.217,329.409 229.514,336.114 236.351 C 344.114 244.510,356.144 239.014,358.733 226.017 C 360.917 215.055,356.513 204.434,348.766 201.980 C 346.892 201.386,345.866 201.344,297.799 199.879 C 288.039 199.581,278.702 199.265,277.051 199.176 L 274.049 199.013 274.049 198.161 C 274.049 191.319,270.594 178.986,266.249 170.317 C 265.496 168.815,264.932 167.541,264.995 167.486 C 265.058 167.430,266.731 166.392,268.712 165.178 C 270.694 163.964,272.915 162.573,273.649 162.087 C 274.383 161.601,276.364 160.364,278.052 159.337 C 282.102 156.875,285.665 154.691,290.060 151.976 C 294.217 149.409,294.061 149.411,294.067 151.917 C 294.100 165.628,308.710 178.339,319.013 173.621 C 333.309 167.075,323.662 139.627,306.604 138.313 C 303.023 138.037,300.791 138.994,292.595 144.319 C 292.008 144.700,291.202 145.197,290.803 145.422 C 290.152 145.789,287.646 147.330,284.712 149.166 C 281.896 150.929,271.501 157.352,270.893 157.705 C 270.513 157.925,270.078 158.198,269.925 158.311 C 269.341 158.742,266.287 160.640,266.177 160.640 C 266.114 160.640,265.319 161.121,264.411 161.708 C 262.300 163.072,261.988 163.054,260.944 161.508 C 257.906 157.009,251.856 150.547,247.098 146.720 C 244.487 144.620,238.701 140.627,238.269 140.627 C 237.706 140.627,238.139 139.572,240.093 136.184 C 241.231 134.211,242.286 132.377,242.438 132.106 C 244.814 127.882,251.802 116.077,251.927 116.077 C 252.019 116.077,252.722 116.921,253.490 117.953 C 261.731 129.037,279.209 127.945,279.244 116.344 C 279.280 104.729,261.727 96.054,253.547 103.644 C 252.629 104.496,251.306 106.658,243.898 119.413 C 235.793 133.368,233.239 137.692,233.104 137.692 C 233.059 137.692,231.634 137.096,229.938 136.368 C 219.983 132.097,212.550 130.620,201.001 130.620 C 193.640 130.620,193.462 130.608,193.464 130.087 C 193.465 129.793,193.882 121.868,194.391 112.475 C 194.900 103.082,195.685 88.372,196.136 79.787 C 196.587 71.201,197.008 64.023,197.071 63.835 C 197.144 63.622,198.148 64.290,199.745 65.613 C 217.240 80.102,249.216 71.904,249.060 52.969 C 248.952 39.860,232.250 29.715,214.810 32.166 M188.658 123.082 C 188.656 125.522,188.302 131.002,188.129 131.282 C 188.028 131.445,186.393 131.926,184.496 132.351 C 181.262 133.075,177.002 134.360,175.183 135.160 C 174.743 135.353,173.182 136.013,171.714 136.626 C 170.247 137.238,167.752 138.449,166.169 139.317 C 164.587 140.184,163.200 140.894,163.088 140.894 C 162.834 140.894,158.773 132.517,158.773 131.994 C 158.773 131.574,161.851 128.595,162.859 128.039 C 170.578 123.783,176.725 122.217,186.591 121.995 L 188.659 121.948 188.658 123.082 M128.133 216.118 L 128.999 216.295 129.737 219.605 C 132.217 230.715,137.703 241.899,144.680 250.070 C 146.300 251.966,146.284 252.145,144.423 253.020 C 143.583 253.415,141.499 254.406,139.792 255.221 C 138.084 256.037,136.516 256.704,136.307 256.704 C 134.991 256.704,124.990 236.598,122.437 228.819 C 121.303 225.363,118.929 217.557,118.635 216.315 L 118.454 215.553 122.861 215.747 C 125.285 215.854,127.658 216.021,128.133 216.118 M0.000 387.859 L 0.000 400.267 13.136 400.267 L 26.272 400.267 23.356 398.645 C 14.367 393.647,4.664 384.085,0.696 376.318 C 0.452 375.841,0.196 375.450,0.127 375.450 C 0.057 375.450,0.000 381.034,0.000 387.859 M398.206 379.788 C 392.950 387.596,385.882 394.069,377.185 399.038 L 375.050 400.257 387.525 400.262 L 400.000 400.267 400.000 388.793 C 400.000 382.482,399.970 377.319,399.933 377.319 C 399.897 377.320,399.119 378.431,398.206 379.788 " stroke="none" fill="#f9fbfb" fill-rule="evenodd"></path><path id="path1" d="M18.928 0.882 C 12.022 5.713,6.086 11.939,1.608 19.047 L 0.000 21.599 0.000 198.396 L 0.000 375.193 1.251 377.256 C 6.594 386.069,14.503 393.722,23.356 398.645 L 26.272 400.267 200.632 400.267 L 374.993 400.267 377.823 398.643 C 386.187 393.845,393.273 387.232,398.559 379.290 L 400.000 377.125 400.000 198.526 L 400.000 19.927 399.289 18.703 C 396.079 13.178,389.074 5.846,382.621 1.258 L 380.853 0.000 200.500 0.015 L 20.147 0.029 18.928 0.882 M223.654 32.033 C 244.770 34.159,255.895 51.182,244.638 64.139 C 234.971 75.267,212.300 76.011,199.745 65.613 C 198.148 64.290,197.144 63.622,197.071 63.835 C 197.008 64.023,196.587 71.201,196.136 79.787 C 195.685 88.372,194.900 103.082,194.391 112.475 C 193.882 121.868,193.465 129.793,193.464 130.087 C 193.462 130.608,193.640 130.620,201.001 130.620 C 212.550 130.620,219.983 132.097,229.938 136.368 C 231.634 137.096,233.059 137.692,233.104 137.692 C 233.239 137.692,235.793 133.368,243.898 119.413 C 251.306 106.658,252.629 104.496,253.547 103.644 C 261.727 96.054,279.280 104.729,279.244 116.344 C 279.209 127.945,261.731 129.037,253.490 117.953 C 252.722 116.921,252.019 116.077,251.927 116.077 C 251.802 116.077,244.814 127.882,242.438 132.106 C 242.286 132.377,241.231 134.211,240.093 136.184 C 238.139 139.572,237.706 140.627,238.269 140.627 C 238.701 140.627,244.487 144.620,247.098 146.720 C 251.856 150.547,257.906 157.009,260.944 161.508 C 261.988 163.054,262.300 163.072,264.411 161.708 C 265.319 161.121,266.114 160.640,266.177 160.640 C 266.287 160.640,269.341 158.742,269.925 158.311 C 270.078 158.198,270.513 157.925,270.893 157.705 C 271.501 157.352,281.896 150.929,284.712 149.166 C 287.646 147.330,290.152 145.789,290.803 145.422 C 291.202 145.197,292.008 144.700,292.595 144.319 C 300.791 138.994,303.023 138.037,306.604 138.313 C 323.662 139.627,333.309 167.075,319.013 173.621 C 308.710 178.339,294.100 165.628,294.067 151.917 C 294.061 149.411,294.217 149.409,290.060 151.976 C 285.665 154.691,282.102 156.875,278.052 159.337 C 276.364 160.364,274.383 161.601,273.649 162.087 C 272.915 162.573,270.694 163.964,268.712 165.178 C 266.731 166.392,265.058 167.430,264.995 167.486 C 264.932 167.541,265.496 168.815,266.249 170.317 C 270.594 178.986,274.049 191.319,274.049 198.161 L 274.049 199.013 277.051 199.176 C 278.702 199.265,288.039 199.581,297.799 199.879 C 353.387 201.573,348.796 201.247,352.101 203.733 C 363.378 212.214,360.883 235.559,348.266 239.616 C 334.279 244.113,324.722 221.910,334.562 207.780 C 335.057 207.069,335.390 206.415,335.301 206.326 C 335.046 206.072,274.767 204.379,274.526 204.620 C 274.408 204.738,274.189 206.449,274.040 208.421 C 273.735 212.456,273.180 216.282,272.425 219.557 C 272.144 220.773,271.915 221.977,271.915 222.231 C 271.915 222.763,271.950 222.777,283.656 226.851 C 284.903 227.285,286.885 227.988,288.059 228.414 C 289.233 228.839,295.177 230.938,301.268 233.078 C 312.039 236.862,314.175 237.680,315.074 238.363 C 327.540 247.840,318.703 274.286,303.060 274.313 C 288.926 274.338,286.564 250.795,299.643 240.239 C 300.514 239.535,301.203 238.859,301.173 238.736 C 301.143 238.612,296.379 236.838,290.586 234.793 C 284.793 232.747,278.672 230.582,276.985 229.982 C 269.761 227.413,270.307 227.424,269.391 229.820 C 265.218 240.728,257.243 251.846,248.033 259.594 C 246.712 260.706,245.639 261.801,245.649 262.029 C 245.665 262.366,253.939 273.881,264.286 287.964 C 265.326 289.380,266.906 291.542,267.796 292.768 C 269.412 294.993,270.278 296.180,282.548 313.009 C 290.821 324.355,291.382 325.551,291.046 331.131 C 289.857 350.856,261.374 366.193,248.025 354.295 C 233.948 341.748,251.947 314.610,274.346 314.610 C 275.797 314.610,276.985 314.545,276.985 314.467 C 276.985 314.177,267.956 301.613,260.309 291.261 C 259.550 290.233,257.197 287.009,255.081 284.096 C 243.016 267.485,241.167 264.977,240.989 264.977 C 240.892 264.977,240.554 265.158,240.238 265.379 C 232.557 270.759,218.363 275.534,207.647 276.343 C 204.516 276.579,204.769 275.837,204.570 285.390 C 203.494 336.986,203.489 337.091,201.819 340.128 C 193.760 354.787,164.777 349.749,164.777 333.689 C 164.777 320.782,183.941 314.182,196.625 322.721 C 197.410 323.250,198.148 323.682,198.264 323.682 C 198.519 323.682,198.706 318.866,199.060 303.135 C 199.207 296.604,199.406 288.003,199.503 284.021 L 199.679 276.781 196.904 276.597 C 192.420 276.300,187.012 275.436,182.688 274.325 C 178.953 273.365,178.626 273.321,178.301 273.735 C 178.108 273.981,176.788 276.224,175.368 278.719 C 173.948 281.214,172.665 283.464,172.517 283.718 C 171.510 285.449,167.563 292.318,166.882 293.525 C 159.108 307.302,157.797 309.347,155.877 310.679 C 144.392 318.652,124.025 307.788,123.972 293.662 C 123.914 277.913,148.805 277.859,157.972 293.588 C 159.487 296.187,159.396 296.208,161.339 292.795 C 162.237 291.217,165.273 285.931,168.087 281.048 C 174.213 270.417,173.752 271.479,172.477 270.953 C 165.721 268.165,157.198 262.646,151.650 257.464 C 149.934 255.861,150.512 255.786,145.373 258.275 C 139.246 261.242,134.887 263.326,133.022 264.180 C 132.141 264.583,129.800 265.693,127.819 266.646 C 124.595 268.197,117.351 271.669,108.606 275.853 C 106.918 276.660,104.456 277.830,103.135 278.451 C 101.815 279.073,98.993 280.427,96.865 281.460 C 92.262 283.695,91.266 283.998,88.459 284.019 C 73.150 284.131,60.846 260.306,69.488 247.286 C 73.319 241.515,80.687 239.850,87.298 243.260 C 87.834 243.536,88.699 243.983,89.219 244.253 C 96.929 248.251,103.249 262.000,101.601 271.194 C 101.120 273.881,100.815 273.888,106.639 271.080 C 109.409 269.745,112.875 268.082,114.343 267.386 C 115.811 266.689,118.212 265.544,119.680 264.842 C 121.147 264.139,124.282 262.639,126.645 261.507 C 131.846 259.018,131.566 259.471,129.779 256.422 C 127.829 253.094,124.743 247.277,124.812 247.057 C 124.842 246.961,124.690 246.736,124.474 246.557 C 124.259 246.378,124.083 246.121,124.083 245.984 C 124.083 245.848,123.612 244.792,123.036 243.639 C 120.317 238.189,117.017 229.287,114.574 220.814 C 113.770 218.025,112.969 215.610,112.794 215.446 C 112.586 215.252,104.132 214.710,88.592 213.895 C 53.532 212.054,56.353 212.413,52.131 209.252 C 43.630 202.888,41.297 184.312,47.768 174.516 C 49.318 172.170,49.756 171.601,51.024 170.293 C 54.231 166.983,57.167 165.494,60.974 165.249 C 76.629 164.238,84.617 190.058,73.292 205.064 C 72.534 206.067,71.799 207.044,71.657 207.234 C 71.220 207.820,71.200 207.818,89.268 208.794 C 98.950 209.316,111.160 209.983,116.402 210.275 C 121.643 210.568,126.426 210.807,127.029 210.807 L 128.127 210.807 127.942 206.604 C 127.464 195.721,129.798 183.430,134.111 174.116 C 134.519 173.235,134.862 172.455,134.874 172.382 C 134.979 171.702,138.343 165.840,140.297 162.931 C 141.078 161.769,141.681 160.671,141.639 160.491 C 141.578 160.235,116.473 133.254,104.787 120.885 C 103.550 119.576,102.385 118.046,102.023 117.255 C 95.364 102.709,119.609 84.481,129.570 96.545 C 136.108 104.465,128.366 119.354,116.011 122.619 C 115.020 122.880,114.209 123.180,114.209 123.285 C 114.209 123.503,144.182 155.577,144.733 155.948 C 144.999 156.127,146.103 155.178,148.932 152.338 C 151.042 150.218,153.996 147.527,155.497 146.357 C 158.702 143.858,158.660 144.020,157.005 140.624 C 155.542 137.622,153.233 132.796,151.835 129.820 C 150.862 127.750,149.855 125.640,146.102 117.812 C 139.315 103.655,139.423 103.943,139.621 100.528 C 140.564 84.268,168.793 75.413,175.544 89.260 C 180.701 99.836,168.628 113.003,153.769 113.007 C 149.550 113.009,149.356 113.067,150.091 114.115 C 150.306 114.422,150.406 114.749,150.313 114.842 C 150.220 114.934,150.285 115.010,150.456 115.010 C 150.627 115.010,150.767 115.166,150.767 115.356 C 150.767 115.546,151.289 116.777,151.926 118.091 C 152.563 119.405,153.724 121.831,154.506 123.482 C 156.117 126.885,156.066 126.855,157.788 125.432 C 158.488 124.853,159.506 124.109,160.051 123.778 C 160.595 123.448,161.101 123.104,161.174 123.014 C 163.334 120.382,177.769 116.879,186.458 116.878 L 189.193 116.878 189.193 115.072 C 189.193 113.527,189.861 100.497,190.790 83.923 C 190.930 81.428,191.348 73.562,191.719 66.444 C 192.540 50.695,192.721 48.603,193.432 46.582 C 196.858 36.854,209.775 30.635,223.654 32.033 M183.322 122.125 C 175.000 122.707,169.807 124.208,162.859 128.039 C 161.851 128.595,158.773 131.574,158.773 131.994 C 158.773 132.517,162.834 140.894,163.088 140.894 C 163.200 140.894,164.587 140.184,166.169 139.317 C 167.752 138.449,170.247 137.238,171.714 136.626 C 173.182 136.013,174.743 135.353,175.183 135.160 C 177.002 134.360,181.262 133.075,184.496 132.351 C 186.393 131.926,188.028 131.445,188.129 131.282 C 188.302 131.002,188.656 125.522,188.658 123.082 L 188.659 121.948 186.591 121.995 C 185.454 122.020,183.983 122.079,183.322 122.125 M118.635 216.315 C 118.929 217.557,121.303 225.363,122.437 228.819 C 124.990 236.598,134.991 256.704,136.307 256.704 C 136.516 256.704,138.084 256.037,139.792 255.221 C 141.499 254.406,143.583 253.415,144.423 253.020 C 146.284 252.145,146.300 251.966,144.680 250.070 C 137.703 241.899,132.217 230.715,129.737 219.605 L 128.999 216.295 128.133 216.118 C 127.658 216.021,125.285 215.854,122.861 215.747 L 118.454 215.553 118.635 216.315 " stroke="none" fill="#0c5ba3" fill-rule="evenodd"></path></g></svg>