<svg version="1.1" xmlns="http://www.w3.org/2000/svg" xmlns:xlink="http://www.w3.org/1999/xlink" width="400" height="400" viewBox="0,0,400,400"><g transform="translate(-40,20)"><g data-paper-data="{&quot;isPaintingLayer&quot;:true}" fill-rule="evenodd" stroke-linecap="butt" stroke-linejoin="miter" stroke-miterlimit="10" stroke-dasharray="" stroke-dashoffset="0" style="mix-blend-mode: normal"><path d="M40,180v-200h200h200v200v200h-200h-200v-200M354.971,116.2c-4.901,-6.497 -5.53,-7.179 -6.028,-6.537c-2.186,2.82 -17.343,31.191 -17.343,32.463c0,0.094 2.025,0.386 4.5,0.65c8.749,0.932 31.474,4.983 30.942,5.515c-0.092,0.092 -2.119,-0.111 -4.505,-0.451c-24.09,-3.433 -51.562,-3.515 -79.737,-0.238c-3.85,0.448 -8.018,0.925 -9.262,1.059c-4.199,0.455 -4.736,-0.305 7.462,10.552c3.3,2.937 7.89,7.069 10.2,9.182c2.31,2.113 8.295,7.501 13.3,11.974c5.005,4.473 9.1,8.16 9.1,8.193c0,0.033 -3.775,13.275 -8.389,29.427c-4.614,16.152 -8.326,29.43 -8.249,29.506c0.452,0.453 29.273,-14.228 42.838,-21.821c16.078,-9 30.241,-18.739 43.735,-30.073c3.869,-3.25 3.869,-2.959 -0.002,2.022c-6.725,8.652 -12.791,14.959 -22.15,23.032c-1.311,1.131 -2.293,2.142 -2.183,2.246c0.509,0.485 32.823,21.899 33.045,21.899c1.803,0 -1.134,-37.189 -4.06,-51.41c-0.232,-1.127 -0.028,-1.398 2.969,-3.927c6.895,-5.819 15.838,-16.141 20.233,-23.356l1.518,-2.493l-0.952,-0.809c-4.601,-3.906 -22.443,-10.299 -34.708,-12.438l-2.955,-0.515l-0.785,-1.826c-4.618,-10.74 -11.354,-22.308 -18.534,-31.826M213.53,151.964c-4.285,-2.186 -10.856,-0.767 -13.696,2.956c-7.331,9.611 1.434,22.679 12.648,18.858c9.423,-3.211 10.095,-17.198 1.048,-21.814M74.8,156.2v-5h-1.6h-1.6v11.4v11.4h1.6h1.6v-5v-5h6h6v5v5h1.606h1.606l-0.106,-11.3l-0.106,-11.3l-1.5,-0.124l-1.5,-0.124v5.024v5.024h-6h-6v-5M97.906,162.7l-0.106,-11.3l-1.5,-0.124l-1.5,-0.124v11.424v11.424h1.606h1.606l-0.106,-11.3M118.324,152.7l0.124,-1.5h-8.836c-9.491,0 -9.439,-0.012 -9.144,2.071c0.126,0.889 0.288,0.931 3.732,0.984l3.6,0.055l0.107,9.845l0.107,9.845h1.393h1.393v-9.785v-9.785l3.7,-0.115l3.7,-0.115l0.124,-1.5M135.521,152.499c-1.614,-1.068 -1.843,-1.103 -8.19,-1.233l-6.531,-0.135v11.435v11.434h1.6h1.6l-0.001,-4.3l-0.001,-4.3l2.937,0.129l2.938,0.13l3.102,4.17l3.102,4.171h1.761c2.212,0 2.324,0.368 -1.437,-4.694l-3.199,-4.306l1.522,-0.651c5.09,-2.176 5.53,-8.715 0.797,-11.85M155.86,155.2c-1.719,-3.848 -3.958,-5.499 -4.773,-3.521c-0.118,0.286 -2.391,5.368 -5.051,11.292c-2.66,5.923 -4.836,10.828 -4.836,10.9c0,1.325 3.291,-0.132 3.999,-1.771c1.776,-4.113 1.076,-3.755 7.491,-3.832l5.689,-0.068l1.265,2.9c1.256,2.882 1.274,2.9 2.81,2.9c1.944,0 1.981,0.272 -0.787,-5.844c-1.283,-2.836 -2.733,-6.056 -3.221,-7.156c-0.489,-1.1 -1.652,-3.71 -2.586,-5.8M180.09,152.524c-2.71,-1.33 -13.061,-1.987 -13.495,-0.856c-0.114,0.299 -0.16,5.401 -0.102,11.338l0.107,10.794l5.159,0.112c6.142,0.134 8.078,-0.364 10.826,-2.782c6.079,-5.351 4.78,-15.033 -2.495,-18.606M193.2,162.6v-11.4h-1.333c-1.934,0 -1.867,-0.419 -1.867,11.667v11.133h1.6h1.6v-11.4M123.999,158.5l-0.001,-4.3l4.771,0.2c5.724,0.24 6.831,0.859 6.831,3.816c0,3.345 -2.264,4.584 -8.377,4.584h-3.223l-0.001,-4.3M169.766,154.367c1.165,-1.17 9.636,0.703 11.315,2.5c5.683,6.087 0.761,14.333 -8.554,14.333h-2.927v-8.333c0,-4.584 0.075,-8.409 0.166,-8.5M204.721,154.794c1.144,-0.621 2.078,-0.777 4.123,-0.688c10.81,0.467 10.572,17.233 -0.244,17.233c-8.599,0 -11.506,-12.403 -3.879,-16.545M150.497,160.142c1.157,-2.672 2.136,-4.83 2.175,-4.794c0.063,0.055 4.528,9.937 4.528,10.021c0,0.017 -1.98,0.031 -4.4,0.031c-2.42,0 -4.401,-0.09 -4.403,-0.2c-0.002,-0.11 0.943,-2.386 2.1,-5.058M207.2,184.4v-3.6h-5h-5v3.6v3.6h-2.6h-2.6v4.4v4.4h2.576h2.575l0.125,13.3c0.138,14.839 0.178,15.079 3.001,17.975c3.351,3.44 10.614,4.493 15.923,2.309l2.4,-0.987l0.114,-4.098c0.063,-2.255 0.007,-4.099 -0.125,-4.099c-0.131,0 -1.13,0.291 -2.219,0.648c-2.658,0.869 -6.489,0.61 -7.614,-0.514c-1.314,-1.314 -1.536,-3.362 -1.546,-14.234l-0.01,-10.3h5.8h5.8v-4.4v-4.4h-5.8h-5.8v-3.6M97.308,187.788c-14.758,-3.127 -27.708,7.02 -27.708,21.71c0,19.128 21.436,29.133 36.5,17.036c3.327,-2.672 3.333,-2.526 -0.22,-6.055l-2.92,-2.9l-0.979,1.041c-8.389,8.93 -22.181,3.322 -22.181,-9.02c0,-12.094 12.114,-17.963 20.715,-10.036c2.245,2.07 1.969,2.157 5.381,-1.695l2.897,-3.269l-2.097,-1.893c-2.751,-2.485 -6.044,-4.211 -9.388,-4.919M133.28,187.65c-19.804,-4.205 -33.417,19.387 -20.876,36.18c6.958,9.316 23.045,10.489 32.296,2.355c2.659,-2.338 2.654,-2.377 -0.701,-5.357l-2.8,-2.489l-1.669,1.428c-7.487,6.409 -18.225,4.247 -21.094,-4.246l-0.784,-2.321h15.539h15.539l0.257,-1.523c1.696,-10.039 -6.117,-21.99 -15.707,-24.027M181.698,188.203c-6.375,-2.254 -13.82,-0.459 -17.908,4.317l-1.39,1.624v-3.072v-3.072h-5h-5v21.4v21.4h5h5v-12.927c0,-10.57 0.114,-13.313 0.626,-15.037c2.182,-7.348 12.491,-8.81 16.22,-2.3c0.944,1.647 0.956,1.809 1.154,15.864l0.2,14.2l5.1,0.112l5.1,0.112v-14.557c0,-20.646 -1.539,-25.39 -9.102,-28.064M243.68,187.646c-26.147,-5.506 -36.198,34.407 -10.809,42.924c7.671,2.574 16.352,0.809 22.429,-4.559c2.441,-2.157 2.422,-2.265 -0.894,-5.206l-2.794,-2.477l-1.694,1.449c-7.456,6.383 -17.472,4.461 -20.917,-4.014l-0.96,-2.363l15.545,-0.105l15.545,-0.104l0.257,-1.519c1.7,-10.065 -6.105,-22.003 -15.708,-24.026M287.8,192.6v-5.2l-1.6,-0.082c-4.549,-0.234 -9.585,2.975 -12.369,7.882l-1.021,1.8l-0.005,-4.5l-0.005,-4.5h-5h-5v21.4v21.4h5h5l0.007,-9.3c0.013,-17 2.869,-22.363 12.478,-23.423l2.515,-0.277v-5.2M124.185,196.351c6.294,-2.859 14.615,2.301 14.615,9.064v0.985h-10.6c-5.83,0 -10.6,-0.071 -10.6,-0.158c0,-3.055 3.669,-8.566 6.585,-9.891M234.8,196.238c6.188,-2.681 14.4,2.553 14.4,9.177v0.985h-10.6c-5.83,0 -10.6,-0.057 -10.6,-0.127c0,-3.233 3.7,-8.692 6.8,-10.035" fill="#ec2b4b" stroke="none" stroke-width="1"/><path d="M150.841,152.9c0.763,-1.776 2.149,-2.317 3.076,-1.199c0.53,0.637 9.683,21.369 9.683,21.931c0,1.653 -2.59,0.032 -3.566,-2.232c-0.569,-1.32 -1.18,-2.625 -1.358,-2.9c-0.234,-0.362 -1.922,-0.5 -6.122,-0.5h-5.8l-1.367,3c-1.262,2.771 -1.459,3 -2.577,3c-1.569,0 -1.825,0.839 3.045,-9.963c2.34,-5.19 4.584,-10.202 4.986,-11.137M204.981,151.71c0.672,-0.27 2.475,-0.442 4.019,-0.383c14.622,0.556 14.033,22.909 -0.6,22.801c-12.476,-0.092 -15.161,-17.698 -3.419,-22.418M72,162.8v-11.2h1.2h1.2v4.8v4.8h6.2h6.2v-4.8v-4.8h1.4h1.4v11.225v11.226l-1.3,-0.126l-1.3,-0.125l-0.112,-4.9l-0.113,-4.9h-6.187h-6.188v5v5h-1.2h-1.2v-11.2M94.981,152.106c0.106,-0.278 0.742,-0.506 1.413,-0.506h1.219l-0.107,11.1l-0.106,11.1h-1.2h-1.2l-0.107,-10.594c-0.059,-5.826 -0.019,-10.821 0.088,-11.1M100.8,152.8v-1.2h8.6h8.6v1.2v1.2h-3.593h-3.593l-0.107,9.9l-0.107,9.9h-1.2h-1.2l-0.107,-9.9l-0.107,-9.9h-3.593h-3.593v-1.2M121.2,162.8v-11.2h5.813c6.009,0 7.795,0.359 9.513,1.914c3.465,3.136 2.1,9.709 -2.221,10.697c-1.695,0.387 -1.643,0.537 1.718,4.998c3.642,4.835 3.626,4.791 1.775,4.791c-1.321,0 -1.586,-0.252 -4.634,-4.4l-3.232,-4.4h-3.166h-3.166v4.4v4.4h-1.2h-1.2v-11.2M166.894,162.7l-0.107,-11.1h5.307c9.428,0.001 14.047,3.697 14,11.203c-0.045,7.258 -4.674,10.912 -13.894,10.966l-5.2,0.031l-0.106,-11.1M190.4,162.8v-11.2h1.2h1.2v11.2v11.2h-1.2h-1.2v-11.2M211.886,154.268c-1.736,-0.824 -4.822,-0.838 -6.683,-0.031c-7.502,3.254 -6.384,15.616 1.566,17.318c10.059,2.153 14.496,-12.837 5.117,-17.287M133.596,154.598c-0.821,-0.425 -2.437,-0.598 -5.576,-0.598h-4.42v4.4v4.4h4.213c4.873,0 6.628,-0.545 7.56,-2.349c1.238,-2.394 0.554,-4.648 -1.777,-5.853M179.667,155.402c-1.61,-1.117 -2.029,-1.212 -5.9,-1.338l-4.167,-0.137v8.895v8.896l3.725,-0.223c4.467,-0.266 5.999,-0.846 7.948,-3.006c3.539,-3.921 2.788,-10.037 -1.606,-13.087M155.136,160.149c-1.135,-2.612 -2.184,-4.889 -2.331,-5.06c-0.235,-0.274 -4.812,9.448 -4.807,10.211c0.001,0.165 2.072,0.3 4.602,0.3c2.53,0 4.6,-0.158 4.6,-0.351c0,-0.193 -0.929,-2.488 -2.064,-5.1M197.515,184.5l0.115,-3.7h4.785h4.785v3.8v3.8h5.573h5.574l0.126,4.001l0.127,4.001l-5.7,-0.001l-5.7,-0.001v11.42c0,15.177 1.028,16.814 9.036,14.384c1.08,-0.327 2.016,-0.597 2.078,-0.6c0.063,-0.002 0.063,1.751 0,3.896l-0.114,3.9l-2.6,0.886c-6.969,2.374 -14.07,0.463 -16.593,-4.467l-1.207,-2.359l-0.2,-13.43l-0.2,-13.43l-2.7,-0.118l-2.7,-0.119v-3.963v-3.963l2.7,-0.119l2.7,-0.118l0.115,-3.7M86,188.232c7.08,-1.863 15.522,0.059 20.625,4.697l1.975,1.795l-2.8,2.988c-3.337,3.562 -3.002,3.466 -5.328,1.533c-8.718,-7.243 -20.332,-2.156 -21.139,9.259c-0.89,12.602 12.178,19.218 21.905,11.089l1.838,-1.536l2.893,2.912l2.893,2.912l-2.331,2.083c-6.729,6.014 -16.396,7.293 -24.709,3.27c-18.024,-8.724 -15.256,-35.889 4.178,-41.002M122.778,188.354c13.213,-4.228 24.902,5.134 25.902,20.746l0.238,3.7h-15.659c-13.474,0 -15.659,0.082 -15.659,0.585c0,9.362 13.537,13.522 21.908,6.733l1.709,-1.385l2.848,2.524l2.847,2.525l-2.337,2.124c-5.781,5.253 -14.578,7.016 -22.3,4.469c-19.392,-6.396 -19.04,-35.767 0.503,-42.021M170.52,188.319c4.903,-1.754 11.595,-0.473 15.284,2.927c4.275,3.941 4.585,5.566 4.591,24.054l0.005,15.1h-4.8h-4.8v-13.023c0,-8.174 -0.164,-13.676 -0.442,-14.776c-1.974,-7.84 -13.503,-8.579 -17.211,-1.103c-0.927,1.867 -0.946,2.149 -1.074,15.402l-0.13,13.5h-4.771h-4.772v-21v-21h4.8h4.8v3c0,3.459 0.077,3.521 1.824,1.481c1.707,-1.995 4.125,-3.642 6.696,-4.562M233.178,188.354c13.277,-4.249 24.974,5.029 25.904,20.546l0.234,3.9h-15.708h-15.708l0.25,1.3c1.817,9.447 13.902,12.81 21.786,6.062l1.676,-1.434l2.845,2.523l2.846,2.523l-2.234,2.079c-9.34,8.694 -25.996,7.075 -32.809,-3.189c-8.342,-12.567 -2.822,-29.913 10.918,-34.31M282.6,188.16c0.88,-0.279 2.365,-0.519 3.3,-0.533l1.7,-0.027v4.945v4.945l-2.107,0.247c-3.779,0.445 -5.92,1.43 -8.328,3.836c-3.853,3.849 -4.116,4.949 -4.282,17.927l-0.14,10.9h-4.872h-4.871l0.107,-21l0.107,-21h4.818h4.818l-0.125,4.401c-0.141,4.956 -0.085,5.08 1.196,2.665c1.792,-3.377 5.124,-6.182 8.679,-7.306M132.148,196.015c-6.543,-2.448 -14.548,2.835 -14.548,9.6c0,0.684 14.103,1.197 21.1,0.767c0.5,-0.031 0.214,-2.367 -0.527,-4.307c-1.017,-2.663 -3.428,-5.089 -6.025,-6.06M243.463,196.33c-5.454,-2.782 -12.336,0.143 -14.606,6.209c-1.569,4.194 -2.426,3.861 9.943,3.861c12.245,0 11.325,0.313 10.202,-3.469c-0.72,-2.424 -3.241,-5.428 -5.539,-6.601" fill="#ffffff" stroke="#ffffff" stroke-width="1.5"/><path d="M348.943,109.663c0.498,-0.642 1.127,0.04 6.028,6.537c7.18,9.518 13.916,21.086 18.534,31.826l0.785,1.826l2.955,0.515c12.265,2.139 30.107,8.532 34.708,12.438l0.952,0.809l-1.518,2.493c-4.395,7.215 -13.338,17.537 -20.233,23.356c-2.997,2.529 -3.201,2.8 -2.969,3.927c2.926,14.221 5.863,51.41 4.06,51.41c-0.222,0 -32.536,-21.414 -33.045,-21.899c-0.11,-0.104 0.872,-1.115 2.183,-2.246c9.359,-8.073 15.425,-14.38 22.15,-23.032c3.871,-4.981 3.871,-5.272 0.002,-2.022c-13.494,11.334 -27.657,21.073 -43.735,30.073c-13.565,7.593 -42.386,22.274 -42.838,21.821c-0.077,-0.076 3.635,-13.354 8.249,-29.506c4.614,-16.152 8.389,-29.394 8.389,-29.427c0,-0.033 -4.095,-3.72 -9.1,-8.193c-5.005,-4.473 -10.99,-9.861 -13.3,-11.974c-2.31,-2.113 -6.9,-6.245 -10.2,-9.182c-12.198,-10.857 -11.661,-10.097 -7.462,-10.552c1.244,-0.134 5.412,-0.611 9.262,-1.059c28.175,-3.277 55.647,-3.195 79.737,0.238c2.386,0.34 4.413,0.543 4.505,0.451c0.532,-0.532 -22.193,-4.583 -30.942,-5.515c-2.475,-0.264 -4.5,-0.556 -4.5,-0.65c0,-1.272 15.157,-29.643 17.343,-32.463" fill="#f5da27" stroke="#f5da27" stroke-width="1"/></g></g></svg>