<svg xmlns="http://www.w3.org/2000/svg" version="1.1" xmlns:xlink="http://www.w3.org/1999/xlink" xmlns:svgjs="http://svgjs.com/svgjs" width="400" height="400"><svg id="SvgjsSvg1002" xmlns="http://www.w3.org/2000/svg" xmlns:xlink="http://www.w3.org/1999/xlink" width="400" height="400" viewBox="0, 0, 400,400"><g id="SvgjsG1001"><path id="SvgjsPath1000" d="M88.197 47.051 C 85.223 48.244,76.225 57.591,69.473 66.500 C 24.806 125.441,29.192 208.717,79.885 264.184 C 89.743 274.970,101.870 274.802,107.595 263.800 C 110.898 257.451,109.263 252.579,100.603 242.963 C 57.448 195.049,57.625 124.781,101.025 75.527 C 115.341 59.280,106.520 39.699,88.197 47.051 M285.001 47.123 C 273.405 51.747,273.083 63.499,284.217 75.707 C 307.841 101.608,319.376 135.620,316.198 170.000 C 313.453 199.696,304.458 219.828,282.296 245.877 C 271.437 258.640,275.368 270.856,290.648 271.829 L 296.881 272.225 302.571 266.863 C 347.397 224.615,359.401 144.812,329.326 89.000 C 311.632 56.165,296.998 42.340,285.001 47.123 M128.500 86.386 C 112.256 93.465,96.259 126.763,95.264 155.564 C 93.700 200.835,124.697 247.770,143.645 228.821 C 150.510 221.957,149.709 215.593,140.524 204.030 C 119.558 177.635,118.502 142.811,137.931 118.500 C 147.314 106.758,148.193 105.155,148.152 99.850 C 148.071 89.320,137.843 82.314,128.500 86.386 M244.708 87.090 C 239.546 89.814,237.008 94.264,237.004 100.601 C 237.000 106.021,237.199 106.376,246.836 118.115 C 266.511 142.082,265.603 178.853,244.713 204.053 C 234.468 216.412,234.173 226.418,243.906 231.451 C 252.154 235.716,259.671 232.901,267.991 222.430 C 296.155 186.989,298.191 142.229,273.390 103.748 C 262.431 86.746,254.304 82.025,244.708 87.090 M184.000 117.347 C 145.512 125.883,138.016 179.340,172.841 196.920 C 206.215 213.767,242.830 184.490,233.448 148.460 C 227.816 126.833,205.251 112.635,184.000 117.347 M200.000 148.826 C 206.297 153.368,207.395 162.000,202.427 167.904 C 197.544 173.707,190.058 174.240,184.135 169.205 C 172.268 159.118,187.371 139.718,200.000 148.826 M36.667 292.370 C 17.707 297.718,18.072 320.554,37.210 326.285 C 40.120 327.157,45.105 328.592,48.289 329.474 C 60.403 332.832,61.655 342.493,50.306 345.043 C 43.366 346.602,39.271 344.618,35.270 337.759 C 29.133 327.238,19.002 330.178,22.146 341.568 C 28.138 363.268,69.625 360.361,71.765 338.092 C 72.805 327.268,67.867 321.804,53.065 317.402 C 37.185 312.680,34.294 310.438,38.004 305.721 C 42.520 299.981,51.965 301.411,56.455 308.515 C 61.043 315.774,69.000 314.780,69.000 306.948 C 69.000 295.593,52.159 288.000,36.667 292.370 M300.635 293.073 C 298.137 295.038,298.000 295.613,298.000 304.154 L 298.000 313.163 294.428 310.956 C 287.187 306.480,274.284 308.256,269.727 314.355 C 252.931 336.835,276.956 369.018,297.250 351.224 C 298.843 349.828,299.000 349.865,299.000 351.645 C 299.000 355.715,304.536 357.522,308.383 354.709 C 309.974 353.546,310.206 350.596,310.727 324.817 L 311.306 296.215 308.698 293.607 C 305.549 290.458,304.082 290.361,300.635 293.073 M80.934 294.123 C 79.183 297.396,80.035 352.134,81.872 354.347 C 83.647 356.485,89.352 356.486,91.128 354.348 C 92.922 352.189,93.737 297.245,92.022 294.041 C 90.424 291.054,82.545 291.113,80.934 294.123 M163.331 292.674 C 155.596 293.310,155.793 292.523,155.931 322.148 C 156.082 354.703,156.331 356.014,162.372 355.985 C 168.440 355.955,169.820 352.449,169.940 336.750 C 170.039 323.957,178.250 325.989,187.923 341.201 C 197.774 356.692,199.869 358.281,206.066 354.965 C 210.430 352.629,206.085 340.664,197.540 331.489 L 193.386 327.028 196.451 326.016 C 209.301 321.775,210.980 302.095,199.118 294.764 C 195.566 292.569,177.477 291.513,163.331 292.674 M322.637 293.506 C 317.910 298.233,320.576 304.000,327.488 304.000 C 332.298 304.000,334.000 302.359,334.000 297.721 C 334.000 292.815,326.215 289.928,322.637 293.506 M191.000 306.000 C 198.047 313.047,190.969 318.678,174.750 318.927 L 170.000 319.000 170.000 311.500 L 170.000 304.000 179.500 304.000 C 187.667 304.000,189.281 304.281,191.000 306.000 M121.500 308.497 C 120.950 308.684,118.864 309.109,116.864 309.442 C 103.628 311.647,96.596 332.103,104.460 345.523 C 112.904 359.930,137.187 359.593,144.716 344.963 C 154.108 326.712,138.780 302.636,121.500 308.497 M228.589 309.055 C 220.589 311.061,216.000 315.605,216.000 321.524 C 216.000 326.602,224.520 328.300,226.330 323.582 C 228.179 318.763,238.421 316.421,242.000 320.000 C 245.886 323.886,244.279 325.253,232.631 327.969 C 218.450 331.276,213.997 334.722,214.004 342.385 C 214.015 354.428,227.854 359.969,240.915 353.161 L 245.275 350.889 247.942 353.444 C 252.654 357.958,260.247 355.339,258.556 349.783 C 258.174 348.527,257.511 340.663,257.083 332.307 C 256.211 315.275,255.362 312.885,249.288 310.347 C 244.788 308.467,233.699 307.775,228.589 309.055 M358.003 309.173 C 338.278 313.745,335.508 344.407,353.976 353.750 C 370.486 362.102,387.921 351.061,387.978 332.218 C 388.031 314.698,375.553 305.106,358.003 309.173 M322.035 310.934 C 320.239 314.291,320.687 351.108,322.557 353.777 C 324.348 356.335,328.615 356.733,331.513 354.614 C 333.994 352.800,334.543 313.574,332.128 310.657 C 330.129 308.244,323.376 308.429,322.035 310.934 M129.151 320.081 C 133.590 322.456,136.214 332.665,133.933 338.685 C 129.186 351.214,114.000 346.897,114.000 333.018 C 114.000 322.565,121.626 316.054,129.151 320.081 M292.801 321.486 C 294.683 323.069,296.177 325.645,296.916 328.579 C 299.966 340.692,289.621 350.939,281.727 343.623 C 270.949 333.634,281.700 312.145,292.801 321.486 M370.633 320.772 C 376.896 325.845,376.522 341.510,370.055 344.970 C 362.634 348.942,354.769 342.872,354.769 333.173 C 354.769 322.266,363.780 315.222,370.633 320.772 M243.694 338.244 C 242.711 345.570,233.788 349.833,228.829 345.345 C 223.972 340.950,230.786 335.690,243.382 334.111 C 243.867 334.050,244.007 335.910,243.694 338.244 " stroke="none" fill="#000000" fill-rule="evenodd"></path></g></svg><style>@media (prefers-color-scheme: light) { :root { filter: none; } }
@media (prefers-color-scheme: dark) { :root { filter: invert(100%); } }
.zvok{display:none;} </style></svg>