<svg version="1.1" xmlns="http://www.w3.org/2000/svg" xmlns:xlink="http://www.w3.org/1999/xlink" width="59.86189" height="44.18939" viewBox="0 0 59.86189 44.18939"><g transform="translate(-210.06906,-157.90531)"><g data-paper-data="{&quot;isPaintingLayer&quot;:true}" fill="#ffffff" fill-rule="evenodd" stroke="none" stroke-width="1" stroke-linecap="butt" stroke-linejoin="miter" stroke-miterlimit="10" stroke-dasharray="" stroke-dashoffset="0" style="mix-blend-mode:normal"><path d="M219.71364,158.21566c3.57055,-1.43266 5.28948,2.38303 2.49976,5.54904c-8.45724,9.59799 -8.49173,23.29092 -0.08223,32.62779c1.68755,1.87384 2.00616,2.82324 1.36251,4.06045c-1.11561,2.14393 -3.47877,2.17667 -5.39977,0.07483c-9.8784,-10.8087 -10.73309,-27.03646 -2.02896,-38.52213c1.31574,-1.73607 3.06916,-3.5575 3.64869,-3.78997M258.06429,158.22969c2.33782,-0.93205 5.18951,1.76199 8.63749,8.16045c5.86063,10.87593 3.52145,26.42692 -5.21367,34.65967l-1.10879,1.04488l-1.21461,-0.07717c-2.97757,-0.18961 -3.74359,-2.5701 -1.62753,-5.05719c4.31865,-5.0761 6.07148,-8.99916 6.60639,-14.78594c0.61929,-6.69953 -1.62851,-13.32736 -6.23205,-18.37461c-2.16965,-2.37894 -2.1069,-4.66902 0.15278,-5.57008M227.56738,165.88076c1.82064,-0.7935 3.81375,0.57174 3.82953,2.62369c0.00799,1.03377 -0.1633,1.34614 -1.99174,3.63427c-3.78608,4.73742 -3.5803,11.52347 0.50529,16.66699c1.78986,2.25325 1.94594,3.49338 0.60818,4.83095c-3.69234,3.69254 -9.73264,-5.45355 -9.42787,-14.27539c0.19389,-5.61237 3.31118,-12.10106 6.47661,-13.48052M250.21251,166.01795c1.86995,-0.987 3.45363,-0.06703 5.58918,3.2461c4.8329,7.49869 4.43615,16.22094 -1.05209,23.12723c-1.6213,2.04045 -3.08611,2.58901 -4.69338,1.7579c-1.89664,-0.98077 -1.83916,-2.93061 0.15726,-5.33897c4.07078,-4.91065 4.24772,-12.07612 0.4137,-16.7465c-1.87794,-2.28755 -1.91671,-2.35672 -1.91593,-3.4129c0.00078,-1.23487 0.49535,-2.10203 1.50126,-2.63285M238.38251,171.91405c4.14112,-0.91821 8.5383,1.84851 9.63579,6.0629c1.82824,7.02107 -5.30682,12.72619 -11.81032,9.44327c-6.78625,-3.42577 -5.32553,-13.84278 2.17452,-15.50617M241.50038,178.04827c-2.46098,-1.77485 -5.40406,2.00557 -3.09157,3.9712c1.1542,0.98116 2.61297,0.87729 3.56451,-0.25352c0.9681,-1.1505 0.75414,-2.83259 -0.47294,-3.71768"/></g></g></svg>