<svg version="1.1" xmlns="http://www.w3.org/2000/svg" xmlns:xlink="http://www.w3.org/1999/xlink" width="144.89497" height="230.98983" viewBox="0,0,144.89497,230.98983"><g transform="translate(-167.49996,-83.51022)"><g data-paper-data="{&quot;isPaintingLayer&quot;:true}" fill="#0095aa" fill-rule="nonzero" stroke="none" stroke-width="1" stroke-linecap="butt" stroke-linejoin="miter" stroke-miterlimit="10" stroke-dasharray="" stroke-dashoffset="0" style="mix-blend-mode: normal"><path d="M234.6,83.6c8.2,-0.1 8.7,0 9.3,2.1c1,3.9 0.7,127.2 -0.4,128.8c-0.8,1.3 -4.3,1.5 -21.4,1.5c-11.2,0 -20.8,-0.3 -21.2,-0.8c-0.4,-0.4 -1,-20.3 -1.2,-44.2l-0.5,-43.4l-11.7,0.6l-11.7,0.6l-2.2,-9.4c-2.8,-12.2 -2.8,-14.7 0.2,-15.3c19.5,-3.6 28.1,-7.1 35.8,-14.3c4.5,-4.2 5.8,-4.9 10.8,-5.4c3.1,-0.3 9.5,-0.7 14.2,-0.8z"/><path d="M275.9,85c15.5,3.3 27.9,12.2 33.2,23.8c2.4,5.3 2.9,7.8 3.2,16.9c0.5,12 -0.9,17.9 -6,26.1c-7.4,11.6 -22.4,18.9 -42.1,20.4c-7.1,0.5 -9.1,0.3 -9.8,-0.8c-1.4,-2.2 -1.1,-22.5 0.4,-23.6c0.6,-0.6 3.4,-1.6 6,-2.3c6.9,-1.9 8.1,-4.1 8.5,-16.5c0.5,-12.4 -0.9,-16.4 -6.6,-18.8c-2,-0.9 -4.8,-1.8 -6.2,-1.9c-2.5,-0.3 -2.5,-0.4 -2.8,-11.2c-0.1,-6.1 0,-11.6 0.2,-12.3c0.7,-1.8 13.1,-1.7 22,0.2z"/><path d="M195.8,267.9c7.5,3.1 11.2,11.9 8.1,19.6c-2.3,5.6 -6.3,8.7 -13.3,10.1l-5.9,1.1l-0.4,6.9c-0.2,3.7 -0.6,7.1 -1,7.4c-0.4,0.4 -3.3,0.9 -6.5,1.2c-9.4,0.9 -9.3,1 -9.3,-23c0,-11.1 0.4,-20.7 0.8,-21.4c0.4,-0.7 1.9,-1.6 3.2,-2.2c3.8,-1.5 20.5,-1.3 24.3,0.3zM186.4,276.5c-1.7,0 -1.9,0.8 -1.9,6c0,6.4 0.9,7.4 3.4,3.8c1.7,-2.3 2,-5.5 1,-8.2c-0.3,-0.9 -1.5,-1.6 -2.5,-1.6z"/><path d="M225.3,266.5c8.4,0 11,0.4 14.3,2c8.2,4.2 10.1,12.3 4.8,20.3l-3,4.6l3.5,8.8c2,4.8 3.6,9.2 3.6,9.9c0,0.6 -2.7,1.4 -6.7,1.7c-8.2,0.8 -10.1,-0.2 -12.2,-6.6c-0.9,-2.6 -2,-4.7 -2.6,-4.7c-0.5,0 -1.1,2.4 -1.3,5.4c-0.3,6 -1.1,6.6 -8.8,6.6c-7.5,0 -7.5,0.2 -7.2,-24l0.3,-21.4l2.5,-1.3c1.5,-0.8 6.5,-1.3 12.8,-1.3zM228.5,276.5c-1.5,-0.8 -1.9,-0.5 -2.4,1.5c-0.9,3.5 0.4,10.5 1.9,10.5c1.8,0 3.4,-5 2.8,-8.4c-0.3,-1.4 -1.3,-3.1 -2.3,-3.6z"/><path d="M265.2,267.7c0.6,0.7 1.8,4.9 2.7,9.3c2.7,12.7 2.8,12.7 4.7,2.8c2.5,-13.2 2.6,-13.3 10.9,-13.3c6,0 7,0.3 7,1.7c0.1,2.7 -12.1,42.1 -13.5,44c-1,1.3 -2.8,1.7 -7.3,1.8c-3.3,0 -6.3,-0.3 -6.7,-0.7c-1.2,-1.2 -14.5,-44.9 -14,-45.9c0.9,-1.4 15.1,-1.1 16.2,0.3z"/><path d="M302.5,266.7l7.5,0.3l0.3,22.4c0.1,12.4 -0.1,22.8 -0.6,23.3c-1.2,1.2 -10.6,2.2 -13.6,1.4l-2.6,-0.6v-22.9c0,-12.5 0.3,-23.1 0.7,-23.5c0.4,-0.4 4.1,-0.5 8.3,-0.4z"/></g></g></svg>