<svg version="1.1" xmlns="http://www.w3.org/2000/svg" xmlns:xlink="http://www.w3.org/1999/xlink" width="285.04803" height="358.85886" viewBox="0,0,285.04803,358.85886"><g transform="translate(-97.47599,6.93694)"><g data-paper-data="{&quot;isPaintingLayer&quot;:true}" stroke="none" stroke-linecap="butt" stroke-linejoin="miter" stroke-miterlimit="10" stroke-dasharray="" stroke-dashoffset="0" style="mix-blend-mode: normal"><path d="M225.90465,37.38745c10.171,-1.207 29.331,-0.294 40.6,1.934c54.107,10.701 98.868,52.759 111.179,104.463c0.471,1.98 1.205,5.04 1.631,6.8c2.41,9.956 3.746,26.642 3.005,37.519c-0.361,5.287 -0.141,5.04 -4.215,4.735l-3.4,-0.254l-0.033,-11.2c-0.147,-49.886 -24.003,-92.475 -65.967,-117.772c-16.046,-9.672 -31.193,-14.896 -53,-18.279c-9.582,-1.486 -27.164,-0.93 -40.4,1.278c-2.97,0.495 -5.522,0.782 -5.672,0.637c-0.287,-0.278 -1.528,-5.343 -1.528,-6.237c0,-0.982 6.236,-2.252 17.8,-3.624M227.30465,51.79145c26.349,-2.849 58.943,4.785 79.8,18.69c12.235,8.158 11.441,7.128 8.371,10.85l-2.23,2.703l-1.27,-0.957c-22.994,-17.322 -51.507,-25.802 -80.385,-23.907c-6.105,0.4 -9.255,0.814 -17.335,2.276c-1.643,0.297 -1.652,0.279 -2.803,-5.734c-0.327,-1.71 2.987,-2.53 15.852,-3.921M165.30465,57.50345c4.724,-2.879 4.417,-2.911 6.398,0.677c1.864,3.377 1.862,3.393 -0.719,4.871c-34.736,19.892 -59.867,57.176 -65.709,97.486l-0.515,3.554l-3.375,-0.26c-1.857,-0.142 -3.549,-0.366 -3.76,-0.496c-0.71,-0.439 1.248,-12.189 3.224,-19.351c0.213,-0.77 0.679,-2.48 1.037,-3.8c1.803,-6.657 6.123,-17.517 10.02,-25.19c12.106,-23.834 30.279,-43.399 53.399,-57.491M232.30465,66.02445c2.64,-0.177 5.25,-0.347 5.8,-0.378c3.705,-0.204 18.446,1.196 22.2,2.108c0.44,0.107 2.6,0.577 4.8,1.044c29.099,6.181 60.23,29.293 73.165,54.318c0.437,0.845 1.226,1.545 2.162,1.917c4.326,1.722 4.87,2.613 4.883,7.998c0.01,4.338 0.165,5.153 1.929,10.153c6.771,19.192 8.11,42.851 3.482,61.5c-0.342,1.375 -0.894,3.603 -1.228,4.951c-6.552,26.445 -27.714,54.531 -51.224,67.983c-6.485,3.71 -13.275,7.166 -14.082,7.166c-0.185,0 -1.046,0.342 -1.912,0.76c-1.901,0.917 -10.677,3.869 -13.875,4.666c-6.944,1.732 -6.837,1.712 -15.7,2.992c-10.296,1.487 -27.585,0.749 -37.2,-1.589c-21.76,-5.29 -36.338,-12.668 -51.718,-26.175c-17.079,-14.998 -31.273,-38.515 -35.28,-58.454c-0.265,-1.32 -0.739,-3.39 -1.052,-4.6c-2.971,-11.484 -3.045,-31.333 -0.164,-44.4c0.219,-0.99 0.666,-3.035 0.994,-4.544c8.711,-40.06 44.419,-75.764 84.488,-84.479c1.503,-0.326 3.542,-0.774 4.532,-0.995c3.257,-0.725 10.118,-1.614 15,-1.942M273.66665,103.27345c-12.828,-3.904 -22.351,15.458 -10.903,22.167c6.953,4.075 16.941,-3.269 16.941,-12.456c0,-4.255 -2.775,-8.719 -6.038,-9.711M131.99265,108.88445c3.444,-5.216 3.01,-5.037 6.308,-2.6c2.993,2.212 3.11,2.701 1.25,5.246c-8.208,11.234 -15.608,28.623 -18.835,44.254c-2.382,11.539 -2.895,32.067 -1.06,42.4c1.656,9.324 1.937,8.306 -2.597,9.386l-3.011,0.717l-0.323,-0.851c-0.826,-2.177 -1.66,-7.608 -2.621,-17.052c-2.759,-27.142 5.009,-57.452 20.889,-81.5M254.79765,106.08445c-0.215,-0.275 -0.504,-0.476 -0.642,-0.448c-3.743,0.779 -3.636,0.681 -7.073,6.478c-1.783,3.007 -3.337,5.562 -3.453,5.679c-0.116,0.116 -1.87,-1.684 -3.897,-3.999c-3.903,-4.457 -4.111,-4.571 -6.928,-3.789l-1.5,0.417l0.008,5.281c0.009,5.45 0.647,17.069 0.955,17.377c0.095,0.096 1.2,-0.039 2.455,-0.3l2.282,-0.474l-0.176,-6.761c-0.096,-3.718 -0.074,-6.761 0.05,-6.761c0.124,0 1.272,1.17 2.551,2.6c3.503,3.918 5.381,3.489 8.498,-1.938c2.539,-4.42 2.429,-4.542 2.669,2.966c0.116,3.663 0.385,6.609 0.624,6.848c0.434,0.434 4.304,-0.261 4.659,-0.836c0.336,-0.543 -0.696,-21.847 -1.082,-22.34M266.70465,108.72845c1.632,-1.008 4.21,-0.966 5.554,0.091c4.637,3.648 1.479,12.365 -4.48,12.365c-5.856,0 -6.634,-9.021 -1.074,-12.456M226.13965,112.80245c-6.743,-3.44 -16.073,4.124 -13.021,10.556c0.891,1.876 3.016,2.885 6.786,3.221c3.362,0.299 4.2,0.657 4.2,1.792c0,2.027 -4.571,3.214 -6.361,1.651c-1.219,-1.063 -1.166,-1.07 -3.16,0.397c-2.436,1.791 -2.158,3.092 1.006,4.707c6.881,3.51 17.079,-4.852 13.325,-10.926c-1.075,-1.739 -2.397,-2.272 -6.521,-2.631c-4.878,-0.425 -5.984,-1.624 -3.458,-3.749c1.407,-1.184 3.042,-1.329 4.792,-0.424c1.158,0.599 1.217,0.58 2.846,-0.94c1.956,-1.825 1.879,-2.474 -0.434,-3.654M201.04465,116.68745c-0.348,-0.563 -6.673,0.578 -7.637,1.378c-0.857,0.711 -0.625,3.341 0.352,3.989c1.358,0.902 2.03,12.97 0.778,13.984c-0.867,0.702 -1.228,4.055 -0.486,4.513c0.316,0.196 5.684,-0.682 7.353,-1.203c1.118,-0.348 0.972,-3.529 -0.2,-4.348c-1.451,-1.014 -1.757,-12.701 -0.372,-14.193c0.875,-0.944 0.975,-2.885 0.212,-4.12M190.84065,129.53445l-0.536,-10.95l-1.2,-0.094c-2.928,-0.229 -3.678,0.577 -8.4,9.026c-1.999,3.576 -1.747,3.626 -5.764,-1.14c-1.851,-2.196 -3.561,-4.01 -3.8,-4.033c-4.808,-0.447 -4.767,-0.549 -4.461,10.98c0.347,13.082 0.201,12.423 2.677,12.129c2.849,-0.337 2.748,-0.069 2.748,-7.292c0,-7.394 -0.058,-7.289 2.4,-4.382c3.414,4.037 5.521,3.68 8.516,-1.442c2.671,-4.57 2.684,-4.56 2.684,2.022c0,7.245 0.188,7.762 2.699,7.406c3.158,-0.448 3.041,0.139 2.437,-12.23M336.67165,132.62745c-0.736,-0.283 -0.562,-0.302 -3.297,0.365c-2.857,0.697 -2.645,-0.04 -2.87,9.974l-0.2,8.917l-5.179,-7.735c-2.849,-4.255 -5.459,-7.795 -5.8,-7.867c-0.722,-0.153 -4.875,0.642 -5.558,1.064c-0.839,0.519 -0.641,30.596 0.204,30.92c0.959,0.368 5.053,-0.568 5.574,-1.274c0.281,-0.382 0.47,-3.662 0.522,-9.092c0.045,-4.671 0.132,-8.544 0.193,-8.605c0.061,-0.061 2.436,3.416 5.278,7.727l5.166,7.838l2.337,-0.262c1.286,-0.143 2.771,-0.426 3.3,-0.627l0.963,-0.366v-15.367c0,-13.644 -0.071,-15.395 -0.633,-15.61M300.89865,141.01945c-12.54,-3.724 -24.265,10.906 -19.197,23.955c4.777,12.302 22.271,10.142 26.869,-3.318c3,-8.78 -0.63,-18.546 -7.672,-20.637M276.93565,145.88445c-0.039,-0.887 -1.461,-0.864 -5.796,0.092c-4.006,0.884 -3.667,0.286 -6.445,11.365c-1.298,5.174 -2.409,9.357 -2.47,9.297c-0.06,-0.061 -0.55,-1.808 -1.088,-3.882c-0.537,-2.075 -1.509,-5.813 -2.159,-8.307c-0.65,-2.494 -1.376,-4.728 -1.613,-4.965c-0.545,-0.545 -7.99,0.751 -8.831,1.537c-0.473,0.442 -0.831,24.118 -0.461,30.518c0.038,0.659 3.698,0.362 5.466,-0.443l1.065,-0.485l-0.173,-9.117c-0.095,-5.015 -0.051,-8.981 0.098,-8.814c0.15,0.167 1.127,3.724 2.171,7.904c2.49,9.969 2.251,9.666 6.794,8.612c2.403,-0.557 2.148,0.131 6.083,-16.412c1.053,-4.426 1.215,-3.54 1.014,5.516c-0.221,9.951 -0.398,9.455 3.137,8.789c3.474,-0.655 3.254,0.427 3.246,-15.957c-0.004,-8.002 -0.021,-14.863 -0.038,-15.248M181.63465,146.90345c-0.201,-1.058 -2.161,-1.183 -2.702,-0.172c-0.582,1.089 -0.129,2.053 0.966,2.053c1.096,0 1.922,-0.896 1.736,-1.881M177.06165,147.41745c-0.725,-1.891 -2.957,-0.26 -2.957,2.162v1.955l-1.375,-0.223c-3.866,-0.628 -7.057,4.95 -5.273,9.219c1.101,2.636 4.139,3.867 6.024,2.441c0.428,-0.323 1.247,-0.587 1.82,-0.587c1.878,0 2.004,-0.48 2.004,-7.647c0,-3.678 -0.109,-6.972 -0.243,-7.32M293.10465,147.76245c5.421,-2.526 9.177,0.702 9.101,7.822c-0.081,7.472 -5.131,12.786 -10.157,10.686c-6.091,-2.545 -5.351,-15.524 1.056,-18.508M190.79465,148.37345c-0.71,-0.432 -1.74,-0.78 -2.29,-0.772c-6.438,0.091 -8.46,10.29 -2.455,12.382c5.842,2.035 10.087,-8.352 4.745,-11.61M181.46165,150.21745c-0.299,-0.781 -1.895,-0.83 -2.52,-0.078c-1.031,1.242 -0.381,11.225 0.741,11.383c1.669,0.236 2.022,-0.809 2.022,-5.982c0,-2.58 -0.109,-4.975 -0.243,-5.323M224.50465,150.32045c0,-0.378 -4.534,-0.469 -4.904,-0.098c-0.131,0.13 -2.096,0.572 -4.367,0.982c-2.271,0.41 -6.191,1.116 -8.711,1.569c-7.022,1.263 -7.618,1.469 -7.618,2.626c0,1.462 0.281,1.422 15.8,-2.248c8.281,-1.959 9.8,-2.398 9.8,-2.831M186.52665,151.16245c1.715,-1.715 3.578,-0.449 3.578,2.43c0,2.267 -1.145,3.992 -2.649,3.992c-2.089,0 -2.753,-4.598 -0.929,-6.422M361.00465,152.48245c4.383,-1.055 3.999,-1.702 5.873,9.902c1.664,10.296 1.59,24.813 -0.184,36.2c-1.119,7.189 -1.452,8.879 -2.635,13.4c-7.506,28.664 -23.342,52.393 -47.154,70.66c-3.101,2.379 -11.042,7.736 -11.487,7.749c-0.172,0.005 -0.763,0.361 -1.313,0.791c-1.501,1.174 -1.837,1.014 -3.377,-1.615c-2.217,-3.783 -2.215,-4.081 0.048,-5.397c14.751,-8.581 30.563,-23.519 39.363,-37.188c2.062,-3.203 3.21,-5.054 4.038,-6.512c8.24,-14.5 12.549,-27.242 15.384,-45.488c1.476,-9.504 0.871,-27.097 -1.291,-37.526c-0.889,-4.29 -1.007,-4.076 2.735,-4.976M164.93565,154.35345c-1.772,-1.772 -4.49,-1.68 -6.718,0.227c-1.278,1.094 -1.68,1.267 -1.859,0.8c-0.283,-0.737 -2.203,-0.761 -3.154,-0.039c-0.386,0.293 -1.149,0.446 -1.696,0.342c-1.404,-0.269 -1.604,0.551 -1.604,6.578c0,5.045 0.014,5.125 0.922,5.254c1.674,0.237 2.077,-0.553 2.084,-4.08c0.008,-4.627 1.866,-7.236 3.787,-5.316c0.365,0.366 0.847,0.665 1.071,0.665c0.224,0 -0.059,0.554 -0.628,1.231c-2.924,3.474 1.249,7.621 5.228,5.196c0.694,-0.424 1.864,-0.829 2.6,-0.899c0.973,-0.093 1.327,-0.318 1.303,-0.828c-0.019,-0.385 -0.064,-2.334 -0.1,-4.331c-0.063,-3.438 -0.129,-3.692 -1.236,-4.8M170.72765,154.87345c0.802,-1.146 2.403,-1.162 3.008,-0.03c0.982,1.833 -0.312,5.941 -1.87,5.941c-1.561,0 -2.363,-4.163 -1.138,-5.911M236.12365,154.75545c-5.489,-2.086 -13.584,0.722 -17.127,5.942c-7.656,11.28 -1.687,26.895 9.924,25.959c16.432,-1.325 22.061,-26.256 7.203,-31.901M160.46065,156.24245c1.985,-0.552 3.288,0.641 1.459,1.336c-2.663,1.013 -3.082,0.992 -2.572,-0.129c0.258,-0.565 0.758,-1.108 1.113,-1.207M161.33165,160.57045c1.096,-0.373 1.398,-0.363 1.498,0.052c0.364,1.509 -2.199,3.248 -3.245,2.202c-0.681,-0.681 0.106,-1.695 1.747,-2.254M228.82965,160.92745c5.014,-1.561 8.267,1.539 8.249,7.857c-0.025,8.36 -5.403,13.697 -10.774,10.691c-5.732,-3.207 -3.917,-16.543 2.525,-18.548M198.65165,161.78845c-0.332,-0.332 -0.726,-0.581 -0.876,-0.552c-6.588,1.263 -6.031,-0.296 -6.061,16.964c-0.027,15.378 0.083,16.294 1.88,15.605c0.607,-0.233 11.323,-2.467 14.532,-3.029c5.202,-0.911 5.978,-1.468 5.978,-4.289c0,-3.221 -0.219,-3.27 -7.777,-1.744c-3.66,0.739 -6.745,1.252 -6.857,1.14c-0.112,-0.112 -0.206,-5.443 -0.209,-11.847c-0.005,-9.848 -0.099,-11.737 -0.61,-12.248M232.43765,165.48445c-0.348,-0.674 -1.895,-0.893 -3.044,-0.432c-2.969,1.194 -3.19,10.932 -0.248,10.932c3.111,0 5.228,-6.751 3.292,-10.5M178.41565,166.08445c-0.509,-0.622 -1.457,-0.592 -4.51,0.147c-2.828,0.683 -3.096,0.927 -3.907,3.553c-0.34,1.1 -1.912,6.05 -3.493,11c-2.419,7.572 -5.276,16.566 -5.792,18.236c-0.38,1.23 0.465,1.5 3.053,0.975c3.647,-0.74 4.025,-1.077 5.059,-4.522c1.104,-3.676 1.039,-3.623 5.479,-4.487c6.692,-1.302 5.939,-1.486 7.213,1.76c1.249,3.184 1.405,3.255 5.335,2.412c2.327,-0.499 2.671,-1.085 1.815,-3.096c-0.65,-1.527 -3.836,-9.856 -4.85,-12.678c-0.316,-0.88 -0.811,-2.14 -1.101,-2.8c-0.289,-0.66 -1.284,-3.18 -2.209,-5.6c-0.926,-2.42 -1.867,-4.625 -2.092,-4.9M153.35865,172.69945c-5.708,-2.966 -14.773,-0.188 -17.08,5.234c-2.554,6.002 1.089,10.846 9.458,12.579c5.046,1.045 6.132,1.728 5.897,3.708c-0.42,3.533 -7.855,4.401 -9.596,1.121c-1.063,-2.005 -1.64,-2.125 -4.933,-1.025c-2.573,0.859 -2.833,2.123 -1.022,4.973c5.695,8.962 23.059,4.097 22.916,-6.419c-0.069,-5.018 -2.488,-7.193 -9.894,-8.893c-5.77,-1.325 -7.001,-2.099 -6.392,-4.019c0.886,-2.792 6.994,-3.077 8.383,-0.391c0.737,1.424 1.704,1.522 4.809,0.485c3.354,-1.12 2.016,-4.983 -2.546,-7.353M174.75465,175.58445c0.128,-0.341 0.914,1.268 1.823,3.732c0.878,2.382 1.521,4.407 1.429,4.499c-0.153,0.154 -2.071,0.589 -5.376,1.222l-1.275,0.243l1.586,-4.548c0.873,-2.501 1.688,-4.818 1.813,-5.148M232.90465,191.15045c0,-0.201 -0.135,-0.345 -0.3,-0.319c-0.165,0.027 -2.55,0.451 -5.3,0.943c-2.75,0.492 -6.308,1.118 -7.907,1.39c-3.17,0.539 -3.57,0.889 -8.693,7.61c-3.366,4.416 -3.556,4.36 -3.318,-0.99c0.185,-4.157 0.177,-4.2 -0.723,-4.2c-1.757,0 -44.9,8.619 -47.959,9.581c-2.015,0.634 5.323,-0.211 11.6,-1.336c9.536,-1.709 13.434,-2.379 21.2,-3.647c4.62,-0.755 9.448,-1.569 10.728,-1.81c3.248,-0.612 3.335,-0.488 3.43,4.909c0.103,5.914 -0.068,5.932 5.449,-0.588c2.636,-3.116 5.153,-6.082 5.593,-6.592c0.837,-0.969 1.412,-1.147 10.7,-3.307c3.025,-0.703 5.5,-1.443 5.5,-1.644M311.22265,204.00045c-0.117,-1.808 -0.925,-2.394 -2.518,-1.828c-0.22,0.078 -2.65,0.543 -5.4,1.034c-6.67,1.19 -7.352,1.678 -6.548,4.678c0.284,1.061 1.41,1.134 5.148,0.336c3.214,-0.686 3.242,-0.824 -1.443,7.266c-3.995,6.898 -4.891,9.298 -3.856,10.333c0.302,0.302 11.419,-1.6 14.099,-2.413c1.541,-0.467 1.605,-0.554 1.722,-2.357c0.156,-2.385 -0.195,-2.525 -4.251,-1.703c-4.471,0.905 -5.638,0.807 -4.511,-0.382c2.006,-2.116 7.666,-13.321 7.558,-14.964M156.30465,205.98445c0.32,-0.518 -2.198,-0.518 -3,0c-0.33,0.213 -1.131,0.391 -1.78,0.394c-0.903,0.005 -1.07,0.116 -0.711,0.475c0.359,0.359 0.711,0.359 1.499,0c0.566,-0.258 1.641,-0.469 2.387,-0.469c0.747,0 1.469,-0.18 1.605,-0.4M285.07165,207.02745c-0.348,-0.134 -0.663,-0.223 -0.7,-0.199c-0.037,0.024 -0.807,0.19 -1.712,0.37c-4.789,0.948 -4.955,1.048 -4.955,2.974c0,1.365 0.167,1.811 0.747,1.995c1.286,0.408 1.686,12.487 0.445,13.423c-1.1,0.83 -0.828,3.994 0.343,3.994c1.356,0 6.129,-1.155 6.687,-1.619c1.055,-0.875 0.451,-3.981 -0.774,-3.981c-1.007,0 -1.239,-12.065 -0.245,-12.749c1.024,-0.705 1.146,-3.831 0.164,-4.208M272.74265,210.40245c-4.115,-1.992 -9.397,0.035 -11.597,4.449c-2.354,4.725 -0.468,7.727 5.26,8.369c4.751,0.533 5.602,1.261 3.699,3.164c-1.01,1.01 -4.689,1.155 -5.055,0.2c-0.336,-0.876 -1.358,-0.737 -3.052,0.414c-4.459,3.03 3.265,6.833 8.598,4.233c5.12,-2.496 7.312,-7.906 4.388,-10.829c-1.124,-1.125 -1.777,-1.306 -6.579,-1.826c-3.472,-0.377 -4.267,-1.889 -1.935,-3.679c0.768,-0.59 3.889,-0.673 4.235,-0.113c0.432,0.698 1.158,0.435 2.697,-0.978c1.79,-1.644 1.667,-2.278 -0.659,-3.404M103.50465,211.07245c3.655,-0.883 3.718,-0.87 4.177,0.812c5.112,18.731 10.16,30.091 19.63,44.174c7.548,11.226 19.235,23.543 30.393,32.034c48.126,36.62 117.642,36.108 164.8,-1.215c1.21,-0.958 2.92,-2.312 3.8,-3.009c4.435,-3.513 13.984,-13.296 18.43,-18.884c1.926,-2.42 3.562,-4.475 3.636,-4.567c0.126,-0.157 3.174,1.867 5.312,3.528l0.978,0.76l-1.752,2.339c-8.021,10.713 -20.252,22.342 -32.004,30.428c-15.361,10.57 -32.434,18.145 -48.6,21.565c-1.54,0.325 -3.52,0.765 -4.4,0.977c-7.898,1.902 -26.461,3.577 -33.57,3.028c-12.758,-0.985 -17.853,-1.624 -24.23,-3.041c-0.99,-0.22 -3.035,-0.669 -4.544,-0.997c-15.339,-3.335 -35.797,-12.683 -49.399,-22.571c-8.454,-6.145 -21.893,-18.477 -26.285,-24.119c-0.865,-1.111 -1.759,-2.224 -1.988,-2.475c-5.575,-6.104 -14.897,-21.547 -19.59,-32.455c-1.041,-2.42 -2.125,-4.94 -2.409,-5.6c-0.887,-2.06 -3.319,-9.487 -3.998,-12.204c-0.356,-1.428 -0.806,-3.226 -0.999,-3.996c-0.874,-3.476 -0.884,-3.589 -0.334,-3.761c0.3,-0.094 1.626,-0.432 2.946,-0.751M249.73765,215.53645c-0.297,-2.221 -0.491,-2.24 -6.233,-0.607c-2.137,0.608 -2.614,3.844 -0.643,4.36c1.152,0.301 1.469,11.647 0.362,12.921c-0.781,0.897 -0.984,3.563 -0.303,3.984c0.487,0.301 5.862,-0.535 6.884,-1.071c1.008,-0.529 0.969,-3.367 -0.054,-3.914c-1.21,-0.648 -1.697,-12.146 -0.559,-13.205c0.629,-0.586 0.734,-1.063 0.546,-2.468M240.28265,217.34645c-0.483,-1.916 -0.041,-1.898 -7.937,-0.325c-7.752,1.545 -7.191,1.277 -7.108,3.398c0.091,2.325 0.235,2.431 2.901,2.129l2.366,-0.267l0.05,5.351c0.027,2.944 0.162,6.612 0.3,8.152l0.25,2.8l2,-0.103c2.802,-0.145 2.857,-0.297 2.495,-6.942c-0.172,-3.165 -0.264,-6.826 -0.204,-8.135l0.109,-2.38l2.161,-0.42c2.598,-0.505 3.141,-1.181 2.617,-3.258M215.22065,220.88445c-0.228,-0.275 -0.617,-0.482 -0.865,-0.459c-0.946,0.086 -3.102,0.677 -3.341,0.916c-0.295,0.294 -0.192,8.11 0.138,10.496c0.258,1.867 -0.309,2.566 -1.13,1.394c-0.509,-0.727 -4.444,-5.209 -7.548,-8.598c-1.418,-1.547 -1.448,-1.558 -3.4,-1.202l-1.97,0.358l-0.132,2.998c-0.185,4.196 0.349,17.377 0.729,17.991c0.235,0.381 0.801,0.42 2.258,0.153l1.945,-0.356l0.065,-6.196c0.063,-5.992 0.35,-7.189 1.34,-5.587c0.117,0.189 2.008,2.422 4.204,4.963c4.283,4.957 4.85,5.271 7.622,4.217l1.082,-0.411l-0.292,-10.089c-0.171,-5.907 -0.463,-10.295 -0.705,-10.588M194.50465,226.63945c0,-2.202 -0.248,-2.295 -4,-1.495c-4.243,0.905 -5.576,2.893 -3.1,4.624c1.266,0.885 1.772,11.944 0.6,13.116c-0.465,0.465 -0.7,1.322 -0.7,2.552v1.851l1.9,-0.255c4.958,-0.665 5.888,-1.101 6.029,-2.825c0.099,-1.217 -0.059,-1.718 -0.693,-2.2c-1.159,-0.88 -1.787,-12.926 -0.695,-13.345c0.475,-0.182 0.659,-0.748 0.659,-2.023M297.10465,244.96645v-7.582l-1,-0.048c-3.644,-0.176 -3.595,-0.305 -3.143,8.258c0.412,7.794 0.391,7.734 2.572,7.281l1.571,-0.327v-7.582M289.62965,240.72245c-0.147,-2.042 -0.604,-2.183 -4.525,-1.393c-3.543,0.713 -4.881,3.121 -2.616,4.706c1.157,0.81 1.708,11.942 0.649,13.112c-1.017,1.125 -0.742,4.259 0.367,4.179c1.485,-0.107 5.591,-1.016 6.298,-1.394c1.029,-0.551 0.987,-3.548 -0.053,-3.82c-0.655,-0.172 -0.786,-0.731 -0.998,-4.263c-0.474,-7.907 -0.46,-8.32 0.299,-8.875c0.525,-0.384 0.672,-0.954 0.579,-2.252M279.44365,243.88445l-0.242,-3.1l-1.449,0.012c-2.198,0.019 -2.923,0.533 -4.448,3.157c-3.377,5.808 -4.526,7.631 -4.81,7.631c-0.305,0 -4.443,-4.449 -6.301,-6.776c-0.758,-0.949 -0.84,-0.962 -3.034,-0.471l-2.255,0.504l0.006,3.472c0.007,4.212 0.74,17.259 0.992,17.668c0.1,0.161 1.131,0.077 2.292,-0.187l2.11,-0.48l-0.067,-6.265c-0.037,-3.446 0.006,-6.265 0.096,-6.265c0.089,0 1.215,1.106 2.502,2.458l2.339,2.459l1.765,-0.559c1.59,-0.503 1.943,-0.864 3.565,-3.649c2.334,-4.008 2.269,-4.078 2.608,2.791c0.312,6.293 0.423,6.586 2.373,6.217c2.856,-0.539 2.755,-0.199 2.463,-8.26c-0.144,-3.991 -0.372,-8.652 -0.505,-10.357M131.21065,242.71845c3.553,-1.934 3.357,-1.99 5.546,1.566c5.246,8.519 13.049,17.732 22.294,26.322c9.417,8.75 25.97,18.431 39.854,23.31c10.12,3.557 15.953,4.871 28.774,6.484c8.369,1.053 25.279,0.34 33.634,-1.418c3.961,-0.833 4.733,-0.786 4.984,0.302c1.663,7.219 2.61,6.347 -8.792,8.09c-15.58,2.382 -37.654,1.079 -51.2,-3.021c-15.314,-4.635 -22.862,-7.881 -33.8,-14.536c-16.775,-10.206 -31.768,-24.872 -41.86,-40.947c-2.705,-4.308 -2.699,-4.375 0.566,-6.152M246.75565,247.09045c-0.248,-0.162 -0.541,-0.277 -0.651,-0.256c-4.561,0.86 -4.311,0.629 -5.994,5.55c-6.795,19.877 -6.525,18.554 -3.678,17.991c2.381,-0.47 2.689,-0.72 3.43,-2.783c0.389,-1.08 0.919,-2.14 1.179,-2.356c0.379,-0.314 6.796,-1.646 7.958,-1.651c0.162,0 0.573,0.674 0.913,1.499c0.878,2.13 1.486,2.483 3.506,2.033c2.805,-0.624 2.827,-0.849 0.539,-5.554c-1.129,-2.322 -3.11,-6.462 -4.402,-9.2c-1.293,-2.738 -2.553,-5.111 -2.8,-5.273M231.76265,253.78445l-0.258,-3.6l-1.2,-0.069c-0.66,-0.038 -1.65,0.062 -2.2,0.223l-1,0.293l0.113,6.277c0.071,3.995 -0.033,6.276 -0.288,6.276c-0.22,0 -2.429,-2.36 -4.909,-5.244l-4.508,-5.245l-1.914,0.227c-1.052,0.125 -2.114,0.351 -2.359,0.502c-0.452,0.28 -0.181,12.756 0.403,18.56l0.262,2.6l1.8,-0.137c2.751,-0.208 2.726,-0.138 2.493,-7.071c-0.114,-3.406 -0.117,-6.192 -0.005,-6.192c0.111,0 2.335,2.449 4.942,5.443l4.739,5.443l1.749,-0.24c0.962,-0.132 1.913,-0.342 2.115,-0.467c0.409,-0.252 0.425,-11.984 0.025,-17.579M244.10765,255.38445l0.467,-1.2l1.146,2.2c1.46,2.802 1.495,2.627 -0.637,3.163c-2.755,0.694 -2.798,0.513 -0.976,-4.163M297.22465,254.86445c-1.208,-1.208 -4.32,0.294 -4.32,2.085c0,0.909 1.265,2.235 2.134,2.235c2.161,0 3.621,-2.885 2.186,-4.32" fill="#fb934c" fill-rule="evenodd" stroke-width="1"/><path d="M333.50465,133.72145c3.486,-0.817 3.187,-2.119 3.305,14.387l0.105,14.713l-1.392,0.581c-0.766,0.32 -2.092,0.582 -2.948,0.582h-1.556l-5.461,-8.2c-3.003,-4.51 -5.639,-8.2 -5.857,-8.2c-0.25,0 -0.396,3.443 -0.396,9.351c0,10.615 0.126,10.214 -3.251,10.357l-2.149,0.092l-0.105,-14.447c-0.082,-11.265 0.006,-14.53 0.4,-14.825c0.745,-0.557 4.611,-1.434 5.07,-1.149c0.381,0.235 7.956,11.342 10.044,14.726c1.889,3.061 1.968,2.767 2.084,-7.771l0.107,-9.729l2,-0.468M292.43965,141.92545c9.003,-2.983 16.482,2.963 16.469,13.093c-0.013,10.349 -7.403,17.958 -16.774,17.27c-14.641,-1.074 -14.396,-25.491 0.305,-30.363M271.30465,146.65745c2.92,-0.677 4.787,-0.821 4.826,-0.373c0.038,0.435 0.043,27.31 0.005,28.509c-0.027,0.89 -0.296,1.071 -2.287,1.534c-2.601,0.604 -3.099,0.29 -2.762,-1.743c0.29,-1.756 0.359,-19.392 0.077,-19.674c-0.305,-0.306 -0.35,-0.16 -1.852,6.074c-4.38,18.173 -3.896,16.927 -6.882,17.691c-2.846,0.728 -2.719,0.962 -5.515,-10.091c-1.336,-5.28 -2.559,-9.87 -2.719,-10.2c-0.16,-0.33 -0.381,4.517 -0.491,10.77l-0.2,11.37l-2.099,0.472c-2.885,0.65 -2.749,1.389 -2.708,-14.706c0.041,-16.262 -0.352,-14.832 4.322,-15.748c4.385,-0.859 3.828,-1.621 6.551,8.95c1.26,4.89 2.422,8.892 2.581,8.892c0.414,0 0.851,-1.485 3.356,-11.399c2.506,-9.916 2.28,-9.513 5.797,-10.328M179.57965,146.64245c0.419,-0.419 1.125,-0.062 1.125,0.57c0,0.309 -0.315,0.622 -0.7,0.696c-0.689,0.133 -0.975,-0.716 -0.425,-1.266M299.47965,147.22645c-3.853,-2.649 -9.262,0.06 -11.324,5.673c-3.499,9.523 3.003,17.797 10.204,12.985c5.635,-3.766 6.315,-15.086 1.12,-18.658M175.17965,147.84245c0.907,-0.907 1.125,0.403 1.125,6.775v6.767l-1.2,0.133c-0.66,0.074 -1.47,0.37 -1.8,0.659c-3.211,2.811 -7.004,-2.523 -5.052,-7.105c1.018,-2.389 2.343,-3.235 4.639,-2.963l2.013,0.238v-2.114c0,-1.163 0.124,-2.238 0.275,-2.39M186.26365,148.95645c2.479,-1.08 4.627,-0.452 5.622,1.644c2.06,4.341 -1.454,9.856 -5.615,8.811c-4.113,-1.032 -4.119,-8.666 -0.007,-10.455M189.59965,150.19545c-1.307,-0.915 -2.247,-0.747 -3.535,0.631c-2.178,2.332 -1.2,7.558 1.414,7.558c3.019,0 4.676,-6.399 2.121,-8.189M179.57165,150.65145c0.146,-0.147 0.512,-0.267 0.812,-0.267c0.929,0 0.557,10.145 -0.379,10.324c-0.719,0.138 -1.128,-9.362 -0.433,-10.057M173.94265,154.02645c-2.603,-2.876 -6.012,2.141 -4.042,5.95c1.617,3.126 4.804,0.997 4.804,-3.211c0,-1.304 -0.238,-2.16 -0.762,-2.739M160.17465,154.09145c3.98,-1.273 5.006,-0.111 5.205,5.893l0.125,3.8l-1.21,0.014c-0.666,0.008 -1.651,0.323 -2.189,0.7c-2.283,1.6 -5.201,0.34 -5.201,-2.244c0,-1.753 1.248,-2.894 3.91,-3.575c2.477,-0.634 3.062,-1.122 2.703,-2.254c-0.566,-1.784 -3.122,-1.413 -4.883,0.71c-0.681,0.821 -0.977,0.944 -1.362,0.567c-0.71,-0.695 1.193,-3.064 2.902,-3.611M227.78565,155.35045c9.422,-3.071 17.81,5.344 15.953,16.005c-3.564,20.468 -30.289,18.855 -27.274,-1.647c1.173,-7.972 4.439,-12.114 11.321,-14.358M153.50465,156.09345c1.07,-0.649 2.2,-0.635 2.2,0.027c0,0.294 -0.44,0.736 -0.979,0.982c-1.728,0.787 -2.404,2.349 -2.621,6.057c-0.168,2.866 -0.315,3.439 -0.912,3.553c-0.658,0.125 -0.704,-0.258 -0.6,-4.996l0.112,-5.132l1,-0.003c0.55,-0.001 1.36,-0.221 1.8,-0.488M163.44165,160.76145c0.081,-1.66 -0.284,-1.734 -2.837,-0.575c-1.67,0.757 -2.1,1.146 -2.1,1.895c0,3.277 4.776,1.999 4.937,-1.32M234.52165,160.88445c-5.209,-3.51 -11.696,1.637 -12.311,9.769c-0.61,8.071 4.945,12.663 10.817,8.939c5.741,-3.641 6.666,-15.222 1.494,-18.708M195.30465,162.46245c3.24,-0.722 2.988,-1.697 3.106,12.027c0.096,11.203 0.165,12.295 0.777,12.295c0.37,0 3.428,-0.559 6.797,-1.242c7.121,-1.443 7.32,-1.416 7.32,0.98c0,2.502 -0.074,2.542 -7,3.842c-1.1,0.206 -3.8,0.768 -6,1.247c-6.047,1.32 -6.779,1.447 -7.31,1.27c-0.718,-0.24 -0.708,-29.021 0.01,-29.608c0.275,-0.225 1.31,-0.59 2.3,-0.811M173.90465,166.94945c4.129,-0.97 3.839,-1.197 6.18,4.835c0.94,2.42 1.958,4.967 2.264,5.66c0.306,0.694 0.556,1.37 0.556,1.503c0,0.279 2.199,6.031 4.254,11.126c1.603,3.975 1.582,4.102 -0.744,4.484c-3.32,0.547 -3.144,0.641 -4.375,-2.344c-0.629,-1.524 -1.218,-2.845 -1.31,-2.937c-0.414,-0.414 -10.917,1.882 -11.382,2.488c-0.177,0.231 -0.743,1.817 -1.257,3.525c-1.02,3.383 -0.825,3.226 -5.086,4.094c-1.74,0.354 -1.718,0.059 0.537,-7.026c1.011,-3.175 2.287,-7.213 2.836,-8.973c5.078,-16.271 4.867,-15.809 7.527,-16.435M144.30465,172.71745c4.755,-1.424 9.727,-0.027 11.911,3.345c1.496,2.31 1.308,2.773 -1.412,3.481l-2.298,0.599l-1.332,-1.454c-2.237,-2.443 -6.339,-2.362 -8.467,0.166c-2.123,2.523 -0.363,4.466 4.998,5.521c10.628,2.09 14.124,8.56 8.076,14.946c-5.891,6.22 -20.076,4.24 -20.076,-2.803c0,-2.165 4.741,-2.786 5.713,-0.748c2.145,4.498 12.128,2.016 10.939,-2.721c-0.377,-1.503 -1.536,-2.108 -5.852,-3.057c-6.723,-1.477 -9.056,-3.094 -10.026,-6.945c-1.179,-4.683 1.711,-8.498 7.826,-10.33M176.15465,176.19945c-0.604,-1.581 -1.65,-2.925 -1.65,-2.12c0,0.185 -3.363,9.76 -3.78,10.765c-0.45,1.082 0.317,1.172 4.04,0.473c4.861,-0.913 4.766,-0.287 1.39,-9.118" fill="#100a07" fill-rule="evenodd" stroke-width="1"/><path d="M333.37465,132.99245c2.735,-0.667 2.561,-0.648 3.297,-0.365c0.562,0.215 0.633,1.966 0.633,15.61v15.367l-0.963,0.366c-0.529,0.201 -2.014,0.484 -3.3,0.627l-2.337,0.262l-5.166,-7.838c-2.842,-4.311 -5.217,-7.788 -5.278,-7.727c-0.061,0.061 -0.148,3.934 -0.193,8.605c-0.052,5.43 -0.241,8.71 -0.522,9.092c-0.521,0.706 -4.615,1.642 -5.574,1.274c-0.845,-0.324 -1.043,-30.401 -0.204,-30.92c0.683,-0.422 4.836,-1.217 5.558,-1.064c0.341,0.072 2.951,3.612 5.8,7.867l5.179,7.735l0.2,-8.917c0.225,-10.014 0.013,-9.277 2.87,-9.974M336.80965,148.10845c-0.118,-16.506 0.181,-15.204 -3.305,-14.387l-2,0.468l-0.107,9.729c-0.116,10.538 -0.195,10.832 -2.084,7.771c-2.088,-3.384 -9.663,-14.491 -10.044,-14.726c-0.459,-0.285 -4.325,0.592 -5.07,1.149c-0.394,0.295 -0.482,3.56 -0.4,14.825l0.105,14.447l2.149,-0.092c3.377,-0.143 3.251,0.258 3.251,-10.357c0,-5.908 0.146,-9.351 0.396,-9.351c0.218,0 2.854,3.69 5.857,8.2l5.461,8.2h1.556c0.856,0 2.182,-0.262 2.948,-0.582l1.392,-0.581l-0.105,-14.713M292.34365,141.23945c16.565,-5.599 24.509,19.447 9.309,29.349c-9.983,6.502 -20.871,0.349 -20.884,-11.804c-0.009,-8.909 3.998,-14.984 11.575,-17.545M302.67165,142.54345c-6.053,-3.547 -16.191,0.188 -19.319,7.118c-6.731,14.908 4.384,28.064 17.444,20.649c9.956,-5.653 11.085,-22.369 1.875,-27.767M271.13965,145.97645c4.335,-0.956 5.757,-0.979 5.796,-0.092c0.017,0.385 0.034,7.246 0.038,15.248c0.008,16.384 0.228,15.302 -3.246,15.957c-3.535,0.666 -3.358,1.162 -3.137,-8.789c0.201,-9.056 0.039,-9.942 -1.014,-5.516c-3.935,16.543 -3.68,15.855 -6.083,16.412c-4.543,1.054 -4.304,1.357 -6.794,-8.612c-1.044,-4.18 -2.021,-7.737 -2.171,-7.904c-0.149,-0.167 -0.193,3.799 -0.098,8.814l0.173,9.117l-1.065,0.485c-1.768,0.805 -5.428,1.102 -5.466,0.443c-0.37,-6.4 -0.012,-30.076 0.461,-30.518c0.314,-0.293 2.333,-0.856 4.485,-1.251c5.099,-0.934 4.091,-2.546 8.118,12.986c0.538,2.074 1.028,3.821 1.088,3.882c0.061,0.06 1.172,-4.123 2.47,-9.297c2.778,-11.079 2.439,-10.481 6.445,-11.365M178.93265,146.73145c0.295,-0.551 0.753,-0.757 1.495,-0.671c1.939,0.225 1.453,2.724 -0.529,2.724c-1.095,0 -1.548,-0.964 -0.966,-2.053M276.13065,146.28445c-0.062,-0.72 -6.963,0.535 -7.913,1.439c-0.267,0.255 -1.487,4.423 -2.71,9.262c-2.505,9.914 -2.942,11.399 -3.356,11.399c-0.159,0 -1.321,-4.002 -2.581,-8.892c-2.723,-10.571 -2.166,-9.809 -6.551,-8.95c-4.674,0.916 -4.281,-0.514 -4.322,15.748c-0.041,16.095 -0.177,15.356 2.708,14.706l2.099,-0.472l0.2,-11.37c0.11,-6.253 0.331,-11.1 0.491,-10.77c0.16,0.33 1.383,4.92 2.719,10.2c2.796,11.053 2.669,10.819 5.515,10.091c2.986,-0.764 2.502,0.482 6.882,-17.691c1.502,-6.234 1.547,-6.38 1.852,-6.074c0.282,0.282 0.213,17.918 -0.077,19.674c-0.337,2.033 0.161,2.347 2.762,1.743c1.991,-0.463 2.26,-0.644 2.287,-1.534c0.038,-1.199 0.033,-28.074 -0.005,-28.509M180.70465,147.21245c0,-0.632 -0.706,-0.989 -1.125,-0.57c-0.55,0.55 -0.264,1.399 0.425,1.266c0.385,-0.074 0.7,-0.387 0.7,-0.696M292.58565,147.23545c6.338,-3.137 11.308,1.892 10.222,10.342c-1.123,8.736 -9.472,12.962 -13.903,7.038c-3.471,-4.641 -1.295,-14.917 3.681,-17.38M174.80465,147.21645c2.287,-1.332 2.5,-0.693 2.5,7.521c0,7.167 -0.126,7.647 -2.004,7.647c-0.573,0 -1.392,0.264 -1.82,0.587c-1.885,1.426 -4.923,0.195 -6.024,-2.441c-1.784,-4.269 1.407,-9.847 5.273,-9.219l1.375,0.223v-1.955c0,-1.44 0.184,-2.063 0.7,-2.363M297.97865,147.20945c-3.593,-1.357 -7.64,1.271 -9.199,5.975c-2.65,7.996 0.731,14.576 6.793,13.22c7.553,-1.691 9.415,-16.546 2.406,-19.195M176.30465,154.61745c0,-4.421 -0.147,-6.815 -0.425,-6.908c-0.743,-0.248 -0.975,0.352 -0.975,2.523v2.114l-2.013,-0.238c-2.296,-0.272 -3.621,0.574 -4.639,2.963c-1.952,4.582 1.841,9.916 5.052,7.105c0.33,-0.289 1.14,-0.585 1.8,-0.659l1.2,-0.133v-6.767M186.30465,148.15145c6.716,-2.998 9.875,7.814 3.332,11.405c-1.796,0.986 -1.933,1.003 -3.587,0.427c-4.961,-1.728 -4.792,-9.579 0.255,-11.832M190.26665,148.83945c-3.575,-1.628 -6.962,1.12 -6.962,5.648c0,4.677 3.484,6.591 6.983,3.839c2.911,-2.29 2.898,-8.157 -0.021,-9.487M178.94165,150.13945c1.854,-2.234 2.763,-0.457 2.763,5.401c0,5.173 -0.353,6.218 -2.022,5.982c-1.122,-0.158 -1.772,-10.141 -0.741,-11.383M186.06465,150.82645c2.581,-2.763 5.485,-0.207 4.675,4.113c-0.309,1.647 -2.01,3.445 -3.261,3.445c-2.614,0 -3.592,-5.226 -1.414,-7.558M219.60065,150.22245c0.37,-0.371 4.904,-0.28 4.904,0.098c0,0.433 -1.519,0.872 -9.8,2.831c-15.519,3.67 -15.8,3.71 -15.8,2.248c0,-1.157 0.596,-1.363 7.618,-2.626c2.52,-0.453 6.44,-1.159 8.711,-1.569c2.271,-0.41 4.236,-0.852 4.367,-0.982M180.81665,155.47945c0.11,-4.998 -0.133,-5.94 -1.245,-4.828c-0.695,0.695 -0.286,10.195 0.433,10.057c0.616,-0.118 0.713,-0.747 0.812,-5.229M189.37365,151.04645c-2.324,-2.103 -4.943,1.671 -3.522,5.073c0.763,1.826 2.178,1.995 3.424,0.411c1.094,-1.391 1.15,-4.532 0.098,-5.484M158.21765,154.58045c4.112,-3.52 7.844,-1.373 7.954,4.573c0.036,1.997 0.081,3.946 0.1,4.331c0.024,0.51 -0.33,0.735 -1.303,0.828c-0.736,0.07 -1.906,0.475 -2.6,0.899c-3.979,2.425 -8.152,-1.722 -5.228,-5.196c0.569,-0.677 0.852,-1.231 0.628,-1.231c-0.224,0 -0.706,-0.299 -1.071,-0.665c-1.921,-1.92 -3.779,0.689 -3.787,5.316c-0.007,3.527 -0.41,4.317 -2.084,4.08c-0.908,-0.129 -0.922,-0.209 -0.922,-5.254c0,-6.027 0.2,-6.847 1.604,-6.578c0.547,0.104 1.31,-0.049 1.696,-0.342c0.951,-0.722 2.871,-0.698 3.154,0.039c0.179,0.467 0.581,0.294 1.859,-0.8M170.69965,153.84645c0.364,-0.364 1.071,-0.662 1.572,-0.662c2.943,0 3.398,6.181 0.584,7.938c-3.028,1.891 -4.923,-4.508 -2.156,-7.276M163.69665,154.18045c-1.306,-0.675 -1.661,-0.684 -3.522,-0.089c-1.709,0.547 -3.612,2.916 -2.902,3.611c0.385,0.377 0.681,0.254 1.362,-0.567c1.761,-2.123 4.317,-2.494 4.883,-0.71c0.359,1.132 -0.226,1.62 -2.703,2.254c-2.662,0.681 -3.91,1.822 -3.91,3.575c0,2.584 2.918,3.844 5.201,2.244c0.538,-0.377 1.523,-0.692 2.189,-0.7l1.21,-0.014l-0.125,-3.8c-0.156,-4.715 -0.258,-5.067 -1.683,-5.804M173.73565,154.84345c-1.138,-2.127 -3.631,-0.382 -3.631,2.541c0,1.698 0.881,3.4 1.761,3.4c1.558,0 2.852,-4.108 1.87,-5.941M227.11865,154.84745c9.891,-3.342 17.826,3.362 17.296,14.614c-1.01,21.452 -28.563,23.892 -28.494,2.523c0.03,-8.979 3.706,-14.605 11.198,-17.137M237.10465,155.87645c-5.646,-2.911 -15.208,0.372 -18.318,6.29c-7.109,13.529 0.975,26.987 13.826,23.017c12.617,-3.897 15.631,-23.563 4.492,-29.307M155.70465,156.12045c0,-0.662 -1.13,-0.676 -2.2,-0.027c-0.44,0.267 -1.25,0.487 -1.8,0.488l-1,0.003l-0.112,5.132c-0.104,4.738 -0.058,5.121 0.6,4.996c0.597,-0.114 0.744,-0.687 0.912,-3.553c0.217,-3.708 0.893,-5.27 2.621,-6.057c0.539,-0.246 0.979,-0.688 0.979,-0.982M162.80565,156.68245c-0.388,-1.18 -2.816,-0.641 -3.458,0.767c-0.444,0.976 -0.418,1.015 0.527,0.778c2.048,-0.514 3.09,-1.063 2.931,-1.545M160.60465,160.18645c2.553,-1.159 2.918,-1.085 2.837,0.575c-0.161,3.319 -4.937,4.597 -4.937,1.32c0,-0.749 0.43,-1.138 2.1,-1.895M162.51865,161.95845c0.774,-1.447 0.371,-1.919 -1.187,-1.388c-1.641,0.559 -2.428,1.573 -1.747,2.254c0.643,0.643 2.405,0.123 2.934,-0.866M227.86965,160.55345c6.858,-2.986 12.189,4.598 9.302,13.231c-2.861,8.552 -11.942,9.725 -14.488,1.871c-1.791,-5.526 0.848,-13.213 5.186,-15.102M233.70265,161.23145c-5.168,-2.905 -10.37,2.042 -10.677,10.153c-0.269,7.138 3.362,10.457 8.805,8.05c6.196,-2.741 7.464,-15.06 1.872,-18.203M195.12065,161.80645c1.311,-0.285 2.506,-0.541 2.655,-0.57c1.323,-0.254 1.48,1.099 1.486,12.8c0.003,6.404 0.097,11.735 0.209,11.847c0.112,0.112 3.197,-0.401 6.857,-1.14c7.558,-1.526 7.777,-1.477 7.777,1.744c0,2.821 -0.776,3.378 -5.978,4.289c-3.209,0.562 -13.925,2.796 -14.532,3.029c-1.797,0.689 -1.907,-0.227 -1.88,-15.605c0.029,-16.487 -0.151,-15.62 3.406,-16.394M198.41065,174.48945c-0.091,-10.579 -0.19,-12.304 -0.706,-12.361c-0.915,-0.102 -4.135,0.683 -4.7,1.145c-0.718,0.587 -0.728,29.368 -0.01,29.608c0.531,0.177 1.263,0.05 7.31,-1.27c2.2,-0.479 4.9,-1.041 6,-1.247c6.926,-1.3 7,-1.34 7,-3.842c0,-2.396 -0.199,-2.423 -7.32,-0.98c-3.369,0.683 -6.427,1.242 -6.797,1.242c-0.612,0 -0.681,-1.092 -0.777,-12.295M229.39365,165.05245c2.953,-1.187 4.485,1.638 3.49,6.433c-0.842,4.058 -4.011,5.944 -5.418,3.225c-1.213,-2.347 0.1,-8.922 1.928,-9.658M173.90565,166.23145c4.567,-1.104 4.283,-1.309 6.602,4.753c0.925,2.42 1.92,4.94 2.209,5.6c0.29,0.66 0.785,1.92 1.101,2.8c1.014,2.822 4.2,11.151 4.85,12.678c0.856,2.011 0.512,2.597 -1.815,3.096c-3.93,0.843 -4.086,0.772 -5.335,-2.412c-1.274,-3.246 -0.521,-3.062 -7.213,-1.76c-4.44,0.864 -4.375,0.811 -5.479,4.487c-1.034,3.445 -1.412,3.782 -5.059,4.522c-2.588,0.525 -3.433,0.255 -3.053,-0.975c0.516,-1.67 3.373,-10.664 5.792,-18.236c1.581,-4.95 3.153,-9.9 3.493,-11c0.811,-2.626 1.079,-2.87 3.907,-3.553M177.99165,166.88445c-0.453,-0.589 -1.366,-0.574 -4.087,0.065c-2.66,0.626 -2.449,0.164 -7.527,16.435c-0.549,1.76 -1.825,5.798 -2.836,8.973c-2.255,7.085 -2.277,7.38 -0.537,7.026c4.261,-0.868 4.066,-0.711 5.086,-4.094c0.514,-1.708 1.08,-3.294 1.257,-3.525c0.465,-0.606 10.968,-2.902 11.382,-2.488c0.092,0.092 0.681,1.413 1.31,2.937c1.231,2.985 1.055,2.891 4.375,2.344c2.326,-0.382 2.347,-0.509 0.744,-4.484c-2.055,-5.095 -4.254,-10.847 -4.254,-11.126c0,-0.133 -0.25,-0.809 -0.556,-1.503c-0.306,-0.693 -1.324,-3.24 -2.264,-5.66c-0.939,-2.42 -1.881,-4.625 -2.093,-4.9M143.50465,172.14445c5.182,-1.639 10.803,-0.108 13.318,3.627c1.772,2.631 1.598,3.441 -0.918,4.281c-3.105,1.037 -4.072,0.939 -4.809,-0.485c-1.389,-2.686 -7.497,-2.401 -8.383,0.391c-0.609,1.92 0.622,2.694 6.392,4.019c7.406,1.7 9.825,3.875 9.894,8.893c0.143,10.516 -17.221,15.381 -22.916,6.419c-1.811,-2.85 -1.551,-4.114 1.022,-4.973c3.293,-1.1 3.87,-0.98 4.933,1.025c1.741,3.28 9.176,2.412 9.596,-1.121c0.235,-1.98 -0.851,-2.663 -5.897,-3.708c-7.118,-1.474 -10.032,-4.106 -10.032,-9.063c0,-4.559 2.6,-7.661 7.8,-9.305M152.95465,173.29445c-7.879,-3.858 -18.343,2.337 -16.476,9.753c0.97,3.851 3.303,5.468 10.026,6.945c5.643,1.24 6.955,2.556 5.411,5.423c-1.861,3.455 -8.906,3.693 -10.498,0.355c-0.972,-2.038 -5.713,-1.417 -5.713,0.748c0,7.043 14.185,9.023 20.076,2.803c6.048,-6.386 2.552,-12.856 -8.076,-14.946c-5.361,-1.055 -7.121,-2.998 -4.998,-5.521c2.128,-2.528 6.23,-2.609 8.467,-0.166l1.332,1.454l2.298,-0.599c3.526,-0.918 2.592,-4.075 -1.849,-6.249M174.50465,174.07945c0,-0.805 1.046,0.539 1.65,2.12c3.376,8.831 3.471,8.205 -1.39,9.118c-3.723,0.699 -4.49,0.609 -4.04,-0.473c0.417,-1.005 3.78,-10.58 3.78,-10.765M178.00665,183.81545c0.092,-0.092 -0.551,-2.117 -1.429,-4.499c-0.909,-2.464 -1.695,-4.073 -1.823,-3.732c-0.125,0.33 -0.94,2.647 -1.813,5.148l-1.586,4.548l1.275,-0.243c3.305,-0.633 5.223,-1.068 5.376,-1.222M227.30465,191.77445c2.75,-0.492 5.135,-0.916 5.3,-0.943c0.165,-0.026 0.3,0.118 0.3,0.319c0,0.201 -2.475,0.941 -5.5,1.644c-9.288,2.16 -9.863,2.338 -10.7,3.307c-0.44,0.51 -2.957,3.476 -5.593,6.592c-5.517,6.52 -5.346,6.502 -5.449,0.588c-0.095,-5.397 -0.182,-5.521 -3.43,-4.909c-1.28,0.241 -6.108,1.055 -10.728,1.81c-7.766,1.268 -11.664,1.938 -21.2,3.647c-6.277,1.125 -13.615,1.97 -11.6,1.336c3.059,-0.962 46.202,-9.581 47.959,-9.581c0.9,0 0.908,0.043 0.723,4.2c-0.238,5.35 -0.048,5.406 3.318,0.99c5.123,-6.721 5.523,-7.071 8.693,-7.61c1.599,-0.272 5.157,-0.898 7.907,-1.39M153.30465,205.98445c0.802,-0.518 3.32,-0.518 3,0c-0.136,0.22 -0.858,0.4 -1.605,0.4c-0.746,0 -1.821,0.211 -2.387,0.469c-0.788,0.359 -1.14,0.359 -1.499,0c-0.359,-0.359 -0.192,-0.47 0.711,-0.475c0.649,-0.003 1.45,-0.181 1.78,-0.394" fill="#d36737" fill-rule="evenodd" stroke-width="1"/><path d="" fill="#000000" fill-rule="evenodd" stroke-width="1"/><path d="M217.34985,351.92192v-358.85886h21.02102v358.85886z" fill="none" fill-rule="nonzero" stroke-width="0"/></g></g></svg>