<svg version="1.1" xmlns="http://www.w3.org/2000/svg" xmlns:xlink="http://www.w3.org/1999/xlink" width="325.79308" height="300.69796" viewBox="0,0,325.79308,300.69796"><g transform="translate(-77.49706,-43.76357)"><g data-paper-data="{&quot;isPaintingLayer&quot;:true}" fill="#f48323" fill-rule="evenodd" stroke="none" stroke-width="1" stroke-linecap="butt" stroke-linejoin="miter" stroke-miterlimit="10" stroke-dasharray="" stroke-dashoffset="0" style="mix-blend-mode: normal"><path d="M287.313,44.615c14.569,-3.925 30.663,6.263 30.682,19.422c0.027,19.215 -26.578,28.274 -41.552,14.148c-11.826,-11.156 -6.043,-29.014 10.87,-33.57M204.391,64.396c6.395,-0.743 19.141,0 27.666,1.614c5.644,1.068 16.859,5.584 17.405,7.008c0.141,0.367 -0.116,1.773 -0.571,3.124c-0.456,1.352 -2.481,7.498 -4.501,13.658c-4.502,13.726 -3.76,12.832 -8.682,10.471c-6.221,-2.983 -16.198,-4.402 -21.062,-2.995c-7.673,2.22 -8.011,9.721 -0.73,16.221c3.478,3.106 3.69,3.243 11.684,7.521c18.499,9.901 26.746,19.965 28.611,34.911c2.395,19.198 -2.792,33.404 -16.354,44.792c-9.453,7.939 -22.133,12.056 -37.182,12.074c-15.95,0.019 -30.714,-2.854 -38.375,-7.468c-2.853,-1.718 -2.882,-2.047 -0.758,-8.467c0.848,-2.563 2.039,-6.28 2.646,-8.26c0.606,-1.98 1.69,-5.49 2.408,-7.8c0.717,-2.31 1.624,-5.322 2.015,-6.694c1.134,-3.974 1.407,-4.065 5.72,-1.919c10.243,5.098 22.611,5.711 26.446,1.311c4.815,-5.523 0.845,-12 -11.577,-18.886c-20.268,-11.235 -28.077,-22.916 -28.086,-42.012c-0.013,-25.776 17.425,-45.199 43.277,-48.204M291.089,97.494c25.385,-0.142 26.118,-0.127 26.553,0.561c0.385,0.608 0.499,111.113 0.115,112.112c-0.284,0.741 -45.797,0.975 -46.957,0.241c-0.711,-0.449 -1.1,-109.966 -0.397,-111.815l0.374,-0.986l20.312,-0.113M390.299,277.75c0.863,-0.32 2.522,-0.504 3.901,-0.433c12.306,0.639 11.73,16.051 -0.6,16.062c-10.412,0.009 -12.958,-12.047 -3.301,-15.629M90.4,285.585c13.101,-1.367 24.744,1.355 29.385,6.87c5.938,7.057 4.395,19.086 -3.05,23.786c-2.151,1.358 -2.029,2.257 1.273,9.359c1.38,2.97 3.219,6.93 4.087,8.8c0.867,1.87 1.941,4.174 2.387,5.121c1.55,3.294 1.962,2.545 6.109,-11.11c5.554,-18.29 7.97,-26.103 9.217,-29.811c0.774,-2.303 2.314,-7.374 3.248,-10.698c0.517,-1.836 0.886,-1.902 10.693,-1.902c9.735,0 10.255,0.09 10.247,1.78c-0.002,0.451 0.353,1.9 0.789,3.22c1.096,3.319 2.92,9.144 5.449,17.4c1.18,3.85 2.8,9.07 3.6,11.6c0.801,2.53 2.425,7.799 3.61,11.71c1.184,3.91 2.424,7.757 2.755,8.549c1.447,3.463 1.071,3.627 -8.399,3.66c-10.978,0.037 -10.959,0.045 -11.588,-4.599c-0.419,-3.096 -0.52,-3.133 -8.142,-3.009c-7.23,0.118 -7.526,0.209 -7.885,2.429c-0.896,5.536 1.026,5.078 -21.271,5.068c-19.996,-0.009 -17.782,0.576 -19.692,-5.208c-1.527,-4.626 -5.107,-14.49 -5.473,-15.082c-0.687,-1.112 -0.937,1.464 -0.943,9.706c-0.005,7.156 -0.124,9.184 -0.574,9.8c-0.795,1.086 -16.974,1.206 -18.046,0.133c-0.939,-0.939 -0.908,-53.338 0.031,-54.376c0.91,-1.005 7.332,-2.69 12.183,-3.196M195.437,285.836c23.764,-3.246 35.51,6.468 35.506,29.364c-0.003,21.944 -11.457,31.503 -34.531,28.821c-4.153,-0.483 -9.588,-1.931 -10.929,-2.911c-1.081,-0.79 -1.061,-51.33 0.021,-52.357c1.059,-1.005 5.516,-2.314 9.933,-2.917M283.2,285.95c19.271,-4.37 32.762,10.407 30.358,33.25c-1.681,15.966 -8.989,24.337 -21.878,25.061c-17.836,1.002 -27.525,-11.121 -26.1,-32.661c0.959,-14.508 6.951,-23.231 17.62,-25.65M354.96,285.98c5.346,-1.348 13.801,-0.626 18.74,1.601c2.28,1.028 2.347,1.464 0.872,5.681c-0.565,1.616 -1.211,3.568 -1.435,4.338c-0.683,2.348 -1.214,2.652 -3.219,1.841c-5.174,-2.094 -9.918,-1.167 -9.918,1.937c0,2.471 1.395,3.778 8.061,7.556c15.956,9.041 12.392,30.511 -5.826,35.099c-4.062,1.023 -16.245,-0.026 -19.514,-1.679c-2.633,-1.332 -2.637,-1.9 -0.066,-9.683c1.613,-4.882 1.837,-5.085 4.291,-3.897c4.588,2.221 10.254,1.242 10.254,-1.773c0,-1.287 -2.379,-3.929 -4.767,-5.293c-5.494,-3.14 -8.09,-5.512 -9.97,-9.108l-1.463,-2.8v-5.4l0.001,-5.4l1.679,-3.252c2.591,-5.014 6.844,-8.398 12.28,-9.768M239.1,286.432c0.752,-0.438 17.176,-0.608 18.267,-0.189c0.742,0.284 0.977,55.794 0.242,56.957c-0.56,0.885 -16.976,1.035 -18.309,0.167l-0.9,-0.585v-27.971c0,-26.217 0.044,-27.997 0.7,-28.379M101.52,296.832c-1.377,-0.48 -4.04,-0.579 -4.453,-0.165c-0.334,0.333 -0.356,16.236 -0.024,17.1c0.39,1.017 2.862,0.8 4.42,-0.388c4.075,-3.108 4.117,-15.132 0.057,-16.547M208.463,299.394c-1.594,-1.055 -3.687,-1.637 -4.166,-1.158c-0.667,0.667 -0.344,32.027 0.336,32.591c0.981,0.814 3.715,-0.291 4.831,-1.952c3.345,-4.979 2.594,-27.102 -1.001,-29.481M291.287,299.1c-1.516,-1.737 -4.596,0.095 -5.061,3.012c-1.14,7.151 -1.333,13.438 -0.621,20.2c0.757,7.19 3.942,10.11 6.318,5.791c2.988,-5.432 2.551,-25.349 -0.636,-29.003M384.619,299.039c0.972,-0.973 16.772,-0.952 17.85,0.023c0.873,0.79 1.166,43.822 0.302,44.356c-0.598,0.37 -17.901,0.385 -18.27,0.016c-0.683,-0.681 -0.568,-43.71 0.118,-44.395M153.195,307.5c-0.238,-0.825 -0.52,-1.5 -0.626,-1.5c-0.236,0 -0.245,0.029 -1.542,5c-0.574,2.2 -1.49,5.629 -2.035,7.62c-1.708,6.234 -1.527,6.58 3.439,6.58c4.401,0 4.56,-0.16 3.816,-3.843c-1.108,-5.484 -2.629,-12.389 -3.052,-13.857"/></g></g></svg>