<svg id="svg" version="1.1" xmlns="http://www.w3.org/2000/svg" xmlns:xlink="http://www.w3.org/1999/xlink" width="400" height="400" viewBox="0, 0, 400,400"><g id="svgg"><path id="path0" d="M90.600 46.800 C 90.464 47.020,90.014 47.200,89.599 47.200 C 88.119 47.200,85.736 49.017,81.500 53.375 C 76.339 58.687,75.600 59.495,75.600 59.825 C 75.600 59.965,75.098 60.556,74.485 61.140 C 73.871 61.723,72.928 62.830,72.389 63.600 C 71.850 64.370,70.912 65.522,70.304 66.159 C 69.697 66.797,69.200 67.474,69.200 67.663 C 69.200 67.852,68.660 68.572,68.000 69.263 C 67.340 69.954,66.800 70.679,66.800 70.876 C 66.800 71.073,66.440 71.620,66.000 72.092 C 65.560 72.564,65.200 73.187,65.200 73.475 C 65.200 73.764,65.032 74.000,64.827 74.000 C 64.622 74.000,64.340 74.359,64.201 74.798 C 64.062 75.236,63.734 75.821,63.473 76.098 C 62.709 76.906,60.000 81.480,60.000 81.960 C 60.000 82.202,59.820 82.400,59.600 82.400 C 59.380 82.400,59.200 82.760,59.200 83.200 C 59.200 83.640,59.020 84.000,58.800 84.000 C 58.580 84.000,58.400 84.270,58.400 84.600 C 58.400 84.930,58.220 85.200,58.000 85.200 C 57.780 85.200,57.600 85.560,57.600 86.000 C 57.600 86.440,57.465 86.801,57.300 86.801 C 57.135 86.802,56.550 87.792,56.000 89.000 C 55.450 90.208,54.865 91.198,54.700 91.199 C 54.535 91.199,54.400 91.560,54.400 92.000 C 54.400 92.440,54.220 92.800,54.000 92.800 C 53.780 92.800,53.600 93.072,53.600 93.405 C 53.600 93.738,53.439 94.323,53.242 94.705 C 53.045 95.087,52.306 96.660,51.600 98.200 C 50.894 99.740,50.155 101.313,49.958 101.695 C 49.761 102.077,49.600 102.664,49.600 103.000 C 49.600 103.336,49.441 103.923,49.247 104.305 C 49.052 104.687,48.671 105.540,48.400 106.200 C 48.129 106.860,47.748 107.713,47.553 108.095 C 47.359 108.477,47.200 109.116,47.200 109.515 C 47.200 109.914,47.048 110.411,46.862 110.620 C 46.675 110.829,46.112 112.530,45.610 114.400 C 45.108 116.270,44.450 118.571,44.148 119.514 C 43.847 120.457,43.600 121.751,43.600 122.390 C 43.600 123.030,43.420 123.664,43.200 123.800 C 42.980 123.936,42.800 124.757,42.800 125.624 C 42.800 126.491,42.637 127.200,42.439 127.200 C 42.089 127.200,41.886 128.485,41.363 134.000 C 41.227 135.430,40.955 136.771,40.758 136.980 C 40.561 137.189,40.400 138.584,40.400 140.080 C 40.400 141.576,40.246 142.800,40.057 142.800 C 39.142 142.800,38.794 160.781,39.531 170.000 C 40.399 180.864,40.458 181.393,40.832 181.780 C 41.035 181.989,41.200 183.013,41.200 184.056 C 41.200 185.099,41.357 186.050,41.550 186.169 C 41.742 186.288,42.006 187.334,42.136 188.493 C 42.266 189.652,42.566 191.500,42.804 192.600 C 43.041 193.700,43.330 195.140,43.445 195.800 C 43.560 196.460,43.802 197.360,43.982 197.800 C 44.162 198.240,44.534 199.410,44.808 200.400 C 45.787 203.926,46.006 204.645,47.243 208.400 C 49.862 216.346,53.881 225.562,57.622 232.200 C 58.118 233.080,59.023 234.739,59.633 235.887 C 60.244 237.034,61.296 238.777,61.972 239.759 C 62.647 240.741,63.200 241.722,63.200 241.939 C 63.200 242.156,63.335 242.393,63.500 242.467 C 63.665 242.540,64.778 244.040,65.974 245.800 C 68.017 248.807,71.496 253.556,71.981 254.000 C 72.102 254.110,72.825 255.010,73.588 256.000 C 76.469 259.734,84.037 267.815,86.076 269.334 C 97.283 277.682,113.047 265.019,107.287 252.296 C 106.440 250.425,105.842 249.681,100.963 244.425 C 97.516 240.712,96.029 238.971,93.774 236.001 C 90.964 232.302,87.600 227.587,87.600 227.348 C 87.600 227.236,87.088 226.392,86.462 225.472 C 79.011 214.524,71.754 195.084,69.264 179.400 C 67.951 171.128,67.809 169.215,67.805 159.800 C 67.801 149.386,68.372 143.169,70.009 135.800 C 73.653 119.398,77.173 109.912,84.408 97.000 C 88.539 89.628,95.685 80.173,102.785 72.687 C 111.182 63.832,110.135 51.999,100.585 47.826 C 99.713 47.445,98.687 46.968,98.305 46.766 C 97.365 46.271,90.910 46.299,90.600 46.800 M287.200 46.800 C 287.200 47.020,286.845 47.200,286.412 47.200 C 285.432 47.200,283.228 48.418,281.552 49.887 C 279.689 51.518,278.799 52.585,278.120 54.000 C 276.579 57.212,275.797 62.780,276.800 63.400 C 277.020 63.536,277.200 64.160,277.200 64.786 C 277.200 66.613,278.790 69.184,281.875 72.344 C 289.381 80.033,292.016 83.216,296.658 90.200 C 301.248 97.104,305.386 104.847,308.041 111.500 C 309.033 113.985,309.229 114.468,309.589 115.300 C 310.016 116.290,312.195 123.267,312.868 125.800 C 313.102 126.680,313.443 127.850,313.626 128.400 C 314.827 132.007,316.416 142.895,317.235 153.128 C 318.085 163.736,316.257 181.195,313.144 192.200 C 312.079 195.963,310.054 202.387,309.582 203.500 C 308.959 204.968,308.314 206.546,307.987 207.400 C 307.199 209.464,305.839 212.479,304.920 214.200 C 304.685 214.640,304.247 215.537,303.947 216.194 C 302.671 218.981,296.965 228.669,295.698 230.200 C 295.516 230.420,294.756 231.500,294.010 232.600 C 293.263 233.700,292.550 234.690,292.424 234.800 C 292.298 234.910,291.704 235.659,291.104 236.465 C 290.503 237.271,289.784 238.176,289.506 238.475 C 289.228 238.774,288.010 240.180,286.800 241.599 C 285.590 243.018,283.642 245.174,282.471 246.390 C 280.288 248.656,278.527 251.031,277.718 252.800 C 276.710 255.003,276.121 259.481,276.757 260.117 C 277.001 260.361,277.200 261.047,277.200 261.642 C 277.200 268.602,289.351 274.476,296.600 271.021 C 304.033 267.477,320.971 245.701,329.357 228.907 C 333.531 220.548,335.448 215.793,338.595 206.000 C 349.119 173.251,348.257 138.749,336.082 105.400 C 332.552 95.730,326.003 83.125,319.455 73.400 C 311.633 61.780,300.850 49.324,297.267 47.769 C 296.460 47.419,295.487 46.968,295.105 46.766 C 294.152 46.263,287.200 46.293,287.200 46.800 M129.558 86.539 C 126.708 87.634,125.583 88.396,123.048 90.950 C 119.087 94.941,112.400 103.129,112.400 103.989 C 112.400 104.215,112.250 104.400,112.068 104.400 C 111.885 104.400,111.485 104.895,111.180 105.500 C 110.874 106.105,110.124 107.352,109.512 108.272 C 108.901 109.192,108.400 110.137,108.400 110.372 C 108.400 110.607,108.241 110.800,108.047 110.800 C 107.852 110.800,107.593 111.115,107.470 111.500 C 107.348 111.885,106.640 113.280,105.899 114.600 C 94.824 134.312,91.938 163.417,98.741 186.800 C 100.798 193.870,106.187 206.058,108.904 209.783 C 109.071 210.012,110.085 211.568,111.158 213.241 C 112.230 214.914,113.380 216.624,113.714 217.041 C 116.963 221.100,121.370 226.210,123.180 228.017 C 137.096 241.911,156.843 222.329,143.200 208.163 C 117.097 181.060,116.682 139.398,142.243 111.974 C 147.613 106.212,148.994 101.969,147.420 96.057 C 146.575 92.883,142.903 88.000,141.360 88.000 C 141.052 88.000,140.800 87.820,140.800 87.600 C 140.800 87.380,140.440 87.200,140.000 87.200 C 139.560 87.200,139.200 87.020,139.200 86.800 C 139.200 86.580,138.761 86.400,138.224 86.400 C 137.687 86.400,137.136 86.220,137.000 86.000 C 136.563 85.293,131.929 85.628,129.558 86.539 M248.600 86.000 C 248.464 86.220,247.913 86.400,247.376 86.400 C 246.839 86.400,246.400 86.580,246.400 86.800 C 246.400 87.020,246.040 87.200,245.600 87.200 C 245.160 87.200,244.800 87.380,244.800 87.600 C 244.800 87.820,244.530 88.000,244.200 88.000 C 243.870 88.000,243.600 88.180,243.600 88.400 C 243.600 88.620,243.351 88.800,243.046 88.800 C 242.357 88.800,239.600 91.591,239.600 92.288 C 239.600 92.570,239.420 92.800,239.200 92.800 C 238.980 92.800,238.800 93.160,238.800 93.600 C 238.800 94.040,238.620 94.400,238.400 94.400 C 238.180 94.400,238.000 94.839,238.000 95.376 C 238.000 95.913,237.820 96.464,237.600 96.600 C 237.380 96.736,237.200 98.446,237.200 100.400 C 237.200 102.354,237.380 104.064,237.600 104.200 C 237.820 104.336,238.000 104.887,238.000 105.424 C 238.000 105.961,238.136 106.400,238.302 106.400 C 238.469 106.400,238.853 106.960,239.156 107.645 C 239.459 108.329,241.240 110.482,243.115 112.428 C 250.403 119.997,255.581 128.659,258.641 138.400 C 259.928 142.499,259.996 142.808,261.210 150.200 C 261.499 151.963,261.599 155.888,261.480 160.800 C 261.302 168.070,261.079 170.250,259.982 175.400 C 259.747 176.500,259.456 177.987,259.334 178.704 C 259.212 179.421,258.951 180.106,258.756 180.227 C 258.560 180.348,258.400 180.876,258.400 181.400 C 258.400 181.924,258.220 182.464,258.000 182.600 C 257.780 182.736,257.600 183.197,257.600 183.624 C 257.600 184.051,257.420 184.400,257.200 184.400 C 256.980 184.400,256.800 184.762,256.800 185.205 C 256.800 185.648,256.631 186.323,256.424 186.705 C 256.217 187.087,255.521 188.480,254.877 189.800 C 251.988 195.722,247.227 202.891,244.385 205.600 C 244.039 205.930,242.747 207.398,241.514 208.862 C 239.450 211.315,238.943 212.162,237.656 215.319 C 237.094 216.698,237.052 221.861,237.600 222.200 C 237.820 222.336,238.000 222.887,238.000 223.424 C 238.000 223.961,238.180 224.400,238.400 224.400 C 238.620 224.400,238.800 224.760,238.800 225.200 C 238.800 225.640,238.980 226.000,239.200 226.000 C 239.420 226.000,239.600 226.234,239.600 226.521 C 239.600 226.808,240.362 227.811,241.293 228.752 C 246.156 233.664,255.144 234.194,260.311 229.874 C 266.871 224.388,278.424 208.172,281.451 200.200 C 281.702 199.540,282.634 197.200,283.522 195.000 C 286.496 187.638,288.479 180.126,289.222 173.410 C 289.465 171.216,289.743 169.292,289.840 169.136 C 290.211 168.534,289.997 151.295,289.580 148.230 C 288.164 137.833,286.459 131.211,283.035 122.800 C 276.205 106.022,261.408 86.400,255.586 86.400 C 255.180 86.400,254.736 86.220,254.600 86.000 C 254.464 85.780,253.114 85.600,251.600 85.600 C 250.086 85.600,248.736 85.780,248.600 86.000 M187.800 117.200 C 187.360 117.389,186.156 117.556,185.124 117.572 C 184.092 117.587,183.136 117.780,183.000 118.000 C 182.864 118.220,182.311 118.400,181.771 118.400 C 180.825 118.400,180.459 118.528,178.505 119.538 C 178.013 119.792,177.338 120.000,177.005 120.000 C 176.672 120.000,176.400 120.180,176.400 120.400 C 176.400 120.620,176.135 120.800,175.812 120.800 C 174.787 120.800,169.033 124.383,166.221 126.773 C 159.528 132.461,153.549 141.759,151.930 149.000 C 147.408 169.220,155.515 187.465,173.029 196.485 C 204.568 212.727,239.919 186.567,233.789 151.522 C 231.568 138.827,222.259 126.616,210.800 121.366 C 210.030 121.014,208.708 120.382,207.862 119.963 C 207.016 119.543,205.992 119.200,205.586 119.200 C 205.180 119.200,204.748 119.040,204.627 118.844 C 204.397 118.472,204.144 118.418,198.000 117.436 C 193.841 116.771,189.056 116.660,187.800 117.200 M198.800 147.087 C 207.030 151.143,209.012 162.381,202.652 168.925 C 197.068 174.671,188.391 174.706,182.587 169.006 C 172.262 158.866,185.737 140.650,198.800 147.087 M42.500 291.915 C 40.465 291.978,38.800 292.203,38.800 292.415 C 38.800 292.627,38.326 292.800,37.746 292.800 C 36.187 292.800,33.600 293.632,31.908 294.678 C 31.087 295.185,30.263 295.600,30.076 295.600 C 29.506 295.600,25.600 299.964,25.600 300.602 C 25.600 300.931,25.420 301.200,25.200 301.200 C 24.980 301.200,24.800 301.560,24.800 302.000 C 24.800 302.440,24.620 302.800,24.400 302.800 C 24.180 302.800,24.000 303.340,24.000 304.000 C 24.000 304.660,23.820 305.200,23.600 305.200 C 23.359 305.200,23.200 306.867,23.200 309.400 C 23.200 311.933,23.359 313.600,23.600 313.600 C 23.820 313.600,24.000 314.140,24.000 314.800 C 24.000 315.460,24.180 316.000,24.400 316.000 C 24.620 316.000,24.800 316.360,24.800 316.800 C 24.800 317.240,24.980 317.600,25.200 317.600 C 25.420 317.600,25.600 317.785,25.600 318.011 C 25.600 318.716,28.951 321.810,30.818 322.828 C 31.798 323.363,32.660 323.935,32.733 324.100 C 32.807 324.265,33.201 324.400,33.610 324.400 C 34.018 324.400,34.464 324.580,34.600 324.800 C 34.736 325.020,35.276 325.200,35.800 325.200 C 36.324 325.200,36.851 325.359,36.970 325.552 C 37.090 325.746,37.596 325.998,38.094 326.112 C 53.822 329.711,57.951 331.734,58.616 336.166 C 59.506 342.099,54.934 346.051,47.159 346.070 C 40.249 346.086,37.723 344.425,34.541 337.773 C 32.278 333.041,30.719 331.600,27.864 331.600 C 25.178 331.600,22.400 333.837,22.400 336.000 C 22.400 336.352,22.180 336.860,21.910 337.130 C 21.523 337.517,21.523 337.785,21.910 338.405 C 22.180 338.836,22.400 339.912,22.400 340.795 C 22.400 341.678,22.580 342.400,22.800 342.400 C 23.020 342.400,23.200 342.760,23.200 343.200 C 23.200 343.640,23.380 344.000,23.600 344.000 C 23.820 344.000,24.000 344.360,24.000 344.800 C 24.000 345.240,24.141 345.600,24.314 345.600 C 24.486 345.600,24.930 346.095,25.301 346.700 C 26.958 349.408,31.843 353.264,34.382 353.868 C 34.942 354.001,35.580 354.232,35.800 354.380 C 37.704 355.663,51.779 356.379,54.603 355.335 C 55.261 355.092,56.610 354.654,57.600 354.363 C 62.836 352.820,67.586 348.819,69.905 344.000 C 72.224 339.180,71.834 330.407,69.147 326.966 C 65.405 322.176,60.788 319.752,50.054 316.942 C 42.680 315.011,43.022 315.120,40.401 313.863 C 36.145 311.821,34.757 308.464,36.885 305.358 C 39.788 301.121,50.412 300.374,54.177 304.141 C 55.269 305.234,58.400 309.831,58.400 310.342 C 58.400 311.953,62.302 313.473,64.745 312.815 C 71.344 311.038,69.912 301.522,62.156 295.612 C 61.237 294.911,58.408 293.600,57.816 293.600 C 57.477 293.600,57.200 293.420,57.200 293.200 C 57.200 292.980,56.606 292.800,55.880 292.800 C 55.154 292.800,54.389 292.641,54.180 292.446 C 53.730 292.028,47.703 291.753,42.500 291.915 M82.763 292.900 C 80.586 294.789,80.602 294.658,80.574 310.600 C 80.529 336.127,80.907 351.645,81.600 352.796 C 82.535 354.347,84.103 355.593,85.200 355.658 C 88.714 355.864,90.742 354.942,91.755 352.679 C 92.256 351.562,92.987 319.012,92.912 301.200 C 92.883 294.341,91.277 292.001,86.600 292.001 C 84.271 292.001,83.626 292.152,82.763 292.900 M300.459 293.541 C 298.423 295.577,298.195 297.015,298.331 306.998 L 298.440 314.996 297.120 313.756 C 295.162 311.917,292.167 310.000,291.252 310.000 C 290.809 310.000,290.336 309.820,290.200 309.600 C 290.064 309.380,288.984 309.200,287.800 309.200 C 286.616 309.200,285.536 309.020,285.400 308.800 C 285.264 308.580,284.634 308.400,284.000 308.400 C 283.366 308.400,282.736 308.580,282.600 308.800 C 282.464 309.020,281.384 309.200,280.200 309.200 C 279.016 309.200,277.936 309.380,277.800 309.600 C 277.664 309.820,277.208 310.000,276.786 310.000 C 274.385 310.000,269.553 314.519,267.567 318.622 C 261.480 331.197,265.837 349.040,276.200 353.974 C 277.300 354.498,278.539 355.094,278.953 355.299 C 280.057 355.847,287.786 355.777,289.304 355.206 C 292.250 354.096,294.269 352.893,296.309 351.030 C 298.547 348.985,299.179 348.987,299.194 351.039 C 299.229 355.891,306.225 357.473,309.071 353.272 C 310.276 351.493,310.960 297.646,309.807 295.333 C 307.924 291.560,303.322 290.678,300.459 293.541 M325.800 292.400 C 325.664 292.620,325.203 292.800,324.776 292.800 C 324.349 292.800,324.000 292.959,324.000 293.153 C 324.000 293.348,323.685 293.589,323.300 293.690 C 322.915 293.791,322.354 294.397,322.053 295.037 C 321.753 295.677,321.348 296.513,321.153 296.895 C 320.682 297.822,320.705 299.094,321.200 299.400 C 321.420 299.536,321.600 299.995,321.600 300.419 C 321.600 302.415,324.225 304.000,327.529 304.000 C 331.740 304.000,333.552 301.643,333.270 296.531 C 333.189 295.069,331.182 292.800,329.969 292.800 C 329.546 292.800,329.200 292.620,329.200 292.400 C 329.200 292.180,328.491 292.000,327.624 292.000 C 326.757 292.000,325.936 292.180,325.800 292.400 M158.900 293.524 C 158.137 293.888,157.600 294.445,157.600 294.872 C 157.600 295.272,157.420 295.600,157.200 295.600 C 156.980 295.600,156.800 295.949,156.800 296.376 C 156.800 296.803,156.620 297.264,156.400 297.400 C 155.408 298.013,156.327 350.739,157.363 352.690 C 159.566 356.836,166.035 356.823,168.305 352.668 C 168.905 351.571,169.016 349.908,169.132 340.322 C 169.291 327.123,168.851 328.100,174.367 328.700 C 181.535 329.479,183.600 331.660,193.547 348.953 C 197.691 356.157,202.290 357.943,206.407 353.947 C 208.990 351.441,208.445 349.024,203.217 339.800 C 200.928 335.762,196.132 330.287,192.728 327.827 L 191.658 327.053 194.835 325.965 C 202.111 323.471,205.577 319.631,206.810 312.700 C 208.318 304.226,201.218 293.600,194.049 293.600 C 193.388 293.600,192.736 293.420,192.600 293.200 C 192.151 292.473,160.464 292.778,158.900 293.524 M189.060 303.851 C 192.105 305.123,193.600 307.455,193.600 310.933 C 193.600 317.437,190.986 318.834,178.291 319.108 L 169.583 319.297 169.691 311.349 L 169.800 303.400 174.800 303.200 C 181.824 302.919,187.444 303.175,189.060 303.851 M122.623 308.763 C 122.474 309.004,121.384 309.200,120.200 309.200 C 119.016 309.200,117.936 309.380,117.800 309.600 C 117.664 309.820,117.139 310.000,116.633 310.000 C 113.417 310.000,106.318 315.859,104.218 320.246 C 97.422 334.439,103.725 351.262,117.200 354.899 C 136.681 360.156,151.189 345.150,146.494 324.600 C 145.054 318.296,137.191 310.000,132.655 310.000 C 132.163 310.000,131.589 309.836,131.380 309.635 C 131.171 309.435,130.010 309.170,128.800 309.048 C 127.590 308.926,125.766 308.714,124.746 308.577 C 123.577 308.419,122.793 308.488,122.623 308.763 M233.400 308.800 C 233.264 309.020,232.272 309.200,231.195 309.200 C 230.119 309.200,228.824 309.361,228.319 309.558 C 227.813 309.755,226.635 310.144,225.700 310.422 C 224.765 310.700,224.000 311.035,224.000 311.166 C 224.000 311.297,223.415 311.653,222.700 311.957 C 219.337 313.385,216.411 317.752,216.404 321.353 C 216.395 326.043,222.276 327.838,225.079 324.000 C 229.450 318.014,236.101 315.730,241.349 318.413 C 245.287 320.426,245.328 326.400,241.405 326.400 C 240.878 326.400,240.348 326.560,240.227 326.756 C 240.106 326.951,239.421 327.212,238.704 327.334 C 237.987 327.456,236.500 327.754,235.400 327.996 C 234.300 328.238,232.590 328.600,231.600 328.800 C 230.610 329.000,228.990 329.329,228.000 329.532 C 218.108 331.561,212.817 337.689,214.548 345.110 C 217.248 356.681,231.143 359.463,243.769 350.961 L 245.745 349.630 246.331 350.515 C 249.800 355.760,253.632 357.060,256.783 354.062 C 258.698 352.240,258.767 351.583,257.520 347.000 C 256.757 344.192,256.618 342.353,256.389 332.000 C 256.113 319.520,256.039 318.827,254.669 316.018 C 253.249 313.106,249.387 310.000,247.186 310.000 C 246.780 310.000,246.336 309.820,246.200 309.600 C 246.064 309.380,244.984 309.200,243.800 309.200 C 242.616 309.200,241.536 309.020,241.400 308.800 C 241.264 308.579,239.470 308.400,237.400 308.400 C 235.330 308.400,233.536 308.579,233.400 308.800 M363.000 308.800 C 362.864 309.020,361.784 309.200,360.600 309.200 C 359.416 309.200,358.336 309.380,358.200 309.600 C 358.064 309.820,357.539 310.000,357.033 310.000 C 352.491 310.000,344.944 317.792,343.279 324.200 C 343.050 325.080,342.669 326.541,342.432 327.446 C 339.577 338.333,347.180 352.141,357.542 354.890 C 377.427 360.165,392.322 344.490,386.895 324.000 C 385.297 317.967,377.542 310.000,373.268 310.000 C 372.816 310.000,372.336 309.820,372.200 309.600 C 372.064 309.380,370.894 309.200,369.600 309.200 C 368.306 309.200,367.136 309.020,367.000 308.800 C 366.864 308.580,365.964 308.400,365.000 308.400 C 364.036 308.400,363.136 308.580,363.000 308.800 M325.800 309.174 C 324.194 309.477,323.543 309.938,322.380 311.600 L 321.400 313.000 321.400 332.000 C 321.400 350.791,321.410 351.018,322.277 352.639 C 324.415 356.635,329.404 356.842,332.110 353.047 C 333.484 351.122,333.744 314.169,332.401 311.891 C 331.031 309.569,328.730 308.622,325.800 309.174 M130.054 319.810 C 134.498 322.935,136.997 332.747,134.809 338.482 C 132.456 344.649,129.778 346.800,124.453 346.800 C 115.013 346.800,110.252 334.592,115.463 323.747 C 117.993 318.481,125.343 316.498,130.054 319.810 M290.879 319.078 C 299.503 322.529,300.844 339.933,292.872 344.952 C 284.984 349.918,276.824 343.706,276.805 332.720 C 276.787 322.580,283.462 316.111,290.879 319.078 M369.013 318.980 C 369.776 319.298,371.001 320.018,371.737 320.579 C 372.916 321.478,373.516 322.438,375.351 326.361 C 376.022 327.796,375.940 337.588,375.244 339.039 C 374.938 339.678,374.398 340.796,374.044 341.523 C 370.427 348.956,359.427 348.647,355.823 341.012 C 350.012 328.701,358.469 314.574,369.013 318.980 M244.644 336.782 C 244.329 340.955,243.782 342.480,241.908 344.402 C 240.668 345.674,240.090 346.040,237.319 347.311 C 231.796 349.843,224.571 345.118,226.587 340.293 C 227.702 337.625,229.527 336.689,236.600 335.159 C 238.800 334.683,241.320 334.056,242.200 333.766 C 244.994 332.844,244.946 332.786,244.644 336.782 " stroke="none" fill="#040404" fill-rule="evenodd"></path></g></svg>