<?xml version="1.0" standalone="no"?>
<!DOCTYPE svg PUBLIC "-//W3C//DTD SVG 20010904//EN"
 "http://www.w3.org/TR/2001/REC-SVG-20010904/DTD/svg10.dtd">
<svg version="1.0" xmlns="http://www.w3.org/2000/svg"
 width="700.000000pt" height="700.000000pt" viewBox="0 0 700.000000 700.000000"
 preserveAspectRatio="xMidYMid meet">
<metadata>
Created by potrace 1.14, written by Peter Selinger 2001-2017
</metadata>
<g transform="translate(0.000000,700.000000) scale(0.100000,-0.100000)"
fill="#000000" stroke="none">
<path d="M1160 6040 c-35 -12 -74 -44 -175 -145 -142 -142 -148 -149 -249
-279 -81 -102 -116 -153 -116 -166 0 -4 -3 -10 -7 -12 -11 -4 -73 -101 -116
-178 -19 -36 -52 -94 -71 -130 -58 -103 -166 -335 -166 -355 0 -7 -11 -37 -24
-66 -26 -56 -101 -302 -109 -354 -3 -16 -9 -41 -14 -55 -5 -14 -9 -32 -8 -40
1 -8 -2 -22 -6 -31 -10 -19 -15 -51 -25 -134 -3 -33 -9 -69 -11 -80 -3 -11 -9
-49 -14 -85 -4 -36 -12 -85 -16 -110 -9 -60 -9 -470 0 -590 14 -167 16 -184
22 -215 3 -16 8 -48 11 -70 3 -22 8 -47 11 -55 8 -21 10 -29 18 -80 3 -25 8
-58 11 -75 7 -43 77 -283 118 -400 90 -261 237 -552 399 -789 177 -259 429
-536 522 -576 264 -113 543 171 416 423 -17 34 -52 85 -77 112 -26 28 -72 77
-102 110 -126 135 -309 400 -396 574 -115 228 -235 582 -270 791 -3 19 -8 51
-11 70 -24 135 -32 267 -30 474 2 127 5 249 9 271 3 22 8 60 11 85 3 25 7 52
10 60 2 8 6 31 9 50 3 19 21 98 41 175 125 495 320 863 655 1235 140 156 180
231 182 344 3 134 -56 223 -187 287 -61 29 -175 33 -245 9z"/>
<path d="M5621 6038 c-59 -22 -63 -25 -122 -79 -78 -73 -110 -196 -82 -314 17
-71 37 -100 157 -225 159 -166 267 -310 389 -521 117 -204 184 -363 257 -614
43 -149 53 -191 65 -280 3 -22 8 -51 10 -65 2 -14 7 -47 10 -75 3 -27 8 -75
12 -105 15 -116 6 -610 -11 -639 -2 -3 -7 -31 -10 -62 -4 -31 -9 -67 -11 -80
-3 -13 -8 -40 -11 -59 -32 -186 -130 -471 -234 -680 -119 -241 -233 -411 -401
-604 -168 -192 -196 -228 -213 -275 -21 -60 -23 -112 -7 -189 11 -50 23 -73
56 -110 96 -107 273 -148 391 -92 129 61 443 443 647 785 205 345 374 842 432
1265 3 25 8 61 11 80 25 183 24 585 -1 780 -23 185 -34 247 -72 410 -102 441
-282 839 -557 1230 -168 238 -374 468 -460 512 -59 30 -174 33 -245 6z"/>
<path d="M2115 5160 c-72 -15 -130 -52 -204 -129 -206 -212 -391 -504 -486
-765 -87 -241 -126 -463 -130 -746 -2 -180 5 -284 30 -435 30 -177 104 -392
203 -593 45 -90 163 -281 194 -313 7 -8 24 -27 36 -43 107 -139 209 -238 279
-272 193 -95 435 53 446 272 5 83 -23 158 -83 230 -183 218 -229 283 -300 424
-83 165 -133 333 -159 535 -10 70 -7 327 3 375 3 13 8 42 12 64 20 135 96 350
171 486 58 103 158 242 230 318 44 46 86 106 109 156 23 51 26 68 22 130 -8
121 -73 226 -169 273 -94 45 -123 50 -204 33z"/>
<path d="M4755 5155 c-40 -14 -125 -64 -151 -89 -12 -12 -30 -37 -40 -56 -11
-19 -22 -37 -25 -40 -20 -16 -29 -174 -14 -235 9 -34 49 -95 92 -140 50 -52
138 -158 182 -217 96 -133 209 -390 235 -538 3 -19 8 -46 11 -60 27 -134 24
-436 -6 -593 -5 -28 -12 -65 -15 -82 -6 -37 -41 -141 -57 -169 -6 -12 -10 -24
-9 -29 5 -19 -138 -278 -192 -348 -12 -15 -29 -37 -38 -50 -10 -13 -40 -49
-68 -79 -107 -115 -150 -201 -144 -293 4 -64 14 -117 23 -117 3 0 12 -13 19
-29 19 -44 82 -101 140 -128 99 -46 240 -36 322 24 117 85 341 379 452 593 92
176 190 471 212 635 3 22 9 63 13 90 5 28 8 160 8 295 0 189 -5 269 -19 350
-57 336 -171 616 -373 915 -156 231 -308 385 -379 385 -13 0 -26 5 -29 10 -8
13 -109 10 -150 -5z"/>
<path d="M3410 4457 c-3 -2 -27 -7 -55 -11 -113 -14 -249 -69 -370 -149 -136
-91 -291 -280 -362 -442 -84 -191 -92 -463 -22 -675 175 -527 820 -789 1324
-537 217 108 387 299 469 526 14 39 28 81 30 94 3 12 9 45 15 72 10 51 8 297
-3 350 -50 231 -211 476 -396 602 -93 63 -259 136 -336 147 -22 4 -51 9 -64
12 -38 7 -224 17 -230 11z m217 -677 c59 -26 91 -52 130 -108 112 -157 51
-378 -126 -461 -73 -34 -181 -35 -254 -2 -75 32 -152 116 -172 185 -71 243
196 486 422 386z"/>
</g>
</svg>
