<svg xmlns="http://www.w3.org/2000/svg" width="400" height="400"><g fill-rule="evenodd" stroke-miterlimit="10" data-paper-data="{&quot;isPaintingLayer&quot;:true}" style="mix-blend-mode:normal"><path fill="#fbf7f6" d="M136 157V67l37 21c4 2 4 2 2 6a54 54 0 0 0-2 6 150 150 0 0 0 3 121c1 4 1 4-4 6a973 973 0 0 0-36 21v-91m63-48 2-5 12 7 11 7c6 3 6 2 4 6l-2 6c-3 10-4 15-4 27 0 14 1 22 6 33 2 4 2 4-2 6l-25 14-3-7c-13-29-12-64 1-94m53 29c2-4 1-4 10 1a1219 1219 0 0 0 30 18l-3 3a406 406 0 0 1-35 20c-1 0-3-5-4-13v-19l2-10m-33 168c24-4 37 11 25 29a125 125 0 0 1-10 13h7c9 0 8-1 8 8v8h-42c-1-1 3-6 8-13l10-15c5-8 6-14 1-16h-14l-4-10c0-2 5-3 11-4m56 0c16-4 27 8 27 29 0 17-6 27-18 29-16 3-27-10-26-32 1-14 7-24 17-26m42 0c16-3 29 3 30 14 1 7-1 12-10 22l-5 6h15v16h-42a366 366 0 0 1 18-27c9-14 5-21-9-17-4 1-3 1-6-5-2-7-2-7 9-9m-276 1 10-1h10l1 2 1 4a330 330 0 0 0 5 22l2-7a626 626 0 0 1 4-17l1-4h9l9 1-1 3a384 384 0 0 0-9 31l-7 21c0 2 0 2-9 2l-9-1a294 294 0 0 1-9-29 1220 1220 0 0 1-8-27m67 0 10-1h9l2 5a1235 1235 0 0 1 16 53h-19l-1-1-1-4c0-2 0-3-6-3l-7 1h-2l-1 2-1 4v1H90l1-5a988 988 0 0 0 4-12l2-7a1637 1637 0 0 0 11-33m41-1h19v22l1 22 6 1h5v13h-31v-58m132 12c-4-2-5 2-5 17 0 13 1 17 4 17s4-5 4-17c0-10-1-16-3-17m-164 10a484 484 0 0 1-5 17h9v-1a91 91 0 0 0-2-10 72 72 0 0 0-2-6"/><path fill="#f90805" d="M0 200V0h400v400H0V200M153 76l-17-9v181l3-2a7227 7227 0 0 1 33-19c5-2 5-2 4-6a167 167 0 0 1-14-47v-28a150 150 0 0 1 15-56l-24-14m51 30c-3-2-3-2-5 3a119 119 0 0 0 2 101l25-14c4-2 4-2 2-6a90 90 0 0 1 0-66c2-4 2-3-4-6a1984 1984 0 0 1-20-12m58 33-8-4c-1 0-3 6-4 13v19c1 8 3 13 4 13a290 290 0 0 0 23-13 406 406 0 0 0 15-10 316 316 0 0 0-30-18m-29 167c-7-1-18 0-23 2-2 1-2 1 0 7 2 5 2 6 3 5h13c5 2 4 8-1 16a4724 4724 0 0 1-18 28h42v-8c0-9 1-8-8-8h-7l4-6c9-10 12-16 11-22-1-8-7-13-16-14m52 0c-15-4-26 7-27 26-1 22 10 35 26 32 12-2 18-12 18-29s-6-27-17-29m49 0c-9-2-27 0-27 4l3 10h4c14-4 18 3 9 17a68 68 0 0 0-5 6l-13 21h42v-16h-15l5-6c9-10 11-15 10-22s-5-12-13-14m-272 2-1-2H51c-10 0-10 0-10 2a2185 2185 0 0 0 17 55l9 1c9 0 9 0 9-2a2487 2487 0 0 0 17-55l-9-1h-9l-1 4a346 346 0 0 0-6 24 416 416 0 0 1-6-26m67 3-2-5h-9l-10 1a259 259 0 0 0-11 33l-2 7a407 407 0 0 0-5 17h17v-1l1-4 1-2h2l7-1c6 0 6 1 6 3l1 4 1 1h19l-4-15a892 892 0 0 1-12-38m39 17v-22h-19v58h31v-13h-5l-6-1-1-22m111-10c3-2 5 4 5 17 0 14-3 21-6 16s-3-31 1-33m-163 12c0-4 1-5 1-2l1 2a72 72 0 0 1 2 10l1 4v1h-9l1-6 3-9"/></g></svg>