<svg xmlns="http://www.w3.org/2000/svg" width="288" height="288"><g stroke-miterlimit="10" data-paper-data="{&quot;isPaintingLayer&quot;:true}" style="mix-blend-mode:normal"><path fill="#fbfbfb" d="M0 288V0h288v288z"/><path fill="#fbfbfb" d="M77.8 107.5a65.6 65.6 0 0 0-10 0 29.6 29.6 0 0 0-9 2.3A36.9 36.9 0 0 0 43.2 121a58.5 58.5 0 0 1-1.8 2.3 41 41 0 0 0-5.8 12.7 44.2 44.2 0 0 0 .6 21 55.7 55.7 0 0 0 3 7 38.3 38.3 0 0 0 36.6 19.7c3.5-1 4.6-5 2.2-7.7-1-1.2-1.8-1.4-4.1-1.4a29.5 29.5 0 0 1-29.2-22 28.8 28.8 0 0 1 50.8-25l.9 1c.2 0 .4-.6.4-1 0-.8 1-2.5 1.7-3 1.3-1 1.5-1.1 3.6-1.1h1.9a37.7 37.7 0 0 0-22.5-15.3l-1.6-.5zm-3 17.4a7 7 0 0 0-6.2 1.2 10 10 0 0 0-2.4 3.8l-.4 1.1a24 24 0 0 1-1 2.8 62.6 62.6 0 0 1-1.9 5 95.6 95.6 0 0 1-2.6 7.2 116.6 116.6 0 0 1-2.8 7.8 48.8 48.8 0 0 1-1.3 3.8c-1.6 3.7 1 7.1 4.9 6.5 1.6-.2 2.8-1.8 3.6-4.4a52 52 0 0 1 .6-2.6c0-.8 0-.8 7.5-.8 8 0 7.2-.1 7.8 1.7a100.6 100.6 0 0 0 2.2 6.2 537.8 537.8 0 0 0 3.4 9.7c1.8 5.3 5 6 9.8 2.2 2.6-2.2 4.2-3.6 5.7-5.5l1-1.2c2.4-2.7 5-7.9 6.4-12 1.4-4.7 1.5-4.2-.6-6.4l-.6-.8c-.7-.9-.7-.6-.7 4.1 0 6-.3 7.6-1.7 9.3-2.2 2.6-6.8 2-8.1-1-.4-.8-.7-.8-1.5.4-1 1.4-2.7 3.2-3 3.2-.2 0-.4-.3-.6-1l-.5-1.3-.3-.8a27.6 27.6 0 0 0-1.2-3.5 20.8 20.8 0 0 0-.9-2.3 23 23 0 0 0-.7-2 101.6 101.6 0 0 1-2-5.6 101.6 101.6 0 0 1-2.6-7 2327 2327 0 0 1-4.6-12.6l-.4-1.1zm139.3 0c-.6-.3-3.3-.3-4.1 0-2 .7-3.7 2.8-4.6 5.5a79.5 79.5 0 0 1-1.7 4.8 123.8 123.8 0 0 1-3.3 9.4c0 .3-.2.6-.6 1.5 0 .3-.3.9-.5 1.4a171 171 0 0 1-3.1 9c-1.7 4-.7 7.1 2.5 7.8 2.4.6 4-1 5.3-5l.8-2.3.2-.5h6.6c7.5 0 6.8-.2 7.4 1.8 1.1 4.4 2.6 6.2 5 6.2 2.7 0 4.6-2.2 4.3-4.9a175.5 175.5 0 0 0-5.9-17.7 302.2 302.2 0 0 0-3.9-11.5c0-1.2-2.3-4.4-3.6-5zm-49.1 0c-2.3-.7-4.4.3-5.3 2.6-.4 1.3-.5 22.6 0 24.7a19.7 19.7 0 0 0 3 7.3c.4.7 2.4 2.7 3.1 3 3.8 2 5 2.4 9.4 2.4 3.3 0 5.1-.3 7.1-1.1 5.1-2.2 7.7-5.9 8.8-12.9.4-2.4.4-21 0-22.5-1.1-4.2-6-5.2-7.7-1.5-.6 1.4-.6 1.5-.7 12.1-.2 11.5-.2 11.6-1.3 13.9-2.3 4.8-10 4.8-12.2 0-1.2-2.5-1.2-2.7-1.2-12.8zm-61.5.1c-1.5-.8-4-.1-5 1.4s-1 1.3-1 18.2c0 16.3 0 16 .8 17.7 1.2 2.7 5.7 2.7 7 0 .7-1.5.7-1.7.8-8.5l.1-6.7.5.6a212.5 212.5 0 0 1 4.6 5.1 589.1 589.1 0 0 0 5.4 6.3c3.9 4.4 4.8 5.2 6.6 5.2 2 0 4-2 4-4 0-.6-.5-2.2-.7-2.3l-.1-.2a17 17 0 0 0-2.6-3.4 1262.2 1262.2 0 0 1-9.5-10.7c-.5-.6-.5-.6 1-2.2l8.6-9.2c1.2-1.3 1.7-3.6 1-5-.4-.9-1.1-1.8-1.4-1.8l-.3-.1c0-.2-1.2-.6-2-.6-1.3 0-3 1.2-5 3.5a77.5 77.5 0 0 1-4 4.8l-3.5 4-2.6 3v-5.6zm48.7.4a207 207 0 0 0-19.6 0c-2.7.6-3.8 1.8-3.8 4 0 2.8 1.7 4 6.4 4l2.7.2.1 13.4c.1 13.5.1 14.2.7 15.3 1.3 2.5 5.1 2.8 6.7.5 1.1-1.5 1.1-1.1 1.1-15.8v-13.3l.5-.1 3-.2c4.1 0 5.7-1.2 5.7-4zm85.3-.5c-2-.6-4 .2-4.9 2l-.5 1c-.1.4-.2 5.2-.2 16.6v16.1l.5 1c1 2 2.5 2.4 10 2.4 9.6 0 12-1.1 11-5.2-.5-2.6-2.4-3.3-9.5-3.3h-3.4V128.8l-.5-1.2zM162.7 105a24 24 0 0 0-6.6.1c-.8.5-1 1.2-1 7.6 0 7.7 0 7.5 3.6 7.6 5.8.2 8-1.3 9-5.8zm-27.3 0c-1.2-.3-5.4-.2-6 .2-.9.5-.9.8-.9 7.5 0 7.3.1 7.8 1.8 7.8 1.2 0 1.7-1 1.7-3.7l.1-2s1 1 2.1 2.5c2.7 3.4 3.6 4 4.7 2.7.9-1 .6-1.8-1.7-4.5-1.3-1.5-1.4-1.8-.9-1.8 1 0 2.3-1.4 2.7-2.6zm12.8 0c-2-1.3-3.3-.1-4.9 4.5a246.7 246.7 0 0 1-2.3 6.6c-1.1 2.6-.8 4.4.9 4.4 1 0 1.3-.5 2-2.4l.3-.8h2.6l2.6.1.4 1.1c1 2.7 4.2 2.6 3.6-.2a61.2 61.2 0 0 0-2.3-6.9l-.4-1.3-.7-2zm38.4 0c-.9-.5-4-.6-5.1-.3a746.7 746.7 0 0 0-1.7.8c-.4 0-2.1 2-2.6 2.9-3.3 7.3 3 14.8 9.8 11.6l-.2-5.3c-.7 2.2-2.7 3.2-4.6 2.2l.6-9c1.9-.3 3.3.5 4 2zm-13.4-.2c-1.1-.5-2.2 0-2.5 1.4-.3 1.3-.2 12.7.1 13.3.5 1 1.5 1.3 2.4.7.8-.5.8-.6.8-7.6zm-65.2 26c-.8-2-.8-1.8-.8 2.4 0 3.1 0 3.6.2 3.6h.3c0-.2.3-.6.8-1.1 1-1.2 1-1.2.2-3.3zm78.7-20.8.1 4.7c.2-.5.3-1 .3-1.6.1-1.2 0-2.3-.4-3.1z"/><path fill="#10389d" fill-rule="evenodd" d="M71 125c3.2-1 6.7.9 8.2 4.6l.6 1.6a122.9 122.9 0 0 1 2.6 7.3 370.7 370.7 0 0 0 3.2 8.6l.8 2.4a50.7 50.7 0 0 0 1.2 3.1l.8 2.4a50.7 50.7 0 0 0 1.2 3.1l.8 2.4a50.7 50.7 0 0 0 2.8 7c0 .3.3.8.4 1l.4 1.2.4.9.1.5c0 .2 0 .4.2.5l.4 1c.2.9.5 1.6 1 2.4.2.6 0 1-1.4 1.8l-.7.5c-.4.6-2.2 1.1-3.2 1-2.3-.3-3.2-1-4.1-3.5a51.3 51.3 0 0 0-1-2.8 54.3 54.3 0 0 0-5.5-15.6c-.3-.3-14.4-.3-14.7 0l-.5 1.5a17.8 17.8 0 0 1-1 3.3c0 1.3-2 2.8-3.8 2.8-3.8 0-5.3-3.1-3.5-7.4a93.3 93.3 0 0 0 2-5.5 102.2 102.2 0 0 0 2-5.5 136.2 136.2 0 0 0 3-8.2c.7-2.3.9-2.7 1-2.8l.1-.5.2-.5.6-1.7c1.6-4.6 2.7-6 5.3-6.9m29.6 0c1.8-.6 3.6 0 4.6 1.7.8 1.4.9 2.6.9 8.2l.1 5.3a318.1 318.1 0 0 1 9.6-11c3.7-4.4 6.3-5.3 8.4-3 2 2 1.4 4.4-1.9 7.9a79.5 79.5 0 0 0-8.4 9l.2.4a145 145 0 0 1 6 6.7 108.9 108.9 0 0 1 3.3 3.8c4.3 4.7 4.8 6.7 2.6 9-2 2-4.2 1.5-7-1.8a69.6 69.6 0 0 0-3.6-4 907.2 907.2 0 0 0-8.7-10c-.6-.6-.6-.3-.6 6 0 8.9-.5 10.5-3.4 10.9-2.6.4-4-.6-4.7-3.4-.3-1.3-.3-31 0-32.4.4-1.8 1.2-2.7 2.6-3.2m61.7 0a4 4 0 0 1 4.6 1.4c.9 1.5.9 1.7 1 13a132.6 132.6 0 0 0 .6 11.8c1.2 6.2 10.5 7.3 13.2 1.5 1.1-2.3 1.1-2.4 1.2-13.8.1-10.4.2-10.7.8-12 1.2-2.7 5.3-2.8 6.7-.3.8 1.5.9 2 .9 12.6 0 9.8 0 10.8-.6 13.5-2 9.8-10.2 14-21.3 11.2-4.8-1.2-8.1-5.4-9.5-12.2-.4-2-.3-23.1.1-24.3.4-1 1.4-2.2 2.3-2.5m47.4.3a6 6 0 0 1 6.6 1.3c1.2 1.2 2.2 3.4 3 6.2a178.1 178.1 0 0 0 3 8.7 211.5 211.5 0 0 1 5.9 18.8c0 2.1-.8 3.2-2.7 3.8-3.2 1-5-.8-6.4-6.3-.4-1.4.2-1.3-7.4-1.3h-6.8l-.8 2.4c-1.5 4.5-2.8 5.8-5.4 5.2-2.6-.6-3.8-3.4-2.7-6.4a1000.8 1000.8 0 0 1 6.8-19.1 93.4 93.4 0 0 0 3-8.4c0-.2 0-.4.2-.5l.1-.3c0-1 2.1-3.4 3.6-4.1m25.1-.2c2.5-.9 4.7.5 5.4 3.2 0 .5.2 6.2.2 14l.1 13.3 4.3.1c4.8.1 5.7.2 6.9.8 2.3 1.1 2.5 5 .2 6.3-1.1.7-1.6.8-9.3.8-11.7 0-10.5 2-10.5-19.4v-15.8l.5-1a4 4 0 0 1 2.2-2.3m-102.2.5a216 216 0 0 1 19.3 0c2.5.4 3.8 1.6 3.7 3.7 0 3-1.4 3.8-6 4l-3 .1v13.4c-.1 14.2-.1 14-.9 15.5-1.3 2.6-5.4 2.5-6.7 0-.8-1.7-.8-1.9-.9-15.8v-13l-2.8-.2c-4.5-.1-6-1-6.2-3.6-.1-2.2 1-3.5 3.5-4.1m-58.7 11.2c-.9-2.8-1-2.9-1.6-1a149 149 0 0 1-2.2 7l-1.3 4c-.6 1.8-.9 1.7 4.1 1.7 5.2 0 5 .2 3.9-2.8a129.6 129.6 0 0 1-2.9-9m138.6-.7c-.6-2-.6-2-1.7 1.3a50.3 50.3 0 0 1-1.3 4 733 733 0 0 1-2.1 7c0 .1 2 .2 4.4.2h4.3v-.4c0-.2 0-.6-.2-.8a183 183 0 0 1-3.4-11.3"/><path fill="#fbfbfb" d="M72.7 135c.2-.2.5-.2.5 0s.2 1.1.6 2.1a664.8 664.8 0 0 1 3.2 10.2c.4 1 .6 1-4.2 1-3.2 0-4.3 0-4.3-.2l.4-1.3a175.7 175.7 0 0 0 3-9.2l.4-1.3zM211.1 136.6c.7-2 .7-2 1-1a43.2 43.2 0 0 0 1.3 4.3 274.4 274.4 0 0 1 2.4 8.2c0 .2-.8.2-4.2.2-4 0-4.3 0-4.2-.3a59.8 59.8 0 0 0 1.3-3.8l1-3zM159 108.3c.3-.4 3 0 3.8.6 1 .8 1.3 1.6 1.3 3.6 0 3.1-1.2 4.3-4 4.3h-1.3v-4.2zM132 108.4c.3-.6 2.6-.2 3.2.5 1 1.2 0 2.7-1.8 2.7H132V110zM146.7 109.4c.2-.3.4-.2.5.4l.3 1c0 .4.3 1 .4 1.5.6 1.9.7 1.7-1 1.7-1.4 0-1.6 0-1.6-.3z"/><path fill="#68b845" fill-rule="evenodd" d="M181.5 104.7c2-.6 4.9-.1 6.6 1.2 4.4 3.2 3.7 11.9-1.1 14.1-6.9 3.2-13.1-4.3-9.7-11.6.4-1 2-2.9 2.5-2.9l.2-.1.4-.3 1.1-.4m-35.8.2c1.7-1 3.2 0 4.3 3.3a56 56 0 0 0 1.8 5.4l1.6 4.7c.6 2.8-2.7 3-3.6.2l-.4-1-2.6-.1h-2.6l-.3.7c-.7 2-1 2.4-2 2.4-1.7 0-2-1.8-.9-4.4l.4-1.1a213.4 213.4 0 0 1 2-5.5c1-3 1.5-4 2.3-4.6m25.6.1c.8-.6 2-.4 2.4.5.4.6.4 13.4.1 14-.4.9-1.7 1.3-2.4.7-.8-.6-.8-.8-.9-7.1 0-6.6 0-7.5.8-8.1m-41.9.2c1.8-1.2 7.7-.1 8.9 1.5 1.8 2.5.5 7-2 7-.5 0-.4.3 1 1.8 2.2 2.7 2.5 3.4 1.6 4.5-1 1.3-2 .7-4.7-2.7-1-1.5-2-2.6-2-2.5-.2 0-.2 1-.2 2 0 2.7-.5 3.7-1.8 3.7-1.6 0-1.7-.5-1.7-7.8 0-6.7 0-7 .9-7.5m26.7-.1a24 24 0 0 1 6.6 0c1.7.3 3 1.3 4 2.8 2 3 1.6 8-.6 10.3-1.6 1.6-3.6 2.2-7.4 2.1-3.6 0-3.5.1-3.5-7.6 0-6.4 0-7.1 1-7.6m-87.4 2.2c1.1-.3 8.8 0 11.1.5l1.6.4a52.4 52.4 0 0 1 5 1.6 37.7 37.7 0 0 1 17.5 13.7l-1.9.1c-2 0-2.3 0-3.6 1-.7.6-1.7 2.3-1.7 3 0 .5-.2 1-.4 1l-1-1a30.6 30.6 0 0 0-8.2-7.1 28.8 28.8 0 0 0-42.5 32.2 29.1 29.1 0 0 0 29.2 22c2.3 0 3 .2 4.1 1.4a4.6 4.6 0 0 1-2.2 7.7A38.3 38.3 0 0 1 41.7 123l.3-.5 1.2-1.5a41.5 41.5 0 0 1 9.3-8.2 36.9 36.9 0 0 1 16.3-5.6m116.7 1c-3-1.8-5.9 1.2-5.2 5.5.5 2.8 2.7 4.2 5 3 2.4-1.2 2.6-7 .2-8.4m-51 0c-.7-.3-2.3-.3-2.4 0v3.2h1.3c2.3 0 3-2.4 1-3.2m26.9 0c-1.1-.3-2.2-.3-2.4-.1v8.5h1.2c2.8 0 4-1.2 4-4.3 0-2.7-.8-3.7-2.8-4.1m-14 1.4c-.3-1.1-.6-.7-1.4 1.7-.8 2.7-.9 2.5 1 2.5 1.7 0 1.6.2 1-1.7a1582.3 1582.3 0 0 0-.7-2.5m-75 15H73.4h-1.4m28.5 0a5 5 0 0 1 1.2-.1c.7 0 .7 0-.2.1-1.4.2-2.4.8-3 1.9l-.6.7c0-.8 1.5-2.2 2.6-2.6m62.6 0h.8a3 3 0 0 1-.8 0m24 0h-1l.8-.1c1.7 0 3.8 1.5 3.8 2.9l-.4-.7c-.7-1.3-1.5-1.8-3.2-2m24.9 0-1.5-.2h1.6c1.1 0 1.7.1 1.8.3.2.2.2.2 0 0l-2-.2m22.8.1 1.4-.2h.7l-.9.1c-1.7.3-2.7 1-3.4 2.3-.1.4-.3.6-.3.4 0-.8 1.3-2.2 2.5-2.6m-164.3.1.6-.2h.3l-.3.2c-.5.2-1 .2-.6 0m4 0c-.1 0-.2-.1 0-.1l.6.1c.2 0 .2.1 0 .1l-.5-.1m28.3 0c-.3-.1-.3-.1 0-.2l.5.2c.1.2 0 .2-.5 0m17.5 0 1-.2c.5 0 1 0 1 .2h-2m65 0 .5-.2c.3 0 .3 0 0 .2-.4.2-.6.2-.5 0m24 .2 1-.4-.8.5a6.8 6.8 0 0 0-3 2.8c-.2.5-.5.9-.6.8-.3-.3 2.1-3 3.5-3.7m-140 .2c.6-.3.8-.3.4 0l-.5.3c-.5 0-2 2-2.6 3.1-.6 1.4-.8 1.8-.8 1.5 0-.2 0-.3.2-.4l.1-.4c0-.9 2-3.3 3.3-4.1m6.5.2c-.8-.5-.7-.6 0-.1 1.1.6 3 2.7 2.7 3l-.5-.7a7 7 0 0 0-2.2-2.2m28.1 0-.4-.4c.4 0 1.9 2 1.9 2.5l-.5-.7c-.2-.4-.6-1-1-1.3m15.1-.2c1-.6.7-.3-.2.3l-1 .7 1.2-1m13.7-.2c.6-.2 18.2-.1 19 .1l1 .3-1-.2h-10c-5.1 0-9.2-.1-9-.2m27.7.6c.4-.4.7-.7.9-.7l-.4.4-.9 1-.3.3.7-1m5.2-.4-.3-.3c.6 0 2 2.3 2 3.3 0 .3 0 .1-.2-.5-.3-1-.9-2-1.5-2.5m18.4.3c.3-.4.6-.6.7-.6l-.5.6c-.8.7-1 1.2-1.4 2.6-.1.6-.2.8-.3.6 0-1 .7-2.4 1.5-3.2m30-.6h.2l.7.4.5.4-.6-.4-.8-.4m-90.3.8-.4-.5c.3 0 1 1 1.4 1.7.4 1 .4 2.5 0 3.4-.4 1-.6 1-.2 0 .7-1.5.3-3.4-.8-4.6m7.3-.2.9-.3c.3 0 .3 0-.1.2l-.8.2c-.3 0-.2 0 0-.1m21.7 0c0-.2.2-.1 1 .3.8.5 1.7 1.7 1.6 2.5v-.1c-.3-1-1-2-1.8-2.3l-.8-.5m86 .4c-.3-.3-.2-.3.1 0 .3.2.5.6.7.9.3.8.2.9-.2 0l-.6-1m-109 .6.7-.6c.1 0-.1.3-.5.6-1 .8-1.3 1.7-1.2 3.2.1.6 0 1 0 .8-.6-.8 0-3 1-4m86-.4c-.1-.2.2 0 .6.5l.7 1-.2-.1a15 15 0 0 0-.6-.8l-.6-.6m-98.7 1 .7-.5-.6.8a46.7 46.7 0 0 0-3.6 4.2 58 58 0 0 1-3.1 3.6 318.1 318.1 0 0 0-4.5 5v-9.5 4.6l.2 4.7 2.5-3a935.5 935.5 0 0 1 8.4-9.8m42.5.4c0-.3.2-.5.2-.5v.3l-.2 1c-.1.5-.2.5-.2.1 0-.2 0-.6.2-1m-62 .9c0-.5.2-.8.2-.8v1a826 826 0 0 0-.2-.2m93.2-.4v-.3l.1.3.1.7v.3l-.1-.3a2 2 0 0 1-.1-.7m41.2-.2c.2-.1.2 0 0 .5 0 .5 0 .5 0 0v-.5m-126.4.3v-.3l.1.3.2.8v.4l-.2-.4-.1-.8m112.1 1-.3-1.1.6 1.2a48.6 48.6 0 0 0-.3-.2m22.2-.8c0-.3 0-.4.2 0l.1.7c0 .4 0 .4-.1 0l-.2-.7m-161.2.4c0-.2.5.7.5 1l-.2-.3-.3-.7m89 9.6a138.5 138.5 0 0 1 .2 1.4 311 311 0 0 1-.2-1.4m-8.4 1.9V129l.1 11m31.7-.9v-10.1l.1 9.9c0 9-.1 14.2-.4 12.4v-1.2c.2-.6.3-4.6.3-11m14.6-10h.1v.5a17.9 17.9 0 0 0-.7 1.5l.3-1 .3-1m-98.6 4c0-4.2 0-4.3.8-2.4l.7 1.6c.8 2.1.8 2.1-.2 3.3l-.8 1-.3.1c-.2 0-.2-.5-.2-3.6m133.2 9.4v-13 13l.1 12.9H247.8h-7.4v-13m-84.9-12.4v-.5l.1.5c.1.8-1.3 2.7-2 2.7l.6-.5c.8-.6 1.3-1.4 1.3-2.2m76.4 14.6V137a1516.7 1516.7 0 0 1 0 7.6M79.5 130.5v-.4l.2.4.2.8c.1.3.1.3 0 0l-.4-.8m-13.8.7.2-.4-.1.7c-.3.7-.4.4-.1-.3m117 8.3v-8.8 9a107.2 107.2 0 0 1 0-.2m-53.5-8.4.4.4c.2.4.6.8 1 1 .2 0 .4.2.3.3-.2.2-1.7-1.3-1.7-1.7m-5.2.9c.2-.3.4-.5.5-.4 0 0-.5.9-.7.9l.2-.5m-44-.2.3.3.2.8-.3-.4-.2-.7m-14.8.7c0-.2.2-.3.2-.3v.3c-.2.8-.4 1.2-.5 1.1v-.5l.3-.6m139.3.5.3-.6-.6 2c-.2.2-.2.2-.2 0l.1-.5.4-.9m14.7-.3v-.2c.2.2.8 2.2.8 2.3-.1 0-.8-1.8-.8-2.1m-97 1.4 1.4-1.4-8.3 8.8c-1.4 1.6-1.4 1.6-1 2.2l2.4 2.8-1-1a126.1 126.1 0 0 0-1.9-2.4c0-.2.2-.3 8.4-9m9.1-1.1c-.2-.1-.2-.2 0-.2l.5.2c.3.1.3.2 0 .2l-.5-.2m-66.8 1.5c.1-.4.3-.6.3-.5l-.1.6-.4.9c-.1.3-.2.5-.3.4l.1-.4.4-1m16.3-.4s0-.1.1 0l.8 2-.9-2m-8.2.5h.6l-.3.3c-.2.1-.4.6-.5 1-.2.6-.3 1-.4.9l.6-2.2m138.8.7c.3-.7.6-1 .6-.6l-.1.1-.6 1.2-.4 1v-.5c.2-.2.4-.8.5-1.2m-8 .7a5 5 0 0 1 .6-1.3l-1.1 3.1.5-1.8m-130.2-1 .4 1c.2.7.4 1.3.3 1.4l-.7-2.3m146.8 0c0-.3.1 0 .5 1l.3 1.2-.8-2.2m-7.7 1s.2.1.3.5c.3.8.3 1.1 0 .4l-.3-.8m-148.6.7c0-.4.2-.7.3-.7 0 .1-.8 2.7-1 2.9-.2.1-.2 0 0-.2l.1-.7.2-.4.4-1m18.3.5.3.3.2.8-.3-.4-.2-.7m128.5.7.3-.6-.6 2c0 .3-.2.4-.2.2 0-.1 0-.4.2-.6l.3-1m10.3-.4.1-.1c.1 0 .8 2.2.7 2.3l-.8-2.2m-146.7.4c0-.3 0-.2.1.1l.3 1s0 .3.2.3l.1.5c0 .5-.3-.2-.7-1.9m-2.9 1 .4-1s0 .5-.3 1.2l-.4 1s0-.5.3-1.2m141.6-1c0-.5.3.1.7 1.4.5 1.8.6 2.5 0 1l-.7-2.5m-150.1 1.6v.5l-.4 1c0 .3-.2.5-.2.5l.2-1 .4-1m20.1.1s0-.1.1 0l.8 2-.9-2m126.5 2 .6-1.5-.4 1.6-.6 1.6.4-1.7m-134.5-1.2a40.7 40.7 0 0 0 0 0m127 0h.1l-.2 1a26.7 26.7 0 0 0-.8 2l.4-1.5.5-1.5m20.2.7c0-.3 0-.2.3.2.1.3.2.7.1.9v-.1l-.2-.5-.2-.5m-151.7.7c0-.2.1-.3.2-.1l-.3.8-.1.2.2-.9m-8.9 1.2a5 5 0 0 1 .6-1.3l-1.1 3.1.5-1.8m22.6-.2.3.3.2.8-.3-.4-.2-.7m130.3 0s.2 0 .3.4c.3 1 .3 1.2 0 .5l-.3-.8m8.5.5h.1c.1 0 .8 2.1.7 2.2l-.8-2.2m-22.3.7c.1-.3.3-.4.3-.3l-.1.4a1 1 0 0 0-.2.5c0 .2 0 .3-.1.2l.1-.8m-124.5 0 .3.4.2.8c0 .2-.1 0-.3-.4l-.2-.8m-6.8 1.3.4-1.2s0 .6-.3 1.3l-.4 1.1s0-.6.3-1.2m139.1-.6c0-.2.1-.3.2-.1l-.3.8-.1.2.2-.9m6.5-.1c0-.3 0-.3.2 0l.2.5c0 .2 0 .2-.2 0l-.2-.5m-154.1.3v.5l-.4 1c0 .3-.2.5-.2.5l.2-1 .4-1m24.1.2c0-.3 0-.3.2 0 .2.4.7 1.8.6 1.9l-.3-.6c0-.4-.3-.8-.3-1l-.2-.3m130.4.5c0-.4.8 2 .8 2.4v.4h-4.3l-4.4-.1 4.2-.1c4.9 0 4.5.2 4-1.4l-.3-1.2m-138.7 0h.2l.1.5c0 .4-.3 0-.3-.4m123.3.2h.1v.5a18.2 18.2 0 0 0-.7 1.6l.3-1.1.3-1m8 .5.1-.3v.5c0 .2-.1.3-.2.2v-.4M77 147c0-.3 0-.2.2.1.6 1.3.7 1.3-4.2 1.4-5 0-4.8 0-4.3-1.1l.1-.2-.1.8-.1.3h8.7v-.4l-.3-.9m40.4.3-.4-.6 1.4 1.4a104.5 104.5 0 0 0 5 5.8l-1.2-1.3a272.7 272.7 0 0 0-4.8-5.3m-11.2-.4.4.2a597.7 597.7 0 0 1 2.9 3.3l3.8 4.3a40.6 40.6 0 0 1-2-1.9 129.2 129.2 0 0 0-3.9-4.4l-1-1.3-.1 5.6-.1 5.6V146.8m-46.7 1.6a5 5 0 0 1 .6-1.3l-1.1 3.1.5-1.8m26.6-.2.3.3.2.8-.3-.4-.2-.7m112.5 1.7.3-.8c0 .1-.4 1.6-.7 2 0 .2-.1.2 0-.1l.4-1.1m26.3-.8c0-.2.2.1.7 1.6l.4 1.6-1-3.2m-56.8.6c0-.4 0-.4.1.3l.3 1.2c0 .4-.3-.7-.4-1.5m-60.8 0a47 47 0 0 0 2.3 2.4c.8.9.8 1-.5 5.1a36.6 36.6 0 0 1-6.3 12l-1 1.3a41.5 41.5 0 0 1-7 6.2c1.2-.8 1.5-1.2 1.2-1.8l-1-2.4c0-.5-.3-1-.3-1l-.2-.5-.1-.5-.4-1-.4-1.1-.4-1-.5-1c-.2-.3-.2-.3 0-.3.5 0 2-1.7 3.2-3.2.8-1.2 1.1-1.2 1.5-.4 1.3 3 6 3.6 8 1 1.5-1.7 1.8-3.3 1.8-9.3v-4.5m75.2.4v-.3.6-.3m-123.7.3v.5l-.4 1c0 .3-.2.5-.2.5l.2-1 .4-1m28.1.2c0-.3 0-.3.2 0 .2.4.7 1.8.6 1.9l-.3-.6c0-.4-.3-.8-.3-1l-.2-.3m95.3.5c0-.2.1-.4.2-.3v.4l-.2.3v-.4m15.6 1c.3-1 .3-.4 0 .6l-.5 1 .1-.6.4-1m-16.3.6c.3-.5.5-1 .6-.9.5.5-2.6 4.1-3.5 4.1-.2 0 .1-.2.6-.5 1-.6 1.7-1.4 2.3-2.7m9 .5.4-1c0 .3-.6 2.9-.8 3l.4-2m-21.6-.7c0-.3.2 0 .4.4.4.8 1.4 2 2.3 2.4l.6.6c-.4.3-3.3-2.7-3.3-3.4M57.4 154a5 5 0 0 1 .6-1.3l-1.1 3.1.5-1.8m168.6-1.3.5 1.1.3 1.1-.8-2.2m-66 .9v-.3l.2.3c.2.5.2.9 0 .6l-.2-.6m-72 .2.3.3.2.8-.3-.4-.2-.7m35.5.3.9.9c1 1 2.1 2.5 2.1 2.8l-.5-.7a29.4 29.4 0 0 0-2.5-3m36.8.6a116.4 116.4 0 0 0 0 0m36.2.7.3-.4s0 .4-.2.7c-.3.7-.3.5 0-.3m30.2-.1.1-.1.7 2.2-.8-2.1m-37.3 1.2.4-1c.4.4-1.8 4-3 5.3-1 1-3 2.5-3.2 2.3l.8-.5c1.8-1.1 4-3.9 5-6.1m59.4-.7-.7-.1h.7l1.1.1.4.2h-.4c-.2 0-.7 0-1-.2m-192.5.7c.1-.3.3-.5.3-.3l-.1.3a1 1 0 0 0-.2.6c0 .2 0 .2-.1.1l.1-.7m32.3-.3c0-.3 0-.3.2 0 .2.4.7 1.8.6 1.9l-.3-.6c0-.4-.3-.8-.3-1l-.2-.3m84 0c-.3-.1-.4-.2-.1-.1l1.2.2.8.2h-.6c-.4 0-1-.1-1.3-.3m4.6 0c.8-.2 1-.2.3 0-.2.2-1 .3-1.7.3l-1.3.1 1.1-.1 1.6-.3m74 .2c-1-.5-.9-.5.2 0 .4.1.8.5 1 .7.3.3.3.3 0 0l-1.2-.7m-185.9 0c.3-.3 14.3-.3 14.6 0a85.2 85.2 0 0 0-14.6 0m139.2.4c0-.2.2-.3.2-.3.1 0-.1.7-.3.8v-.5m13.8 0c-.2-.2-.2-.3-.1-.3.3 0 .5.4.5.7v.1l-.4-.5m-57.2 0 .4.7c.2.4.4.7.3.8l-.7-1.4m-96.2.9.3-.7-.1.8-.3.7.1-.8m15.3-.7c0-.1.2 0 .3.4l.2.7-.2-.3-.3-.8m115.4.7c.1-.4.2-.6.3-.5 0 .1 0 .3-.2.5l-.2.9v.1-1m8.7 0c0-.2.1-.3.2-.1l-.3.8-.1.2.2-.9m48.6-.1c-.1-.2-.1-.3.1 0 1.2.9.5 4.5-1 5.2-.4.2-.4.2-.3 0 1.7-1 2.3-3.8 1.2-5.2m-34 .1.1.1.1.6c0 .2 0 .1-.1 0l-.1-.7m-72.5 1.2v-1.3 1.3c.1 1.4-.2 2.7-.9 3.8-.5.6-1.3 1.3-1.4 1.1l.3-.2c1.1-.7 1.9-2.5 2-4.7m-8.4.2c0-1.4 0-1.3.2.3v1a4 4 0 0 1-.2-1.3m-82.2-.2c.1-.7.1-.7.1 1 0 .7 0 1.2-.1 1-.1-.3-.2-1.3 0-2m25-.3v-.2c.3.2 1.2 3 1.2 3.1l-1.1-2.8m46 .2c0-.3 0-.3.2 0l.2 1.2c0 .4 0 1-.2 1.2-.2.4-.2.4-.1.1a5.8 5.8 0 0 0 0-2.5m101 1.1c0-.9.1-1.3.2-1v2.3l-.1-1.3m-9-1.1c0-.2.3.3.5 1 .2.6.4 1.2.3 1.3l-.7-2.3m-154.7.7.3-.6-.5 1.8-.3.4.1-.5.4-1m98.1-.3-.3-.6.5.6c.6.8 1.8 2 2.5 2.5.4.3.5.5.4.5-.3 0-2.8-2.4-3-3m-72.7-.2c0-.3.5.7.5 1 0 .2-.1 0-.3-.3l-.2-.7m27.9 1a5 5 0 0 1-1-1.1 19 19 0 0 1 2.4 2.7l-1.4-1.5m85.6-.1.4-1c.1 0-.5 1.9-.8 2.4 0 .2-.2.3-.2.2v-.3c.2 0 .4-.7.6-1.3m-8.1-.2v-.5.9-.4m-89.7.5c.1-.6.2-.9.3-.6.1 1.2-1.6 4-2.4 4l.1-.2c1.1-.7 1.7-1.6 2-3.2m126.3-.2c0-.2 0-.2.1 0m-93.7.7v-.3.3c0 .3.3.8.5 1.2l.4.8c-.1.1-1-1.6-1-2m57.2.2v-.4l.1.4.2.6.2.3-.3-.1-.2-.8m-139.5.3.5.6c.4.4 1 1 1.5 1.3l.7.5c-.6 0-2.7-1.9-2.7-2.4m7.4.7c.3-.4.5-.8.6-.7l-.5.8c-.5.8-1.6 1.7-1.8 1.6l.5-.5c.4-.2.9-.7 1.2-1.2m27.4-.6c0-.3 0-.3.2 0 .2.4.7 1.8.6 1.9l-.3-.6c0-.4-.3-.8-.3-1l-.2-.3m7.2 0c0-.2.2 0 .3.4l1 1.3.5.5c-.7-.4-1.8-1.8-1.8-2.3m122 0c0-.2.2 0 .6.6l1 1.3.5.5c-.3 0-2.1-2-2.1-2.4m-100.5.5.8.6 1.2 1c.2 0 .3.2.3.2-.2.2-2.3-1.5-2.3-1.8m6.4.8c1-1 1.2-1 .5-.2-1 1.3-3 2-4 1.5-.4-.1-.3-.2.3 0 1.4 0 2.2-.3 3.2-1.3m101.7-.4c.1-.3.3-.5.4-.4.2.2-1.5 1.9-2 1.9l.6-.5 1-1m-25.7.6c.9-1 1.2-1.1.6-.3l-1.3 1.2.7-.9m31.1-.5v-.3l.4.3c.2.3 1 .7 1.8 1h.2c-.5 0-2.1-.7-2.4-1m-66.8.2c-.1-.2.2 0 .8.2l1 .6-1.8-.8m-26.7.5.5.2c.3.2.5.4.4.5 0 0-.9-.5-.9-.7m43.3.1c.6-.3.8-.3.4 0l-.5.3c-.2 0-.1-.1.1-.3m13.9-.2.5.3c.7.5 2.2.8 2.9.6h.7c.2.2-1.3.4-2 .2-.8-.1-2.1-.8-2.1-1m54 0 .5-.1-.4.2c-.3.2-.7.3-1 .2h.1c.3 0 .6-.2.8-.3m-14 .5H248.3c-1.2.2-10.5.2-11.6 0m-177.7.3 1.3-.1h1.2l-1.2.2-1.3-.1m41.5 0h1.2c1 0 1.5 0 1.3.1h-2.5m40.5 0 1.2-.1c1 0 1.5 0 1.3.1H141m28.3 0c-.4-.2-.3-.2.1-.1l3.1.7c-.5 0-2.7-.4-3.2-.6m11 0c1-.2 1.4-.2.7 0-.3.2-.7.3-1 .3-.3 0-.2 0 .3-.2m42.4 0-.5-.3.5.1c.5.2 2 .2 2.7 0 .5-.1.5-.1 0 .1-.8.4-2.2.4-2.7 0m-139.9 0c0-.3.2.1.6 1.3.6 1.6.7 2 .5 1.8l-1-3m95.4.4 1-.2h.3l-.3.2-1 .1h-.5l.5-.1m-86.3 0 .3.4.2.8-.3-.4-.2-.7m82.4.2c-.6 0-.1-.1 1-.1h.9-2M84 167.7l.3.5.4 1 .1.6c0 .2-.8-1.8-.8-2.1m1 2.7c-.2-.3-.2-.4 0-.1l.5 1.3a141.3 141.3 0 0 0-.6-1.3m1.1 3.1.3.5.4 1c.1.2.2.6 0 .5l-.7-2m.8 2.3c0-.1.3.2.5.7.3.5.8 1 1.1 1.2.4.2.6.4.5.5-.2.2-2-1.8-2-2.4m2.8 2.6c-.6-.2-.6-.2-.1 0h3c.5-.2.5-.2 0 0-.8.4-2.1.4-3 0"/></g></svg>