<svg version="1.1" xmlns="http://www.w3.org/2000/svg" xmlns:xlink="http://www.w3.org/1999/xlink" width="288" height="288" viewBox="0,0,288,288"><g transform="translate(-96,-36)"><g data-paper-data="{&quot;isPaintingLayer&quot;:true}" fill-rule="nonzero" stroke="none" stroke-linecap="butt" stroke-linejoin="miter" stroke-miterlimit="10" stroke-dasharray="" stroke-dashoffset="0" style="mix-blend-mode: normal"><path d="M96,324v-288h288v288z" fill="#fbfbfb" stroke-width="0"/><path d="M302.78953,86.67873c8.34159,4.1949 14.22409,11.1864 17.02069,20.20303c0.86791,2.84482 1.54295,9.88454 2.7966,29.21966c0.2893,4.38777 0.8197,12.72936 1.20543,18.56365c0.38574,5.83429 0.96434,13.983 1.20543,18.08148c0.24109,4.09847 1.01256,15.38131 1.73582,25.07298c1.83225,26.71236 1.92869,29.79826 0.72326,34.76464c-1.44652,6.17181 -2.74839,9.25771 -5.83429,13.83835c-5.20747,7.71476 -10.94532,12.48827 -18.61186,15.42953c-4.58064,1.78404 -3.27878,1.59117 -58.29467,8.53446c-7.13616,0.91613 -17.26178,2.21799 -22.42103,2.89303c-24.10863,3.0859 -25.31406,3.23056 -35.15038,3.03769l-9.45058,-0.14465l-3.18234,-1.54295c-4.00204,-1.97691 -8.29337,-5.25568 -10.84888,-8.34159c-2.74839,-3.23056 -6.22002,-10.55958 -7.18437,-14.94735c-0.72326,-3.56807 -1.78404,-21.64955 -1.25365,-22.27637c0.14465,-0.14465 1.44652,-0.38574 2.89303,-0.48217l2.60373,-0.14465l0.57861,1.92869c1.59117,5.3039 5.20747,9.64345 9.78811,11.66858c3.37521,1.54295 10.65601,2.02513 16.68317,1.15721c3.32699,-0.48217 50.82099,-6.7022 68.9989,-9.01663c7.76298,-1.01256 10.84888,-1.83225 15.33309,-4.14668c5.97894,-3.13412 9.16128,-7.42545 11.1864,-15.18844c1.01256,-3.85738 0.91613,-10.36671 -0.48217,-32.20913c-1.54295,-24.39794 -2.02513,-32.20913 -2.65195,-43.63662c-1.30187,-23.04785 -1.97691,-26.8088 -5.5932,-30.81083c-3.0859,-3.47164 -5.93073,-4.53242 -12.48827,-4.77351c-4.82172,-0.14465 -8.00406,0.24109 -35.43968,4.48421c-16.58674,2.55551 -35.00573,5.40033 -40.98467,6.31646c-5.97894,0.91613 -11.90966,2.02513 -13.25974,2.45908c-10.84888,3.51986 -15.81526,10.94532 -15.9117,24.01219v5.73785l-2.12156,0.43395c-1.10899,0.24109 -2.21799,0.2893 -2.36264,0.09644c-0.19287,-0.19287 -0.2893,-3.71273 -0.2893,-7.85942c0.04822,-6.65398 0.19287,-8.05228 1.30187,-11.47571c1.59117,-5.11103 3.76095,-9.40236 6.75041,-13.21153c4.62886,-5.93073 8.53446,-9.06485 15.04378,-12.10253c3.56807,-1.6876 5.15925,-2.07334 13.35618,-3.32699c11.62036,-1.83225 14.36874,-2.21799 52.46038,-8.19693c17.11713,-2.70017 33.17348,-5.20747 35.68077,-5.5932c2.5073,-0.38574 5.54498,-0.86791 6.75041,-1.10899c5.93073,-1.15721 14.56161,0 19.72086,2.60373z" fill="#ef1517" stroke-width="1"/><path d="M225.20796,142.4661c1.20543,0.67504 5.44855,2.89303 9.40236,4.96638c15.76704,8.19693 18.51543,10.07741 20.05838,13.50083c1.30187,2.89303 1.20543,6.75041 -0.33752,9.78811c-1.54295,3.13412 -4.58064,5.97894 -26.42306,24.92832c-2.7966,2.36264 -8.34159,7.28081 -12.44005,10.84888c-9.45058,8.3898 -11.33105,9.78811 -16.24922,12.19897c-3.42343,1.63938 -4.67708,1.97691 -7.76298,2.16978c-5.40033,0.2893 -7.71476,-1.10899 -9.98097,-6.12359c-1.3983,-3.13412 -1.78404,-7.03972 -2.7966,-29.21966c-0.38574,-8.77554 -0.96434,-20.92629 -1.25365,-27.00167c-0.62682,-12.82579 -0.38574,-20.73342 0.77148,-23.91576c0.8197,-2.41086 3.51986,-5.88251 5.20747,-6.79863c0.57861,-0.2893 1.73582,-0.72326 2.5073,-0.91613c6.7022,-1.59117 12.15075,0.57861 39.29706,15.57418z" fill="#ef1517" stroke-width="1"/></g></g></svg>