<svg xmlns="http://www.w3.org/2000/svg" width="288" height="288"><g stroke-miterlimit="10" data-paper-data="{&quot;isPaintingLayer&quot;:true}" style="mix-blend-mode:normal"><path fill="#fbfbfb" d="M0 288V0h288v288z"/><path fill="#ef1517" d="M206.8 50.7a33 33 0 0 1 17 20.2c.9 2.8 1.6 9.9 2.8 29.2l1.2 18.6 1.2 18c.3 4.1 1 15.4 1.8 25.1 1.8 26.7 1.9 29.8.7 34.8a35.7 35.7 0 0 1-5.9 13.8A38 38 0 0 1 207 226c-4.6 1.7-3.2 1.5-58.3 8.5l-22.4 2.9c-24 3-25.3 3.2-35.1 3l-9.5-.1-3.2-1.6c-4-2-8.3-5.2-10.8-8.3a43.9 43.9 0 0 1-7.2-15c-.7-3.5-1.8-21.6-1.3-22.2.2-.2 1.5-.4 3-.5l2.5-.2.6 2c1.6 5.3 5.2 9.6 9.8 11.6a36 36 0 0 0 16.7 1.2l69-9c7.8-1 10.8-1.9 15.3-4.2 6-3.1 9.2-7.4 11.2-15.2 1-3.8 1-10.3-.5-32.2a4743 4743 0 0 1-2.6-43.6c-1.3-23-2-26.8-5.6-30.8-3.1-3.5-6-4.5-12.5-4.8-4.8-.1-8 .3-35.4 4.5l-41 6.3c-6 1-12 2-13.3 2.5-10.8 3.5-15.8 11-15.9 24v5.7l-2.1.5c-1.1.2-2.2.2-2.4 0-.2-.1-.3-3.7-.3-7.8 0-6.7.2-8 1.3-11.5A40.2 40.2 0 0 1 92.2 63l52.4-8.2a16436.7 16436.7 0 0 1 42.5-6.7c5.9-1.2 14.5 0 19.7 2.6z"/><path fill="#ef1517" d="m129.2 106.5 9.4 5c15.8 8.1 18.5 10 20 13.4 1.4 3 1.3 6.8-.3 9.8-1.5 3.2-4.5 6-26.4 25-2.8 2.3-8.3 7.2-12.4 10.8a62.5 62.5 0 0 1-16.3 12.2c-3.4 1.6-4.7 2-7.7 2.2-5.4.3-7.8-1.1-10-6.2-1.4-3-1.8-7-2.8-29.2l-1.3-27c-.6-12.8-.4-20.7.8-23.9.8-2.4 3.5-5.9 5.2-6.8l2.5-1c6.7-1.5 12.2.7 39.3 15.7z"/></g></svg>