<svg id="svg" version="1.1" xmlns="http://www.w3.org/2000/svg" xmlns:xlink="http://www.w3.org/1999/xlink" width="400" height="400" viewBox="0, 0, 400,400"><g id="svgg"><path id="path0" d="M262.000 111.841 C 258.057 112.186,247.693 114.282,245.400 115.198 C 244.960 115.374,243.430 115.916,242.000 116.403 C 215.001 125.598,193.619 148.774,186.247 176.833 C 182.362 191.618,182.803 213.369,187.215 224.584 C 187.391 225.033,187.836 226.390,188.203 227.600 C 192.089 240.422,203.231 256.545,214.800 266.088 C 217.488 268.305,224.272 273.200,224.657 273.200 C 224.811 273.200,225.227 273.462,225.581 273.783 C 228.994 276.871,242.665 282.264,253.400 284.755 C 269.564 288.507,290.860 286.045,307.115 278.545 C 308.719 277.805,310.111 277.200,310.210 277.200 C 310.864 277.200,320.164 271.310,323.800 268.592 C 366.882 236.394,370.037 169.910,330.159 134.604 C 328.421 133.065,326.910 131.700,326.800 131.569 C 326.406 131.099,320.545 126.902,317.737 125.079 C 311.713 121.168,303.829 117.523,296.800 115.398 C 294.930 114.833,292.860 114.205,292.200 114.002 C 291.540 113.800,289.830 113.444,288.400 113.212 C 286.970 112.979,285.080 112.604,284.200 112.379 C 282.589 111.965,265.349 111.548,262.000 111.841 M40.480 117.280 C 39.972 117.788,39.748 148.077,40.243 149.367 C 40.659 150.452,74.603 150.315,75.186 149.226 C 76.020 147.668,75.726 118.238,74.869 117.462 C 73.925 116.608,41.324 116.436,40.480 117.280 M81.500 117.232 C 80.595 117.759,80.406 148.109,81.300 149.329 C 81.760 149.955,83.173 150.002,98.800 149.905 L 115.800 149.800 115.905 133.847 C 115.980 122.403,115.881 117.739,115.556 117.347 C 114.987 116.661,82.666 116.553,81.500 117.232 M122.300 117.225 C 121.591 117.645,121.165 147.602,121.843 149.367 C 122.125 150.104,156.133 150.355,156.585 149.624 C 156.908 149.101,156.920 117.586,156.597 117.263 C 156.138 116.804,123.073 116.767,122.300 117.225 M146.713 122.207 C 148.989 122.954,149.721 123.817,149.525 125.520 C 149.369 126.870,148.174 127.117,146.352 126.175 C 142.576 124.223,135.354 125.371,133.310 128.249 C 127.404 136.560,135.349 144.472,146.050 140.935 C 149.495 139.797,149.980 139.907,149.994 141.830 C 150.034 147.242,134.498 146.711,129.811 141.140 C 121.204 130.911,132.992 117.706,146.713 122.207 M61.071 122.434 C 64.310 124.002,65.859 128.524,63.900 130.690 C 62.834 131.868,63.015 133.292,64.328 134.038 C 67.879 136.058,67.436 141.916,63.558 144.200 C 61.884 145.186,50.834 145.658,49.786 144.788 C 49.087 144.208,48.912 124.409,49.590 122.626 C 50.137 121.188,58.218 121.053,61.071 122.434 M101.667 122.348 C 105.409 123.964,106.839 129.010,104.180 131.217 C 103.247 131.991,103.505 133.131,104.761 133.780 C 108.639 135.785,108.480 141.600,104.480 144.076 C 102.611 145.232,92.494 145.857,90.900 144.914 C 89.836 144.284,89.446 123.114,90.480 122.080 C 91.309 121.251,99.585 121.449,101.667 122.348 M54.500 125.603 C 53.213 126.134,53.146 130.529,54.415 131.208 C 56.599 132.377,60.400 130.476,60.400 128.216 C 60.400 126.307,56.733 124.683,54.500 125.603 M95.100 125.615 C 93.998 126.284,94.099 130.611,95.230 131.216 C 97.190 132.265,101.200 130.401,101.200 128.440 C 101.200 126.355,97.050 124.432,95.100 125.615 M54.100 135.647 C 53.496 136.267,53.436 140.146,54.014 141.226 C 55.490 143.984,62.948 140.890,62.335 137.774 C 61.955 135.836,55.533 134.177,54.100 135.647 M95.077 135.780 C 93.152 137.705,94.586 142.000,97.154 142.000 C 102.124 142.000,104.902 138.938,102.219 136.418 C 100.885 135.164,96.118 134.739,95.077 135.780 M286.225 140.554 C 286.726 140.746,286.789 148.538,286.701 199.088 L 286.600 257.400 271.827 257.505 C 260.274 257.587,256.984 257.500,256.733 257.105 C 256.557 256.827,256.409 238.363,256.406 216.074 C 256.402 188.914,256.263 175.292,255.986 174.774 C 255.609 174.070,255.104 174.000,250.419 174.000 C 243.798 174.000,242.814 173.495,244.545 170.989 C 244.845 170.555,246.040 168.400,247.202 166.200 C 248.363 164.000,249.624 161.660,250.005 161.000 C 250.385 160.340,251.466 158.360,252.407 156.600 C 253.347 154.840,254.606 152.500,255.205 151.400 C 255.804 150.300,257.058 147.960,257.993 146.200 C 260.528 141.428,261.167 140.465,261.890 140.326 C 263.021 140.109,285.616 140.321,286.225 140.554 M40.900 158.783 L 40.000 159.174 40.000 171.954 C 40.000 186.457,39.935 186.000,42.000 186.000 C 43.936 186.000,44.000 185.810,44.000 180.044 C 44.000 171.722,47.293 171.884,52.961 180.483 C 56.843 186.372,57.065 186.544,60.002 185.932 C 60.773 185.772,62.067 185.790,62.877 185.972 C 64.734 186.391,65.478 185.675,67.001 182.000 C 68.704 177.893,68.501 178.000,74.638 178.000 C 78.164 178.000,80.062 178.154,80.276 178.457 C 80.454 178.708,81.410 180.463,82.400 182.357 C 84.070 185.551,84.298 185.809,85.551 185.929 C 88.226 186.185,88.191 185.940,84.361 177.468 C 80.845 169.691,80.404 168.704,78.271 163.839 C 75.213 156.859,73.728 156.509,71.324 162.200 C 70.580 163.960,69.696 166.030,69.359 166.800 C 68.276 169.274,68.091 169.706,65.607 175.600 C 64.263 178.790,62.995 181.760,62.790 182.200 C 62.584 182.640,62.232 183.510,62.006 184.133 C 61.421 185.746,60.872 185.378,58.500 181.783 C 57.345 180.032,56.175 178.259,55.900 177.842 C 55.625 177.425,54.725 176.289,53.900 175.318 C 52.084 173.180,52.092 173.358,53.747 171.617 C 57.443 167.730,56.536 161.930,51.857 159.531 C 50.090 158.625,42.463 158.105,40.900 158.783 M92.200 158.927 C 90.706 160.063,90.822 185.209,92.324 185.798 C 93.873 186.406,104.779 185.984,107.228 185.222 C 119.394 181.436,119.976 164.189,108.096 159.472 C 105.435 158.415,93.416 158.003,92.200 158.927 M122.342 158.668 C 121.327 158.937,121.145 161.338,121.229 173.296 C 121.316 185.644,121.376 186.000,123.376 186.000 C 125.557 186.000,125.600 185.727,125.600 171.816 L 125.600 159.180 124.574 158.790 C 123.507 158.385,123.425 158.380,122.342 158.668 M140.200 158.755 C 134.555 160.269,130.000 166.363,130.000 172.400 C 130.000 188.449,154.387 191.807,158.966 176.389 C 162.231 165.396,151.842 155.634,140.200 158.755 M49.492 162.606 C 54.215 164.506,51.707 170.800,46.227 170.800 C 44.410 170.800,43.998 170.009,44.005 166.526 C 44.015 161.746,45.217 160.888,49.492 162.606 M104.227 162.434 C 110.303 163.544,113.655 168.487,112.386 174.468 C 111.185 180.126,108.077 182.200,100.800 182.200 L 95.800 182.200 95.693 172.600 C 95.562 160.944,95.630 160.863,104.227 162.434 M148.938 162.641 C 153.928 164.341,156.759 170.455,154.978 175.682 C 151.184 186.818,134.100 183.950,134.237 172.200 C 134.325 164.715,141.443 160.087,148.938 162.641 M76.441 169.116 C 77.119 170.592,77.703 172.340,77.737 173.000 L 77.800 174.200 74.494 174.316 C 70.400 174.460,70.255 174.233,71.926 170.286 C 72.599 168.699,73.263 166.995,73.401 166.500 C 73.816 165.023,75.046 166.082,76.441 169.116 " stroke="none" fill="#f7f7f7" fill-rule="evenodd"></path><path id="path1" d="M0.000 200.000 L 0.000 400.000 200.000 400.000 L 400.000 400.000 400.000 200.000 L 400.000 0.000 200.000 0.000 L 0.000 0.000 0.000 200.000 M284.200 112.379 C 285.080 112.604,286.970 112.979,288.400 113.212 C 289.830 113.444,291.540 113.800,292.200 114.002 C 292.860 114.205,294.930 114.833,296.800 115.398 C 303.829 117.523,311.713 121.168,317.737 125.079 C 320.545 126.902,326.406 131.099,326.800 131.569 C 326.910 131.700,328.421 133.065,330.159 134.604 C 370.037 169.910,366.882 236.394,323.800 268.592 C 320.164 271.310,310.864 277.200,310.210 277.200 C 310.111 277.200,308.719 277.805,307.115 278.545 C 290.860 286.045,269.564 288.507,253.400 284.755 C 242.665 282.264,228.994 276.871,225.581 273.783 C 225.227 273.462,224.811 273.200,224.657 273.200 C 224.272 273.200,217.488 268.305,214.800 266.088 C 203.231 256.545,192.089 240.422,188.203 227.600 C 187.836 226.390,187.391 225.033,187.215 224.584 C 182.803 213.369,182.362 191.618,186.247 176.833 C 193.619 148.774,215.001 125.598,242.000 116.403 C 243.430 115.916,244.960 115.374,245.400 115.198 C 247.693 114.282,258.057 112.186,262.000 111.841 C 265.349 111.548,282.589 111.965,284.200 112.379 M74.869 117.462 C 75.726 118.238,76.020 147.668,75.186 149.226 C 74.603 150.315,40.659 150.452,40.243 149.367 C 39.748 148.077,39.972 117.788,40.480 117.280 C 41.324 116.436,73.925 116.608,74.869 117.462 M115.556 117.347 C 115.881 117.739,115.980 122.403,115.905 133.847 L 115.800 149.800 98.800 149.905 C 83.173 150.002,81.760 149.955,81.300 149.329 C 80.406 148.109,80.595 117.759,81.500 117.232 C 82.666 116.553,114.987 116.661,115.556 117.347 M156.597 117.263 C 156.920 117.586,156.908 149.101,156.585 149.624 C 156.133 150.355,122.125 150.104,121.843 149.367 C 121.165 147.602,121.591 117.645,122.300 117.225 C 123.073 116.767,156.138 116.804,156.597 117.263 M136.772 121.721 C 126.046 124.764,123.521 137.795,132.552 143.496 C 139.048 147.597,152.624 145.164,149.630 140.435 C 149.330 139.961,148.754 140.041,146.050 140.935 C 135.349 144.472,127.404 136.560,133.310 128.249 C 135.354 125.371,142.576 124.223,146.352 126.175 C 148.824 127.453,150.489 126.008,149.237 123.670 C 148.285 121.890,140.479 120.669,136.772 121.721 M49.590 122.626 C 48.912 124.409,49.087 144.208,49.786 144.788 C 50.834 145.658,61.884 145.186,63.558 144.200 C 67.436 141.916,67.879 136.058,64.328 134.038 C 63.015 133.292,62.834 131.868,63.900 130.690 C 65.859 128.524,64.310 124.002,61.071 122.434 C 58.218 121.053,50.137 121.188,49.590 122.626 M90.480 122.080 C 89.446 123.114,89.836 144.284,90.900 144.914 C 92.494 145.857,102.611 145.232,104.480 144.076 C 108.480 141.600,108.639 135.785,104.761 133.780 C 103.505 133.131,103.247 131.991,104.180 131.217 C 106.839 129.010,105.409 123.964,101.667 122.348 C 99.585 121.449,91.309 121.251,90.480 122.080 M59.500 126.512 C 62.085 128.888,57.681 132.956,54.415 131.208 C 53.146 130.529,53.213 126.134,54.500 125.603 C 55.800 125.068,58.454 125.550,59.500 126.512 M100.300 126.643 C 102.565 129.165,98.407 132.916,95.230 131.216 C 94.099 130.611,93.998 126.284,95.100 125.615 C 96.261 124.911,99.280 125.507,100.300 126.643 M61.087 136.255 C 62.316 137.172,62.596 137.963,62.221 139.458 C 61.685 141.594,54.984 143.038,54.014 141.226 C 53.436 140.146,53.496 136.267,54.100 135.647 C 54.908 134.818,59.723 135.237,61.087 136.255 M102.219 136.418 C 104.902 138.938,102.124 142.000,97.154 142.000 C 94.586 142.000,93.152 137.705,95.077 135.780 C 96.118 134.739,100.885 135.164,102.219 136.418 M261.890 140.326 C 261.167 140.465,260.528 141.428,257.993 146.200 C 257.058 147.960,255.804 150.300,255.205 151.400 C 254.606 152.500,253.347 154.840,252.407 156.600 C 251.466 158.360,250.385 160.340,250.005 161.000 C 249.624 161.660,248.363 164.000,247.202 166.200 C 246.040 168.400,244.845 170.555,244.545 170.989 C 242.814 173.495,243.798 174.000,250.419 174.000 C 255.104 174.000,255.609 174.070,255.986 174.774 C 256.263 175.292,256.402 188.914,256.406 216.074 C 256.409 238.363,256.557 256.827,256.733 257.105 C 256.984 257.500,260.274 257.587,271.827 257.505 L 286.600 257.400 286.701 199.088 C 286.789 148.538,286.726 140.746,286.225 140.554 C 285.616 140.321,263.021 140.109,261.890 140.326 M51.857 159.531 C 56.536 161.930,57.443 167.730,53.747 171.617 C 52.092 173.358,52.084 173.180,53.900 175.318 C 54.725 176.289,55.625 177.425,55.900 177.842 C 56.175 178.259,57.345 180.032,58.500 181.783 C 60.872 185.378,61.421 185.746,62.006 184.133 C 62.232 183.510,62.584 182.640,62.790 182.200 C 62.995 181.760,64.263 178.790,65.607 175.600 C 68.091 169.706,68.276 169.274,69.359 166.800 C 69.696 166.030,70.580 163.960,71.324 162.200 C 73.728 156.509,75.213 156.859,78.271 163.839 C 80.404 168.704,80.845 169.691,84.361 177.468 C 88.191 185.940,88.226 186.185,85.551 185.929 C 84.298 185.809,84.070 185.551,82.400 182.357 C 81.410 180.463,80.454 178.708,80.276 178.457 C 80.062 178.154,78.164 178.000,74.638 178.000 C 68.501 178.000,68.704 177.893,67.001 182.000 C 65.478 185.675,64.734 186.391,62.877 185.972 C 62.067 185.790,60.773 185.772,60.002 185.932 C 57.065 186.544,56.843 186.372,52.961 180.483 C 47.293 171.884,44.000 171.722,44.000 180.044 C 44.000 185.810,43.936 186.000,42.000 186.000 C 39.935 186.000,40.000 186.457,40.000 171.954 L 40.000 159.174 40.900 158.783 C 42.463 158.105,50.090 158.625,51.857 159.531 M108.096 159.472 C 119.976 164.189,119.394 181.436,107.228 185.222 C 104.779 185.984,93.873 186.406,92.324 185.798 C 90.822 185.209,90.706 160.063,92.200 158.927 C 93.416 158.003,105.435 158.415,108.096 159.472 M124.574 158.790 L 125.600 159.180 125.600 171.816 C 125.600 185.727,125.557 186.000,123.376 186.000 C 121.376 186.000,121.316 185.644,121.229 173.296 C 121.145 161.338,121.327 158.937,122.342 158.668 C 123.425 158.380,123.507 158.385,124.574 158.790 M151.998 159.826 C 165.761 167.244,159.660 187.219,143.908 186.310 C 129.239 185.464,124.702 167.105,137.400 159.975 C 141.044 157.929,148.341 157.855,151.998 159.826 M44.252 162.900 C 43.199 166.831,44.191 170.800,46.227 170.800 C 50.317 170.800,52.994 167.493,51.500 164.286 C 50.497 162.134,44.752 161.035,44.252 162.900 M96.269 162.500 C 95.651 162.952,95.595 163.929,95.693 172.600 L 95.800 182.200 100.800 182.200 C 105.392 182.200,105.945 182.118,107.581 181.200 C 114.076 177.554,114.422 167.849,108.200 163.886 C 105.567 162.209,97.887 161.317,96.269 162.500 M140.541 162.651 C 135.749 164.350,132.817 171.133,134.771 176.000 C 138.405 185.049,151.859 184.837,154.978 175.682 C 157.889 167.141,149.425 159.502,140.541 162.651 M73.401 166.500 C 73.263 166.995,72.599 168.699,71.926 170.286 C 70.255 174.233,70.400 174.460,74.494 174.316 L 77.800 174.200 77.737 173.000 C 77.569 169.762,73.991 164.399,73.401 166.500 " stroke="none" fill="#040404" fill-rule="evenodd"></path></g></svg>