<svg id="svg" version="1.1" xmlns="http://www.w3.org/2000/svg" xmlns:xlink="http://www.w3.org/1999/xlink" width="400" height="400" viewBox="0, 0, 400,400"><g id="svgg"><path id="path0" d="M261.600 114.791 C 246.683 116.701,231.001 122.704,220.600 130.486 C 199.614 146.188,187.719 166.107,184.581 190.800 C 176.849 251.658,235.415 301.468,295.000 284.710 C 298.833 283.633,305.627 281.184,306.589 280.533 C 307.023 280.240,307.581 280.000,307.830 280.000 C 308.447 280.000,315.968 275.895,319.400 273.684 C 323.569 270.999,329.365 266.262,333.200 262.405 C 337.777 257.802,338.404 257.076,342.710 251.400 C 356.738 232.909,362.135 204.989,356.357 180.800 C 348.649 148.532,321.383 122.351,289.068 116.188 C 287.271 115.845,284.990 115.373,284.000 115.139 C 281.739 114.603,265.086 114.345,261.600 114.791 M40.243 117.433 C 40.109 117.781,40.000 125.345,40.000 134.243 L 40.000 150.420 41.026 150.810 C 42.609 151.412,75.312 151.328,75.920 150.720 C 76.610 150.030,76.610 117.970,75.920 117.280 C 75.095 116.455,40.561 116.603,40.243 117.433 M82.480 117.280 C 81.565 118.195,81.817 149.710,82.745 150.550 C 83.812 151.516,117.794 151.372,118.409 150.400 C 119.004 149.458,118.919 117.879,118.320 117.280 C 117.630 116.590,83.170 116.590,82.480 117.280 M124.414 117.574 C 123.878 118.576,123.856 149.553,124.391 150.400 C 125.006 151.372,158.988 151.516,160.055 150.550 C 160.983 149.710,161.235 118.195,160.320 117.280 C 159.377 116.337,124.925 116.619,124.414 117.574 M150.302 122.427 C 152.980 123.335,153.555 124.130,153.034 126.205 C 152.753 127.325,151.755 127.287,149.400 126.065 C 144.133 123.333,136.136 126.458,134.565 131.862 C 132.246 139.837,141.386 145.150,150.616 141.193 C 152.893 140.217,153.200 140.382,153.200 142.574 C 153.200 147.683,138.925 147.825,133.662 142.768 C 122.933 132.458,135.298 117.341,150.302 122.427 M61.051 122.237 C 65.207 123.947,66.795 128.433,64.348 131.554 C 63.329 132.853,63.402 133.268,64.813 134.200 C 68.767 136.811,68.440 142.961,64.242 144.953 C 60.958 146.512,50.856 146.970,49.991 145.600 C 49.463 144.763,49.484 123.365,50.014 122.374 C 50.574 121.327,58.598 121.228,61.051 122.237 M103.417 122.352 C 107.358 124.142,108.784 128.461,106.424 131.460 C 105.302 132.887,105.388 133.232,107.171 134.465 C 111.237 137.275,110.407 143.073,105.625 145.266 C 103.099 146.424,93.281 146.862,92.445 145.854 C 91.917 145.218,91.727 122.765,92.243 121.930 C 92.675 121.232,101.702 121.573,103.417 122.352 M54.267 125.867 C 53.844 126.289,53.957 130.372,54.414 131.226 C 55.881 133.968,61.956 130.441,60.837 127.498 C 60.221 125.877,55.442 124.691,54.267 125.867 M96.414 126.374 C 95.863 127.403,95.888 129.717,96.464 130.981 C 97.585 133.441,103.200 131.242,103.200 128.343 C 103.200 125.946,97.524 124.299,96.414 126.374 M54.629 136.229 C 53.781 137.076,53.756 141.299,54.594 141.995 C 56.730 143.768,63.200 141.648,63.200 139.175 C 63.200 136.378,56.710 134.147,54.629 136.229 M96.464 136.619 C 94.849 140.164,96.077 142.400,99.640 142.400 C 104.190 142.400,106.317 140.435,104.812 137.622 C 103.718 135.577,97.291 134.805,96.464 136.619 M286.400 140.311 C 316.180 146.818,327.140 177.493,307.743 200.047 C 306.894 201.033,305.300 202.897,304.200 204.188 C 303.100 205.480,300.242 208.801,297.848 211.568 C 295.455 214.336,292.575 217.670,291.448 218.977 C 290.322 220.284,289.085 221.629,288.700 221.966 C 288.315 222.302,288.000 223.001,288.000 223.518 L 288.000 224.459 302.811 224.361 C 312.140 224.299,317.768 224.408,318.017 224.657 C 318.536 225.176,318.993 253.613,318.493 254.322 C 318.141 254.822,270.347 255.543,234.687 255.587 C 222.141 255.602,221.615 255.210,227.204 250.000 C 227.322 249.890,229.148 247.730,231.261 245.200 C 235.160 240.534,250.785 221.999,252.673 219.800 C 253.240 219.140,255.429 216.530,257.537 214.000 C 259.645 211.470,261.471 209.310,261.594 209.200 C 261.717 209.090,263.614 206.847,265.809 204.216 C 268.004 201.584,271.398 197.534,273.351 195.216 C 283.333 183.366,284.938 176.257,279.000 170.187 C 272.539 163.580,263.045 168.891,262.151 179.613 C 261.796 183.865,263.024 183.560,246.029 183.619 C 228.260 183.682,229.981 184.355,230.436 177.518 C 231.702 158.466,244.302 144.124,263.403 139.993 C 268.416 138.909,280.763 139.080,286.400 140.311 M141.722 162.186 C 126.199 165.664,126.933 186.962,142.668 189.660 C 151.805 191.227,160.000 184.664,160.000 175.779 C 160.000 166.685,151.118 160.080,141.722 162.186 M95.400 162.773 L 92.200 163.000 92.094 175.716 C 92.025 184.027,92.134 188.703,92.408 189.216 C 92.971 190.266,102.650 190.372,106.518 189.369 C 116.936 186.670,120.730 174.992,113.722 167.197 C 109.949 163.001,105.920 162.028,95.400 162.773 M121.986 163.016 C 121.292 163.853,121.700 188.157,122.423 189.028 C 123.032 189.762,124.963 189.768,125.568 189.038 C 126.019 188.495,125.841 165.627,125.368 163.300 C 125.146 162.210,122.818 162.015,121.986 163.016 M73.059 163.676 C 72.735 164.184,71.985 165.770,71.393 167.200 C 70.369 169.674,69.178 172.457,68.398 174.200 C 68.201 174.640,67.302 176.800,66.399 179.000 C 61.316 191.396,62.302 190.906,57.336 183.497 C 55.897 181.351,54.494 179.461,54.218 179.297 C 52.858 178.491,52.798 177.351,54.053 176.158 C 57.898 172.503,57.054 166.420,52.382 164.124 C 50.043 162.973,41.058 162.751,40.643 163.833 C 40.309 164.702,40.413 187.957,40.756 189.200 C 41.052 190.273,43.301 190.859,44.091 190.069 C 44.307 189.853,44.457 187.508,44.427 184.797 C 44.329 175.935,47.880 176.330,54.247 185.891 C 57.392 190.613,57.026 190.390,61.395 190.250 C 65.705 190.112,65.987 189.958,67.180 187.087 C 69.337 181.899,69.176 181.996,75.550 182.006 C 80.521 182.014,80.912 182.245,82.960 186.400 L 84.636 189.800 86.318 189.923 C 88.239 190.063,88.571 189.146,87.402 186.932 C 86.686 185.577,82.800 177.188,82.800 176.998 C 82.800 176.828,78.729 168.116,77.288 165.200 C 75.999 162.593,74.172 161.935,73.059 163.676 M149.800 166.541 C 157.835 170.291,157.765 181.786,149.686 185.249 C 141.537 188.742,133.344 182.464,134.886 173.908 C 136.089 167.236,143.473 163.589,149.800 166.541 M108.365 167.686 C 115.560 171.984,114.269 182.893,106.237 185.670 C 103.707 186.544,97.133 186.683,96.463 185.876 C 95.793 185.068,95.788 167.738,96.458 166.931 C 97.400 165.795,106.126 166.349,108.365 167.686 M51.231 167.969 C 53.695 170.433,51.775 174.714,48.140 174.863 C 44.495 175.013,44.414 174.921,44.406 170.567 C 44.399 166.682,44.302 166.800,47.497 166.800 C 49.798 166.800,50.182 166.920,51.231 167.969 M76.995 173.700 C 79.038 178.043,78.983 178.190,75.166 178.556 C 71.151 178.941,70.783 178.336,72.498 174.166 C 73.591 171.508,74.498 170.076,75.127 170.013 C 75.197 170.006,76.037 171.665,76.995 173.700 " stroke="none" fill="#fbf9f6" fill-rule="evenodd"></path><path id="path1" d="M0.000 200.000 L 0.000 400.000 200.000 400.000 L 400.000 400.000 400.000 200.000 L 400.000 0.000 200.000 0.000 L 0.000 0.000 0.000 200.000 M284.000 115.139 C 284.990 115.373,287.271 115.845,289.068 116.188 C 321.383 122.351,348.649 148.532,356.357 180.800 C 362.135 204.989,356.738 232.909,342.710 251.400 C 338.404 257.076,337.777 257.802,333.200 262.405 C 329.365 266.262,323.569 270.999,319.400 273.684 C 315.968 275.895,308.447 280.000,307.830 280.000 C 307.581 280.000,307.023 280.240,306.589 280.533 C 305.627 281.184,298.833 283.633,295.000 284.710 C 235.415 301.468,176.849 251.658,184.581 190.800 C 187.719 166.107,199.614 146.188,220.600 130.486 C 231.001 122.704,246.683 116.701,261.600 114.791 C 265.086 114.345,281.739 114.603,284.000 115.139 M75.920 117.280 C 76.610 117.970,76.610 150.030,75.920 150.720 C 75.312 151.328,42.609 151.412,41.026 150.810 L 40.000 150.420 40.000 134.243 C 40.000 125.345,40.109 117.781,40.243 117.433 C 40.561 116.603,75.095 116.455,75.920 117.280 M118.320 117.280 C 118.919 117.879,119.004 149.458,118.409 150.400 C 117.794 151.372,83.812 151.516,82.745 150.550 C 81.817 149.710,81.565 118.195,82.480 117.280 C 83.170 116.590,117.630 116.590,118.320 117.280 M160.320 117.280 C 161.235 118.195,160.983 149.710,160.055 150.550 C 158.988 151.516,125.006 151.372,124.391 150.400 C 123.856 149.553,123.878 118.576,124.414 117.574 C 124.925 116.619,159.377 116.337,160.320 117.280 M140.800 121.543 C 127.726 124.362,125.839 140.657,138.032 145.441 C 144.016 147.788,153.200 146.053,153.200 142.574 C 153.200 140.382,152.893 140.217,150.616 141.193 C 141.386 145.150,132.246 139.837,134.565 131.862 C 136.136 126.458,144.133 123.333,149.400 126.065 C 152.469 127.657,153.743 127.018,153.045 124.237 C 152.585 122.404,144.777 120.686,140.800 121.543 M50.014 122.374 C 49.484 123.365,49.463 144.763,49.991 145.600 C 50.856 146.970,60.958 146.512,64.242 144.953 C 68.440 142.961,68.767 136.811,64.813 134.200 C 63.402 133.268,63.329 132.853,64.348 131.554 C 66.795 128.433,65.207 123.947,61.051 122.237 C 58.598 121.228,50.574 121.327,50.014 122.374 M92.243 121.930 C 91.727 122.765,91.917 145.218,92.445 145.854 C 93.281 146.862,103.099 146.424,105.625 145.266 C 110.407 143.073,111.237 137.275,107.171 134.465 C 105.388 133.232,105.302 132.887,106.424 131.460 C 108.784 128.461,107.358 124.142,103.417 122.352 C 101.702 121.573,92.675 121.232,92.243 121.930 M59.645 126.024 C 62.803 127.714,60.333 132.000,56.201 132.000 C 54.354 132.000,52.863 127.270,54.267 125.867 C 54.694 125.440,58.777 125.559,59.645 126.024 M102.373 126.762 C 104.179 129.299,102.035 132.000,98.215 132.000 C 96.287 132.000,95.207 128.628,96.414 126.374 C 97.151 124.997,101.309 125.267,102.373 126.762 M60.440 136.045 C 65.337 137.648,63.746 142.056,58.169 142.338 C 54.385 142.529,54.000 142.237,54.000 139.180 C 54.000 135.694,56.158 134.644,60.440 136.045 M102.804 136.248 C 107.614 138.173,105.441 142.400,99.640 142.400 C 96.428 142.400,96.000 142.029,96.000 139.245 C 96.000 135.606,98.475 134.516,102.804 136.248 M263.403 139.993 C 244.302 144.124,231.702 158.466,230.436 177.518 C 229.981 184.355,228.260 183.682,246.029 183.619 C 263.024 183.560,261.796 183.865,262.151 179.613 C 263.045 168.891,272.539 163.580,279.000 170.187 C 284.938 176.257,283.333 183.366,273.351 195.216 C 271.398 197.534,268.004 201.584,265.809 204.216 C 263.614 206.847,261.717 209.090,261.594 209.200 C 261.471 209.310,259.645 211.470,257.537 214.000 C 255.429 216.530,253.240 219.140,252.673 219.800 C 250.785 221.999,235.160 240.534,231.261 245.200 C 229.148 247.730,227.322 249.890,227.204 250.000 C 221.615 255.210,222.141 255.602,234.687 255.587 C 270.347 255.543,318.141 254.822,318.493 254.322 C 318.993 253.613,318.536 225.176,318.017 224.657 C 317.768 224.408,312.140 224.299,302.811 224.361 L 288.000 224.459 288.000 223.518 C 288.000 223.001,288.315 222.302,288.700 221.966 C 289.085 221.629,290.322 220.284,291.448 218.977 C 292.575 217.670,295.455 214.336,297.848 211.568 C 300.242 208.801,303.100 205.480,304.200 204.188 C 305.300 202.897,306.894 201.033,307.743 200.047 C 324.905 180.091,317.903 151.160,293.800 142.444 C 285.210 139.337,271.534 138.235,263.403 139.993 M150.316 162.615 C 157.637 164.818,161.899 173.406,159.176 180.464 C 153.374 195.500,130.605 191.778,130.640 175.800 C 130.663 165.706,139.937 159.491,150.316 162.615 M105.314 162.808 C 120.485 165.002,121.415 185.509,106.518 189.369 C 102.650 190.372,92.971 190.266,92.408 189.216 C 92.134 188.703,92.025 184.027,92.094 175.716 L 92.200 163.000 95.400 162.773 C 100.763 162.394,102.488 162.400,105.314 162.808 M125.368 163.300 C 125.841 165.627,126.019 188.495,125.568 189.038 C 124.963 189.768,123.032 189.762,122.423 189.028 C 121.700 188.157,121.292 163.853,121.986 163.016 C 122.818 162.015,125.146 162.210,125.368 163.300 M77.288 165.200 C 78.729 168.116,82.800 176.828,82.800 176.998 C 82.800 177.188,86.686 185.577,87.402 186.932 C 88.571 189.146,88.239 190.063,86.318 189.923 L 84.636 189.800 82.960 186.400 C 80.912 182.245,80.521 182.014,75.550 182.006 C 69.176 181.996,69.337 181.899,67.180 187.087 C 65.987 189.958,65.705 190.112,61.395 190.250 C 57.026 190.390,57.392 190.613,54.247 185.891 C 47.880 176.330,44.329 175.935,44.427 184.797 C 44.457 187.508,44.307 189.853,44.091 190.069 C 43.301 190.859,41.052 190.273,40.756 189.200 C 40.413 187.957,40.309 164.702,40.643 163.833 C 41.058 162.751,50.043 162.973,52.382 164.124 C 57.054 166.420,57.898 172.503,54.053 176.158 C 52.798 177.351,52.858 178.491,54.218 179.297 C 54.494 179.461,55.897 181.351,57.336 183.497 C 62.302 190.906,61.316 191.396,66.399 179.000 C 67.302 176.800,68.201 174.640,68.398 174.200 C 69.178 172.457,70.369 169.674,71.393 167.200 C 73.638 161.777,75.314 161.208,77.288 165.200 M140.600 166.582 C 128.144 172.646,136.938 190.713,149.686 185.249 C 156.002 182.541,157.846 174.182,153.252 169.085 C 150.134 165.626,144.751 164.561,140.600 166.582 M96.458 166.931 C 95.788 167.738,95.793 185.068,96.463 185.876 C 97.133 186.683,103.707 186.544,106.237 185.670 C 114.269 182.893,115.560 171.984,108.365 167.686 C 106.126 166.349,97.400 165.795,96.458 166.931 M44.667 167.067 C 44.294 167.439,44.344 173.692,44.724 174.290 C 45.544 175.582,49.419 175.061,51.040 173.440 C 54.070 170.410,52.144 166.800,47.497 166.800 C 46.087 166.800,44.813 166.920,44.667 167.067 M74.400 170.513 C 73.027 171.628,71.135 177.265,71.864 178.070 C 72.615 178.901,77.349 178.739,78.268 177.852 C 78.670 177.463,75.664 169.959,75.127 170.013 C 75.057 170.020,74.730 170.245,74.400 170.513 " stroke="none" fill="#ec7b04" fill-rule="evenodd"></path></g></svg>