<svg xmlns="http://www.w3.org/2000/svg" width="273.3" height="273.3"><g stroke-miterlimit="10" data-paper-data="{&quot;isPaintingLayer&quot;:true}" style="mix-blend-mode:normal"><path fill="#045cac" d="M0 273.3V0h273.3v273.3z"/><path fill="#fafbfb" fill-rule="evenodd" d="M144 42.5c7.9-1.3 17.1 2.9 19.3 8.8 4.7 12.3-16 20.1-27.7 10.5l-1.6-1.4-.1 1a4516 4516 0 0 0-2 35.8l-.1 2h4.1c6.1 0 11.6 1.2 16.8 3.4l2.2 1 5.3-9.2c7-12 7-12.2 11.1-12.2 8.9 0 14 10.8 6.6 14-3.3 1.3-9-.6-11.1-4-1.1-1.6-.8-2-5.4 6-4 6.9-4 6.9-3 7.4a47 47 0 0 1 13.1 12.5c0 .1 5.2-3 11.5-7l11.4-7h2.5c10.5 0 16.2 17.3 6.8 20.4-5.8 2-13.3-5-13.5-12.5 0-1.7 0-1.8-.7-1.3a1987.4 1987.4 0 0 1-16 9.9c-.1 0 .3 1.3 1 2.6 1.6 3.6 2.7 7.3 3.3 11.1l.7 4c.1.8.3.8 3.5.8a361 361 0 0 1 40.7 2c8.6 4.5 5.4 22.2-3.8 21.5-7.1-.5-10.5-13-5.2-18.9.5-.6.5-.6-.2-.6a3922.2 3922.2 0 0 1-33-1h-1.8l-.2 2-.8 5.2c-.3 1.7-.4 3.2-.3 3.3l12.1 4.4c12.9 4.6 13.8 5 15 7.6 3.8 7.7-3.3 19.4-10.7 17.7-6.7-1.7-7.5-12.6-1.3-18.8l1.7-1.7-6.9-2.4a763 763 0 0 1-9-3.2l-2-.8-.5 1.2a44 44 0 0 1-10.8 15.8 33 33 0 0 0-3 3l12.4 17c14.5 19.9 14 19 13.8 22.8-.4 8.5-10.2 16.6-19 15.7-15.5-1.5-8-23.8 8.4-25l2.7-.2-10.3-14.3-10.5-14.4-2 1.1c-4.6 2.7-11.4 5-16.4 5.4l-2.5.2-.3 7-.4 16.8c-.1 6.8-.3 10.3-.6 11.5-1.9 6.7-13.4 8.7-19.2 3.4-9-8.3 5-18.9 15.8-11.8l.8.6.2-7 .4-13.7.2-6.5-1.9-.2a85.3 85.3 0 0 1-9.9-1.6c-.5 0-1.8 2-6.3 9.8-7.4 12.8-7.6 13-13.2 12.8-10-.4-16.6-11.8-9.7-16.6 4.7-3.3 13-.7 16.8 5.3l.9 1.4.5-.7c1-1.5 7.5-13 7.5-13.2l-2.2-1.3a48.4 48.4 0 0 1-11.2-7.7l-16.6 7.8c-19.9 9.5-19.7 9.5-24.3 6.5-10-6.5-9.7-22.8.5-22.8 7 0 14 9.6 12.4 17l-.2 1.4 15.5-7.3 1.9-1-1.2-2a103 103 0 0 1-9.1-22.3c0-1-.8-1-16.7-2l-15.8-.8-1.7-1c-10-5.4-6.6-26 4.3-26 9.1 0 13 15.3 6.1 23.6l-.8 1h.9a1477 1477 0 0 1 31.5 1.7c.6 0 .6-.3.7-4.8 0-8.2 2.1-15.4 6.4-22 1.7-2.6 3-.8-10.1-14.7-11.9-12.6-12.2-13.1-12-16 .5-7.2 9.5-13 14.9-9.8 5.8 3.4 2.5 13.1-5.5 16l-2 .7 8 8.4 8.9 9.6 1 1.1 2.7-2.6c1.5-1.5 3.3-3 3.9-3.5 1.5-1 2 .2-4.2-12.5-6-12.6-6.3-13.4-4.6-16.6 4.4-8.5 17.8-10.1 20.3-2.5 1.8 5.6-4.6 12.3-12.4 12.7-1.6 0-2.9.2-2.9.2 0 .4 3.7 7.5 3.9 7.5l1.2-.9c2.8-2.3 8.3-4 13.7-4.4 2 0 3.8-.2 3.8-.2l1.1-19.7c1-16 1.2-20 1.7-21.2 1.5-3.8 6.5-7.2 12-8M129 97l.3-2.8H128c-5.7.3-10.7 1.6-13.9 3.7-2.6 1.8-2.6 1.9-1.1 5l1.2 2.5 2.7-1.5a50 50 0 0 1 10.4-3.7c1.1 0 1.4-.5 1.6-3.2m-35.8 51.7c-.8 0-2.1-.1-3-.3-1.9-.2-1.9-.4-.3 4.5a88 88 0 0 0 6.1 14.7c2.9 5.2 2.3 5 5.7 3.3l2.8-1.4-1.8-2.4c-3.6-4.8-6-9.8-7.4-15.6l-.7-2.8h-1.4"/></g></svg>