<svg version="1.1" xmlns="http://www.w3.org/2000/svg" xmlns:xlink="http://www.w3.org/1999/xlink" width="454.96126" height="198.1982" viewBox="0,0,454.96126,198.1982"><g transform="translate(-12.51936,-84.65465)"><g data-paper-data="{&quot;isPaintingLayer&quot;:true}" stroke-linecap="butt" stroke-linejoin="miter" stroke-miterlimit="10" stroke-dasharray="" stroke-dashoffset="0" style="mix-blend-mode: normal"><path d="M149.19199,154.41184c0.763,-1.776 2.149,-2.317 3.076,-1.199c0.53,0.637 9.683,21.369 9.683,21.931c0,1.653 -2.59,0.032 -3.566,-2.232c-0.569,-1.32 -1.18,-2.625 -1.358,-2.9c-0.234,-0.362 -1.922,-0.5 -6.122,-0.5h-5.8l-1.367,3c-1.262,2.771 -1.459,3 -2.577,3c-1.569,0 -1.825,0.839 3.045,-9.963c2.34,-5.19 4.584,-10.202 4.986,-11.137M203.33199,153.22184c0.672,-0.27 2.475,-0.442 4.019,-0.383c14.622,0.556 14.033,22.909 -0.6,22.801c-12.476,-0.092 -15.161,-17.698 -3.419,-22.418M70.35099,164.31184v-11.2h1.2h1.2v4.8v4.8h6.2h6.2v-4.8v-4.8h1.4h1.4v11.225v11.226l-1.3,-0.126l-1.3,-0.125l-0.112,-4.9l-0.113,-4.9h-6.187h-6.188v5v5h-1.2h-1.2v-11.2M93.33199,153.61784c0.106,-0.278 0.742,-0.506 1.413,-0.506h1.219l-0.107,11.1l-0.106,11.1h-1.2h-1.2l-0.107,-10.594c-0.059,-5.826 -0.019,-10.821 0.088,-11.1M99.15099,154.31184v-1.2h8.6h8.6v1.2v1.2h-3.593h-3.593l-0.107,9.9l-0.107,9.9h-1.2h-1.2l-0.107,-9.9l-0.107,-9.9h-3.593h-3.593v-1.2M119.55099,164.31184v-11.2h5.813c6.009,0 7.795,0.359 9.513,1.914c3.465,3.136 2.1,9.709 -2.221,10.697c-1.695,0.387 -1.643,0.537 1.718,4.998c3.642,4.835 3.626,4.791 1.775,4.791c-1.321,0 -1.586,-0.252 -4.634,-4.4l-3.232,-4.4h-3.166h-3.166v4.4v4.4h-1.2h-1.2v-11.2M165.24499,164.21184l-0.107,-11.1h5.307c9.428,0.001 14.047,3.697 14,11.203c-0.045,7.258 -4.674,10.912 -13.894,10.966l-5.2,0.031l-0.106,-11.1M188.75099,164.31184v-11.2h1.2h1.2v11.2v11.2h-1.2h-1.2v-11.2M210.23699,155.77984c-1.736,-0.824 -4.822,-0.838 -6.683,-0.031c-7.502,3.254 -6.384,15.616 1.566,17.318c10.059,2.153 14.496,-12.837 5.117,-17.287M131.94699,156.10984c-0.821,-0.425 -2.437,-0.598 -5.576,-0.598h-4.42v4.4v4.4h4.213c4.873,0 6.628,-0.545 7.56,-2.349c1.238,-2.394 0.554,-4.648 -1.777,-5.853M178.01799,156.91384c-1.61,-1.117 -2.029,-1.212 -5.9,-1.338l-4.167,-0.137v8.895v8.896l3.725,-0.223c4.467,-0.266 5.999,-0.846 7.948,-3.006c3.539,-3.921 2.788,-10.037 -1.606,-13.087M153.48699,161.66084c-1.135,-2.612 -2.184,-4.889 -2.331,-5.06c-0.235,-0.274 -4.812,9.448 -4.807,10.211c0.001,0.165 2.072,0.3 4.602,0.3c2.53,0 4.6,-0.158 4.6,-0.351c0,-0.193 -0.929,-2.488 -2.064,-5.1M195.86599,186.01184l0.115,-3.7h4.785h4.785v3.8v3.8h5.573h5.574l0.126,4.001l0.127,4.001l-5.7,-0.001l-5.7,-0.001v11.42c0,15.177 1.028,16.814 9.036,14.384c1.08,-0.327 2.016,-0.597 2.078,-0.6c0.063,-0.002 0.063,1.751 0,3.896l-0.114,3.9l-2.6,0.886c-6.969,2.374 -14.07,0.463 -16.593,-4.467l-1.207,-2.359l-0.2,-13.43l-0.2,-13.43l-2.7,-0.118l-2.7,-0.119v-3.963v-3.963l2.7,-0.119l2.7,-0.118l0.115,-3.7M84.35099,189.74384c7.08,-1.863 15.522,0.059 20.625,4.697l1.975,1.795l-2.8,2.988c-3.337,3.562 -3.002,3.466 -5.328,1.533c-8.718,-7.243 -20.332,-2.156 -21.139,9.259c-0.89,12.602 12.178,19.218 21.905,11.089l1.838,-1.536l2.893,2.912l2.893,2.912l-2.331,2.083c-6.729,6.014 -16.396,7.293 -24.709,3.27c-18.024,-8.724 -15.256,-35.889 4.178,-41.002M121.12899,189.86584c13.213,-4.228 24.902,5.134 25.902,20.746l0.238,3.7h-15.659c-13.474,0 -15.659,0.082 -15.659,0.585c0,9.362 13.537,13.522 21.908,6.733l1.709,-1.385l2.848,2.524l2.847,2.525l-2.337,2.124c-5.781,5.253 -14.578,7.016 -22.3,4.469c-19.392,-6.396 -19.04,-35.767 0.503,-42.021M168.87099,189.83084c4.903,-1.754 11.595,-0.473 15.284,2.927c4.275,3.941 4.585,5.566 4.591,24.054l0.005,15.1h-4.8h-4.8v-13.023c0,-8.174 -0.164,-13.676 -0.442,-14.776c-1.974,-7.84 -13.503,-8.579 -17.211,-1.103c-0.927,1.867 -0.946,2.149 -1.074,15.402l-0.13,13.5h-4.771h-4.772v-21v-21h4.8h4.8v3c0,3.459 0.077,3.521 1.824,1.481c1.707,-1.995 4.125,-3.642 6.696,-4.562M231.52899,189.86584c13.277,-4.249 24.974,5.029 25.904,20.546l0.234,3.9h-15.708h-15.708l0.25,1.3c1.817,9.447 13.902,12.81 21.786,6.062l1.676,-1.434l2.845,2.523l2.846,2.523l-2.234,2.079c-9.34,8.694 -25.996,7.075 -32.809,-3.189c-8.342,-12.567 -2.822,-29.913 10.918,-34.31M280.95099,189.67184c0.88,-0.279 2.365,-0.519 3.3,-0.533l1.7,-0.027v4.945v4.945l-2.107,0.247c-3.779,0.445 -5.92,1.43 -8.328,3.836c-3.853,3.849 -4.116,4.949 -4.282,17.927l-0.14,10.9h-4.872h-4.871l0.107,-21l0.107,-21h4.818h4.818l-0.125,4.401c-0.141,4.956 -0.085,5.08 1.196,2.665c1.792,-3.377 5.124,-6.182 8.679,-7.306M130.49899,197.52684c-6.543,-2.448 -14.548,2.835 -14.548,9.6c0,0.684 14.103,1.197 21.1,0.767c0.5,-0.031 0.214,-2.367 -0.527,-4.307c-1.017,-2.663 -3.428,-5.089 -6.025,-6.06M241.81399,197.84184c-5.454,-2.782 -12.336,0.143 -14.606,6.209c-1.569,4.194 -2.426,3.861 9.943,3.861c12.245,0 11.325,0.313 10.202,-3.469c-0.72,-2.424 -3.241,-5.428 -5.539,-6.601" fill="#ec2b4b" fill-rule="evenodd" stroke="#ec2b4b" stroke-width="0"/><path d="M347.29399,111.17484c0.498,-0.642 1.127,0.04 6.028,6.537c7.18,9.518 13.916,21.086 18.534,31.826l0.785,1.826l2.955,0.515c12.265,2.139 30.107,8.532 34.708,12.438l0.952,0.809l-1.518,2.493c-4.395,7.215 -13.338,17.537 -20.233,23.356c-2.997,2.529 -3.201,2.8 -2.969,3.927c2.926,14.221 5.863,51.41 4.06,51.41c-0.222,0 -32.536,-21.414 -33.045,-21.899c-0.11,-0.104 0.872,-1.115 2.183,-2.246c9.359,-8.073 15.425,-14.38 22.15,-23.032c3.871,-4.981 3.871,-5.272 0.002,-2.022c-13.494,11.334 -27.657,21.073 -43.735,30.073c-13.565,7.593 -42.386,22.274 -42.838,21.821c-0.077,-0.076 3.635,-13.354 8.249,-29.506c4.614,-16.152 8.389,-29.394 8.389,-29.427c0,-0.033 -4.095,-3.72 -9.1,-8.193c-5.005,-4.473 -10.99,-9.861 -13.3,-11.974c-2.31,-2.113 -6.9,-6.245 -10.2,-9.182c-12.198,-10.857 -11.661,-10.097 -7.462,-10.552c1.244,-0.134 5.412,-0.611 9.262,-1.059c28.175,-3.277 55.647,-3.195 79.737,0.238c2.386,0.34 4.413,0.543 4.505,0.451c0.532,-0.532 -22.193,-4.583 -30.942,-5.515c-2.475,-0.264 -4.5,-0.556 -4.5,-0.65c0,-1.272 15.157,-29.643 17.343,-32.463" fill="#ffb929" fill-rule="evenodd" stroke="#ffb929" stroke-width="1"/><path d="M12.51936,222.5v-85h454.96126v85z" fill="none" fill-rule="nonzero" stroke="#000000" stroke-width="0"/><path d="M212.84535,282.85285v-198.1982h9.00901v198.1982z" fill="none" fill-rule="nonzero" stroke="none" stroke-width="0"/></g></g></svg>