<svg xmlns="http://www.w3.org/2000/svg" width="400" height="400"><g fill-rule="evenodd" stroke-miterlimit="10" data-paper-data="{&quot;isPaintingLayer&quot;:true}" style="mix-blend-mode:normal"><path fill="#ec2b4b" d="M0 200V0h400v400H0V200m315-63.8c-5-6.5-5.6-7.2-6-6.5a376 376 0 0 0-17.4 32.4l4.5.7c8.7 1 31.5 5 31 5.5a316 316 0 0 0-93.5.4c-4.3.4-4.8-.3 7.4 10.5a1251 1251 0 0 1 23.5 21.2l9.1 8.2a14330.5 14330.5 0 0 1-16.6 58.9c.4.4 29.2-14.2 42.8-21.8 16-9 30.2-18.8 43.7-30.1 3.9-3.2 3.9-3 0 2-6.7 8.7-12.8 15-22.1 23a9 9 0 0 0-2.2 2.3c.5.5 32.8 21.9 33 21.9 1.8 0-1-37.2-4-51.4-.2-1.1 0-1.4 3-4a114 114 0 0 0 20.2-23.3l1.5-2.5-1-.8c-4.5-3.9-22.4-10.3-34.7-12.4l-3-.5-.7-1.9a160.4 160.4 0 0 0-18.5-31.8M173.5 172c-4.3-2.2-10.8-.8-13.7 3-7.3 9.5 1.5 22.6 12.7 18.8 9.4-3.2 10-17.2 1-21.8m-138.7 4.2v-5h-3.2V194h3.2v-10h12v10H50v-11.3l-.2-11.3-1.5-.1-1.5-.1v10h-12v-5m23.1 6.5-.1-11.3-1.5-.1-1.5-.1V194H58v-11.3m20.3-10 .1-1.5h-8.8c-9.5 0-9.4 0-9.1 2 0 1 .3 1 3.7 1l3.6.1.1 9.9.1 9.8h2.8v-19.6h3.7l3.7-.2.1-1.5m17.2-.2c-1.6-1-1.8-1.1-8.2-1.2l-6.5-.2V194H84v-8.6l3 .1 2.9.2 3 4.1 3.2 4.2h1.7c2.2 0 2.4.4-1.4-4.7l-3.2-4.3 1.5-.7c5.1-2.1 5.6-8.7.8-11.8m20.4 2.7c-1.8-3.8-4-5.5-4.8-3.5a2391.7 2391.7 0 0 1-9.9 22.2c0 1.3 3.3-.2 4-1.8 1.8-4.1 1-3.8 7.5-3.8l5.7-.1 1.2 2.9c1.3 2.9 1.3 2.9 2.9 2.9 1.9 0 2 .3-.8-5.8a1599.4 1599.4 0 0 1-5.8-13m24.2-2.7c-2.7-1.3-13-2-13.5-.8-.1.3-.2 5.4-.1 11.3l.1 10.8 5.2.1c6.1.1 8-.4 10.8-2.8 6-5.3 4.8-15-2.5-18.6m13.1 10.1v-11.4h-1.3c-2 0-1.9-.4-1.9 11.7V194h3.2v-11.4M84 178.5v-4.3l4.8.2c5.7.2 6.8.9 6.8 3.8 0 3.4-2.3 4.6-8.4 4.6H84v-4.3m45.8-4.1c1.1-1.2 9.6.7 11.3 2.5 5.7 6 .7 14.3-8.6 14.3h-2.9v-8.3c0-4.6 0-8.4.2-8.5m35 .4c1-.6 2-.8 4-.7 10.9.5 10.6 17.2-.2 17.2-8.6 0-11.5-12.4-3.9-16.5m-54.2 5.3 2.2-4.8 4.5 10a157.3 157.3 0 0 1-8.8-.1l2.1-5m56.7 24.2v-3.6h-10v7.2H152v8.8h5.2v13.3c.2 14.8.3 15 3 18 3.4 3.4 10.7 4.5 16 2.3l2.4-1 .1-4.1-.1-4.1-2.2.6c-2.7 1-6.5.7-7.6-.5-1.4-1.3-1.6-3.3-1.6-14.2v-10.3h11.6V208h-11.6v-3.6m-109.9 3.4c-14.7-3.1-27.7 7-27.7 21.7a22.1 22.1 0 0 0 36.5 17c3.3-2.6 3.3-2.5-.2-6l-3-3-1 1.1c-8.3 9-22.1 3.3-22.1-9 0-12 12.1-18 20.7-10 2.3 2 2 2.1 5.4-1.7l2.9-3.3-2.1-1.9c-2.8-2.5-6-4.2-9.4-5m36 0c-19.8-4.3-33.4 19.3-20.9 36.1 7 9.3 23 10.5 32.3 2.4 2.7-2.4 2.7-2.4-.7-5.4l-2.8-2.5-1.7 1.5c-7.5 6.4-18.2 4.2-21-4.3l-.8-2.3h31l.3-1.5c1.7-10-6.1-22-15.7-24m48.4.5a16.7 16.7 0 0 0-18 4.3l-1.3 1.6V208h-10v42.8h10v-13c0-10.5.1-13.2.6-15 2.2-7.3 12.5-8.8 16.2-2.3 1 1.7 1 1.8 1.2 15.9l.2 14.2 5.1.1 5.1.1v-14.5c0-20.7-1.5-25.4-9.1-28.1m62-.6c-26.2-5.5-36.2 34.5-10.8 43a23 23 0 0 0 22.4-4.6c2.4-2.1 2.4-2.3-.9-5.2l-2.8-2.5-1.7 1.5c-7.4 6.4-17.5 4.4-20.9-4l-1-2.4 15.6-.1 15.5-.1.3-1.5c1.7-10-6.1-22-15.7-24m44.1 4.9v-5.2h-1.6c-4.5-.3-9.6 2.9-12.4 7.8l-1 1.8v-9h-10v42.8h10v-9.3c0-17 2.9-22.4 12.5-23.4l2.5-.3v-5.2m-163.6 3.8c6.3-3 14.6 2.3 14.6 9v1H88.2c-5.8 0-10.6 0-10.6-.2 0-3 3.7-8.5 6.6-9.8m110.6-.2c6.2-2.6 14.4 2.6 14.4 9.2v1h-10.6l-10.6-.1c0-3.3 3.7-8.7 6.8-10"/><path fill="#fff" stroke="#fff" stroke-width="1.5" d="M110.8 172.9c.8-1.8 2.2-2.3 3.1-1.2.5.6 9.7 21.4 9.7 22 0 1.6-2.6 0-3.6-2.3l-1.3-2.9c-.3-.4-2-.5-6.1-.5h-5.8l-1.4 3c-1.3 2.8-1.5 3-2.6 3-1.6 0-1.8.8 3-10l5-11.1m54.2-1.2a13 13 0 0 1 4-.4c14.6.6 14 23-.6 22.8-12.5 0-15.2-17.7-3.4-22.4M32 182.8v-11.2h2.4v9.6h12.4v-9.6h2.8v22.5l-1.3-.2-1.3-.1-.1-4.9-.1-4.9H34.4v10H32v-11.2m23-10.7c0-.3.7-.5 1.4-.5h1.2v11.1l-.2 11.1H55l-.1-10.6v-11m5.9.6v-1.2H78v2.4h-7.2v9.9l-.2 9.9h-2.4l-.1-9.9-.1-9.9h-7.2v-1.2m20.4 10v-11.2H87c6 0 7.8.4 9.5 2 3.5 3 2.1 9.6-2.2 10.6-1.7.4-1.6.5 1.7 5 3.7 4.8 3.6 4.8 1.8 4.8-1.3 0-1.6-.3-4.6-4.4l-3.3-4.4H83.6v8.8h-2.4v-11.2m45.7-.1-.1-11.1h5.3c9.4 0 14 3.7 14 11.2 0 7.3-4.7 11-13.9 11H127l-.1-11.1m23.5.1v-11.2h2.4V194h-2.4v-11.2m21.5-8.5a9.4 9.4 0 0 0-6.7 0c-7.5 3.2-6.4 15.6 1.6 17.3 10 2.1 14.5-12.9 5-17.3m-78.2.3c-.8-.4-2.4-.6-5.6-.6h-4.4v8.8h4.2c4.9 0 6.6-.5 7.6-2.3 1.2-2.4.5-4.7-1.8-5.9m46 .8c-1.5-1.1-2-1.2-5.8-1.3l-4.2-.2v17.8l3.7-.2c4.5-.3 6-.9 8-3 3.5-4 2.8-10-1.6-13.1m-24.6 4.7a73 73 0 0 0-2.3-5c-.2-.3-4.8 9.4-4.8 10.2 0 .2 2 .3 4.6.3 2.5 0 4.6-.2 4.6-.4l-2-5m42.3 24.3.1-3.7h9.6v7.6h11.1l.2 4 .1 4h-11.4v11.4c0 15.2 1 16.8 9 14.4l2.1-.6v3.9l-.1 3.9-2.6.9c-7 2.4-14 .4-16.6-4.5l-1.2-2.3-.2-13.5-.2-13.4-2.7-.1-2.7-.1v-8h2.7l2.7-.2.1-3.7M46 208.2c7-1.8 15.5 0 20.6 4.7l2 1.8-2.8 3c-3.3 3.6-3 3.5-5.3 1.5-8.7-7.2-20.4-2.1-21.2 9.3-.9 12.6 12.2 19.2 22 11l1.8-1.4L66 241l2.9 2.9-2.4 2c-6.7 6-16.4 7.4-24.7 3.3-18-8.7-15.2-35.9 4.2-41m36.8.2c13.2-4.3 24.9 5 25.9 20.7l.2 3.7H93.3c-13.5 0-15.7 0-15.7.6 0 9.3 13.5 13.5 22 6.7l1.6-1.4 2.9 2.6 2.8 2.5-2.3 2.1a23 23 0 0 1-22.3 4.5c-19.4-6.4-19-35.8.5-42m47.7 0c5-1.8 11.6-.6 15.3 2.8 4.3 4 4.6 5.6 4.6 24.1v15.1h-9.6v-13c0-8.2-.2-13.7-.4-14.8-2-7.8-13.5-8.6-17.3-1.1-.9 1.9-.9 2.1-1 15.4l-.2 13.5h-9.5v-42h9.6v3c0 3.5 0 3.5 1.8 1.5 1.7-2 4.1-3.7 6.7-4.6m62.7 0c13.3-4.2 25 5 25.9 20.6l.2 3.9H188l.3 1.3c1.8 9.4 13.9 12.8 21.7 6l1.7-1.4 2.9 2.6 2.8 2.5-2.2 2c-9.4 8.7-26 7.1-32.8-3.1-8.4-12.6-2.9-30 10.9-34.3m49.4-.2c.9-.3 2.4-.6 3.3-.6h1.7v9.9l-2.1.2c-3.8.5-6 1.5-8.3 3.9-3.9 3.8-4.2 5-4.3 17.9l-.2 10.9H223l.1-21 .1-21h9.7l-.2 4.4c-.1 5 0 5 1.2 2.7 1.8-3.4 5.1-6.2 8.7-7.3M92.1 216c-6.5-2.4-14.5 2.8-14.5 9.6 0 .7 14.1 1.2 21.1.8.5 0 .2-2.4-.5-4.3a11 11 0 0 0-6-6m111.3.2c-5.5-2.8-12.4.2-14.6 6.2-1.6 4.2-2.5 3.9 9.9 3.9 12.2 0 11.3.3 10.2-3.5-.7-2.4-3.2-5.4-5.5-6.6"/><path fill="#f5da27" stroke="#f5da27" d="M309 129.7c.4-.7 1 0 6 6.5 7.2 9.5 13.9 21 18.5 31.8l.8 1.9 3 .5c12.2 2.1 30 8.5 34.7 12.4l.9.8-1.5 2.5a114 114 0 0 1-20.2 23.4c-3 2.5-3.2 2.8-3 3.9 3 14.2 5.8 51.4 4 51.4-.2 0-32.5-21.4-33-21.9a9 9 0 0 1 2.2-2.2c9.3-8.1 15.4-14.4 22.1-23 3.9-5 3.9-5.3 0-2.1a277.8 277.8 0 0 1-43.7 30 596.8 596.8 0 0 1-42.8 21.9c-.1 0 3.6-13.4 8.2-29.5l8.4-29.4-9.1-8.2a2117.5 2117.5 0 0 1-23.5-21.2c-12.2-10.8-11.7-10-7.5-10.5l9.3-1.1a316 316 0 0 1 84.2.7 254 254 0 0 0-35.4-6.2 376 376 0 0 1 17.3-32.4"/></g></svg>