<svg xmlns="http://www.w3.org/2000/svg" version="1.1" xmlns:xlink="http://www.w3.org/1999/xlink" xmlns:svgjs="http://svgjs.com/svgjs" width="312.01045" height="229.49478"><svg version="1.1" xmlns="http://www.w3.org/2000/svg" xmlns:xlink="http://www.w3.org/1999/xlink" width="312.01045" height="229.49478" viewBox="0,0,312.01045,229.49478"><g transform="translate(-83.99477,-65.25261)"><g data-paper-data="{&quot;isPaintingLayer&quot;:true}" fill="#040404" fill-rule="evenodd" stroke="none" stroke-width="1" stroke-linecap="butt" stroke-linejoin="miter" stroke-miterlimit="10" stroke-dasharray="" stroke-dashoffset="0" style="mix-blend-mode: normal"><path d="M136.3425,65.65551c0.3153,-0.50956 6.88066,-0.53804 7.83675,-0.03459c0.38853,0.20545 1.43208,0.6906 2.31899,1.07814c9.71327,4.24436 10.77817,16.27967 2.23762,25.28608c-7.22139,7.61399 -14.48958,17.23065 -18.6912,24.7287c-7.3587,13.13277 -10.93888,22.78096 -14.6452,39.46339c-1.66499,7.495 -2.24576,13.8183 -2.24169,24.41034c0.00407,9.57598 0.14849,11.52169 1.48395,19.93511c2.53258,15.95218 9.91366,35.72454 17.49204,46.85974c0.63672,0.93573 1.15744,1.79416 1.15744,1.90809c0,0.2431 3.42151,5.0387 6.27955,8.80096c2.29356,3.02079 3.80599,4.79156 7.31192,8.56802c4.96242,5.34586 5.57065,6.10258 6.43214,8.00557c5.85849,12.94053 -10.17506,25.82005 -21.57366,17.32933c-2.07386,-1.54498 -9.77125,-9.76413 -12.70153,-13.56197c-0.77604,-1.00692 -1.51141,-1.92231 -1.63447,-2.0342c-0.49329,-0.4516 -4.03178,-5.28179 -6.10971,-8.3402c-1.21644,-1.79009 -2.34849,-3.31573 -2.51629,-3.39c-0.16783,-0.07526 -0.30512,-0.31632 -0.30512,-0.53702c0,-0.22072 -0.56245,-1.21848 -1.249,-2.21728c-0.68757,-0.9988 -1.75753,-2.77158 -2.37901,-3.93822c-0.62043,-1.16763 -1.54091,-2.85499 -2.04537,-3.75005c-3.80497,-6.75149 -7.89267,-16.12507 -10.55646,-24.20693c-1.25816,-3.8192 -1.48089,-4.5505 -2.47664,-8.13678c-0.27868,-1.00692 -0.65705,-2.19694 -0.84013,-2.64445c-0.18308,-0.44753 -0.4292,-1.36292 -0.54618,-2.0342c-0.11698,-0.67128 -0.4109,-2.13591 -0.65196,-3.25472c-0.24208,-1.11881 -0.5472,-2.99841 -0.67942,-4.17721c-0.13223,-1.17883 -0.40075,-2.24271 -0.59602,-2.36373c-0.19629,-0.12103 -0.35598,-1.08829 -0.35598,-2.14912c0,-1.06083 -0.16783,-2.10234 -0.3743,-2.31492c-0.38038,-0.39362 -0.4404,-0.93166 -1.32324,-11.98141c-0.7496,-9.37662 -0.39566,-27.66506 0.53498,-27.66506c0.19224,0 0.34888,-1.24492 0.34888,-2.76652c0,-1.52157 0.16376,-2.94043 0.36412,-3.15301c0.20036,-0.21258 0.47703,-1.57649 0.61534,-3.03094c0.53195,-5.60929 0.73842,-6.91627 1.0944,-6.91627c0.20138,0 0.36718,-0.72112 0.36718,-1.60294c0,-0.88182 0.18308,-1.71686 0.40683,-1.8552c0.22375,-0.13833 0.40683,-0.78317 0.40683,-1.43411c0,-0.64993 0.25121,-1.96604 0.55738,-2.92519c0.30716,-0.95912 0.9764,-3.29946 1.487,-5.20144c0.51057,-1.90198 1.0832,-3.63205 1.27341,-3.84463c0.18919,-0.21258 0.34379,-0.71806 0.34379,-1.1239c0,-0.40581 0.16172,-1.05574 0.35903,-1.44427c0.19832,-0.38853 0.58584,-1.25612 0.86149,-1.9274c0.27562,-0.67128 0.66313,-1.53887 0.86149,-1.9274c0.19731,-0.38853 0.35903,-0.98557 0.35903,-1.32731c0,-0.34175 0.16376,-0.93878 0.36412,-1.32731c0.20036,-0.38853 0.95199,-1.98844 1.67008,-3.55475c0.71806,-1.56634 1.46969,-3.16622 1.67008,-3.55475c0.20036,-0.38853 0.36412,-0.98353 0.36412,-1.32222c0,-0.33869 0.18308,-0.61534 0.40683,-0.61534c0.22375,0 0.40683,-0.36616 0.40683,-0.81369c0,-0.44753 0.13732,-0.8147 0.30512,-0.8147c0.16783,-0.00102 0.76283,-1.00794 1.32222,-2.2366c0.55939,-1.22866 1.15442,-2.23558 1.32222,-2.2366c0.16783,0 0.30512,-0.36718 0.30512,-0.8147c0,-0.44753 0.18308,-0.81369 0.40683,-0.81369c0.22375,0 0.40683,-0.2746 0.40683,-0.61027c0,-0.33564 0.18308,-0.61027 0.40683,-0.61027c0.22375,0 0.40683,-0.36616 0.40683,-0.81369c0,-0.44753 0.18308,-0.81369 0.40683,-0.81369c0.22375,0 0.40683,-0.20138 0.40683,-0.44753c0,-0.4882 2.75532,-5.1404 3.53238,-5.96224c0.26547,-0.28173 0.59907,-0.87673 0.74046,-1.32222c0.14139,-0.44651 0.42821,-0.81165 0.63672,-0.81165c0.20851,0 0.37937,-0.24004 0.37937,-0.53396c0,-0.29293 0.36616,-0.92657 0.81369,-1.40665c0.44753,-0.48008 0.81369,-1.03642 0.81369,-1.23678c0,-0.20036 0.54924,-0.93777 1.22052,-1.64058c0.67128,-0.70282 1.22052,-1.43513 1.22052,-1.62735c0,-0.19224 0.50551,-0.8808 1.12288,-1.52971c0.61839,-0.64789 1.57245,-1.81959 2.12064,-2.60276c0.54822,-0.78317 1.50734,-1.9091 2.13184,-2.50207c0.62348,-0.59398 1.13405,-1.19509 1.13405,-1.3375c0,-0.33564 0.75163,-1.15744 6.00087,-6.56029c4.30842,-4.43253 6.73217,-6.28057 8.23747,-6.28057c0.4221,0 0.87979,-0.18308 1.01812,-0.40683M336.30395,65.65551c0,-0.51566 7.07086,-0.54618 8.04016,-0.03459c0.38853,0.20545 1.37817,0.66415 2.19895,1.02016c3.64427,1.58158 14.61163,14.25056 22.56737,26.06922c6.65996,9.89129 13.32094,22.71181 16.9113,32.54712c12.38317,33.91921 13.2599,69.01111 2.55598,102.32005c-3.20081,9.96044 -5.15059,14.79674 -9.39596,23.29866c-8.52938,17.08114 -25.75698,39.22946 -33.31708,42.83407c-7.37293,3.51408 -19.7317,-2.46035 -19.7317,-9.53936c0,-0.60518 -0.2024,-1.30291 -0.45058,-1.55106c-0.64687,-0.64687 -0.0478,-5.20144 0.97742,-7.44211c0.82282,-1.79925 2.61393,-4.21486 4.83426,-6.51959c1.19102,-1.23678 3.17233,-3.42965 4.40303,-4.87293c1.2307,-1.44325 2.46951,-2.87329 2.75226,-3.17742c0.28275,-0.3041 1.01405,-1.22459 1.62531,-2.04436c0.61027,-0.81977 1.21441,-1.58158 1.34256,-1.69347c0.12815,-0.11189 0.85334,-1.11881 1.61312,-2.23762c0.75876,-1.11881 1.53175,-2.21728 1.71686,-2.44103c1.28865,-1.55717 7.09222,-11.41082 8.39003,-14.24547c0.30512,-0.66823 0.75061,-1.58056 0.98964,-2.02809c0.93471,-1.75043 2.31797,-4.81698 3.11944,-6.91627c0.33259,-0.86861 0.98862,-2.47359 1.62228,-3.96667c0.48008,-1.13202 2.53968,-7.66586 3.62291,-11.49321c3.16622,-11.19317 5.02549,-28.95069 4.16095,-39.74006c-0.833,-10.40797 -2.44918,-21.48213 -3.67071,-25.1508c-0.18613,-0.55939 -0.53297,-1.74942 -0.77095,-2.64445c-0.68452,-2.57631 -2.90075,-9.6726 -3.33507,-10.67952c-0.36616,-0.84621 -0.5655,-1.3375 -1.57446,-3.86496c-2.70039,-6.76676 -6.90914,-14.64214 -11.57763,-21.66419c-4.72136,-7.10342 -7.40141,-10.34083 -15.03576,-18.16131c-3.13774,-3.21402 -4.75493,-5.82899 -4.75493,-7.68722c0,-0.63672 -0.18308,-1.27137 -0.40683,-1.4097c-1.02016,-0.63061 -0.22477,-6.2938 1.34256,-9.56071c0.6906,-1.4392 1.59584,-2.52444 3.49069,-4.18332c1.70464,-1.49413 3.94633,-2.73294 4.9431,-2.73294c0.4404,0 0.80147,-0.18308 0.80147,-0.40683M175.96662,106.07393c2.41153,-0.92657 7.12477,-1.2673 7.56925,-0.54822c0.13833,0.22375 0.69874,0.40683 1.24492,0.40683c0.54618,0 0.99269,0.18308 0.99269,0.40683c0,0.22375 0.36616,0.40683 0.81369,0.40683c0.44753,0 0.81369,0.18308 0.81369,0.40683c0,0.22375 0.2563,0.40683 0.56957,0.40683c1.56939,0 5.30417,4.96649 6.16361,8.19476c1.6009,6.01309 0.19629,10.32864 -5.2655,16.18914c-25.99804,27.89289 -25.57593,70.26723 0.97337,97.83362c13.87626,14.40821 -6.20836,34.32502 -20.3623,20.19345c-1.84094,-1.83789 -6.3233,-7.03525 -9.62786,-11.16368c-0.33971,-0.42414 -1.50937,-2.16337 -2.5997,-3.86496c-1.09135,-1.70162 -2.12267,-3.28422 -2.29254,-3.51713c-2.76346,-3.78868 -8.2446,-16.18509 -10.33675,-23.37596c-6.91932,-23.78279 -3.98398,-53.38544 7.28039,-73.43447c0.75367,-1.34256 1.47377,-2.76143 1.59787,-3.15301c0.1251,-0.39158 0.38853,-0.71198 0.58685,-0.71198c0.19731,0 0.35903,-0.19629 0.35903,-0.43531c0,-0.23902 0.50956,-1.20018 1.13103,-2.13591c0.62246,-0.93573 1.38529,-2.20404 1.69653,-2.81941c0.31021,-0.61534 0.71704,-1.11881 0.90318,-1.11881c0.18512,0 0.33768,-0.18817 0.33768,-0.41803c0,-0.87469 6.80132,-9.2027 10.83005,-13.26194c2.57835,-2.59767 3.72258,-3.37269 6.6213,-4.48641M297.04397,105.52571c0.13833,-0.22375 1.51141,-0.40683 3.0513,-0.40683c1.53989,0 2.91297,0.18308 3.0513,0.40683c0.13833,0.22375 0.58991,0.40683 1.00285,0.40683c5.92154,0 20.97153,19.95748 27.91831,37.02236c3.48254,8.55481 5.21669,15.29003 6.65691,25.86479c0.42414,3.1174 0.64178,20.65116 0.26445,21.26344c-0.09865,0.15867 -0.3814,2.11557 -0.62857,4.34708c-0.75571,6.83082 -2.7726,14.47126 -5.79746,21.95913c-0.90318,2.23762 -1.85112,4.61761 -2.10641,5.28892c-3.07877,8.1083 -14.8293,24.60157 -21.50145,30.18136c-5.25535,4.39386 -14.39701,3.85481 -19.34317,-1.14118c-0.94693,-0.95708 -1.72195,-1.97724 -1.72195,-2.26915c0,-0.29191 -0.18308,-0.52992 -0.40683,-0.52992c-0.22375,0 -0.40683,-0.36616 -0.40683,-0.81369c0,-0.44753 -0.18308,-0.81369 -0.40683,-0.81369c-0.22375,0 -0.40683,-0.44651 -0.40683,-0.99269c0,-0.54618 -0.18308,-1.10659 -0.40683,-1.24492c-0.55738,-0.3448 -0.51465,-5.59608 0.05696,-6.99865c1.30901,-3.21099 1.82468,-4.07245 3.92396,-6.56739c1.25409,-1.48904 2.56817,-2.98212 2.9201,-3.31776c2.8906,-2.75532 7.73301,-10.0469 10.6714,-16.07015c0.65502,-1.34256 1.36292,-2.75939 1.57344,-3.14792c0.21054,-0.38853 0.38242,-1.07508 0.38242,-1.52564c0,-0.45058 0.18308,-0.81878 0.40683,-0.81878c0.22375,0 0.40683,-0.35496 0.40683,-0.78928c0,-0.43429 0.18308,-0.90318 0.40683,-1.04151c0.22375,-0.13833 0.40683,-0.68757 0.40683,-1.22052c0,-0.53297 0.16274,-1.06999 0.36208,-1.19305c0.19832,-0.12306 0.46379,-0.81977 0.58787,-1.54903c0.12408,-0.72926 0.42007,-2.24169 0.65909,-3.3605c1.11575,-5.23807 1.34256,-7.45532 1.5236,-14.84963c0.12103,-4.99599 0.01932,-8.98809 -0.2746,-10.78123c-1.23477,-7.51839 -1.30392,-7.83268 -2.61294,-12.00174c-3.11231,-9.90755 -8.37886,-18.71765 -15.79147,-26.41606c-1.90707,-1.97928 -3.71851,-4.16909 -4.02669,-4.86478c-0.30818,-0.69671 -0.69874,-1.26628 -0.86861,-1.26628c-0.16885,0 -0.30716,-0.44651 -0.30716,-0.99269c0,-0.54618 -0.18308,-1.10659 -0.40683,-1.24492c-0.22375,-0.13833 -0.40683,-1.87757 -0.40683,-3.86496c0,-1.98742 0.18308,-3.72666 0.40683,-3.86496c0.22375,-0.13833 0.40683,-0.69874 0.40683,-1.24492c0,-0.54618 0.18308,-0.99269 0.40683,-0.99269c0.22375,0 0.40683,-0.36616 0.40683,-0.81369c0,-0.44753 0.18308,-0.81369 0.40683,-0.81369c0.22375,0 0.40683,-0.23393 0.40683,-0.52075c0,-0.70892 2.80413,-3.54765 3.50491,-3.54765c0.31021,0 0.56346,-0.18308 0.56346,-0.40683c0,-0.22375 0.2746,-0.40683 0.61027,-0.40683c0.33564,0 0.61027,-0.18308 0.61027,-0.40683c0,-0.22375 0.36616,-0.40683 0.81369,-0.40683c0.44753,0 0.81369,-0.18308 0.81369,-0.40683c0,-0.22375 0.44651,-0.40683 0.99269,-0.40683c0.54618,0 1.10659,-0.18308 1.24492,-0.40683M235.20442,137.2592c1.27748,-0.54924 6.1443,-0.43633 10.3744,0.24004c6.24906,0.9988 6.50638,1.0537 6.74031,1.43208c0.12306,0.19934 0.56245,0.36208 0.97538,0.36208c0.41294,0 1.45445,0.34888 2.31492,0.77604c0.86047,0.42617 2.20506,1.06897 2.98823,1.42699c11.65493,5.33977 21.1231,17.75955 23.38207,30.67159c6.2348,35.64419 -29.72062,62.25148 -61.79886,45.73177c-17.81345,-9.17422 -26.05907,-27.73119 -21.45976,-48.2969c1.64669,-7.36481 7.72792,-16.82178 14.53535,-22.60705c2.86008,-2.43088 8.71246,-6.07512 9.75499,-6.07512c0.32851,0 0.59805,-0.18308 0.59805,-0.40683c0,-0.22375 0.27664,-0.40683 0.61534,-0.40683c0.33869,0 1.02525,-0.21156 1.52564,-0.4699c1.98742,-1.02726 2.35966,-1.15744 3.32184,-1.15744c0.54924,0 1.11168,-0.18308 1.25002,-0.40683c0.13833,-0.22375 1.11066,-0.42007 2.16032,-0.43531c1.04965,-0.01626 2.27424,-0.18613 2.72175,-0.37835M246.3925,167.65721c-13.28635,-6.54705 -26.99175,11.98039 -16.49021,22.29378c5.90324,5.79746 14.72861,5.76185 20.40807,-0.08239c6.46874,-6.65589 4.45286,-18.08602 -3.91785,-22.21139"></path></g></g></svg><style>@media (prefers-color-scheme: light) { :root { filter: none; } }
@media (prefers-color-scheme: dark) { :root { filter: contrast(0.425531914893617) brightness(4); } }
</style></svg>