<svg version="1.1" xmlns="http://www.w3.org/2000/svg" xmlns:xlink="http://www.w3.org/1999/xlink" width="511.31051" height="511.31051" viewBox="0,0,511.31051,511.31051"><g transform="translate(-0.34475,-0.34474)"><g data-paper-data="{&quot;isPaintingLayer&quot;:true}" stroke-linecap="butt" stroke-linejoin="miter" stroke-miterlimit="10" stroke-dasharray="" stroke-dashoffset="0" style="mix-blend-mode: normal"><path d="M0.34475,511.65525v-511.31051h511.31051v511.31051z" fill="#00569d" fill-rule="nonzero" stroke="#000000" stroke-width="0"/><path d="M142.15778,130.42076c0.34628,-0.55963 7.55672,-0.59091 8.60673,-0.03798c0.42671,0.22564 1.57278,0.75846 2.54683,1.18405c10.66765,4.66137 11.83718,17.8792 2.45747,27.77052c-7.93092,8.3621 -15.91323,18.92363 -20.52768,27.15838c-8.08172,14.42311 -12.01367,25.01927 -16.08413,43.34082c-1.82858,8.2314 -2.46641,15.17599 -2.46194,26.80875c0.00447,10.51685 0.16309,12.65373 1.62975,21.89381c2.78141,17.51952 10.8877,39.23461 19.21071,51.46387c0.69926,1.02767 1.27118,1.97044 1.27118,2.09555c0,0.26697 3.75769,5.53377 6.89655,9.66567c2.51891,3.31758 4.17993,5.26233 8.03034,9.40987c5.45,5.87112 6.11798,6.70219 7.06411,8.79215c6.4341,14.21199 -11.17478,28.35696 -23.69335,19.03198c-2.27763,-1.69677 -10.73132,-10.7235 -13.94949,-14.8945c-0.85229,-1.10586 -1.65991,-2.11119 -1.79507,-2.23406c-0.54176,-0.49596 -4.42791,-5.80074 -6.71001,-9.15966c-1.33597,-1.96598 -2.57923,-3.64152 -2.76354,-3.72307c-0.18431,-0.08266 -0.33511,-0.3474 -0.33511,-0.58979c0,-0.2424 -0.61772,-1.3382 -1.37171,-2.43513c-0.75511,-1.09692 -1.93023,-3.04391 -2.61274,-4.32515c-0.68139,-1.28235 -1.6923,-3.13551 -2.24635,-4.11849c-4.17881,-7.41485 -8.66816,-17.70941 -11.59367,-26.58535c-1.38177,-4.19445 -1.6264,-4.9976 -2.71997,-8.93625c-0.30607,-1.10586 -0.7216,-2.41279 -0.92267,-2.90428c-0.20107,-0.49149 -0.47139,-1.49682 -0.59985,-2.23406c-0.12846,-0.73724 -0.45128,-2.34577 -0.71602,-3.5745c-0.26585,-1.22873 -0.60096,-3.29301 -0.74618,-4.58765c-0.14521,-1.29464 -0.44011,-2.46305 -0.65458,-2.59598c-0.21559,-0.13293 -0.39096,-1.19522 -0.39096,-2.36029c0,-1.16506 -0.18431,-2.3089 -0.41107,-2.54236c-0.41777,-0.43229 -0.48367,-1.0232 -1.45326,-13.15863c-0.82325,-10.29791 -0.43453,-30.38325 0.58756,-30.38325c0.21112,0 0.38314,-1.36725 0.38314,-3.03833c0,-1.67108 0.17984,-3.22934 0.3999,-3.4628c0.22006,-0.23346 0.52389,-1.7314 0.6758,-3.32875c0.58421,-6.16043 0.81096,-7.59581 1.20193,-7.59581c0.22117,0 0.40325,-0.79198 0.40325,-1.76044c0,-0.96847 0.20107,-1.88555 0.44681,-2.03747c0.24575,-0.15192 0.44681,-0.86011 0.44681,-1.57501c0,-0.71378 0.27591,-2.15922 0.61213,-3.21258c0.33734,-1.05336 1.07235,-3.62365 1.6331,-5.7125c0.56075,-2.08885 1.18964,-3.98892 1.39852,-4.22238c0.20777,-0.23346 0.37756,-0.78862 0.37756,-1.23432c0,-0.4457 0.17761,-1.15948 0.39431,-1.58618c0.21782,-0.42671 0.64341,-1.37953 0.94613,-2.11677c0.30272,-0.73724 0.7283,-1.69007 0.94613,-2.11677c0.2167,-0.42671 0.39431,-1.0824 0.39431,-1.45773c0,-0.37532 0.17984,-1.03102 0.3999,-1.45773c0.22006,-0.42671 1.04554,-2.1838 1.83417,-3.90402c0.78862,-1.72023 1.61411,-3.47732 1.83417,-3.90402c0.22006,-0.42671 0.3999,-1.08017 0.3999,-1.45214c0,-0.37197 0.20107,-0.6758 0.44681,-0.6758c0.24575,0 0.44681,-0.40213 0.44681,-0.89363c0,-0.49149 0.1508,-0.89474 0.33511,-0.89474c0.18431,-0.00112 0.83777,-1.10698 1.45214,-2.45635c0.61437,-1.34937 1.26783,-2.45523 1.45214,-2.45635c0.18431,0 0.33511,-0.40325 0.33511,-0.89474c0,-0.49149 0.20107,-0.89363 0.44681,-0.89363c0.24575,0 0.44681,-0.3016 0.44681,-0.67022c0,-0.36862 0.20107,-0.67022 0.44681,-0.67022c0.24575,0 0.44681,-0.40213 0.44681,-0.89363c0,-0.49149 0.20107,-0.89363 0.44681,-0.89363c0.24575,0 0.44681,-0.22117 0.44681,-0.49149c0,-0.53618 3.02604,-5.64548 3.87945,-6.54804c0.29155,-0.30942 0.65793,-0.96288 0.8132,-1.45214c0.15527,-0.49038 0.47027,-0.89139 0.69926,-0.89139c0.22899,0 0.41665,-0.26362 0.41665,-0.58644c0,-0.32171 0.40213,-1.01762 0.89363,-1.54485c0.49149,-0.52724 0.89363,-1.13825 0.89363,-1.35831c0,-0.22006 0.6032,-1.0299 1.34044,-1.80177c0.73724,-0.77187 1.34044,-1.57613 1.34044,-1.78725c0,-0.21112 0.55516,-0.96735 1.2332,-1.68002c0.67916,-0.71155 1.72693,-1.99837 2.32901,-2.85848c0.60208,-0.86011 1.65544,-2.09667 2.3413,-2.7479c0.68474,-0.65235 1.24549,-1.31251 1.24549,-1.4689c0,-0.36862 0.82549,-1.27118 6.59048,-7.20485c4.73174,-4.86802 7.39363,-6.89767 9.04684,-6.89767c0.46357,0 0.96623,-0.20107 1.11815,-0.44681M361.76614,130.42076c0,-0.56633 7.7656,-0.59985 8.83013,-0.03798c0.42671,0.22564 1.51358,0.72942 2.41502,1.12038c4.00232,1.73698 16.04727,15.65073 24.78469,28.63063c7.31432,10.86313 14.62976,24.94331 18.57288,35.745c13.59986,37.25188 14.56274,75.79169 2.8071,112.37335c-3.5153,10.93909 -5.65665,16.25057 -10.31914,25.58784c-9.36742,18.75942 -28.2877,43.0839 -36.5906,47.04266c-8.09736,3.85934 -21.67041,-2.7021 -21.67041,-10.47664c0,-0.66463 -0.22229,-1.43092 -0.49484,-1.70347c-0.71043,-0.71043 -0.0525,-5.7125 1.07347,-8.17332c0.90368,-1.97603 2.87077,-4.62898 5.30925,-7.16017c1.30804,-1.35831 3.48402,-3.76663 4.83563,-5.3517c1.35161,-1.58507 2.71215,-3.15561 3.02269,-3.48961c0.31053,-0.33399 1.11368,-1.34491 1.78502,-2.24523c0.67022,-0.90033 1.33374,-1.73698 1.47448,-1.85986c0.14075,-0.12287 0.93719,-1.22873 1.77161,-2.45747c0.83331,-1.22873 1.68225,-2.43513 1.88555,-2.68088c1.41528,-1.71017 7.78906,-12.53197 9.21439,-15.64514c0.33511,-0.73389 0.82437,-1.73587 1.08687,-2.22736c1.02655,-1.92241 2.54571,-5.29026 3.42594,-7.59581c0.36527,-0.95394 1.08575,-2.71662 1.78166,-4.35642c0.52724,-1.24326 2.78923,-8.41907 3.97887,-12.62245c3.47732,-12.29293 5.51925,-31.79518 4.56978,-43.64465c-0.91485,-11.43058 -2.68981,-23.59282 -4.03137,-27.62195c-0.20442,-0.61437 -0.58532,-1.92129 -0.84671,-2.90428c-0.75176,-2.82944 -3.18577,-10.62297 -3.66275,-11.72883c-0.40213,-0.92937 -0.62107,-1.4689 -1.72916,-4.24472c-2.96572,-7.43161 -7.58799,-16.08078 -12.71517,-23.79277c-5.18526,-7.80135 -8.12864,-11.35686 -16.51307,-19.94571c-3.44604,-3.52982 -5.22212,-6.40171 -5.22212,-8.44252c0,-0.69926 -0.20107,-1.39629 -0.44681,-1.54821c-1.12038,-0.69256 -0.24686,-6.91219 1.47448,-10.50009c0.75846,-1.5806 1.75262,-2.77247 3.83365,-4.59435c1.87214,-1.64092 4.33408,-3.00146 5.42877,-3.00146c0.48367,0 0.88022,-0.20107 0.88022,-0.44681M185.67509,174.81047c2.64848,-1.01762 7.8248,-1.39182 8.31295,-0.60208c0.15192,0.24575 0.7674,0.44681 1.36725,0.44681c0.59985,0 1.09022,0.20107 1.09022,0.44681c0,0.24575 0.40213,0.44681 0.89363,0.44681c0.49149,0 0.89363,0.20107 0.89363,0.44681c0,0.24575 0.28149,0.44681 0.62554,0.44681c1.72358,0 5.82532,5.45446 6.76921,8.99992c1.75821,6.60389 0.21559,11.34345 -5.78287,17.77979c-28.55244,30.63347 -28.08887,77.17123 1.069,107.44613c15.23966,15.82387 -6.81836,37.69757 -22.36297,22.17754c-2.02183,-2.01848 -6.94458,-7.72651 -10.57382,-12.26054c-0.37309,-0.4658 -1.65767,-2.37593 -2.85513,-4.24472c-1.19857,-1.86879 -2.33124,-3.60689 -2.51779,-3.86269c-3.03497,-4.16094 -9.05466,-17.77532 -11.35239,-25.67273c-7.59916,-26.11954 -4.37541,-58.63074 7.99571,-80.64966c0.82772,-1.47448 1.61858,-3.03274 1.75486,-3.4628c0.13739,-0.43006 0.42671,-0.78192 0.64453,-0.78192c0.2167,0 0.39431,-0.21559 0.39431,-0.47809c0,-0.2625 0.55963,-1.3181 1.24214,-2.34577c0.68362,-1.02767 1.5214,-2.42061 1.86321,-3.09641c0.34069,-0.6758 0.78751,-1.22873 0.99192,-1.22873c0.2033,0 0.37085,-0.20665 0.37085,-0.4591c0,-0.96065 7.46959,-10.1069 11.89415,-14.56497c2.83167,-2.8529 4.08833,-3.70408 7.27187,-4.92723M318.64873,174.20839c0.15192,-0.24575 1.65991,-0.44681 3.35109,-0.44681c1.69119,0 3.19918,0.20107 3.35109,0.44681c0.15192,0.24575 0.64788,0.44681 1.10139,0.44681c6.50336,0 23.03207,21.91839 30.66139,40.65994c3.82472,9.39535 5.72925,16.79233 7.31097,28.40611c0.4658,3.4237 0.70485,22.6802 0.29043,23.35266c-0.10835,0.17426 -0.41889,2.32343 -0.69033,4.77419c-0.82995,7.50198 -3.04503,15.89312 -6.36708,24.11671c-0.99192,2.45747 -2.033,5.07132 -2.31337,5.80856c-3.38125,8.90497 -16.28632,27.01875 -23.61404,33.14679c-5.7717,4.82558 -15.81158,4.23355 -21.2437,-1.25331c-1.03996,-1.05113 -1.89113,-2.17151 -1.89113,-2.4921c0,-0.32059 -0.20107,-0.58197 -0.44681,-0.58197c-0.24575,0 -0.44681,-0.40213 -0.44681,-0.89363c0,-0.49149 -0.20107,-0.89363 -0.44681,-0.89363c-0.24575,0 -0.44681,-0.49038 -0.44681,-1.09022c0,-0.59985 -0.20107,-1.21533 -0.44681,-1.36725c-0.61213,-0.37867 -0.56522,-6.14591 0.06255,-7.68629c1.43762,-3.52647 2.00395,-4.47259 4.30951,-7.21267c1.3773,-1.63533 2.8205,-3.27514 3.207,-3.64376c3.1746,-3.02604 8.49279,-11.03404 11.71989,-17.6491c0.71937,-1.47448 1.49682,-3.03051 1.72805,-3.45721c0.23123,-0.42671 0.42,-1.1807 0.42,-1.67555c0,-0.49484 0.20107,-0.89921 0.44681,-0.89921c0.24575,0 0.44681,-0.38984 0.44681,-0.86682c0,-0.47697 0.20107,-0.99192 0.44681,-1.14384c0.24575,-0.15192 0.44681,-0.75511 0.44681,-1.34044c0,-0.58532 0.17873,-1.17512 0.39766,-1.31028c0.21782,-0.13516 0.50937,-0.90033 0.64564,-1.70124c0.13628,-0.80091 0.46133,-2.46194 0.72384,-3.69067c1.22538,-5.75271 1.47448,-8.18784 1.67331,-16.30866c0.13293,-5.48686 0.02122,-9.87121 -0.3016,-11.84053c-1.35608,-8.2571 -1.43203,-8.60226 -2.86965,-13.18097c-3.41812,-10.881 -9.2021,-20.55673 -17.34303,-29.01154c-2.09443,-2.17374 -4.08387,-4.57871 -4.42233,-5.34276c-0.33846,-0.76517 -0.7674,-1.3907 -0.95394,-1.3907c-0.18543,0 -0.33734,-0.49038 -0.33734,-1.09022c0,-0.59985 -0.20107,-1.21533 -0.44681,-1.36725c-0.24575,-0.15192 -0.44681,-2.06204 -0.44681,-4.24472c0,-2.18268 0.20107,-4.0928 0.44681,-4.24472c0.24575,-0.15192 0.44681,-0.7674 0.44681,-1.36725c0,-0.59985 0.20107,-1.09022 0.44681,-1.09022c0.24575,0 0.44681,-0.40213 0.44681,-0.89363c0,-0.49149 0.20107,-0.89363 0.44681,-0.89363c0.24575,0 0.44681,-0.25692 0.44681,-0.57192c0,-0.77857 3.07966,-3.89621 3.84929,-3.89621c0.34069,0 0.61884,-0.20107 0.61884,-0.44681c0,-0.24575 0.3016,-0.44681 0.67022,-0.44681c0.36862,0 0.67022,-0.20107 0.67022,-0.44681c0,-0.24575 0.40213,-0.44681 0.89363,-0.44681c0.49149,0 0.89363,-0.20107 0.89363,-0.44681c0,-0.24575 0.49038,-0.44681 1.09022,-0.44681c0.59985,0 1.21533,-0.20107 1.36725,-0.44681M250.73323,209.05977c1.40299,-0.6032 6.74799,-0.47921 11.39372,0.26362c6.86304,1.09692 7.14565,1.15724 7.40257,1.57278c0.13516,0.21894 0.61772,0.39766 1.07123,0.39766c0.45351,0 1.59735,0.38314 2.54236,0.85229c0.94501,0.46804 2.42172,1.174 3.28184,1.56719c12.80006,5.86441 23.19851,19.50448 25.67943,33.6852c6.8474,39.14636 -32.64077,68.3679 -67.87082,50.22508c-19.56369,-10.07562 -28.61946,-30.45586 -23.56824,-53.04223c1.80847,-8.08842 8.4872,-18.47458 15.96349,-24.82826c3.14109,-2.6697 9.56849,-6.67203 10.71345,-6.67203c0.3608,0 0.65681,-0.20107 0.65681,-0.44681c0,-0.24575 0.30383,-0.44681 0.6758,-0.44681c0.37197,0 1.12597,-0.23234 1.67555,-0.51607c2.18268,-1.1282 2.59151,-1.27118 3.64822,-1.27118c0.6032,0 1.22092,-0.20107 1.37283,-0.44681c0.15192,-0.24575 1.2198,-0.46133 2.37257,-0.47809c1.15278,-0.01787 2.49768,-0.20442 2.98918,-0.41554M263.02057,242.44448c-14.59178,-7.19033 -29.64378,13.15751 -18.11043,24.48421c6.48325,6.36708 16.17573,6.32798 22.41323,-0.09048c7.10432,-7.30985 4.89036,-19.86305 -4.3028,-24.39373" fill="#ffffff" fill-rule="evenodd" stroke="none" stroke-width="1"/></g></g></svg>