<svg xmlns="http://www.w3.org/2000/svg" width="400" height="400"><g fill-rule="evenodd" stroke-miterlimit="10" data-paper-data="{&quot;isPaintingLayer&quot;:true}" style="mix-blend-mode:normal"><path fill="#f6f8fa" d="M223.4 34.6c.8-.5 1.8-.8 2-.7.5.1.6 184 2 185s4.5-.5 5.2-2.4a8765.6 8765.6 0 0 0 82.4-82.6c.3-.6 1.3-1.3 2.1-1.6a9 9 0 0 0 2.4-1.5c2-1.8 3 .7 3 6.4l-.3 183.2-1 .9-.8.9h-94.1c-90.1 0-94.2 0-95.4-.7l-1.4-.8 1-1c.7-.6 1.4-1.7 1.8-2.5.7-1.5 81.7-82.2 82.5-83 .8-.9 2.1-2.1 3-2.8 1.7-1.4 2-3.3.5-4.6l-.9-.8h-91.6c-75 0-91.8 0-92-.5 0-.3.3-1.3.8-2.1.6-.9 1-2 1-2.4 0-.8 2-3 2.7-3l3-2.8c1.4-1.5 2.8-2.8 3-2.8.2 0 .8-.7 1.3-1.6a30849.3 30849.3 0 0 0 166.2-166c.3 0 .6-.1.6-.3 0-.5 2.8-3.4 4-4.2.7-.4 1.3-1 1.4-1.5.4-1.1 2.5-3.2 3.3-3.2.4 0 1.4-.4 2.3-1"/><path fill="#0483cc" d="M0 0h400v400H0M225.5 33.9c-.3-.1-1.3.2-2.1.7-.9.6-1.9 1-2.3 1-.8 0-3 2.1-3.3 3.2-.1.5-.7 1.1-1.3 1.5-1.3.8-4.1 3.7-4.1 4.2 0 .1-.3.3-.6.3s-.6.1-.6.3A30849.3 30849.3 0 0 1 45.6 210.8c-.5.9-1.1 1.6-1.3 1.6-.2 0-1.6 1.3-3 2.8a23.2 23.2 0 0 1-3 2.8c-.7 0-2.7 2.2-2.7 3a6 6 0 0 1-1 2.4c-.5.8-.8 1.8-.7 2 .1.5 16.9.6 91.9.6l97.5-2.6c1.4 1.3-3.8 6.6-5.6 8a30 30 0 0 0-2.9 2.8c-.8.8-81.8 81.5-82.5 83-.4.8-1.1 2-1.7 2.5l-1 1 1.3.8c1.2.7 5.3.7 95.4.7h94l1-1 .9-.8.2-183.2c.2-5.7-1-8.2-3-6.4a9 9 0 0 1-2.3 1.5c-.8.3-1.8 1-2.2 1.6-.4.5-1.2 1.5-1.8 2a63.2 63.2 0 0 0-4.8 5 173.3 173.3 0 0 0-6.2 6 64.7 64.7 0 0 0-4.8 4.8 8765.6 8765.6 0 0 1-63 63c-.8.5-9.5 9.3-11 8.3"/></g></svg>