<svg xmlns="http://www.w3.org/2000/svg" width="400" height="400"><g fill-rule="evenodd"><path fill="#e52029" d="M177.1 61.7a81 81 0 0 0-3.8 22.8c0 22.7 15 47.2 37.6 61.7l3 1.9a293 293 0 0 0 22.6 12c27.2 13.5 38.4 21.3 47.8 33 14.2 17.8 17.8 37.4 12.4 67.6-1.2 6.5-1.2 6.4 2.4 1.6 19.8-26.5 25-55.6 14-78.2-8.8-17.8-25.3-31-55.9-44.8a413.2 413.2 0 0 1-45.7-22.5c-24-15.2-32.4-28.9-34-54.7V61l-.4.8m-1.5 60.1a60.5 60.5 0 0 0 12.2 57.3 88 88 0 0 0 25.7 19.8c30.6 17.3 44.8 37.6 44 63.2 0 4.8-.5 4.9 3.4-.9a60.2 60.2 0 0 0 11.4-37.5c-1.4-15.3-9.3-26.7-26.6-38.3a365.2 365.2 0 0 0-31.8-18.7c-21-11.4-27.9-16.9-32.6-26.2a47.1 47.1 0 0 1-4.2-18.4c0-3.4-.5-3.5-1.5-.3m0 59.2a60.4 60.4 0 0 0-.6 31.9c2.7 8.5 8 14.5 16.5 18.7 15.8 8 25.5 19.1 27.5 32 .4 2.7.7 2.6 2.7-1.5 5.6-11.4 7-22.6 3.8-30.6-2.8-7.2-8.4-11.8-26.8-21.6-14.7-7.9-22.6-18-22.1-28.4.2-4.3 0-4.4-1-.5"/><path fill="#fbfbfb" d="M0 200v200h400V0H0v200M177.9 67c1.6 21.3 11.3 35.6 33.6 49.8 7 4.6 19.6 10.7 45.7 22.5 30.6 13.7 47.1 27 55.9 44.8 11.5 23.7 5.3 54.3-16.8 81.7-.6.8-.6.1.4-5 5.4-30.3 1.9-49.8-12.4-67.6-9.4-11.8-20.6-19.6-47.8-33.2a293 293 0 0 1-25.6-13.8 89.5 89.5 0 0 1-19.8-17.5c-17.1-21-21.6-41-14.5-65.4l.9-2.9v1.5l.4 5M177 122c.1 6 2 13.7 4.3 18.5 4.7 9.3 11.6 14.8 32.6 26.2 14.6 7.9 23 12.9 31.8 18.7 22 14.8 30 31 25.6 52a75 75 0 0 1-13.4 28.2l-.5.7.1-4c1-25.5-13.3-46-44-63.4a88 88 0 0 1-25.7-19.8 60.4 60.4 0 0 1-12-57.8c1-3 1.2-3 1.2.7m-.4 59c-.4 11 7.1 20.9 22.1 28.9 18.4 9.8 24 14.4 26.8 21.6 3.2 8 1.8 19.3-4 30.9-2 4.3-2 4.3-2.7.4-2.4-12.8-11.7-23.4-27.3-31.2-17-8.5-22.5-26.8-15.7-51.5 1-3.8 1-3.8.8.9m-29 64.6 2 .4c.5.2.5 1.5.6 18.7 0 13.1.2 18.9.4 19.5l.3.9h-4.4l-.4-1.4-.3-1.3-.8.8c-3.1 3.2-10.7 2.7-14-.8-3.6-4-4.4-12.8-1.7-18.6 3-6.4 10.7-8.3 15.7-4l.9.8v-15.3l1.7.3m16 1.2c1.3.8 2 2.5 1.4 3.8-1.3 3.6-6.3 2.8-6.3-1 0-2.7 2.7-4.2 5-2.8m-68.9 10.4c.6.2.6.2-.2 2.4l-.9 2.3h-1c-1.7 0-3 .5-4.4 1.7-2 1.7-1.9 1.6-1.9 12.1v9.4h-4.2l-.1-12.2a59.2 59.2 0 0 0-.7-14.6l3.8-1c.3 0 .9 1.5 1 2.7l.3 1.3.7-.9c2-2.2 5.6-3.7 7.6-3.2m20.1.6c1 .3 1.8.7 2.7 1.7 2 2 2 2.3 2 12-.2 9.3-.1 10 1.2 11l.8.6-1.1 1.4c-.7 1-1.3 1.5-1.5 1.4a5.6 5.6 0 0 1-2.7-2.4c-.7-1.3-.6-1.3-2-.2-5.1 4.5-13.6 2.6-14.8-3.2-1.5-7 4-11.8 13.7-11.8h2.3v-2.4c-.3-3-.6-3.7-2.2-4.5-2.3-1.2-7.4-.2-10.3 2.1l-.7.5-1-1.4c-1.4-1.9-1.4-1.8 1.6-3.2a18 18 0 0 1 12-1.6m49.4 13.4v13.9h-2.4l-2.3-.2v-13.4l-.1-13.4.6-.1 3.8-.6c.3 0 .4 3 .4 13.8m22.5-13.5c6.7 1.8 10.5 10.2 8.5 19-2.7 11.5-18.2 12.6-22 1.5-4-12.1 3.2-23.1 13.5-20.5m-5 3.6c-3.7 1.3-4.6 3.1-4.6 9.9 0 5.4.5 7.6 2.3 9.3 2.5 2.6 7.3 2.4 9.4-.3 2.3-3 2.5-12.6.3-16.3a6.2 6.2 0 0 0-7.5-2.6m-45.2.4c-5.3 2.7-5.6 16.8-.4 19.6 2.2 1 6.3.3 8.2-1.6l1.3-1.2v-6.8c0-3.8 0-7 .2-7.3.8-2.2-6.2-4.3-9.3-2.7m-26.9 9.8c-7 1.2-8 11-1.1 11 4.5 0 6.7-2.5 6.7-7.8v-3.5H113c-1.2 0-2.7.2-3.4.3m113.6 16.8c4.7 2.3 2.3 9.3-2.9 8.4-4.1-.7-4.8-6.7-1-8.5 1.4-.6 2.6-.6 3.9 0m13.8 0c4.5 2 3 8.6-2 8.6s-6-7-1.2-8.7c1.3-.5 1.9-.4 3.2.1m15.4 4.2c2.6 1.3 5 1 7.7-1l1.5-1 .7 1c.7 1.1.7 1.3-1.3 3.2-4.2 4-7.8 3.6-12-1.1l-1-1 .9-1 .8-1 1 .7 1.7 1.2m25.5-1.2c3 2.5 6.1 2.5 9.7 0l1.2-.8.6 1c.8 1.1.9 1-1.4 3.3-4 3.8-8 3.3-12.1-1.5l-.7-.9.7-1c1-1 .7-1 2-.1m-94.6 9.5c1.7 2.6 1.7 2.7-.5 3.7a6 6 0 0 1-3 .7h-1.7l.6 1.1c3 5.6-2.2 11.7-10 11.7-1.7 0-4.1 1.9-3.2 2.5l4 .2c7.9.4 10.7 2.2 11.5 7 1.1 6.7-4 10.8-13.3 10.8-8 0-12.5-3-12.5-8.2 0-2.4 0-2.5 3.9-2.5h3.3v1.5c-.2 4.8 10.1 5.1 11.3.4.6-2.5-1.1-3.4-7.4-3.7-6.7-.4-8.3-.8-9-2.7-1.2-2.5-.3-4.5 2.5-5.9l1.6-.7-1.2-.5c-2.9-1.3-4.2-3.5-4.2-7 0-5.6 3.8-9.1 10.4-9.5a23 23 0 0 1 7.5.8c2.8.6 4.6.3 6.6-1l1.3-1 1.5 2.3m11.5 0 .6 1.7 1.9-1c4.4-2.7 9.3-2.5 12 .6 1.3 1.5 1.4 2.5 1.4 14.7v11h-7.2v-10.3c-.2-9.8-.2-10.4-.7-11-1-1.2-3.2-.8-5.8 1l-1 .7v19.6h-3.7l-3.6-.1v-11.5c-.1-9-.2-12-.5-13.2-.5-2-.9-1.7 2.9-2.8l3.2-.9.5 1.5m63.6-1.2c1.4.2 6.2 1.8 6.6 2.2l-2.2 5-2.2-.8c-4-1.7-7.4-1.3-8.2.8-.6 1.8.6 2.8 4.6 3.8 7.2 1.8 9 3.6 9 8.6 0 8.5-9.4 12-20.1 7.7-3-1.3-3-1-1.6-3.9 1.4-3 1.2-2.8 3.1-1.8 6.3 3.1 11 2.7 11-1 0-2-1-2.7-5.8-3.7-5.9-1.2-8.2-3.5-8.2-8.1 0-6.4 6-10.1 14-8.8m29.1.7c1 .4 2 1.1 2.6 1.5l.8.7-1.7 2.4-1.8 2.4-.9-.7c-4.4-3.3-7.4-1.4-8.1 5.3-1 9.4 2.9 13.8 8.5 9.5l1.5-1 1.7 2.3 1.6 2-1 1c-5.8 5.1-15.6 3.4-18.9-3.5-6-12.7 4.4-27.2 15.7-22m-144.7-.2c7 1.8 10.8 10.3 8.5 19.1a12.3 12.3 0 0 1-24 0c-3.2-11.8 5-21.9 15.5-19.1m82 15.5c-.2 19.9-.2 20.1-5.6 23.3-2.1 1.3-2 1.3-3-.1l-1.5-2-.7-.8 1.2-1.3c2.4-2.6 2.3-1.7 2.4-18.5v-15l3.2-.8 3.5-.8c.5 0 .5.7.4 15.9m14.2-1.8v14.1h-7.4V314l.1-13.7 2.7-.4a42 42 0 0 1 3.6-.5h1v14.1m71.2-13.4c5 2 7.2 6.3 7.2 13.6v2.5h-16l.1 1.5c.7 5.5 6.5 7 12 3.2l.8-.6.4.6 1.5 2.2 1 1.6-1.3 1c-6.3 4.5-15.8 3.4-19.8-2.3-5-7.4-2.6-20 4.4-23 2.8-1.2 7.3-1.3 9.7-.3M138 305c-2.3.7-3.2 3.7-3 9.8.2 5.7.9 7.4 3.4 8 3.8 1 5.4-1.9 5.3-9.7-.1-6.9-1.9-9.3-5.7-8.1m28 0c-3.2.9-3.7 6-.8 7.3 2.8 1.3 6.3 0 6.7-2.7.5-3.4-2.4-5.6-6-4.6m138.2 0c-1.3.6-2.2 2-2.5 3.8-.3 2.2-.5 2 4.2 2h4.1l-.2-1.5c-.4-3.6-2.9-5.5-5.6-4.2"/><path fill="#646d99" d="M145.9 253v7.6l-1-.8c-9.8-8.6-21.8 6.6-15.6 19.8 2.7 5.8 11.5 7.8 15.7 3.6l.8-.8.3 1.3.4 1.4h4.4l-.3-.9c-.2-.6-.3-6.4-.4-19.5 0-17.2-.1-18.5-.5-18.7l-3.7-.7-.1 7.7m15-6.6c-3 .9-3 5.5 0 6.4 3 .8 5.4-2.5 3.7-5a3.4 3.4 0 0 0-3.7-1.4m-69.4 11.2c-1.6.5-3.2 1.6-4.3 2.8l-.7.9-.2-1.3c-.2-1.2-.8-2.7-1.1-2.7l-3.8 1a59.2 59.2 0 0 1 .7 14.6V285h4.4v-9.4c0-10.5 0-10.4 2-12.1a6.3 6.3 0 0 1 4.3-1.7h1l.9-2.3c1-2.8.3-3.2-3-2m15.6.1c-1.9.5-7 2.8-7 3.2 0 .2.5 1 1.1 1.7l1 1.4.7-.5c2.9-2.3 8-3.3 10.3-2.1 1.6.8 2 1.6 2.1 4.5l.1 2.4h-2.3c-9.7 0-15.2 4.7-13.8 11.8 1.3 5.8 9.8 7.7 15 3.2 1.3-1.1 1.2-1.1 1.9.2.5 1 1.9 2.2 2.7 2.4.2 0 .8-.4 1.5-1.4l1.1-1.4-.8-.6c-1.3-1-1.4-1.7-1.3-11 .1-9.7 0-10-2-12-2-2.1-5.8-2.7-10.3-1.8m55 0c-.9 0-1.8.2-2.1.3l-.6.1v13.4l.1 13.4 2.3.1h2.3v-13.8c0-10.9 0-13.9-.3-13.8l-1.8.2m18.8.1c-7.1 1.8-10.6 11.3-7.5 20.5 3.7 11 19.2 10 21.9-1.5 2.7-11.7-4.7-21.4-14.4-19m4.4 3.4c3.9.9 5.4 4 5.4 11 0 5.8-1 8.3-3.9 9.7-3.7 1.7-7.7-.2-9-4.3-1.3-4-.8-12.2.9-14.3a6.7 6.7 0 0 1 6.6-2.1m-42.9.4c1.7.5 3.6 2.2 3.4 3-.1.2-.2 3.4-.2 7.2v6.8l-1.3 1.2c-2.6 2.6-7.4 2.8-9.7.4-2.9-3.1-3-13-.1-16.7 1.7-2.2 4.5-3 8-1.9m-27.3 13.2c0 4.5-.7 5.8-4 7.2-4 1.8-7.2-.2-7.2-4.3 0-4.4 2.7-6.3 9-6.4h2.2v3.5m104.1 13.5c-3.8 1.8-3.1 7.8 1 8.5 1.6.3 2.8-.1 4-1.2a4.4 4.4 0 0 0-5-7.3m14.5 0c-4.7 1.6-3.8 8.6 1.2 8.6 1.6 0 2.3-.3 3.3-1.3 3.3-3.3-.1-9-4.5-7.4m15 3.3-.7 1 1 1c4.1 4.8 7.7 5.1 11.9 1.2 2-1.9 2-2 1.3-3.2l-.7-1-1.5 1c-3.4 2.4-6.2 2.3-9.5-.2l-1-.8-.7 1m27 0-.7 1 .7.8c4 4.8 8.2 5.3 12 1.5 2.4-2.3 2.3-2.2 1.5-3.3l-.6-1-1.2.8c-3.6 2.5-6.6 2.5-9.7 0-1.3-1-1-1-2 .2m-95.4 8c-2 1.3-3.8 1.6-6.6 1-4.1-.9-5.2-1-7.5-.8-6.6.4-10.4 3.9-10.4 9.6 0 3.4 1.3 5.6 4.2 6.9l1.2.5-1.6.7c-2.8 1.4-3.7 3.4-2.6 6 .8 1.8 2.4 2.2 9 2.6 6.4.3 8.1 1.2 7.5 3.7-1.2 4.7-11.5 4.4-11.4-.4v-1.5h-3.2c-3.9 0-3.9 0-3.9 2.5 0 5.3 4.4 8.2 12.5 8.2 9.2 0 14.4-4.1 13.3-10.8-.8-4.8-3.6-6.6-11.4-7-2.1 0-4-.2-4-.2-1-.6 1.4-2.5 3-2.5 7.9 0 13-6 10.1-11.7l-.6-1.1h1.7c1.7 0 4-.8 4.7-1.7.3-.3-2.4-5.2-2.7-5l-1.3 1m10.6.7c-3.8 1.1-3.4.8-3 2.8.4 1.3.5 4.2.5 13.2v11.5h3.7l3.7.1V308l1-.7c2.6-1.8 4.7-2.2 5.8-1 .5.6.5 1.2.6 11v10.3h7.3v-11c0-12.2-.1-13.2-1.5-14.7-2.6-3-7.5-3.3-12-.6l-1.8 1-.6-1.7-.5-1.5-3.2 1m60.4-.5c-4.5 1.2-7.1 4.3-7 8.6 0 4.6 2.2 7 8.1 8.1 4.7 1 5.9 1.7 5.9 3.7 0 3.7-4.8 4.1-11 1-2-1-1.8-1.2-3.2 1.8-1.4 2.8-1.5 2.6 1.6 3.9 10.7 4.4 20.1.8 20.1-7.7 0-5-1.8-6.8-9-8.6-4-1-5.2-2-4.6-3.8.8-2.1 4.3-2.5 8.2-.8 1.2.4 2.1.8 2.2.7.2-.2 2.3-4.8 2.2-4.9-1.8-1.7-10-3-13.5-2m28 0c-8 2.2-12 13.5-7.7 22.4 3.3 6.9 13 8.6 19 3.4l1-.8-1.7-2.1a100 100 0 0 0-1.7-2.3l-1.5 1c-5.6 4.3-9.5-.1-8.5-9.5.7-6.7 3.7-8.6 8.1-5.3l.9.7 1.8-2.4 1.7-2.4-.8-.7c-2.6-2.1-7.2-3-10.6-2m-143.5.1c-7.2 2-11 10.5-8.7 19.2a12.3 12.3 0 0 0 24 0c3-11.9-5-22-15.3-19.2m84.8.5-3.2.8v15c-.1 16.8 0 16-2.4 18.5l-1.2 1.3.7.8 1.4 2c1 1.4 1 1.4 3 .1 2.5-1.4 4.2-3.4 5-5.6a226 226 0 0 0 .2-33.6l-3.5.8m13.5-.3-2.7.4v13.7l-.1 13.6h7.4v-28.2h-1c-.5 0-2.2.2-3.6.5m68.4-.3c-8.8 2.3-12.4 15.3-6.7 23.8 4 5.7 13.5 6.8 19.8 2.2l1.3-.9-1-1.6-1.5-2.2-.4-.6-.8.6c-5.5 3.9-11.3 2.3-12-3.2l-.1-1.5h16v-2.5c0-6-2-11-5.1-12.7a16 16 0 0 0-9.5-1.4m-161.1 5.9c2.8 2 3 13.7.4 16.4-2 2-5.5 1-6.5-1.9-.6-1.7-.7-9-.2-11.1.9-3.7 3.7-5.3 6.3-3.4m27.6-.5c3.4 1 3.7 6.2.5 7.4-2 .8-5 .1-5.7-1.2-2.2-3.7 1-7.4 5.2-6.2m138.8.4c1 .7 1.5 2 1.7 3.9l.2 1.5h-4.1c-4.7 0-4.5.2-4.2-2 .6-3.4 3.9-5.2 6.4-3.4"/></g></svg>