<svg id="svg" version="1.1" xmlns="http://www.w3.org/2000/svg" xmlns:xlink="http://www.w3.org/1999/xlink" width="400" height="400" viewBox="0, 0, 400,400"><g id="svgg"><path id="path0" d="M177.105 61.733 C 175.299 65.921,173.334 77.804,173.334 84.533 C 173.335 107.164,188.271 131.655,210.933 146.183 C 211.740 146.700,213.060 147.545,213.867 148.061 C 217.267 150.234,223.081 153.303,236.533 160.024 C 263.670 173.584,274.899 181.370,284.326 193.166 C 298.536 210.946,302.110 230.451,296.694 260.667 C 295.526 267.182,295.455 267.135,299.103 262.267 C 318.904 235.847,324.112 206.698,313.066 184.124 C 304.334 166.281,287.845 153.039,257.200 139.261 C 231.055 127.507,218.589 121.395,211.467 116.841 C 187.564 101.555,179.112 87.933,177.524 62.133 L 177.450 60.933 177.105 61.733 M175.632 121.800 C 169.512 141.537,174.128 163.198,187.845 179.111 C 194.400 186.716,201.400 192.133,213.471 198.941 C 244.143 216.240,258.253 236.471,257.544 262.131 C 257.414 266.868,257.049 266.969,260.912 261.200 C 269.229 248.784,273.304 235.317,272.274 223.654 C 270.924 208.380,263.037 197.018,245.733 185.420 C 236.992 179.560,228.532 174.580,213.867 166.659 C 192.869 155.318,186.022 149.822,181.341 140.549 C 178.910 135.733,177.067 127.777,177.067 122.100 C 177.067 118.730,176.614 118.636,175.632 121.800 M175.518 181.005 C 172.474 192.696,172.267 204.497,174.959 212.879 C 177.687 221.372,182.962 227.355,191.467 231.605 C 207.320 239.528,216.953 250.724,219.004 263.613 C 219.436 266.327,219.689 266.182,221.696 262.067 C 227.260 250.656,228.662 239.495,225.540 231.467 C 222.745 224.281,217.065 219.716,198.698 209.895 C 183.988 202.030,176.147 191.939,176.600 181.455 C 176.783 177.211,176.533 177.107,175.518 181.005 " stroke="none" fill="#e52029" fill-rule="evenodd"></path><path id="path1" d="M0.000 200.000 L 0.000 400.000 200.000 400.000 L 400.000 400.000 400.000 200.000 L 400.000 0.000 200.000 0.000 L 0.000 0.000 0.000 200.000 M177.877 66.933 C 179.542 88.287,189.159 102.575,211.467 116.841 C 218.589 121.395,231.055 127.507,257.200 139.261 C 287.845 153.039,304.334 166.281,313.066 184.124 C 324.647 207.793,318.380 238.399,296.336 265.817 C 295.704 266.603,295.748 265.935,296.673 260.783 C 302.114 230.456,298.556 210.971,284.326 193.166 C 274.899 181.370,263.670 173.584,236.533 160.024 C 223.081 153.303,217.267 150.234,213.867 148.061 C 213.060 147.545,211.740 146.700,210.933 146.183 C 203.673 141.528,196.219 134.957,191.092 128.692 C 173.977 107.772,169.515 87.636,176.610 63.333 L 177.467 60.400 177.531 61.867 C 177.567 62.673,177.722 64.953,177.877 66.933 M177.035 122.011 C 177.137 128.089,178.915 135.743,181.341 140.549 C 186.022 149.822,192.869 155.318,213.867 166.659 C 228.532 174.580,236.992 179.560,245.733 185.420 C 267.739 200.170,275.698 216.365,271.295 237.434 C 269.398 246.507,264.029 257.788,257.890 265.597 L 257.369 266.260 257.522 262.263 C 258.497 236.849,244.170 216.255,213.471 198.941 C 201.400 192.133,194.400 186.716,187.845 179.111 C 173.989 163.037,169.465 141.339,175.793 121.309 C 176.767 118.225,176.973 118.342,177.035 122.011 M176.631 181.000 C 176.167 192.013,183.699 201.875,198.698 209.895 C 217.065 219.716,222.745 224.281,225.540 231.467 C 228.700 239.592,227.253 250.751,221.531 262.382 C 219.419 266.676,219.545 266.656,218.815 262.802 C 216.396 250.030,207.087 239.411,191.467 231.605 C 174.544 223.148,168.953 204.795,175.767 180.067 C 176.815 176.265,176.829 176.281,176.631 181.000 M147.618 245.615 C 148.488 245.770,149.405 245.956,149.655 246.029 C 150.077 246.152,150.116 247.505,150.198 264.748 C 150.260 277.795,150.377 283.592,150.591 284.200 L 150.896 285.067 148.675 285.067 L 146.453 285.067 146.135 283.738 L 145.816 282.410 145.048 283.178 C 141.855 286.370,134.287 285.929,131.066 282.364 C 127.437 278.347,126.617 269.588,129.327 263.797 C 132.300 257.442,140.029 255.463,144.961 259.793 L 145.867 260.589 145.867 252.961 C 145.867 248.766,145.905 245.333,145.951 245.333 C 145.997 245.333,146.747 245.460,147.618 245.615 M163.663 246.835 C 164.902 247.608,165.525 249.327,165.035 250.620 C 163.691 254.168,158.667 253.363,158.667 249.600 C 158.667 246.905,161.374 245.407,163.663 246.835 M94.826 257.224 C 95.379 257.373,95.377 257.396,94.559 259.618 L 93.733 261.863 92.698 261.865 C 91.050 261.868,89.662 262.412,88.348 263.568 C 86.383 265.298,86.400 265.191,86.400 275.725 L 86.400 285.067 84.281 285.067 L 82.163 285.067 82.074 272.867 C 81.997 262.166,81.930 260.526,81.534 259.522 C 81.194 258.661,81.163 258.350,81.408 258.267 C 81.893 258.102,84.986 257.333,85.165 257.333 C 85.475 257.333,86.086 258.838,86.268 260.049 L 86.454 261.290 87.216 260.422 C 89.199 258.164,92.757 256.669,94.826 257.224 M114.923 257.755 C 115.962 258.063,116.677 258.520,117.585 259.452 C 119.554 261.473,119.604 261.787,119.507 271.530 C 119.416 280.755,119.497 281.435,120.819 282.469 L 121.600 283.081 120.501 284.540 C 119.809 285.460,119.242 285.967,118.968 285.909 C 118.157 285.740,116.797 284.507,116.259 283.451 C 115.609 282.178,115.673 282.182,114.329 283.332 C 109.154 287.762,100.662 285.891,99.450 280.054 C 97.993 273.036,103.526 268.284,113.170 268.270 L 115.541 268.267 115.406 265.911 C 115.239 262.977,114.870 262.170,113.343 261.400 C 110.951 260.194,105.885 261.222,102.958 263.508 L 102.316 264.009 101.300 262.605 C 99.940 260.725,99.904 260.799,102.875 259.375 C 106.988 257.402,111.632 256.778,114.923 257.755 M164.254 271.210 L 164.248 285.087 161.924 285.010 L 159.600 284.933 159.546 271.535 L 159.492 258.137 160.079 258.000 C 160.683 257.859,163.340 257.420,163.930 257.365 C 164.189 257.340,164.259 260.332,164.254 271.210 M186.787 257.741 C 193.548 259.502,197.298 267.905,195.262 276.733 C 192.607 288.243,177.086 289.283,173.356 278.201 C 169.280 266.092,176.518 255.066,186.787 257.741 M181.733 261.279 C 178.052 262.554,177.199 264.421,177.201 271.200 C 177.203 276.603,177.736 278.803,179.463 280.530 C 182.017 283.083,186.841 282.900,188.923 280.170 C 191.215 277.166,191.381 267.563,189.205 263.852 C 187.741 261.352,184.622 260.279,181.733 261.279 M136.527 261.667 C 131.156 264.384,130.865 278.515,136.124 281.260 C 138.270 282.380,142.364 281.618,144.319 279.733 L 145.600 278.498 145.600 271.671 C 145.600 267.916,145.673 264.653,145.763 264.420 C 146.600 262.238,139.551 260.137,136.527 261.667 M109.600 271.472 C 102.556 272.704,101.587 282.406,108.502 282.470 C 113.007 282.512,115.200 279.962,115.200 274.680 L 115.200 271.200 113.000 271.231 C 111.790 271.249,110.260 271.357,109.600 271.472 M223.185 288.259 C 227.861 290.645,225.523 297.550,220.325 296.706 C 216.203 296.037,215.475 289.982,219.307 288.241 C 220.720 287.600,221.903 287.605,223.185 288.259 M236.954 288.239 C 241.466 290.288,239.945 296.800,234.955 296.800 C 230.050 296.800,229.079 289.795,233.753 288.130 C 235.144 287.634,235.662 287.652,236.954 288.239 M252.439 292.356 C 255.000 293.666,257.343 293.398,260.073 291.486 L 261.595 290.420 262.251 291.386 C 263.037 292.543,262.968 292.719,261.001 294.579 C 256.830 298.523,253.227 298.196,249.036 293.493 L 248.073 292.412 248.875 291.414 L 249.677 290.416 250.638 291.171 C 251.167 291.587,251.978 292.120,252.439 292.356 M277.859 291.194 C 280.978 293.664,284.012 293.669,287.587 291.209 L 288.775 290.392 289.448 291.382 C 290.219 292.516,290.264 292.414,287.952 294.700 C 284.073 298.535,279.921 298.007,275.902 293.169 L 275.212 292.337 275.939 291.378 C 276.820 290.217,276.647 290.234,277.859 291.194 M183.324 300.688 C 185.048 303.306,185.036 303.398,182.800 304.440 C 181.855 304.880,180.982 305.062,179.804 305.064 L 178.142 305.067 178.738 306.200 C 181.694 311.824,176.477 317.850,168.640 317.865 C 166.972 317.868,164.587 319.781,165.533 320.357 C 165.643 320.424,167.461 320.555,169.573 320.647 C 177.354 320.988,180.244 322.752,181.031 327.638 C 182.097 334.256,176.941 338.410,167.678 338.395 C 159.622 338.383,155.207 335.477,155.201 330.182 C 155.199 327.762,155.244 327.733,159.056 327.733 L 162.359 327.733 162.325 329.195 C 162.213 333.965,172.504 334.333,173.685 329.601 C 174.320 327.057,172.586 326.184,166.267 325.864 C 159.585 325.527,158.048 325.080,157.214 323.230 C 156.087 320.732,156.997 318.670,159.821 317.320 L 161.376 316.577 160.221 316.064 C 157.331 314.780,156.000 312.610,156.000 309.181 C 156.000 303.453,159.756 299.978,166.400 299.560 C 168.694 299.415,169.756 299.537,173.892 300.416 C 176.700 301.013,178.495 300.719,180.464 299.342 C 181.162 298.854,181.752 298.443,181.775 298.427 C 181.799 298.412,182.496 299.429,183.324 300.688 M194.839 300.733 C 195.096 301.577,195.338 302.313,195.378 302.369 C 195.417 302.426,196.263 301.980,197.258 301.380 C 201.691 298.704,206.637 298.945,209.219 301.961 C 210.576 303.546,210.667 304.470,210.667 316.680 L 210.667 327.733 207.078 327.733 L 203.490 327.733 203.412 317.361 C 203.338 307.631,203.302 306.954,202.830 306.433 C 201.731 305.219,199.640 305.559,197.000 307.382 L 196.000 308.073 196.000 317.910 L 196.000 327.748 192.333 327.674 L 188.667 327.600 188.607 316.075 C 188.561 307.125,188.462 304.176,188.161 302.877 C 187.697 300.866,187.300 301.236,191.094 300.146 C 192.839 299.644,194.291 299.227,194.320 299.217 C 194.349 299.208,194.583 299.890,194.839 300.733 M258.376 299.481 C 259.757 299.705,264.638 301.349,265.002 301.713 C 265.079 301.790,263.015 306.355,262.778 306.631 C 262.732 306.684,261.765 306.341,260.630 305.869 C 256.651 304.212,253.182 304.571,252.427 306.717 C 251.798 308.506,253.000 309.502,257.016 310.520 C 264.202 312.342,266.000 314.053,266.000 319.067 C 265.999 327.556,256.610 331.160,245.883 326.789 C 242.826 325.544,242.900 325.722,244.279 322.907 C 245.728 319.950,245.509 320.078,247.445 321.055 C 253.699 324.213,258.453 323.798,258.453 320.095 C 258.453 318.089,257.337 317.387,252.620 316.428 C 246.718 315.229,244.420 312.945,244.406 308.267 C 244.387 301.896,250.308 298.172,258.376 299.481 M287.504 300.185 C 288.437 300.623,289.584 301.306,290.054 301.704 L 290.907 302.426 289.156 304.821 L 287.405 307.216 286.502 306.528 C 282.117 303.183,279.126 305.128,278.390 311.801 C 277.356 321.187,281.286 325.559,286.922 321.293 C 287.692 320.710,288.372 320.283,288.432 320.343 C 288.493 320.404,289.259 321.401,290.135 322.560 L 291.727 324.667 290.730 325.545 C 284.850 330.728,275.050 328.959,271.796 322.128 C 265.757 309.450,276.191 294.874,287.504 300.185 M142.752 299.865 C 149.743 301.686,153.566 310.242,151.313 319.028 C 148.085 331.625,130.710 331.619,127.319 319.021 C 124.137 307.196,132.247 297.129,142.752 299.865 M224.741 315.400 C 224.633 335.261,224.564 335.549,219.172 338.733 C 217.089 339.963,217.117 339.965,216.116 338.590 C 215.667 337.972,215.018 337.081,214.673 336.610 L 214.047 335.753 215.181 334.523 C 217.563 331.939,217.455 332.784,217.553 315.959 L 217.639 301.119 220.753 300.318 C 222.465 299.878,224.083 299.506,224.347 299.492 C 224.805 299.468,224.823 300.192,224.741 315.400 M238.921 313.600 L 238.916 327.733 235.189 327.733 L 231.462 327.733 231.531 314.077 L 231.600 300.420 234.267 299.978 C 235.733 299.734,237.382 299.520,237.930 299.501 L 238.927 299.467 238.921 313.600 M310.133 300.190 C 315.048 302.196,317.333 306.503,317.333 313.757 L 317.333 316.267 309.297 316.267 L 301.260 316.267 301.435 317.753 C 302.089 323.322,307.900 324.890,313.434 320.990 L 314.201 320.449 314.634 321.023 C 314.872 321.339,315.516 322.317,316.066 323.196 L 317.066 324.796 315.800 325.728 C 309.548 330.329,299.951 329.232,296.015 323.467 C 290.980 316.092,293.401 303.534,300.438 300.517 C 303.187 299.339,307.678 299.187,310.133 300.190 M137.966 305.078 C 135.729 305.758,134.818 308.798,135.013 314.933 C 135.192 320.600,135.890 322.257,138.378 322.927 C 142.237 323.967,143.846 321.019,143.690 313.193 C 143.553 306.323,141.844 303.900,137.966 305.078 M165.972 305.088 C 162.847 305.995,162.336 311.023,165.229 312.396 C 168.028 313.724,171.490 312.336,171.881 309.728 C 172.390 306.336,169.498 304.065,165.972 305.088 M304.101 305.169 C 302.826 305.746,301.928 307.122,301.641 308.942 C 301.308 311.050,301.065 310.933,305.780 310.933 L 309.928 310.933 309.745 309.400 C 309.312 305.786,306.837 303.930,304.101 305.169 " stroke="none" fill="#fbfbfb" fill-rule="evenodd"></path><path id="path2" d="M145.867 252.961 L 145.867 260.589 144.961 259.793 C 135.125 251.157,123.102 266.368,129.299 279.610 C 132.031 285.448,140.792 287.433,145.048 283.178 L 145.816 282.410 146.135 283.738 L 146.453 285.067 148.675 285.067 L 150.896 285.067 150.591 284.200 C 150.377 283.592,150.260 277.795,150.198 264.748 C 150.116 247.505,150.077 246.152,149.655 246.029 C 149.255 245.912,146.172 245.333,145.951 245.333 C 145.905 245.333,145.867 248.766,145.867 252.961 M160.889 246.433 C 157.886 247.278,157.932 251.937,160.950 252.771 C 163.897 253.584,166.305 250.350,164.647 247.804 C 163.858 246.590,162.320 246.029,160.889 246.433 M91.547 257.563 C 89.921 258.125,88.285 259.205,87.216 260.422 L 86.454 261.290 86.268 260.049 C 86.086 258.838,85.475 257.333,85.165 257.333 C 84.986 257.333,81.893 258.102,81.408 258.267 C 81.163 258.350,81.194 258.661,81.534 259.522 C 81.930 260.526,81.997 262.166,82.074 272.867 L 82.163 285.067 84.281 285.067 L 86.400 285.067 86.400 275.725 C 86.400 265.191,86.383 265.298,88.348 263.568 C 89.662 262.412,91.050 261.868,92.698 261.865 L 93.733 261.863 94.559 259.618 C 95.584 256.834,94.936 256.392,91.547 257.563 M107.208 257.750 C 105.297 258.164,100.262 260.461,100.275 260.913 C 100.280 261.071,100.741 261.832,101.300 262.605 L 102.316 264.009 102.958 263.508 C 105.885 261.222,110.951 260.194,113.343 261.400 C 114.870 262.170,115.239 262.977,115.406 265.911 L 115.541 268.267 113.170 268.270 C 103.526 268.284,97.993 273.036,99.450 280.054 C 100.662 285.891,109.154 287.762,114.329 283.332 C 115.673 282.182,115.609 282.178,116.259 283.451 C 116.797 284.507,118.157 285.740,118.968 285.909 C 119.242 285.967,119.809 285.460,120.501 284.540 L 121.600 283.081 120.819 282.469 C 119.497 281.435,119.416 280.755,119.507 271.530 C 119.604 261.787,119.554 261.473,117.585 259.452 C 115.580 257.393,111.750 256.765,107.208 257.750 M162.133 257.629 C 161.327 257.757,160.402 257.924,160.079 258.000 L 159.492 258.137 159.546 271.535 L 159.600 284.933 161.924 285.010 L 164.248 285.087 164.254 271.210 C 164.259 260.332,164.189 257.340,163.930 257.365 C 163.749 257.382,162.940 257.501,162.133 257.629 M180.933 257.709 C 173.790 259.479,170.264 269.015,173.356 278.201 C 177.086 289.283,192.607 288.243,195.262 276.733 C 197.963 265.021,190.644 255.303,180.933 257.709 M185.333 261.087 C 189.165 261.961,190.655 265.061,190.663 272.176 C 190.669 277.947,189.674 280.436,186.831 281.759 C 183.077 283.508,179.099 281.649,177.812 277.544 C 176.540 273.485,177.045 265.335,178.700 263.231 C 180.152 261.384,182.835 260.517,185.333 261.087 M142.411 261.495 C 144.065 261.986,146.036 263.706,145.763 264.420 C 145.673 264.653,145.600 267.916,145.600 271.671 L 145.600 278.498 144.319 279.733 C 141.651 282.304,136.852 282.481,134.629 280.090 C 131.741 276.984,131.649 267.162,134.473 263.418 C 136.150 261.194,139.041 260.494,142.411 261.495 M115.200 274.680 C 115.200 279.195,114.484 280.500,111.214 281.947 C 107.274 283.691,104.000 281.701,104.000 277.565 C 104.000 273.233,106.717 271.321,113.000 271.231 L 115.200 271.200 115.200 274.680 M219.307 288.241 C 215.475 289.982,216.203 296.037,220.325 296.706 C 221.901 296.962,223.112 296.595,224.241 295.521 C 227.982 291.958,224.014 286.104,219.307 288.241 M233.753 288.130 C 229.079 289.795,230.050 296.800,234.955 296.800 C 236.573 296.800,237.309 296.517,238.321 295.505 C 241.637 292.189,238.152 286.562,233.753 288.130 M248.875 291.414 L 248.073 292.412 249.036 293.493 C 253.227 298.196,256.830 298.523,261.001 294.579 C 262.968 292.719,263.037 292.543,262.251 291.386 L 261.595 290.420 260.073 291.486 C 256.740 293.821,253.890 293.726,250.638 291.171 L 249.677 290.416 248.875 291.414 M275.939 291.378 L 275.212 292.337 275.902 293.169 C 279.921 298.007,284.073 298.535,287.952 294.700 C 290.264 292.414,290.219 292.516,289.448 291.382 L 288.775 290.392 287.587 291.209 C 284.012 293.669,280.978 293.664,277.859 291.194 C 276.647 290.234,276.820 290.217,275.939 291.378 M180.464 299.342 C 178.495 300.719,176.700 301.013,173.892 300.416 C 169.756 299.537,168.694 299.415,166.400 299.560 C 159.756 299.978,156.000 303.453,156.000 309.181 C 156.000 312.610,157.331 314.780,160.221 316.064 L 161.376 316.577 159.821 317.320 C 156.997 318.670,156.087 320.732,157.214 323.230 C 158.048 325.080,159.585 325.527,166.267 325.864 C 172.586 326.184,174.320 327.057,173.685 329.601 C 172.504 334.333,162.213 333.965,162.325 329.195 L 162.359 327.733 159.056 327.733 C 155.244 327.733,155.199 327.762,155.201 330.182 C 155.207 335.477,159.622 338.383,167.678 338.395 C 176.941 338.410,182.097 334.256,181.031 327.638 C 180.244 322.752,177.354 320.988,169.573 320.647 C 167.461 320.555,165.643 320.424,165.533 320.357 C 164.587 319.781,166.972 317.868,168.640 317.865 C 176.477 317.850,181.694 311.824,178.738 306.200 L 178.142 305.067 179.804 305.064 C 181.532 305.061,183.763 304.266,184.482 303.397 C 184.768 303.051,182.126 298.199,181.775 298.427 C 181.752 298.443,181.162 298.854,180.464 299.342 M191.094 300.146 C 187.300 301.236,187.697 300.866,188.161 302.877 C 188.462 304.176,188.561 307.125,188.607 316.075 L 188.667 327.600 192.333 327.674 L 196.000 327.748 196.000 317.910 L 196.000 308.073 197.000 307.382 C 199.640 305.559,201.731 305.219,202.830 306.433 C 203.302 306.954,203.338 307.631,203.412 317.361 L 203.490 327.733 207.078 327.733 L 210.667 327.733 210.667 316.680 C 210.667 304.470,210.576 303.546,209.219 301.961 C 206.637 298.945,201.691 298.704,197.258 301.380 C 196.263 301.980,195.417 302.426,195.378 302.369 C 195.338 302.313,195.096 301.577,194.839 300.733 C 194.583 299.890,194.349 299.208,194.320 299.217 C 194.291 299.227,192.839 299.644,191.094 300.146 M251.467 299.684 C 246.989 300.854,244.393 304.010,244.406 308.267 C 244.420 312.945,246.718 315.229,252.620 316.428 C 257.337 317.387,258.453 318.089,258.453 320.095 C 258.453 323.798,253.699 324.213,247.445 321.055 C 245.509 320.078,245.728 319.950,244.279 322.907 C 242.900 325.722,242.826 325.544,245.883 326.789 C 256.610 331.160,265.999 327.556,266.000 319.067 C 266.000 314.053,264.202 312.342,257.016 310.520 C 253.000 309.502,251.798 308.506,252.427 306.717 C 253.182 304.571,256.651 304.212,260.630 305.869 C 261.765 306.341,262.732 306.684,262.778 306.631 C 263.015 306.355,265.079 301.790,265.002 301.713 C 263.250 299.961,255.088 298.737,251.467 299.684 M279.495 299.605 C 271.417 301.872,267.544 313.203,271.796 322.128 C 275.050 328.959,284.850 330.728,290.730 325.545 L 291.727 324.667 290.135 322.560 C 289.259 321.401,288.493 320.404,288.432 320.343 C 288.372 320.283,287.692 320.710,286.922 321.293 C 281.286 325.559,277.356 321.187,278.390 311.801 C 279.126 305.128,282.117 303.183,286.502 306.528 L 287.405 307.216 289.156 304.821 L 290.907 302.426 290.054 301.704 C 287.514 299.556,282.922 298.643,279.495 299.605 M136.000 299.838 C 128.807 301.851,124.976 310.315,127.319 319.021 C 130.710 331.619,148.085 331.625,151.313 319.028 C 154.363 307.131,146.254 296.970,136.000 299.838 M220.753 300.318 L 217.639 301.119 217.553 315.959 C 217.455 332.784,217.563 331.939,215.181 334.523 L 214.047 335.753 214.673 336.610 C 215.018 337.081,215.667 337.972,216.116 338.590 C 217.117 339.965,217.089 339.963,219.172 338.733 C 221.589 337.306,223.313 335.323,224.054 333.119 C 224.909 330.577,225.179 299.448,224.347 299.492 C 224.083 299.506,222.465 299.878,220.753 300.318 M234.267 299.978 L 231.600 300.420 231.531 314.077 L 231.462 327.733 235.189 327.733 L 238.916 327.733 238.921 313.600 L 238.927 299.467 237.930 299.501 C 237.382 299.520,235.733 299.734,234.267 299.978 M302.662 299.725 C 293.914 301.969,290.257 315.032,296.015 323.467 C 299.951 329.232,309.548 330.329,315.800 325.728 L 317.066 324.796 316.066 323.196 C 315.516 322.317,314.872 321.339,314.634 321.023 L 314.201 320.449 313.434 320.990 C 307.900 324.890,302.089 323.322,301.435 317.753 L 301.260 316.267 309.297 316.267 L 317.333 316.267 317.333 313.757 C 317.333 307.847,315.266 302.804,312.153 301.122 C 309.581 299.733,305.167 299.083,302.662 299.725 M141.600 305.555 C 144.396 307.539,144.678 319.304,141.993 321.989 C 139.934 324.048,136.492 323.048,135.494 320.102 C 134.918 318.402,134.797 311.160,135.308 308.982 C 136.172 305.294,139.035 303.735,141.600 305.555 M169.166 305.090 C 172.550 306.029,172.947 311.311,169.726 312.536 C 167.754 313.286,164.743 312.622,163.952 311.262 C 161.817 307.593,164.926 303.912,169.166 305.090 M307.964 305.521 C 308.909 306.211,309.523 307.548,309.745 309.400 L 309.928 310.933 305.780 310.933 C 301.065 310.933,301.308 311.050,301.641 308.942 C 302.190 305.465,305.462 303.695,307.964 305.521 " stroke="none" fill="#646d99" fill-rule="evenodd"></path></g></svg>