<svg version="1.1" xmlns="http://www.w3.org/2000/svg" xmlns:xlink="http://www.w3.org/1999/xlink" width="237.51529" height="333.33333" viewBox="0,0,237.51529,333.33333"><g transform="translate(-121.24236,-14.08408)"><g data-paper-data="{&quot;isPaintingLayer&quot;:true}" stroke="none" stroke-linecap="butt" stroke-linejoin="miter" stroke-miterlimit="10" stroke-dasharray="" stroke-dashoffset="0" style="mix-blend-mode: normal"><path d="M217.0997,41.44696l0.345,-0.8l0.074,1.2c1.588,25.8 10.04,39.422 33.943,54.708c7.122,4.554 19.588,10.666 45.733,22.42c30.645,13.778 47.134,27.02 55.866,44.863c11.046,22.574 5.838,51.723 -13.963,78.143c-3.648,4.868 -3.577,4.915 -2.409,-1.6c5.416,-30.216 1.842,-49.721 -12.368,-67.501c-9.427,-11.796 -20.656,-19.582 -47.793,-33.142c-13.452,-6.721 -19.266,-9.79 -22.666,-11.963c-0.807,-0.516 -2.127,-1.361 -2.934,-1.878c-22.662,-14.528 -37.598,-39.019 -37.599,-61.65c0,-6.729 1.965,-18.612 3.771,-22.8M215.6267,101.51396c0.982,-3.164 1.435,-3.07 1.435,0.3c0,5.677 1.843,13.633 4.274,18.449c4.681,9.273 11.528,14.769 32.526,26.11c14.665,7.921 23.125,12.901 31.866,18.761c17.304,11.598 25.191,22.96 26.541,38.234c1.03,11.663 -3.045,25.13 -11.362,37.546c-3.863,5.769 -3.498,5.668 -3.368,0.931c0.709,-25.66 -13.401,-45.891 -44.073,-63.19c-12.071,-6.808 -19.071,-12.225 -25.626,-19.83c-13.717,-15.913 -18.333,-37.574 -12.213,-57.311M215.5127,160.71896c1.015,-3.898 1.265,-3.794 1.082,0.45c-0.453,10.484 7.388,20.575 22.098,28.44c18.367,9.821 24.047,14.386 26.842,21.572c3.122,8.028 1.72,19.189 -3.844,30.6c-2.007,4.115 -2.26,4.26 -2.692,1.546c-2.051,-12.889 -11.684,-24.085 -27.537,-32.008c-8.505,-4.25 -13.78,-10.233 -16.508,-18.726c-2.692,-8.382 -2.485,-20.183 0.559,-31.874" fill="#e52029" fill-rule="evenodd" stroke-width="1"/><path d="M185.8617,232.67496c0,-4.195 0.038,-7.628 0.084,-7.628c0.221,0 3.304,0.579 3.704,0.696c0.422,0.123 0.461,1.476 0.543,18.719c0.062,13.047 0.179,18.844 0.393,19.452l0.305,0.867h-2.221h-2.222l-0.318,-1.329l-0.319,-1.328l-0.768,0.768c-4.256,4.255 -13.017,2.27 -15.749,-3.568c-6.197,-13.242 5.826,-28.453 15.662,-19.817l0.906,0.796v-7.628M200.8837,226.14696c1.431,-0.404 2.969,0.157 3.758,1.371c1.658,2.546 -0.75,5.78 -3.697,4.967c-3.018,-0.834 -3.064,-5.493 -0.061,-6.338M131.5417,237.27696c3.389,-1.171 4.037,-0.729 3.012,2.055l-0.826,2.245l-1.035,0.002c-1.648,0.003 -3.036,0.547 -4.35,1.703c-1.965,1.73 -1.948,1.623 -1.948,12.157v9.342h-2.119h-2.118l-0.089,-12.2c-0.077,-10.701 -0.144,-12.341 -0.54,-13.345c-0.34,-0.861 -0.371,-1.172 -0.126,-1.255c0.485,-0.165 3.578,-0.934 3.757,-0.934c0.31,0 0.921,1.505 1.103,2.716l0.186,1.241l0.762,-0.868c1.069,-1.217 2.705,-2.297 4.331,-2.859M147.2027,237.46396c4.542,-0.985 8.372,-0.357 10.377,1.702c1.969,2.021 2.019,2.335 1.922,12.078c-0.091,9.225 -0.01,9.905 1.312,10.939l0.781,0.612l-1.099,1.459c-0.692,0.92 -1.259,1.427 -1.533,1.369c-0.811,-0.169 -2.171,-1.402 -2.709,-2.458c-0.65,-1.273 -0.586,-1.269 -1.93,-0.119c-5.175,4.43 -13.667,2.559 -14.879,-3.278c-1.457,-7.018 4.076,-11.77 13.72,-11.784l2.371,-0.003l-0.135,-2.356c-0.167,-2.934 -0.536,-3.741 -2.063,-4.511c-2.392,-1.206 -7.458,-0.178 -10.385,2.108l-0.642,0.501l-1.016,-1.404c-0.559,-0.773 -1.02,-1.534 -1.025,-1.692c-0.013,-0.452 5.022,-2.749 6.933,-3.163M202.1277,237.34296c0.807,-0.128 1.616,-0.247 1.797,-0.264c0.259,-0.025 0.329,2.967 0.324,13.845l-0.006,13.877l-2.324,-0.077l-2.324,-0.077l-0.054,-13.398l-0.054,-13.398l0.587,-0.137c0.323,-0.076 1.248,-0.243 2.054,-0.371M220.9277,237.42296c9.711,-2.406 17.03,7.312 14.329,19.024c-2.655,11.51 -18.176,12.55 -21.906,1.468c-3.092,-9.186 0.434,-18.722 7.577,-20.492M225.3277,240.80096c-2.498,-0.57 -5.181,0.297 -6.633,2.144c-1.655,2.104 -2.16,10.254 -0.888,14.313c1.287,4.105 5.265,5.964 9.019,4.215c2.843,-1.323 3.838,-3.812 3.832,-9.583c-0.008,-7.115 -1.498,-10.215 -5.33,-11.089M182.4057,241.20896c-3.37,-1.001 -6.261,-0.301 -7.938,1.923c-2.824,3.744 -2.732,13.566 0.156,16.672c2.223,2.391 7.022,2.214 9.69,-0.357l1.281,-1.235v-6.827c0,-3.755 0.073,-7.018 0.163,-7.251c0.273,-0.714 -1.698,-2.434 -3.352,-2.925M155.1947,254.39396v-3.48l-2.2,0.031c-6.283,0.09 -9,2.002 -9,6.334c0,4.136 3.274,6.126 7.214,4.382c3.27,-1.447 3.986,-2.752 3.986,-7.267M259.3017,267.95496c4.707,-2.137 8.675,3.717 4.934,7.28c-1.129,1.074 -2.34,1.441 -3.916,1.185c-4.122,-0.669 -4.85,-6.724 -1.018,-8.465M273.7477,267.84396c4.399,-1.568 7.884,4.059 4.568,7.375c-1.012,1.012 -1.748,1.295 -3.366,1.295c-4.905,0 -5.876,-7.005 -1.202,-8.67M288.8697,271.12796l0.802,-0.998l0.961,0.755c3.252,2.555 6.102,2.65 9.435,0.315l1.522,-1.066l0.656,0.966c0.786,1.157 0.717,1.333 -1.25,3.193c-4.171,3.944 -7.774,3.617 -11.965,-1.086l-0.963,-1.081l0.802,-0.998M315.9337,271.09196c0.881,-1.161 0.708,-1.144 1.92,-0.184c3.119,2.47 6.153,2.475 9.728,0.015l1.188,-0.817l0.673,0.99c0.771,1.134 0.816,1.032 -1.496,3.318c-3.879,3.835 -8.031,3.307 -12.05,-1.531l-0.69,-0.832l0.727,-0.959M220.4587,279.05596c0.698,-0.488 1.288,-0.899 1.311,-0.915c0.351,-0.228 2.993,4.624 2.707,4.97c-0.719,0.869 -2.95,1.664 -4.678,1.667l-1.662,0.003l0.596,1.133c2.956,5.624 -2.261,11.65 -10.098,11.665c-1.668,0.003 -4.053,1.916 -3.107,2.492c0.11,0.067 1.928,0.198 4.04,0.29c7.781,0.341 10.671,2.105 11.458,6.991c1.066,6.618 -4.09,10.772 -13.353,10.757c-8.056,-0.012 -12.471,-2.918 -12.477,-8.213c-0.002,-2.42 0.043,-2.449 3.855,-2.449h3.303l-0.034,1.462c-0.112,4.77 10.179,5.138 11.36,0.406c0.635,-2.544 -1.099,-3.417 -7.418,-3.737c-6.682,-0.337 -8.219,-0.784 -9.053,-2.634c-1.127,-2.498 -0.217,-4.56 2.607,-5.91l1.555,-0.743l-1.155,-0.513c-2.89,-1.284 -4.221,-3.454 -4.221,-6.883c0,-5.728 3.756,-9.203 10.4,-9.621c2.294,-0.145 3.356,-0.023 7.492,0.856c2.808,0.597 4.603,0.303 6.572,-1.074M231.0887,279.85996c1.745,-0.502 3.197,-0.919 3.226,-0.929c0.029,-0.009 0.263,0.673 0.519,1.516c0.257,0.844 0.499,1.58 0.539,1.636c0.039,0.057 0.885,-0.389 1.88,-0.989c4.433,-2.676 9.379,-2.435 11.961,0.581c1.357,1.585 1.448,2.509 1.448,14.719v11.053h-3.589h-3.588l-0.078,-10.372c-0.074,-9.73 -0.11,-10.407 -0.582,-10.928c-1.099,-1.214 -3.19,-0.874 -5.83,0.949l-1,0.691v9.837v9.838l-3.667,-0.074l-3.666,-0.074l-0.06,-11.525c-0.046,-8.95 -0.145,-11.899 -0.446,-13.198c-0.464,-2.011 -0.861,-1.641 2.933,-2.731M291.4617,279.39796c3.621,-0.947 11.783,0.277 13.535,2.029c0.077,0.077 -1.987,4.642 -2.224,4.918c-0.046,0.053 -1.013,-0.29 -2.148,-0.762c-3.979,-1.657 -7.448,-1.298 -8.203,0.848c-0.629,1.789 0.573,2.785 4.589,3.803c7.186,1.822 8.984,3.533 8.984,8.547c-0.001,8.489 -9.39,12.093 -20.117,7.722c-3.057,-1.245 -2.983,-1.067 -1.604,-3.882c1.449,-2.957 1.23,-2.829 3.166,-1.852c6.254,3.158 11.008,2.743 11.008,-0.96c0,-2.006 -1.116,-2.708 -5.833,-3.667c-5.902,-1.199 -8.2,-3.483 -8.214,-8.161c-0.013,-4.257 2.583,-7.413 7.061,-8.583M319.4897,279.31896c3.427,-0.962 8.019,-0.049 10.559,2.099l0.853,0.722l-1.751,2.395l-1.751,2.395l-0.903,-0.688c-4.385,-3.345 -7.376,-1.4 -8.112,5.273c-1.034,9.386 2.896,13.758 8.532,9.492c0.77,-0.583 1.45,-1.01 1.51,-0.95c0.061,0.061 0.827,1.058 1.703,2.217l1.592,2.107l-0.997,0.878c-5.88,5.183 -15.68,3.414 -18.934,-3.417c-4.252,-8.925 -0.379,-20.256 7.699,-22.523M175.9947,279.55196c10.254,-2.868 18.363,7.293 15.313,19.19c-3.228,12.597 -20.603,12.591 -23.994,-0.007c-2.343,-8.706 1.488,-17.17 8.681,-19.183M260.7477,280.03196c1.712,-0.44 3.33,-0.812 3.594,-0.826c0.832,-0.044 0.562,31.085 -0.293,33.627c-0.741,2.204 -2.465,4.187 -4.882,5.614c-2.083,1.23 -2.055,1.232 -3.056,-0.143c-0.449,-0.618 -1.098,-1.509 -1.443,-1.98l-0.626,-0.857l1.134,-1.23c2.382,-2.584 2.274,-1.739 2.372,-18.564l0.086,-14.84l3.114,-0.801M274.2617,279.69196c1.466,-0.244 3.115,-0.458 3.663,-0.477l0.997,-0.034l-0.006,14.133l-0.005,14.133h-3.727h-3.727l0.069,-13.656l0.069,-13.657l2.667,-0.442M342.6567,279.43896c2.505,-0.642 6.919,0.008 9.491,1.397c3.113,1.682 5.18,6.725 5.18,12.635v2.51h-8.036h-8.037l0.175,1.486c0.654,5.569 6.465,7.137 11.999,3.237l0.767,-0.541l0.433,0.574c0.238,0.316 0.882,1.294 1.432,2.173l1,1.6l-1.266,0.932c-6.252,4.601 -15.849,3.504 -19.785,-2.261c-5.758,-8.435 -2.101,-21.498 6.647,-23.742M181.5947,285.26896c-2.565,-1.82 -5.428,-0.261 -6.292,3.427c-0.511,2.178 -0.39,9.42 0.186,11.12c0.998,2.946 4.44,3.946 6.499,1.887c2.685,-2.685 2.403,-14.45 -0.393,-16.434M209.1607,284.80396c-4.24,-1.178 -7.349,2.503 -5.214,6.172c0.791,1.36 3.802,2.024 5.774,1.274c3.221,-1.225 2.824,-6.507 -0.56,-7.446M347.9587,285.23496c-2.502,-1.826 -5.774,-0.056 -6.323,3.421c-0.333,2.108 -0.576,1.991 4.139,1.991h4.148l-0.183,-1.533c-0.222,-1.852 -0.836,-3.189 -1.781,-3.879" fill="#646d99" fill-rule="evenodd" stroke-width="1"/><path d="M185.81832,347.41742v-333.33333h64.56456v333.33333z" fill="none" fill-rule="nonzero" stroke-width="0"/></g></g></svg>