<svg xmlns="http://www.w3.org/2000/svg" width="319" height="319"><g stroke-miterlimit="10" data-paper-data="{&quot;isPaintingLayer&quot;:true}" style="mix-blend-mode:normal"><path fill="#fff" d="M76.3 305.7v-70.4H251v70.4z"/><path fill="#0095aa" fill-rule="evenodd" d="M0 159.5V0h319v319H0V159.5m163.7-96.4c-.8-1-13.5-1-17.6-.1a41 41 0 0 1-6.3.5c-5.3 0-6.8.8-10.6 5a39 39 0 0 1-6.3 5.5 63.3 63.3 0 0 1-13.6 5.8c-8.9 2.4-12 3-14.3 3-5.4 0-5.8 2.4-2.5 15.6l1.7 6.9.8 3.4 4 .2c2.3.1 6.4 0 9.1-.4l8-1 2.9-.3V151c0 42.7 0 43.9 1.2 44.5 1.8 1 42.6.9 43.5 0 1.1-1.2 1.1-131.5 0-132.5m29.7.4a65.9 65.9 0 0 0-20-.5c-1.1 1.1-1.1 23.6 0 24.7.3.4 1.8.8 3.2.8 1.4 0 4 .7 5.7 1.5 2.6 1.2 3.5 2 4.7 4.5 1.3 2.6 1.5 4 1.7 11.2a29 29 0 0 1-1.1 12.3c-1.6 4.8-2.7 5.6-9 7-2.4.6-4.8 1.3-5.2 1.6-.6.5-.8 3.7-.8 12.4 0 14.6-.4 14 8.4 13.5 25-1.3 42-10.8 48.6-27.3 2.7-6.6 3.6-12 3.3-19.9-.4-8.4-1.5-12.9-4.7-19.3-5.6-11.2-18.9-19.9-34.8-22.5m-77.7 183.3c-7.1-3-26.5-1.8-28.5 1.8-.4.7-.6 9.4-.6 22 0 17.7.1 21 1 22 .9 1.4 1.4 1.5 7.6 1.5 4.4 0 7.1-.3 7.8-.8.8-.6 1-2.1 1.2-8l.2-7.1 3-.2c11.2-.5 18.5-8 17.6-18-.6-6.5-3.6-10.8-9.3-13.2m41.4-.4a63.2 63.2 0 0 0-19.4-1c-5.5.7-8 1.8-8.8 3.6-.3.9-.6 10.9-.6 22.3 0 18.1.2 21 1 21.8.8.8 2.4 1 7.7 1 9 0 9 0 9-8.2 0-7 0-7 2.3.6.8 2.5 2 5.2 2.6 6 1.2 1.6 1.4 1.6 9.4 1.4l8.2-.1.2-1.6c.1-.9-1.3-5-3.3-9.3-2-4.3-3.6-8.5-3.7-9.4 0-1 .6-2.4 2-4 2.8-3 3.9-5.8 3.9-9.5a15 15 0 0 0-10.5-13.6m28.1.2c-.8-1-2-1.1-8.7-1.1-7.5 0-7.7 0-8.4 1.5-.5 1.2-.4 2.4 1 6a981.8 981.8 0 0 1 10.4 33.5c1.2 4.1 2.3 6.6 3 7 2 1 12.9.7 14-.4.5-.5 2-4.2 3.2-8.2l4.1-13.3c5.4-16.8 6.8-22 6.7-23.9l-.2-2H203c-7-.3-7.3-.2-8.2 1.2-1.4 2-4 14.1-4.2 19.1 0 2.6-.2 2.4-1.2-2.5l-2.1-10.5c-.6-3-1.5-5.8-2-6.4m44.6.5c-.6-1.6-.6-1.6-8.3-1.6-5.9 0-8 .2-8.5.9-.7.9-1 44.7-.3 46.7.4.8 1.7 1 8.3 1 5.3 0 8.2-.3 8.7-.8 1-1 1-43.8.1-46.2m-83.7 8.8c.1-.2 1-.1 1.7.3 1.5.6 2.3 2.7 2.3 6.2 0 3.2-2.2 6.2-3.8 5.2a44 44 0 0 1-.2-11.7m-42.2 5.8c0-5.6 0-5.6 1.6-5.6 2 0 2.8 1.6 2.8 5.1 0 3-1.8 6-3.5 6-.7 0-.9-1-.9-5.5"/><path fill="#fff" fill-rule="evenodd" d="M193.4 63.4c15.9 2.7 29.2 11.3 34.8 22.5 3.2 6.5 4.3 11 4.7 19.4a43 43 0 0 1-3.2 20c-6.7 16.4-23.8 26-48.8 27.2-8.8.5-8.4 1.1-8.4-13.5 0-8.6.2-11.9.8-12.3a24 24 0 0 1 5.4-1.7c6.2-1.4 7.2-2.2 8.8-7 1.2-3.5 1.3-5.1 1.1-12.3-.2-7.1-.4-8.6-1.7-11.3-1.2-2.4-2-3.2-4.6-4.4-1.7-.8-4.3-1.5-5.7-1.5-1.3 0-2.9-.4-3.3-.8-1-1-1-23.6 0-24.7 1-1 13.4-.7 20 .4" data-paper-data="{&quot;noHover&quot;:false,&quot;origItem&quot;:[&quot;Path&quot;,{&quot;applyMatrix&quot;:true,&quot;segments&quot;:[[[547.79622,167.94704],[0,0],[-13.44036,-2.25792]],[[507.72558,167.0212],[1.87786,-1.90404],[-2.16446,2.19438]],[[507.66328,216.45],[-2.15948,-2.15948],[0.82242,0.82242]],[[514.20528,217.95778],[-2.77506,-0.00748],[2.7763,0.00624]],[[525.61452,220.9322],[-3.49904,-1.62988],[5.21864,2.42988]],[[534.95774,229.95392],[-2.4436,-4.96818],[2.59062,5.26724]],[[538.37328,252.4671],[-0.37756,-14.30018],[0.37632,14.2578]],[[536.12658,276.97902],[2.32396,-6.98436],[-3.1925,9.58994]],[[518.3037,291.04618],[12.4547,-2.75886],[-4.9607,1.1003]],[[507.72562,294.2773],[0.8573,-0.67788],[-1.14766,0.90716]],[[506.168,318.94248],[0,-17.25964],[0,29.21716]],[[522.90054,345.9254],[-17.56742,0.88722],[49.9098,-2.5196]],[[620.2865,291.4549],[-13.35438,32.86572],[5.37814,-13.23352]],[[626.70014,251.69704],[0.69158,15.81416],[-0.73768,-16.84344]],[[617.3831,212.96096],[6.41614,12.89584],[-11.17124,-22.45586]],[[547.79624,167.94706],[31.80156,5.34326],[0,0]]],&quot;fillColor&quot;:[0,0,0],&quot;fillRule&quot;:&quot;evenodd&quot;}]}"/><path fill="#fff" fill-rule="evenodd" d="M163.8 63c1 1 1 131.5 0 132.6-1 1-41.8 1-43.6 0-1.2-.6-1.2-1.7-1.2-44.5v-44l-3 .4-7.9 1c-2.7.4-6.8.6-9 .5l-4.1-.3-.8-3.4-1.7-6.9c-3.3-13.3-3-15.6 2.5-15.6 2.3 0 5.4-.6 14.3-3 4-1.1 10.7-4 13.6-5.8 1.6-1 4.5-3.6 6.3-5.6 3.8-4.2 5.3-4.9 10.6-5 2 0 5-.2 6.3-.5 4-.8 16.8-.8 17.7.1" data-paper-data="{&quot;noHover&quot;:false,&quot;origItem&quot;:[&quot;Path&quot;,{&quot;applyMatrix&quot;:true,&quot;segments&quot;:[[[488.47344,167.10468],[0,0],[-1.72334,-1.72334]],[[453.20898,166.92648],[8.09338,-1.6735],[-2.7414,0.56698]],[[440.51752,168.02928],[4.2392,-0.03864],[-10.5133,0.09844]],[[419.34514,177.98432],[7.63232,-8.43356],[-3.61492,3.99498]],[[406.79074,189.08576],[3.2897,-2.11088],[-5.69464,3.6548]],[[379.68944,200.57474],[8.04728,-2.1707],[-17.87396,4.82114]],[[350.96074,206.73044],[4.62676,0],[-10.74258,0]],[[346.05736,237.88278],[-6.56068,-26.5717],[0.93084,3.76944]],[[349.39564,251.58982],[-0.90466,-3.76944],[0,0]],[351.04172,258.44334],[[359.1351,258.86452],[0,0],[4.45104,0.23178]],[[377.19722,257.95986],[-5.4828,0.72896],[5.48282,-0.72896]],[[393.08492,256.00474],[-3.25604,0.34642],[0,0]],[399.00386,255.37546],[[399.00386,343.15778],[0,0],[0,85.51194]],[[401.4138,432.2298],[-2.34764,-1.2573],[3.62862,1.94142]],[[488.47338,432.0242],[-1.95512,1.95512],[2.16944,-2.16944]],[[488.47338,167.10466],[2.16944,2.16946],[0,0]]],&quot;fillColor&quot;:[0,0,0],&quot;fillRule&quot;:&quot;evenodd&quot;}]}"/></g></svg>