<svg version="1.1" xmlns="http://www.w3.org/2000/svg" xmlns:xlink="http://www.w3.org/1999/xlink" width="269.13674" height="245.12372" viewBox="0,0,269.13674,245.12372"><g transform="translate(-107.82171,-65.67233)"><g data-paper-data="{&quot;isPaintingLayer&quot;:true}" fill-rule="evenodd" stroke="none" stroke-width="1" stroke-linecap="butt" stroke-linejoin="miter" stroke-miterlimit="10" stroke-dasharray="" stroke-dashoffset="0" style="mix-blend-mode: normal"><path d="M300.38,70.42c2.28,-2.28 17.686,2.23 28.62,8.379c1.32,0.742 2.85,1.595 3.4,1.894c0.943,0.514 2.246,1.456 7.853,5.672c14.173,10.658 28.483,33.14 32.739,51.435c0.307,1.32 0.739,3.12 0.961,4c5.599,22.219 3.274,50.061 -6.131,73.4c-3.458,8.579 -10.466,20.788 -16.996,29.605c-1.225,1.653 -2.766,3.813 -3.426,4.8c-1.614,2.414 -17.64,18.432 -21.4,21.388c-1.65,1.298 -3.63,2.939 -4.4,3.647c-1.478,1.359 -4.755,3.735 -9.4,6.814c-1.54,1.021 -2.89,1.973 -3,2.116c-0.235,0.305 -6.748,4.43 -6.995,4.43c-0.093,0 -1.752,0.915 -3.687,2.033c-14.751,8.522 -35.352,15.979 -51.318,18.573c-12.194,1.982 -14.645,2.194 -25.316,2.19c-24.508,-0.008 -45.495,-5.222 -64.884,-16.117c-9.623,-5.408 -22.032,-15.72 -28.426,-23.625c-3.288,-4.065 -5.076,-6.514 -6.024,-8.254c-0.54,-0.99 -1.971,-3.5 -3.18,-5.579c-5.489,-9.434 -9.227,-20.543 -11.043,-32.821c-0.681,-4.603 -0.671,-22.485 0.014,-26.2c0.285,-1.54 0.886,-4.69 1.336,-7c0.451,-2.31 0.96,-5.01 1.132,-6c0.327,-1.878 1.272,-5.048 3.22,-10.8c1.791,-5.289 2.353,-6.804 3.251,-8.772c0.458,-1.006 1.449,-3.268 2.201,-5.028c0.752,-1.76 1.598,-3.56 1.881,-4c0.283,-0.44 0.909,-1.859 1.39,-3.153c0.915,-2.456 1.482,-3.514 5.331,-9.948c6.103,-10.2 12.36,-18.699 13.767,-18.699c0.568,0 10.297,6.894 19.076,13.518c2.159,1.629 5.129,3.8 6.6,4.824c8.396,5.849 8.124,5.133 4.712,12.401c-5.872,12.508 -7.649,17.069 -9.995,25.657c-6.26,22.91 -5.011,43.113 3.685,59.6c1.941,3.68 7.678,11.606 9.528,13.162c0.629,0.53 1.962,1.7 2.962,2.6c3.821,3.443 4.677,4.112 7.878,6.156c5.273,3.368 11.085,5.912 17.504,7.662c21.096,5.752 46.041,1.44 70.2,-12.134c2.31,-1.298 4.928,-2.759 5.817,-3.248c1.566,-0.859 5.551,-3.686 10.423,-7.394c8.407,-6.399 19.862,-18.015 26.587,-26.963c2.871,-3.819 5.173,-7.056 5.173,-7.273c0,-0.111 0.686,-1.139 1.525,-2.285c1.394,-1.905 8.475,-13.956 8.475,-14.424c0,-0.11 0.645,-1.598 1.434,-3.306c3.233,-6.997 6.944,-17.502 8.168,-23.116c0.436,-2 1.053,-4.807 1.37,-6.237c2.093,-9.435 2.324,-26.917 0.465,-35.217c-1.878,-8.381 -3.353,-13.137 -4.76,-15.345c-0.294,-0.461 -0.848,-1.648 -1.232,-2.638c-2.286,-5.895 -8.922,-14.548 -15.245,-19.878c-2.303,-1.941 -10.632,-7.722 -11.126,-7.722c-0.131,0 -0.921,-0.464 -1.756,-1.032c-0.835,-0.568 -2.508,-1.482 -3.718,-2.031c-4.327,-1.965 -5.67,-2.721 -6.03,-3.393c-0.54,-1.01 0.041,-5.555 0.81,-6.324" fill="#e2a43d"/><path d="M260.6,66.012c2.86,-0.142 5.29,-0.29 5.4,-0.329c0.11,-0.04 0.605,0.036 1.1,0.169l0.9,0.241v91.919v91.92l-1.7,0.943c-2.28,1.265 -7.675,3.517 -9.9,4.132c-0.99,0.274 -3.87,1.132 -6.4,1.906c-4.71,1.441 -10.128,2.657 -15.8,3.546c-5.945,0.931 -23.829,0.445 -24.953,-0.679c-0.136,-0.135 -0.294,-30.562 -0.35,-67.613c-0.077,-49.927 -0.221,-67.367 -0.558,-67.367c-1.257,0 -15.071,9.007 -18.481,12.05c-2.639,2.354 -2.4,2.372 -5.858,-0.442c-0.99,-0.805 -4.05,-3.238 -6.8,-5.405c-2.75,-2.167 -5.925,-4.675 -7.056,-5.572c-1.13,-0.897 -4.807,-3.791 -8.17,-6.431c-8.621,-6.767 -8.253,-6.421 -7.736,-7.276c0.864,-1.426 19.201,-14.777 23.562,-17.155c0.44,-0.239 2.018,-1.186 3.507,-2.102c1.489,-0.917 2.779,-1.667 2.867,-1.667c0.088,0 1.57,-0.835 3.293,-1.856c3.348,-1.984 13.952,-7.326 16.933,-8.531c0.99,-0.4 2.79,-1.169 4,-1.709c2.852,-1.273 7.604,-3.054 14,-5.247c1.749,-0.599 7.464,-2.267 10.5,-3.063c0.825,-0.217 2.175,-0.579 3,-0.806c1.884,-0.517 4.749,-1.084 8.1,-1.603c1.43,-0.221 2.87,-0.486 3.2,-0.588c1.297,-0.4 8.463,-1.141 13.4,-1.385" fill="#1b5a9f"/></g></g></svg>