<svg id="svg" version="1.1" xmlns="http://www.w3.org/2000/svg" xmlns:xlink="http://www.w3.org/1999/xlink" width="400" height="400" viewBox="0, 0, 400,400"><g id="svgg"><path id="path0" d="M260.380 90.420 C 259.611 91.189,259.030 95.734,259.570 96.744 C 259.930 97.416,261.273 98.172,265.600 100.137 C 266.810 100.686,268.483 101.600,269.318 102.168 C 270.153 102.736,270.943 103.200,271.074 103.200 C 271.568 103.200,279.897 108.981,282.200 110.922 C 288.523 116.252,295.159 124.905,297.445 130.800 C 297.829 131.790,298.383 132.977,298.677 133.438 C 300.084 135.646,301.559 140.402,303.437 148.783 C 305.296 157.083,305.065 174.565,302.972 184.000 C 302.655 185.430,302.038 188.237,301.602 190.237 C 300.378 195.851,296.667 206.356,293.434 213.353 C 292.645 215.061,292.000 216.549,292.000 216.659 C 292.000 217.127,284.919 229.178,283.525 231.083 C 282.686 232.229,282.000 233.257,282.000 233.368 C 282.000 233.585,279.698 236.822,276.827 240.641 C 270.102 249.589,258.647 261.205,250.240 267.604 C 245.368 271.312,241.383 274.139,239.817 274.998 C 238.928 275.487,236.310 276.948,234.000 278.246 C 209.841 291.820,184.896 296.132,163.800 290.380 C 157.381 288.630,151.569 286.086,146.296 282.718 C 143.095 280.674,142.239 280.005,138.418 276.562 C 137.418 275.662,136.085 274.492,135.456 273.962 C 133.606 272.406,127.869 264.480,125.928 260.800 C 117.232 244.313,115.983 224.110,122.243 201.200 C 124.589 192.612,126.366 188.051,132.238 175.543 C 135.650 168.275,135.922 168.991,127.526 163.142 C 126.055 162.118,123.085 159.947,120.926 158.318 C 112.147 151.694,102.418 144.800,101.850 144.800 C 100.443 144.800,94.186 153.299,88.083 163.499 C 84.234 169.933,83.667 170.991,82.752 173.447 C 82.271 174.741,81.645 176.160,81.362 176.600 C 81.079 177.040,80.233 178.840,79.481 180.600 C 78.729 182.360,77.738 184.622,77.280 185.628 C 76.382 187.596,75.820 189.111,74.029 194.400 C 72.081 200.152,71.136 203.322,70.809 205.200 C 70.637 206.190,70.128 208.890,69.677 211.200 C 69.227 213.510,68.626 216.660,68.341 218.200 C 67.656 221.915,67.646 239.797,68.327 244.400 C 70.143 256.678,73.881 267.787,79.370 277.221 C 80.579 279.300,82.010 281.810,82.550 282.800 C 83.498 284.540,85.286 286.989,88.574 291.054 C 94.968 298.959,107.377 309.271,117.000 314.679 C 136.389 325.574,157.376 330.788,181.884 330.796 C 192.555 330.800,195.006 330.588,207.200 328.606 C 223.166 326.012,243.767 318.555,258.518 310.033 C 260.453 308.915,262.112 308.000,262.205 308.000 C 262.452 308.000,268.965 303.875,269.200 303.570 C 269.310 303.427,270.660 302.475,272.200 301.454 C 276.845 298.375,280.122 295.999,281.600 294.640 C 282.370 293.932,284.350 292.291,286.000 290.993 C 289.760 288.037,305.786 272.019,307.400 269.605 C 308.060 268.618,309.601 266.458,310.826 264.805 C 317.356 255.988,324.364 243.779,327.822 235.200 C 337.227 211.861,339.552 184.019,333.953 161.800 C 333.731 160.920,333.299 159.120,332.992 157.800 C 328.736 139.505,314.426 117.023,300.253 106.365 C 294.646 102.149,293.343 101.207,292.400 100.693 C 291.850 100.394,290.320 99.541,289.000 98.799 C 278.066 92.650,262.660 88.140,260.380 90.420 " stroke="none" fill="#e2a43d" fill-rule="evenodd"></path><path id="path1" d="M220.600 86.012 C 215.663 86.256,208.497 86.997,207.200 87.397 C 206.870 87.499,205.430 87.764,204.000 87.985 C 200.649 88.504,197.784 89.071,195.900 89.588 C 195.075 89.815,193.725 90.177,192.900 90.394 C 189.864 91.190,184.149 92.858,182.400 93.457 C 176.004 95.650,171.252 97.431,168.400 98.704 C 167.190 99.244,165.390 100.013,164.400 100.413 C 161.419 101.618,150.815 106.960,147.467 108.944 C 145.744 109.965,144.262 110.800,144.174 110.800 C 144.086 110.800,142.796 111.550,141.307 112.467 C 139.818 113.383,138.240 114.330,137.800 114.569 C 133.439 116.947,115.102 130.298,114.238 131.724 C 113.721 132.579,113.353 132.233,121.974 139.000 C 125.337 141.640,129.014 144.534,130.144 145.431 C 131.275 146.328,134.450 148.836,137.200 151.003 C 139.950 153.170,143.010 155.603,144.000 156.408 C 147.458 159.222,147.219 159.204,149.858 156.850 C 153.268 153.807,167.082 144.800,168.339 144.800 C 168.676 144.800,168.820 162.240,168.897 212.167 C 168.953 249.218,169.111 279.645,169.247 279.780 C 170.371 280.904,188.255 281.390,194.200 280.459 C 199.872 279.570,205.290 278.354,210.000 276.913 C 212.530 276.139,215.410 275.281,216.400 275.007 C 218.625 274.392,224.020 272.140,226.300 270.875 L 228.000 269.932 228.000 178.012 L 228.000 86.093 227.100 85.852 C 226.605 85.719,226.110 85.643,226.000 85.683 C 225.890 85.722,223.460 85.870,220.600 86.012 " stroke="none" fill="#1b5a9f" fill-rule="evenodd"></path><path id="path2" d="M0.000 200.000 L 0.000 400.000 200.000 400.000 L 400.000 400.000 400.000 200.000 L 400.000 0.000 200.000 0.000 L 0.000 0.000 0.000 200.000 M227.100 85.852 L 228.000 86.093 228.000 178.012 L 228.000 269.932 226.300 270.875 C 224.020 272.140,218.625 274.392,216.400 275.007 C 215.410 275.281,212.530 276.139,210.000 276.913 C 205.290 278.354,199.872 279.570,194.200 280.459 C 188.255 281.390,170.371 280.904,169.247 279.780 C 169.111 279.645,168.953 249.218,168.897 212.167 C 168.820 162.240,168.676 144.800,168.339 144.800 C 167.082 144.800,153.268 153.807,149.858 156.850 C 147.219 159.204,147.458 159.222,144.000 156.408 C 143.010 155.603,139.950 153.170,137.200 151.003 C 134.450 148.836,131.275 146.328,130.144 145.431 C 129.014 144.534,125.337 141.640,121.974 139.000 C 113.353 132.233,113.721 132.579,114.238 131.724 C 115.102 130.298,133.439 116.947,137.800 114.569 C 138.240 114.330,139.818 113.383,141.307 112.467 C 142.796 111.550,144.086 110.800,144.174 110.800 C 144.262 110.800,145.744 109.965,147.467 108.944 C 150.815 106.960,161.419 101.618,164.400 100.413 C 165.390 100.013,167.190 99.244,168.400 98.704 C 171.252 97.431,176.004 95.650,182.400 93.457 C 184.149 92.858,189.864 91.190,192.900 90.394 C 193.725 90.177,195.075 89.815,195.900 89.588 C 197.784 89.071,200.649 88.504,204.000 87.985 C 205.430 87.764,206.870 87.499,207.200 87.397 C 208.497 86.997,215.663 86.256,220.600 86.012 C 223.460 85.870,225.890 85.722,226.000 85.683 C 226.110 85.643,226.605 85.719,227.100 85.852 M268.600 90.748 C 274.134 91.769,282.063 94.898,289.000 98.799 C 290.320 99.541,291.850 100.394,292.400 100.693 C 293.343 101.207,294.646 102.149,300.253 106.365 C 314.426 117.023,328.736 139.505,332.992 157.800 C 333.299 159.120,333.731 160.920,333.953 161.800 C 338.118 178.325,337.767 201.054,333.058 219.800 C 331.001 227.991,324.902 242.673,320.266 250.597 C 318.821 253.066,312.731 262.233,310.826 264.805 C 309.601 266.458,308.060 268.618,307.400 269.605 C 305.786 272.019,289.760 288.037,286.000 290.993 C 284.350 292.291,282.370 293.932,281.600 294.640 C 280.122 295.999,276.845 298.375,272.200 301.454 C 270.660 302.475,269.310 303.427,269.200 303.570 C 268.965 303.875,262.452 308.000,262.205 308.000 C 262.112 308.000,260.453 308.915,258.518 310.033 C 243.767 318.555,223.166 326.012,207.200 328.606 C 195.006 330.588,192.555 330.800,181.884 330.796 C 157.376 330.788,136.389 325.574,117.000 314.679 C 107.377 309.271,94.968 298.959,88.574 291.054 C 85.286 286.989,83.498 284.540,82.550 282.800 C 82.010 281.810,80.579 279.300,79.370 277.221 C 73.881 267.787,70.143 256.678,68.327 244.400 C 67.646 239.797,67.656 221.915,68.341 218.200 C 68.626 216.660,69.227 213.510,69.677 211.200 C 70.128 208.890,70.637 206.190,70.809 205.200 C 71.136 203.322,72.081 200.152,74.029 194.400 C 75.820 189.111,76.382 187.596,77.280 185.628 C 77.738 184.622,78.729 182.360,79.481 180.600 C 80.233 178.840,81.079 177.040,81.362 176.600 C 81.645 176.160,82.271 174.741,82.752 173.447 C 83.667 170.991,84.234 169.933,88.083 163.499 C 94.186 153.299,100.443 144.800,101.850 144.800 C 102.418 144.800,112.147 151.694,120.926 158.318 C 123.085 159.947,126.055 162.118,127.526 163.142 C 135.922 168.991,135.650 168.275,132.238 175.543 C 126.366 188.051,124.589 192.612,122.243 201.200 C 115.983 224.110,117.232 244.313,125.928 260.800 C 127.869 264.480,133.606 272.406,135.456 273.962 C 136.085 274.492,137.418 275.662,138.418 276.562 C 142.239 280.005,143.095 280.674,146.296 282.718 C 156.860 289.465,169.061 292.815,182.970 292.787 C 192.934 292.768,201.390 291.378,212.000 288.018 C 218.996 285.802,226.425 282.502,234.000 278.246 C 236.310 276.948,238.928 275.487,239.817 274.998 C 241.383 274.139,245.368 271.312,250.240 267.604 C 258.647 261.205,270.102 249.589,276.827 240.641 C 279.698 236.822,282.000 233.585,282.000 233.368 C 282.000 233.257,282.686 232.229,283.525 231.083 C 284.919 229.178,292.000 217.127,292.000 216.659 C 292.000 216.549,292.645 215.061,293.434 213.353 C 296.667 206.356,300.378 195.851,301.602 190.237 C 302.038 188.237,302.655 185.430,302.972 184.000 C 305.065 174.565,305.296 157.083,303.437 148.783 C 301.559 140.402,300.084 135.646,298.677 133.438 C 298.383 132.977,297.829 131.790,297.445 130.800 C 295.159 124.905,288.523 116.252,282.200 110.922 C 279.897 108.981,271.568 103.200,271.074 103.200 C 270.943 103.200,270.153 102.736,269.318 102.168 C 268.483 101.600,266.810 100.686,265.600 100.137 C 259.095 97.183,259.089 97.176,259.466 93.568 C 259.888 89.537,260.690 89.290,268.600 90.748 " stroke="none" fill="#fbfbfb" fill-rule="evenodd"></path></g></svg>