<svg xmlns="http://www.w3.org/2000/svg" width="400" height="400"><g fill-rule="evenodd"><path fill="#e2a43d" d="M260.4 90.4c-.8.8-1.4 5.3-.8 6.3.3.7 1.7 1.5 6 3.4a30.4 30.4 0 0 1 5.5 3.1 59.4 59.4 0 0 1 27.6 30.2c1.4 2.2 2.9 7 4.7 15.4a105.7 105.7 0 0 1-1.8 41.4 139.5 139.5 0 0 1-24.8 50.4 160.5 160.5 0 0 1-37 34.4l-5.8 3.2c-24.2 13.6-49.1 18-70.2 12.2a63 63 0 0 1-28.3-16.4 74.8 74.8 0 0 1-9.6-13.2c-8.7-16.5-10-36.7-3.7-59.6 2.4-8.6 4.2-13.1 10-25.7 3.5-7.2 3.7-6.5-4.7-12.4l-6.6-4.8a245.8 245.8 0 0 0-19-13.5c-1.5 0-7.7 8.5-13.8 18.7a53.9 53.9 0 0 0-6.7 13.1l-2 4-2.1 5c-1 2-1.5 3.5-3.3 8.8a87.6 87.6 0 0 0-4.3 16.8l-1.4 7c-.6 3.7-.7 21.6 0 26.2a91.8 91.8 0 0 0 14.3 38.4c.9 1.7 2.7 4.2 6 8.3a115 115 0 0 0 28.4 23.6 128.4 128.4 0 0 0 64.9 16.1c10.7 0 13.1-.2 25.3-2.2A167 167 0 0 0 286 291c3.8-3 19.8-19 21.4-21.4l3.4-4.8a124.4 124.4 0 0 0 22.2-107 101.7 101.7 0 0 0-32.7-51.4 91.3 91.3 0 0 0-11.3-7.6c-11-6.1-26.3-10.7-28.6-8.4"/><path fill="#1b5a9f" d="M220.6 86a109.8 109.8 0 0 0-16.6 2 79 79 0 0 0-11.1 2.4l-10.5 3a188.5 188.5 0 0 0-38.2 17.4l-2.9 1.7-3.5 2a218.3 218.3 0 0 0-23.6 17.2c-.5.9-.8.5 7.8 7.3a2989.1 2989.1 0 0 1 22 17.4c3.5 2.8 3.2 2.8 5.9.4 3.4-3 17.2-12 18.4-12 .4 0 .5 17.4.6 67.4 0 37 .2 67.4.3 67.6 1.2 1.1 19 1.6 25 .7a116.6 116.6 0 0 0 22.2-5.5c2.2-.6 7.6-2.9 9.9-4.1l1.7-1V86l-.9-.1c-.5-.2-1-.3-1.1-.2l-5.4.3"/><path fill="#fbfbfb" d="M0 200v200h400V0H0v200M227.1 85.9l.9.2v183.8l-1.7 1a66.4 66.4 0 0 1-16.3 6c-4.7 1.5-10.1 2.7-15.8 3.6-6 .9-23.8.4-25-.7l-.3-67.6c0-50-.2-67.4-.6-67.4-1.2 0-15 9-18.4 12-2.7 2.4-2.4 2.4-5.9-.4a837.6 837.6 0 0 0-22-17.4c-8.6-6.8-8.3-6.4-7.8-7.3a218.3 218.3 0 0 1 54.2-33 188.5 188.5 0 0 1 27.5-9.1 79 79 0 0 1 11.3-2.2 109.8 109.8 0 0 1 19.9-1.5m41.5 4.8a74 74 0 0 1 23.8 10c1 .5 2.2 1.4 7.9 5.7a101.7 101.7 0 0 1 33.7 55.4c4.1 16.5 3.8 39.3-1 58-2 8.2-8.1 22.9-12.7 30.8a297.4 297.4 0 0 1-12.9 19 268.8 268.8 0 0 1-25.8 25 91.3 91.3 0 0 1-9.4 6.9l-3 2a86.6 86.6 0 0 1-10.7 6.5 167 167 0 0 1-51.3 18.6c-12.2 2-14.6 2.2-25.3 2.2-24.5 0-45.5-5.2-64.9-16.1A115 115 0 0 1 88.6 291a63.3 63.3 0 0 1-9.2-13.9 91.8 91.8 0 0 1-11-32.8c-.8-4.6-.7-22.5 0-26.2a948.8 948.8 0 0 1 2.4-13c.3-1.9 1.3-5 3.2-10.8a85.2 85.2 0 0 1 5.5-13.8c.7-1.8 1.6-3.6 1.9-4l1.4-3.2c.9-2.4 1.4-3.5 5.3-9.9 6-10.2 12.3-18.7 13.8-18.7.5 0 10.2 6.9 19 13.5l6.6 4.8c8.4 5.9 8.2 5.2 4.7 12.4-5.8 12.6-7.6 17.1-10 25.7-6.2 23-5 43.1 3.7 59.6 2 3.7 7.7 11.6 9.6 13.2l3 2.6c3.7 3.4 4.6 4 7.8 6.1a66.3 66.3 0 0 0 36.7 10c10 0 18.4-1.3 29-4.7 7-2.2 14.4-5.5 22-9.8l5.8-3.2a160.5 160.5 0 0 0 52.2-58.3l1.4-3.3A139.5 139.5 0 0 0 303 184c2-9.4 2.3-27 .4-35.2a57.7 57.7 0 0 0-6-18 59.4 59.4 0 0 0-26.3-27.6l-1.8-1c-.8-.6-2.5-1.5-3.7-2-6.5-3-6.5-3-6.1-6.6.4-4 1.2-4.3 9.1-2.9"/></g></svg>