<svg version="1.1" xmlns="http://www.w3.org/2000/svg" xmlns:xlink="http://www.w3.org/1999/xlink" width="400" height="384.986" viewBox="0,0,400,384.986"><g transform="translate(-40,12.36363)"><g data-paper-data="{&quot;isPaintingLayer&quot;:true}" stroke="none" stroke-linecap="butt" stroke-linejoin="miter" stroke-miterlimit="10" stroke-dasharray="" stroke-dashoffset="0" style="mix-blend-mode: normal"><path d="M125.095,106.18637c0.22,-0.409 0.487,-0.744 0.595,-0.744c0.301,0 -0.271,2.837 -0.655,3.253c-0.591,0.638 -0.404,2.906 0.239,2.906c0.318,0 0.591,0.217 0.608,0.482c0.024,0.385 0.069,0.385 0.225,0c0.23,-0.571 1.67,-0.654 1.67,-0.097c0,0.212 0.951,0.385 2.114,0.385c1.697,0 2.209,0.152 2.595,0.77c0.371,0.595 0.898,0.77 2.313,0.77c1.56,0 1.832,0.112 1.832,0.751c0,0.644 0.315,0.767 2.214,0.866c2.129,0.111 2.228,0.164 2.582,1.367c0.341,1.16 0.489,1.251 2.018,1.251c1.233,0 1.771,0.195 2.13,0.77c0.374,0.598 0.898,0.77 2.35,0.77c1.544,0 1.903,0.133 2.069,0.77c0.281,1.071 3.945,1.16 3.991,0.096c0.088,-2.016 0.58,-2.901 0.992,-1.787c0.149,0.401 0.417,0.828 0.596,0.949c0.179,0.122 0.059,0.858 -0.266,1.636l-0.592,1.416h1.908c1.049,0 2.014,0.173 2.145,0.385c0.317,0.513 1.732,0.495 1.732,-0.023c0,-0.224 0.217,-0.298 0.482,-0.164c0.264,0.134 0.153,-0.023 -0.249,-0.349c-1.233,-1.003 -2.707,-4.854 -1.858,-4.854c0.712,0 1.652,1.623 1.408,2.432c-0.201,0.666 -0.154,0.745 0.23,0.381c0.382,-0.363 0.717,-0.011 1.591,1.675c0.609,1.174 1.596,2.853 2.192,3.732c0.596,0.878 1.328,2.16 1.626,2.848c0.297,0.689 0.672,1.252 0.832,1.252c0.16,0 0.291,0.26 0.291,0.577c0,0.318 0.153,0.578 0.34,0.578c0.187,0 0.44,0.303 0.561,0.673c2.448,7.481 6.607,7.575 19.979,0.453c0.368,-0.196 0.931,-0.356 1.252,-0.356c0.32,0 0.582,-0.174 0.582,-0.385c0,-0.212 0.347,-0.385 0.77,-0.385c0.424,0 0.77,-0.174 0.77,-0.385c0,-0.212 0.312,-0.385 0.693,-0.385c0.381,0 0.858,-0.148 1.059,-0.329c0.609,-0.548 7.66,-3.136 8.543,-3.136c0.453,0 0.932,-0.173 1.062,-0.385c0.323,-0.523 0.963,-0.488 0.963,0.052c0,0.938 -1.93,2.282 -2.692,1.875c-1.058,-0.567 -1.235,-0.48 -0.773,0.383c0.227,0.423 0.756,0.77 1.176,0.77c0.635,0 0.72,0.173 0.506,1.025c-0.217,0.866 -0.153,0.986 0.409,0.77c0.367,-0.14 0.826,-0.255 1.02,-0.255c0.195,0 0.354,-0.51 0.354,-1.133c0,-1.256 0.497,-1.75 1.409,-1.399c0.487,0.186 0.511,0.341 0.127,0.804c-0.261,0.315 -0.324,0.582 -0.14,0.593c0.185,0.011 4.124,0.002 8.754,-0.02c6.768,-0.032 8.541,0.068 9.047,0.508c0.616,0.535 5.07,2.321 5.249,2.104c0.05,-0.061 0.206,-0.746 0.346,-1.524c0.261,-1.443 -0.336,-2.448 -0.774,-1.305c-0.328,0.854 -0.919,0.746 -0.919,-0.168c0,-0.428 -0.257,-0.77 -0.577,-0.77c-0.318,0 -0.578,-0.174 -0.578,-0.385c0,-0.212 0.163,-0.385 0.362,-0.385c0.2,0 0.47,0.173 0.601,0.385c0.31,0.502 0.962,0.496 0.962,-0.01c0,-0.217 -0.397,-0.545 -0.882,-0.73c-1.027,-0.39 -2.139,-1.57 -1.479,-1.57c0.948,0 5.041,3.835 4.38,4.104c-0.266,0.108 -0.375,0.373 -0.241,0.59c0.155,0.25 0.356,0.21 0.554,-0.109c0.222,-0.36 0.439,-0.18 0.763,0.632c0.249,0.624 0.607,1.436 0.796,1.804c0.47,0.915 0.436,6.736 -0.041,7.031c-0.212,0.131 -0.385,0.704 -0.385,1.274c-0.002,4.999 -7.076,12.413 -25.967,27.215c-0.811,0.635 -1.667,1.335 -1.902,1.556c-0.235,0.22 -2.157,1.779 -4.27,3.465c-2.113,1.685 -4.192,3.353 -4.62,3.708c-0.427,0.354 -4.935,3.96 -10.017,8.014c-22.559,17.994 -26.839,21.834 -29.616,26.572c-10.268,17.52 -3.448,36.344 15.179,41.9l3.273,0.976l50.433,0.138c55.567,0.152 52.332,0.258 54.478,-1.783l1.537,-1.463v-15.688c0,-15.27 -0.021,-15.718 -0.8,-16.812c-1.846,-2.593 0.246,-2.44 -36.337,-2.653l-33.095,-0.192l5.139,-4.042c2.826,-2.224 6.978,-5.477 9.226,-7.231c27.169,-21.195 37.951,-30.953 42.314,-38.294c0.346,-0.582 0.765,-1.059 0.932,-1.059c0.166,0 0.301,-0.185 0.301,-0.412c0,-0.226 0.517,-1.162 1.147,-2.078c1.98,-2.878 4.817,-9.142 6.107,-13.487c2.302,-7.75 2.77,-14.443 1.833,-26.179c-0.101,-1.27 -0.098,-1.963 0.007,-1.54c0.455,1.831 0.541,1.95 0.966,1.337c0.284,-0.41 0.328,-0.175 0.16,0.847c-0.129,0.778 -0.082,1.507 0.102,1.621c0.185,0.114 0.304,0.741 0.266,1.393c-0.1,1.678 0.488,1.829 0.793,0.203c0.268,-1.427 0.574,-1.553 3.344,-1.37c0.814,0.054 1.143,-0.158 1.434,-0.922c0.37,-0.973 0.447,-0.991 4.191,-0.991c3.491,0 3.832,-0.065 4.016,-0.77c0.191,-0.731 0.525,-0.77 6.545,-0.77c6.02,0 6.354,-0.039 6.545,-0.77c0.166,-0.637 0.525,-0.77 2.069,-0.77c1.452,0 1.976,-0.172 2.35,-0.77c0.358,-0.574 0.897,-0.77 2.117,-0.77c1.22,0 1.759,-0.196 2.117,-0.77c0.341,-0.545 0.902,-0.772 1.922,-0.776c1.782,-0.007 2.214,-0.284 2.543,-1.63c0.237,-0.97 0.413,-1.059 2.084,-1.059c1.446,0 1.932,-0.17 2.338,-0.821c0.462,-0.74 0.742,-0.797 2.818,-0.58c3.527,0.369 4.908,-0.796 2.78,-2.346c-0.572,-0.417 -0.945,-1.012 -0.866,-1.384c0.409,-1.936 23.534,22.343 29.089,30.54c16.87,24.896 15.885,58.298 -2.314,78.442c-0.717,0.793 -2.755,3.089 -4.528,5.1c-9.101,10.322 -23.093,23.163 -34.538,31.696c-6.676,4.978 -22.176,15.272 -22.995,15.272c-0.06,0 -1.286,0.716 -2.725,1.59c-14.496,8.807 -41.794,19.674 -60.6,24.125c-0.953,0.226 -2.512,0.594 -3.465,0.819c-0.953,0.225 -3.898,0.831 -6.545,1.348c-22.381,4.373 -32.202,4.409 -45.17,0.169c-18.682,-6.109 -34.598,-21.634 -41.514,-40.496c-8.412,-22.938 -12.29,-38.871 -15.008,-61.664c-1.142,-9.574 -1.277,-37.935 -0.224,-46.969c1.286,-11.032 1.922,-15.201 3.438,-22.521c0.854,-4.129 1.638,-8.158 1.741,-8.954c0.103,-0.795 0.342,-1.541 0.532,-1.658c0.189,-0.118 0.344,-0.799 0.344,-1.515c0,-0.716 0.173,-1.409 0.385,-1.54c0.212,-0.131 0.385,-0.748 0.385,-1.37c0,-0.623 0.173,-1.133 0.385,-1.133c0.212,0 0.385,-0.596 0.385,-1.324c0,-0.729 0.173,-1.432 0.385,-1.563c0.212,-0.131 0.385,-0.586 0.385,-1.011c0,-0.424 0.179,-1.107 0.398,-1.517M157.681,120.22637c0.308,-0.804 0.895,-0.653 0.895,0.23c0,0.424 -0.145,0.77 -0.321,0.77c-0.543,0 -0.792,-0.434 -0.574,-1M156.137,120.32837c0.425,-0.425 0.514,-0.302 0.514,0.705c0,0.53 -0.174,0.963 -0.385,0.963c-0.43,0 -0.528,-1.269 -0.129,-1.668M162.81,124.46337c0,-0.253 -0.279,-0.567 -0.62,-0.698c-0.444,-0.17 -0.557,-0.072 -0.397,0.344c0.153,0.398 -0.017,0.582 -0.535,0.582c-0.417,0 -0.758,0.26 -0.758,0.577c0,0.318 0.312,0.578 0.693,0.578c0.792,0 1.617,-0.706 1.617,-1.383M160.789,124.18637c0.371,-0.097 0.068,-0.176 -0.674,-0.176c-0.741,0 -1.044,0.079 -0.673,0.176c0.37,0.097 0.977,0.097 1.347,0M209.875,124.95637c-0.371,-0.097 -0.067,-0.176 0.674,-0.176c0.741,0 1.044,0.079 0.673,0.176c-0.37,0.097 -0.977,0.097 -1.347,0M217.286,125.06337l-3.08,-0.245l3.446,-0.063c1.895,-0.035 3.281,0.075 3.079,0.244c-0.201,0.17 -1.751,0.199 -3.445,0.064M206.222,125.73337c-0.479,-0.092 -0.178,-0.171 0.669,-0.175c0.847,-0.004 1.239,0.071 0.871,0.167c-0.368,0.097 -1.061,0.1 -1.54,0.008M286.776,126.61637c0,-0.212 -0.607,-0.385 -1.348,-0.385c-0.741,0 -1.347,0.173 -1.347,0.385c0,0.212 0.606,0.385 1.347,0.385c0.741,0 1.348,-0.173 1.348,-0.385M200.135,130.47237c-0.54,-0.004 -1.17,-0.195 -1.4,-0.425c-0.302,-0.301 -0.491,-0.301 -0.678,0c-0.142,0.23 -0.725,0.421 -1.294,0.425c-0.811,0.004 -0.911,0.087 -0.459,0.379c0.318,0.205 1.271,0.373 2.118,0.373c0.847,0 1.799,-0.168 2.117,-0.373c0.456,-0.295 0.371,-0.375 -0.404,-0.379M229.376,134.02737c-0.283,-0.371 -0.564,-0.746 -0.624,-0.834c-0.06,-0.089 -0.109,0.215 -0.109,0.673c0,0.513 0.241,0.834 0.625,0.834c0.534,0 0.55,-0.097 0.108,-0.673" fill="#895d99" fill-rule="evenodd" stroke-width="1"/><path d="M183.985,48.44937c1.086,-0.729 15.573,0.012 17.709,0.906c0.318,0.133 1.703,0.329 3.08,0.435c1.376,0.106 3.282,0.379 4.235,0.607c0.953,0.227 3.465,0.728 5.582,1.113c3.88,0.706 18.974,4.438 20.404,5.045c0.424,0.18 1.377,0.51 2.118,0.734c2.682,0.808 8.347,2.721 11.549,3.899c1.8,0.662 3.706,1.343 4.235,1.513c11.727,3.76 37.02,17.369 51.781,27.859c15.476,11 31.711,25.824 43.708,39.908c8.56,10.05 13.799,18.236 15.764,24.637c0.292,0.953 0.637,1.905 0.767,2.117c0.401,0.657 1.078,2.956 1.755,5.967c0.358,1.588 0.817,3.494 1.022,4.235c0.608,2.207 0.853,15.6 0.359,19.657c-0.481,3.952 -2.428,12.248 -3.111,13.26c-0.143,0.211 -0.503,1.164 -0.798,2.117c-0.845,2.722 -4.836,10.541 -6.05,11.854c-0.264,0.286 -0.481,0.64 -0.481,0.786c0,0.145 -0.39,0.699 -0.866,1.23c-1.025,1.143 -5.078,5.846 -6.449,7.483c-7.04,8.411 -24.503,24.666 -33.502,31.185c-1.16,0.84 -2.195,1.631 -2.301,1.759c-0.106,0.127 -1.839,1.379 -3.85,2.782c-2.012,1.403 -3.831,2.699 -4.042,2.88c-4.498,3.841 -26.084,16.078 -36.189,20.514c-1.059,0.465 -2.791,1.233 -3.85,1.706c-2.078,0.93 -8.899,3.658 -13.859,5.545c-4.391,1.669 -13.037,4.395 -18.672,5.886c-1.588,0.421 -3.494,0.938 -4.235,1.15c-0.741,0.213 -2.127,0.546 -3.08,0.742c-0.953,0.195 -2.425,0.514 -3.272,0.708c-0.847,0.194 -3.446,0.714 -5.775,1.155c-2.329,0.442 -5.101,0.967 -6.16,1.168c-1.059,0.201 -3.138,0.539 -4.62,0.751c-1.482,0.212 -4.151,0.593 -5.931,0.847c-4.476,0.638 -13.742,0.53 -17.745,-0.208c-5.811,-1.071 -6.819,-1.314 -10.465,-2.53c-18.175,-6.063 -34.16,-21.318 -40.935,-39.068c-1.262,-3.306 -1.719,-4.424 -2.158,-5.288c-0.187,-0.368 -0.34,-0.933 -0.34,-1.256c0,-0.324 -0.167,-0.889 -0.371,-1.257c-0.58,-1.048 -3.707,-10.736 -5.062,-15.683c-0.232,-0.847 -0.578,-1.938 -0.767,-2.424c-0.19,-0.487 -0.327,-1.266 -0.305,-1.733c0.022,-0.473 0.29,0.003 0.606,1.077c2.342,7.973 5.309,16.969 8.146,24.706c6.916,18.862 22.832,34.387 41.514,40.496c12.968,4.24 22.789,4.204 45.17,-0.169c2.647,-0.517 5.592,-1.123 6.545,-1.348c0.953,-0.225 2.512,-0.593 3.465,-0.819c18.806,-4.451 46.104,-15.318 60.6,-24.125c1.439,-0.874 2.665,-1.59 2.725,-1.59c0.819,0 16.319,-10.294 22.995,-15.272c11.445,-8.533 25.437,-21.374 34.538,-31.696c1.773,-2.011 3.811,-4.307 4.528,-5.1c18.199,-20.144 19.184,-53.546 2.314,-78.442c-5.555,-8.197 -28.68,-32.476 -29.089,-30.54c-0.079,0.372 0.294,0.967 0.866,1.384c2.128,1.55 0.747,2.715 -2.78,2.346c-2.076,-0.217 -2.356,-0.16 -2.818,0.58c-0.406,0.651 -0.892,0.821 -2.338,0.821c-1.671,0 -1.847,0.089 -2.084,1.059c-0.329,1.346 -0.761,1.623 -2.543,1.63c-1.02,0.004 -1.581,0.231 -1.922,0.776c-0.358,0.574 -0.897,0.77 -2.117,0.77c-1.22,0 -1.759,0.196 -2.117,0.77c-0.374,0.598 -0.898,0.77 -2.35,0.77c-1.544,0 -1.903,0.133 -2.069,0.77c-0.191,0.731 -0.525,0.77 -6.545,0.77c-6.02,0 -6.354,0.039 -6.545,0.77c-0.184,0.705 -0.525,0.77 -4.016,0.77c-3.744,0 -3.821,0.018 -4.191,0.991c-0.291,0.764 -0.62,0.976 -1.434,0.922c-2.77,-0.183 -3.076,-0.057 -3.344,1.37c-0.305,1.626 -0.893,1.475 -0.793,-0.203c0.038,-0.652 -0.081,-1.279 -0.266,-1.393c-0.184,-0.114 -0.231,-0.843 -0.102,-1.621c0.168,-1.022 0.124,-1.257 -0.16,-0.847c-0.425,0.613 -0.511,0.494 -0.966,-1.337c-0.105,-0.423 -0.108,0.27 -0.007,1.54c0.937,11.736 0.469,18.429 -1.833,26.179c-1.29,4.345 -4.127,10.609 -6.107,13.487c-0.63,0.916 -1.147,1.852 -1.147,2.078c0,0.227 -0.135,0.412 -0.301,0.412c-0.167,0 -0.586,0.477 -0.932,1.059c-4.363,7.341 -15.145,17.099 -42.314,38.294c-2.248,1.754 -6.4,5.007 -9.226,7.231l-5.139,4.042l33.095,0.192c36.583,0.213 34.491,0.06 36.337,2.653c0.779,1.094 0.8,1.542 0.8,16.812v15.688l-1.537,1.463c-2.146,2.041 1.089,1.935 -54.478,1.783l-50.433,-0.138l-3.273,-0.976c-18.627,-5.556 -25.447,-24.38 -15.179,-41.9c2.777,-4.738 7.057,-8.578 29.616,-26.572c5.082,-4.054 9.59,-7.66 10.017,-8.014c0.428,-0.355 2.507,-2.023 4.62,-3.708c2.113,-1.686 4.035,-3.245 4.27,-3.465c0.235,-0.221 1.091,-0.921 1.902,-1.556c18.891,-14.802 25.965,-22.216 25.967,-27.215c0,-0.57 0.173,-1.143 0.385,-1.274c0.477,-0.295 0.511,-6.116 0.041,-7.031c-0.189,-0.368 -0.558,-1.189 -0.82,-1.824c-0.262,-0.635 -0.556,-0.937 -0.652,-0.671c-0.096,0.266 -0.352,0.374 -0.568,0.24c-0.249,-0.153 -0.201,-0.368 0.129,-0.584c0.647,-0.423 -3.255,-4.182 -4.341,-4.182c-0.66,0 0.452,1.18 1.479,1.57c0.485,0.185 0.882,0.513 0.882,0.73c0,0.506 -0.652,0.512 -0.962,0.01c-0.131,-0.212 -0.401,-0.385 -0.601,-0.385c-0.199,0 -0.362,0.173 -0.362,0.385c0,0.211 0.26,0.385 0.578,0.385c0.32,0 0.577,0.342 0.577,0.77c0,0.914 0.591,1.022 0.919,0.168c0.438,-1.143 1.035,-0.138 0.774,1.305c-0.14,0.778 -0.296,1.463 -0.346,1.524c-0.179,0.217 -4.633,-1.569 -5.249,-2.104c-0.506,-0.44 -2.279,-0.54 -9.047,-0.508c-4.63,0.022 -8.569,0.031 -8.754,0.02c-0.184,-0.011 -0.133,-0.265 0.115,-0.564c0.324,-0.389 0.332,-0.617 0.029,-0.804c-0.794,-0.49 -1.54,0.156 -1.54,1.336c0,0.641 -0.159,1.167 -0.354,1.167c-0.194,0 -0.653,0.115 -1.02,0.255c-0.562,0.216 -0.626,0.096 -0.409,-0.77c0.214,-0.852 0.129,-1.025 -0.506,-1.025c-0.42,0 -0.949,-0.347 -1.176,-0.77c-0.462,-0.863 -0.285,-0.95 0.773,-0.383c0.762,0.407 2.692,-0.937 2.692,-1.875c0,-0.54 -0.64,-0.575 -0.963,-0.052c-0.13,0.212 -0.609,0.385 -1.062,0.385c-0.883,0 -7.934,2.588 -8.543,3.136c-0.201,0.181 -0.678,0.329 -1.059,0.329c-0.381,0 -0.693,0.173 -0.693,0.385c0,0.211 -0.346,0.385 -0.77,0.385c-0.423,0 -0.77,0.173 -0.77,0.385c0,0.211 -0.262,0.385 -0.582,0.385c-0.321,0 -0.884,0.16 -1.252,0.356c-13.372,7.122 -17.531,7.028 -19.979,-0.453c-0.121,-0.37 -0.374,-0.673 -0.561,-0.673c-0.187,0 -0.34,-0.26 -0.34,-0.578c0,-0.317 -0.131,-0.577 -0.291,-0.577c-0.16,0 -0.535,-0.563 -0.832,-1.252c-0.298,-0.688 -1.03,-1.97 -1.626,-2.848c-0.596,-0.879 -1.583,-2.558 -2.192,-3.732c-0.874,-1.686 -1.209,-2.038 -1.591,-1.675c-0.384,0.364 -0.431,0.285 -0.23,-0.381c0.244,-0.809 -0.696,-2.432 -1.408,-2.432c-0.849,0 0.625,3.851 1.858,4.854c0.402,0.326 0.513,0.483 0.249,0.349c-0.265,-0.134 -0.482,-0.06 -0.482,0.164c0,0.518 -1.415,0.536 -1.732,0.023c-0.131,-0.212 -1.096,-0.385 -2.145,-0.385h-1.908l0.592,-1.416c0.325,-0.778 0.445,-1.514 0.266,-1.636c-0.179,-0.121 -0.447,-0.548 -0.596,-0.949c-0.412,-1.114 -0.904,-0.229 -0.992,1.787c-0.046,1.064 -3.71,0.975 -3.991,-0.096c-0.166,-0.637 -0.525,-0.77 -2.069,-0.77c-1.452,0 -1.976,-0.172 -2.35,-0.77c-0.359,-0.575 -0.897,-0.77 -2.13,-0.77c-1.529,0 -1.677,-0.091 -2.018,-1.251c-0.354,-1.203 -0.453,-1.256 -2.582,-1.367c-1.899,-0.099 -2.214,-0.222 -2.214,-0.866c0,-0.639 -0.272,-0.751 -1.832,-0.751c-1.415,0 -1.942,-0.175 -2.313,-0.77c-0.386,-0.618 -0.898,-0.77 -2.595,-0.77c-1.163,0 -2.114,-0.173 -2.114,-0.385c0,-0.565 -1.535,-0.47 -1.571,0.097c-0.024,0.385 -0.069,0.385 -0.224,0c-0.107,-0.265 -0.44,-0.482 -0.74,-0.482c-0.613,0 -0.776,-2.291 -0.207,-2.906c0.186,-0.201 0.45,-1.059 0.586,-1.906c0.231,-1.43 0.206,-1.487 -0.338,-0.793c-0.322,0.411 -0.586,1.137 -0.586,1.614c0,0.476 -0.173,0.973 -0.385,1.104c-0.212,0.131 -0.385,0.834 -0.385,1.563c0,0.728 -0.173,1.324 -0.385,1.324c-0.212,0 -0.385,0.51 -0.385,1.133c0,0.622 -0.173,1.239 -0.385,1.37c-0.212,0.131 -0.385,0.824 -0.385,1.54c0,0.716 -0.155,1.397 -0.344,1.515c-0.19,0.117 -0.429,0.863 -0.532,1.658c-0.103,0.796 -0.887,4.825 -1.741,8.954c-1.527,7.372 -2.197,11.779 -3.427,22.521c-0.666,5.815 -0.949,33.107 -0.425,41.001c0.147,2.224 0.125,3.591 -0.049,3.039c-1.736,-5.51 -1.069,-38.552 1.1,-54.434c1.361,-9.971 5.027,-27.451 7.064,-33.686c0.104,-0.318 0.588,-1.877 1.076,-3.465c7.647,-24.878 17.817,-38.202 36.354,-47.629c6.229,-3.168 16.396,-6.235 20.789,-6.272c0.635,-0.005 1.415,-0.184 1.733,-0.397M225.948,85.42637c-18.897,-1.407 -39.043,3.613 -59.865,14.919c-9.525,5.172 -11.228,7.278 -9.111,11.271c1.184,2.233 11.978,20.846 13.199,22.761c2.437,3.819 4.169,3.777 12.335,-0.297c8.947,-4.464 17.907,-8.138 22.268,-9.131c15.803,-3.596 26.561,0.316 27.576,10.027c0.915,8.757 -3.555,15.546 -17.567,26.677c-2.435,1.934 -5.745,4.587 -7.357,5.895c-3.524,2.861 -4.169,3.379 -12.277,9.851c-3.494,2.789 -6.612,5.281 -6.93,5.539c-0.317,0.257 -2.136,1.735 -4.042,3.284c-1.906,1.549 -4.071,3.296 -4.812,3.882c-10.002,7.904 -17.891,14.481 -19.789,16.496c-14.005,14.869 -11.616,37.279 4.78,44.847c7.28,3.36 2.994,3.124 59.475,3.278c54.17,0.149 52.059,0.229 54.054,-2.045l1.191,-1.356v-15.136c0,-15.129 0,-15.138 -0.88,-16.445c-1.86,-2.765 0.197,-2.617 -36.56,-2.637c-20.466,-0.012 -33.012,-0.157 -33.012,-0.383c0,-0.2 1.32,-1.369 2.933,-2.598c1.614,-1.229 3.13,-2.41 3.369,-2.623c0.925,-0.826 5.311,-4.344 8.383,-6.725c3.646,-2.827 14.76,-11.615 19.386,-15.328c24.127,-19.37 33.082,-34.389 33.102,-55.518c0.007,-7.581 -0.187,-8.969 -2.18,-15.592c-5.675,-18.862 -23.409,-31.106 -47.669,-32.913M158.576,120.45637c0,-0.423 -0.155,-0.77 -0.344,-0.77c-0.433,0 -0.837,1.001 -0.528,1.31c0.463,0.463 0.872,0.21 0.872,-0.54M156.651,121.03337c0,-1.007 -0.089,-1.13 -0.514,-0.705c-0.399,0.399 -0.301,1.668 0.129,1.668c0.211,0 0.385,-0.433 0.385,-0.963M161.793,124.10937c-0.16,-0.416 -0.047,-0.514 0.397,-0.344c0.734,0.282 0.802,0.975 0.158,1.619c-0.65,0.65 -1.848,0.575 -1.848,-0.116c0,-0.317 0.341,-0.577 0.758,-0.577c0.518,0 0.688,-0.184 0.535,-0.582M159.442,124.18637c-0.371,-0.097 -0.068,-0.176 0.673,-0.176c0.742,0 1.045,0.079 0.674,0.176c-0.37,0.097 -0.977,0.097 -1.347,0M211.222,124.95637c0.371,-0.097 0.068,-0.176 -0.673,-0.176c-0.741,0 -1.045,0.079 -0.674,0.176c0.37,0.097 0.977,0.097 1.347,0M220.731,124.99937c0.202,-0.169 -1.184,-0.279 -3.079,-0.244l-3.446,0.063l3.08,0.245c1.694,0.135 3.244,0.106 3.445,-0.064M207.762,125.72537c0.368,-0.096 -0.024,-0.171 -0.871,-0.167c-0.847,0.004 -1.148,0.083 -0.669,0.175c0.479,0.092 1.172,0.089 1.54,-0.008M284.081,126.61637c0,-0.212 0.606,-0.385 1.347,-0.385c0.741,0 1.348,0.173 1.348,0.385c0,0.212 -0.607,0.385 -1.348,0.385c-0.741,0 -1.347,-0.173 -1.347,-0.385M198.057,130.04737c0.187,-0.301 0.376,-0.301 0.678,0c0.23,0.23 0.86,0.421 1.4,0.425c0.775,0.004 0.86,0.084 0.404,0.379c-0.318,0.205 -1.27,0.373 -2.117,0.373c-0.847,0 -1.8,-0.168 -2.118,-0.373c-0.452,-0.292 -0.352,-0.375 0.459,-0.379c0.569,-0.004 1.152,-0.195 1.294,-0.425M228.643,133.86637c0,-0.458 0.049,-0.762 0.109,-0.673c0.06,0.088 0.341,0.463 0.624,0.834c0.442,0.576 0.426,0.673 -0.108,0.673c-0.384,0 -0.625,-0.321 -0.625,-0.834M116.27,197.37937c0.028,-1.373 0.271,-0.213 0.739,3.539c1.149,9.21 3.227,20.475 5.362,29.066c0.487,1.959 0.489,2.218 0.016,1.925c-0.212,-0.131 -0.385,-0.652 -0.385,-1.159c0,-0.507 -0.161,-1.32 -0.357,-1.806c-1.329,-3.287 -5.459,-27.543 -5.375,-31.565" fill="#895d99" fill-rule="evenodd" stroke-width="1"/><path d="M159.70055,124.70952c-0.94458,0 -1.53226,-0.35689 -1.8979,-0.80098c-5.57494,-1.05123 -11.38402,-2.23156 -16.68464,-4.09171c-3.49653,-1.22705 -6.43019,-4.02475 -10.04008,-4.93607c-0.93567,-0.23621 -4.74428,-0.17179 -5.62737,-0.17123c0,0 -2.5,0 -2.5,-2.5c0,-2.5 2.5,-2.5 2.5,-2.5c1.79787,0.00107 5.20443,-0.08529 6.87262,0.32878c3.00681,0.74633 5.62653,2.78856 8.29125,4.20867c2.36814,1.26206 5.09222,1.66806 7.66051,2.27943c2.43299,0.57917 5.8827,0.72958 7.80988,2.37276c0.33662,-0.98297 1.26866,-1.68964 2.36574,-1.68964c0.95782,0 1.78983,0.53865 2.20964,1.32955l1.22575,2.20635l0.31461,1.4641c0,0 0,2.5 -2.5,2.5z" fill="#895d99" fill-rule="nonzero" stroke-width="0.5"/><path d="M194.46588,130.6447l-0.59904,-0.13579c-0.00477,0.0035 -0.00955,0.00701 -0.01432,0.01051c-0.38273,0.28104 -1.38216,0.45164 -1.13693,0.85825c0.75044,-0.17559 1.30251,-0.42628 1.75029,-0.73297zM199.30445,122.76738c0.52278,0.22735 1.14947,0.36532 1.81775,0.44465c-0.52842,-0.41381 -0.9886,-1.18596 -1.55021,-0.94682c-0.20538,0.08746 -0.26619,0.27244 -0.26754,0.50217zM216.92282,132.15271c-2.70994,-0.47148 -5.43333,-0.84349 -8.22774,-0.98317c-1.0741,-0.05369 -2.4646,0.17488 -3.77405,0.22029c-0.425,1.78353 -2.42103,1.78353 -2.42103,1.78353h-2.86586c-1.55426,1.60794 -3.64218,2.86088 -5.45128,2.97545c-1.54454,0.09782 -3.0434,-0.56428 -4.56511,-0.84642c-0.63147,-1.71943 -2.08,-3.33599 -1.89442,-5.15828c0.2127,-2.08866 3.37019,-3.4438 4.63087,-4.85932c0.47195,-0.52991 0.91348,-1.08621 1.33635,-1.6571c-1.10837,-1.93165 -1.38107,-4.24052 0.05569,-6.33056c2.96811,-4.3177 9.20736,-1.3009 12.66675,0.0489c4.21577,1.64492 8.19569,3.57455 12.12166,5.79725c3.7838,0.02354 7.56529,0.1173 11.34192,0.39194l0.18152,0.09963l0.01452,-0.0617l4.81767,1.13357c1.12955,0.24051 1.97681,1.2439 1.97681,2.44517c0,1.3373 -1.05001,2.42936 -2.37057,2.49671l-3.18314,0.18712l-0.00099,-0.01685c-0.02408,0.00678 -0.04819,0.01347 -0.07233,0.02008c-0.46941,0.12851 -0.9471,0.18508 -1.42899,0.19001c0.09726,0.12241 0.1899,0.24869 0.27759,0.37899c0.95149,1.41397 2.26578,3.47402 1.37224,4.92531c-1.18317,1.9217 -3.89327,2.76372 -6.14894,2.83302c-3.39085,0.10417 -6.14068,-3.34894 -8.38914,-6.01357z" fill="#895d99" fill-rule="nonzero" stroke-width="0.5"/><path d="M329.83333,122.5067c-2.5,0 -2.5,-2.5 -2.5,-2.5l0.20214,-0.0152c-0.32745,-0.77074 -0.70885,-1.49692 -1.11647,-2.20199l-0.67865,0.3878l-0.01218,-0.02132l-0.04852,0.0549c-2.51506,1.24349 -5.41914,4.14123 -8.11239,4.85232c-2.69985,0.71284 -5.7019,0.60036 -8.62946,0.49298c-0.69624,0.31516 -1.4509,0.64092 -2.35162,1.04383c-6.26379,2.80192 -12.26061,6.40269 -19.24228,6.90039c-0.76232,0.05434 -1.5885,0.23773 -2.36774,0.24601c-0.24998,0.10123 -0.48991,0.20203 -0.70927,0.30642c-3.5126,1.67164 -10.94027,0.7238 -12.14259,-3.93435c-1.33533,-5.17347 2.51643,-7.77342 6.92097,-5.96507c0.94589,0.38835 1.4098,1.39138 1.89948,2.36156l2.17399,-0.27175c0.17815,-0.55613 0.54572,-1.02749 1.02679,-1.33817l1.68479,-1.12319c0.12668,-0.33179 0.322,-0.62967 0.5686,-0.87628l2,-2l0.05409,0.05409l0.1287,-0.21968c0.11512,-0.07727 6.34643,-4.27193 6.45635,-4.29739c0.09794,-0.02268 0.1961,-0.0437 0.29447,-0.06317l-0.02021,-0.05557l3.61223,-1.31354c0.28168,-0.10996 0.58819,-0.17031 0.90879,-0.17031c1.38071,0 2.5,1.11929 2.5,2.5c0,0.05269 -0.00163,0.105 -0.00484,0.15688c2.37481,-0.72787 4.08424,-0.89183 7.19651,-1.57313c0.85475,-0.18711 1.74013,-0.74577 2.59596,-1.02116c0.37119,-0.5273 0.94109,-0.90463 1.60083,-1.02313l3.28792,-0.65758l0.09934,0.49669c1.43,-0.57674 2.90626,-1.00494 4.4209,-1.19342c0.18134,-0.02257 0.3628,-0.04449 0.54436,-0.06567c-0.34027,-0.64485 -0.55694,-1.30284 -0.39998,-1.98169c0.44008,-1.90336 1.73955,-4.1769 3.64993,-4.5854c3.28211,-0.70182 9.26565,5.42933 8.54949,8.56538c-0.2991,1.30976 -1.61848,2.02572 -3.29252,2.42203c0.56493,1.02352 1.08724,2.07039 1.54997,3.14208l0.20214,1.9848c0,0 0,2.5 -2.5,2.5zM292.82604,125.41623c-0.46429,0.09914 -0.93003,0.15343 -1.39897,0.1309c-0.55021,0.22726 -1.10138,0.44622 -1.65397,0.65381c0.46144,-0.05905 0.93265,-0.14424 1.41463,-0.27611c0.54741,-0.14977 1.09356,-0.3206 1.63831,-0.5086zM317.61672,117.38486c0.20298,-0.1592 0.40709,-0.32779 0.606,-0.49602c-0.23055,-0.01409 -0.46557,-0.02666 -0.70533,-0.03551c0.04686,0.17503 0.08047,0.35239 0.09933,0.53153z" fill="#895d99" fill-rule="nonzero" stroke-width="0.5"/><path d="M156.79015,114.77223c1.3418,1.18428 2.52273,2.40576 3.65062,3.67761c1.23772,-0.03849 2.05923,1.05686 2.05923,1.05686c1.28912,1.71882 2.57667,3.43882 3.86239,5.16019l1.90538,1.90538c0.45241,0.45241 0.73223,1.07741 0.73223,1.76777c0,1.38071 -1.11929,2.5 -2.5,2.5c-0.46716,0 -0.90439,-0.12813 -1.27847,-0.35117l-0.67177,-0.38387c-0.45199,0.64595 -1.20155,1.06838 -2.04976,1.06838c-0.31262,0 -0.61183,-0.05738 -0.88769,-0.16218c-0.44335,0.69856 -1.22369,1.16218 -2.11231,1.16218c-0.61475,0 -1.17768,-0.22189 -1.61307,-0.58995l-1.98739,-1.65616l0.01094,-0.01312l-0.04137,-0.01265c-1.9288,-1.73317 -6.07894,-4.87305 -6.17016,-7.82766c-0.01049,-0.33968 0.03089,-0.66865 0.11108,-0.98962l-0.06871,-0.01718l0.39461,-1.57846c-0.08809,-0.25551 -0.13593,-0.52977 -0.13593,-0.8152c0,-0.83853 0.41283,-1.58064 1.04634,-2.03417l-0.25754,-0.85847c-0.07928,-0.24372 -0.12213,-0.50387 -0.12213,-0.77403c0,-1.38071 1.11929,-2.5 2.5,-2.5c0.61475,0 1.17768,0.22189 1.61307,0.58995l1.98739,1.65616l-0.00694,0.00833z" fill="#895d99" fill-rule="nonzero" stroke-width="0.5"/><path d="M121.46218,97.5618c0.40472,-1.60128 0.96649,-3.14828 1.7629,-4.59925l1.26544,-3.16359c0.35452,-0.94948 1.26971,-1.62559 2.34282,-1.62559c1.1246,0 2.07576,0.74256 2.38994,1.76412l0.98177,2.94531l-0.06154,0.02051c0.07001,0.18203 0.13081,0.36812 0.1809,0.55893c0.24989,0.95195 0.072,1.93361 -0.17958,2.9162c0.18851,0.51539 0.18851,0.96159 0.18851,0.96159c0,13.00107 -0.24912,25.75546 -1.69299,38.6952l-0.03668,0.08123l0.02269,0.00412l-0.65887,3.62378c-0.19326,1.18845 -1.22442,2.09567 -2.46747,2.09567c-0.85068,0 -1.60213,-0.42489 -2.0537,-1.07402l-1.6473,-2.30622l0.08418,-0.06013c-0.13324,-0.15475 -0.25984,-0.31556 -0.37858,-0.48356c-0.63105,-0.8928 -0.32619,-2.16216 -0.48248,-3.24424c-0.05346,-0.37015 -0.10291,-0.74087 -0.14878,-1.11204c-0.00528,0.02308 -0.01056,0.04615 -0.01584,0.06923c-1.36514,5.9655 -3.0378,11.86506 -3.53761,17.96988l-0.02646,0.04861l0.0206,0.00257l-0.32922,2.63376c-0.13791,1.25027 -1.19778,2.22282 -2.48481,2.22282c-1.18975,0 -2.18539,-0.83109 -2.43804,-1.9444l-0.65398,-2.61593l0.03713,-0.00928c-0.02464,-0.05132 -0.04876,-0.10294 -0.07236,-0.15485c-1.46464,-3.22252 -0.37275,-9.39682 -0.37275,-12.77554c0,-8.862 0.62961,-17.47206 3.81838,-25.85764c1.65725,-4.35809 4.06124,-8.34578 5.67413,-12.68684l0.60368,-2.14233c0,0 0.10227,-0.35793 0.36599,-0.7581zM120.04262,115.60053c0.00254,-0.70239 0.0098,-1.40519 0.0222,-2.1087c-0.19013,0.45384 -0.37399,0.91105 -0.54986,1.37251c-1.98156,5.19925 -3.02479,10.78981 -3.52125,16.31959c-0.05337,0.59451 -0.09145,1.19365 -0.1175,1.79615c0.03593,-0.15543 0.0717,-0.31091 0.10729,-0.46644c1.29149,-5.643 2.62666,-11.29368 4.05912,-16.9131zM125.04336,116.25605c0.00041,-0.01119 0.00083,-0.02239 0.00124,-0.03358c-0.00042,0.00162 -0.00083,0.00324 -0.00125,0.00487c0,0.00957 0.00001,0.01914 0.00001,0.02871z" fill="#895d99" fill-rule="nonzero" stroke-width="0.5"/><path d="M40,180.12937v-192.493h200h200v192.493v192.493h-200h-200v-192.493M198.807,48.75737c-3.505,-0.541 -14.146,-0.762 -14.822,-0.308c-0.318,0.213 -1.098,0.392 -1.733,0.397c-4.393,0.037 -14.56,3.104 -20.789,6.272c-18.537,9.427 -28.707,22.751 -36.354,47.629c-0.488,1.588 -0.972,3.147 -1.076,3.465c-1.484,4.543 -5.107,20.902 -6.308,28.488c-3.428,21.644 -3.719,47.906 -0.772,69.683c0.371,2.738 0.595,4.156 1.585,10.009c0.605,3.577 2.625,13.067 3.08,14.465c0.211,0.65 0.384,1.549 0.384,1.998c0,0.449 0.173,0.923 0.385,1.054c0.212,0.131 0.385,0.653 0.385,1.16c0,0.507 0.155,1.319 0.345,1.806c0.189,0.486 0.535,1.577 0.767,2.424c1.355,4.947 4.482,14.635 5.062,15.683c0.204,0.368 0.371,0.933 0.371,1.257c0,0.323 0.153,0.888 0.34,1.256c0.439,0.864 0.896,1.982 2.158,5.288c6.775,17.75 22.76,33.005 40.935,39.068c3.646,1.216 4.654,1.459 10.465,2.53c4.003,0.738 13.269,0.846 17.745,0.208c1.78,-0.254 4.449,-0.635 5.931,-0.847c1.482,-0.212 3.561,-0.55 4.62,-0.751c1.059,-0.201 3.831,-0.726 6.16,-1.168c2.329,-0.441 4.928,-0.961 5.775,-1.155c0.847,-0.194 2.319,-0.513 3.272,-0.708c0.953,-0.196 2.339,-0.529 3.08,-0.742c0.741,-0.212 2.647,-0.729 4.235,-1.15c5.635,-1.491 14.281,-4.217 18.672,-5.886c4.96,-1.887 11.781,-4.615 13.859,-5.545c1.059,-0.473 2.791,-1.241 3.85,-1.706c2.331,-1.023 12.652,-6.196 15.592,-7.813c7.508,-4.133 18.501,-10.911 20.597,-12.701c0.211,-0.181 2.03,-1.477 4.042,-2.88c2.011,-1.403 3.744,-2.655 3.85,-2.782c0.106,-0.128 1.141,-0.919 2.301,-1.759c8.999,-6.519 26.462,-22.774 33.502,-31.185c1.371,-1.637 5.424,-6.34 6.449,-7.483c0.476,-0.531 0.866,-1.085 0.866,-1.23c0,-0.146 0.217,-0.5 0.481,-0.786c1.214,-1.313 5.205,-9.132 6.05,-11.854c0.295,-0.953 0.655,-1.906 0.798,-2.117c0.683,-1.012 2.63,-9.308 3.111,-13.26c0.494,-4.057 0.249,-17.45 -0.359,-19.657c-0.205,-0.741 -0.664,-2.647 -1.022,-4.235c-0.677,-3.011 -1.354,-5.31 -1.755,-5.967c-0.13,-0.212 -0.475,-1.164 -0.767,-2.117c-1.467,-4.778 -6.437,-13.288 -11.129,-19.057c-6.615,-8.133 -8.815,-10.546 -17.916,-19.652c-15.692,-15.701 -30.341,-26.936 -49.75,-38.158c-8.761,-5.065 -26.945,-13.77 -32.458,-15.537c-0.529,-0.17 -2.435,-0.851 -4.235,-1.513c-3.202,-1.178 -8.867,-3.091 -11.549,-3.899c-0.741,-0.224 -1.694,-0.554 -2.118,-0.734c-1.43,-0.607 -16.524,-4.339 -20.404,-5.045c-2.117,-0.385 -4.629,-0.886 -5.582,-1.113c-0.953,-0.228 -2.859,-0.501 -4.235,-0.607c-1.377,-0.106 -2.762,-0.302 -3.08,-0.435c-0.318,-0.133 -1.617,-0.402 -2.887,-0.598M212.666,85.44437c30.513,-2.317 54.203,10.468 60.951,32.895c1.993,6.623 2.187,8.011 2.18,15.592c-0.02,21.129 -8.975,36.148 -33.102,55.518c-4.626,3.713 -15.74,12.501 -19.386,15.328c-3.072,2.381 -7.458,5.899 -8.383,6.725c-0.239,0.213 -1.755,1.394 -3.369,2.623c-1.613,1.229 -2.933,2.398 -2.933,2.598c0,0.226 12.546,0.371 33.012,0.383c36.757,0.02 34.7,-0.128 36.56,2.637c0.88,1.307 0.88,1.316 0.88,16.445v15.136l-1.191,1.356c-1.995,2.274 0.116,2.194 -54.054,2.045c-56.481,-0.154 -52.195,0.082 -59.475,-3.278c-16.396,-7.568 -18.785,-29.978 -4.78,-44.847c1.898,-2.015 9.787,-8.592 19.789,-16.496c0.741,-0.586 2.906,-2.333 4.812,-3.882c1.906,-1.549 3.725,-3.027 4.042,-3.284c0.318,-0.258 3.436,-2.75 6.93,-5.539c8.108,-6.472 8.753,-6.99 12.277,-9.851c1.612,-1.308 4.922,-3.961 7.357,-5.895c14.012,-11.131 18.482,-17.92 17.567,-26.677c-1.015,-9.711 -11.773,-13.623 -27.576,-10.027c-4.361,0.993 -13.321,4.667 -22.268,9.131c-8.166,4.074 -9.898,4.116 -12.335,0.297c-1.221,-1.915 -12.015,-20.528 -13.199,-22.761c-2.117,-3.993 -0.414,-6.099 9.111,-11.271c15.682,-8.515 32.242,-13.812 46.583,-14.901" fill="#fbfbfb" fill-rule="evenodd" stroke-width="1"/></g></g></svg>