<svg xmlns="http://www.w3.org/2000/svg" width="400" height="385"><g stroke-miterlimit="10" data-paper-data="{&quot;isPaintingLayer&quot;:true}" style="mix-blend-mode:normal"><path fill="#895d99" fill-rule="evenodd" d="m85 118.5.7-.7c.3 0-.3 2.8-.7 3.3-.6.6-.4 2.9.3 2.9.3 0 .6.2.6.4 0 .4 0 .4.2 0 .2-.5 1.7-.6 1.7 0 0 .2 1 .3 2 .3 1.8 0 2.3.2 2.7.8.4.6.9.8 2.3.8 1.6 0 1.8 0 1.8.7s.3.8 2.2.9c2.2.1 2.3.2 2.6 1.4.4 1.1.5 1.2 2 1.2 1.3 0 1.8.2 2.2.8.3.6.9.8 2.3.8 1.6 0 2 0 2 .7.4 1 4 1.2 4 .1.2-2 .7-2.9 1-1.8.2.4.5.9.7 1 .2.1 0 .8-.3 1.6l-.6 1.4h2c1 0 2 .2 2 .4.4.5 1.8.5 1.8 0 0-.2.2-.3.5-.2l-.3-.3c-1.2-1-2.7-4.9-1.8-4.9.7 0 1.6 1.6 1.4 2.5-.2.6-.2.7.2.3.4-.3.7 0 1.6 1.7.6 1.2 1.6 2.9 2.2 3.7l1.6 2.9c.3.7.7 1.2.9 1.2l.2.6c0 .3.2.6.4.6s.4.3.5.7c2.5 7.5 6.7 7.5 20 .4.4-.2 1-.3 1.3-.3.3 0 .6-.2.6-.4s.3-.4.7-.4c.5 0 .8-.2.8-.4s.3-.4.7-.4a45.5 45.5 0 0 1 10.7-3.8c.3-.5 1-.5 1 0 0 1-2 2.3-2.8 2-1-.7-1.2-.6-.7.3.2.4.7.8 1.1.8.7 0 .8.1.5 1-.2.9-.1 1 .4.8l1-.3c.3 0 .4-.5.4-1.1 0-1.3.5-1.8 1.4-1.4.5.2.5.3.2.8-.3.3-.4.6-.2.6h8.8c6.7 0 8.5 0 9 .5.6.5 5 2.3 5.3 2l.3-1.5c.3-1.4-.3-2.4-.8-1.3-.3.9-.9.8-.9-.1 0-.5-.2-.8-.6-.8-.3 0-.5-.2-.5-.4s.1-.4.3-.4c.2 0 .5.2.6.4.3.5 1 .5 1 0 0-.2-.4-.5-.9-.7-1-.4-2.1-1.6-1.5-1.6 1 0 5 3.8 4.4 4.1-.3.1-.4.4-.2.6.1.2.3.2.5-.1.2-.4.5-.2.8.6l.8 1.8c.4 1 .4 6.8 0 7-.3.2-.4.8-.4 1.3 0 5-7.1 12.4-26 27.2l-2 1.6a200.4 200.4 0 0 1-8.8 7.2l-10 8c-22.6 18-26.9 21.8-29.6 26.6-10.3 17.5-3.5 36.3 15.1 41.9l3.3 1h50.4c55.6.2 52.4.3 54.5-1.7l1.6-1.5v-15.7c0-15.2 0-15.7-.8-16.8-1.9-2.6.2-2.4-36.4-2.6l-33-.2 5-4 9.3-7.3c27.2-21.2 38-31 42.3-38.3.4-.6.8-1 1-1 .1 0 .2-.2.2-.5a59.3 59.3 0 0 0 7.3-15.6 65.3 65.3 0 0 0 1.8-27.6c.5 1.8.6 1.9 1 1.3.3-.4.3-.2.2.8-.2.8-.1 1.5 0 1.7.2 0 .4.7.3 1.4 0 1.6.5 1.8.8.2.3-1.5.6-1.6 3.4-1.4.8 0 1.1-.2 1.4-1 .4-1 .4-1 4.2-1 3.5 0 3.8 0 4-.7.2-.7.5-.8 6.6-.8 6 0 6.3 0 6.5-.7.2-.7.5-.8 2-.8s2-.2 2.4-.8c.4-.6 1-.7 2.1-.7 1.3 0 1.8-.2 2.1-.8.4-.6 1-.8 2-.8 1.8 0 2.2-.3 2.5-1.6.3-1 .4-1 2.1-1 1.4 0 2-.3 2.3-1 .5-.6.8-.7 2.9-.5 3.5.4 4.9-.8 2.7-2.3-.5-.4-1-1-.8-1.4.4-2 23.5 22.3 29 30.5 17 25 16 58.3-2.3 78.5l-4.5 5a252.9 252.9 0 0 1-57.5 47l-2.7 1.6a252.3 252.3 0 0 1-60.6 24.1l-3.5.9-6.6 1.3c-22.3 4.4-32.2 4.4-45.1.2a67.9 67.9 0 0 1-41.5-40.5c-8.4-23-12.3-38.9-15-61.7-1.2-9.5-1.3-38-.3-47 1.3-11 2-15.1 3.5-22.5a252.9 252.9 0 0 0 2.2-10.6c.2 0 .4-.8.4-1.5s.2-1.4.4-1.5c.2-.2.4-.8.4-1.4 0-.6.1-1.1.3-1.1.3 0 .4-.6.4-1.4 0-.7.2-1.4.4-1.5.2-.2.4-.6.4-1 0-.5.2-1.1.4-1.5m32.6 14c.3-.8.9-.7.9.2 0 .4-.2.8-.3.8-.6 0-.8-.4-.6-1m-1.6 0c.5-.3.6-.2.6.8 0 .5-.2 1-.4 1-.5 0-.6-1.3-.2-1.7m6.7 4.1c0-.2-.3-.5-.6-.7-.5-.1-.6 0-.4.4.1.4 0 .6-.5.6s-.8.2-.8.5.3.6.7.6c.8 0 1.6-.7 1.6-1.4m-2-.3-.7-.1c-.7 0-1 0-.7.2h1.4m49 .7c-.3 0 0-.2.7-.2.8 0 1 .1.7.2H170m7.4.1-3-.2h3.4c1.8-.1 3.2 0 3 .2-.2.1-1.7.2-3.4 0m-11 .7c-.6-.1-.3-.2.6-.2.8 0 1.2 0 .9.2h-1.6m80.6.9c0-.2-.6-.4-1.4-.4-.7 0-1.3.2-1.3.4s.6.4 1.3.4c.8 0 1.4-.2 1.4-.4m-86.7 3.8c-.5 0-1.1-.2-1.4-.4-.3-.3-.5-.3-.6 0-.2.2-.8.4-1.3.4-.8 0-1 .1-.5.4.3.2 1.3.4 2.1.4.9 0 1.8-.2 2.1-.4.5-.3.4-.4-.4-.4m29.3 3.6-.6-.8c-.1-.1-.2.2-.2.6 0 .5.3.9.7.9.5 0 .5-.1 0-.7"/><path fill="#895d99" fill-rule="evenodd" d="M144 60.8a67 67 0 0 1 20.8 1.4c1.4 0 3.3.3 4.2.6l5.6 1a297.2 297.2 0 0 1 22.5 5.9A268.5 268.5 0 0 1 213 75c11.7 3.7 37 17.3 51.8 27.8 15.5 11 31.7 25.8 43.7 40a77.9 77.9 0 0 1 18.3 32.7l1 4.2c.6 2.2.8 15.6.4 19.6a69.7 69.7 0 0 1-10 27.3c-.3.3-.5.6-.5.8l-.9 1.2-6.4 7.5a257.3 257.3 0 0 1-43.7 38.6 254.9 254.9 0 0 1-53.9 27.7 234.6 234.6 0 0 1-35 9.7l-6.2 1.2A127.5 127.5 0 0 1 161 315c-4.5.6-13.8.5-17.8-.3a68.4 68.4 0 0 1-51.4-41.6 60 60 0 0 0-2.5-6.5 190.5 190.5 0 0 1-6.5-21.1c0-.5.3 0 .6 1 2.4 8 5.3 17 8.2 24.8a67.9 67.9 0 0 0 41.5 40.5c13 4.2 22.8 4.2 45.1-.2l6.6-1.3 3.5-.9a252.3 252.3 0 0 0 63.3-25.7c.8 0 16.3-10.3 23-15.2a252.9 252.9 0 0 0 39-36.8c18.2-20.2 19.2-53.6 2.4-78.5-5.6-8.2-28.7-32.5-29.1-30.5-.1.4.3 1 .8 1.4 2.2 1.5.8 2.7-2.7 2.3-2.1-.2-2.4-.1-2.9.6-.4.6-.9.8-2.3.8-1.7 0-1.8.1-2 1-.4 1.4-.8 1.7-2.6 1.7-1 0-1.6.2-2 .8-.3.6-.8.7-2 .7-1.3 0-1.8.2-2.2.8-.4.6-.9.8-2.3.8-1.6 0-2 .1-2.1.8-.2.7-.5.7-6.5.7s-6.4 0-6.6.8c-.2.7-.5.8-4 .8-3.8 0-3.8 0-4.2 1-.3.7-.6 1-1.4.9-2.8-.2-3.1 0-3.4 1.4-.3 1.6-.9 1.4-.8-.2 0-.7 0-1.3-.2-1.4-.2-.2-.3-.9-.1-1.7.1-1 0-1.2-.2-.8-.4.6-.5.5-1-1.3v1.5c1 11.7.5 18.4-1.8 26.2a59.3 59.3 0 0 1-8.5 17c-4.4 7.3-15.1 17.1-42.3 38.3l-9.2 7.2-5.2 4 33.1.3c36.6.2 34.5 0 36.4 2.6.7 1.1.8 1.6.8 16.8v15.7l-1.6 1.5c-2.1 2 1.1 2-54.5 1.8l-50.4-.2-3.3-1c-18.6-5.5-25.4-24.3-15.1-41.8 2.7-4.8 7-8.6 29.6-26.6A2553.5 2553.5 0 0 0 165 181c18.9-14.8 26-22.2 26-27.2 0-.5.1-1.1.3-1.3.5-.2.5-6 0-7l-.7-1.8c-.3-.6-.6-1-.7-.7 0 .3-.3.4-.6.3-.2-.2-.2-.4.2-.6.6-.4-3.3-4.2-4.4-4.2-.6 0 .5 1.2 1.5 1.6.5.2.9.5.9.7 0 .5-.7.5-1 0-.1-.2-.4-.4-.6-.4-.2 0-.3.2-.3.4s.2.4.5.4c.4 0 .6.3.6.8 0 .9.6 1 1 .1.4-1.1 1-.1.7 1.3l-.3 1.6c-.2.2-4.7-1.6-5.3-2.1-.5-.5-2.3-.6-9-.6H165c-.2 0-.1-.2.1-.5.4-.4.4-.6 0-.8-.7-.5-1.5.2-1.5 1.3 0 .7-.1 1.2-.3 1.2-.2 0-.7.1-1 .3-.6.2-.7 0-.5-.8.3-.9.2-1-.5-1-.4 0-1-.4-1.1-.8-.5-.9-.3-1 .7-.4.8.4 2.7-1 2.7-1.9 0-.5-.6-.5-1 0a45.5 45.5 0 0 0-10.7 3.8c-.3 0-.6.2-.6.4s-.3.4-.8.4c-.4 0-.7.2-.7.4s-.3.4-.6.4-1 .1-1.3.3c-13.3 7.1-17.5 7-20-.4 0-.4-.3-.7-.5-.7s-.4-.3-.4-.6 0-.6-.2-.6-.6-.5-.9-1.2l-1.6-2.9c-.6-.8-1.6-2.5-2.2-3.7-.9-1.7-1.2-2-1.6-1.7-.4.4-.4.3-.2-.3.2-.9-.7-2.5-1.4-2.5-.9 0 .6 3.9 1.8 4.9l.3.3c-.3-.1-.5 0-.5.2 0 .5-1.4.5-1.7 0-.2-.2-1.1-.4-2.2-.4h-1.9l.6-1.4c.3-.8.5-1.5.3-1.6-.2-.1-.5-.6-.6-1-.4-1-1-.2-1 1.8 0 1-3.7 1-4 0-.2-.7-.5-.9-2-.9s-2-.1-2.4-.7c-.4-.6-1-.8-2.2-.8-1.5 0-1.6 0-2-1.2-.3-1.2-.4-1.3-2.6-1.4-1.9-.1-2.2-.2-2.2-.9 0-.6-.2-.7-1.8-.7-1.4 0-2-.2-2.3-.8-.4-.6-1-.8-2.6-.8-1.2 0-2.1-.1-2.1-.4 0-.5-1.6-.4-1.6.1 0 .4 0 .4-.2 0a.9.9 0 0 0-.8-.4c-.6 0-.7-2.3-.2-3 .2-.1.5-1 .6-1.8.3-1.5.2-1.5-.3-.8a3 3 0 0 0-.6 1.6c0 .4-.2 1-.4 1-.2.2-.4 1-.4 1.6 0 .8-.1 1.4-.4 1.4-.2 0-.3.5-.3 1.1 0 .6-.2 1.2-.4 1.4-.2.1-.4.8-.4 1.5s-.2 1.4-.4 1.5a252.9 252.9 0 0 1-2.3 10.6c-1.5 7.4-2.1 11.8-3.4 22.6a462.2 462.2 0 0 0-.4 44c-1.8-5.5-1.1-38.6 1-54.4a275.1 275.1 0 0 1 8.2-37.2C92.8 90.2 103 77 121.5 67.5a63.6 63.6 0 0 1 22.5-6.7m42 37c-19-1.4-39 3.6-60 15-9.4 5-11.1 7.2-9 11.2l13.2 22.7c2.4 3.9 4.1 3.8 12.3-.3 9-4.4 18-8 22.3-9 15.8-3.7 26.5.2 27.5 10 1 8.7-3.5 15.5-17.5 26.6a1127.2 1127.2 0 0 0-19.7 15.8 3945.8 3945.8 0 0 0-15.7 12.7c-10 7.9-18 14.4-19.8 16.5-14 14.8-11.6 37.2 4.8 44.8 7.2 3.4 3 3.1 59.4 3.3 54.2.1 52 .2 54-2l1.3-1.4v-15.1c0-15.2 0-15.2-.9-16.5-1.9-2.8.2-2.6-36.6-2.6-20.4 0-33-.2-33-.4a15 15 0 0 1 3-2.6l3.3-2.6 8.4-6.8 19.4-15.3c24.1-19.4 33-34.4 33.1-55.5 0-7.6-.2-9-2.2-15.6-5.7-18.9-23.4-31.1-47.7-33m-67.3 35.1c0-.4-.2-.8-.4-.8-.4 0-.8 1-.5 1.4.5.4.9.2.9-.6m-2 .6c0-1 0-1.1-.5-.7-.4.4-.3 1.7.2 1.7.2 0 .4-.5.4-1m5 3c0-.3 0-.4.5-.3.7.3.8 1 .1 1.6-.6.7-1.8.6-1.8 0 0-.4.3-.6.8-.6s.6-.2.5-.6m-2.4 0 .7-.1c.8 0 1 0 .7.2h-1.4m51.8.7c.4 0 0-.2-.7-.2s-1 .1-.6.2h1.3m9.5 0c.2-.1-1.2-.2-3-.2h-3.5l3 .3c1.8.2 3.3.1 3.5 0m-13 .7c.4-.1 0-.2-.8-.2-.9 0-1.2.1-.7.2h1.6m76.3.9c0-.2.6-.4 1.3-.4.8 0 1.4.2 1.4.4s-.6.4-1.4.4c-.7 0-1.3-.2-1.3-.4m-86 3.4c.1-.3.3-.3.6 0 .3.2.9.4 1.4.4.8 0 .9.1.4.4-.3.2-1.2.4-2 .4-1 0-1.9-.2-2.2-.4-.4-.3-.3-.4.5-.4.5 0 1.1-.2 1.3-.4m30.5 3.8c0-.4 0-.7.2-.6l.6.8c.4.6.4.7-.1.7-.4 0-.7-.4-.7-.9M76.3 209.7c0-1.3.2-.2.7 3.6 1.2 9.2 3.2 20.5 5.4 29 .5 2 .5 2.3 0 2-.2-.2-.4-.7-.4-1.2s-.2-1.3-.4-1.8c-1.3-3.3-5.4-27.5-5.3-31.6"/><path fill="#895d99" d="M119.7 137c-1 0-1.5-.3-1.9-.7-5.6-1-11.4-2.3-16.7-4.1-3.5-1.2-6.4-4-10-5-1-.2-4.8-.1-5.6-.1 0 0-2.5 0-2.5-2.5s2.5-2.5 2.5-2.5c1.7 0 5.2-.1 6.8.3 3 .7 5.6 2.8 8.3 4.2 2.4 1.3 5.1 1.7 7.7 2.3 2.4.6 5.9.7 7.8 2.4a2.5 2.5 0 0 1 4.6-.4l1.2 2.2.3 1.5s0 2.5-2.5 2.5zM154.5 143l-.6-.1c-.4.3-1.4.4-1.2.8a5 5 0 0 0 1.8-.7zm4.8-7.9c.5.3 1.2.4 1.8.5-.5-.4-1-1.2-1.5-1-.2.1-.3.3-.3.5zm17.6 9.4c-2.7-.5-5.4-.8-8.2-1l-3.8.3c-.4 1.7-2.4 1.7-2.4 1.7h-2.9a9.2 9.2 0 0 1-5.4 3c-1.6.1-3-.6-4.6-.8-.6-1.8-2-3.4-1.9-5.2.2-2 3.4-3.4 4.7-4.9l1.3-1.6c-1.1-2-1.4-4.2 0-6.3 3-4.4 9.3-1.3 12.7 0 4.2 1.7 8.2 3.6 12.1 5.8 3.8 0 7.6.1 11.4.4l.2.1 4.8 1a2.5 2.5 0 0 1-.4 5l-3.2.2-1.5.2.3.4c1 1.4 2.3 3.4 1.4 4.9-1.2 2-4 2.8-6.2 2.8-3.4.1-6.1-3.3-8.4-6zM289.8 134.9c-2.5 0-2.5-2.5-2.5-2.5h.2a20 20 0 0 0-1-2.2l-.8.3c-2.5 1.3-5.4 4.2-8.1 5-2.7.6-5.7.5-8.7.4l-2.3 1c-6.3 2.9-12.3 6.5-19.3 7l-2.3.2-.7.3c-3.5 1.7-11 .7-12.2-4-1.3-5 2.5-7.7 7-5.9.9.4 1.4 1.4 1.8 2.4l2.2-.3c.2-.5.6-1 1-1.3l1.7-1.2.6-.8 2-2 .2-.2 6.4-4.3h.3v-.1l3.6-1.3a2.5 2.5 0 0 1 3.4 2.5c2.4-.8 4.1-1 7.2-1.6.9-.2 1.8-.8 2.6-1 .4-.6 1-1 1.6-1l3.3-.7.1.5a17.7 17.7 0 0 1 5-1.3c-.4-.6-.6-1.3-.4-2 .4-1.9 1.7-4.1 3.6-4.5 3.3-.7 9.3 5.4 8.6 8.5-.3 1.3-1.6 2-3.3 2.4l1.5 3.2.2 2s0 2.5-2.5 2.5zm-37 2.9-1.4.1-1.6.7 1.4-.3 1.6-.5zm24.8-8 .6-.5h-.7l.1.4z"/><path fill="#895d99" d="M116.8 127.1a42 42 0 0 1 3.6 3.7c1.3 0 2.1 1 2.1 1l3.9 5.2 1.9 2a2.5 2.5 0 0 1-1.8 4.2c-.5 0-.9-.1-1.3-.3l-.7-.4a2.5 2.5 0 0 1-2.9.9 2.5 2.5 0 0 1-3.7.5l-2-1.6c-2-1.8-6.1-5-6.2-7.9l.1-1 .3-1.5a2.5 2.5 0 0 1 1-2.9l-.3-.9a2.5 2.5 0 0 1 4-2.6l2 1.6zM81.5 110c.4-1.7 1-3.2 1.7-4.7l1.3-3.1a2.5 2.5 0 0 1 4.7.1l1 3 .1.5c.3 1 .1 2-.2 3l.2.9c0 13-.2 25.8-1.7 38.7l-.6 3.7a2.5 2.5 0 0 1-4.6 1l-1.6-2.3c0-.2-.2-.4-.3-.5-.6-1-.3-2.2-.5-3.3l-.1-1c-1.4 6-3 11.9-3.6 18l-.3 2.6a2.5 2.5 0 0 1-5 .3l-.6-2.6v-.2c-1.5-3.2-.4-9.4-.4-12.7 0-8.9.6-17.5 3.8-25.9 1.7-4.3 4-8.3 5.7-12.7l.6-2.1.4-.8zM80 128v-2.1l-.5 1.3A61.4 61.4 0 0 0 76 145l4-17zm5 .6z"/><path fill="#fbfbfb" fill-rule="evenodd" d="M0 192.5V0h400v385H0V192.5M158.8 61c-3.5-.5-14.1-.7-14.8-.3a63.6 63.6 0 0 0-22.5 6.7C102.9 76.9 92.8 90.2 85 115l-1 3.5c-1.6 4.5-5.2 20.9-6.4 28.5a255 255 0 0 0 .8 79.7A234.6 234.6 0 0 0 91.8 273a68.4 68.4 0 0 0 51.4 41.6 76.2 76.2 0 0 0 23.7-.6l4.6-.7 6.2-1.2a230 230 0 0 0 35-9.7 398.5 398.5 0 0 0 17.7-7.2 223.3 223.3 0 0 0 46.4-28 257.3 257.3 0 0 0 40.8-39.8 60.9 60.9 0 0 0 7.3-14.8c.7-1 2.7-9.3 3.2-13.3.4-4 .2-17.4-.4-19.6l-1-4.2c-.7-3-1.4-5.4-1.8-6l-.7-2.1a71 71 0 0 0-11.2-19c-6.6-8.2-8.8-10.6-17.9-19.7a226.4 226.4 0 0 0-49.7-38.2 272.6 272.6 0 0 0-36.7-17 268.5 268.5 0 0 0-34.1-9.7 145 145 0 0 1-5.6-1.1c-1-.3-2.8-.5-4.2-.6-1.4-.2-2.8-.3-3.1-.5l-2.9-.6m13.9 36.7c30.5-2.3 54.2 10.5 61 32.9 2 6.6 2.1 8 2.1 15.6 0 21.1-9 36.1-33.1 55.5a2331.5 2331.5 0 0 1-31.1 24.7 15 15 0 0 0-3 2.6c0 .2 12.6.4 33 .4 36.8 0 34.7-.2 36.6 2.6.9 1.3.9 1.3.9 16.5v15l-1.2 1.4c-2 2.3.1 2.2-54 2-56.6 0-52.3.2-59.5-3.2-16.4-7.6-18.8-30-4.8-44.8a304.4 304.4 0 0 1 24.6-20.4 10779.4 10779.4 0 0 1 30.6-24.6c14-11.1 18.5-17.9 17.6-26.7-1-9.7-11.8-13.6-27.6-10-4.4 1-13.3 4.7-22.3 9.1-8.2 4.1-9.9 4.2-12.3.3L117 124c-2.1-4-.4-6.1 9-11.3a120.5 120.5 0 0 1 46.7-14.9"/></g></svg>