<svg version="1.1" xmlns="http://www.w3.org/2000/svg" xmlns:xlink="http://www.w3.org/1999/xlink" width="240.59911" height="258.25826" viewBox="0,0,240.59911,258.25826"><g transform="translate(-119.70046,-44.11411)"><g data-paper-data="{&quot;isPaintingLayer&quot;:true}" stroke="none" stroke-linecap="butt" stroke-linejoin="miter" stroke-miterlimit="10" stroke-dasharray="" stroke-dashoffset="0" style="mix-blend-mode: normal"><path d="M188.23813,84.7006c0.62111,-0.28063 1.34264,-0.35844 2.35809,-0.25469c0.80465,0.08246 5.47295,0.20083 10.374,0.26268c10.13792,0.12968 14.97114,0.33117 16.891,0.7049c0.7315,0.14298 3.0058,0.3724 5.054,0.51005c2.0482,0.13765 4.6816,0.36043 5.852,0.49476c1.1704,0.13433 3.66016,0.2527 5.5328,0.26334c2.34346,0.01264 3.62824,0.13366 4.123,0.38703c0.39501,0.20216 1.85535,0.44954 3.2452,0.54995c1.38985,0.10041 2.8861,0.28661 3.325,0.41363c0.4389,0.12768 2.29425,0.36176 4.123,0.5207c1.82875,0.1596 4.10305,0.52003 5.054,0.80266c2.21046,0.65569 7.9135,1.62393 11.172,1.89592c4.49008,0.37506 6.22706,0.67298 7.448,1.27613c0.66234,0.32652 2.0881,0.6916 3.192,0.81529c1.09725,0.12369 2.5935,0.41363 3.325,0.64505c0.7315,0.23142 1.9285,0.4256 2.66,0.43158c0.74081,0.00665 1.55876,0.18487 1.84604,0.40233c0.30989,0.23408 1.10589,0.39035 1.98636,0.39035c1.2921,0 2.59217,0.31721 4.4136,1.07597c1.93116,0.80465 5.64518,1.91653 7.448,2.22974c2.35211,0.40831 6.0003,1.33465 6.71983,1.70573c0.25403,0.13101 0.94097,0.32519 1.52617,0.43092c0.5852,0.10573 1.70772,0.49609 2.49442,0.86782c1.23225,0.58254 1.66383,0.65436 3.11819,0.5187c1.32402,-0.12369 1.73499,-0.07382 1.90522,0.23075c0.30656,0.54796 2.17056,1.45236 2.99316,1.45236c0.37972,0 1.28212,0.37573 2.00564,0.83524c1.65319,1.04937 3.16207,1.69575 4.4269,1.89658c0.54131,0.08579 1.43707,0.46417 1.99035,0.83989c0.55394,0.37639 1.27946,0.68429 1.61262,0.68429c0.33317,0 1.60199,0.53865 2.8196,1.197c1.21762,0.65835 2.36075,1.197 2.54163,1.197c0.18021,0 0.98154,0.29925 1.78087,0.665c0.79999,0.36575 1.54014,0.66567 1.64588,0.66633c0.10507,0.00066 0.7448,0.28129 1.4211,0.62443c0.67631,0.34314 1.60598,0.69958 2.06616,0.79135c0.46018,0.09243 1.76225,0.91836 2.89342,1.8354c1.96641,1.59467 3.42541,2.45851 5.318,3.14811c0.47681,0.17423 1.85335,1.14513 3.059,2.15792c1.20565,1.0128 2.67064,2.08743 3.25584,2.38801c1.18436,0.60781 1.8374,1.29609 2.36009,2.48644c0.19285,0.4389 0.83989,1.32335 1.43839,1.96441c0.5985,0.64173 1.20631,1.47962 1.35062,1.862c2.07547,5.49223 1.995,5.09723 1.80548,8.83386c-0.11106,2.18918 -0.30922,3.67146 -0.54065,4.0432c-0.20083,0.32253 -0.43158,1.19367 -0.51205,1.93581c-0.08047,0.74281 -0.35445,1.82011 -0.60847,2.394c-0.25403,0.57456 -0.68096,1.53149 -0.94896,2.126c-0.26799,0.59518 -0.48744,1.5009 -0.48744,2.01362c0,0.67231 -0.24871,1.22427 -0.8911,1.97771c-0.96092,1.12717 -4.06581,7.00378 -4.27728,8.09438c-0.07115,0.36575 -0.66567,1.44305 -1.32269,2.394c-0.65635,0.95095 -1.86399,2.71386 -2.68394,3.91752c-0.81995,1.20365 -1.69642,2.3408 -1.94845,2.527c-0.66766,0.49343 -3.09425,3.91685 -3.49723,4.93364c-0.19019,0.47947 -0.6803,1.10988 -1.08861,1.40115c-1.05003,0.74746 -3.37089,3.73265 -3.59433,4.62308c-0.10906,0.43558 -0.54131,0.9556 -1.03607,1.24754c-0.46749,0.27531 -1.25618,1.06999 -1.75427,1.76491c-0.49742,0.69559 -1.83473,2.30356 -2.97122,3.57304c-1.13648,1.27015 -2.06682,2.4871 -2.06682,2.70389c0,0.43292 -2.13399,2.41727 -3.192,2.96789c-0.36575,0.19019 -1.07331,0.89243 -1.57206,1.56009c-0.49875,0.667 -1.96507,2.18386 -3.2585,3.37022c-1.29343,1.1857 -2.35144,2.3275 -2.35144,2.53631c0,0.20881 -0.13101,0.37972 -0.29127,0.37972c-0.16026,0 -1.80614,1.46832 -3.6575,3.26382c-6.20046,6.0116 -8.88374,8.48141 -14.80091,13.62718c-1.00947,0.8778 -2.1413,1.86466 -2.51503,2.19317c-1.13582,0.99817 -4.86248,4.08443 -7.22655,5.98567c-4.74145,3.81244 -6.63936,5.28675 -11.00974,8.55256c-2.4871,1.85868 -5.17503,3.97205 -5.97303,4.69557c-0.798,0.72419 -1.64787,1.31603 -1.8886,1.31603c-0.24073,0 -0.92568,0.35378 -1.52219,0.78603c-2.82359,2.04554 -11.68738,7.94941 -13.03866,8.6849c-0.83457,0.4542 -1.81877,1.12252 -2.18718,1.48494c-0.36775,0.36242 -0.98287,0.73815 -1.36658,0.83458c-0.38304,0.09576 -1.33532,0.65436 -2.11603,1.24089c-0.78071,0.58653 -1.56608,1.06666 -1.74496,1.06666c-0.17889,0 -1.02011,0.40565 -1.86932,0.90107c-2.56025,1.49426 -5.86663,3.27247 -9.66977,5.20163c-1.98237,1.00482 -3.76257,2.01828 -3.95609,2.25169c-0.19351,0.23275 -0.55993,0.42361 -0.81396,0.42361c-0.25403,0 -1.52617,0.49343 -2.82691,1.09659c-1.30074,0.60316 -3.30971,1.49758 -4.46547,1.98702c-1.1551,0.48944 -2.32684,1.13316 -2.60348,1.43041c-0.27731,0.29726 -0.8359,0.53998 -1.24289,0.53998c-0.68428,0 -4.33513,1.20033 -6.81758,2.24105c-0.58387,0.24472 -1.48162,0.55062 -1.995,0.67963c-0.51405,0.12901 -2.01163,0.54996 -3.32833,0.93632c-7.13545,2.09143 -12.72145,3.10688 -19.95,3.62757c-5.21693,0.37572 -5.89323,0.36708 -7.847,-0.10108c-0.95095,-0.22809 -2.74645,-0.61778 -3.99,-0.86716c-10.65995,-2.13398 -20.98408,-8.79064 -29.90904,-19.28433c-1.30606,-1.53615 -2.94595,-3.3915 -3.6442,-4.123c-0.69759,-0.7315 -1.60332,-1.99034 -2.01229,-2.79765c-0.40897,-0.80731 -1.0793,-1.94446 -1.49026,-2.527c-1.78885,-2.53698 -6.5968,-11.59028 -8.45747,-15.92608c-0.44621,-1.04006 -0.97024,-2.25036 -1.16441,-2.68926c-0.19484,-0.4389 -0.55395,-1.2768 -0.79933,-1.862c-2.88743,-6.89273 -6.49306,-19.2318 -8.23935,-28.196c-1.02077,-5.24286 -1.27414,-6.42257 -1.49891,-6.99514c-0.13234,-0.33582 -0.24339,-1.29343 -0.24605,-2.128c-0.00266,-0.83391 -0.11638,-2.29491 -0.2527,-3.24586c-0.85652,-5.98367 -1.82276,-21.96562 -1.35593,-22.43244c0.1596,-0.1596 0.28262,-1.33599 0.28063,-2.69126c-0.00732,-6.15923 1.52418,-17.77479 3.33497,-25.2833c0.24671,-1.0241 0.50407,-2.2211 0.5719,-2.66c0.06716,-0.4389 0.22677,-1.0374 0.35378,-1.33c0.12768,-0.2926 0.76542,-2.14795 1.41712,-4.123c2.06616,-6.25965 4.77935,-12.21605 7.64949,-16.79591c0.7182,-1.14646 1.30606,-2.33747 1.30606,-2.6467c0,-0.33849 0.78337,-1.37056 1.97173,-2.59616c1.08395,-1.11853 2.71586,-2.87213 3.62624,-3.89624c2.03556,-2.29093 4.91768,-4.87512 7.03703,-6.31019c0.8778,-0.59451 1.84139,-1.30207 2.14196,-1.57139c0.29991,-0.26999 1.07796,-0.66367 1.729,-0.87448c0.65037,-0.21014 2.02094,-0.70357 3.04504,-1.09525c4.66232,-1.78287 14.86408,-4.06115 19.684,-4.39499c1.7556,-0.1217 4.56855,-0.34513 6.251,-0.49742c1.68245,-0.15229 3.97271,-0.27864 5.08991,-0.28063c1.23756,-0.00266 2.3807,-0.16226 2.926,-0.40831M202.03622,93.10221c-3.00048,0.03525 -6.8914,-0.00066 -8.647,-0.08113c-6.94526,-0.31588 -21.15897,0.76408 -22.37193,1.69974c-0.16226,0.12502 -1.59866,0.33716 -3.192,0.47082c-3.48593,0.29327 -7.24784,1.24688 -9.99229,2.53166c-1.11188,0.5207 -2.21844,0.94696 -2.45851,0.94696c-0.74015,0 -3.48859,1.5162 -4.84985,2.67529c-4.67163,3.97936 -11.79843,11.80508 -11.79843,12.9562c0,0.12103 -0.52867,1.02476 -1.17439,2.0083c-2.50838,3.81909 -5.07395,9.77484 -5.8653,13.61521c-0.48478,2.3521 -0.71621,3.07163 -1.64189,5.10387c-0.3458,0.75943 -0.62842,1.85203 -0.62842,2.42792c0,0.57656 -0.17955,1.4783 -0.399,2.00298c-0.53732,1.28545 -0.53732,2.6048 0,2.39865c0.4921,-0.18886 0.55394,0.97955 0.09709,1.83274c-0.25802,0.48212 -0.20016,0.64505 0.399,1.12319c1.12186,0.89443 0.82992,1.6206 -0.35444,0.88112c-0.65902,-0.41163 -0.933,-0.14431 -0.56193,0.54796c0.1576,0.29593 0.28728,0.8379 0.28728,1.20432c0,0.36708 0.1197,0.74081 0.266,0.83125c0.34912,0.21546 0.34381,0.931 -0.00665,0.931c-0.14962,0 -0.38171,-0.28794 -0.51538,-0.63906c-0.45685,-1.20232 -0.92634,-1.23756 -1.21429,-0.09177c-0.15229,0.60582 -0.09643,0.73083 0.32452,0.73083c0.27864,0 0.65104,0.14364 0.82659,0.3192c0.38304,0.38304 0.42161,1.0108 0.06185,1.0108c-0.14231,0 -0.18886,-0.17955 -0.10507,-0.399c0.11238,-0.29193 -0.03325,-0.399 -0.53998,-0.399c-0.55793,0 -0.69359,0.12701 -0.69359,0.64904c0,0.3571 -0.1197,0.72352 -0.266,0.81396c-0.41828,0.25869 -0.34181,3.857 0.08246,3.857c0.78005,0 1.33333,-0.66168 0.87248,-1.04405c-0.23275,-0.19285 -0.42294,-0.50872 -0.42294,-0.70157c0,-0.667 0.4901,-0.64904 1.31869,0.04788c0.84854,0.71355 1.41845,0.7029 0.82194,-0.01596c-0.46616,-0.56193 -0.20815,-3.18269 0.37041,-3.7619c0.35644,-0.35577 0.38038,-0.49942 0.11238,-0.665c-0.268,-0.16558 -0.24339,-0.31853 0.11372,-0.71354c0.25004,-0.27664 0.45486,-0.80465 0.45486,-1.17373c0,-0.36908 0.11039,-1.01745 0.24472,-1.44172c0.135,-0.42427 0.55461,-1.78885 0.93299,-3.0324c0.37772,-1.24355 1.28478,-3.3383 2.01495,-4.655c0.73084,-1.3167 1.63989,-3.0191 2.0216,-3.78252c0.92435,-1.85335 6.03621,-7.04169 8.61774,-8.74741c9.73161,-6.42988 24.52853,-8.77468 34.83869,-5.52017c1.09326,0.34447 2.16923,0.62709 2.39067,0.62709c0.77074,0 5.74161,3.56972 7.7559,5.56938c5.02939,4.99415 7.08558,13.167 5.15641,20.49863c-0.40432,1.53615 -0.79467,3.20131 -0.86782,3.70073c-0.07249,0.49941 -0.53533,1.57672 -1.02809,2.394c-0.49343,0.81728 -0.89642,1.61927 -0.89708,1.78153c-0.00066,0.16226 -0.46151,0.82061 -1.0241,1.463c-0.56325,0.64239 -1.49093,1.83873 -2.0615,2.65867c-1.77555,2.54961 -4.34378,4.56655 -8.27992,6.50037c-4.06714,1.99832 -4.33979,2.29957 -3.37488,3.72134c2.59084,3.81777 3.03839,9.78614 1.28545,17.14835c-0.2261,0.95095 -0.5074,2.74645 -0.62444,3.99c-0.11704,1.24355 -0.35644,2.61744 -0.532,3.05368c-1.24421,3.09358 -0.15561,7.27178 2.14263,8.22339c3.04836,1.26217 3.14877,1.43573 3.15409,5.42507c0.00532,4.14228 -0.60715,5.29806 -3.05501,5.76223c-4.96024,0.93965 -7.42472,0.665 -11.97,-1.33266c-1.01213,-0.44488 -2.80763,-2.17388 -3.31569,-3.19333c-0.21413,-0.42959 -0.5985,-1.0926 -0.85386,-1.47298c-1.19634,-1.7802 -1.99434,-6.79364 -1.51421,-9.51282c0.12036,-0.6783 0.40366,-2.55027 0.63109,-4.15957c0.22677,-1.6093 0.58121,-3.94345 0.78802,-5.187c2.32683,-14.00756 2.05685,-17.56863 -1.50223,-19.84027c-3.25916,-2.08012 -4.84718,-1.20897 -6.34343,3.48127c-0.18687,0.5852 -0.4901,1.3034 -0.67497,1.596c-0.18487,0.2926 -0.48678,1.07065 -0.67099,1.729c-0.18487,0.65835 -0.41696,1.3167 -0.51671,1.463c-0.09909,0.1463 -0.51205,1.2236 -0.91703,2.394c-0.40499,1.1704 -1.01346,2.7265 -1.35195,3.458c-0.33848,0.7315 -0.98354,2.44188 -1.43241,3.80181c-2.42792,7.34226 -2.72118,7.54576 -11.45263,7.92015l-4.123,0.17689l-0.6364,-0.68695c-0.96691,-1.04339 -0.5985,-3.33431 1.15178,-7.16138c0.37506,-0.81928 0.68162,-1.61861 0.68162,-1.77622c0,-0.1576 0.10707,-0.49409 0.23807,-0.74812c0.57988,-1.12651 4.81593,-11.82769 4.81593,-12.16618c0,-0.09909 0.43026,-1.1571 0.95561,-2.35077c0.52602,-1.19434 1.13715,-2.70389 1.35859,-3.35492c0.22144,-0.65104 0.68229,-1.78819 1.02344,-2.527c1.14646,-2.48378 3.31237,-7.85897 3.31237,-8.2214c0,-0.12768 0.43159,-1.14646 0.95827,-2.26299c0.52734,-1.1172 1.13117,-2.62941 1.34197,-3.36091c1.42509,-4.94627 5.36322,-10.14856 9.53676,-12.59776c6.33147,-3.71602 8.62971,-3.66216 10.07475,0.23674c1.19966,3.23789 0.77206,4.79465 -2.01362,7.32963c-1.92517,1.75161 -5.65516,10.56751 -4.98085,11.77183c1.26217,2.25368 6.85548,2.22775 10.86543,-0.04987c10.5868,-6.0136 10.43385,-21.27668 -0.24671,-24.65222c-3.66681,-1.1591 -7.67742,-1.00481 -13.832,0.532c-10.76435,2.68726 -18.53555,14.94122 -15.13939,23.87283c0.80132,2.10738 -2.19117,5.91917 -6.89339,8.78066c-1.76824,1.07664 -4.18684,-0.2527 -4.69889,-2.58153c-0.20947,-0.95361 -1.77089,-1.13715 -1.94313,-0.22743c-0.06318,0.33184 0.05453,0.40831 0.4635,0.30124c0.61712,-0.1616 0.75544,0.40232 0.22809,0.92967c-0.51471,0.51471 -1.23158,0.36908 -1.7004,-0.3458c-0.55129,-0.84189 -1.23225,-0.88112 -1.15045,-0.0665c0.09376,0.93366 -0.29859,2.03889 -0.86383,2.43456c-0.46483,0.32585 -0.47481,0.40033 -0.10241,0.77273c0.59451,0.59451 0.53998,1.06932 -0.08446,0.73483c-0.7182,-0.3837 -0.71753,-0.3877 -0.51936,3.3496c0.3059,5.77952 0.4502,7.32896 0.88378,9.47558c0.23342,1.15643 0.40299,3.21261 0.38371,4.655c-0.01928,1.42111 0.0911,3.36224 0.24472,4.31319c0.15362,0.95095 0.41762,2.5669 0.58653,3.591c0.16891,1.0241 0.53267,2.30555 0.80864,2.84753c0.46218,0.90839 0.73017,2.15859 1.30141,6.06347c0.30723,2.0994 0.70357,3.50322 1.45103,5.13712c0.36043,0.78736 0.84787,2.37804 1.08395,3.53381c0.23607,1.15643 0.65968,2.49774 0.94164,2.98186c0.28196,0.48345 0.51471,1.14181 0.51737,1.463c0.00997,1.15444 1.78486,4.94561 2.66133,5.68309c1.44305,1.21429 1.5428,1.37189 1.86865,2.94662c0.35644,1.72634 1.4251,4.8811 2.59018,7.6475c2.62675,6.23903 10.02221,16.05443 13.25012,17.58593c0.48811,0.23208 2.95659,2.5137 5.48492,5.07063c5.92316,5.99032 8.76537,7.68275 13.77415,8.20411c1.46366,0.15295 1.87197,0.31521 2.66,1.06134c0.51205,0.48478 1.4098,1.02078 1.995,1.19168c1.29076,0.37572 10.07209,0.79667 10.19644,0.48811c0.04921,-0.12036 1.18636,-0.22278 2.527,-0.22743c1.72169,-0.00599 2.59017,-0.12302 2.95459,-0.399c0.36442,-0.27531 1.21429,-0.39035 2.88544,-0.39035c2.13066,0 2.5137,-0.0798 3.82242,-0.798c1.23158,-0.67631 1.74629,-0.79866 3.36623,-0.80199c2.20381,-0.00466 4.20679,-0.56725 6.30087,-1.77089c1.96441,-1.12917 4.5905,-2.13133 6.43653,-2.45651c0.83325,-0.14697 2.0901,-0.55527 2.793,-0.90772c0.70224,-0.35179 1.71038,-0.78005 2.23906,-0.95162c0.52934,-0.17091 1.37855,-0.77472 1.88727,-1.34197c0.81861,-0.91172 1.10656,-1.05003 2.49641,-1.20099c0.86383,-0.09377 1.77887,-0.28395 2.0329,-0.42361c0.25403,-0.13898 0.68428,-0.2527 0.95627,-0.2527c0.52801,0 1.18769,-0.63241 1.46034,-1.40049c0.18487,-0.52136 1.00548,-0.8911 2.85817,-1.28811c0.85053,-0.18221 1.70772,-0.665 2.75509,-1.55078c0.93632,-0.79135 2.07281,-1.45967 2.95792,-1.73764c0.79002,-0.24871 1.71304,-0.66966 2.05153,-0.93565c0.33848,-0.266 1.08993,-0.61313 1.66981,-0.7714c0.57988,-0.15827 1.97306,-0.8778 3.09624,-1.59933c1.12252,-0.72219 2.43922,-1.50223 2.926,-1.73432c0.48612,-0.23209 1.09259,-0.78869 1.34729,-1.23623c0.264,-0.4635 0.58919,-0.73682 0.75611,-0.63375c0.16226,0.10041 0.63707,-0.23607 1.06466,-0.75477c0.53134,-0.64438 1.41645,-1.20365 2.83489,-1.79284c1.13515,-0.47082 2.4226,-1.10257 2.86149,-1.40315c1.38187,-0.94696 3.92815,-2.95127 4.63771,-3.65019c0.76808,-0.75677 3.25518,-2.38735 3.64088,-2.38735c0.29061,0 1.38719,-1.07198 3.36091,-3.28444c1.62194,-1.81744 2.52301,-2.37671 3.21195,-1.99101c0.55527,0.31055 1.23956,-0.13367 1.24488,-0.80864c0.00266,-0.37772 1.55543,-1.62992 2.02094,-1.62992c0.09377,0 0.09776,0.36375 0.00865,0.80797c-0.19883,0.99284 0.28662,1.25951 1.42975,0.78603c0.98021,-0.40632 0.99018,-0.60648 0.06184,-1.29076l-0.7315,-0.53865l0.58387,-0.59185c0.61911,-0.62709 1.41113,-0.36841 1.41113,0.46085c0,0.20149 0.20947,0.3571 0.4655,0.34513c0.27797,-0.01197 0.33183,-0.07448 0.133,-0.15494c-0.55727,-0.22477 -0.38637,-1.10855 0.23341,-1.20165c0.38969,-0.05852 0.71022,-0.45686 1.03142,-1.28212c0.48878,-1.25485 1.54147,-2.12401 2.57621,-2.12667c0.64239,-0.00133 1.0354,-0.44887 0.93632,-1.06533c-0.03591,-0.21945 0.47149,-0.81795 1.12651,-1.33c1.26217,-0.9862 1.54546,-1.47164 0.70224,-1.20432c-0.72019,0.22876 -0.96026,-0.32851 -0.40631,-0.94031c0.59916,-0.66234 0.88245,-0.65104 1.14114,0.04721c0.1975,0.53466 0.23076,0.53932 0.67165,0.09842c0.2547,-0.25469 0.40499,-0.61579 0.33317,-0.80266c-0.28395,-0.74148 0.51671,-1.33998 1.26084,-0.94164c0.51604,0.27664 0.77206,0.29127 1.04871,0.06185c0.47681,-0.39634 0.80199,-0.06783 0.40565,0.40964c-0.55461,0.66899 0.18155,1.06733 1.04471,0.56525c0.40632,-0.23674 0.90507,-0.33849 1.12784,-0.23009c0.21945,0.1064 0.667,0.3325 0.99418,0.50141c1.06666,0.55129 1.83606,0.38237 2.19384,-0.48213c0.18021,-0.43358 0.5433,-0.85718 0.80731,-0.94097c0.49343,-0.15694 1.997,-1.9418 1.80082,-2.13864c-0.50473,-0.50474 -1.40049,-0.19751 -1.32468,0.45419c0.06118,0.52402 -0.05985,0.75411 -0.46417,0.88245c-0.29991,0.09509 -0.69625,0.31654 -0.88046,0.49144c-1.15245,1.09924 -1.78553,1.29076 -2.4738,0.74879c-0.401,-0.31521 -0.88046,-0.46085 -1.2236,-0.37107c-0.40565,0.1064 -0.53,0.04256 -0.44156,-0.22477c0.06716,-0.20549 0.37706,-0.4103 0.68827,-0.45619c0.92102,-0.13632 0.72153,-2.0748 -0.20282,-1.97106c-0.72884,0.08246 -2.03623,-0.36575 -2.69392,-0.92236c-0.77273,-0.65436 -1.16441,0.21413 -0.48545,1.0773c0.78736,1.00082 0.58254,1.65053 -0.49409,1.56541c-0.46949,-0.03657 -0.85386,0.0532 -0.85386,0.1995c0,0.14696 -0.2394,0.26733 -0.532,0.26733c-0.41363,0 -0.532,-0.17756 -0.532,-0.798c0,-0.94829 -0.44888,-1.05137 -0.78004,-0.17955c-0.50607,1.33067 -2.00764,1.84338 -2.77505,0.94763c-0.61845,-0.72219 -1.16441,-0.30457 -0.71088,0.54331c0.35179,0.65702 0.13433,1.61462 -0.36641,1.61462c-0.52202,0 -2.13931,-1.68577 -2.65003,-2.76241c-0.5719,-1.20498 -0.85652,-1.21562 -1.0773,-0.03923c-0.2108,1.12319 -0.89309,1.90123 -1.30539,1.48893c-0.49742,-0.49742 -0.77206,-0.30457 -0.59118,0.41563c0.13965,0.55594 0.0931,0.66699 -0.22876,0.5433c-0.22211,-0.08512 -0.47481,-0.04056 -0.56126,0.09909c-0.08645,0.14031 0.01463,0.25469 0.22477,0.25469c0.63308,0 1.0753,0.70424 0.56525,0.89975c-0.78736,0.30257 -1.1817,0.16891 -1.1817,-0.40033c0,-0.45287 -0.07382,-0.5034 -0.37107,-0.25669c-0.28529,0.23674 -0.46417,0.21413 -0.77872,-0.10041c-0.5719,-0.5719 -0.83258,-0.51271 -1.25951,0.28529c-0.33915,0.63375 -0.31986,0.73483 0.22078,1.17306c0.32585,0.264 0.59252,0.59717 0.59252,0.74081c0,0.14431 0.19285,0.33582 0.42892,0.42627c0.34913,0.13367 0.36708,0.23874 0.09776,0.56392c-0.21346,0.25669 -0.43757,0.31055 -0.62909,0.15162c-0.18953,-0.15694 -0.48611,-0.10972 -0.81396,0.12968c-0.8133,0.59451 -2.56025,0.49543 -2.73049,-0.15494c-0.07647,-0.2926 -0.30191,-0.532 -0.50074,-0.532c-1.11188,0 -1.21163,-2.77305 -0.25603,-7.1155c0.27265,-1.24222 0.07381,-1.09193 -1.30473,0.9822c-4.23871,6.37536 -13.21222,10.1233 -24.23925,10.1233c-1.77488,0 -2.07014,-0.07382 -2.66133,-0.665c-0.82527,-0.82527 -0.84455,-0.8246 -1.76158,0.05387c-1.78752,1.71304 -4.77803,1.06333 -8.64234,-1.87663c-4.58252,-3.48659 -6.7032,-3.19931 -12.31513,1.66849c-3.98601,3.45734 -6.09206,4.35176 -8.09637,3.43872c-0.59518,-0.27132 -0.73682,-0.22743 -1.21496,0.38105c-0.69891,0.88844 -2.88477,1.38653 -4.49607,1.02477c-2.35743,-0.53 -4.123,-2.26366 -6.26496,-6.15324c-1.69907,-3.0856 -1.89592,-3.27579 -3.20131,-3.10488c-1.33731,0.17622 -3.59299,2.43057 -3.591,3.589c0.00466,2.36341 -3.05368,6.46779 -5.09457,6.83753c-2.89873,0.52469 -5.10786,-0.85253 -4.85117,-3.02442c0.31455,-2.65668 1.45901,-10.61739 1.70838,-11.87823c0.14431,-0.7315 0.49809,-2.527 0.78603,-3.99c1.77023,-8.99745 1.95045,-9.56602 3.56041,-11.2385c1.74097,-1.80813 2.60813,-2.08877 7.61359,-2.46383c2.26765,-0.17024 5.0806,-0.41895 6.251,-0.55328c6.9579,-0.79601 11.98197,2.07014 11.9301,6.8076c-0.02061,1.9019 -0.62643,3.36158 -2.97188,7.1574c-2.7511,4.45218 -3.02575,6.34676 -1.41978,9.80011c1.07863,2.32019 0.89443,2.46449 3.42342,-2.67596c1.9418,-3.94611 3.1235,-6.18051 6.86479,-12.97349c0.55727,-1.01213 1.36724,-2.4984 1.80015,-3.30306c2.86016,-5.31601 3.04371,-5.53413 5.88259,-6.97319c4.43887,-2.2497 8.89969,-0.23009 9.58464,4.34045c0.09643,0.64306 0.28196,1.70838 0.41163,2.36674c0.12968,0.65835 0.43092,2.33415 0.67032,3.724c0.2394,1.38985 0.54064,3.06565 0.66899,3.724c0.12901,0.65835 0.43824,2.30423 0.68628,3.6575c0.24871,1.35327 0.52469,2.4605 0.61446,2.4605c0.21479,0 1.79882,-6.77967 2.17455,-9.31c0.16292,-1.09725 0.65237,-3.3117 1.08728,-4.921c0.43491,-1.6093 0.89243,-3.327 1.01612,-3.81644c1.06799,-4.22341 4.49739,-5.69971 13.30332,-5.72698c7.63486,-0.02394 13.3,2.91868 13.3,6.90735c0,0.47481 0.07248,1.0527 0.16159,1.28412c0.26932,0.70224 0.63641,0.47215 0.63641,-0.399c0,-0.79999 0.9955,-4.06382 1.74895,-5.73496c1.32668,-2.94196 6.87344,-4.25666 8.61508,-2.04221c0.46218,0.58786 0.50939,0.92568 0.36442,2.64072c-0.20216,2.38602 -0.39967,2.39599 2.18918,-0.11172c8.24201,-7.98333 20.13753,-8.85713 25.64972,-1.88328c0.60382,0.76342 1.16508,1.72767 1.2482,2.14263c0.23807,1.18902 1.57738,0.39501 3.03706,-1.79949c0.20482,-0.3079 1.46699,-1.74429 2.80497,-3.192c2.86482,-3.10023 4.97819,-5.68508 4.79598,-5.86663c-0.07115,-0.07116 -0.68362,0.05852 -1.36059,0.28861c-2.80763,0.95294 -8.74741,0.36708 -11.11614,-1.09658c-0.54597,-0.33715 -1.1039,-0.61313 -1.24089,-0.61313c-2.20713,0 -5.40445,-8.35041 -4.80861,-12.5552c0.61446,-4.33181 1.2881,-5.18567 4.58451,-5.81143c4.70288,-0.89376 8.50402,-5.16372 8.90701,-10.00626c0.24871,-2.98718 -1.55211,-3.73331 -4.81194,-1.995c-1.88129,1.00349 -5.80545,4.79864 -6.55757,6.3421c-0.70091,1.43706 -0.59916,1.18902 -2.26499,5.53879c-2.44454,6.38333 -5.25084,13.60191 -5.87527,15.11279c-0.35112,0.8512 -0.63906,1.68179 -0.63906,1.84604c0,0.67697 -1.76026,3.73663 -2.41927,4.20612c-0.53067,0.37839 -1.54081,0.58055 -3.99998,0.80199c-9.30667,0.8379 -9.73227,0.73948 -9.46694,-2.18386l0.14164,-1.56208l-1.49359,0.81994c-0.82128,0.45021 -1.81745,1.05004 -2.21379,1.332c-9.14575,6.51235 -27.04223,7.21259 -32.30371,1.2635c-3.18734,-3.60363 -4.50936,-10.82022 -2.90339,-15.85094c0.26268,-0.82194 -0.31455,-0.7827 -1.21828,0.08313c-0.72152,0.6916 -5.6525,3.30837 -6.23371,3.30837c-0.55394,0 -1.09126,0.87913 -1.6625,2.71919c-0.54264,1.74696 -2.74845,5.4264 -4.15891,6.93728c-0.38237,0.40964 -0.69559,0.8379 -0.69559,0.95095c0,0.11305 -0.29925,0.48678 -0.665,0.83059c-0.36575,0.34381 -0.665,0.75344 -0.66566,0.91105c-0.00066,0.28861 -3.74329,3.61893 -5.02474,4.4708c-6.86213,4.56257 -18.10462,5.88525 -23.72188,2.79233c-3.38419,-1.86399 -5.56272,-4.33647 -6.6786,-7.579c-0.93034,-2.70455 -1.35261,-8.93959 -0.76076,-11.23517c0.16958,-0.65835 0.46018,-1.9152 0.64505,-2.793c0.18487,-0.8778 0.65636,-2.2876 1.04804,-3.13348c0.39102,-0.84521 0.71155,-1.68976 0.71155,-1.87597c0,-0.5872 1.37256,-3.16008 2.77438,-5.2003c0.74148,-1.07996 1.60332,-2.33681 1.91387,-2.793c2.41129,-3.53647 10.36137,-8.70352 14.72975,-9.57467c5.40512,-1.0773 10.99844,-1.18636 13.433,-0.26134c6.26896,2.3827 9.50485,7.18133 9.56935,14.19176c0.02261,2.45518 0.08246,2.80231 0.50008,2.88278c1.21629,0.23408 4.64902,-3.0211 7.28375,-6.90735c1.27813,-1.88594 2.34147,-3.13348 3.18801,-3.74262c0.69891,-0.50207 1.98901,-1.56341 2.86681,-2.35742c0.8778,-0.79468 2.49375,-2.03889 3.591,-2.76441c1.09725,-0.72618 2.4738,-1.7024 3.059,-2.16923c0.91903,-0.73416 2.76041,-1.68511 5.852,-3.02309c0.82194,-0.35511 1.94446,-0.64173 4.256,-1.08462c3.27579,-0.62842 4.7348,-0.74081 6.20445,-0.47747c0.83058,0.14829 2.24969,0.29859 3.15343,0.3345c3.01511,0.11837 6.07212,2.06482 7.45997,4.74943c1.58736,3.06964 1.94047,5.4663 1.25752,8.5253c-0.23474,1.05203 -0.54131,2.57156 -0.68162,3.37621c-0.82128,4.71818 -2.60481,6.18184 -7.95074,6.52365c-1.09725,0.06983 -2.79233,0.19285 -3.7659,0.27331c-3.57238,0.29526 -5.30404,-1.41046 -3.96672,-3.90621c3.10089,-5.7855 1.98037,-9.17168 -2.15926,-6.52365c-5.41776,3.46598 -11.1188,16.28984 -9.11649,20.50794c2.30822,4.86514 14.63731,3.56772 22.73236,-2.39201c3.30106,-2.42991 8.30519,-8.57185 9.67974,-11.88022c0.32119,-0.77339 0.79667,-1.80481 1.05669,-2.29292c0.26001,-0.48745 0.75677,-1.75693 1.1039,-2.82093c0.58786,-1.80082 3.34163,-8.74143 3.8856,-9.79479c0.13366,-0.25735 0.43092,-1.0354 0.66034,-1.729c0.58055,-1.74829 2.05352,-5.44502 3.02043,-7.57701c0.44488,-0.98154 0.80864,-1.93648 0.80864,-2.12268c-0.00067,-0.1862 0.31189,-1.11653 0.69426,-2.06749c0.38238,-0.95095 0.87381,-2.2078 1.09193,-2.793c0.21812,-0.5852 0.50473,-1.27214 0.63574,-1.52617c0.131,-0.25403 0.23873,-0.63973 0.23873,-0.85718c0,-1.36791 2.18386,-4.54793 3.3004,-4.80463c1.35261,-0.31122 5.57137,-0.65503 8.0711,-0.65702c2.00564,-0.00133 2.72517,-0.08978 2.72118,-0.3345c-0.01264,-0.85719 -22.33469,-8.96354 -24.71406,-8.97418c-0.71089,-0.00333 -2.10938,-0.40099 -3.34362,-0.95028c-1.92318,-0.85586 -9.0154,-2.48776 -10.906,-2.50971c-0.4389,-0.00532 -2.2344,-0.49343 -3.99,-1.08528c-4.53131,-1.52817 -12.80258,-3.21727 -17.29199,-3.53182c-1.02543,-0.07182 -2.40198,-0.32984 -3.059,-0.57323c-1.8753,-0.69492 -6.56488,-1.45635 -8.98482,-1.45834c-1.4098,-0.00199 -2.41595,-0.135 -2.793,-0.37041c-0.59251,-0.36974 -1.30938,-0.51072 -4.97819,-0.98021c-6.74776,-0.86383 -9.73892,-1.13981 -14.364,-1.32801c-5.79015,-0.23475 -10.37467,-0.61379 -12.84647,-1.062c-0.96093,-0.1749 -3.91818,-0.27198 -7.10153,-0.23408M320.89765,118.07961c-3.54778,-1.8088 -3.65883,-1.84271 -2.90671,-0.88644c0.79667,1.01279 0.14763,4.16622 -1.53815,7.46928c-0.31454,0.61646 -1.15776,2.65135 -1.87397,4.522c-0.71554,1.87064 -1.57405,4.02192 -1.90722,4.78135c-1.05868,2.41329 -0.18687,2.8083 2.43789,1.10457c12.36036,-8.02522 23.07683,-3.49192 18.55816,7.85032c-0.29992,0.75278 -0.88844,2.33814 -1.30805,3.52383c-0.76276,2.1566 -2.71586,5.78883 -4.29524,7.98798c-1.37522,1.9152 -5.38118,5.00612 -7.97002,6.14992c-3.60098,1.59068 -2.00232,7.26313 2.03889,7.23254c4.96622,-0.03724 14.70382,-9.96436 16.94553,-17.2747c2.84287,-9.27143 3.00447,-12.53858 0.8379,-16.87571c-0.86849,-1.73831 -3.42142,-5.20229 -3.83373,-5.20229c-0.10307,0 -0.89043,-0.69293 -1.74895,-1.54014c-2.75842,-2.72052 -7.3283,-5.72897 -13.43633,-8.84251M182.61622,127.63299c0,-0.31388 -0.46018,-0.29991 -0.65769,0.01929c-0.266,0.43025 1.15976,1.21229 1.5315,0.84056c0.2414,-0.2414 0.17689,-0.34979 -0.27997,-0.46949c-0.32652,-0.08512 -0.59384,-0.26068 -0.59384,-0.39035M304.36309,133.20969c0.33051,-1.23823 0.01663,-1.3546 -0.47148,-0.17489c-0.75943,1.83208 -0.15162,3.79848 0.9842,3.18402c0.27464,-0.14829 0.72219,-0.33982 0.99484,-0.4256c0.75079,-0.23541 0.06983,-0.90507 -0.76009,-0.74613c-0.8532,0.16293 -1.11188,-0.47215 -0.74746,-1.83739M308.47412,134.18125c0,-0.13898 -0.12834,-0.29526 -0.28595,-0.34779c-0.15694,-0.05254 -0.28595,0.10374 -0.28595,0.34779c0,0.24406 0.12901,0.40033 0.28595,0.34779c0.1576,-0.05254 0.28595,-0.20881 0.28595,-0.34779M144.46052,135.88498c0.08179,-0.13234 -0.15694,-0.24073 -0.53134,-0.24073c-0.81529,0 -0.88112,0.15162 -0.14896,0.34314c0.29193,0.07647 0.5985,0.03059 0.6803,-0.10241M323.01634,136.90775c-0.09643,-0.67631 -1.09924,-0.91637 -1.88062,-0.4502c-0.65902,0.39235 -0.57722,0.91238 0.1995,1.26616c0.40299,0.18354 0.665,0.52402 0.665,0.86317c0,0.3325 0.135,0.51272 0.3325,0.44289c0.18287,-0.06384 0.29792,-0.43291 0.25603,-0.81994c-0.0419,-0.38703 0.05586,-0.70357 0.21812,-0.70357c0.16159,0 0.25603,-0.26933 0.20947,-0.5985M326.78822,136.84125c0,-0.21945 -0.1197,-0.399 -0.266,-0.399c-0.1463,0 -0.266,0.46417 -0.266,1.03142c0,1.3566 -0.57589,1.8753 -1.066,0.96026c-0.39501,-0.73881 -0.796,-0.87115 -0.796,-0.26268c0,0.21945 -0.1197,0.399 -0.266,0.399c-0.41828,0 -0.31055,0.72418 0.133,0.89442c0.55993,0.2148 0.49609,0.67032 -0.16824,1.20897c-0.48279,0.39035 -0.5207,0.5473 -0.25403,1.04538c0.3744,0.69891 0.18221,1.10722 -0.52136,1.10722c-0.35179,0 -0.49343,-0.1616 -0.44954,-0.51538c0.03458,-0.28329 -0.05652,-0.55262 -0.20282,-0.5985c-0.1463,-0.04588 -0.30324,0.3059 -0.34912,0.78137c-0.06783,0.70224 0.0113,0.8645 0.42427,0.8645c0.66167,0 1.44371,0.87448 1.24554,1.39185c-0.10707,0.27797 0.05786,0.45818 0.52535,0.57522c0.80265,0.20149 0.92036,0.95893 0.14896,0.95893c-0.29925,0 -0.532,0.17755 -0.532,0.40565c0,0.24006 -0.33383,0.47215 -0.81928,0.56924c-0.64638,0.12967 -0.79069,0.27265 -0.68429,0.67897c0.10175,0.39035 -0.05852,0.58254 -0.66035,0.79268c-0.532,0.18553 -0.74546,0.40499 -0.64571,0.66567c0.08246,0.21413 0.14963,0.43956 0.14963,0.50074c0,0.37506 0.79201,0.01729 0.931,-0.42095c0.37107,-1.16974 2.793,0.00333 2.793,1.35328c0,1.27414 0.84389,0.76143 1.29675,-0.78736c0.41895,-1.43241 0.07515,-1.99101 -0.76009,-1.2349c-0.72618,0.65702 -0.95428,0.35046 -0.3857,-0.51803c0.55794,-0.8512 1.42975,-0.81463 1.8733,0.07913c0.49277,0.99218 1.01945,1.38719 0.76808,0.57589c-0.11372,-0.36575 -0.19817,-1.05403 -0.1882,-1.5295c0.00998,-0.47547 -0.0931,-0.8645 -0.22876,-0.8645c-0.13632,0 -0.24738,-0.17955 -0.24738,-0.399c0,-0.28528 0.29061,-0.399 1.01945,-0.399c1.32801,0 1.43773,-0.14963 0.83457,-1.14181c-0.49742,-0.81795 -0.28528,-1.731 0.31588,-1.35926c0.27531,0.17024 1.02211,-0.35843 1.02211,-0.72352c0,-0.12834 -0.14696,-0.20349 -0.32651,-0.16692c-0.17888,0.03657 -0.36575,-0.19351 -0.4143,-0.51138c-0.0552,-0.35843 -0.38636,-0.68162 -0.87115,-0.85054c-0.96026,-0.33516 -1.01346,-0.76808 -0.10906,-0.88112c0.37041,-0.04655 0.63973,-0.20415 0.5985,-0.35045c-0.04057,-0.1463 -0.22809,-0.24871 -0.41629,-0.22743c-0.21879,0.02461 -0.28395,-0.14231 -0.18154,-0.4655c0.13034,-0.40897 0.02594,-0.50407 -0.55129,-0.50407c-0.62643,0 -0.69227,-0.0798 -0.5453,-0.665c0.13699,-0.54463 0.06982,-0.665 -0.36974,-0.665c-0.30058,0 -0.53732,-0.17622 -0.53732,-0.399M186.30032,138.53168c0.1616,-0.05852 0.14031,-0.38304 -0.05586,-0.85918c-0.25735,-0.62377 -0.37174,-0.69759 -0.61978,-0.39834c-0.34248,0.4123 0.20349,1.42908 0.67564,1.25751M329.79535,138.21115c0.19684,-0.51271 -0.48013,-1.13515 -0.75411,-0.69226c-0.10307,0.16758 -0.01064,0.48146 0.20615,0.69825c0.3478,0.34846 0.4123,0.34779 0.54796,-0.00599M304.44422,138.83625c-0.36575,-0.27664 -0.87447,-0.5586 -1.1305,-0.62577c-0.71887,-0.18886 -0.56458,0.60116 0.17157,0.88112c0.35046,0.133 0.69426,0.39966 0.76475,0.59185c0.10507,0.28795 0.19285,0.28795 0.49343,0.00266c0.30789,-0.29193 0.26068,-0.42627 -0.29925,-0.84987M190.06422,139.35961c0,-0.28795 -0.17955,-0.52336 -0.399,-0.52336c-0.21945,0 -0.399,0.16692 -0.399,0.37041c0,0.20415 0.17955,0.43957 0.399,0.52402c0.27132,0.10374 0.399,-0.01463 0.399,-0.37107M323.01434,140.23608c-0.10973,-0.57057 -0.77938,-0.73017 -1.21894,-0.2906c-0.52801,0.52801 -0.38171,0.75278 0.4901,0.75278c0.63374,0 0.79733,-0.10441 0.72884,-0.46218M320.08702,140.7182c0.05254,-0.15694 -0.10374,-0.28595 -0.3478,-0.28595c-0.24406,0 -0.40033,0.12901 -0.34779,0.28595c0.05187,0.1576 0.20881,0.28595 0.34779,0.28595c0.13899,0 0.29593,-0.12835 0.3478,-0.28595M272.20502,141.01745c-0.31654,-0.31654 -0.7448,-0.43092 -0.7448,-0.19884c0,0.33981 0.64705,1.47564 0.84056,1.47564c0.33649,0 0.26799,-0.91305 -0.09576,-1.2768M320.93622,141.61329c0,-0.2108 -0.12369,-0.38304 -0.27464,-0.38304c-0.31787,0 -0.65968,0.75012 -0.44089,0.96891c0.23275,0.23342 0.71554,-0.16226 0.71554,-0.58587M303.77922,142.7817c0,-0.17024 -0.16093,-0.36376 -0.35777,-0.42959c-0.22411,-0.07448 -0.32385,0.04721 -0.266,0.32452c0.10307,0.49875 0.62377,0.58653 0.62377,0.10507M271.46022,142.83689c-0.7029,-0.47348 -1.41113,-0.04588 -1.84005,1.11055c-0.39435,1.06333 -0.00333,1.08395 1.18503,0.06318c0.87514,-0.75079 0.98619,-0.95028 0.65502,-1.17372M275.64972,143.18203c-0.96957,-0.60515 -1.80082,-0.11704 -1.43308,0.84123c0.2414,0.62909 1.76558,0.52801 1.76558,-0.11704c0,-0.28395 -0.14963,-0.6098 -0.3325,-0.72419M279.81262,144.11302c-0.14098,-0.22809 -0.30457,-0.24738 -0.7714,-0.09177c-0.1463,0.04854 -0.59983,0.16226 -1.00747,0.25204c-0.49144,0.10906 -0.71554,0.30989 -0.665,0.59717c0.08578,0.48678 -1.45236,1.07065 -1.60797,0.61113c-0.14497,-0.42693 -0.84255,-0.29659 -0.84255,0.15694c0,0.57522 -0.6537,1.17771 -1.27813,1.17771c-0.72618,0 -1.29742,0.72286 -0.89176,1.12851c0.23341,0.23342 0.38504,0.23075 0.62709,-0.01131c0.17556,-0.17556 0.59584,-0.3192 0.93433,-0.3192c0.33848,0 0.85386,-0.14896 1.14513,-0.3305c0.78404,-0.4901 1.44039,0.03657 1.54147,1.2369c0.0951,1.12119 0.57323,1.43241 1.53017,0.99617c0.78337,-0.3571 0.87248,-0.9596 0.11238,-0.76076c-0.84521,0.22144 -1.29675,-0.8399 -0.59783,-1.40515c0.64837,-0.52535 1.96308,-2.928 1.77156,-3.23789M323.13604,144.58252c-0.76209,-0.76143 -1.15511,0.75411 -0.50207,1.93249c0.28728,0.51737 0.37838,0.55461 0.51139,0.20815c0.08911,-0.23209 0.05187,-0.4901 -0.08246,-0.57256c-0.1463,-0.09044 -0.1483,-0.40299 -0.00532,-0.77938c0.13101,-0.3458 0.16625,-0.70024 0.07847,-0.78869M158.67622,145.32067c0,-0.4921 -0.65037,-0.4655 -1.07331,0.04389c-0.25071,0.30191 -0.26201,0.48878 -0.04389,0.7069c0.35245,0.35245 1.1172,-0.16159 1.1172,-0.75078M321.46822,145.37254c0,-0.24671 -0.22743,-0.41828 -0.55394,-0.41828c-0.64837,0 -0.5566,0.62178 0.11039,0.75079c0.26267,0.05121 0.44355,-0.08446 0.44355,-0.3325M272.09197,145.43239c-0.14896,-0.24073 -1.16375,-0.29327 -1.16375,-0.05985c0,0.08312 0.19019,0.34181 0.42294,0.57456c0.43425,0.43425 1.05868,0 0.74081,-0.51471M305.24222,145.39581c0,-0.48412 -0.79667,-0.01862 -1.94912,1.13781c-0.7561,0.75877 -1.16841,1.36126 -1.00282,1.46366c0.26135,0.1616 2.95193,-2.20979 2.95193,-2.60148M187.40422,147.21525c0,-0.64571 -0.25868,-0.8492 -0.62044,-0.48744c-0.33516,0.3345 -0.17756,1.15245 0.22144,1.15245c0.24804,0 0.399,-0.25137 0.399,-0.665M281.03622,147.18666c0,-0.20349 -0.17955,-0.37041 -0.399,-0.37041c-0.21945,0 -0.399,0.23541 -0.399,0.52336c0,0.35644 0.12768,0.47481 0.399,0.37107c0.21945,-0.08445 0.399,-0.31987 0.399,-0.52402M159.60656,147.87759c-0.19884,-0.62643 -0.73483,-0.68694 -1.19368,-0.13366c-0.43558,0.52469 -0.15095,1.20032 0.5054,1.20032c0.65835,0 0.90507,-0.38238 0.68828,-1.06666M185.04081,147.7539c0.00532,-0.14231 -0.08911,-0.28263 -0.21014,-0.31056c-0.36309,-0.08379 -0.88445,0.19751 -0.88445,0.47747c0,0.34048 1.08196,0.1749 1.09459,-0.16691M261.61822,148.01325c0,-0.21945 -0.1197,-0.399 -0.266,-0.399c-0.1463,0 -0.266,0.17955 -0.266,0.399c0,0.21945 0.1197,0.399 0.266,0.399c0.1463,0 0.266,-0.17955 0.266,-0.399M156.28222,148.41225c0,-0.1463 -0.17955,-0.266 -0.399,-0.266c-0.21945,0 -0.399,0.1197 -0.399,0.266c0,0.1463 0.17955,0.266 0.399,0.266c0.21945,0 0.399,-0.1197 0.399,-0.266M299.70942,148.99745c0.24804,-0.24804 0.24804,-0.39036 0,-0.6384c-0.24805,-0.24804 -0.3192,-0.17755 -0.3192,0.3192c0,0.49676 0.07115,0.56724 0.3192,0.3192M207.57301,149.8307c-0.15494,-0.80132 -1.01678,-0.72552 -1.01678,0.08911c0,0.19484 0.24804,0.35444 0.55128,0.35444c0.3724,0 0.52402,-0.1443 0.4655,-0.44355M276.5089,150.26361c-0.62045,-1.21628 -2.07414,-1.62592 -1.71171,-0.48279c0.20748,0.65303 1.42111,1.80282 1.91653,1.81479c0.44156,0.0113 0.42494,-0.09776 -0.20482,-1.332M230.37586,150.3893c-0.87581,-1.33731 -1.62326,-0.87048 -1.89591,1.18437c-0.14497,1.09326 -0.31189,1.4497 -0.7581,1.61927c-0.31521,0.1197 -0.73283,0.41163 -0.92967,0.64771c-0.27199,0.32851 -0.44289,0.3591 -0.7202,0.12835c-0.27997,-0.23275 -0.36375,-0.21014 -0.36375,0.09709c0,0.53865 0.65436,1.04737 1.21628,0.94563c0.25137,-0.04522 0.50474,0.05121 0.56193,0.2148c0.10108,0.28728 -1.30074,0.75345 -1.97771,0.65769c-0.18287,-0.02594 -0.3325,0.17889 -0.3325,0.45486c0,0.54397 -0.78004,1.3832 -1.28411,1.3832c-0.43956,0 -0.38703,0.70424 0.12502,1.68777c0.24006,0.46151 0.52468,1.01878 0.63175,1.23823c0.33715,0.69093 3.16873,0.53 3.65883,-0.20815c0.46284,-0.69759 0.92568,-0.75079 1.41379,-0.16293c0.19418,0.23475 0.62843,0.53067 0.96359,0.65835c1.06001,0.40299 0.72485,0.84322 -0.48678,0.6384c-1.36325,-0.23075 -1.35062,0.38636 0.01596,0.74081c1.62925,0.42161 2.24903,-1.30074 0.85851,-2.38469c-0.41297,-0.32186 -0.41163,-0.37107 0.02195,-0.70756c0.25602,-0.19884 0.4655,-0.61379 0.4655,-0.92169c0,-0.71953 0.78071,-1.1571 1.4231,-0.79734c0.61579,0.34447 0.87913,0.08379 0.44422,-0.43956c-0.18487,-0.22344 -0.69226,-0.40565 -1.12651,-0.40565c-0.56658,0 -0.82992,-0.15029 -0.92967,-0.532c-0.07647,-0.2926 -0.24472,-0.532 -0.37439,-0.532c-0.12901,0 -0.23475,-0.1197 -0.23475,-0.266c0,-0.1463 0.16492,-0.266 0.36641,-0.266c0.20149,0 0.53067,-0.19884 0.7315,-0.44223c0.3345,-0.40432 0.264,-0.42494 -0.83192,-0.24339c-2.08611,0.34646 -2.50572,0.3192 -2.60414,-0.16957c-0.06318,-0.31588 0.13899,-0.51072 0.65769,-0.63508c0.9975,-0.23873 1.47031,-0.63973 1.29476,-1.09858c-0.0798,-0.20682 -0.01663,-0.61446 0.13965,-0.9064c0.21613,-0.40365 0.18287,-0.68495 -0.14032,-1.17772M274.12022,150.68921c0,-0.56325 -0.4502,-0.74546 -0.63707,-0.25868c-0.22743,0.59318 -0.20947,0.64172 0.23807,0.64172c0.21945,0 0.399,-0.17224 0.399,-0.38304M280.90322,150.27425c-0.20682,-0.3345 -0.67963,-0.3345 -1.197,0c-0.30191,0.19484 -0.18487,0.25869 0.48146,0.26201c0.51936,0.00199 0.81263,-0.10507 0.71554,-0.26201M155.58397,151.27907c0.19218,-0.3059 0.19884,-0.54663 0.02061,-0.72485c-0.17822,-0.17822 -0.37839,-0.08778 -0.60382,0.27331c-0.24804,0.39634 -0.4921,0.4901 -0.92235,0.35378c-0.52535,-0.16691 -0.54729,-0.14031 -0.21147,0.26467c0.4522,0.54463 1.32402,0.46018 1.71703,-0.16692M210.4365,151.27042c0.08645,-0.08578 0.10507,-0.37506 0.04123,-0.64306c-0.10972,-0.46417 -0.12436,-0.46483 -0.32253,-0.00931c-0.20815,0.4808 -0.00931,0.94297 0.2813,0.65237M257.45067,150.65397c-0.22145,-0.57722 -1.2881,-0.45419 -2.12933,0.24538c-0.41363,0.34447 -0.89576,0.67365 -1.07132,0.7315c-0.22344,0.07448 -0.1709,0.30257 0.17423,0.7581c0.56192,0.74148 1.34197,0.41097 1.34197,-0.56924c0,-0.40033 0.12302,-0.47814 0.54463,-0.34447c0.65303,0.20748 1.34397,-0.29061 1.13981,-0.82128M218.79222,151.04698c0,-0.25802 -1.46766,-0.2946 -2.128,-0.05254c-1.01479,0.37107 -3.24719,2.38136 -4.02325,3.62425c-0.47281,0.7561 -1.06599,1.61396 -1.31869,1.90655c-0.60116,0.69559 -2.90405,5.12516 -2.90405,5.58534c0,0.19618 -0.1729,0.69559 -0.3837,1.10988c-0.67897,1.332 -1.42111,3.62358 -1.88195,5.80678c-0.24671,1.1704 -0.55195,2.46316 -0.6783,2.87213c-0.24006,0.77872 0.06916,3.01311 0.53865,3.88959c1.66516,3.11154 5.79747,1.94779 7.47925,-2.10672c0.33317,-0.80465 0.80931,-1.76225 1.05802,-2.128c0.44621,-0.65768 0.96292,-1.74496 2.11736,-4.45616l0.59517,-1.39717l-1.09725,-1.19035c-0.60382,-0.65502 -1.09792,-1.40248 -1.09792,-1.66183c-0.00066,-0.25935 -0.25337,-0.88511 -0.56193,-1.39118c-1.70307,-2.79367 -0.26667,-7.23919 3.02309,-9.35655c0.69493,-0.44688 1.2635,-0.92102 1.2635,-1.05402M227.15127,151.87025c0.01729,-0.80532 -0.07116,-0.94164 -0.65502,-1.00947c-0.85386,-0.09975 -1.08395,0.13167 -0.89176,0.89709c0.13234,0.52867 0.0399,0.61778 -0.71621,0.69226c-0.47747,0.04655 -0.92302,0.2527 -0.99085,0.45819c-0.09243,0.2813 0.03258,0.32652 0.51138,0.18354c0.34912,-0.10374 1.1039,-0.21147 1.67846,-0.2394c1.00149,-0.04921 1.04471,-0.08845 1.064,-0.9822M232.17601,151.43867c-0.26135,-0.68162 -0.88179,-0.34713 -0.88179,0.47614c0,0.268 0.09576,0.48745 0.2128,0.48745c0.39701,0 0.80997,-0.59517 0.66899,-0.96358M323.41002,152.15487c0.26267,-0.44488 0.35312,-0.84654 0.2108,-0.93433c-0.29593,-0.18287 -1.41645,1.29742 -1.16973,1.54413c0.30257,0.30257 0.4901,0.18287 0.95893,-0.6098M158.67622,151.97199c0,-0.42826 -0.98287,-0.47614 -1.6625,-0.08046c-0.63707,0.37107 -0.6098,1.30872 0.0379,1.30872c0.27731,0 0.57855,-0.19618 0.67099,-0.43491c0.15428,-0.40299 0.20216,-0.40299 0.64771,0c0.54596,0.49409 1.3699,0.58055 1.3699,0.14431c0,-0.16027 -0.2394,-0.35378 -0.532,-0.43026c-0.2926,-0.07647 -0.532,-0.30457 -0.532,-0.5074M278.75594,152.28853c-0.51006,-0.51072 -0.40299,-0.53399 -1.07331,0.23142c-0.7867,0.89908 -0.42893,1.41113 0.66899,0.95627c0.93034,-0.38503 1.00082,-0.59185 0.40432,-1.18769M206.29022,152.84581c0,-0.59118 -0.41895,-0.76674 -0.78337,-0.32851c-0.21347,0.25735 -0.22876,0.52801 -0.04921,0.86184c0.14364,0.26733 0.3305,0.70556 0.41429,0.97356c0.20815,0.665 0.71288,0.4389 1.31271,-0.58853l0.50008,-0.85652l-0.69759,0.17556c-0.52734,0.13234 -0.69692,0.07448 -0.69692,-0.2374M256.91867,153.35254c0.20881,-0.54331 -0.4389,-1.02543 -0.8399,-0.62444c-0.17157,0.17157 -0.31255,0.46816 -0.31255,0.65835c0,0.46949 0.9709,0.4409 1.15245,-0.03391M275.71622,153.84929c0,-0.2108 -0.12369,-0.38304 -0.27465,-0.38304c-0.31787,0 -0.65968,0.75012 -0.44089,0.96891c0.23275,0.23342 0.71554,-0.16226 0.71554,-0.58587M209.74822,153.96567c0,-0.27531 -0.36774,-0.30856 -0.62044,-0.05586c-0.39834,0.39834 -0.19551,0.96624 0.22144,0.62044c0.21945,-0.18221 0.399,-0.43624 0.399,-0.56458M129.38829,154.77364c-0.51005,-0.32319 -0.65569,-0.30324 -1.02609,0.14364c-0.40432,0.48745 -0.14032,0.94297 0.54596,0.94297c0.64771,0 0.9862,-0.76608 0.48013,-1.08661M153.35622,155.59758c0,-0.53466 -0.13234,-0.80132 -0.399,-0.80132c-0.21945,0 -0.399,0.21945 -0.399,0.48744c0,0.26866 -0.08312,0.57057 -0.1842,0.67231c-0.50207,0.50207 -0.3039,2.52035 0.33184,3.38153c0.82127,1.11321 0.81662,1.53548 -0.02527,2.44387c-0.79534,0.85785 -0.88645,0.8758 -1.33865,0.26334c-0.26933,-0.36442 -0.41496,-0.39567 -0.66966,-0.1443c-0.2414,0.23807 -0.24871,0.41363 -0.02926,0.67896c0.16359,0.19684 0.23142,0.60715 0.15162,0.91238c-0.22011,0.84322 0.25469,0.93433 1.45236,0.27797c1.19899,-0.65635 1.68644,-0.47481 1.74296,0.65103c0.02194,0.42494 0.21746,0.64306 0.63109,0.70158c0.73815,0.10507 1.01612,-0.49942 0.59318,-1.2901c-0.46417,-0.86649 0.04322,-1.17838 0.86516,-0.53133c0.78071,0.61446 1.26284,0.69226 1.27547,0.20682c0.01064,-0.42826 1.20963,-1.7955 1.57472,-1.7955c0.15295,0 0.27864,-0.17955 0.27864,-0.399c0,-0.21945 -0.16492,-0.399 -0.36641,-0.399c-0.20149,0 -0.51538,0.17955 -0.69759,0.399c-0.53466,0.64372 -1.33,0.50207 -1.33,-0.2374c0,-0.45419 0.18753,-0.68296 0.65702,-0.80066c1.14779,-0.28795 1.34862,-1.12119 0.35378,-1.46765c-1.59733,-0.5566 -2.61677,-2.09608 -1.1438,-1.72634c0.76342,0.19152 0.83723,-0.05918 0.25868,-0.88445c-0.40365,-0.57656 -0.90839,-0.57456 -1.65851,0.00599c-0.24006,0.1862 -0.25536,0.3571 -0.05387,0.59983c0.18154,0.21878 0.18886,0.39834 0.02195,0.50141c-0.14298,0.08845 -0.33582,0.03923 -0.42759,-0.10906c-0.27597,-0.44688 -1.20565,-0.33051 -1.03009,0.12834c0.08445,0.21945 0.29792,0.399 0.47414,0.399c0.17689,0 0.48811,0.42627 0.69293,0.94763c0.27398,0.69825 0.49675,0.91437 0.84721,0.8226c0.26135,-0.0685 0.53001,-0.03657 0.59651,0.07116c0.15229,0.24605 -1.32335,1.88261 -1.69774,1.88261c-0.3345,0 -1.08262,-1.70905 -1.08262,-2.4718c0,-0.29991 -0.20416,-0.77074 -0.45353,-1.04671c-0.37041,-0.40897 -0.39501,-0.59584 -0.133,-1.01479c0.17622,-0.28262 0.32053,-0.87447 0.32053,-1.31537M158.71679,155.52775c-0.45087,-0.7827 -1.37056,-0.99949 -1.37056,-0.32319c0,0.58387 0.79601,1.71969 1.20565,1.71969c0.54996,0 0.62111,-0.60316 0.16492,-1.3965M296.56065,155.99325c-0.18886,-0.49143 -0.35312,-0.4901 -1.01147,0.00865c-0.48944,0.36974 -0.47215,0.39035 0.32385,0.39035c0.63774,0 0.80332,-0.09643 0.68761,-0.399M127.15522,156.52525c0,-0.268 -0.14963,-0.53732 -0.3325,-0.5985c-0.2108,-0.07049 -0.3325,0.14896 -0.3325,0.5985c0,0.44954 0.12169,0.66899 0.3325,0.5985c0.18287,-0.06118 0.3325,-0.3305 0.3325,-0.5985M204.83254,156.4807c-0.00732,-0.45154 -0.32519,-0.69825 -0.51072,-0.397c-0.08845,0.14231 -0.36974,0.20482 -0.6251,0.13898c-0.52469,-0.13433 -1.25286,0.82061 -0.97223,1.2748c0.10574,0.17091 0.74746,0.23741 1.60531,0.16625c1.07198,-0.08845 1.42842,-0.02992 1.42842,0.23607c0,0.19484 -0.1197,0.35444 -0.266,0.35444c-0.1463,0 -0.266,0.17955 -0.266,0.399c0,0.54996 0.51072,0.50274 0.71953,-0.0665c0.09443,-0.25602 0.32984,-0.56126 0.52402,-0.6783c0.79002,-0.47681 0.399,-1.17905 -0.63973,-1.14779c-0.59384,0.01862 -0.99484,-0.09443 -0.9975,-0.27997M130.42702,157.50945c-0.17556,-0.17556 -0.40831,-0.3192 -0.51671,-0.3192c-0.29859,0 -1.03807,1.14314 -0.85054,1.31404c0.08978,0.08179 0.21679,-0.00066 0.28196,-0.18287c0.07381,-0.20682 0.3611,-0.27132 0.76143,-0.17091c0.69093,0.17356 0.84123,-0.12369 0.32386,-0.64106M159.61786,157.74021c-0.22078,-0.35777 -0.59451,-0.36508 -0.80997,-0.01596c-0.0911,0.14696 0.0266,0.34181 0.26201,0.43159c0.50939,0.19551 0.79334,-0.01995 0.54796,-0.41563M127.82022,158.63131c0,-0.62377 -0.9862,-0.43624 -1.16242,0.22145c-0.23475,0.87714 -0.19484,1.18636 0.09443,0.7315c0.21613,-0.34048 0.33915,-0.34646 0.83258,-0.0399c0.51338,0.31853 0.55927,0.30856 0.40698,-0.08845c-0.09443,-0.24605 -0.17157,-0.61712 -0.17157,-0.8246M151.82672,160.04443c-0.25602,-0.07381 -0.67498,-0.22011 -0.931,-0.32519c-0.31787,-0.131 -0.4655,-0.06916 -0.4655,0.19418c0,0.56591 0.97822,1.3566 1.45302,1.17439c0.55394,-0.2128 0.51803,-0.87847 -0.05652,-1.04339M296.99622,160.34967c0,-0.27464 -0.17955,-0.49941 -0.399,-0.49941c-0.26932,0 -0.399,0.26932 -0.399,0.83058c0,0.70822 0.05852,0.78204 0.399,0.49941c0.21945,-0.18221 0.399,-0.55594 0.399,-0.83058M127.55422,161.14767c0,-0.12834 -0.18354,-0.23342 -0.40765,-0.23342c-0.42826,0 -0.83524,0.70822 -0.56259,0.98021c0.18953,0.18953 0.97024,-0.41163 0.97024,-0.74679M224.48529,162.04475c0.23075,-0.40365 0.18553,-0.40232 -0.56126,0.01264c-0.37905,0.2108 -0.51205,0.44688 -0.37506,0.66832c0.21746,0.35245 0.4369,0.19351 0.93632,-0.68096M226.50622,161.97825c0,-0.5187 -0.71355,-0.25602 -1.05935,0.38969c-0.28795,0.53798 -0.28861,0.73083 -0.00598,1.07198c0.28861,0.34779 0.25669,0.51272 -0.19485,1.00681c-0.9024,0.9862 -0.99551,1.72967 -0.28994,2.31819c1.12252,0.93565 2.56624,0.30523 1.86666,-0.81463c-0.62643,-1.00349 -0.40232,-2.04887 0.48146,-2.24304c0.4389,-0.09643 0.798,-0.27598 0.798,-0.39834c0,-0.63109 -0.39102,-1.06467 -0.9596,-1.06467c-0.34979,0 -0.6364,-0.1197 -0.6364,-0.266M200.83855,162.24625c-0.21546,-0.34912 -0.58919,-0.34181 -0.80997,0.01596c-0.24538,0.39568 0.03857,0.61114 0.54796,0.41563c0.23541,-0.08978 0.35312,-0.28462 0.26201,-0.43158M171.29925,162.75697c-0.19751,-0.31986 -1.10855,-0.3192 -1.30673,0.00066c-0.08379,0.13632 -0.03059,0.32386 0.1197,0.41629c0.37905,0.23475 1.37389,-0.11505 1.18702,-0.41696M203.89622,163.44125c0,-0.21945 -0.1197,-0.399 -0.266,-0.399c-0.1463,0 -0.266,0.17955 -0.266,0.399c0,0.21945 0.1197,0.399 0.266,0.399c0.1463,0 0.266,-0.17955 0.266,-0.399M173.37937,163.82496c-0.07448,-0.28395 -0.30058,-0.51671 -0.50341,-0.51671c-0.48146,0 -0.47747,0.96491 0.00532,1.15045c0.50074,0.19218 0.66101,-0.0113 0.49809,-0.63374M312.42422,164.09029c0,-0.59651 -0.12236,-0.78204 -0.51604,-0.78204c-0.69493,0 -0.93765,0.46151 -0.51272,0.97289c0.29194,0.35245 0.25403,0.49277 -0.24339,0.89576c-0.58786,0.47614 -0.8093,1.32335 -0.3458,1.32335c0.6005,0 1.08594,-0.36243 1.08594,-0.81063c0,-0.26866 0.1197,-0.56193 0.266,-0.65237c0.1463,-0.09044 0.266,-0.51671 0.266,-0.94696M200.66698,164.50525c-0.48279,-0.51205 -0.94098,-0.91837 -1.01878,-0.90241c-1.5049,0.30191 -2.14928,1.30141 -0.83923,1.30141c1.32136,0 2.42725,0.31853 2.42725,0.69825c0,0.42494 0.42494,0.48811 0.665,0.09975c0.09044,-0.1463 0.04721,-0.266 -0.09576,-0.266c-0.14298,0 -0.65502,-0.41895 -1.13848,-0.931M231.29422,163.97325c0.28528,-0.34381 0.1882,-0.39501 -0.69891,-0.37107c-0.99351,0.02726 -2.22709,0.90107 -2.22709,1.57738c0,0.45486 0.96691,0.27331 1.463,-0.27531c0.26467,-0.2926 0.62776,-0.532 0.80665,-0.532c0.17889,0 0.47415,-0.17955 0.65636,-0.399M308.03522,164.3277c0,-0.17024 -0.16093,-0.36375 -0.35777,-0.42959c-0.22411,-0.07448 -0.32386,0.04721 -0.266,0.32452c0.10307,0.49875 0.62377,0.58653 0.62377,0.10507M147.91918,164.66352c-0.23873,-0.3857 -0.55195,-0.36841 -0.89908,0.04988c-0.49409,0.59584 0.09576,1.22493 0.63906,0.68162c0.24206,-0.24206 0.3591,-0.57124 0.26002,-0.7315M153.30635,165.23675c-0.19152,-1.00615 -2.07812,-0.44555 -2.07812,0.61778c0,0.43624 -0.42095,0.50806 -0.665,0.11372c-0.35977,-0.58187 -0.665,-0.21014 -0.665,0.80864c0,1.11786 0.72086,2.83157 1.44371,3.4314c0.68828,0.57124 0.49276,0.70024 -1.06001,0.70024c-0.98886,0 -1.5561,0.12436 -1.71171,0.37639c-0.33715,0.54596 -0.0246,0.88512 0.45087,0.4901c0.33715,-0.2793 0.48744,-0.23607 0.88378,0.25337c0.26268,0.32452 0.6118,0.58986 0.77605,0.58986c0.16359,0 0.37041,0.1882 0.45819,0.41762c0.12901,0.33582 0.2527,0.2773 0.62975,-0.29792c0.47947,-0.73084 0.55794,-2.34346 0.14697,-3.00913c-0.25004,-0.40432 0.23341,-0.82393 0.95693,-0.83058c0.4921,-0.00466 1.63324,-1.42576 1.36258,-1.69642c-0.32519,-0.32452 -1.14513,-0.16692 -1.14513,0.22011c0,0.45619 -0.78403,0.92103 -1.2635,0.74946c-0.7847,-0.28196 0.25137,-2.46915 1.16907,-2.46915c0.23674,0 0.36309,-0.18953 0.31055,-0.4655M172.44172,165.23675c0.07049,-0.2108 -0.14896,-0.3325 -0.5985,-0.3325c-0.44954,0 -0.66899,0.12169 -0.5985,0.3325c0.06118,0.18287 0.3305,0.3325 0.5985,0.3325c0.268,0 0.53732,-0.14963 0.5985,-0.3325M296.40304,165.91838c-0.12968,-0.38903 -0.57323,-0.5566 -0.81995,-0.31055c-0.34713,0.34713 -0.18155,0.62643 0.37107,0.62643c0.30989,0 0.50806,-0.13965 0.44888,-0.31588M149.14677,167.70656c-0.03458,-0.51604 -0.16226,-1.20631 -0.28329,-1.53349l-0.22011,-0.59517l-0.19085,0.60249c-0.10574,0.33184 -0.49409,0.90573 -0.86383,1.27547c-0.70756,0.7069 -0.663,1.23092 0.0532,0.6364c0.64106,-0.532 1.16574,0.09177 0.70157,0.83458c-0.41363,0.663 -0.4256,0.6517 0.82327,0.84389c1.09659,0.16958 1.24887,-0.03458 0.52069,-0.6936c-0.26268,-0.2374 -0.50607,-0.85452 -0.54065,-1.37056M315.03834,166.469c-0.11704,-0.79468 -0.75212,-0.9842 -0.75212,-0.22411c0,0.46616 -0.07448,0.52469 -0.36375,0.28462c-0.5473,-0.45419 -1.16508,0.34114 -0.70024,0.90174c0.71687,0.86383 1.98502,0.19152 1.81611,-0.96225M171.44422,166.6552c0,-0.23142 -0.18952,-0.42094 -0.42094,-0.42094c-0.23209,0 -0.37373,0.14231 -0.31588,0.31588c0.16425,0.49343 0.73682,0.57522 0.73682,0.10507M253.69009,167.02959c-0.54197,-0.95228 -1.25685,-1.0906 -1.01745,-0.19684c0.08844,0.32917 0.16226,0.86783 0.16426,1.197c0.00399,0.69559 0.32984,0.76608 0.90041,0.19551c0.36043,-0.36043 0.35511,-0.48745 -0.04722,-1.19567M310.56222,168.33299c0,-0.5453 -0.27731,-0.64904 -0.6783,-0.25337c-0.13899,0.13699 -0.59384,0.4256 -1.01147,0.64106l-0.75876,0.39168l0.72684,0.47614c0.8113,0.53134 1.72169,-0.13234 1.72169,-1.25552M226.87264,168.64355c-0.66234,-0.60182 -2.23506,-0.5187 -2.66665,0.14031c-0.29659,0.4522 -0.5832,0.60715 -0.92435,0.49875c-0.67431,-0.21347 -1.34264,1.11388 -0.75012,1.48893c1.06068,0.67099 2.14662,0.30191 1.96441,-0.66833c-0.20415,-1.08728 0.52867,-1.45568 1.87663,-0.94297l0.77606,0.29459l-0.65104,0.32519c-1.05203,0.52402 -0.97223,1.14314 0.17091,1.32867c0.54131,0.08778 1.07863,0.10175 1.19367,0.03059c0.2148,-0.13234 -0.5719,-2.11603 -0.98952,-2.49574M313.1391,169.62309c0.56392,-0.56392 0.19884,-0.97888 -0.66434,-0.75478c-0.71354,0.18487 -0.79999,0.57988 -0.20881,0.95228c0.29859,0.18886 0.54197,0.13367 0.87315,-0.1975M314.53227,169.53531c-0.40166,-0.48412 -0.77805,-0.48013 -0.77805,0.00798c0,0.47681 0.43957,0.7694 0.81063,0.53998c0.19086,-0.11771 0.18088,-0.29127 -0.03258,-0.54796M218.52622,170.62325c0,-0.21945 -0.17955,-0.399 -0.399,-0.399c-0.21945,0 -0.399,0.17955 -0.399,0.399c0,0.21945 0.17955,0.399 0.399,0.399c0.21945,0 0.399,-0.17955 0.399,-0.399M225.62044,172.19664c0.18753,-0.48811 -0.17356,-0.89243 -0.64372,-0.72019c-0.46417,0.17024 -0.41562,0.78669 0.07648,0.97555c0.2374,0.0911 0.47547,-0.01596 0.56724,-0.25536M313.85131,171.95192c0.09244,-0.2414 -0.00133,-0.39767 -0.23874,-0.39767c-0.43025,0 -0.52801,0.41563 -0.15229,0.64771c0.131,0.08113 0.30656,-0.03192 0.39102,-0.25004M221.7395,173.22673c0.43025,-1.13117 0.16425,-1.19168 -0.7468,-0.17091c-0.47215,0.52934 -0.79401,1.06666 -0.71554,1.19434c0.23475,0.37972 1.18037,-0.28196 1.46233,-1.02343M150.29722,173.15025c0.09044,-0.1463 -0.0153,-0.266 -0.23475,-0.266c-0.21945,0 -0.47281,0.1197 -0.56325,0.266c-0.09044,0.1463 0.0153,0.266 0.23475,0.266c0.21945,0 0.47281,-0.1197 0.56325,-0.266M146.0226,173.38633c-0.20216,-0.32784 -0.84455,-0.29526 -1.06001,0.0532c-0.09776,0.15894 -0.05054,0.41696 0.1064,0.57389c0.33184,0.33184 1.19567,-0.23607 0.95361,-0.62709M171.17822,173.6377c0,-0.12169 -0.11238,-0.22144 -0.25004,-0.22144c-0.3611,0 -0.5985,0.46949 -0.32319,0.63906c0.25669,0.1596 0.57323,-0.07116 0.57323,-0.41762M149.00978,174.83204c-0.6384,-0.7335 -1.11653,-0.78936 -1.35859,-0.1596c-0.16558,0.43225 0.43491,1.13781 0.96757,1.13781c0.11837,0 0.21546,0.29925 0.21546,0.665c0,0.48478 0.14231,0.665 0.52535,0.665c0.67298,0 0.4655,-1.37056 -0.34979,-2.30821M173.04022,175.41125c0,-0.21945 -0.12169,-0.399 -0.26999,-0.399c-0.36309,0 -1.32402,1.60664 -1.32534,2.21645c-0.00133,0.77273 0.61778,0.36043 0.85918,-0.5719c0.12036,-0.4655 0.33582,-0.84655 0.47747,-0.84655c0.14231,0 0.25868,-0.17955 0.25868,-0.399M175.49208,176.3908c0.22278,-0.22278 0.23208,-0.39701 0.03059,-0.5985c-0.20083,-0.20083 -0.3345,-0.15095 -0.45819,0.17091c-0.22477,0.58653 0.02195,0.83325 0.4276,0.42759M222.94049,177.86909c0.22809,-0.22809 -1.17173,-1.19035 -1.46632,-1.00814c-0.24472,0.15096 -0.0931,0.33782 0.52535,0.64571c0.47814,0.23873 0.90108,0.40166 0.94098,0.36243M146.75211,177.58048c-0.66035,-0.59717 -0.84388,-0.55461 -0.84388,0.19618c0,0.57589 0.43424,0.9596 1.08594,0.9596c0.41496,0 0.26932,-0.69227 -0.24206,-1.15577M174.39948,178.32063c-0.93698,-0.78803 -1.09326,-0.80399 -1.09326,-0.10972c0,0.3345 0.26068,0.63773 0.68761,0.79999c1.05137,0.39966 1.26616,0.03392 0.40565,-0.69027M170.64622,181.27921c0,-0.44488 -0.37972,-0.7448 -0.62776,-0.49609c-0.31787,0.31787 -0.17157,0.87913 0.22876,0.87913c0.21945,0 0.399,-0.17224 0.399,-0.38304M175.43422,181.23333c0,-0.46483 -0.60448,-0.44023 -2.128,0.08712c-1.50689,0.52203 -1.41379,0.39434 -1.10457,1.51354c0.25004,0.90706 0.23075,0.95627 -0.37972,0.95627c-0.47481,0 -0.64372,0.14563 -0.64372,0.55394c0,0.30524 0.08978,0.51471 0.1995,0.4655c2.57022,-1.14114 2.80896,-1.36258 2.16458,-2.00697c-0.43956,-0.43956 -0.06849,-0.83192 0.97024,-1.02676c0.52602,-0.09842 0.92169,-0.33117 0.92169,-0.54264M144.84422,182.0699c0,-0.22411 -0.10507,-0.40765 -0.23341,-0.40765c-0.33516,0 -0.93632,0.78071 -0.7468,0.97024c0.27199,0.27265 0.98021,-0.13433 0.98021,-0.56259M146.70356,182.85593c-0.36575,-0.4409 -0.95294,-0.5207 -1.17572,-0.1596c-0.22411,0.36309 0.5852,0.90839 1.07198,0.72153c0.35046,-0.13433 0.36974,-0.24073 0.10374,-0.56193M174.10422,185.2752c0,-0.23142 -0.18953,-0.42094 -0.42095,-0.42094c-0.23209,0 -0.37373,0.14231 -0.31588,0.31588c0.16425,0.49343 0.73682,0.57522 0.73682,0.10507M171.59651,189.14151c-0.32718,-0.52934 -0.82659,-0.31587 -1.12784,0.48279c-0.3325,0.8798 0.56924,2.09275 1.33665,1.79816c0.38637,-0.14829 0.26002,-1.52219 -0.20881,-2.28095M298.91674,189.65422c-4.42358,-1.22892 -8.14359,1.92983 -9.73161,8.26129c-1.29808,5.17769 0.1483,8.48474 3.71203,8.48474c0.77406,0 1.48162,0.1197 1.57206,0.266c0.26866,0.43425 0.59252,0.30457 0.75079,-0.30058c0.11105,-0.42361 0.26999,-0.5167 0.62975,-0.36774c1.43241,0.59185 2.61611,0.38237 1.89724,-0.33649c-0.2394,-0.2394 -0.19883,-0.43823 0.17423,-0.8512c0.47281,-0.52203 0.47281,-0.53799 -0.01929,-0.54131c-0.27864,-0.00199 -0.76475,-0.07315 -1.0793,-0.1576c-0.4256,-0.11438 -0.61845,-0.01064 -0.74945,0.40232c-0.18886,0.59518 -0.79202,0.74347 -1.08595,0.26733c-0.29792,-0.4808 1.33997,-1.90922 3.48194,-3.03573c2.56624,-1.34995 2.67264,-1.4783 3.31369,-3.98601c1.12119,-4.38235 0.09576,-7.28241 -2.86615,-8.10502M169.65271,190.93834c-0.55328,-0.93632 -0.86184,-0.95494 -1.66583,-0.10041c-0.68828,0.7335 -0.52402,1.22094 0.24871,0.73815c0.69759,-0.43558 0.85852,-0.12968 0.39834,0.76009c-0.50274,0.97223 -0.05054,1.00814 0.82327,0.06517c0.62842,-0.67764 0.63375,-0.72086 0.19551,-1.463M260.31549,194.24006c-1.78685,-1.20165 -4.82989,-0.64571 -5.96771,1.08993c-0.4655,0.71088 -2.2058,7.65681 -2.4073,9.60726c-0.40499,3.92683 2.01162,5.4663 5.65915,3.60563c3.78385,-1.9305 5.7456,-12.26526 2.71586,-14.30282M167.47883,194.44355c-0.72286,-0.38703 -1.09858,-0.34913 -0.929,0.09376c0.17024,0.44223 1.10922,0.73882 1.31072,0.41363c0.07714,-0.12569 -0.09443,-0.35378 -0.38171,-0.5074M202.49972,197.44204c-1.37389,-1.37389 -4.67695,-0.64306 -5.65649,1.2522c-1.14979,2.2231 0.23408,3.58302 3.01046,2.95925c1.83806,-0.41297 3.61561,-3.24187 2.64604,-4.21144M229.27994,201.76454c-0.76275,-0.76342 -2.17655,-0.53665 -2.78103,0.44622c-1.36524,2.22177 -1.21362,3.92682 0.34913,3.91951c1.79018,-0.00865 3.57836,-3.21927 2.43191,-4.36572M300.97691,206.46675c-0.01396,-0.67897 -0.68229,-1.7842 -0.88245,-1.45968c-0.27598,0.44555 0.12834,1.92517 0.52601,1.92517c0.20083,0 0.36176,-0.20947 0.35644,-0.4655M293.92924,205.61555c0.09776,-0.15827 0.29992,-0.2128 0.44821,-0.12037c0.18221,0.11172 0.17755,0.26068 -0.0133,0.45154c-0.34181,0.34181 -0.68827,0.07781 -0.43491,-0.33117M287.81922,206.66625c-0.2108,-0.34048 -1.197,-0.34846 -1.197,-0.00931c0,0.40299 1.00216,0.85652 1.19633,0.54197c0.09111,-0.14696 0.09111,-0.38636 0.00067,-0.53266M300.98622,207.86325c0,-0.21945 -0.17955,-0.399 -0.399,-0.399c-0.21945,0 -0.399,0.17955 -0.399,0.399c0,0.21945 0.17955,0.399 0.399,0.399c0.21945,0 0.399,-0.17955 0.399,-0.399M281.95592,209.30763c-0.20283,-0.32851 -0.84588,-0.31588 -1.05403,0.02061c-0.2015,0.32652 0.53,0.64571 0.92368,0.40232c0.15561,-0.09643 0.21413,-0.28661 0.13034,-0.42294M283.83853,211.43896c0.27598,-0.44621 1.57073,-0.17689 1.67048,0.3478c0.06849,0.35977 -0.09376,0.4655 -0.71354,0.4655c-0.84522,0 -1.24754,-0.34248 -0.95694,-0.8133M276.1631,224.54145c-1.05535,-0.38105 -1.24488,-0.39434 -1.24488,-0.08379c0,0.38637 1.3433,1.14646 1.75028,0.99018c0.61779,-0.23674 0.43425,-0.56658 -0.5054,-0.9064" fill="#050505" fill-rule="evenodd" stroke-width="1"/><path d="M203.83634,302.37237v-258.25826h3.003v258.25826z" fill="none" fill-rule="nonzero" stroke-width="0"/></g></g></svg>