<svg xmlns="http://www.w3.org/2000/svg" width="327" height="327"><g stroke-miterlimit="10" data-paper-data="{&quot;isPaintingLayer&quot;:true}" style="mix-blend-mode:normal"><path d="M0 327V0h327v327z"/><path fill="#f8f8f8" fill-rule="evenodd" d="M114 75.9c.6-.3 1.3-.4 2.3-.3l10.4.3a141 141 0 0 1 22 1.2l5.8.5c1.2.1 3.6.3 5.5.3 2.4 0 3.6.1 4.1.4.4.2 1.9.4 3.3.5l3.3.4c.4.1 2.3.4 4.1.5 1.9.2 4.1.6 5 .8 2.3.7 8 1.7 11.3 2 4.4.3 6.2.6 7.4 1.2.7.3 2 .7 3.2.8 1 .2 2.6.4 3.3.7.8.2 2 .4 2.7.4.7 0 1.5.2 1.8.4.3.2 1.1.4 2 .4 1.3 0 2.6.3 4.4 1 2 .9 5.7 2 7.5 2.3a42.6 42.6 0 0 1 8.2 2.1c.6.1 1.7.5 2.5 1 1.2.5 1.7.6 3.1.4 1.4 0 1.8 0 2 .3.2.5 2.1 1.4 3 1.4.3 0 1.2.4 2 .8 1.6 1.1 3.1 1.7 4.4 2a6 6 0 0 1 2 .8c.5.4 1.2.7 1.6.7.3 0 1.6.5 2.8 1.2l2.5 1.2 1.8.6 1.7.7 1.4.6c.7.4 1.6.7 2 .8.5.1 1.8 1 3 1.8 1.9 1.6 3.4 2.5 5.3 3.2.4.2 1.8 1.1 3 2.2 1.2 1 2.7 2 3.3 2.3 1.2.6 1.8 1.3 2.3 2.5.2.5.9 1.3 1.5 2a8 8 0 0 1 1.3 1.9c2 5.4 2 5 1.8 8.8 0 2.2-.3 3.7-.5 4l-.5 2-.6 2.4-1 2a6 6 0 0 0-.5 2.1c0 .7-.2 1.2-.9 2-1 1.1-4 7-4.2 8-.1.4-.7 1.5-1.4 2.5a953.5 953.5 0 0 0-4.6 6.4c-.7.5-3 4-3.5 5l-1 1.3c-1.1.8-3.5 3.8-3.7 4.7 0 .4-.5 1-1 1.2-.5.3-1.3 1-1.8 1.8l-3 3.6a13 13 0 0 0-2 2.7c0 .4-2.1 2.4-3.2 3-.4.1-1 .8-1.6 1.5-.5.7-2 2.2-3.2 3.4a12.4 12.4 0 0 0-2.4 2.5 32.2 32.2 0 0 0-4 3.6 303 303 0 0 1-24.5 21.8c-4.7 3.9-6.6 5.3-11 8.6a122 122 0 0 0-7.8 6c-.3 0-1 .4-1.6.8a295.9 295.9 0 0 1-36.7 22c-.3 0-1.6.6-2.9 1.2a177 177 0 0 1-4.4 2 11 11 0 0 0-2.6 1.4 2 2 0 0 1-1.3.5c-.7 0-4.3 1.2-6.8 2.3l-2 .7c-.5 0-2 .5-3.3.9a88 88 0 0 1-20 3.6c-5.2.4-5.9.4-7.8 0l-4-1a54.3 54.3 0 0 1-29.9-19.2l-3.6-4.2c-.7-.7-1.7-2-2-2.8l-1.5-2.5a138.4 138.4 0 0 1-18.7-48.7c-1-5.2-1.3-6.4-1.5-7a8 8 0 0 1-.3-2c0-1 0-2.4-.2-3.3a164.7 164.7 0 0 1-1-25.1 133.3 133.3 0 0 1 5.6-33.4c2-6.3 4.8-12.3 7.6-16.8a9.9 9.9 0 0 0 1.3-2.7c0-.3.8-1.4 2-2.6l3.6-3.9a43 43 0 0 1 11-8.7l3-1.1a93.9 93.9 0 0 1 31-5.2c1.3 0 2.4-.2 3-.4m13.8 8.4H119a96.6 96.6 0 0 0-25.6 2c-3.4.4-7.2 1.3-10 2.6l-2.4 1c-.8 0-3.5 1.5-4.9 2.6a63 63 0 0 0-13 15c-2.4 3.8-5 9.8-5.8 13.6-.5 2.4-.7 3-1.6 5.1-.4.8-.7 1.9-.7 2.4 0 .6-.1 1.5-.4 2-.5 1.3-.5 2.7 0 2.4.5-.1.6 1 .1 1.9-.2.5-.2.6.4 1.1 1.1.9.9 1.6-.3.9-.7-.4-1-.2-.6.5.2.3.3.9.3 1.2 0 .4.1.8.3.9.3.2.3.9 0 .9-.2 0-.4-.3-.6-.6-.4-1.2-.9-1.3-1.2-.1-.1.6 0 .7.4.7.2 0 .6.1.8.3.4.4.4 1 0 1-.1 0-.1-.2 0-.4 0-.3-.1-.4-.6-.4-.6 0-.7.2-.7.7 0 .3-.1.7-.3.8-.4.3-.3 3.9.1 3.9.8 0 1.4-.7.9-1l-.4-.8c0-.7.5-.6 1.3 0 .8.8 1.4.8.8 0-.5-.5-.2-3.1.4-3.7.3-.4.4-.5 0-.7-.2-.2-.2-.3.2-.7.3-.3.5-.8.5-1.2 0-.3 0-1 .2-1.4l1-3c.3-1.3 1.2-3.4 2-4.7l2-3.8c.9-1.8 6-7 8.6-8.7a44.7 44.7 0 0 1 37.2-5 33 33 0 0 1 7.8 5.6c5 5 7 13.2 5.1 20.5-.4 1.6-.8 3.2-.8 3.7l-1 2.4-1 1.8c0 .2-.4.8-1 1.5l-2 2.6a20.5 20.5 0 0 1-8.3 6.5c-4 2-4.4 2.3-3.4 3.8 2.6 3.8 3 9.7 1.3 17.1l-.6 4c-.2 1.2-.4 2.6-.6 3-1.2 3.1-.1 7.3 2.2 8.3 3 1.2 3.1 1.4 3.1 5.4 0 4.1-.6 5.3-3 5.8-5 .9-7.5.6-12-1.4-1-.4-2.8-2.1-3.3-3.2l-.9-1.4c-1.2-1.8-2-6.8-1.5-9.6a169.7 169.7 0 0 0 1.4-9.3c2.4-14 2-17.6-1.5-19.8-3.2-2.1-4.8-1.2-6.3 3.4l-.7 1.6-.7 1.8c-.1.6-.4 1.3-.5 1.4l-.9 2.4-1.3 3.5c-.4.7-1 2.4-1.5 3.8-2.4 7.3-2.7 7.5-11.4 7.9l-4.1.2-.7-.7c-1-1-.6-3.3 1.2-7.2l.6-1.7.3-.8a228.4 228.4 0 0 0 5.8-14.5 54.8 54.8 0 0 0 2.3-5.9 92.8 92.8 0 0 0 4.3-10.5l1.4-3.3c1.4-5 5.3-10.2 9.5-12.6 6.3-3.7 8.6-3.7 10 .2 1.3 3.2.8 4.8-2 7.3-1.9 1.8-5.6 10.6-5 11.8 1.3 2.3 7 2.2 11 0 10.5-6 10.4-21.3-.3-24.7-3.7-1.2-7.7-1-13.8.5-10.8 2.7-18.6 15-15.2 24 .8 2-2.2 5.8-6.9 8.7-1.7 1-4.2-.3-4.7-2.6-.2-1-1.7-1.1-2-.2 0 .3.1.4.5.3.7-.2.8.4.3 1-.5.4-1.3.3-1.7-.4-.6-.9-1.3-1-1.2-.1.1 1-.3 2-.8 2.4-.5.4-.5.4-.1.8.6.6.5 1-.1.7-.7-.3-.7-.3-.5 3.4.3 5.8.4 7.3.8 9.5.3 1.1.4 3.2.4 4.6a31 31 0 0 0 .9 8c.1 1 .5 2.2.8 2.8.4.9.7 2.1 1.3 6 .3 2.1.7 3.5 1.4 5.2.4.8.9 2.4 1.1 3.5a13 13 0 0 0 1 3c.2.5.5 1.1.5 1.5 0 1.1 1.7 4.9 2.6 5.6 1.5 1.2 1.6 1.4 1.9 3a48.8 48.8 0 0 0 15.8 25.2c.5.2 3 2.5 5.5 5 6 6 8.8 7.8 13.8 8.3 1.4.1 1.9.3 2.6 1a6 6 0 0 0 2 1.2 55 55 0 0 0 15.7-.1c.4-.3 1.2-.4 2.9-.4 2.1 0 2.5 0 3.8-.8 1.3-.7 1.8-.8 3.4-.8 2.2 0 4.2-.6 6.3-1.8 2-1 4.6-2 6.4-2.4.9-.2 2.1-.6 2.8-1a20 20 0 0 1 2.3-.9c.5-.1 1.3-.7 1.8-1.3.9-1 1.2-1 2.5-1.2l2-.4c.3-.2.8-.3 1-.3.6 0 1.2-.6 1.5-1.4.2-.5 1-.9 2.9-1.3.8-.2 1.7-.6 2.7-1.5 1-.8 2-1.5 3-1.8.8-.2 1.7-.6 2-.9.4-.3 1.1-.6 1.7-.8.6-.1 2-.9 3-1.6l3-1.7c.5-.2 1.1-.8 1.4-1.2.2-.5.5-.8.7-.7.2.1.6-.2 1-.7.6-.7 1.5-1.2 3-1.8l2.8-1.4c1.4-1 3.9-3 4.6-3.7.8-.7 3.3-2.4 3.7-2.4.2 0 1.3-1 3.3-3.3 1.6-1.8 2.5-2.3 3.2-2 .6.4 1.3 0 1.3-.8 0-.3 1.5-1.6 2-1.6v.8c-.2 1 .3 1.3 1.4.8 1-.4 1-.6 0-1.3l-.6-.5.5-.6c.7-.6 1.5-.4 1.5.5 0 .2.2.3.4.3.3 0 .4 0 .2-.2-.6-.2-.4-1 .2-1.2.4 0 .7-.4 1-1.2.5-1.3 1.6-2.2 2.6-2.2.6 0 1-.4 1-1-.1-.3.4-.9 1-1.4 1.3-1 1.6-1.4.8-1.2-.8.3-1-.3-.4-1 .6-.6.8-.6 1 .1.3.6.3.6.8.1.2-.2.4-.6.3-.8-.3-.7.5-1.3 1.3-1 .5.4.7.4 1 .2.5-.4.8-.1.4.4-.5.6.2 1 1 .5.5-.2 1-.3 1.2-.2l1 .5c1 .6 1.8.4 2.2-.5.2-.4.5-.8.8-1 .5 0 2-1.9 1.8-2-.5-.6-1.4-.3-1.3.4 0 .5-.1.7-.5.9-.3 0-.7.3-.9.5-1.1 1-1.8 1.3-2.5.7-.4-.3-.8-.4-1.2-.4-.4.2-.5 0-.4-.2 0-.2.4-.4.7-.4.9-.2.7-2.1-.2-2-.8 0-2-.4-2.7-1-.8-.6-1.2.3-.5 1.1.8 1 .6 1.7-.5 1.6-.5 0-.9 0-.9.2s-.2.3-.5.3c-.4 0-.5-.2-.5-.8 0-1-.5-1-.8-.2-.5 1.3-2 1.8-2.8 1-.6-.8-1.2-.4-.7.5.4.7.1 1.6-.4 1.6s-2.1-1.7-2.6-2.8c-.6-1.2-.9-1.2-1 0-.3 1.1-1 2-1.4 1.5-.5-.5-.8-.3-.6.4.2.6.1.7-.2.6h-.6c0 .2 0 .3.2.3.7 0 1.1.7.6 1-.8.2-1.2 0-1.2-.5 0-.4 0-.5-.3-.2-.3.2-.5.2-.8-.1-.6-.6-.9-.6-1.3.2-.3.7-.3.8.2 1.2.4.3.6.6.6.7 0 .2.2.4.5.5.3.1.3.2 0 .5-.2.3-.4.4-.6.2-.2-.2-.5-.1-.8.1-.8.6-2.5.5-2.7-.1 0-.3-.3-.6-.5-.6-1.1 0-1.2-2.7-.3-7 .3-1.3.1-1.2-1.3.9-4.2 6.4-13.2 10.1-24.2 10.1-1.8 0-2 0-2.7-.6-.8-.9-.8-.9-1.7 0-1.8 1.7-4.8 1-8.7-1.9-4.6-3.5-6.7-3.2-12.3 1.7-4 3.5-6 4.4-8 3.4-.7-.2-.8-.2-1.3.4-.7 1-2.9 1.4-4.5 1-2.4-.5-4.1-2.2-6.3-6.1-1.7-3-1.9-3.3-3.2-3.1-1.3.2-3.6 2.4-3.6 3.6 0 2.3-3 6.4-5 6.8-3 .5-5.2-.8-4.9-3a355 355 0 0 1 2.5-15.9c1.8-9 2-9.5 3.6-11.2 1.7-1.8 2.6-2.1 7.6-2.5l6.2-.5c7-.8 12 2 12 6.8 0 1.9-.7 3.3-3 7.1-2.8 4.5-3 6.4-1.4 9.8 1 2.4.8 2.5 3.4-2.6a269 269 0 0 1 8.6-16.3c2.9-5.3 3-5.6 6-7 4.4-2.2 8.8-.2 9.5 4.3a63.9 63.9 0 0 0 1 6.1 233 233 0 0 0 2 9.9 70 70 0 0 0 2.2-9.3 54.2 54.2 0 0 1 2.1-8.8c1.1-4.2 4.5-5.7 13.3-5.7 7.7 0 13.3 3 13.3 7l.2 1.2c.3.7.6.5.6-.4 0-.8 1-4 1.8-5.7 1.3-3 6.9-4.3 8.6-2 .5.5.5.8.4 2.6-.2 2.3-.4 2.4 2.2-.1 8.2-8 20.1-9 25.6-2 .6.8 1.2 1.8 1.3 2.2.2 1.2 1.5.4 3-1.8a56 56 0 0 1 2.8-3.2c2.9-3 5-5.7 4.8-5.8l-1.4.2a17.4 17.4 0 0 1-12.3-1.7c-2.2 0-5.4-8.3-4.8-12.5.6-4.4 1.3-5.2 4.6-5.8 4.7-1 8.5-5.2 8.9-10 .2-3-1.6-3.8-4.9-2-1.8 1-5.8 4.8-6.5 6.3-.7 1.4-.6 1.2-2.3 5.5a1195.3 1195.3 0 0 1-6.5 17c0 .7-1.8 3.7-2.4 4.2-.5.4-1.6.6-4 .8-9.3.8-9.7.8-9.5-2.2l.2-1.5-1.5.8-2.2 1.3c-9.2 6.5-27 7.2-32.3 1.3a18.3 18.3 0 0 1-3-15.9c.3-.8-.3-.8-1.2.1-.7.7-5.6 3.3-6.2 3.3-.6 0-1 .9-1.7 2.7a25.3 25.3 0 0 1-4.8 8l-.7.8a34.3 34.3 0 0 1-5.7 5.4c-6.8 4.5-18 5.8-23.7 2.7a13.5 13.5 0 0 1-6.7-7.5 28.6 28.6 0 0 1 0-14c.1-1 .6-2.4 1-3.2l.7-1.9c0-.6 1.3-3.1 2.7-5.2l2-2.8a31.8 31.8 0 0 1 14.7-9.6c5.4-1 11-1.1 13.4-.2 6.3 2.4 9.5 7.2 9.6 14.2 0 2.4 0 2.8.5 2.9 1.2.2 4.6-3 7.3-7 1.3-1.8 2.3-3 3.2-3.7l2.8-2.3 3.6-2.8a29.5 29.5 0 0 1 9-5.2c.8-.4 1.9-.6 4.2-1 3.3-.7 4.7-.8 6.2-.6l3.1.4c3 0 6.1 2 7.5 4.7 1.6 3 2 5.5 1.3 8.5l-.7 3.4c-.8 4.7-2.6 6.2-8 6.5l-3.7.3c-3.6.3-5.3-1.4-4-3.9 3.1-5.8 2-9.2-2.2-6.5-5.4 3.5-11 16.3-9 20.5 2.2 4.9 14.6 3.6 22.7-2.4a38.6 38.6 0 0 0 11.8-17 157.3 157.3 0 0 1 4.5-11.5 102.1 102.1 0 0 1 3.9-9.7l.7-2a149.8 149.8 0 0 0 2-5.3c0-1.3 2.1-4.5 3.2-4.8a54 54 0 0 1 8.1-.6c2 0 2.7-.1 2.7-.4a143.6 143.6 0 0 0-28-9.9c-2-.8-9-2.5-11-2.5l-4-1a88.1 88.1 0 0 0-17.2-3.6c-1 0-2.4-.3-3-.6a36 36 0 0 0-9-1.4c-1.5 0-2.5-.2-2.9-.4a143.5 143.5 0 0 0-19.3-2.3c-5.8-.2-10.4-.6-12.8-1-1-.3-4-.3-7.1-.3m118.8 25c-3.5-1.8-3.6-1.9-2.9-1 .8 1 .2 4.2-1.5 7.6l-2 4.5-1.8 4.8c-1 2.4-.2 2.8 2.4 1 12.4-8 23.1-3.4 18.6 8-.3.7-1 2.2-1.3 3.4-.8 2.2-2.7 5.8-4.3 8-1.4 2-5.4 5-8 6.2-3.6 1.6-2 7.2 2 7.2 5 0 14.8-10 17-17.3 2.8-9.2 3-12.5.8-16.8a20.3 20.3 0 0 0-5.6-6.8 56.2 56.2 0 0 0-13.4-8.8m-138.3 9.5c0-.3-.4-.3-.6 0-.3.5 1.1 1.3 1.5.9.2-.3.2-.4-.3-.5-.3 0-.6-.2-.6-.4m121.8 5.6c.3-1.2 0-1.4-.5-.2-.8 1.9-.1 3.8 1 3.2l1-.4c.7-.3 0-1-.8-.8-.8.2-1-.4-.7-1.8m4 1c0-.2 0-.3-.2-.4-.2 0-.3.1-.3.4 0 .2.1.4.3.3.2 0 .3-.2.3-.3m-164 1.7c0-.2-.2-.3-.6-.3-.8 0-.8.2-.1.4l.7-.1m178.5 1c0-.7-1-1-1.9-.5-.6.4-.5 1 .2 1.3.5.2.7.5.7.9 0 .3.1.5.3.4.2 0 .3-.4.3-.8s0-.7.2-.7.3-.3.2-.6m3.8 0c0-.3-.1-.5-.3-.5l-.2 1c0 1.4-.6 2-1.1 1-.4-.7-.8-.8-.8-.2 0 .2-.1.4-.3.4-.4 0-.3.7.2.9.5.2.5.6-.2 1.2-.5.4-.5.5-.2 1 .3.7.1 1.1-.6 1.1-.3 0-.5-.1-.4-.5 0-.3 0-.6-.2-.6s-.3.3-.4.8c0 .7 0 .8.5.8.6 0 1.4 1 1.2 1.4-.1.3 0 .5.5.6.8.2 1 1 .2 1-.3 0-.6.1-.6.4 0 .2-.3.4-.8.5-.6.2-.8.3-.7.7.1.4 0 .6-.6.8-.6.2-.8.4-.7.7l.2.5c0 .4.8 0 1-.4.3-1.2 2.7 0 2.7 1.3s.8.8 1.3-.8c.4-1.4 0-2-.8-1.2-.7.7-1 .3-.3-.5.5-.9 1.4-.8 1.8 0 .5 1 1 1.4.8.6l-.2-1.5c0-.5 0-.9-.2-.9s-.3-.1-.3-.4c0-.2.3-.4 1-.4 1.4 0 1.5-.1.9-1.1-.5-.8-.3-1.7.3-1.4.3.2 1-.3 1-.7 0-.1-.1-.2-.3-.2-.2 0-.4-.1-.4-.5 0-.3-.4-.6-.9-.8-1-.3-1-.8 0-.9.3 0 .5-.2.5-.3 0-.2-.2-.3-.4-.3s-.3-.1-.2-.4c.1-.4 0-.5-.5-.5-.7 0-.7-.1-.6-.7.1-.6 0-.7-.4-.7-.3 0-.5-.1-.5-.4M112 129.7c.2 0 .2-.4 0-.8-.3-.7-.4-.7-.7-.4-.3.4.2 1.4.7 1.2m143.5-.3c.2-.5-.5-1.1-.7-.7-.1.2 0 .5.2.7.3.4.4.4.5 0m-25.3.6-1.2-.6c-.7-.2-.5.6.2.9l.8.6c0 .3.2.3.5 0s.2-.5-.3-.9m-114.4.5c0-.2-.2-.5-.4-.5s-.4.2-.4.4.2.4.4.5c.3.1.4 0 .4-.4m133 1c-.2-.6-.9-.8-1.3-.4-.5.6-.4.8.5.8.6 0 .8-.1.7-.5m-2.9.5c0-.2-.1-.3-.3-.3-.3 0-.4.1-.4.3 0 .2.2.3.4.3l.3-.3m-47.9.3c-.3-.3-.7-.4-.7-.2 0 .3.6 1.5.8 1.5.4 0 .3-1 0-1.3m48.6.6c0-.2 0-.4-.2-.4-.3 0-.7.8-.5 1 .3.2.8-.2.8-.6m-17.2 1.2c0-.2-.2-.4-.4-.5-.2 0-.3 0-.2.4 0 .5.6.6.6 0m-32.3.1c-.7-.4-1.4 0-1.9 1.1-.4 1.1 0 1.1 1.2.1.9-.8 1-1 .7-1.2m4.2.4c-1-.6-1.8-.1-1.5.8.3.6 1.8.5 1.8-.1 0-.3-.2-.6-.3-.7m4.1.9c-.1-.2-.3-.2-.7 0-.2 0-.6 0-1 .2-.5 0-.8.3-.7.6 0 .4-1.5 1-1.6.6-.2-.5-.9-.3-.9.1 0 .6-.6 1.2-1.2 1.2-.8 0-1.3.7-1 1.1.3.3.4.3.7 0 .2-.2.6-.3 1-.3.3 0 .8-.1 1-.3.9-.5 1.5 0 1.6 1.2.1 1.1.6 1.4 1.5 1 .8-.4 1-1 .2-.8-.9.3-1.3-.8-.6-1.4.6-.5 2-2.9 1.7-3.2m43.3.5c-.7-.8-1.1.7-.5 1.9.3.5.4.6.6.2l-.1-.6c-.2 0-.2-.4 0-.7.1-.4.1-.7 0-.8m-164.4.7c0-.5-.7-.5-1 0-.3.4-.3.5-.1.8.3.3 1-.2 1-.8m162.9 0c0-.2-.2-.4-.6-.4-.6 0-.5.7.1.8.3 0 .5 0 .5-.3m-49.4 0c-.1-.2-1.2-.3-1.2 0l.5.5c.4.5 1 0 .7-.5m33.2 0c0-.5-.8 0-2 1.1-.7.8-1.2 1.4-1 1.5.3.1 3-2.2 3-2.6M113 138.4c0-.6-.2-.8-.6-.5-.3.4-.2 1.2.2 1.2.3 0 .4-.3.4-.7m93.7 0c0-.2-.2-.4-.4-.4-.3 0-.4.2-.4.5 0 .4 0 .5.4.4.2 0 .3-.3.3-.5m-121.4.7c-.2-.7-.7-.7-1.2-.2-.4.6-.1 1.2.5 1.2.7 0 1-.4.7-1m25.5-.2-.3-.3c-.3 0-.8.2-.8.5s1 .2 1-.2m76.6.3c0-.2 0-.4-.2-.4s-.3.2-.3.4.1.4.3.4l.2-.4m-105.3.4c0-.1-.2-.3-.4-.3s-.4.2-.4.3c0 .1.2.3.4.3s.4-.2.4-.3m143.4.6c.3-.3.3-.4 0-.7-.2-.2-.3-.1-.3.4s0 .5.3.3m-92.1.8c-.2-.8-1-.7-1 .1 0 .2.2.4.5.4.4 0 .5-.2.5-.5m69 .5c-.7-1.3-2.2-1.7-1.8-.5.2.6 1.4 1.8 2 1.8.4 0 .4-.1-.3-1.3m-46.1 0c-.9-1.3-1.6-.8-2 1.3 0 1-.2 1.4-.7 1.6l-.9.6c-.3.4-.4.4-.7.2-.3-.3-.4-.3-.4 0 0 .6.7 1.1 1.2 1 .3 0 .5 0 .6.2.1.3-1.3.8-2 .7-.2 0-.3.2-.3.4 0 .6-.8 1.4-1.3 1.4-.4 0-.4.7.1 1.7l.7 1.2c.3.7 3.1.6 3.6-.2.5-.7 1-.7 1.4-.1l1 .6c1 .4.7.9-.5.7-1.4-.3-1.3.3 0 .7 1.7.4 2.3-1.3.9-2.4-.4-.3-.4-.4 0-.7.3-.2.5-.6.5-1 0-.6.8-1 1.4-.7.6.3.9 0 .4-.4-.1-.3-.7-.5-1-.5-.7 0-1-.1-1-.5 0-.3-.3-.5-.4-.5-.1 0-.2-.1-.2-.3 0-.1.1-.2.3-.2.2 0 .6-.2.8-.5.3-.4.2-.4-.9-.2-2 .3-2.5.3-2.6-.2 0-.3.2-.5.7-.6 1-.3 1.5-.7 1.3-1.1l.1-1c.2-.3.2-.6-.1-1.1m43.7.3c0-.6-.4-.8-.6-.3-.2.6-.2.7.2.7.3 0 .4-.2.4-.4m6.8-.4c-.2-.4-.7-.4-1.2 0-.3.2-.2.2.5.2.5 0 .8 0 .7-.2m-125.3 1c.2-.3.2-.6 0-.8-.2-.1-.4 0-.6.3-.2.4-.5.5-1 .4-.4-.2-.5-.2-.1.2.4.6 1.3.5 1.7-.1m54.9 0v-.7c-.1-.4-.1-.4-.3 0-.2.5 0 1 .3.7m47-.7c-.3-.5-1.3-.4-2.2.3l-1 .7c-.3 0-.2.3.1.8.6.7 1.4.4 1.4-.6 0-.4.1-.5.5-.3.7.2 1.4-.3 1.2-.9m-38.7.4c0-.2-1.5-.3-2.1 0-1 .4-3.3 2.4-4 3.6l-1.4 2a31 31 0 0 0-3.3 6.6c-.6 1.3-1.4 3.6-1.8 5.8l-.7 2.9c-.3.8 0 3 .5 3.9 1.7 3 5.8 2 7.5-2.1l1-2.2c.5-.6 1-1.7 2.2-4.4l.6-1.4-1.1-1.2c-.6-.7-1.1-1.4-1.1-1.7l-.6-1.4c-1.7-2.7-.2-7.2 3-9.3l1.3-1m8.4.8c0-.8-.1-1-.7-1-.8-.2-1 0-.9.8.2.6 0 .7-.7.7-.5 0-1 .3-1 .5 0 .3 0 .3.5.2a9 9 0 0 1 1.7-.3c1 0 1 0 1-1m5-.4c-.2-.7-.8-.3-.8.5 0 .3.1.5.2.5.4 0 .8-.6.7-1m91.2.7c.3-.4.4-.8.2-.9-.3-.2-1.4 1.3-1.1 1.6.3.3.5.1 1-.7m-164.8-.1c0-.5-1-.5-1.7-.1-.6.4-.6 1.3 0 1.3.3 0 .6-.2.7-.4.2-.4.2-.4.7 0 .5.4 1.4.5 1.4.1 0-.2-.3-.4-.6-.4-.3-.1-.5-.3-.5-.5m120 .3c-.4-.5-.3-.6-1 .2-.8 1-.4 1.4.7 1 .9-.4 1-.6.4-1.2m-72.5.5c0-.6-.4-.7-.8-.3-.2.3-.2.5 0 .9l.4 1c.2.6.7.4 1.3-.6l.5-.9-.7.2c-.5.1-.7 0-.7-.3m50.6.5c.2-.5-.4-1-.8-.6-.2.2-.3.5-.3.7 0 .4 1 .4 1.1 0m18.8.4c0-.2 0-.3-.2-.3-.4 0-.7.7-.5 1 .2.2.7-.2.7-.7m-66 .2c0-.3-.3-.4-.6-.1-.4.4-.2 1 .3.6l.4-.5M55 146c-.5-.4-.7-.3-1 .1-.4.5-.2 1 .5 1s1-.8.5-1.1m24 .8c0-.5-.2-.8-.4-.8s-.4.2-.4.5l-.2.6c-.5.5-.3 2.6.3 3.4.8 1.1.8 1.6 0 2.5-.8.8-.9.8-1.3.2-.3-.3-.5-.4-.7-.1-.3.2-.3.4 0 .7.1.2.2.6.1.9-.2.8.3 1 1.5.3s1.6-.5 1.7.6c0 .4.2.7.6.7.8.1 1-.5.6-1.3s0-1.2.9-.5c.8.6 1.3.7 1.3.2 0-.4 1.2-1.8 1.5-1.8.2 0 .3-.2.3-.4s-.1-.4-.3-.4c-.2 0-.6.2-.7.4-.6.6-1.4.5-1.4-.2 0-.5.2-.7.7-.8 1.1-.3 1.3-1.2.3-1.5-1.6-.6-2.6-2.1-1.1-1.7.8.2.8 0 .3-1-.4-.5-1-.5-1.7 0-.2.3-.3.4 0 .7v.5l-.5-.1c-.2-.5-1.2-.3-1 .1 0 .2.3.4.5.4s.5.4.7 1c.2.7.5.9.8.8h.6c.2.3-1.3 2-1.7 2-.3 0-1-1.8-1-2.5 0-.3-.3-.8-.5-1-.4-.5-.4-.7-.2-1.1.2-.3.4-.9.4-1.3m5.3 0c-.4-.9-1.3-1-1.3-.4s.8 1.7 1.2 1.7c.5 0 .6-.6.1-1.4m137.9.5c-.2-.5-.4-.5-1 0-.5.4-.5.4.3.4.6 0 .8-.1.7-.4m-169.4.5c0-.3-.2-.5-.4-.6-.2 0-.3.2-.3.6 0 .5.1.7.3.6.2 0 .4-.3.4-.6m77.6 0c0-.5-.3-.7-.5-.4 0 .1-.3.2-.6.1-.5-.1-1.2.8-1 1.3.1.2.8.2 1.6.2 1.1-.1 1.5 0 1.5.2s-.1.3-.3.3c-.1 0-.3.2-.3.4 0 .6.6.5.8 0 0-.3.3-.6.5-.7.8-.5.4-1.2-.7-1.2-.6 0-1 0-1-.2m-74.4 1c-.1-.2-.4-.3-.5-.3-.3 0-1 1.1-.8 1.3 0 0 .2 0 .3-.2 0-.2.3-.3.7-.2.7.2.9 0 .3-.6m29.2.2c-.2-.3-.6-.3-.8 0 0 .2 0 .4.3.4.5.2.8 0 .5-.4m-31.8 1c0-.7-1-.5-1.1.1-.3 1-.2 1.2 0 .8.3-.4.4-.4.9 0 .5.3.6.2.4-.2l-.2-.8m24 1.4-.9-.3c-.3-.1-.5 0-.5.2 0 .6 1 1.4 1.5 1.2.6-.2.5-.9 0-1m145.1.2c0-.2-.2-.5-.4-.5-.3 0-.4.3-.4.9 0 .7 0 .8.4.5.2-.2.4-.6.4-.9m-169.4.8-.4-.2c-.5 0-.9.7-.6 1 .2.2 1-.4 1-.8m96.9 1c.2-.5.2-.5-.6 0-.3.2-.5.4-.3.6.2.4.4.2.9-.7m2 0c0-.6-.7-.3-1 .4-.3.5-.3.7 0 1 .2.4.2.5-.2 1-1 1-1 1.8-.3 2.4 1 .9 2.5.3 1.8-.9-.6-1-.4-2 .5-2.2.5-.1.8-.3.8-.4 0-.6-.4-1-1-1-.3 0-.6-.2-.6-.3m-25.6.2c-.3-.3-.6-.3-.9 0-.2.4 0 .7.6.5.2-.1.3-.3.3-.5M97 154c-.2-.3-1.1-.3-1.3 0l.1.5c.4.2 1.4-.2 1.2-.5m32.6.7c0-.2-.1-.4-.3-.4l-.2.4.2.4c.2 0 .3-.2.3-.4m-30.5.4c0-.3-.3-.5-.5-.5-.5 0-.5 1 0 1.1.5.2.7 0 .5-.6m139 .3c0-.6 0-.8-.5-.8-.7 0-1 .5-.5 1 .3.3.3.5-.2.9-.6.4-.8 1.3-.4 1.3.6 0 1.1-.4 1.1-.8 0-.3.1-.6.3-.7l.2-1m-111.7.5-1-1c-1.5.4-2.2 1.4-.9 1.4 1.3 0 2.5.3 2.5.7 0 .4.4.5.6 0 .1 0 0-.2 0-.2-.2 0-.7-.4-1.2-1m30.6-.4c.3-.4.2-.4-.7-.4-1 0-2.2.9-2.2 1.6 0 .4 1 .2 1.4-.3.3-.3.7-.5.9-.5l.6-.4m76.7.3c0-.2-.1-.3-.3-.4-.2 0-.3 0-.3.3.1.5.6.6.6.1m-160 .4c-.3-.4-.6-.4-1 0-.5.6.1 1.2.7.7.2-.3.3-.6.2-.7m5.4.5c-.2-1-2-.4-2 .6 0 .5-.5.6-.7.2-.4-.6-.7-.3-.7.8 0 1 .7 2.8 1.5 3.4.6.6.4.7-1.1.7-1 0-1.6.1-1.7.4-.4.5 0 .9.4.5.4-.3.5-.3 1 .2.2.3.5.6.7.6.2 0 .4.2.5.4 0 .4.2.3.6-.3.5-.7.5-2.3.1-3-.2-.4.3-.8 1-.8.5 0 1.6-1.4 1.3-1.7-.3-.3-1.1-.2-1.1.2 0 .5-.8 1-1.3.8-.7-.3.3-2.5 1.2-2.5.2 0 .4-.2.3-.5m19.2 0c0-.2-.2-.3-.6-.3-.5 0-.7.1-.6.3 0 .2.3.4.6.4.2 0 .5-.2.6-.4m124 .7c-.2-.4-.7-.6-.9-.3-.4.3-.2.6.4.6.3 0 .5-.1.4-.3M75 159l-.3-1.5-.2-.6-.2.6a4 4 0 0 1-.9 1.2c-.7.8-.7 1.3 0 .7.7-.6 1.2 0 .8.8-.5.7-.5.7.8.9 1 .1 1.2 0 .5-.7-.3-.3-.5-.9-.5-1.4m165.9-1.2c-.2-.8-.8-1-.8-.3 0 .5 0 .6-.4.3-.5-.4-1.1.4-.7 1 .8.8 2 .1 1.9-1m-143.6.1c0-.2-.2-.4-.5-.4-.2 0-.3.2-.3.3.2.5.8.6.8.1m82.2.4c-.5-1-1.3-1-1-.2l.2 1.2c0 .7.3.8.9.2.3-.3.3-.5-.1-1.2m56.9 1.3c0-.5-.3-.6-.7-.2l-1 .6-.8.4.8.5c.8.5 1.7-.2 1.7-1.3m-83.7.3c-.7-.6-2.2-.5-2.7.2-.3.4-.6.6-.9.5-.7-.2-1.3 1-.8 1.5 1.1.6 2.2.3 2-.7-.2-1.1.5-1.5 1.9-1l.8.3-.7.4c-1 .5-1 1.1.2 1.3h1.2c.2-.1-.6-2-1-2.5m86.3 1c.5-.6.2-1-.7-.7-.7.1-.8.5-.2 1 .3.1.5 0 .9-.3m1.3 0c-.4-.6-.7-.6-.7 0 0 .4.4.7.8.5.2-.1.2-.3 0-.6m-96 1.1c0-.2-.2-.4-.5-.4-.2 0-.4.2-.4.4s.2.4.4.4c.3 0 .4-.2.4-.4m7.1 1.6c.2-.5-.1-1-.6-.7-.5.1-.4.8 0 1 .3 0 .5 0 .6-.3m88.3-.3c0-.2 0-.4-.3-.4-.4 0-.5.5-.1.7.1 0 .3 0 .4-.3m-92.1 1.3c.4-1.1.1-1.2-.8-.2-.5.6-.8 1.1-.7 1.2.2.4 1.2-.2 1.5-1m-71.5 0c.1-.2 0-.3-.2-.3s-.5 0-.6.2c0 .2 0 .3.2.3.3 0 .5-.1.6-.3m-4.3.3c-.2-.4-.8-.3-1 0v.6c.4.3 1.3-.2 1-.6m25.2.2c0-.1-.1-.2-.3-.2-.3 0-.6.5-.3.6.3.2.6 0 .6-.4M74.7 166c-.6-.7-1-.8-1.3-.1-.2.4.4 1.1 1 1.1l.1.7c0 .4.2.6.6.6.6 0 .4-1.3-.4-2.3m24 .6c0-.2 0-.4-.2-.4-.4 0-1.3 1.6-1.3 2.2 0 .8.6.4.8-.6.1-.4.4-.8.5-.8.1 0 .3-.2.3-.4m2.4 1c.2-.2.2-.4 0-.6-.2-.2-.3-.2-.4.2-.2.5 0 .8.4.4m47.5 1.5c.2-.3-1.2-1.2-1.5-1-.3.1-.1.3.5.6l1 .4m-76.2-.3c-.7-.6-.9-.6-.9.2 0 .5.5 1 1.1 1 .4 0 .3-.8-.2-1.2m27.6.7c-1-.8-1-.8-1-.1 0 .3.2.6.6.8 1 .4 1.3 0 .4-.7m-3.7 3c0-.5-.4-.8-.7-.5-.3.3-.1.8.3.8.2 0 .4-.1.4-.3m4.7 0c0-.5-.6-.5-2 0-1.6.5-1.5.4-1.2 1.5.3 1 .2 1-.4 1-.4 0-.6.1-.6.5 0 .3 0 .5.2.5 2.6-1.1 2.8-1.4 2.2-2-.5-.4-.1-.8 1-1 .5-.1.8-.4.8-.6m-30.5.9c0-.3-.1-.4-.3-.4-.3 0-1 .7-.7 1 .2.2 1-.2 1-.6m1.8.7c-.3-.4-1-.5-1.2-.1-.2.3.6.9 1.1.7.4-.1.4-.2.1-.6m27.4 2.5c0-.3-.2-.5-.4-.5s-.4.2-.3.4c.1.5.7.5.7 0m-2.5 4c-.3-.6-.8-.4-1.1.4-.4.9.6 2.1 1.3 1.8.4-.1.3-1.5-.2-2.3m127.3.5c-4.4-1.2-8.1 2-9.7 8.3-1.3 5.2.1 8.5 3.7 8.5.8 0 1.5.1 1.6.3.3.4.6.3.7-.3.1-.5.3-.6.7-.4 1.4.6 2.6.4 1.9-.4-.3-.2-.2-.4.1-.8.5-.5.5-.5 0-.5l-1-.2c-.5-.1-.7 0-.8.4-.2.6-.8.7-1.1.3-.3-.5 1.3-2 3.5-3 2.5-1.4 2.7-1.5 3.3-4 1.1-4.4 0-7.3-2.9-8.2m-129.2 1.3c-.6-1-.9-1-1.7 0-.7.7-.5 1.1.2.7.7-.5 1-.2.4.7-.5 1 0 1 .9 0 .6-.6.6-.6.2-1.4m90.6 3.3c-1.8-1.2-4.8-.6-6 1.1-.4.7-2.1 7.7-2.3 9.6-.5 4 2 5.5 5.6 3.6 3.8-1.9 5.8-12.2 2.7-14.3m-92.8.2c-.7-.4-1.1-.3-1 .1.2.5 1.2.8 1.4.4 0 0-.1-.3-.4-.5m35 3c-1.4-1.3-4.7-.6-5.6 1.3-1.2 2.2.2 3.6 3 3 1.8-.5 3.6-3.3 2.6-4.3M155 193c-.8-.8-2.2-.6-2.8.4-1.4 2.2-1.2 4 .4 4 1.8 0 3.5-3.3 2.4-4.4m71.7 4.7c0-.7-.7-1.8-.9-1.5-.3.4.1 2 .5 2 .2 0 .4-.3.4-.5m-7-.9c0-.2.2-.2.4-.1.2 0 .2.2 0 .4-.4.4-.7.1-.5-.3m-6 1c-.3-.3-1.3-.3-1.3 0 0 .4 1 .9 1.2.6v-.5m13.2 1.2c0-.3-.2-.4-.4-.4s-.4.1-.4.4c0 .2.2.3.4.3s.4-.1.4-.3m-19 1.4c-.2-.3-.9-.3-1 0-.3.3.4.7.8.4.2 0 .3-.3.2-.4m1.9 2.1c.2-.4 1.5-.2 1.6.4 0 .3 0 .4-.7.4-.8 0-1.2-.3-1-.8m-7.6 13.1c-1-.4-1.3-.4-1.3 0 0 .3 1.4 1 1.8 1 .6-.3.4-.6-.5-1"/><path fill="#050505" fill-rule="evenodd" d="M40.5 179.5v-133h266v266h-266v-133m86.2-103.6c-5 0-9.6-.2-10.4-.3-1 0-1.7 0-2.3.3-.6.2-1.7.4-3 .4a361.1 361.1 0 0 1-11.3.8 93.9 93.9 0 0 0-24.5 6.3L73.1 85a43 43 0 0 0-7 6.3l-3.7 4c-1.2 1.1-2 2.2-2 2.5 0 .3-.5 1.5-1.3 2.7a79.6 79.6 0 0 0-10 24.9 133.3 133.3 0 0 0-3.6 28 164.7 164.7 0 0 0 1.6 25.6c0 .9.2 1.8.3 2.1.2.6.5 1.8 1.5 7l1.8 8.3a156.3 156.3 0 0 0 8.4 24.5A138.4 138.4 0 0 0 71 242l3.6 4.2a54.3 54.3 0 0 0 33.9 20.1c2 .5 2.6.5 7.8.1a88 88 0 0 0 25.3-5.2c2.5-1 6.1-2.3 6.8-2.3.4 0 1-.2 1.3-.5.3-.3 1.4-1 2.6-1.4a177 177 0 0 0 7.3-3.1l.8-.4c.2-.3 2-1.3 4-2.3a193.8 193.8 0 0 0 15.3-8.4c.4-.1 1-.5 1.4-.8.4-.4 1.4-1 2.2-1.5A296 296 0 0 0 198 231a122 122 0 0 1 7.9-6 317.2 317.2 0 0 0 20.7-16.7c5.9-5.2 8.6-7.7 14.8-13.7a32.2 32.2 0 0 1 4-3.6c0-.2 1-1.4 2.3-2.5 1.3-1.2 2.7-2.7 3.2-3.4.5-.7 1.2-1.4 1.6-1.6 1-.5 3.2-2.5 3.2-3 0-.2 1-1.4 2-2.6l3-3.6c.5-.7 1.3-1.5 1.8-1.8.5-.3 1-.8 1-1.2.2-1 2.6-4 3.6-4.7.4-.2 1-.9 1.1-1.4.4-1 2.8-4.4 3.5-4.9.3-.2 1.1-1.3 2-2.5l2.6-4c.7-.9 1.3-2 1.4-2.3.2-1.1 3.3-7 4.2-8.1.7-.8 1-1.3 1-2 0-.5.1-1.4.4-2l1-2.1.6-2.4c0-.8.3-1.6.5-2 .2-.3.4-1.8.5-4 .2-3.8.3-3.4-1.8-8.8a8 8 0 0 0-1.3-2 9.4 9.4 0 0 1-1.5-1.9 4.6 4.6 0 0 0-2.3-2.5l-3.3-2.3-3-2.2c-2-.7-3.4-1.6-5.4-3.2-1.1-.9-2.4-1.7-2.9-1.8-.4 0-1.3-.4-2-.8l-1.4-.6-1.7-.7-1.8-.6-2.5-1.2c-1.2-.7-2.5-1.2-2.8-1.2-.4 0-1-.3-1.6-.7a6 6 0 0 0-2-.9c-1.3-.2-2.8-.8-4.5-1.9-.7-.4-1.6-.8-2-.8-.8 0-2.7-.9-3-1.4-.1-.3-.5-.4-1.9-.3-1.4.2-1.9 0-3-.5-.9-.4-2-.8-2.6-.9a42.6 42.6 0 0 0-8.2-2.1c-1.8-.3-5.5-1.4-7.5-2.2-1.8-.8-3-1.1-4.4-1.1-.9 0-1.7-.2-2-.4-.3-.2-1-.4-1.8-.4s-2-.2-2.7-.4c-.7-.3-2.2-.5-3.3-.7-1.1 0-2.5-.5-3.2-.8-1.2-.6-3-.9-7.4-1.3-3.3-.2-9-1.2-11.2-1.9l-5-.8c-1.9-.1-3.8-.4-4.2-.5l-3.3-.4a13 13 0 0 1-3.3-.5c-.5-.3-1.7-.4-4-.4-2 0-4.4-.2-5.6-.3l-5.9-.5-5-.5c-2-.4-6.8-.6-17-.7m-15.3 8.4c2.5-.1 6-.2 7.8 0h8.7c3.1 0 6 0 7 .2 2.5.5 7.1.9 12.9 1A143.5 143.5 0 0 1 167 88c.4.2 1.4.4 2.8.4 2.5 0 7.1.7 9 1.4.7.3 2 .5 3 .6a88.1 88.1 0 0 1 21.4 4.6c1.8 0 9 1.7 10.9 2.5a143.6 143.6 0 0 1 28 10c0 .2-.7.3-2.7.3a54 54 0 0 0-8 .6c-1.2.3-3.4 3.5-3.4 4.8 0 .3 0 .6-.2.9l-.6 1.5a149.8 149.8 0 0 1-2.6 7 102.1 102.1 0 0 0-3.7 9.3 157.3 157.3 0 0 0-5 12.6 38.6 38.6 0 0 1-10.7 14.2c-8.1 6-20.5 7.3-22.8 2.4-1.1-2.4 1.3-11.2 4.4-15.5 6-8.7 11.7-7.4 6.9 1.5-1.3 2.5.4 4.2 4 4l3.7-.4c5.4-.3 7.2-1.8 8-6.5l.7-3.4c.6-3 .3-5.4-1.3-8.5a9.1 9.1 0 0 0-7.5-4.7 28 28 0 0 1-3.1-.4c-1.5-.2-3-.1-6.2.5-2.3.5-3.4.7-4.3 1.1a29.5 29.5 0 0 0-8.9 5.2l-3.6 2.8-2.8 2.3c-.9.6-2 1.9-3.2 3.8-2.7 3.8-6 7.1-7.3 6.9-.4-.1-.5-.5-.5-3 0-7-3.3-11.7-9.6-14.1-2.4-1-8-.8-13.4.2-4.4 1-12.3 6-14.7 9.6l-2 2.8c-1.4 2-2.7 4.6-2.7 5.2l-.7 1.9c-.4.8-.9 2.2-1 3.1l-.7 2.8c-.6 2.3-.2 8.6.7 11.3 3.2 9.3 15.5 12 27.5 6.3 3-1.5 8-5.2 8-6 0-.2.3-.6.6-1 .4-.3.7-.7.7-.8l.7-1c1.4-1.4 3.6-5.1 4.1-6.9.6-1.8 1.1-2.7 1.7-2.7.6 0 5.5-2.6 6.2-3.3 1-.9 1.5-.9 1.3 0-1.7 5-.3 12.2 2.9 15.8 5.2 6 23.1 5.2 32.3-1.3l2.2-1.3 1.5-.8-.2 1.5c-.2 3 .2 3 9.5 2.2 2.4-.2 3.5-.4 4-.8.6-.5 2.4-3.5 2.4-4.2l.6-1.8a1195.2 1195.2 0 0 0 7.4-18.9c2.8-7.3 12.7-12.2 12.2-6.1-.4 4.8-4.2 9-9 10-3.2.6-4 1.4-4.5 5.8-.6 4.2 2.6 12.5 4.8 12.5l1.2.6a17.4 17.4 0 0 0 12.5.9c.2.1-2 2.7-4.8 5.8a56 56 0 0 0-2.8 3.2c-1.5 2.2-2.8 3-3 1.8-.1-.4-.7-1.4-1.3-2.1-5.5-7-17.4-6.1-25.6 1.9-2.6 2.5-2.4 2.4-2.2 0 .1-1.7 0-2-.4-2.6-1.7-2.2-7.3-.9-8.6 2-.8 1.7-1.8 5-1.8 5.8 0 .9-.3 1.1-.6.4l-.2-1.3c0-4-5.6-7-13.3-6.9-8.8 0-12.2 1.5-13.3 5.7a54.2 54.2 0 0 0-2.1 8.7 70 70 0 0 1-2.1 9.4l-.7-2.5a405 405 0 0 0-2-11l-.4-2.5c-.7-4.5-5.1-6.5-9.6-4.3-2.8 1.4-3 1.7-5.9 7l-1.8 3.3c-3.7 6.8-4.9 9-6.8 13-2.6 5.1-2.4 5-3.4 2.6-1.7-3.4-1.4-5.3 1.4-9.8 2.3-3.8 3-5.2 3-7.1 0-4.8-5-7.6-12-6.8l-6.2.5c-5 .4-6 .7-7.6 2.5-1.7 1.7-1.8 2.2-3.6 11.2l-.8 4a355 355 0 0 0-1.7 11.9c-.3 2.2 2 3.5 4.8 3 2-.4 5.1-4.5 5.1-6.8 0-1.2 2.3-3.4 3.6-3.6 1.3-.2 1.5 0 3.2 3.1 2.2 3.9 4 5.6 6.3 6.1 1.6.4 3.8 0 4.5-1 .5-.6.6-.6 1.2-.4 2 1 4.1 0 8.1-3.4 5.6-4.9 7.7-5.2 12.3-1.7 3.9 3 6.9 3.6 8.7 2 .9-1 .9-1 1.7-.1.6.6 1 .6 2.7.6 11 0 20-3.7 24.2-10.1 1.4-2 1.6-2.2 1.3-1-1 4.4-.8 7.1.3 7.1.2 0 .4.3.5.6.2.6 1.9.7 2.7.1.3-.2.6-.3.8-.1.2.2.4.1.7-.2.2-.3.2-.4-.1-.5-.3-.1-.5-.3-.5-.5 0 0-.2-.4-.6-.7-.5-.4-.5-.5-.2-1.2.4-.8.7-.8 1.3-.2.3.3.5.3.8 0 .3-.2.3-.1.3.3 0 .6.4.7 1.2.4.5-.2 0-.9-.6-.9-.2 0-.3-.1-.2-.2.1-.2.4-.2.6-.1.3 0 .4 0 .2-.6-.2-.7.1-.9.6-.4.4.4 1.1-.4 1.3-1.5.2-1.2.5-1.2 1 0 .6 1.1 2.2 2.8 2.7 2.8s.8-1 .4-1.6c-.5-.9 0-1.3.7-.5.8.8 2.3.3 2.8-1 .3-.9.8-.8.8.2 0 .6 0 .8.5.8.3 0 .5-.1.5-.3 0-.1.4-.2.9-.2 1 .1 1.3-.6.5-1.6-.7-.8-.3-1.7.5-1 .6.5 2 1 2.7.9.9-.1 1 1.8.2 2-.3 0-.7.2-.7.4-.1.3 0 .4.4.2.4 0 .8.1 1.2.4.7.6 1.4.4 2.5-.7l.9-.5c.4-.2.5-.4.5-1-.1-.6.8-.9 1.3-.4.2.2-1.3 2-1.8 2.2-.3 0-.6.5-.8 1-.4.8-1.2 1-2.2.4l-1-.5c-.2-.1-.7 0-1.1.2-.9.5-1.6.1-1-.5.3-.5 0-.8-.5-.4-.3.2-.5.2-1-.1-.8-.4-1.6.2-1.3 1 0 .1 0 .5-.3.7-.5.5-.5.5-.7 0-.3-.8-.5-.8-1.1-.1-.6.6-.4 1.2.4 1 .8-.3.5.1-.7 1.1-.7.5-1.2 1.1-1.2 1.4.1.6-.3 1-1 1-1 0-2 .9-2.5 2.2-.3.8-.6 1.2-1 1.2-.6.1-.8 1-.2 1.2.2.1.1.2-.2.2-.2 0-.4-.1-.4-.3 0-.9-.8-1.1-1.5-.5l-.5.6.7.5c1 .7 1 1 0 1.3-1.2.5-1.7.2-1.5-.8v-.8c-.5 0-2 1.3-2 1.6 0 .7-.7 1.2-1.3.9-.7-.4-1.6.1-3.2 2-2 2.2-3 3.2-3.3 3.2-.4 0-3 1.7-3.7 2.4-.7.7-3.2 2.7-4.6 3.7l-2.9 1.4a7.1 7.1 0 0 0-2.8 1.8c-.5.5-1 .8-1 .7-.3 0-.6.2-.8.7-.3.4-1 1-1.4 1.2l-3 1.7c-1 .7-2.4 1.5-3 1.6-.6.2-1.3.5-1.7.8-.3.3-1.2.7-2 1-1 .2-2 .9-3 1.7-1 .9-1.9 1.3-2.7 1.5-1.9.4-2.7.8-3 1.3-.2.8-.8 1.4-1.4 1.4-.2 0-.7.1-1 .3l-2 .4c-1.3.1-1.6.3-2.5 1.2-.5.6-1.3 1.2-1.8 1.3l-2.3 1-2.8.9c-1.8.3-4.4 1.3-6.4 2.4-2.1 1.2-4.1 1.8-6.3 1.8-1.6 0-2.1.1-3.4.8-1.3.7-1.7.8-3.8.8-1.7 0-2.5.1-2.9.4-.3.3-1.2.4-3 .4a55 55 0 0 1-12.7-.3 6 6 0 0 1-2-1.1c-.7-.8-1.2-1-2.6-1.1-5-.5-7.9-2.2-13.8-8.2-2.5-2.6-5-4.9-5.5-5A48.8 48.8 0 0 1 65 213.4c-.3-1.6-.4-1.8-1.9-3-.9-.7-2.6-4.5-2.6-5.6 0-.4-.3-1-.6-1.5a13 13 0 0 1-.9-3 20 20 0 0 0-1-3.5c-.8-1.7-1.2-3-1.5-5.2-.6-3.9-.9-5.1-1.3-6-.3-.6-.7-1.9-.8-2.9l-.6-3.6a31 31 0 0 1-.3-4.3c0-1.4-.1-3.5-.4-4.6-.4-2.2-.5-3.7-.8-9.5-.2-3.7-.2-3.7.5-3.4.6.4.7-.1 0-.7-.3-.4-.3-.4.2-.8s1-1.5.8-2.4c0-.8.6-.8 1.2 0 .4.8 1.2 1 1.7.4.5-.5.4-1-.3-1-.4.2-.5.1-.4-.2.2-1 1.7-.7 2 .2.4 2.3 2.9 3.7 4.6 2.6 4.7-2.9 7.7-6.7 7-8.8-3.5-9 4.3-21.2 15-23.9a24.6 24.6 0 0 1 13.9-.5c10.7 3.4 10.8 18.6.2 24.7-4 2.2-9.6 2.3-10.8 0-.7-1.2 3-10 5-11.8 2.7-2.5 3.2-4 2-7.3-1.5-3.9-3.8-4-10.1-.2a23.2 23.2 0 0 0-9.5 12.6l-1.4 3.3A228.4 228.4 0 0 1 60.6 177c-1.8 3.9-2.2 6.2-1.2 7.2l.7.7 4-.2c8.8-.4 9.1-.6 11.5-8 .5-1.3 1.1-3 1.5-3.7a46.6 46.6 0 0 0 2.2-5.9c.1-.1.4-.8.5-1.4l.7-1.8.7-1.6c1.5-4.6 3-5.5 6.3-3.4 3.6 2.2 3.9 5.8 1.5 19.8a259.8 259.8 0 0 0-1.4 9.3 17.4 17.4 0 0 0 2.4 11c.5 1 2.3 2.8 3.3 3.2 4.5 2 7 2.3 12 1.4 2.4-.5 3-1.7 3-5.8 0-4 0-4.2-3.1-5.4-2.3-1-3.4-5.2-2.2-8.3.2-.4.4-1.8.6-3 0-1.2.4-3 .6-4 1.7-7.4 1.3-13.3-1.3-17.1-1-1.5-.7-1.8 3.4-3.8 4-1.9 6.5-4 8.3-6.5l2-2.6c.6-.7 1-1.3 1-1.5 0-.1.4-1 1-1.8.4-.8.9-1.9 1-2.4 0-.5.4-2.1.8-3.7 2-7.3 0-15.5-5.1-20.5-2-2-7-5.5-7.8-5.5l-2.4-.7a44.7 44.7 0 0 0-34.8 5.6 39.2 39.2 0 0 0-8.6 8.7l-2 3.8a29.2 29.2 0 0 0-3.2 9.1c0 .4-.2 1-.5 1.2-.4.4-.4.5-.1.7.3.2.2.3-.1.7-.6.6-.9 3.2-.4 3.7.6.8 0 .8-.8 0-.8-.6-1.3-.7-1.3 0l.4.7c.5.4-.1 1-.9 1-.4 0-.5-3.5 0-3.8l.2-.8c0-.5.1-.7.7-.7.5 0 .6.1.5.4l.1.4c.4 0 .4-.6 0-1-.2-.2-.6-.3-.8-.3-.5 0-.5-.1-.4-.7.3-1.2.8-1.1 1.2 0 .2.4.4.7.6.7.3 0 .3-.7 0-1-.2 0-.3-.4-.3-.8 0-.3-.1-.9-.3-1.2-.4-.7 0-1 .6-.5 1.2.7 1.4 0 .3-.9-.6-.5-.6-.6-.4-1.1.5-.9.4-2 0-1.9-.6.3-.6-1 0-2.4.2-.5.3-1.4.3-2 0-.5.3-1.6.7-2.4.9-2 1.1-2.7 1.6-5a46.5 46.5 0 0 1 7-15.7c0-1.2 7.2-9 11.8-13 1.4-1.1 4.1-2.6 4.9-2.6l2.4-1c2.8-1.3 6.6-2.2 10-2.5l3.2-.5c.8-.6 7.2-1.3 14.6-1.6m132.4 24c-.7-.9-.6-.8 3 1a56.2 56.2 0 0 1 15.1 10.3c.4 0 3 3.5 3.8 5.3 2.2 4.3 2 7.6-.8 16.8-2.6 8.6-13.4 18.5-18.6 17.1-2.8-.7-3-5.9-.4-7a24 24 0 0 0 12.3-14.2l1.3-3.5c4.5-11.3-6.2-15.9-18.6-7.8-2.6 1.7-3.5 1.3-2.4-1.1a151.7 151.7 0 0 0 3.8-9.3c1.7-3.4 2.3-6.5 1.5-7.5m-136 10.4c.2-.3.6-.3.6 0 0 .2.3.3.6.4.5.1.5.2.3.5-.4.4-1.8-.4-1.5-.9m122 5.4c.4-1.2.7-1 .4.2-.4 1.4-.1 2 .7 1.8.9-.1 1.5.5.8.8-.3 0-.7.3-1 .4-1.1.6-1.8-1.3-1-3.2m4 1.2c0-.3.1-.4.3-.4.2 0 .3.2.3.4 0 .1-.1.3-.3.3-.2 0-.3 0-.3-.3M69 126.9h.6c.4 0 .7 0 .6.2-.2.2-1.2 0-1.2-.2m177.8.7c.8-.4 1.8-.2 2 .5 0 .3-.1.6-.3.6-.1 0-.2.3-.2.7 0 .4 0 .8-.3.8-.2 0-.3 0-.3-.4s-.2-.7-.7-.9c-.7-.3-.8-.9-.2-1.3m5.2 1c0-.5 0-1 .2-1s.3.2.3.4c0 .3.2.4.5.4.5 0 .5.1.4.7-.1.6 0 .7.6.7.5 0 .6 0 .5.5-.1.3 0 .5.2.4.2 0 .4.1.4.3 0 .1-.2.3-.6.3-.9.1-.8.6.1.9.5.2.8.5.9.8 0 .4.2.6.4.5.2 0 .3 0 .3.2 0 .4-.7 1-1 .7-.6-.3-.8.6-.3 1.4.6 1 .5 1.1-.8 1.1-.8 0-1 .2-1 .4 0 .3 0 .4.2.4.1 0 .2.4.2.9s0 1.2.2 1.5c.2.8-.3.4-.8-.5-.4-1-1.3-1-1.8-.1-.6.8-.4 1.2.3.5.9-.8 1.2-.2.8 1.2-.5 1.6-1.3 2-1.3.8 0-1.3-2.4-2.5-2.8-1.3-.1.4-1 .8-1 .4v-.5c-.2-.3 0-.5.6-.7.6-.2.7-.4.6-.8 0-.4 0-.5.7-.7.5 0 .8-.3.8-.5 0-.3.3-.4.6-.4.7 0 .6-.8-.2-1-.4-.1-.6-.3-.5-.6.2-.5-.6-1.4-1.2-1.4-.5 0-.5-.1-.5-.8 0-.5.2-.8.4-.8l.2.6c0 .4 0 .5.4.5.7 0 1-.4.6-1-.3-.6-.3-.7.2-1.1.7-.6.7-1 .2-1.2-.5-.2-.6-1-.2-1 .2 0 .3-.1.3-.3 0-.6.4-.5.8.2.5 1 1 .4 1-1m-140.6-.1c.3-.3.4-.3.7.4.3.9 0 1.2-.6.4-.3-.4-.3-.6 0-.8m143.4.2c.2-.4 1 .2.7.7-.1.4-.2.4-.5 0-.3-.2-.3-.5-.2-.7m-26.2 1c0-.5.7-.4 1.6.3.5.4.6.6.3.9-.3.3-.4.3-.5 0-.1-.2-.5-.5-.8-.6-.4-.2-.6-.4-.6-.6m-113.6.7c0-.2.2-.4.4-.4s.4.3.4.5c0 .4-.1.5-.4.4-.2 0-.4-.3-.4-.5m132.5.7c.4-.4 1.1-.2 1.2.3.1.4 0 .5-.7.5-.9 0-1-.2-.5-.8m-2.4.8c0-.2.1-.3.4-.3.2 0 .4.1.3.3 0 .2-.2.3-.3.3-.2 0-.3-.1-.4-.3m-48 .1c0-.2.5-.1.8.2.4.4.5 1.3.1 1.3-.2 0-.8-1.2-.8-1.5m48.7.8c.2-.5.7-.5.7 0 0 .4-.4.8-.7.6v-.6m-17 1c0-.2 0-.3.2-.3.4.2.5.8.1.8-.1 0-.3-.2-.3-.4m-32.9.2c.6-.4.7-.4 1.2 0 .4.2-1.5 2.2-2 1.9-.2-.2.3-1.5.8-2m4 .4c.2-.7 1.7-.2 1.7.7 0 .4-.2.5-.8.5-.8 0-1.2-.5-1-1.2m4.9.8c.4-.1.6-.1.7.1.2.3-1.1 2.7-1.7 3.2-.7.6-.3 1.7.6 1.4.7-.2.6.4-.2.8-1 .4-1.4.1-1.5-1 0-1.2-.7-1.7-1.5-1.2-.3.2-.8.3-1.2.3-.3 0-.7.1-1 .3-.2.3-.3.3-.5 0-.4-.4.1-1.1.9-1.1.6 0 1.2-.6 1.2-1.2 0-.4.7-.6.9-.1.1.4 1.7-.2 1.6-.6 0-.3.2-.5.6-.6l1-.3m43.5.6c.5-.5.9 0 .6.8-.2.3-.2.6 0 .7v.6c0 .4-.2.3-.5-.2-.3-.7-.4-1.6-.1-2m-164.9.9c.4-.6 1-.6 1 0 0 .5-.7 1-1 .7-.2-.3-.2-.4 0-.7m162.9-.1c0-.2.1-.4.4-.4.4 0 .6.2.6.5 0 .4-.8.4-1-.1m-49.6 0c0-.2 1-.1 1.2.1.3.5-.3 1-.7.5l-.5-.5m32.4 1.1c1.2-1.1 2-1.6 2-1.1 0 .4-2.7 2.7-3 2.6-.2-.1.3-.7 1-1.5m-116.5.2c.4-.3.6-.1.6.5 0 .4-.1.7-.4.7-.4 0-.5-.8-.2-1.2m93.5.6c0-.3.1-.5.4-.5.2 0 .3.2.3.4s-.1.4-.3.5c-.3.1-.4 0-.4-.4M84 139c.5-.5 1-.5 1.2.2.2.6 0 1-.7 1-.6 0-1-.6-.5-1.2m25.9-.2c.4-.2.8 0 .8.2 0 .4-1.1.5-1.1.2l.3-.4m76.8.5c0-.2.1-.4.3-.4l.2.4c0 .2 0 .4-.2.4s-.3-.2-.3-.4m-105.6.4c0-.1.2-.3.4-.3s.4.2.4.3c0 .1-.2.3-.4.3s-.4-.2-.4-.3m143.9.3c0-.5 0-.6.3-.4.3.3.3.4 0 .7-.2.2-.3.2-.3-.3m-92.6.7c.2-.3.7 0 .8.4 0 .3-.1.5-.5.5-.5 0-.7-.6-.3-1m68 .5c-.4-1.2 1.1-.8 1.7.5.7 1.2.7 1.3.2 1.3-.5 0-1.7-1.2-1.9-1.8m-46 .1c.6-.9 2.2.7 1.7 1.7-.1.2-.2.7-.1.9.2.4-.3.8-1.3 1-.5.2-.7.4-.7.7.1.5.6.5 2.6.2 1.1-.2 1.2-.2.9.2-.2.3-.6.5-.8.5-.2 0-.3 0-.3.2s0 .3.2.3c.1 0 .3.2.4.5 0 .4.3.5 1 .5.3 0 .9.2 1 .5.5.5.2.7-.4.4-.6-.4-1.4 0-1.4.8 0 .3-.2.7-.5 1-.4.2-.4.3 0 .6 1.4 1.1.8 2.8-.9 2.4-1.3-.4-1.4-1 0-.7 1.2.2 1.6-.3.5-.7l-1-.6c-.5-.6-1-.6-1.4.1-.5.8-3.3 1-3.6.2l-.7-1.2c-.5-1-.5-1.7 0-1.7.4 0 1.2-.8 1.2-1.4 0-.2.1-.5.3-.4.7 0 2.1-.4 2-.7l-.6-.2c-.5.1-1.2-.4-1.2-1 0-.3.1-.3.4 0 .3.2.4.2.7-.2.2-.2.6-.5 1-.6.4-.2.5-.5.7-1.6l.3-1.7m44.7.5c.2-.5.6-.3.6.3 0 .2-.1.4-.4.4-.4 0-.4 0-.2-.7m6.2-.1c.5-.4 1-.4 1.2 0 .1.1-.2.2-.7.2-.7 0-.8 0-.5-.2m-124.7.5c.2-.3.4-.4.6-.3.4.4-.1 1.2-.8 1.3-.3 0-.7-.1-1-.4-.3-.4-.2-.4.3-.2.4.1.7 0 1-.4m55-.2c.3-.4.3-.4.4 0 .1.5-.1 1-.4.6v-.6m45.2.3c.9-.7 2-.8 2.2-.3.2.6-.5 1-1.2.9-.4-.2-.5 0-.5.3 0 1-.8 1.3-1.4.6-.3-.5-.4-.7-.1-.8l1-.7m-38.6 0c.6-.2 2.1-.1 2.1.1s-.6.6-1.3 1c-3.2 2.2-4.7 6.7-3 9.4l.6 1.4c0 .3.5 1 1 1.7l1.2 1.2-.6 1.4a30 30 0 0 1-2.1 4.4c-.3.4-.8 1.4-1 2.2-1.8 4-6 5.2-7.6 2-.4-.8-.8-3-.5-3.8l.7-2.9c.4-2.2 1.2-4.5 1.8-5.8a31 31 0 0 1 4.6-8.6c.8-1.2 3-3.2 4-3.6m9 0c.6-.6 1.6 0 1.6.9s-.1.9-1.1 1a9 9 0 0 0-1.7.2c-.5.1-.6 0-.5-.2 0-.2.5-.4 1-.5.8 0 .9-.1.7-.7v-.7m5.9.2c.3-.2.5-.2.7.2.1.4-.3 1-.7 1-.2 0-.3-1 0-1.2m91.3.6c.7-1 1.2-.7.6.3-.2.5-.5.8-.6.8-.5 0-.4-.4 0-1m-165.8 0c.7-.4 1.7-.4 1.7 0 0 .3.2.5.5.6.3 0 .6.2.6.4 0 .4-.9.3-1.4-.1-.5-.4-.5-.4-.7 0 0 .2-.4.4-.6.4-.7 0-.7-1 0-1.3m120.6.6c.7-.8.6-.7 1-.2.7.6.6.8-.3 1.2-1.1.4-1.5 0-.7-1m-72.2 0c.4-.4.8-.3.8.3 0 .3.2.4.7.3l.7-.2-.5.9c-.6 1-1.1 1.2-1.3.5l-.4-1c-.2-.3-.2-.5 0-.8m50.6.2c.2-.2.4-.2.6 0 .5.4.2 1-.4 1-.6 0-.7-.5-.2-1m19 1.2c.1-.6.6-.6.6 0 0 .4-.5.8-.7.5v-.5m-65.9 0c.3-.3.7-.2.7 0s-.2.4-.4.6c-.5.4-.7-.2-.3-.6m-80.7 1c.3-.4.5-.5 1-.1.5.3.2 1-.5 1s-1-.4-.5-.9m24.2.4c0-.3.2-.5.4-.5.5 0 .5 1.4 0 2.1-.2.4-.2.6.2 1l.4 1c0 .8.8 2.5 1.1 2.5.4 0 1.9-1.6 1.7-1.8 0-.2-.3-.2-.6-.1-.3 0-.6-.1-.8-.8-.2-.6-.5-1-.7-1-.2 0-.4-.2-.5-.4-.2-.4.8-.6 1-.1.1.1.3.2.5 0 .1 0 .1-.2 0-.4-.3-.3-.2-.4 0-.6.7-.6 1.3-.6 1.7 0 .5.8.5 1-.3.9-1.5-.4-.5 1.1 1.1 1.7 1 .3.8 1.2-.3 1.5-.5 0-.7.3-.7.8 0 .7.8.8 1.4.2.1-.2.5-.4.7-.4.2 0 .3.2.3.4s-.1.4-.3.4c-.3 0-1.5 1.4-1.5 1.8 0 .5-.5.4-1.3-.2-.8-.7-1.3-.3-.9.5.5.8.2 1.4-.6 1.3-.4 0-.6-.3-.6-.7 0-1.1-.5-1.3-1.7-.6-1.2.6-1.7.5-1.5-.3l-.1-1c-.3-.2-.3-.4 0-.6.2-.3.4-.2.7.1.4.6.5.6 1.3-.2.8-1 .8-1.4 0-2.5-.6-.8-.8-2.9-.3-3.4l.2-.6m4.8-.1c0-.7.9-.5 1.3.3.5.8.4 1.4-.1 1.4-.4 0-1.2-1.1-1.2-1.7m138.2.8c.6-.5.8-.5 1 0 0 .3 0 .4-.7.4-.8 0-.8 0-.3-.4m-169.1.5c0-.4.1-.7.3-.6.2 0 .4.3.4.6s-.2.6-.4.6-.3-.1-.3-.6m77.8-.4c.2-.3.5 0 .5.4 0 .2.4.3 1 .2 1 0 1.5.7.7 1.2-.2.1-.4.4-.5.7-.2.5-.8.6-.8 0 0-.2.2-.4.3-.4.2 0 .3-.1.3-.3 0-.3-.4-.3-1.5-.2-.8 0-1.5 0-1.6-.2-.2-.5.5-1.4 1-1.3l.6-.1M55 149c.5-.7.7-.8 1.1-.3.6.5.4.8-.3.6-.4 0-.7 0-.7.2-.1.2-.2.3-.3.2-.1 0 0-.4.2-.7m29.5 0c.2-.4.6-.4.8 0 .3.3 0 .5-.5.3-.3 0-.4-.2-.3-.4M52.4 150c.1-.6 1.1-.8 1.1-.2l.2.8c.2.4.1.5-.4.1-.5-.3-.6-.3-.8 0-.3.5-.4.2-.1-.7m23.7 1.1c0-.3.2-.3.5-.2l1 .3c.5.2.6.9 0 1-.5.3-1.5-.5-1.5-1.1m145.8.8c0-.6.1-.9.4-.9.2 0 .4.3.4.5 0 .3-.2.7-.4.9-.3.3-.4.2-.4-.5m-169.6.6c.2-.4 1-.6 1-.2 0 .4-.8 1-1 .8v-.6m97.3.7c.8-.4.8-.4.6 0-.5 1-.7 1-1 .7 0-.2 0-.4.4-.7m1.6.4c.3-.7 1-1 1-.4 0 .1.3.2.7.2.5 0 1 .5 1 1.1 0 .1-.4.3-.9.4-.9.2-1 1.2-.5 2.2.7 1.2-.7 1.8-1.8.9-.7-.6-.6-1.4.3-2.4.4-.5.4-.6.2-1-.3-.3-.3-.5 0-1m-25.5-.2c.3-.3.6-.3.9 0 0 .2 0 .4-.3.5-.5.2-.8 0-.6-.5m-30 .5c.2-.3 1.1-.3 1.3 0 .2.3-.8.7-1.2.5-.1-.1-.2-.3 0-.5m33.3.7.2-.4c.2 0 .3.2.3.4s-.1.4-.3.4l-.2-.4m-30.9.4c0-.7.7-.7.9 0 .2.6 0 .8-.5.6-.2 0-.4-.3-.4-.6m138.7-.2c.1-.2.4-.3.7-.3.6 0 .8 1.4.3 1.7-.2.1-.3.4-.3.7 0 .4-.5.8-1 .8s-.3-.9.3-1.3c.5-.4.5-.6.2-1-.2-.2-.3-.5-.2-.6m-112.4.3.9-.3 1 .9 1.1 1c.2 0 .2 0 .1.2-.2.4-.6.3-.6-.1s-1.2-.7-2.5-.7c-1 0-1-.6 0-1m30.2.4c.7-.8 3-1 2.3-.3l-.6.4c-.2 0-.6.2-.9.5-.5.5-1.4.7-1.4.3 0-.2.3-.6.6-1m78.4 0c0-.3 0-.4.3-.3.4.1.5.7 0 .7 0 0-.2-.1-.3-.4m-160.4.5c.4-.4.7-.4 1 0 0 .1 0 .4-.3.7-.6.5-1.2-.1-.7-.7m4.7.3c.2-.2.7-.4 1-.3.6 0 1 1 .3 1-1 0-2 2.2-1.2 2.5.5.1 1.3-.3 1.3-.8 0-.4.8-.5 1.1-.2.3.3-.8 1.7-1.3 1.7-.7 0-1.2.4-1 .8.4.7.4 2.3-.1 3-.4.6-.5.7-.6.3-.1-.2-.3-.4-.5-.4s-.5-.3-.8-.6c-.4-.5-.5-.5-.9-.2-.4.4-.8 0-.4-.5.1-.3.7-.4 1.7-.4 1.5 0 1.7-.1 1-.7a5.5 5.5 0 0 1-1.4-3.4c0-1 .3-1.4.7-.8.2.4.6.3.6-.2 0-.2.2-.5.5-.8m19.6.2c-.1-.2.1-.3.6-.3.4 0 .6.1.6.3-.1.2-.4.4-.6.4-.3 0-.6-.2-.6-.4m124.3.4c.2-.3.7 0 .8.3 0 .2-.1.3-.4.3-.6 0-.8-.3-.4-.6m-147.1.6.2-.6.2.6.3 1.5c0 .5.2 1.1.5 1.4.7.6.6.8-.5.7-1.3-.2-1.3-.2-.8-.9.4-.7-.1-1.4-.7-.8-.8.6-.8 0-.1-.7.4-.3.8-.9.9-1.2m165.8 0c0-.7.6-.5.8.3.1 1.1-1.1 1.8-1.9 1-.4-.6.2-1.4.7-1 .3.3.4.2.4-.3m-143.6.3c0-.1.1-.3.3-.3.3 0 .5.2.5.4 0 .5-.6.4-.8 0m82 .2c-.3-.9.5-.7 1 .2.4.7.4.9 0 1.2-.5.6-.8.5-.8-.2l-.2-1.2m57.2 1.3c.8-.8 1 .4.2 1.3-.5.6-.5.6-1.2.2l-.8-.5.8-.4 1-.6m-85.7.7c.8-1.3 2.6-.7 3.4 1.1.6 1.3.4 1.4-1 1.2-1-.2-1.1-.8 0-1.3l.6-.4-.8-.3c-1.4-.5-2-.1-1.9 1 .2 1-.9 1.3-2 .7-.5-.4.1-1.7.8-1.5.3 0 .6 0 1-.5m88.2 0c.9-.2 1.2.2.7.8-.4.3-.6.4-1 .2-.5-.4-.4-.8.3-1m1.3.7c0-.5.3-.5.7 0 .3.3.3.5 0 .6-.3.2-.7 0-.7-.6m-96 1.1c0-.2.1-.4.3-.4.3 0 .4.2.4.4s-.1.4-.4.4a.4.4 0 0 1-.4-.4m7.3.9c.5-.2.8.2.6.7 0 .2-.3.3-.5.2-.5-.1-.6-.8-.1-1m88.2.4c0-.1.2-.3.4-.3.3 0 .4.2.3.4-.2.4-.7.3-.7-.1m-92.2 1.2c.5-.5.9-.8 1-.7 0 .4-.5 1.6-1 1.9-1 .5-.9-.1 0-1.2m-71.5.1.6-.2c.2 0 .3 0 .2.2 0 .2-.3.3-.6.3-.2 0-.3-.1-.2-.3m-4.5.3c.2-.3.8-.4 1 0 .3.4-.6 1-1 .6v-.6m25.5.3c.1-.2.3-.3.4-.3.3 0 .4.4.1.6-.2.3-.6 0-.5-.3m-22.8 1c.4-1 1.7 0 2 1.6.2.7.1.8-.3.8s-.6-.2-.6-.6c0-.4 0-.7-.2-.7-.5 0-1.1-.7-1-1.1m24.4 1.2c.5-1 1-1.2 1-.5 0 .2 0 .4-.2.4-.1 0-.4.4-.5.8-.2 1-.8 1.4-.8.6 0-.3.2-.9.5-1.3m3 0c.2-.3.3-.3.5-.1.2.2.2.4 0 .6-.4.4-.6.1-.4-.4m46.4.8c.2 0 .6 0 1 .4.7.8.6.8-.5.3-.6-.3-.8-.5-.5-.7m-75.6 1c0-.8.2-.8.9-.2.5.4.6 1.1.2 1.1-.6 0-1-.4-1-1m27.3.5c0-.7.2-.7 1.1.1.9.7.7 1.1-.4.7-.4-.2-.7-.5-.7-.8m-3.3 2.6c.3-.3.7 0 .7.5 0 .2-.2.4-.4.4-.4 0-.6-.6-.3-1m3.3.6c1.5-.5 2.1-.5 2.1 0 0 .1-.3.4-.9.5-1 .2-1.4.6-1 1 .7.6.5.9-2.1 2-.1 0-.2-.2-.2-.5 0-.4.2-.5.6-.5.6 0 .7 0 .4-1-.3-1.1-.4-1 1.1-1.5m-29.2.8c.4-.6.8-.6.8 0 0 .4-.8.8-1 .5-.1 0 0-.3.2-.5m1.4.6c.3-.4.9-.3 1.2.1.3.4.3.5 0 .6-.6.2-1.4-.4-1.2-.7m27.9 2.5c0-.2 0-.4.3-.4.2 0 .4.2.4.5 0 .4-.6.4-.7-.1m-3 4.4c.6-1.3 1.2-1 1.6.7.3 1.2-.3 1.5-1.2.7-.5-.5-.6-.7-.3-1.4m125 0c5-1.2 7.8 2.3 6.3 8.1-.6 2.6-.8 2.7-3.3 4-2.2 1.2-3.8 2.6-3.5 3 .3.5.9.4 1-.2.2-.4.4-.5.8-.4l1.1.2c.5 0 .5 0 0 .5-.3.4-.4.6-.1.8.7.8-.5 1-2 .4-.3-.2-.5 0-.6.4-.1.6-.4.7-.7.3-.1-.2-.8-.3-1.6-.3-3.6 0-5-3.3-3.7-8.5 1.2-4.6 3.4-7.6 6.3-8.3M93.7 182c.8-.8 1.1-.8 1.7.1.4.8.4.8-.2 1.5-.9 1-1.4.9-.9 0 .5-1 .3-1.3-.4-.8-.7.4-.9 0-.2-.8m87.6 3.4a5 5 0 0 1 4.7 0c3 2 1.1 12.4-2.7 14.3-2.6 1.4-5 .9-5.5-1-.8-3.1 1.5-12 3.5-13.3m-89 .3c-.1-.2 0-.3.1-.3.5 0 1.3.5 1.2.7-.2.4-1.2 0-1.3-.4M125 188c2-.4 3.7.5 3.4 2-.6 2.4-4 4-6 2.5-1.1-1 .6-4.1 2.6-4.5m27.2 5.4c.6-1 2-1.2 2.8-.4 1.1 1.1-.6 4.3-2.4 4.3-1.6 0-1.8-1.7-.4-3.9m73.6 2.8c.2-.3.9.8.9 1.5 0 .2-.2.4-.4.4-.4 0-.8-1.5-.5-2m-5.7 1c.2-.2.2-.3 0-.4-.2-.1-.4 0-.5.1-.2.4.1.7.5.3m-7.8.7c0-.3 1-.3 1.2 0v.6c-.2.3-1.2-.2-1.2-.6m13.6 1.3c0-.3.2-.4.4-.4s.4.1.4.4c0 .2-.2.3-.4.3a.4.4 0 0 1-.4-.3m-19.3 1.4c.2-.3.9-.3 1 0 .2.1 0 .3 0 .4-.5.3-1.2 0-1-.4m4.6 2.5c0-.6-1.4-.8-1.6-.4-.3.5 0 .8 1 .8.5 0 .7 0 .6-.4m-10.6 12.6c0-.3.2-.3 1.3.1 1 .4 1.1.7.5 1-.4 0-1.8-.7-1.8-1"/></g></svg>