<svg id="svg" version="1.1" xmlns="http://www.w3.org/2000/svg" xmlns:xlink="http://www.w3.org/1999/xlink" width="400" height="400" viewBox="0, 0, 400,400"><g id="svgg"><path id="path0" d="M0.000 200.000 L 0.000 400.000 200.000 400.000 L 400.000 400.000 400.000 200.000 L 400.000 0.000 200.000 0.000 L 0.000 0.000 0.000 200.000 M219.600 61.941 C 220.810 62.178,224.230 62.754,227.200 63.219 C 297.726 74.283,351.199 142.319,345.815 214.138 C 345.471 218.727,345.623 218.597,341.066 218.217 C 336.379 217.826,336.671 218.393,337.217 210.760 C 337.852 201.890,336.591 185.827,334.630 177.800 C 334.522 177.360,333.970 175.043,333.403 172.652 C 317.047 103.669,248.633 59.412,177.939 72.081 C 175.376 72.540,173.016 72.815,172.695 72.692 C 172.183 72.495,170.088 65.303,170.467 65.041 C 171.651 64.220,181.483 62.410,189.200 61.592 C 193.392 61.148,216.930 61.418,219.600 61.941 M210.600 75.793 C 235.411 77.419,256.308 84.803,277.068 99.281 C 282.206 102.865,282.071 102.450,279.316 106.170 C 276.684 109.725,277.081 109.776,269.880 104.944 C 242.937 86.863,210.659 80.245,179.655 86.443 C 175.217 87.331,175.374 87.394,174.801 84.493 C 174.551 83.232,174.160 81.598,173.931 80.863 C 173.225 78.600,174.264 78.202,184.400 76.851 C 197.402 75.118,199.190 75.046,210.600 75.793 M135.071 82.402 C 137.089 85.956,137.199 86.858,135.705 87.632 C 102.416 104.885,75.727 143.481,69.204 183.800 C 68.169 190.204,68.809 189.689,62.700 189.028 L 60.000 188.736 60.000 187.113 C 60.000 182.814,62.478 171.251,65.469 161.600 C 75.025 130.758,96.232 102.591,123.096 85.057 C 133.745 78.107,132.755 78.326,135.071 82.402 M217.400 90.968 C 220.714 91.493,227.434 92.811,230.800 93.596 C 243.618 96.586,258.617 103.750,270.600 112.607 C 282.973 121.752,292.300 132.136,301.578 147.095 C 302.645 148.817,303.168 149.268,304.510 149.630 C 307.906 150.544,309.325 153.363,308.967 158.484 C 308.777 161.205,308.892 161.951,309.989 165.076 C 334.482 234.885,291.563 306.955,218.800 318.201 C 182.235 323.852,143.524 310.147,118.164 282.572 C 107.904 271.416,98.292 255.497,94.390 243.200 C 91.368 233.676,89.904 227.762,88.548 219.600 C 87.661 214.256,87.534 196.432,88.346 191.200 C 90.692 176.094,93.855 165.631,99.558 154.113 C 103.046 147.069,106.073 142.191,111.171 135.400 C 129.436 111.072,158.746 94.291,189.000 90.838 C 191.200 90.587,193.630 90.311,194.400 90.224 C 197.378 89.890,213.981 90.427,217.400 90.968 M229.800 128.483 C 222.579 131.007,218.970 141.519,223.336 147.308 C 228.742 154.478,239.744 150.114,242.016 139.899 C 243.695 132.347,236.903 126.000,229.800 128.483 M102.133 130.977 C 105.320 133.340,105.326 133.384,102.847 136.972 C 93.472 150.549,86.010 169.066,83.652 184.600 C 83.419 186.140,82.996 188.840,82.714 190.600 C 82.005 195.014,82.021 214.605,82.738 219.400 C 83.034 221.380,83.634 224.866,84.072 227.146 C 84.999 231.968,85.192 231.646,80.693 232.792 C 76.758 233.795,76.227 233.651,75.876 231.486 C 75.761 230.779,75.295 227.950,74.839 225.200 C 71.583 205.545,73.407 183.067,79.831 163.688 C 84.413 149.867,96.713 127.345,98.946 128.687 C 99.232 128.859,100.667 129.890,102.133 130.977 M214.937 131.638 C 214.031 131.900,213.366 132.540,212.584 133.902 C 208.820 140.455,207.062 143.200,206.632 143.200 C 206.362 143.200,204.475 141.310,202.438 139.001 C 199.480 135.646,198.561 134.836,197.868 134.975 C 194.262 135.700,194.637 133.904,195.178 147.875 C 195.575 158.107,195.456 157.677,197.698 157.012 L 199.400 156.507 199.248 149.709 C 199.067 141.609,199.117 141.537,202.379 145.208 C 206.175 149.479,207.589 149.211,210.794 143.611 C 213.889 138.201,213.881 138.192,214.316 147.400 C 214.630 154.039,214.724 154.217,217.389 153.204 L 218.525 152.772 218.261 145.286 C 217.738 130.433,217.827 130.801,214.937 131.638 M235.591 133.115 C 238.054 134.912,238.772 138.952,237.205 142.190 C 234.005 148.799,225.557 147.605,225.497 140.535 C 225.444 134.436,231.399 130.058,235.591 133.115 M182.687 137.775 C 176.814 139.870,174.205 145.990,177.827 149.170 C 179.162 150.342,179.593 150.455,184.846 151.008 C 187.662 151.304,188.393 152.342,187.186 154.327 C 185.923 156.404,182.528 156.897,180.680 155.273 C 180.021 154.694,179.842 154.703,178.574 155.386 C 176.133 156.701,176.018 157.134,177.725 158.609 C 182.649 162.866,192.000 158.324,192.000 151.674 C 192.000 148.267,190.842 147.479,184.894 146.842 C 181.215 146.448,180.400 146.008,180.400 144.421 C 180.400 142.007,183.892 140.269,186.437 141.417 L 188.020 142.131 189.210 140.990 C 191.891 138.422,187.265 136.142,182.687 137.775 M160.200 142.367 L 157.000 143.000 156.880 144.648 C 156.779 146.028,156.892 146.331,157.580 146.511 C 158.325 146.706,158.400 147.033,158.400 150.101 C 158.400 151.958,158.516 155.105,158.657 157.094 C 158.896 160.464,158.855 160.761,158.057 161.444 C 155.717 163.447,157.167 165.044,160.727 164.387 C 165.046 163.590,165.990 162.348,163.823 160.316 C 162.353 158.937,161.756 145.858,163.143 145.418 C 163.825 145.202,164.000 144.829,164.000 143.597 C 164.000 141.617,163.997 141.617,160.200 142.367 M149.065 144.900 C 148.571 145.395,147.037 147.780,145.655 150.200 C 141.633 157.247,142.340 157.130,137.615 151.528 L 134.229 147.515 132.431 147.761 C 129.927 148.104,130.033 147.520,130.413 158.903 C 130.776 169.799,130.804 170.003,131.900 169.787 C 132.285 169.710,133.117 169.539,133.748 169.404 L 134.896 169.161 134.605 162.180 C 134.274 154.246,134.268 154.258,137.073 157.269 C 140.889 161.365,140.265 161.000,142.420 160.401 C 143.665 160.055,144.104 159.541,145.998 156.203 C 149.072 150.788,149.060 150.776,149.493 159.800 L 149.800 166.200 150.800 166.102 C 151.350 166.049,152.228 165.905,152.750 165.782 L 153.700 165.560 153.432 155.880 C 153.096 143.782,153.134 144.000,151.350 144.000 C 150.445 144.000,149.652 144.313,149.065 144.900 M329.443 180.800 C 331.277 190.700,331.400 192.238,331.395 205.200 C 331.392 213.309,331.218 218.727,330.908 220.400 C 330.642 221.830,330.045 225.250,329.580 228.000 C 323.632 263.191,301.497 295.460,269.817 315.127 C 265.133 318.035,265.236 318.018,264.168 316.097 C 263.710 315.274,262.842 313.731,262.237 312.668 C 260.820 310.175,260.783 310.233,265.651 307.232 C 286.881 294.142,302.300 276.253,313.372 251.869 C 322.346 232.105,325.138 205.959,320.825 182.082 C 320.615 180.917,320.347 179.657,320.230 179.282 C 319.864 178.102,320.584 177.580,323.637 176.815 C 328.622 175.564,328.451 175.446,329.443 180.800 M266.500 228.534 L 260.400 229.755 260.400 231.478 C 260.400 233.434,260.320 233.409,264.000 232.600 C 269.505 231.389,269.499 231.106,264.179 240.362 C 260.870 246.117,259.983 247.975,260.079 248.953 C 260.223 250.432,260.044 250.425,266.400 249.199 C 275.212 247.499,274.983 247.581,275.129 246.049 C 275.317 244.081,274.973 243.978,271.000 244.812 C 264.449 246.188,264.570 246.628,269.259 238.524 C 276.006 226.865,275.944 226.643,266.500 228.534 M244.519 232.820 C 241.324 233.451,240.373 235.157,242.346 236.716 C 243.316 237.483,243.574 250.282,242.627 250.645 C 241.267 251.167,241.829 253.605,243.300 253.562 C 246.880 253.456,248.592 252.695,248.721 251.151 C 248.817 250.008,248.683 249.663,248.085 249.506 C 246.734 249.153,246.240 236.630,247.531 235.463 C 248.031 235.010,248.206 234.423,248.085 233.601 C 247.892 232.284,247.579 232.215,244.519 232.820 M71.466 237.000 C 71.766 238.100,72.179 239.630,72.384 240.400 C 75.991 253.939,83.039 269.291,90.833 280.584 C 94.682 286.163,95.343 287.050,98.147 290.400 C 134.521 333.856,192.207 350.400,245.140 332.555 C 271.607 323.633,293.792 307.762,310.000 286.154 C 311.350 284.354,311.868 284.440,315.369 287.041 C 318.971 289.718,319.137 288.982,313.335 296.048 C 303.228 308.358,286.358 322.580,273.410 329.706 C 262.112 335.923,250.115 340.832,240.400 343.212 C 220.941 347.979,204.410 349.372,187.400 347.677 C 181.732 347.112,180.974 346.987,172.400 345.187 C 119.904 334.167,76.681 293.067,63.808 241.925 C 62.400 236.334,62.393 236.360,65.805 235.528 C 70.212 234.454,70.815 234.611,71.466 237.000 M231.600 235.089 C 222.352 236.460,221.062 247.586,230.150 247.602 C 232.012 247.606,234.289 248.335,234.549 249.011 C 235.546 251.609,230.707 253.901,228.271 251.984 L 227.234 251.169 225.617 252.189 C 223.744 253.372,223.688 253.568,224.900 254.704 C 229.347 258.869,238.800 254.692,238.800 248.562 C 238.800 245.450,236.648 244.068,231.719 244.017 C 228.550 243.985,227.179 242.760,227.973 240.672 C 228.627 238.951,232.638 237.567,233.400 238.800 C 234.001 239.772,237.200 238.305,237.200 237.057 C 237.200 235.966,233.784 234.765,231.600 235.089 M209.000 239.638 C 208.120 239.835,206.995 240.091,206.500 240.206 C 205.308 240.483,205.220 242.832,206.370 243.651 C 207.650 244.563,208.053 256.347,206.842 257.475 C 206.181 258.091,206.049 258.546,206.247 259.533 C 206.530 260.952,206.478 260.930,208.400 260.434 C 209.170 260.236,210.475 259.959,211.300 259.818 C 213.090 259.514,213.473 257.533,212.000 256.200 C 210.931 255.233,210.751 242.658,211.800 242.255 C 212.177 242.111,212.400 241.499,212.400 240.613 C 212.400 239.040,212.082 238.949,209.000 239.638 M200.800 241.474 C 196.130 242.247,189.358 243.682,189.082 243.958 C 188.151 244.889,188.967 247.004,190.200 246.854 C 194.353 246.349,194.273 246.152,194.357 257.113 C 194.405 263.488,194.492 263.674,196.946 262.649 L 198.385 262.047 198.130 253.856 L 197.875 245.665 199.437 245.263 C 200.297 245.042,201.341 244.802,201.757 244.730 C 203.228 244.477,203.749 241.093,202.292 241.254 C 202.022 241.284,201.350 241.383,200.800 241.474 M175.247 246.432 L 174.295 246.813 174.447 253.070 C 174.546 257.104,174.455 259.377,174.192 259.466 C 173.967 259.543,171.662 257.174,169.068 254.203 C 164.601 249.084,164.276 248.800,162.877 248.806 C 160.259 248.817,160.338 248.438,160.702 259.315 C 161.071 270.346,160.926 269.729,163.040 269.283 L 164.600 268.954 164.475 262.516 C 164.398 258.509,164.502 255.984,164.751 255.830 C 164.972 255.694,167.368 258.107,170.076 261.193 L 175.000 266.804 176.600 266.556 C 177.480 266.419,178.322 266.236,178.471 266.148 C 178.762 265.977,178.500 250.510,178.158 247.700 C 177.935 245.865,177.326 245.600,175.247 246.432 M154.400 250.281 C 150.856 250.891,150.400 251.162,150.400 252.653 C 150.400 253.700,150.595 254.126,151.140 254.268 C 152.364 254.588,152.785 266.939,151.615 268.184 C 150.782 269.070,150.578 270.233,151.109 271.066 C 151.404 271.530,153.236 271.321,156.200 270.485 C 157.745 270.050,158.075 268.302,156.831 267.143 C 156.095 266.457,156.000 265.901,155.997 262.284 C 155.995 260.038,155.882 257.273,155.746 256.140 C 155.531 254.357,155.612 253.982,156.349 253.351 C 157.212 252.612,157.398 251.781,156.957 250.633 C 156.716 250.005,156.322 249.950,154.400 250.281 M256.497 263.300 C 256.242 263.619,256.214 265.101,256.420 267.400 C 256.598 269.380,256.756 272.395,256.772 274.100 L 256.800 277.200 257.920 277.200 C 259.804 277.200,260.000 276.651,260.000 271.376 C 260.000 263.827,259.784 262.800,258.195 262.800 C 257.481 262.800,256.718 263.025,256.497 263.300 M249.200 264.478 C 248.210 264.689,246.995 264.940,246.500 265.038 C 245.315 265.271,245.217 267.625,246.357 268.451 C 247.548 269.314,247.904 281.348,246.767 282.321 C 244.705 284.086,246.019 285.851,248.919 285.212 C 250.064 284.960,251.405 284.671,251.900 284.569 C 253.083 284.327,253.182 281.975,252.044 281.149 C 250.844 280.277,250.480 268.414,251.622 267.381 C 252.416 266.662,252.591 265.763,252.157 264.633 C 251.889 263.934,251.787 263.929,249.200 264.478 M99.918 268.100 C 124.481 309.672,176.741 332.502,225.583 322.996 C 229.636 322.207,229.512 322.114,230.564 326.748 C 231.554 331.109,231.783 330.890,225.145 331.948 C 221.985 332.452,218.500 333.072,217.400 333.326 C 210.980 334.808,187.419 333.665,176.400 331.337 C 174.750 330.989,172.770 330.571,172.000 330.408 C 169.858 329.956,166.283 328.889,161.000 327.124 C 133.422 317.909,108.753 298.519,93.200 273.833 C 90.194 269.061,90.161 269.311,94.100 267.080 C 98.245 264.733,97.893 264.672,99.918 268.100 M239.372 266.429 C 238.352 266.725,237.713 267.539,235.588 271.253 C 234.181 273.711,232.723 276.099,232.346 276.561 L 231.663 277.400 230.402 276.200 C 229.709 275.540,228.129 273.785,226.891 272.300 C 224.573 269.521,222.983 268.863,221.243 269.965 C 220.649 270.341,220.608 277.082,221.147 286.000 L 221.400 290.200 222.794 290.086 C 224.902 289.913,224.956 289.725,224.842 283.006 C 224.718 275.753,224.798 275.650,227.800 279.188 C 230.893 282.834,232.947 282.441,235.326 277.747 C 237.990 272.488,238.308 272.730,238.759 280.359 C 239.169 287.299,239.060 287.007,241.077 286.530 L 242.598 286.171 242.491 280.385 C 242.433 277.203,242.275 272.665,242.141 270.300 C 241.875 265.611,241.929 265.686,239.372 266.429 M207.226 272.607 C 205.027 273.163,205.458 272.311,201.405 284.128 C 197.752 294.779,197.746 294.801,198.500 294.798 C 200.745 294.788,201.837 293.991,202.574 291.825 C 203.412 289.358,203.482 289.313,207.600 288.562 C 212.343 287.698,212.511 287.733,213.518 289.805 C 214.394 291.610,214.395 291.610,216.097 291.354 C 218.192 291.039,218.589 290.709,218.036 289.747 C 217.650 289.077,213.427 280.228,210.981 274.963 C 209.733 272.277,209.387 272.060,207.226 272.607 M192.000 275.491 C 190.466 275.782,190.393 276.170,190.665 282.640 C 190.992 290.425,191.088 290.408,185.136 283.607 C 179.859 277.578,180.006 277.668,176.949 278.600 C 176.494 278.738,176.528 284.106,177.049 294.300 C 177.300 299.219,177.315 299.240,179.945 298.536 L 180.890 298.283 180.745 291.876 C 180.643 287.363,180.733 285.423,181.051 285.317 C 181.299 285.234,183.602 287.592,186.169 290.556 C 188.736 293.520,191.054 296.018,191.318 296.107 C 191.826 296.277,194.328 295.806,194.655 295.478 C 194.761 295.372,194.702 290.814,194.524 285.348 C 194.174 274.615,194.287 275.057,192.000 275.491 M209.285 280.826 C 211.048 284.360,210.953 284.577,207.439 285.014 L 205.079 285.307 205.311 284.143 C 205.764 281.878,207.278 278.359,207.737 278.505 C 207.991 278.586,208.688 279.631,209.285 280.826 M257.446 280.349 C 256.317 281.597,256.740 282.975,258.297 283.125 C 259.371 283.229,259.677 283.069,260.075 282.194 C 260.979 280.212,258.894 278.749,257.446 280.349 " stroke="none" fill="#fcfaf9" fill-rule="evenodd"></path><path id="path1" d="M189.000 62.203 C 177.436 63.575,171.200 64.845,171.200 65.827 C 171.200 66.721,172.441 71.786,172.728 72.064 C 172.878 72.209,175.430 71.922,178.400 71.427 C 191.636 69.219,209.218 68.663,218.800 70.149 C 240.607 73.532,255.754 78.756,271.800 88.428 C 313.764 113.725,337.620 156.314,337.767 206.200 L 337.800 217.400 341.200 217.654 C 345.274 217.959,345.054 218.206,345.415 212.919 C 346.156 202.042,344.820 185.356,342.410 175.400 C 341.984 173.640,341.250 170.580,340.779 168.600 C 328.468 116.896,283.707 74.838,229.600 64.137 C 218.331 61.909,199.171 60.996,189.000 62.203 M190.400 76.607 C 177.535 77.998,174.221 78.818,174.548 80.528 C 175.699 86.541,175.708 86.559,177.351 86.262 C 185.431 84.800,188.581 84.386,194.686 83.986 C 223.564 82.091,252.077 90.571,275.071 107.893 L 276.341 108.850 278.571 106.147 C 281.641 102.425,282.435 103.455,270.200 95.297 C 249.343 81.392,216.749 73.758,190.400 76.607 M128.400 82.319 C 105.280 96.411,87.107 115.976,75.001 139.810 C 71.104 147.483,66.784 158.343,64.981 165.000 C 64.623 166.320,64.157 168.030,63.944 168.800 C 61.968 175.962,60.010 187.712,60.720 188.151 C 60.931 188.281,62.623 188.505,64.480 188.647 L 67.855 188.907 68.370 185.353 C 74.212 145.043,99.343 107.759,134.079 87.867 C 136.660 86.389,136.662 86.373,134.798 82.996 C 132.817 79.408,133.124 79.440,128.400 82.319 M195.400 90.840 C 190.518 91.168,183.657 92.057,180.400 92.782 C 179.410 93.003,177.371 93.451,175.868 93.777 C 135.799 102.492,100.091 138.196,91.380 178.256 C 91.052 179.765,90.605 181.810,90.386 182.800 C 87.505 195.867,87.579 215.716,90.550 227.200 C 90.863 228.410,91.337 230.480,91.602 231.800 C 95.609 251.739,109.803 275.256,126.882 290.254 C 142.262 303.761,156.840 311.139,178.600 316.429 C 188.215 318.767,205.504 319.505,215.800 318.018 C 224.663 316.738,224.556 316.758,231.500 315.026 C 234.698 314.229,243.474 311.277,245.375 310.360 C 246.241 309.942,247.102 309.600,247.287 309.600 C 248.094 309.600,254.884 306.144,261.369 302.434 C 284.879 288.982,306.041 260.896,312.593 234.451 C 312.927 233.103,313.479 230.875,313.821 229.500 C 318.449 210.851,317.110 187.192,310.339 168.000 C 308.575 163.000,308.420 162.185,308.410 157.847 C 308.397 152.462,307.853 151.571,303.527 149.849 C 302.591 149.477,301.802 148.777,301.365 147.932 C 288.430 122.907,257.299 99.795,228.200 93.614 C 226.000 93.147,223.840 92.677,223.400 92.570 C 219.646 91.658,204.905 90.258,201.200 90.462 C 200.650 90.493,198.040 90.663,195.400 90.840 M236.762 128.089 C 240.025 129.081,242.800 133.545,242.800 137.800 C 242.800 146.987,232.812 154.331,225.859 150.256 C 214.411 143.547,223.934 124.185,236.762 128.089 M95.088 133.700 C 79.208 157.748,71.440 188.058,74.199 215.200 C 75.160 224.644,75.994 230.075,76.820 232.252 L 77.143 233.103 80.154 232.386 C 84.688 231.306,84.407 232.324,82.751 223.000 C 80.916 212.667,81.429 192.139,83.811 180.600 C 87.038 164.969,94.438 147.580,102.646 136.346 C 104.506 133.801,104.389 133.312,101.396 131.100 C 98.098 128.663,98.532 128.484,95.088 133.700 M217.893 130.900 C 218.279 131.393,219.311 152.697,218.975 153.240 C 218.620 153.815,214.750 154.510,214.316 154.076 C 214.077 153.837,213.808 150.891,213.692 147.228 C 213.452 139.720,213.562 139.842,211.023 144.262 C 207.906 149.689,206.028 150.118,202.525 146.200 C 201.246 144.770,200.098 143.600,199.974 143.600 C 199.850 143.600,199.828 146.643,199.924 150.361 L 200.100 157.122 197.818 157.596 C 196.563 157.857,195.458 157.992,195.363 157.896 C 195.055 157.588,194.417 145.969,194.408 140.519 L 194.400 135.238 195.900 134.821 C 198.717 134.039,198.925 134.153,202.828 138.610 C 204.855 140.925,206.609 142.725,206.725 142.609 C 206.841 142.492,208.395 139.937,210.178 136.930 C 213.615 131.133,213.508 131.231,217.251 130.452 C 217.389 130.424,217.678 130.625,217.893 130.900 M229.800 133.544 C 224.240 136.979,225.018 146.000,230.874 146.000 C 236.833 146.000,239.991 137.283,235.354 133.635 C 234.010 132.578,231.432 132.536,229.800 133.544 M189.235 137.618 C 191.548 138.798,191.625 139.447,189.669 141.272 C 188.040 142.792,187.981 142.811,186.823 142.212 C 185.073 141.307,183.438 141.452,182.031 142.636 C 179.505 144.761,180.611 145.960,185.489 146.385 C 189.613 146.744,190.935 147.277,192.010 149.016 C 195.764 155.090,185.566 163.452,178.685 159.942 C 175.521 158.327,175.243 157.026,177.679 155.235 C 179.673 153.768,179.620 153.775,180.839 154.838 C 182.629 156.401,187.200 155.214,187.200 153.187 C 187.200 152.052,186.362 151.694,183.000 151.395 C 179.230 151.059,177.105 150.050,176.214 148.174 C 173.162 141.742,182.492 134.178,189.235 137.618 M164.140 141.503 C 164.903 142.738,164.803 144.679,163.928 145.623 C 162.543 147.115,162.849 158.802,164.300 159.816 C 165.472 160.635,165.618 163.816,164.500 164.164 C 162.831 164.685,157.463 165.563,157.147 165.367 C 156.405 164.909,156.766 161.556,157.633 160.854 C 158.885 159.840,158.213 147.772,156.855 146.870 C 155.878 146.222,155.646 143.592,156.503 142.881 C 157.467 142.081,163.792 140.940,164.140 141.503 M153.936 154.350 C 154.540 166.719,154.657 166.132,151.499 166.580 C 148.988 166.936,148.800 166.419,148.800 159.174 C 148.800 152.592,148.787 152.582,146.116 157.152 C 143.121 162.274,141.014 162.631,137.600 158.594 C 135.142 155.687,135.200 155.582,135.200 162.976 C 135.200 170.199,135.301 169.931,132.452 170.268 C 129.976 170.562,130.122 171.221,129.775 158.139 C 129.469 146.610,129.428 146.712,134.236 147.159 C 134.475 147.182,136.185 148.996,138.036 151.192 C 142.053 155.958,141.801 155.908,143.800 152.332 C 148.522 143.883,149.272 143.077,152.200 143.306 L 153.400 143.400 153.936 154.350 M299.767 157.443 C 300.329 157.658,300.400 159.409,300.400 173.053 L 300.400 188.420 299.437 188.786 C 298.908 188.987,297.423 189.270,296.137 189.413 L 293.800 189.675 288.634 181.837 C 285.792 177.526,283.417 174.049,283.356 174.110 C 283.295 174.171,283.208 178.044,283.163 182.715 C 283.111 188.145,282.922 191.425,282.641 191.807 C 282.120 192.513,278.026 193.449,277.067 193.081 C 276.222 192.757,276.024 162.680,276.863 162.161 C 277.546 161.739,281.699 160.944,282.421 161.097 C 282.762 161.169,285.372 164.709,288.221 168.964 L 293.400 176.699 293.600 167.782 C 293.825 157.768,293.613 158.505,296.470 157.808 C 299.205 157.141,299.031 157.160,299.767 157.443 M263.994 165.835 C 271.036 167.926,274.666 177.692,271.666 186.472 C 267.068 199.932,249.574 202.092,244.797 189.790 C 239.729 176.741,251.454 162.111,263.994 165.835 M240.031 170.700 C 240.048 171.085,240.065 177.946,240.069 185.948 C 240.077 202.332,240.297 201.250,236.823 201.905 C 233.288 202.571,233.465 203.067,233.686 193.116 C 233.887 184.060,233.725 183.174,232.672 187.600 C 228.737 204.143,228.992 203.455,226.589 204.012 C 222.046 205.066,222.285 205.369,219.795 195.400 C 218.751 191.220,217.774 187.663,217.624 187.496 C 217.475 187.329,217.431 191.295,217.526 196.310 L 217.699 205.427 216.634 205.912 C 214.866 206.717,211.206 207.014,211.168 206.355 C 210.798 199.955,211.156 176.279,211.629 175.837 C 212.470 175.051,219.915 173.755,220.460 174.300 C 220.697 174.537,221.423 176.771,222.073 179.265 C 222.723 181.759,223.695 185.497,224.232 187.572 C 224.770 189.646,225.260 191.393,225.320 191.454 C 225.381 191.514,226.492 187.331,227.790 182.157 C 230.568 171.078,230.229 171.676,234.235 170.792 C 238.570 169.836,239.992 169.813,240.031 170.700 M144.730 171.719 C 144.916 172.704,144.090 173.600,142.994 173.600 C 141.899 173.600,141.446 172.636,142.028 171.547 C 142.569 170.536,144.529 170.661,144.730 171.719 M140.157 172.233 C 140.291 172.581,140.400 175.875,140.400 179.553 C 140.400 186.720,140.274 187.200,138.396 187.200 C 137.823 187.200,137.004 187.464,136.576 187.787 C 134.691 189.213,131.653 187.982,130.552 185.346 C 128.768 181.077,131.959 175.499,135.825 176.127 L 137.200 176.350 137.200 174.395 C 137.200 171.973,139.432 170.342,140.157 172.233 M256.200 172.578 C 249.793 175.562,249.053 188.541,255.144 191.086 C 260.170 193.186,265.220 187.872,265.301 180.400 C 265.377 173.280,261.621 170.052,256.200 172.578 M153.890 173.189 C 159.232 176.447,154.987 186.834,149.145 184.799 C 143.140 182.707,145.162 172.508,151.600 172.417 C 152.150 172.409,153.180 172.757,153.890 173.189 M144.557 175.033 C 144.691 175.381,144.800 177.776,144.800 180.356 C 144.800 185.529,144.447 186.574,142.778 186.338 C 141.656 186.180,141.006 176.197,142.037 174.955 C 142.662 174.203,144.258 174.252,144.557 175.033 M187.600 175.136 C 187.600 175.569,186.081 176.008,177.800 177.967 C 162.281 181.637,162.000 181.677,162.000 180.215 C 162.000 179.058,162.596 178.852,169.618 177.589 C 172.138 177.136,176.058 176.430,178.329 176.020 C 180.600 175.610,182.565 175.168,182.696 175.038 C 183.066 174.667,187.600 174.758,187.600 175.136 M149.622 175.978 C 147.798 177.802,148.462 182.400,150.551 182.400 C 152.055 182.400,153.200 180.675,153.200 178.408 C 153.200 175.529,151.337 174.263,149.622 175.978 M324.100 177.298 C 320.358 178.198,320.476 177.984,321.365 182.274 C 323.527 192.703,324.132 210.296,322.656 219.800 C 319.821 238.046,315.512 250.788,307.272 265.288 C 306.444 266.746,305.296 268.597,303.234 271.800 C 294.434 285.469,278.622 300.407,263.871 308.988 C 261.608 310.304,261.606 310.602,263.823 314.385 C 265.363 317.014,265.699 317.174,267.200 316.000 C 267.750 315.570,268.341 315.214,268.513 315.209 C 268.958 315.196,276.899 309.839,280.000 307.460 C 303.812 289.193,319.648 265.464,327.154 236.800 C 328.337 232.279,328.670 230.589,329.789 223.400 C 331.563 212.013,331.637 197.496,329.973 187.200 C 328.099 175.596,328.483 176.243,324.100 177.298 M128.031 179.169 C 129.138 180.277,129.204 180.531,129.267 183.969 C 129.303 185.966,129.348 187.915,129.367 188.300 C 129.391 188.810,129.037 189.035,128.064 189.128 C 127.328 189.198,126.158 189.603,125.464 190.027 C 121.485 192.452,117.312 188.305,120.236 184.831 C 120.805 184.154,121.088 183.600,120.864 183.600 C 120.640 183.600,120.158 183.301,119.793 182.935 C 117.872 181.015,116.014 183.624,116.006 188.251 C 115.999 191.778,115.596 192.568,113.922 192.331 C 113.014 192.202,113.000 192.122,113.000 187.077 C 113.000 181.050,113.200 180.230,114.604 180.499 C 115.151 180.603,115.914 180.450,116.300 180.157 C 117.251 179.435,119.171 179.459,119.454 180.196 C 119.633 180.663,120.035 180.490,121.313 179.396 C 123.541 177.489,126.259 177.397,128.031 179.169 M133.823 179.689 C 132.598 181.437,133.400 185.600,134.961 185.600 C 136.519 185.600,137.813 181.492,136.831 179.659 C 136.226 178.527,134.625 178.543,133.823 179.689 M199.219 179.571 C 214.077 185.216,208.448 210.147,192.016 211.472 C 180.405 212.408,174.436 196.793,182.092 185.513 C 185.635 180.293,193.730 177.485,199.219 179.571 M123.556 181.058 C 123.201 181.157,122.701 181.700,122.443 182.265 C 121.933 183.386,122.352 183.407,125.015 182.394 C 126.844 181.699,125.541 180.506,123.556 181.058 M124.427 185.386 C 122.786 185.945,121.999 186.959,122.680 187.640 C 123.726 188.686,126.289 186.947,125.925 185.438 C 125.825 185.023,125.523 185.013,124.427 185.386 M191.925 185.743 C 185.483 187.748,183.668 201.084,189.400 204.291 C 194.771 207.297,200.149 201.960,200.174 193.600 C 200.192 187.282,196.939 184.182,191.925 185.743 M161.747 186.604 C 162.258 187.115,162.352 189.004,162.357 198.852 C 162.360 205.256,162.454 210.587,162.566 210.699 C 162.678 210.811,165.763 210.298,169.423 209.559 C 176.981 208.033,177.200 208.082,177.200 211.303 C 177.200 214.124,176.424 214.681,171.222 215.592 C 168.013 216.154,157.297 218.388,156.690 218.621 C 154.893 219.310,154.783 218.394,154.810 203.016 C 154.840 185.756,154.283 187.315,160.871 186.052 C 161.021 186.023,161.415 186.272,161.747 186.604 M195.533 190.300 C 197.469 194.049,195.352 200.800,192.241 200.800 C 189.299 200.800,189.520 191.062,192.489 189.868 C 193.638 189.407,195.185 189.626,195.533 190.300 M141.511 190.900 C 141.736 191.175,142.677 193.380,143.603 195.800 C 144.528 198.220,145.523 200.740,145.812 201.400 C 146.102 202.060,146.597 203.320,146.913 204.200 C 147.927 207.022,151.113 215.351,151.763 216.878 C 152.619 218.889,152.275 219.475,149.948 219.974 C 146.018 220.817,145.862 220.746,144.613 217.562 C 143.339 214.316,144.092 214.500,137.400 215.802 C 132.960 216.666,133.025 216.613,131.921 220.289 C 130.887 223.734,130.509 224.071,126.862 224.811 C 124.274 225.336,123.429 225.066,123.809 223.836 C 124.325 222.166,127.182 213.172,129.601 205.600 C 131.182 200.650,132.754 195.700,133.094 194.600 C 133.905 191.974,134.173 191.730,137.001 191.047 C 140.054 190.308,141.002 190.278,141.511 190.900 M116.454 197.515 C 121.016 199.885,122.354 203.748,119.000 204.868 C 115.895 205.905,114.928 205.807,114.191 204.383 C 112.802 201.697,106.694 201.982,105.808 204.774 C 105.199 206.694,106.430 207.468,112.200 208.793 C 119.606 210.493,122.025 212.668,122.094 217.686 C 122.237 228.202,104.873 233.067,99.178 224.105 C 97.367 221.255,97.627 219.991,100.200 219.132 C 103.493 218.032,104.070 218.152,105.133 220.157 C 106.874 223.437,114.309 222.569,114.729 219.036 C 114.964 217.056,113.878 216.373,108.832 215.328 C 100.463 213.595,96.820 208.751,99.374 202.749 C 101.681 197.327,110.746 194.549,116.454 197.515 M137.850 200.400 C 137.725 200.730,136.910 203.047,136.037 205.548 L 134.451 210.096 135.726 209.853 C 139.031 209.220,140.949 208.785,141.102 208.631 C 141.194 208.539,140.551 206.514,139.673 204.132 C 138.764 201.668,137.978 200.059,137.850 200.400 M196.000 215.966 C 196.000 216.167,193.525 216.907,190.500 217.610 C 181.212 219.770,180.637 219.948,179.800 220.917 C 179.360 221.427,176.843 224.393,174.207 227.509 C 168.690 234.029,168.861 234.011,168.758 228.097 C 168.663 222.700,168.576 222.576,165.328 223.188 C 164.048 223.429,159.220 224.243,154.600 224.998 C 146.834 226.266,142.936 226.936,133.400 228.645 C 127.123 229.770,119.785 230.615,121.800 229.981 C 124.859 229.019,168.002 220.400,169.759 220.400 C 170.659 220.400,170.667 220.443,170.482 224.600 C 170.244 229.950,170.434 230.006,173.800 225.590 C 178.923 218.869,179.323 218.519,182.493 217.980 C 184.092 217.708,187.650 217.082,190.400 216.590 C 193.150 216.098,195.535 215.674,195.700 215.647 C 195.865 215.621,196.000 215.765,196.000 215.966 M274.318 228.816 C 274.426 230.459,268.766 241.664,266.760 243.780 C 265.633 244.969,266.800 245.067,271.271 244.162 C 275.327 243.340,275.678 243.480,275.522 245.865 C 275.405 247.668,275.341 247.755,273.800 248.222 C 271.120 249.035,260.003 250.937,259.701 250.635 C 258.666 249.600,259.562 247.200,263.557 240.302 C 268.242 232.212,268.214 232.350,265.000 233.036 C 261.262 233.834,260.136 233.761,259.852 232.700 C 259.048 229.700,259.730 229.212,266.400 228.022 C 269.150 227.531,271.580 227.066,271.800 226.988 C 273.393 226.422,274.201 227.008,274.318 228.816 M119.400 230.800 C 119.264 231.020,118.542 231.200,117.795 231.200 C 117.049 231.200,115.974 231.411,115.408 231.669 C 114.620 232.028,114.268 232.028,113.909 231.669 C 113.550 231.310,113.717 231.199,114.620 231.194 C 115.269 231.191,116.070 231.013,116.400 230.800 C 117.202 230.282,119.720 230.282,119.400 230.800 M248.167 231.843 C 249.149 232.220,249.027 235.346,248.003 236.051 C 247.009 236.735,247.241 248.800,248.248 248.800 C 249.473 248.800,250.077 251.906,249.022 252.781 C 248.464 253.245,243.691 254.400,242.335 254.400 C 241.164 254.400,240.892 251.236,241.992 250.406 C 243.233 249.470,242.833 237.391,241.547 236.983 C 240.967 236.799,240.800 236.353,240.800 234.988 C 240.800 233.062,240.966 232.962,245.755 232.014 C 246.660 231.834,247.430 231.668,247.467 231.644 C 247.504 231.620,247.819 231.709,248.167 231.843 M235.838 235.218 C 238.164 236.344,238.287 236.978,236.497 238.622 C 234.958 240.035,234.232 240.298,233.800 239.600 C 233.454 239.040,230.333 239.123,229.565 239.713 C 227.233 241.503,228.028 243.015,231.500 243.392 C 236.302 243.912,236.955 244.093,238.079 245.218 C 241.003 248.141,238.811 253.551,233.691 256.047 C 228.358 258.647,220.634 254.844,225.093 251.814 C 226.787 250.663,227.809 250.524,228.145 251.400 C 228.511 252.355,232.190 252.210,233.200 251.200 C 235.103 249.297,234.252 248.569,229.501 248.036 C 223.773 247.394,221.887 244.392,224.241 239.667 C 226.441 235.253,231.723 233.226,235.838 235.218 M66.600 235.888 C 65.280 236.207,63.954 236.545,63.654 236.639 C 63.104 236.811,63.114 236.924,63.988 240.400 C 64.181 241.170,64.631 242.968,64.987 244.396 C 65.666 247.113,68.098 254.540,68.985 256.600 C 69.269 257.260,70.353 259.780,71.394 262.200 C 76.087 273.108,85.409 288.551,90.984 294.655 C 91.213 294.906,92.107 296.019,92.972 297.130 C 97.364 302.772,110.803 315.104,119.257 321.249 C 132.859 331.137,153.317 340.485,168.656 343.820 C 170.165 344.148,172.210 344.597,173.200 344.817 C 179.577 346.234,184.672 346.873,197.430 347.858 C 204.539 348.407,223.102 346.732,231.000 344.830 C 231.880 344.618,233.860 344.178,235.400 343.853 C 251.566 340.433,268.639 332.858,284.000 322.288 C 295.752 314.202,307.983 302.573,316.004 291.860 L 317.756 289.521 316.778 288.761 C 314.640 287.100,311.592 285.076,311.466 285.233 C 311.392 285.325,309.756 287.380,307.830 289.800 C 303.384 295.388,293.835 305.171,289.400 308.684 C 288.520 309.381,286.810 310.735,285.600 311.693 C 238.442 349.016,168.926 349.528,120.800 312.908 C 109.642 304.417,97.955 292.100,90.407 280.874 C 80.937 266.791,75.889 255.431,70.777 236.700 C 70.318 235.018,70.255 235.005,66.600 235.888 M212.833 240.352 C 213.021 241.757,212.916 242.234,212.287 242.820 C 211.149 243.879,211.636 255.377,212.846 256.025 C 213.869 256.572,213.908 259.410,212.900 259.939 C 211.878 260.475,206.503 261.311,206.016 261.010 C 205.335 260.589,205.538 257.923,206.319 257.026 C 207.426 255.752,207.109 244.406,205.957 244.105 C 203.986 243.589,204.463 240.353,206.600 239.745 C 212.342 238.112,212.536 238.131,212.833 240.352 M203.378 242.162 C 203.902 244.239,203.359 244.915,200.761 245.420 L 198.600 245.840 198.491 248.220 C 198.431 249.529,198.523 253.190,198.695 256.355 C 199.057 263.000,199.002 263.152,196.200 263.297 L 194.200 263.400 193.950 260.600 C 193.812 259.060,193.677 255.392,193.650 252.448 L 193.600 247.097 191.234 247.364 C 188.568 247.666,188.424 247.560,188.333 245.235 C 188.250 243.114,187.689 243.382,195.441 241.837 C 203.337 240.264,202.895 240.246,203.378 242.162 M178.316 245.700 C 178.558 245.993,178.850 250.381,179.021 256.288 L 179.313 266.377 178.231 266.788 C 175.459 267.842,174.892 267.528,170.609 262.571 C 168.413 260.030,166.522 257.797,166.405 257.608 C 165.415 256.006,165.128 257.203,165.065 263.195 L 165.000 269.391 163.055 269.747 C 161.598 270.014,161.032 269.975,160.797 269.594 C 160.417 268.980,159.883 255.799,160.068 251.603 L 160.200 248.605 162.170 248.247 C 164.122 247.891,164.152 247.902,165.570 249.449 C 168.674 252.838,172.609 257.320,173.118 258.047 C 173.939 259.219,174.506 258.520,174.248 256.653 C 173.918 254.267,173.815 246.451,174.110 246.157 C 174.349 245.918,176.505 245.327,177.451 245.241 C 177.699 245.218,178.088 245.425,178.316 245.700 M157.600 251.455 C 157.600 252.730,157.416 253.296,156.941 253.478 C 155.849 253.897,156.477 265.943,157.636 266.823 C 158.270 267.305,158.428 267.806,158.329 269.023 C 158.188 270.747,157.258 271.183,152.300 271.848 L 150.400 272.103 150.400 270.252 C 150.400 269.022,150.635 268.165,151.100 267.700 C 152.272 266.528,151.766 255.469,150.500 254.584 C 148.024 252.853,149.357 250.865,153.600 249.960 C 157.352 249.160,157.600 249.253,157.600 251.455 M260.200 269.782 L 260.200 277.364 258.629 277.691 C 256.448 278.144,256.469 278.204,256.057 270.410 C 255.605 261.847,255.556 261.976,259.200 262.152 L 260.200 262.200 260.200 269.782 M252.725 265.538 C 252.818 266.836,252.671 267.406,252.146 267.790 C 251.387 268.345,251.373 268.758,251.847 276.665 C 252.059 280.197,252.190 280.756,252.845 280.928 C 253.885 281.200,253.927 284.197,252.898 284.748 C 252.191 285.126,248.085 286.035,246.600 286.142 C 245.491 286.222,245.216 283.088,246.233 281.963 C 247.292 280.793,246.741 269.661,245.584 268.851 C 243.319 267.266,244.657 264.858,248.200 264.145 C 252.121 263.355,252.578 263.496,252.725 265.538 M242.539 268.700 C 242.672 270.405,242.900 275.066,243.044 279.057 C 243.336 287.118,243.437 286.778,240.581 287.317 C 238.631 287.686,238.520 287.393,238.208 281.100 C 237.869 274.231,237.934 274.301,235.600 278.309 C 233.978 281.094,233.625 281.455,232.035 281.958 L 230.270 282.517 227.931 280.058 C 226.644 278.706,225.518 277.600,225.429 277.600 C 225.339 277.600,225.296 280.419,225.333 283.865 L 225.400 290.130 223.290 290.610 C 222.129 290.874,221.098 290.958,220.998 290.797 C 220.746 290.388,220.013 277.341,220.006 273.129 L 220.000 269.657 222.255 269.153 C 224.449 268.662,224.531 268.675,225.289 269.624 C 227.147 271.951,231.285 276.400,231.590 276.400 C 231.874 276.400,233.023 274.577,236.400 268.769 C 237.925 266.145,238.650 265.631,240.848 265.612 L 242.297 265.600 242.539 268.700 M94.306 267.534 C 91.041 269.311,91.035 269.378,93.740 273.686 C 103.832 289.761,118.825 304.427,135.600 314.633 C 146.538 321.288,154.086 324.534,169.400 329.169 C 182.946 333.269,205.020 334.572,220.600 332.190 C 232.002 330.447,231.055 331.319,229.392 324.100 C 229.141 323.012,228.369 322.965,224.408 323.798 C 216.053 325.556,199.143 326.269,190.774 325.216 C 177.953 323.603,172.120 322.289,162.000 318.732 C 148.116 313.853,131.563 304.172,122.146 295.422 C 112.901 286.832,105.098 277.619,99.852 269.100 C 97.663 265.544,97.859 265.600,94.306 267.534 M209.851 271.906 C 210.098 272.068,211.358 274.441,212.651 277.179 C 213.943 279.917,215.924 284.057,217.053 286.379 C 219.341 291.084,219.319 291.309,216.514 291.933 C 214.494 292.383,213.886 292.030,213.008 289.900 C 212.668 289.075,212.257 288.401,212.095 288.401 C 210.933 288.406,204.516 289.738,204.137 290.052 C 203.877 290.268,203.347 291.328,202.958 292.408 C 202.217 294.471,201.909 294.721,199.528 295.191 C 196.681 295.754,196.411 297.077,203.206 277.200 C 204.889 272.279,204.639 272.510,209.200 271.650 C 209.310 271.629,209.603 271.744,209.851 271.906 M194.858 278.600 C 195.258 284.195,195.242 295.927,194.833 296.179 C 194.631 296.304,193.680 296.514,192.718 296.646 L 190.969 296.886 186.230 291.443 C 183.623 288.449,181.399 286.000,181.288 286.000 C 181.176 286.000,181.179 288.786,181.293 292.192 C 181.526 299.125,181.551 299.055,178.800 299.263 L 177.000 299.400 176.738 296.800 C 176.154 290.996,175.883 278.520,176.335 278.240 C 176.580 278.089,177.642 277.863,178.694 277.738 L 180.608 277.511 185.116 282.756 C 187.596 285.640,189.805 288.000,190.025 288.000 C 190.280 288.000,190.384 285.719,190.313 281.724 L 190.200 275.447 191.200 275.154 C 191.750 274.993,192.740 274.893,193.400 274.931 L 194.600 275.000 194.858 278.600 M207.203 280.200 C 205.381 284.876,205.424 285.057,208.179 284.363 C 210.311 283.827,210.276 284.002,208.816 281.200 L 207.670 279.000 207.203 280.200 M260.320 279.680 C 261.755 281.115,260.295 284.000,258.134 284.000 C 257.265 284.000,256.000 282.674,256.000 281.765 C 256.000 279.974,259.112 278.472,260.320 279.680 " stroke="none" fill="#fb934c" fill-rule="evenodd"></path><path id="path2" d="M296.600 158.537 L 294.600 159.005 294.493 168.734 C 294.377 179.272,294.298 179.566,292.409 176.505 C 290.321 173.121,282.746 162.014,282.365 161.779 C 281.906 161.494,278.040 162.371,277.295 162.928 C 276.901 163.223,276.813 166.488,276.895 177.753 L 277.000 192.200 279.149 192.108 C 282.526 191.965,282.400 192.366,282.400 181.751 C 282.400 175.843,282.546 172.400,282.796 172.400 C 283.014 172.400,285.650 176.090,288.653 180.600 L 294.114 188.800 295.670 188.800 C 296.526 188.800,297.852 188.538,298.618 188.218 L 300.010 187.637 299.905 172.924 C 299.787 156.418,300.086 157.720,296.600 158.537 M255.535 166.741 C 240.834 171.613,240.589 196.030,255.230 197.104 C 264.601 197.792,271.991 190.183,272.004 179.834 C 272.017 169.704,264.538 163.758,255.535 166.741 M234.400 171.473 C 230.883 172.288,231.109 171.885,228.603 181.801 C 226.098 191.715,225.661 193.200,225.247 193.200 C 225.088 193.200,223.926 189.198,222.666 184.308 C 219.943 173.737,220.500 174.499,216.115 175.358 C 211.441 176.274,211.834 174.844,211.793 191.106 C 211.752 207.201,211.616 206.462,214.501 205.812 L 216.600 205.340 216.800 193.970 C 216.910 187.717,217.131 182.870,217.291 183.200 C 217.451 183.530,218.674 188.120,220.010 193.400 C 222.806 204.453,222.679 204.219,225.525 203.491 C 228.511 202.727,228.027 203.973,232.407 185.800 C 233.909 179.566,233.954 179.420,234.259 179.726 C 234.541 180.008,234.472 197.644,234.182 199.400 C 233.845 201.433,234.343 201.747,236.944 201.143 C 238.935 200.680,239.204 200.499,239.231 199.609 C 239.269 198.410,239.264 171.535,239.226 171.100 C 239.187 170.652,237.320 170.796,234.400 171.473 M142.675 171.458 C 142.125 172.008,142.411 172.857,143.100 172.724 C 143.485 172.650,143.800 172.337,143.800 172.028 C 143.800 171.396,143.094 171.039,142.675 171.458 M262.575 172.042 C 267.770 175.614,267.090 186.934,261.455 190.700 C 254.254 195.512,247.752 187.238,251.251 177.715 C 253.313 172.102,258.722 169.393,262.575 172.042 M138.275 172.658 C 138.124 172.810,138.000 173.885,138.000 175.048 L 138.000 177.162 135.987 176.924 C 133.691 176.652,132.366 177.498,131.348 179.887 C 129.396 184.469,133.189 189.803,136.400 186.992 C 136.730 186.703,137.540 186.407,138.200 186.333 L 139.400 186.200 139.400 179.433 C 139.400 173.061,139.182 171.751,138.275 172.658 M149.359 173.772 C 145.247 175.561,145.253 183.195,149.366 184.227 C 153.527 185.272,157.041 179.757,154.981 175.416 C 153.986 173.320,151.838 172.692,149.359 173.772 M152.695 175.011 C 155.250 176.801,153.593 183.200,150.574 183.200 C 147.960 183.200,146.982 177.974,149.160 175.642 C 150.448 174.264,151.388 174.096,152.695 175.011 M142.667 175.467 C 141.972 176.162,142.381 185.662,143.100 185.524 C 144.036 185.345,144.408 175.200,143.479 175.200 C 143.179 175.200,142.813 175.320,142.667 175.467 M137.038 178.842 C 137.562 179.421,137.800 180.277,137.800 181.581 C 137.800 185.789,134.613 187.918,132.996 184.792 C 131.026 180.983,134.435 175.966,137.038 178.842 M123.270 178.907 C 121.561 179.454,119.658 181.823,120.368 182.518 C 120.753 182.895,121.049 182.772,121.730 181.951 C 123.491 179.828,126.047 179.457,126.613 181.241 C 126.972 182.373,126.387 182.861,123.910 183.495 C 121.248 184.176,120.000 185.317,120.000 187.070 C 120.000 189.654,122.918 190.914,125.201 189.314 C 125.739 188.937,126.724 188.622,127.390 188.614 L 128.600 188.600 128.475 184.800 C 128.276 178.796,127.250 177.634,123.270 178.907 M190.881 180.166 C 183.999 182.410,180.733 186.552,179.560 194.524 C 176.545 215.026,203.270 216.639,206.834 196.171 C 208.691 185.510,200.303 177.095,190.881 180.166 M116.600 180.909 C 116.160 181.176,115.350 181.396,114.800 181.397 L 113.800 181.400 113.688 186.532 C 113.584 191.270,113.630 191.653,114.288 191.528 C 114.885 191.414,115.032 190.841,115.200 187.975 C 115.417 184.267,116.093 182.705,117.821 181.918 C 118.360 181.672,118.800 181.230,118.800 180.936 C 118.800 180.274,117.670 180.260,116.600 180.909 M126.537 185.577 C 126.376 188.896,121.600 190.174,121.600 186.897 C 121.600 186.148,122.030 185.759,123.700 185.002 C 126.253 183.843,126.618 183.917,126.537 185.577 M197.617 185.700 C 202.789 189.186,201.864 200.767,196.123 204.408 C 190.251 208.132,184.696 203.540,185.306 195.469 C 185.921 187.337,192.408 182.190,197.617 185.700 M158.400 187.278 C 157.410 187.499,156.375 187.864,156.100 188.089 C 155.382 188.676,155.372 217.457,156.090 217.697 C 156.621 217.874,157.353 217.747,163.400 216.427 C 165.600 215.948,168.300 215.386,169.400 215.180 C 176.326 213.880,176.400 213.840,176.400 211.338 C 176.400 208.942,176.201 208.915,169.080 210.358 C 165.711 211.041,162.653 211.600,162.283 211.600 C 161.671 211.600,161.602 210.508,161.506 199.305 C 161.388 185.581,161.640 186.556,158.400 187.278 M137.000 191.765 C 134.340 192.391,134.551 191.929,129.473 208.200 C 128.924 209.960,127.648 213.998,126.637 217.173 C 124.382 224.258,124.360 224.553,126.100 224.199 C 130.361 223.331,130.166 223.488,131.186 220.105 C 131.700 218.397,132.266 216.811,132.443 216.580 C 132.908 215.974,143.411 213.678,143.825 214.092 C 143.917 214.184,144.506 215.505,145.135 217.029 C 146.366 220.014,146.190 219.920,149.510 219.373 C 151.836 218.991,151.857 218.864,150.254 214.889 C 148.199 209.794,146.000 204.042,146.000 203.763 C 146.000 203.630,145.750 202.954,145.444 202.260 C 145.138 201.567,144.120 199.020,143.180 196.600 C 140.839 190.568,141.129 190.795,137.000 191.765 M107.400 197.533 C 101.285 199.365,98.395 203.180,99.574 207.863 C 100.544 211.714,102.877 213.331,109.600 214.808 C 113.916 215.757,115.075 216.362,115.452 217.865 C 116.641 222.602,106.658 225.084,104.513 220.586 C 103.541 218.548,98.800 219.169,98.800 221.334 C 98.800 228.377,112.985 230.357,118.876 224.137 C 124.924 217.751,121.428 211.281,110.800 209.191 C 105.439 208.136,103.679 206.193,105.802 203.670 C 107.930 201.142,112.032 201.061,114.269 203.504 L 115.601 204.958 117.899 204.359 C 120.619 203.651,120.807 203.188,119.311 200.878 C 117.127 197.506,112.155 196.109,107.400 197.533 M139.250 201.015 C 142.626 209.846,142.721 209.220,137.860 210.133 C 134.137 210.832,133.370 210.742,133.820 209.660 C 134.237 208.655,137.600 199.080,137.600 198.895 C 137.600 198.090,138.646 199.434,139.250 201.015 " stroke="none" fill="#100a07" fill-rule="evenodd"></path><path id="path3" d="M296.470 157.808 C 293.613 158.505,293.825 157.768,293.600 167.782 L 293.400 176.699 288.221 168.964 C 285.372 164.709,282.762 161.169,282.421 161.097 C 281.699 160.944,277.546 161.739,276.863 162.161 C 276.024 162.680,276.222 192.757,277.067 193.081 C 278.026 193.449,282.120 192.513,282.641 191.807 C 282.922 191.425,283.111 188.145,283.163 182.715 C 283.208 178.044,283.295 174.171,283.356 174.110 C 283.417 174.049,285.792 177.526,288.634 181.837 L 293.800 189.675 296.137 189.413 C 297.423 189.270,298.908 188.987,299.437 188.786 L 300.400 188.420 300.400 173.053 C 300.400 159.409,300.329 157.658,299.767 157.443 C 299.031 157.160,299.205 157.141,296.470 157.808 M299.905 172.924 L 300.010 187.637 298.618 188.218 C 297.852 188.538,296.526 188.800,295.670 188.800 L 294.114 188.800 288.653 180.600 C 285.650 176.090,283.014 172.400,282.796 172.400 C 282.546 172.400,282.400 175.843,282.400 181.751 C 282.400 192.366,282.526 191.965,279.149 192.108 L 277.000 192.200 276.895 177.753 C 276.813 166.488,276.901 163.223,277.295 162.928 C 278.040 162.371,281.906 161.494,282.365 161.779 C 282.746 162.014,290.321 173.121,292.409 176.505 C 294.298 179.566,294.377 179.272,294.493 168.734 L 294.600 159.005 296.600 158.537 C 300.086 157.720,299.787 156.418,299.905 172.924 M255.439 166.055 C 247.862 168.616,243.855 174.691,243.864 183.600 C 243.877 195.753,254.765 201.906,264.748 195.404 C 279.948 185.502,272.004 160.456,255.439 166.055 M265.767 167.359 C 274.977 172.757,273.848 189.473,263.892 195.126 C 250.832 202.541,239.717 189.385,246.448 174.477 C 249.576 167.547,259.714 163.812,265.767 167.359 M234.235 170.792 C 230.229 171.676,230.568 171.078,227.790 182.157 C 226.492 187.331,225.381 191.514,225.320 191.454 C 225.260 191.393,224.770 189.646,224.232 187.572 C 220.205 172.040,221.213 173.652,216.114 174.586 C 213.962 174.981,211.943 175.544,211.629 175.837 C 211.156 176.279,210.798 199.955,211.168 206.355 C 211.206 207.014,214.866 206.717,216.634 205.912 L 217.699 205.427 217.526 196.310 C 217.431 191.295,217.475 187.329,217.624 187.496 C 217.774 187.663,218.751 191.220,219.795 195.400 C 222.285 205.369,222.046 205.066,226.589 204.012 C 228.992 203.455,228.737 204.143,232.672 187.600 C 233.725 183.174,233.887 184.060,233.686 193.116 C 233.465 203.067,233.288 202.571,236.823 201.905 C 240.297 201.250,240.077 202.332,240.069 185.948 C 240.065 177.946,240.048 171.085,240.031 170.700 C 239.992 169.813,238.570 169.836,234.235 170.792 M142.028 171.547 C 141.446 172.636,141.899 173.600,142.994 173.600 C 144.976 173.600,145.462 171.101,143.523 170.876 C 142.781 170.790,142.323 170.996,142.028 171.547 M239.226 171.100 C 239.264 171.535,239.269 198.410,239.231 199.609 C 239.204 200.499,238.935 200.680,236.944 201.143 C 234.343 201.747,233.845 201.433,234.182 199.400 C 234.472 197.644,234.541 180.008,234.259 179.726 C 233.954 179.420,233.909 179.566,232.407 185.800 C 228.027 203.973,228.511 202.727,225.525 203.491 C 222.679 204.219,222.806 204.453,220.010 193.400 C 218.674 188.120,217.451 183.530,217.291 183.200 C 217.131 182.870,216.910 187.717,216.800 193.970 L 216.600 205.340 214.501 205.812 C 211.616 206.462,211.752 207.201,211.793 191.106 C 211.834 174.844,211.441 176.274,216.115 175.358 C 220.500 174.499,219.943 173.737,222.666 184.308 C 223.926 189.198,225.088 193.200,225.247 193.200 C 225.661 193.200,226.098 191.715,228.603 181.801 C 229.826 176.962,231.046 172.794,231.313 172.539 C 232.263 171.635,239.164 170.380,239.226 171.100 M143.800 172.028 C 143.800 172.337,143.485 172.650,143.100 172.724 C 142.411 172.857,142.125 172.008,142.675 171.458 C 143.094 171.039,143.800 171.396,143.800 172.028 M255.681 172.051 C 250.705 174.514,248.529 184.790,252.000 189.431 C 256.431 195.355,264.780 191.129,265.903 182.393 C 266.989 173.943,262.019 168.914,255.681 172.051 M137.900 172.032 C 137.384 172.332,137.200 172.955,137.200 174.395 L 137.200 176.350 135.825 176.127 C 131.959 175.499,128.768 181.077,130.552 185.346 C 131.653 187.982,134.691 189.213,136.576 187.787 C 137.004 187.464,137.823 187.200,138.396 187.200 C 140.274 187.200,140.400 186.720,140.400 179.553 C 140.400 171.339,140.187 170.700,137.900 172.032 M261.074 172.025 C 268.083 174.674,266.221 189.529,258.668 191.220 C 252.606 192.576,249.225 185.996,251.875 178.000 C 253.434 173.296,257.481 170.668,261.074 172.025 M139.400 179.433 L 139.400 186.200 138.200 186.333 C 137.540 186.407,136.730 186.703,136.400 186.992 C 133.189 189.803,129.396 184.469,131.348 179.887 C 132.366 177.498,133.691 176.652,135.987 176.924 L 138.000 177.162 138.000 175.048 C 138.000 172.877,138.232 172.277,138.975 172.525 C 139.253 172.618,139.400 175.012,139.400 179.433 M149.400 172.967 C 144.353 175.220,144.184 183.071,149.145 184.799 C 150.799 185.375,150.936 185.358,152.732 184.372 C 159.275 180.781,156.116 169.969,149.400 172.967 M153.362 173.655 C 156.281 174.985,156.294 180.852,153.383 183.142 C 149.884 185.894,146.400 183.980,146.400 179.303 C 146.400 174.775,149.787 172.027,153.362 173.655 M142.037 174.955 C 141.006 176.197,141.656 186.180,142.778 186.338 C 144.447 186.574,144.800 185.529,144.800 180.356 C 144.800 174.498,143.891 172.721,142.037 174.955 M149.160 175.642 C 146.982 177.974,147.960 183.200,150.574 183.200 C 151.825 183.200,153.526 181.402,153.835 179.755 C 154.645 175.435,151.741 172.879,149.160 175.642 M182.696 175.038 C 182.565 175.168,180.600 175.610,178.329 176.020 C 176.058 176.430,172.138 177.136,169.618 177.589 C 162.596 178.852,162.000 179.058,162.000 180.215 C 162.000 181.677,162.281 181.637,177.800 177.967 C 186.081 176.008,187.600 175.569,187.600 175.136 C 187.600 174.758,183.066 174.667,182.696 175.038 M143.912 180.295 C 143.813 184.777,143.716 185.406,143.100 185.524 C 142.381 185.662,141.972 176.162,142.667 175.467 C 143.779 174.355,144.022 175.297,143.912 180.295 M152.469 175.862 C 153.521 176.814,153.465 179.955,152.371 181.346 C 151.125 182.930,149.710 182.761,148.947 180.935 C 147.526 177.533,150.145 173.759,152.469 175.862 M121.313 179.396 C 120.035 180.490,119.633 180.663,119.454 180.196 C 119.171 179.459,117.251 179.435,116.300 180.157 C 115.914 180.450,115.151 180.603,114.604 180.499 C 113.200 180.230,113.000 181.050,113.000 187.077 C 113.000 192.122,113.014 192.202,113.922 192.331 C 115.596 192.568,115.999 191.778,116.006 188.251 C 116.014 183.624,117.872 181.015,119.793 182.935 C 120.158 183.301,120.640 183.600,120.864 183.600 C 121.088 183.600,120.805 184.154,120.236 184.831 C 117.312 188.305,121.485 192.452,125.464 190.027 C 126.158 189.603,127.328 189.198,128.064 189.128 C 129.037 189.035,129.391 188.810,129.367 188.300 C 129.348 187.915,129.303 185.966,129.267 183.969 C 129.157 178.023,125.425 175.876,121.313 179.396 M133.795 178.662 C 131.028 181.430,132.923 187.829,135.951 185.938 C 138.765 184.181,138.310 178.000,135.367 178.000 C 134.866 178.000,134.159 178.298,133.795 178.662 M126.792 178.996 C 128.217 179.733,128.319 180.085,128.475 184.800 L 128.600 188.600 127.390 188.614 C 126.724 188.622,125.739 188.937,125.201 189.314 C 122.918 190.914,120.000 189.654,120.000 187.070 C 120.000 185.317,121.248 184.176,123.910 183.495 C 126.387 182.861,126.972 182.373,126.613 181.241 C 126.047 179.457,123.491 179.828,121.730 181.951 C 121.049 182.772,120.753 182.895,120.368 182.518 C 119.658 181.823,121.561 179.454,123.270 178.907 C 125.131 178.312,125.486 178.321,126.792 178.996 M136.831 179.659 C 137.813 181.492,136.519 185.600,134.961 185.600 C 134.081 185.600,133.200 183.898,133.200 182.200 C 133.200 179.277,135.693 177.532,136.831 179.659 M190.214 179.663 C 182.722 182.195,179.046 187.821,179.016 196.800 C 178.947 218.169,206.500 215.729,207.510 194.277 C 208.040 183.025,200.105 176.321,190.214 179.663 M200.200 180.692 C 211.339 186.436,208.325 206.102,195.708 209.999 C 182.857 213.969,174.773 200.511,181.882 186.982 C 184.992 181.064,194.554 177.781,200.200 180.692 M118.800 180.936 C 118.800 181.230,118.360 181.672,117.821 181.918 C 116.093 182.705,115.417 184.267,115.200 187.975 C 115.032 190.841,114.885 191.414,114.288 191.528 C 113.630 191.653,113.584 191.270,113.688 186.532 L 113.800 181.400 114.800 181.397 C 115.350 181.396,116.160 181.176,116.600 180.909 C 117.670 180.260,118.800 180.274,118.800 180.936 M125.901 181.498 C 126.060 181.980,125.018 182.529,122.970 183.043 C 122.025 183.280,121.999 183.241,122.443 182.265 C 123.085 180.857,125.513 180.318,125.901 181.498 M123.700 185.002 C 122.030 185.759,121.600 186.148,121.600 186.897 C 121.600 190.174,126.376 188.896,126.537 185.577 C 126.618 183.917,126.253 183.843,123.700 185.002 M125.614 186.774 C 125.085 187.763,123.323 188.283,122.680 187.640 C 121.999 186.959,122.786 185.945,124.427 185.386 C 125.985 184.855,126.388 185.327,125.614 186.774 M190.965 185.369 C 186.627 187.258,183.988 194.945,185.779 200.471 C 188.325 208.325,197.406 207.152,200.267 198.600 C 203.154 189.967,197.823 182.383,190.965 185.369 M196.798 186.047 C 202.390 189.190,201.122 201.509,194.926 204.250 C 189.483 206.657,185.852 203.338,186.121 196.200 C 186.428 188.089,191.630 183.142,196.798 186.047 M158.216 186.622 C 154.659 187.396,154.839 186.529,154.810 203.016 C 154.783 218.394,154.893 219.310,156.690 218.621 C 157.297 218.388,168.013 216.154,171.222 215.592 C 176.424 214.681,177.200 214.124,177.200 211.303 C 177.200 208.082,176.981 208.033,169.423 209.559 C 165.763 210.298,162.678 210.811,162.566 210.699 C 162.454 210.587,162.360 205.256,162.357 198.852 C 162.351 187.151,162.194 185.798,160.871 186.052 C 160.722 186.081,159.527 186.337,158.216 186.622 M161.506 199.305 C 161.602 210.508,161.671 211.600,162.283 211.600 C 162.653 211.600,165.711 211.041,169.080 210.358 C 176.201 208.915,176.400 208.942,176.400 211.338 C 176.400 213.840,176.326 213.880,169.400 215.180 C 168.300 215.386,165.600 215.948,163.400 216.427 C 157.353 217.747,156.621 217.874,156.090 217.697 C 155.372 217.457,155.382 188.676,156.100 188.089 C 156.665 187.627,159.885 186.842,160.800 186.944 C 161.316 187.001,161.415 188.726,161.506 199.305 M192.489 189.868 C 190.661 190.604,189.348 197.179,190.561 199.526 C 191.968 202.245,195.137 200.359,195.979 196.301 C 196.974 191.506,195.442 188.681,192.489 189.868 M137.001 191.047 C 134.173 191.730,133.905 191.974,133.094 194.600 C 132.754 195.700,131.182 200.650,129.601 205.600 C 127.182 213.172,124.325 222.166,123.809 223.836 C 123.429 225.066,124.274 225.336,126.862 224.811 C 130.509 224.071,130.887 223.734,131.921 220.289 C 133.025 216.613,132.960 216.666,137.400 215.802 C 144.092 214.500,143.339 214.316,144.613 217.562 C 145.862 220.746,146.018 220.817,149.948 219.974 C 152.275 219.475,152.619 218.889,151.763 216.878 C 151.113 215.351,147.927 207.022,146.913 204.200 C 146.597 203.320,146.102 202.060,145.812 201.400 C 145.523 200.740,144.528 198.220,143.603 195.800 C 141.284 189.738,141.568 189.943,137.001 191.047 M141.087 191.700 C 141.299 191.975,142.241 194.180,143.180 196.600 C 144.120 199.020,145.138 201.567,145.444 202.260 C 145.750 202.954,146.000 203.630,146.000 203.763 C 146.000 204.042,148.199 209.794,150.254 214.889 C 151.857 218.864,151.836 218.991,149.510 219.373 C 146.190 219.920,146.366 220.014,145.135 217.029 C 144.506 215.505,143.917 214.184,143.825 214.092 C 143.411 213.678,132.908 215.974,132.443 216.580 C 132.266 216.811,131.700 218.397,131.186 220.105 C 130.166 223.488,130.361 223.331,126.100 224.199 C 124.360 224.553,124.382 224.258,126.637 217.173 C 127.648 213.998,128.924 209.960,129.473 208.200 C 134.551 191.929,134.340 192.391,137.000 191.765 C 139.721 191.126,140.634 191.111,141.087 191.700 M106.600 196.960 C 101.400 198.604,98.800 201.706,98.800 206.265 C 98.800 211.222,101.714 213.854,108.832 215.328 C 113.878 216.373,114.964 217.056,114.729 219.036 C 114.309 222.569,106.874 223.437,105.133 220.157 C 104.070 218.152,103.493 218.032,100.200 219.132 C 97.627 219.991,97.367 221.255,99.178 224.105 C 104.873 233.067,122.237 228.202,122.094 217.686 C 122.025 212.668,119.606 210.493,112.200 208.793 C 106.430 207.468,105.199 206.694,105.808 204.774 C 106.694 201.982,112.802 201.697,114.191 204.383 C 114.928 205.807,115.895 205.905,119.000 204.868 C 121.516 204.028,121.690 203.218,119.918 200.587 C 117.403 196.852,111.782 195.321,106.600 196.960 M116.050 198.110 C 120.491 200.284,121.425 203.441,117.899 204.359 L 115.601 204.958 114.269 203.504 C 112.032 201.061,107.930 201.142,105.802 203.670 C 103.679 206.193,105.439 208.136,110.800 209.191 C 121.428 211.281,124.924 217.751,118.876 224.137 C 112.985 230.357,98.800 228.377,98.800 221.334 C 98.800 219.169,103.541 218.548,104.513 220.586 C 106.105 223.924,113.150 223.686,115.011 220.231 C 116.555 217.364,115.243 216.048,109.600 214.808 C 102.877 213.331,100.544 211.714,99.574 207.863 C 97.707 200.447,108.171 194.252,116.050 198.110 M137.600 198.895 C 137.600 199.080,134.237 208.655,133.820 209.660 C 133.370 210.742,134.137 210.832,137.860 210.133 C 142.721 209.220,142.626 209.846,139.250 201.015 C 138.646 199.434,137.600 198.090,137.600 198.895 M141.102 208.631 C 140.949 208.785,139.031 209.220,135.726 209.853 L 134.451 210.096 136.037 205.548 C 136.910 203.047,137.725 200.730,137.850 200.400 C 137.978 200.059,138.764 201.668,139.673 204.132 C 140.551 206.514,141.194 208.539,141.102 208.631 M190.400 216.590 C 187.650 217.082,184.092 217.708,182.493 217.980 C 179.323 218.519,178.923 218.869,173.800 225.590 C 170.434 230.006,170.244 229.950,170.482 224.600 C 170.667 220.443,170.659 220.400,169.759 220.400 C 168.002 220.400,124.859 229.019,121.800 229.981 C 119.785 230.615,127.123 229.770,133.400 228.645 C 142.936 226.936,146.834 226.266,154.600 224.998 C 159.220 224.243,164.048 223.429,165.328 223.188 C 168.576 222.576,168.663 222.700,168.758 228.097 C 168.861 234.011,168.690 234.029,174.207 227.509 C 176.843 224.393,179.360 221.427,179.800 220.917 C 180.637 219.948,181.212 219.770,190.500 217.610 C 193.525 216.907,196.000 216.167,196.000 215.966 C 196.000 215.765,195.865 215.621,195.700 215.647 C 195.535 215.674,193.150 216.098,190.400 216.590 M116.400 230.800 C 116.070 231.013,115.269 231.191,114.620 231.194 C 113.717 231.199,113.550 231.310,113.909 231.669 C 114.268 232.028,114.620 232.028,115.408 231.669 C 115.974 231.411,117.049 231.200,117.795 231.200 C 118.542 231.200,119.264 231.020,119.400 230.800 C 119.720 230.282,117.202 230.282,116.400 230.800 " stroke="none" fill="#d36737" fill-rule="evenodd"></path><path id="path4" d="" stroke="none" fill="#100bcbc" fill-rule="evenodd"></path></g></svg>