<svg xmlns="http://www.w3.org/2000/svg" width="400" height="400"><g fill-rule="evenodd"><path fill="#fcfaf9" d="M0 200v200h400V0H0v200M219.6 62l7.6 1.2c70.5 11 124 79.1 118.6 151-.3 4.5-.2 4.4-4.7 4-4.7-.4-4.4.2-3.9-7.4a137.8 137.8 0 0 0-3.8-38.1A135 135 0 0 0 177.9 72c-2.5.4-4.9.7-5.2.6-.5-.2-2.6-7.4-2.2-7.7 1.2-.8 11-2.6 18.7-3.4 4.2-.5 27.7-.2 30.4.3m-9 13.9c24.8 1.6 45.7 9 66.5 23.5 5.1 3.6 5 3.2 2.2 6.9-2.6 3.5-2.2 3.6-9.4-1.3-27-18-59.2-24.7-90.2-18.5-4.5 1-4.3 1-4.9-2a45 45 0 0 0-.9-3.5c-.7-2.3.4-2.7 10.5-4 13-1.8 14.8-1.9 26.2-1.1m-75.5 6.6c2 3.6 2.1 4.5.6 5.2-33.3 17.3-60 55.9-66.5 96.2-1 6.4-.4 5.9-6.5 5.2l-2.7-.3v-1.6a144.3 144.3 0 0 1 63.1-102c10.6-7 9.7-6.8 12-2.7m82.3 8.6a115.7 115.7 0 0 1 84.2 56.1c1 1.7 1.6 2.2 3 2.5 3.3 1 4.7 3.8 4.4 8.9-.2 2.7-.1 3.5 1 6.6a114.5 114.5 0 0 1-191.8 117.5 117.9 117.9 0 0 1-29.7-63c-.8-5.3-1-23.2-.2-28.4a118.2 118.2 0 0 1 22.9-55.8 115.9 115.9 0 0 1 83.2-45.2c3-.3 19.6.2 23 .8m12.4 37.5c-7.2 2.5-10.8 13-6.5 18.8 5.4 7.2 16.4 2.8 18.7-7.4 1.7-7.6-5.1-13.9-12.2-11.4M102.1 131c3.2 2.3 3.2 2.4.7 6a122.7 122.7 0 0 0-20 53.6c-.8 4.4-.8 24 0 28.8.2 2 .8 5.5 1.3 7.7.9 4.9 1 4.5-3.4 5.7-4 1-4.5.9-4.8-1.3l-1-6.3a133 133 0 0 1 5-61.5c4.5-13.8 16.8-36.4 19-35l3.2 2.3m112.8.6c-.9.3-1.5 1-2.3 2.3a42.4 42.4 0 0 1-6 9.3c-.2 0-2.1-1.9-4.2-4.2-3-3.4-3.8-4.2-4.5-4-3.6.7-3.3-1.1-2.7 12.9.4 10.2.3 9.8 2.5 9.1l1.7-.5-.2-6.8c-.1-8 0-8.2 3.2-4.5 3.8 4.3 5.2 4 8.4-1.6 3-5.4 3-5.4 3.5 3.8.3 6.6.4 6.8 3 5.8l1.2-.4-.2-7.5c-.6-14.9-.5-14.5-3.4-13.7m20.7 1.5c2.5 1.8 3.2 5.9 1.6 9-3.2 6.7-11.6 5.5-11.7-1.6 0-6 5.9-10.4 10-7.4m-52.8 4.7c-5.9 2-8.5 8.2-4.9 11.4 1.4 1.1 1.8 1.3 7 1.8 2.9.3 3.6 1.3 2.4 3.3-1.3 2.1-4.7 2.6-6.5 1-.7-.6-.9-.6-2.1 0-2.5 1.4-2.6 1.8-.9 3.3 5 4.3 14.3-.3 14.3-7 0-3.3-1.2-4.1-7.1-4.8-3.7-.4-4.5-.8-4.5-2.4 0-2.4 3.5-4.1 6-3l1.6.7 1.2-1.1c2.7-2.6-2-4.9-6.5-3.2m-22.5 4.6-3.2.6-.1 1.6c-.1 1.4 0 1.7.7 2 .7.1.8.4.8 3.5 0 1.9.1 5 .3 7 .2 3.4.2 3.7-.6 4.3-2.4 2-1 3.6 2.6 3 4.3-.8 5.3-2 3.1-4-1.4-1.5-2-14.5-.7-15 .7-.2.9-.6.9-1.8 0-2 0-2-3.8-1.2m-11.1 2.5c-.5.5-2 2.9-3.4 5.3-4 7-3.4 7-8 1.3l-3.5-4-1.8.3c-2.5.3-2.4-.3-2 11.1.4 10.9.4 11.1 1.5 10.9l1.8-.4 1.2-.2-.3-7c-.3-8-.3-8 2.5-5 3.8 4.2 3.2 3.8 5.3 3.2 1.3-.3 1.7-.9 3.6-4.2 3-5.4 3-5.4 3.5 3.6l.3 6.4 1-.1 2-.3.9-.2-.3-9.7c-.3-12.1-.3-11.9-2-11.9-1 0-1.7.3-2.3.9m180.3 35.9c1.9 9.9 2 11.4 2 24.4 0 8.1-.2 13.5-.5 15.2l-1.3 7.6c-6 35.2-28.1 67.5-59.8 87.1-4.7 3-4.6 3-5.6 1l-2-3.4c-1.4-2.5-1.4-2.5 3.5-5.5a121 121 0 0 0 47.7-55.3 122.8 122.8 0 0 0 6.8-72.6c-.3-1.2.4-1.7 3.4-2.5 5-1.2 4.9-1.4 5.8 4m-62.9 47.7-6.1 1.3v1.7c0 2 0 2 3.6 1.1 5.5-1.2 5.5-1.5.2 7.8-3.3 5.7-4.2 7.6-4.1 8.6.1 1.4 0 1.4 6.3.2 8.8-1.7 8.6-1.6 8.7-3.2.2-2-.1-2-4.1-1.2-6.6 1.4-6.4 1.8-1.7-6.3 6.7-11.6 6.6-11.9-2.8-10m-22 4.3c-3.2.7-4.1 2.4-2.2 4 1 .7 1.3 13.5.3 13.8-1.3.6-.8 3 .7 3 3.6-.1 5.3-1 5.4-2.4.1-1.2 0-1.5-.6-1.7-1.4-.3-1.9-12.9-.6-14 .5-.5.7-1 .6-1.9-.2-1.3-.5-1.4-3.6-.8m-173 4.2.9 3.4a138.3 138.3 0 0 0 25.7 50c36.4 43.5 94.1 60 147 42.2 26.5-9 48.7-24.8 64.9-46.4 1.4-1.8 1.9-1.8 5.4.8 3.6 2.7 3.7 2-2 9a157.9 157.9 0 0 1-40 33.7 143.7 143.7 0 0 1-33 13.5c-19.5 4.8-36 6.2-53 4.5A143.3 143.3 0 0 1 63.8 241.9c-1.4-5.6-1.4-5.5 2-6.4 4.4-1 5-.9 5.7 1.5m160.1-2c-9.2 1.5-10.5 12.6-1.4 12.6 1.8 0 4 .7 4.3 1.4 1 2.6-3.8 4.9-6.2 3l-1-.8-1.7 1c-1.9 1.2-2 1.4-.7 2.5 4.4 4.2 13.9 0 13.9-6.1 0-3.2-2.2-4.5-7-4.6-3.3 0-4.6-1.2-3.8-3.3.6-1.7 4.6-3.1 5.4-1.9.6 1 3.8-.5 3.8-1.7 0-1.1-3.4-2.3-5.6-2m-22.6 4.5-2.5.6c-1.2.3-1.3 2.6-.1 3.5 1.3.9 1.7 12.6.4 13.8-.6.6-.8 1-.6 2 .3 1.5.3 1.4 2.2 1 .8-.3 2-.5 2.9-.7 1.8-.3 2.2-2.3.7-3.6-1-1-1.2-13.5-.2-14 .4 0 .6-.7.6-1.6 0-1.6-.3-1.7-3.4-1m-8.2 1.9a104 104 0 0 0-11.7 2.5c-1 .9-.1 3 1.1 2.9 4.2-.6 4-.7 4.2 10.2 0 6.4 0 6.6 2.5 5.5l1.5-.6-.3-8.1-.2-8.2 1.5-.4 2.4-.6c1.4-.2 2-3.6.5-3.4-.3 0-1 0-1.5.2m-25.6 5-1 .3.2 6.3c.1 4 0 6.3-.2 6.4-.2 0-2.5-2.3-5.1-5.3-4.5-5.1-4.8-5.4-6.2-5.4-2.6 0-2.6-.4-2.2 10.5.4 11 .2 10.4 2.3 10l1.6-.3-.1-6.5c-.1-4 0-6.5.3-6.7.2-.1 2.6 2.3 5.3 5.4l4.9 5.6 1.6-.2 1.9-.5c.3-.1 0-15.6-.3-18.4-.3-1.8-.9-2.1-3-1.3m-20.8 3.9c-3.5.6-4 .9-4 2.4 0 1 .2 1.4.7 1.6 1.3.3 1.7 12.6.5 13.9-.8.9-1 2-.5 2.9.3.4 2.1.2 5.1-.6 1.5-.4 1.9-2.2.6-3.4-.7-.6-.8-1.2-.8-4.8 0-2.3-.1-5-.3-6.2-.2-1.7 0-2.1.6-2.7 1-.8 1.1-1.6.7-2.8-.3-.6-.7-.7-2.6-.3m102.1 13c-.3.3-.3 1.8 0 4.1l.3 6.7v3.1h1.1c1.9 0 2.1-.5 2.1-5.8 0-7.6-.2-8.6-1.8-8.6-.7 0-1.5.2-1.7.5m-7.3 1.2-2.7.5c-1.2.3-1.3 2.6-.1 3.5 1.1.8 1.5 12.8.4 13.8-2 1.8-.8 3.6 2.1 3l3-.7c1.2-.3 1.3-2.6.1-3.5-1.2-.8-1.5-12.7-.4-13.7.8-.7 1-1.6.6-2.8-.3-.7-.4-.7-3-.1M99.9 268c24.6 41.6 76.8 64.4 125.7 54.9 4-.8 4-.9 5 3.7 1 4.4 1.2 4.2-5.5 5.2l-7.7 1.4a156.3 156.3 0 0 1-45.4-2.9 130.2 130.2 0 0 1-78.8-56.6c-3-4.7-3-4.5.9-6.7 4.1-2.4 3.8-2.4 5.8 1m139.5-1.7c-1 .3-1.7 1.1-3.8 4.9a74.1 74.1 0 0 1-3.3 5.3l-.6.8-1.3-1.2c-.7-.7-2.3-2.4-3.5-3.9-2.3-2.8-4-3.4-5.7-2.3-.6.3-.6 7 0 16l.2 4.2 1.4-.1c2.1-.2 2.2-.4 2-7 0-7.3 0-7.5 3-4 3 3.7 5.1 3.3 7.5-1.4 2.7-5.2 3-5 3.5 2.7.4 6.9.3 6.6 2.3 6.1l1.5-.3-.1-5.8c0-3.2-.2-7.7-.4-10.1-.2-4.7-.2-4.6-2.7-3.9m-32.2 6.2c-2.2.6-1.7-.3-5.8 11.5-3.6 10.7-3.7 10.7-2.9 10.7 2.2 0 3.3-.8 4-3 1-2.4 1-2.5 5.1-3.2 4.7-.9 5-.9 6 1.2.8 1.8.8 1.8 2.5 1.6 2-.4 2.5-.7 2-1.7A707 707 0 0 1 211 275c-1.3-2.7-1.6-3-3.8-2.4m-15.2 2.9c-1.5.3-1.6.7-1.3 7.1.3 7.8.4 7.8-5.6 1-5.2-6-5-6-8.2-5-.4.1-.4 5.5.1 15.7.3 5 .3 5 3 4.2l.9-.2-.2-6.4c0-4.5 0-6.5.4-6.6.2 0 2.5 2.3 5 5.3 2.6 3 5 5.4 5.2 5.5.5.2 3-.3 3.4-.6l-.2-10.2c-.3-10.7-.2-10.2-2.5-9.8m17.3 5.3c1.7 3.6 1.7 3.8-1.9 4.2l-2.3.3.2-1.2c.5-2.2 2-5.7 2.4-5.6.3 0 1 1.1 1.6 2.3m48.1-.5c-1 1.3-.7 2.7.9 2.8 1 .1 1.4 0 1.8-1 .9-1.9-1.2-3.4-2.7-1.8"/><path fill="#fb934c" d="M189 62.2c-11.6 1.4-17.8 2.6-17.8 3.6s1.2 6 1.5 6.3c.2.1 2.7-.2 5.7-.7 13.2-2.2 30.8-2.7 40.4-1.3 21.8 3.4 37 8.7 53 18.3 42 25.3 65.8 68 66 117.8v11.2l3.4.3c4 .3 3.9.5 4.2-4.8a147.5 147.5 0 0 0-4.6-44.3c-12.3-51.7-57-93.8-111.2-104.5a163.5 163.5 0 0 0-40.6-1.9m1.4 14.4c-12.9 1.4-16.2 2.2-15.9 4 1.2 6 1.2 6 2.9 5.7a120.4 120.4 0 0 1 97.7 21.6l1.2 1 2.3-2.8c3-3.7 3.8-2.6-8.4-10.8a130.7 130.7 0 0 0-79.8-18.7m-62 5.7a142.4 142.4 0 0 0-67.7 105.9l3.8.4 3.4.3.5-3.5c5.8-40.4 31-77.6 65.7-97.5 2.6-1.5 2.6-1.5.7-4.9-2-3.6-1.7-3.6-6.4-.7m67 8.5a126 126 0 0 0-19.5 3 115.6 115.6 0 0 0-85.5 89 113.2 113.2 0 0 0 1.2 49c4 20 18.2 43.5 35.3 58.5a111.5 111.5 0 0 0 88.9 27.7c8.9-1.3 8.8-1.2 15.7-3a135 135 0 0 0 15.8-5.4 117 117 0 0 0 65.3-75.1l1.2-5c4.6-18.6 3.3-42.3-3.5-61.5-1.7-5-1.9-5.8-1.9-10.2 0-5.3-.5-6.2-4.9-8-1-.3-1.7-1-2.1-1.9-13-25-44.1-48.1-73.2-54.3l-4.8-1a150 150 0 0 0-22.2-2.1l-5.8.3m41.4 37.3c3.2 1 6 5.4 6 9.7 0 9.2-10 16.5-17 12.5-11.4-6.8-1.9-26.1 11-22.2M95 133.7a128.9 128.9 0 0 0-18.3 98.6l.3.8 3-.7c4.6-1 4.3 0 2.7-9.4a144 144 0 0 1 1-42.4c3.2-15.6 10.6-33 18.8-44.3 2-2.5 1.8-3-1.2-5.2-3.3-2.4-2.9-2.6-6.3 2.6m122.8-2.8c.4.5 1.4 21.8 1 22.3-.3.6-4.2 1.3-4.6.9-.2-.3-.5-3.2-.6-6.9-.2-7.5-.1-7.4-2.7-3-3 5.5-5 6-8.5 2a21.5 21.5 0 0 0-2.5-2.6c-.2 0-.2 3 0 6.8l.1 6.7-2.3.5c-1.2.3-2.3.4-2.4.3-.3-.3-1-12-1-17.4v-5.3l1.5-.4c2.8-.8 3-.6 7 3.8 2 2.3 3.7 4.1 3.8 4l3.5-5.7c3.4-5.8 3.3-5.7 7-6.4.2 0 .5.1.7.4m11.9 2.6c-5.6 3.5-4.8 12.5 1 12.5 6 0 9.2-8.7 4.6-12.4-1.4-1-4-1-5.6 0m-40.6 4c2.3 1.2 2.4 1.8.5 3.7-1.7 1.5-1.7 1.5-2.9 1-1.7-1-3.4-.8-4.8.3-2.5 2.2-1.4 3.4 3.5 3.8 4.1.3 5.4.9 6.5 2.6 3.8 6-6.4 14.5-13.3 11-3.2-1.7-3.5-3-1-4.8 2-1.4 2-1.4 3.1-.4 1.8 1.6 6.4.4 6.4-1.6 0-1.1-.8-1.5-4.2-1.8-3.8-.3-5.9-1.3-6.8-3.2-3-6.5 6.3-14 13-10.6m-25 3.9c.7 1.2.6 3.2-.3 4.1-1.4 1.5-1 13.2.4 14.2 1.2.8 1.3 4 .2 4.4-1.7.5-7 1.4-7.4 1.2-.7-.5-.3-3.8.5-4.5 1.3-1 .6-13.1-.7-14-1-.7-1.3-3.3-.4-4 1-.8 7.3-2 7.6-1.4M154 154.3c.6 12.4.8 11.8-2.4 12.3-2.5.3-2.7-.2-2.7-7.4 0-6.6 0-6.6-2.7-2-3 5-5 5.4-8.5 1.4-2.5-3-2.4-3-2.4 4.4 0 7.2.1 7-2.7 7.3-2.5.3-2.4 1-2.7-12.2-.3-11.5-.4-11.4 4.4-11 .3 0 2 1.9 3.8 4 4 4.9 3.8 4.8 5.8 1.2 4.7-8.4 5.5-9.2 8.4-9l1.2.1.5 11m145.9 3c.5.3.6 2 .6 15.7v15.3l-1 .4c-.5.2-2 .5-3.3.6l-2.3.3-5.2-7.9-5.2-7.7c-.1 0-.2 4-.2 8.6 0 5.4-.3 8.7-.6 9.1-.5.7-4.6 1.6-5.5 1.3-.9-.3-1-30.4-.2-31 .6-.4 4.8-1.2 5.5-1 .4 0 3 3.6 5.8 7.9l5.2 7.7.2-9c.2-10 0-9.2 2.9-9.9 2.7-.7 2.5-.6 3.3-.4m-35.8 8.4c7 2.1 10.7 11.9 7.7 20.7-4.6 13.4-22.1 15.6-26.9 3.3-5-13 6.7-27.7 19.2-24m-24 4.9v15.2c0 16.4.3 15.3-3.2 16-3.5.7-3.3 1.2-3.1-8.8.2-9 0-10-1-5.5-4 16.5-3.7 15.9-6.1 16.4-4.6 1-4.3 1.4-6.8-8.6-1-4.2-2-7.7-2.2-7.9-.1-.2-.2 3.8 0 8.8l.1 9.1-1 .5c-1.8.8-5.5 1.1-5.5.5-.4-6.4 0-30.1.4-30.6.9-.7 8.3-2 8.9-1.5.2.2 1 2.5 1.6 5a6177.3 6177.3 0 0 1 3.2 12.2l2.5-9.3c2.8-11.1 2.4-10.5 6.4-11.4 4.4-1 5.8-1 5.8-.1m-95.3 1c.2 1-.6 1.9-1.7 1.9s-1.6-1-1-2c.6-1 2.5-1 2.7.1m-4.5.5.2 7.4c0 7.1-.1 7.6-2 7.6-.6 0-1.4.3-1.8.6-2 1.4-5 .2-6-2.5-1.8-4.2 1.4-9.8 5.2-9.2l1.4.3v-2c0-2.4 2.2-4 3-2.2m116 .4c-6.4 3-7.1 16-1 18.5 5 2 10-3.2 10.1-10.7 0-7.1-3.7-10.3-9.1-7.8m-102.3.6c5.3 3.2 1 13.6-4.8 11.6-6-2-4-12.3 2.5-12.4.6 0 1.6.4 2.3.8m-9.3 1.8.2 5.4c0 5.1-.4 6.2-2 6-1.1-.2-1.8-10.2-.8-11.4.7-.8 2.3-.7 2.6 0m43 .1c0 .5-1.5 1-9.8 2.9-15.5 3.6-15.8 3.7-15.8 2.2 0-1.1.6-1.3 7.6-2.6a14343 14343 0 0 0 13.1-2.6c.4-.3 4.9-.2 4.9.1m-38 .9c-1.8 1.8-1.1 6.4 1 6.4 1.5 0 2.6-1.7 2.6-4 0-2.9-1.9-4.1-3.6-2.4m174.5 1.3c-3.7.9-3.6.7-2.7 5a131 131 0 0 1 1.3 37.5 122.7 122.7 0 0 1-19.5 52A127 127 0 0 1 264 309c-2.3 1.3-2.3 1.6 0 5.4 1.5 2.6 1.8 2.8 3.3 1.6.6-.4 1.1-.8 1.3-.8a129.6 129.6 0 0 0 61.3-91.8c1.8-11.4 1.8-25.9.2-36.2-1.9-11.6-1.5-11-5.9-9.9m-196 1.9c1 1 1.1 1.3 1.2 4.8v4.3c0 .5-.3.7-1.2.8-.8.1-2 .5-2.6 1-4 2.4-8.2-1.8-5.3-5.3.6-.6.9-1.2.7-1.2-.3 0-.7-.3-1.1-.7-2-1.9-3.8.7-3.8 5.4 0 3.5-.4 4.3-2 4-1-.1-1-.2-1-5.2 0-6 .2-6.9 1.6-6.6.6.1 1.3 0 1.7-.3 1-.8 2.9-.7 3.2 0 .1.5.5.3 1.8-.8 2.2-2 5-2 6.7-.2m5.8.5c-1.2 1.7-.4 5.9 1.2 5.9 1.5 0 2.8-4.1 1.8-6-.6-1-2.2-1-3 0m65.4 0c14.9 5.6 9.2 30.5-7.2 31.9-11.6 1-17.6-14.7-10-26 3.6-5.2 11.7-8 17.2-6m-75.6 1.6c-.4 0-.9.6-1.2 1.2-.5 1 0 1.1 2.6 0 1.8-.6.5-1.8-1.4-1.2m.8 4.3c-1.6.5-2.4 1.6-1.7 2.2 1 1 3.6-.7 3.2-2.2 0-.4-.4-.4-1.5 0m67.5.3c-6.4 2-8.2 15.4-2.5 18.6 5.4 3 10.7-2.3 10.8-10.7 0-6.3-3.3-9.4-8.3-7.9m-30.2.9c.6.5.7 2.4.7 12.3 0 6.4 0 11.7.2 11.8 0 .1 3.2-.4 6.8-1.1 7.6-1.6 7.8-1.5 7.8 1.7 0 2.8-.8 3.4-6 4.3l-14.5 3c-1.8.7-2-.2-1.9-15.6 0-17.2-.5-15.7 6-17 .2 0 .6.3 1 .6m33.7 3.7c2 3.7-.1 10.5-3.3 10.5-2.9 0-2.7-9.7.3-11 1.1-.4 2.7-.2 3 .5m-54 .6c.2.3 1.2 2.5 2.1 4.9a210.8 210.8 0 0 0 3.3 8.4c1 2.8 4.2 11.2 4.9 12.7.8 2 .5 2.6-1.9 3-3.9 1-4 .8-5.3-2.3-1.3-3.3-.5-3.1-7.2-1.8-4.4.9-4.4.8-5.5 4.5-1 3.4-1.4 3.8-5 4.5-2.6.5-3.5.3-3-1a4235.4 4235.4 0 0 1 9.2-29.2c.8-2.6 1-2.9 3.9-3.6 3-.7 4-.7 4.5-.1m-25 6.6c4.5 2.4 5.9 6.2 2.5 7.4-3.1 1-4 1-4.8-.5-1.4-2.7-7.5-2.4-8.4.4-.6 1.9.6 2.7 6.4 4 7.4 1.7 9.8 3.9 9.9 8.9.1 10.5-17.2 15.4-23 6.4-1.7-2.8-1.5-4.1 1.1-5 3.3-1 3.9-1 5 1 1.7 3.3 9.1 2.5 9.5-1 .3-2-.8-2.7-5.9-3.8-8.3-1.7-12-6.5-9.4-12.6 2.3-5.4 11.3-8.2 17-5.2m21.4 2.9-1.8 5.1-1.5 4.6 1.2-.2c3.3-.7 5.2-1.1 5.4-1.3 0 0-.5-2-1.4-4.5-1-2.4-1.7-4-1.8-3.7M196 216c0 .2-2.5 1-5.5 1.6-9.3 2.2-9.9 2.3-10.7 3.3l-5.6 6.6c-5.5 6.5-5.3 6.5-5.4.6-.1-5.4-.2-5.5-3.5-5l-10.7 1.9-21.2 3.6c-6.3 1.2-13.6 2-11.6 1.4 3-1 46.2-9.6 48-9.6.9 0 .9 0 .7 4.2-.3 5.3 0 5.4 3.3 1 5.1-6.7 5.5-7 8.7-7.6a1220.3 1220.3 0 0 0 13.2-2.4c.2 0 .3.2.3.4m78.3 12.8a56 56 0 0 1-7.5 15c-1.2 1.2 0 1.3 4.5.4 4-.9 4.4-.7 4.2 1.7-.1 1.8-.2 1.9-1.7 2.3-2.7.8-13.8 2.7-14.1 2.4-1-1-.1-3.4 3.9-10.3 4.6-8 4.6-8 1.4-7.3-3.7.8-4.9.8-5.1-.3-.9-3-.2-3.5 6.5-4.7l5.4-1c1.6-.6 2.4 0 2.5 1.8m-154.9 2c-.1.2-.9.4-1.6.4-.8 0-1.8.2-2.4.5-.8.3-1.1.3-1.5 0-.4-.4-.2-.5.7-.5a4 4 0 0 0 1.8-.4c.8-.5 3.3-.5 3 0m128.8 1c1 .4.8 3.5-.2 4.3-1 .6-.8 12.7.2 12.7 1.3 0 1.9 3.1.8 4-.5.4-5.3 1.6-6.7 1.6-1.1 0-1.4-3.2-.3-4 1.2-1 .8-13-.5-13.4-.5-.2-.7-.6-.7-2 0-2 .2-2 5-3l1.7-.4.7.2m-12.4 3.4c2.4 1.1 2.5 1.8.7 3.4-1.5 1.4-2.3 1.7-2.7 1-.3-.6-3.5-.5-4.2.1-2.4 1.8-1.6 3.3 1.9 3.7 4.8.5 5.5.7 6.6 1.8 2.9 3 .7 8.4-4.4 10.8-5.3 2.6-13-1.2-8.6-4.2 1.7-1.1 2.7-1.3 3-.4.4 1 4 .8 5.1-.2 1.9-1.9 1-2.6-3.7-3.2-5.7-.6-7.6-3.6-5.3-8.3 2.2-4.4 7.5-6.5 11.6-4.5m-169.2.7-3 .7c-.5.2-.5.3.4 3.8l1 4c.7 2.7 3.1 10.1 4 12.2l2.4 5.6a147.8 147.8 0 0 0 21.6 35c4.4 5.6 17.8 17.9 26.3 24a148.4 148.4 0 0 0 53.9 23.6c6.4 1.4 11.5 2 24.2 3a160.1 160.1 0 0 0 38-4c16.2-3.4 33.2-11 48.6-21.5a146 146 0 0 0 32-30.4l1.8-2.4-1-.7a30.5 30.5 0 0 0-5.3-3.6l-3.7 4.6a161 161 0 0 1-22.2 21.9 136.3 136.3 0 0 1-164.8 1.2 145.2 145.2 0 0 1-30.4-32C81 266.8 76 255.4 70.8 236.7c-.5-1.7-.5-1.7-4.2-.8m146.2 4.5c.2 1.4.1 1.8-.5 2.4-1.2 1-.7 12.6.5 13.2 1 .6 1.1 3.4.1 4-1 .5-6.4 1.3-6.9 1-.7-.4-.5-3 .3-4 1.1-1.2.8-12.6-.3-12.9-2-.5-1.5-3.7.6-4.4 5.7-1.6 6-1.6 6.2.7m-9.4 1.8c.5 2 0 2.7-2.6 3.2l-2.2.4-.1 2.4c0 1.3 0 5 .2 8.2.4 6.6.3 6.8-2.5 6.9l-2 .1-.3-2.8-.3-8.2v-5.3l-2.4.3c-2.6.3-2.8.2-2.9-2.2 0-2-.6-1.8 7.1-3.4 8-1.5 7.5-1.6 8 .4m-25 3.5c.2.3.4 4.7.6 10.6l.3 10-1 .5c-2.8 1-3.4.7-7.7-4.2l-4.2-5c-1-1.6-1.3-.4-1.3 5.6l-.1 6.2-2 .3c-1.4.3-2 .3-2.2-.1-.4-.6-1-13.8-.7-18l.1-3 2-.4c2-.3 2-.3 3.4 1.2l7.5 8.6c.8 1.2 1.4.5 1.1-1.3-.3-2.4-.4-10.2 0-10.5.1-.3 2.3-.9 3.3-1 .2 0 .6.2.8.5m-20.7 5.8c0 1.2-.2 1.8-.7 2-1 .4-.4 12.4.7 13.3.7.5.8 1 .7 2.2-.1 1.7-1 2.2-6 2.8l-1.9.3v-1.8c0-1.3.2-2.1.7-2.6 1.2-1.2.7-12.2-.6-13.1-2.5-1.7-1.1-3.7 3.1-4.6 3.8-.8 4-.7 4 1.5m102.6 18.3v7.6l-1.6.3c-2.2.4-2.1.5-2.5-7.3-.5-8.6-.5-8.4 3.1-8.2h1v7.6m-7.5-4.3c.1 1.3 0 2-.6 2.3-.7.5-.7 1-.3 8.9.3 3.5.4 4 1 4.2 1 .3 1.1 3.3.1 3.8a32 32 0 0 1-6.3 1.4c-1.1.1-1.4-3-.4-4.1 1-1.2.5-12.3-.6-13.1-2.3-1.6-1-4 2.6-4.8 4-.7 4.4-.6 4.5 1.4m-10.2 3.2c.2 1.7.4 6.4.5 10.4.3 8 .4 7.7-2.4 8.2-2 .4-2 0-2.4-6.2-.3-6.9-.3-6.8-2.6-2.8-1.6 2.8-2 3.2-3.6 3.7l-1.7.5-2.4-2.4a28 28 0 0 0-2.5-2.5v12.5l-2.1.5c-1.2.3-2.2.4-2.3.2-.3-.4-1-13.5-1-17.7v-3.4l2.3-.5c2.1-.5 2.2-.5 3 .4 1.8 2.4 6 6.8 6.3 6.8.3 0 1.4-1.8 4.8-7.6 1.5-2.7 2.3-3.2 4.4-3.2h1.5l.2 3.1m-148.2-1.2c-3.3 1.8-3.3 1.9-.6 6.2a130.5 130.5 0 0 0 75.7 55.5c13.5 4 35.6 5.4 51.2 3 11.4-1.8 10.5-.9 8.8-8.1-.3-1-1-1.1-5-.3a135 135 0 0 1-33.6 1.4c-12.8-1.6-18.7-3-28.8-6.5a127.9 127.9 0 0 1-39.9-23.3 132 132 0 0 1-22.2-26.3c-2.2-3.6-2-3.5-5.6-1.6M210 272c.2.2 1.5 2.5 2.8 5.3l4.4 9.2c2.2 4.7 2.2 5-.6 5.5-2 .5-2.6.1-3.5-2-.3-.8-.7-1.5-1-1.5-1 0-7.5 1.3-7.9 1.7-.2.2-.8 1.2-1.1 2.3-.8 2-1 2.3-3.5 2.8-2.8.6-3 1.9 3.7-18 1.7-5 1.4-4.7 6-5.6l.7.3m-15 6.7c.4 5.6.3 17.3 0 17.6l-2.2.4-1.7.3-4.8-5.5c-2.6-3-4.8-5.4-5-5.4v6.2c.3 7 .4 6.9-2.4 7l-1.8.2-.3-2.6c-.5-5.8-.8-18.3-.4-18.6l2.4-.5 2-.2 4.4 5.3c2.5 2.8 4.7 5.2 5 5.2.2 0 .3-2.3.2-6.3l-.1-6.3 1-.2c.6-.2 1.5-.3 2.2-.3l1.2.1.3 3.6m12.3 1.6c-1.8 4.7-1.8 4.9 1 4.2 2.1-.6 2-.4.6-3.2l-1.1-2.2-.5 1.2m53.1-.5c1.5 1.4 0 4.3-2.2 4.3-.8 0-2.1-1.3-2.1-2.2 0-1.8 3.1-3.3 4.3-2.1"/><path fill="#100a07" d="m296.6 158.5-2 .5-.1 9.7c-.1 10.6-.2 10.9-2 7.8-2.2-3.4-9.8-14.5-10.1-14.7a12 12 0 0 0-5.1 1.1c-.4.3-.5 3.6-.4 14.9l.1 14.4h2.1c3.4-.2 3.3.2 3.3-10.4 0-6 .1-9.4.4-9.4.2 0 2.8 3.7 5.9 8.2l5.4 8.2h1.6c.8 0 2.2-.3 3-.6l1.3-.6-.1-14.7c-.1-16.5.2-15.2-3.3-14.4m-41 8.2c-14.8 5-15 29.3-.4 30.4 9.4.7 16.8-7 16.8-17.3 0-10.1-7.5-16-16.5-13m-21.1 4.7c-3.5.8-3.3.4-5.8 10.3-2.5 10-3 11.4-3.4 11.4-.1 0-1.3-4-2.5-8.9-2.8-10.6-2.2-9.8-6.6-9-4.7 1-4.3-.5-4.3 15.8 0 16.1-.2 15.4 2.7 14.7l2.1-.5.2-11.3c.1-6.3.3-11.1.5-10.8.2.3 1.4 5 2.7 10.2 2.8 11 2.7 10.8 5.5 10 3-.7 2.5.6 7-17.6 1.4-6.2 1.5-6.4 1.8-6 .2.2.2 17.8-.1 19.6-.4 2 .1 2.3 2.7 1.7 2-.4 2.3-.6 2.3-1.5v-28.5c0-.4-1.9-.3-4.8.4m-91.7 0c-.6.5-.3 1.4.4 1.2.4 0 .7-.4.7-.7 0-.6-.7-1-1.1-.5m119.9.5c5.2 3.6 4.5 15-1.1 18.7-7.2 4.8-13.7-3.5-10.2-13 2-5.6 7.4-8.3 11.3-5.7m-124.3.7c-.2.1-.3 1.2-.3 2.3v2.2l-2-.3c-2.3-.2-3.6.6-4.7 3-1.9 4.6 1.9 9.9 5.1 7a4 4 0 0 1 1.8-.6l1.2-.1v-6.8c0-6.3-.2-7.6-1.1-6.7m11 1c-4 1.9-4 9.5 0 10.5 4.2 1 7.7-4.4 5.7-8.8-1-2-3.2-2.7-5.6-1.6m3.3 1.2c2.6 1.8.9 8.2-2.1 8.2-2.6 0-3.6-5.2-1.4-7.6 1.2-1.3 2.2-1.5 3.5-.6m-10 .5c-.7.7-.3 10.2.4 10 1-.2 1.3-10.3.4-10.3-.3 0-.7.1-.8.3m-5.7 3.3c.6.6.8 1.5.8 2.8 0 4.2-3.2 6.3-4.8 3.2-2-3.8 1.4-8.8 4-6m-13.7.1c-1.7.6-3.6 3-3 3.6.5.4.7.3 1.4-.5 1.8-2.2 4.3-2.5 5-.8.3 1.2-.3 1.7-2.8 2.3-2.7.7-3.9 1.8-3.9 3.6 0 2.6 3 3.8 5.2 2.2.5-.4 1.5-.7 2.2-.7h1.2l-.1-3.8c-.2-6-1.3-7.2-5.2-5.9m67.6 1.3c-6.9 2.2-10.2 6.4-11.3 14.3-3 20.5 23.7 22.1 27.2 1.7 1.9-10.7-6.5-19.1-16-16m-74.2.7c-.4.3-1.3.5-1.8.5h-1l-.1 5.1c-.1 4.8 0 5.2.6 5 .6 0 .7-.7.9-3.5.2-3.7.9-5.3 2.6-6 .6-.3 1-.8 1-1 0-.7-1.1-.7-2.2 0m10 4.6c-.2 3.3-5 4.6-5 1.3 0-.8.4-1.1 2.1-1.9 2.6-1.2 3-1 2.8.6m71.1.1c5.2 3.5 4.3 15-1.5 18.7-5.8 3.7-11.4-.9-10.8-9 .6-8 7.1-13.2 12.3-9.7m-39.2 1.6a8 8 0 0 0-2.3.8c-.7.6-.7 29.4 0 29.6.5.2 1.3 0 7.3-1.3l6-1.2c7-1.3 7-1.4 7-3.9 0-2.4-.2-2.4-7.3-1l-6.8 1.3c-.6 0-.7-1-.8-12.3-.1-13.7.1-12.7-3.1-12m-21.4 4.5c-2.7.6-2.4.1-7.5 16.4l-2.9 9c-2.2 7-2.2 7.4-.5 7 4.3-.9 4-.7 5-4l1.3-3.6a46 46 0 0 1 11.4-2.5l1.3 3c1.3 3 1 2.8 4.4 2.3 2.3-.4 2.4-.5.8-4.5a211.4 211.4 0 0 1-4.9-12.6l-2.2-5.7c-2.4-6-2-5.8-6.2-4.8m-29.6 5.7c-6.1 1.9-9 5.7-7.8 10.4 1 3.8 3.3 5.4 10 7 4.3.9 5.5 1.5 5.9 3 1.1 4.7-8.8 7.2-11 2.7-1-2-5.7-1.4-5.7.7 0 7 14.2 9 20 2.8 6.1-6.3 2.6-12.8-8-15-5.4-1-7.1-3-5-5.4a5.7 5.7 0 0 1 8.5-.2l1.3 1.5 2.3-.6c2.7-.7 3-1.2 1.4-3.5-2.2-3.4-7.1-4.8-11.9-3.4m31.8 3.5c3.4 8.8 3.5 8.2-1.3 9.1-3.8.7-4.5.6-4-.4l3.7-10.8c0-.8 1 .5 1.7 2.1"/><path fill="#d36737" d="M296.5 157.8c-2.9.7-2.7 0-2.9 10l-.2 8.9-5.2-7.7a59.3 59.3 0 0 0-5.8-7.9c-.7-.2-4.9.6-5.5 1-.9.6-.7 30.7.2 31 1 .3 5-.6 5.5-1.3.3-.4.5-3.7.6-9 0-4.8.1-8.6.2-8.7l5.2 7.7 5.2 7.9 2.3-.3c1.3-.1 2.8-.4 3.3-.6l1-.4v-15.3c0-13.7 0-15.4-.6-15.7-.8-.2-.6-.3-3.3.4m3.4 15.1.1 14.7-1.4.6c-.7.3-2 .6-3 .6h-1.5l-5.4-8.2c-3-4.5-5.7-8.2-5.9-8.2-.3 0-.4 3.4-.4 9.4 0 10.6.1 10.2-3.3 10.3l-2.1.1-.1-14.4c0-11.3 0-14.6.4-14.9a12 12 0 0 1 5-1.1c.4.2 8 11.3 10.1 14.7 1.9 3 2 2.8 2-7.8l.2-9.7 2-.5c3.5-.8 3.2-2 3.3 14.4m-44.5-6.8c-7.5 2.5-11.5 8.6-11.5 17.5 0 12.2 10.9 18.3 20.8 11.8 15.2-9.9 7.3-35-9.3-29.3m10.4 1.3c9.2 5.4 8 22-2 27.7-13 7.4-24-5.7-17.4-20.6 3.2-7 13.3-10.7 19.4-7.1m-31.6 3.4c-4 .9-3.6.3-6.4 11.4l-2.5 9.3-1-4c-4-15.5-3-13.8-8.2-13-2.1.5-4.2 1-4.5 1.3-.4.5-.8 24.2-.4 30.6 0 .6 3.7.3 5.4-.5l1.1-.5-.2-9c0-5.1 0-9 .1-8.9.2.2 1.2 3.7 2.2 7.9 2.5 10 2.2 9.7 6.8 8.6 2.4-.5 2.1.1 6-16.4 1.1-4.4 1.3-3.5 1 5.5-.1 10-.3 9.5 3.2 8.8 3.5-.7 3.3.4 3.3-16v-15.2c-.1-.9-1.5-.9-5.9 0m-92.2.8c-.6 1.1-.1 2.1 1 2.1 2 0 2.5-2.5.5-2.7-.7-.1-1.2.1-1.5.6m97.2-.4v28.5c0 .9-.3 1-2.3 1.5-2.6.6-3 .3-2.7-1.7.3-1.8.3-19.4 0-19.7-.2-.3-.3-.1-1.8 6.1-4.4 18.2-3.9 17-6.9 17.7-2.8.7-2.7 1-5.5-10.1a233 233 0 0 0-2.7-10.2c-.2-.3-.4 4.5-.5 10.8l-.2 11.3-2.1.5c-2.9.7-2.7 1.4-2.7-14.7 0-16.3-.4-14.8 4.3-15.7 4.4-.9 3.8-1.7 6.6 9 1.2 4.8 2.4 8.8 2.5 8.8.5 0 .9-1.5 3.4-11.4a73 73 0 0 1 2.7-9.3c1-.9 7.9-2.1 8-1.4m-95.5 1c0 .2-.3.6-.7.6-.7.2-1-.7-.4-1.2.4-.5 1.1-.1 1.1.5m111.9 0c-5 2.5-7.2 12.8-3.7 17.4 4.4 6 12.8 1.7 13.9-7 1-8.5-3.9-13.5-10.2-10.3m-117.8 0c-.5.2-.7.9-.7 2.3v2l-1.4-.3c-3.8-.6-7 5-5.2 9.2 1 2.7 4 4 6 2.5.4-.3 1.2-.6 1.8-.6 1.9 0 2-.5 2-7.6 0-8.3-.2-8.9-2.5-7.6m123.2 0c7 2.7 5.1 17.5-2.4 19.2-6 1.4-9.5-5.2-6.8-13.2 1.5-4.7 5.6-7.3 9.2-6m-121.7 7.4v6.8l-1.2.1a4 4 0 0 0-1.8.7c-3.2 2.8-7-2.5-5-7.1 1-2.4 2.3-3.2 4.6-3l2 .3V175c0-2.1.2-2.7 1-2.5.3.1.4 2.5.4 7m10-6.5c-5 2.2-5.2 10-.3 11.8 1.7.6 1.8.6 3.6-.4 6.6-3.6 3.4-14.4-3.3-11.4m4 .7c2.9 1.3 2.9 7.2 0 9.4-3.5 2.8-7 .9-7-3.8 0-4.5 3.4-7.3 7-5.6M142 175c-1 1.2-.3 11.2.8 11.3 1.6.3 2-.8 2-6 0-5.8-1-7.6-2.8-5.3m7.2.6c-2.2 2.4-1.2 7.6 1.4 7.6 1.2 0 3-1.8 3.2-3.4.8-4.4-2-7-4.6-4.2m33.5-.6a14343 14343 0 0 1-13 2.6c-7.1 1.3-7.7 1.5-7.7 2.6 0 1.5.3 1.4 15.8-2.2 8.3-2 9.8-2.4 9.8-2.9 0-.3-4.5-.4-4.9 0m-38.8 5.2c0 4.5-.2 5.1-.8 5.2-.7.2-1.1-9.3-.4-10 1-1.1 1.3-.2 1.2 4.8m8.6-4.4c1 1 1 4-.1 5.4-1.3 1.6-2.7 1.5-3.5-.4-1.4-3.4 1.2-7.1 3.6-5m-31.2 3.5c-1.3 1-1.7 1.3-1.8.8-.3-.7-2.2-.8-3.2 0-.4.3-1.1.4-1.7.3-1.4-.3-1.6.6-1.6 6.6 0 5 0 5.1 1 5.2 1.6.3 2-.5 2-4 0-4.7 1.9-7.3 3.8-5.4.4.4.8.7 1 .7.3 0 0 .6-.6 1.2-2.9 3.5 1.3 7.7 5.3 5.2.7-.4 1.8-.8 2.6-.9 1 0 1.3-.3 1.3-.8l-.1-4.3c-.1-6-3.9-8.1-8-4.6m12.5-.7c-2.8 2.7-.9 9.1 2.2 7.2 2.8-1.7 2.3-7.9-.6-7.9-.5 0-1.2.3-1.6.7m-7 .3c1.4.7 1.5 1 1.7 5.8l.1 3.8h-1.2c-.7 0-1.7.3-2.2.7-2.3 1.6-5.2.4-5.2-2.2 0-1.8 1.2-3 4-3.6 2.4-.6 3-1.1 2.6-2.3-.6-1.7-3.1-1.4-4.9.8-.7.8-1 .9-1.3.5-.7-.7 1.2-3 2.9-3.6 1.8-.6 2.2-.6 3.5.1m10 .7c1 1.8-.3 5.9-1.8 5.9-1 0-1.8-1.7-1.8-3.4 0-3 2.5-4.7 3.6-2.5m53.4 0c-7.5 2.5-11.2 8.1-11.2 17.1 0 21.4 27.5 19 28.5-2.5.5-11.3-7.4-18-17.3-14.6m10 1c11.1 5.7 8.1 25.4-4.5 29.3-12.8 4-21-9.5-13.8-23 3-6 12.7-9.2 18.3-6.3m-81.4.2c0 .3-.4.8-1 1-1.7.8-2.4 2.4-2.6 6-.2 3-.3 3.5-1 3.6-.6.2-.6-.2-.5-5l.1-5.1h1c.5 0 1.4-.2 1.8-.5 1-.6 2.2-.6 2.2 0m7.1.6c.2.5-.9 1-3 1.5-.9.3-.9.2-.5-.7.7-1.4 3.1-2 3.5-.8m-2.2 3.5c-1.7.8-2.1 1.1-2.1 1.9 0 3.3 4.8 2 5-1.3 0-1.7-.3-1.8-2.9-.6m2 1.8c-.6 1-2.4 1.5-3 .8-.7-.6 0-1.7 1.7-2.2 1.6-.5 2 0 1.2 1.4m65.4-1.4c-4.4 1.9-7 9.5-5.2 15 2.5 8 11.6 6.8 14.5-1.8 2.9-8.6-2.5-16.2-9.3-13.2m5.8.6c5.6 3.2 4.3 15.5-1.9 18.3-5.4 2.4-9-1-8.8-8.1.3-8.1 5.5-13 10.7-10.2m-38.6.6c-3.5.8-3.4 0-3.4 16.4 0 15.4 0 16.3 1.9 15.6l14.5-3c5.2-1 6-1.5 6-4.3 0-3.2-.2-3.3-7.8-1.7a53 53 0 0 1-6.8 1.1c-.1-.1-.2-5.4-.2-11.8 0-11.7-.2-13.1-1.5-12.8l-2.7.5m3.3 12.7c.1 11.2.2 12.3.8 12.3l6.8-1.2c7.1-1.5 7.3-1.5 7.3 1 0 2.4 0 2.5-7 3.8l-6 1.2c-6 1.3-6.8 1.5-7.3 1.3-.7-.2-.7-29 0-29.6.6-.5 3.8-1.3 4.7-1.2.5.1.6 1.8.7 12.4m31-9.4c-1.8.7-3.2 7.3-2 9.6 1.5 2.7 4.6.9 5.5-3.2 1-4.8-.6-7.6-3.5-6.4M137 191c-2.8.7-3 1-4 3.6a2350.5 2350.5 0 0 1-9.2 29.2c-.4 1.3.5 1.5 3 1 3.7-.7 4-1 5.1-4.5 1.1-3.7 1-3.6 5.5-4.5 6.7-1.3 6-1.5 7.2 1.8 1.3 3.1 1.4 3.2 5.3 2.4 2.4-.5 2.7-1.1 1.9-3.1a497.7 497.7 0 0 1-6-15.5l-2.2-5.6c-2.3-6-2-5.9-6.6-4.8m4 .7a49 49 0 0 1 2.2 4.9 222.9 222.9 0 0 0 2.8 7.2c0 .2 2.2 6 4.3 11 1.6 4 1.5 4.2-.8 4.6-3.3.5-3.1.6-4.4-2.4l-1.3-3a46 46 0 0 0-11.4 2.6l-1.2 3.5c-1 3.4-.8 3.2-5.1 4.1-1.7.4-1.7 0 .5-7l2.9-9c5-16.3 4.8-15.8 7.5-16.4 2.7-.7 3.6-.7 4-.1m-34.4 5.3c-5.2 1.6-7.8 4.7-7.8 9.3 0 5 3 7.6 10 9 5 1 6.2 1.8 6 3.7-.5 3.6-8 4.4-9.7 1.2-1-2-1.6-2.2-4.9-1-2.6.8-2.8 2-1 5 5.7 8.9 23 4 22.9-6.5 0-5-2.5-7.2-9.9-9-5.8-1.2-7-2-6.4-4 .9-2.7 7-3 8.4-.3.7 1.4 1.7 1.5 4.8.5 2.5-.9 2.7-1.7 1-4.3-2.6-3.7-8.2-5.3-13.4-3.6m9.5 1.1c4.4 2.2 5.3 5.3 1.8 6.3l-2.3.6-1.3-1.5a5.7 5.7 0 0 0-8.5.2c-2.1 2.5-.4 4.4 5 5.5 10.6 2 14.1 8.6 8 15-5.8 6.2-20 4.2-20-2.9 0-2.1 4.7-2.8 5.7-.7 1.6 3.3 8.7 3 10.5-.4 1.6-2.8.2-4.2-5.4-5.4-6.7-1.5-9-3-10-7-1.9-7.4 8.6-13.5 16.5-9.7m21.5.8-3.8 10.8c-.4 1 .3 1.1 4 .4 5-.9 4.8-.3 1.4-9-.6-1.7-1.6-3-1.6-2.2m3.5 9.7c-.2.2-2 .6-5.4 1.3l-1.2.2 1.5-4.6a572 572 0 0 1 1.8-5.1c.2-.3 1 1.3 1.9 3.7.9 2.4 1.5 4.4 1.4 4.5m49.3 8-8 1.4c-3 .5-3.5.9-8.6 7.6-3.4 4.4-3.6 4.3-3.3-1 .2-4.2.2-4.2-.7-4.2-1.8 0-45 8.6-48 9.6-2 .6 5.3-.2 11.6-1.4a1142 1142 0 0 1 32-5.4c3.2-.6 3.3-.5 3.4 4.9 0 6-.1 6 5.4-.6l5.6-6.6c.8-1 1.4-1.1 10.7-3.3 3-.7 5.5-1.4 5.5-1.6 0-.2-.1-.4-.3-.4l-5.3 1m-74 14.2a4 4 0 0 1-1.8.4c-.9 0-1 .1-.7.5.4.3.7.3 1.5 0 .6-.3 1.6-.5 2.4-.5.7 0 1.5-.2 1.6-.4.3-.5-2.2-.5-3 0"/></g></svg>