<svg xmlns="http://www.w3.org/2000/svg" width="400" height="400"><g fill-rule="evenodd"><path fill="#fbf9f4" d="M247.3 64.6c-16.9 4.6-22.7 22.4-10.9 33.6 15 14.1 41.6 5 41.6-14.2 0-13.1-16.1-23.3-30.7-19.4m-83 19.8a47 47 0 0 0-43.2 48.2c0 19.1 7.8 30.8 28.1 42 12.4 6.9 16.4 13.4 11.6 18.9-3.9 4.4-16.2 3.8-26.5-1.3-4.3-2.2-4.6-2-5.7 2a385.4 385.4 0 0 1-4.4 14.4l-2.7 8.3c-2 6.4-2 6.7.8 8.4 7.7 4.6 22.4 7.5 38.4 7.5 15 0 27.7-4.1 37.2-12 13.5-11.5 18.7-25.7 16.3-44.9-1.9-15-10.1-25-28.6-34.9-8-4.3-8.2-4.4-11.7-7.5-7.3-6.5-7-14 .7-16.2a37 37 0 0 1 21.1 3c5 2.3 4.2 3.2 8.7-10.5l4.5-13.7c.4-1.3.7-2.7.6-3-.6-1.5-11.8-6-17.4-7-8.6-1.7-21.3-2.4-27.7-1.7m86.7 33-20.3.2-.4 1c-.7 1.8-.3 111.4.4 111.8 1.2.7 46.7.5 47-.2.3-1 .2-111.5-.2-112.1-.4-.7-1.1-.7-26.5-.6m99.2 180.3c-9.7 3.5-7.1 15.6 3.3 15.6 12.3 0 13-15.4.6-16-1.4-.2-3 0-3.9.4m-299.9 7.8c-4.9.5-11.3 2.2-12.2 3.2-1 1-1 53.4 0 54.4s17.2 1 18-.2c.5-.6.6-2.6.6-9.8 0-8.2.3-10.8 1-9.7.3.6 3.9 10.5 5.4 15.1 2 5.8-.3 5.2 19.7 5.2 22.3 0 20.4.5 21.3-5 .3-2.3.6-2.4 7.9-2.5 7.6-.1 7.7 0 8.1 3 .6 4.7.6 4.7 11.6 4.6 9.5 0 9.8-.2 8.4-3.6l-2.8-8.6a1245.2 1245.2 0 0 0-7.2-23.3 981 981 0 0 0-6.2-20.6c0-1.7-.5-1.8-10.3-1.8s-10.1 0-10.6 1.9a1461 1461 0 0 0-12.5 40.5c-4.2 13.7-4.6 14.4-6.1 11.1a1249 1249 0 0 1-6.5-13.9c-3.3-7.1-3.4-8-1.3-9.4 7.5-4.7 9-16.7 3-23.7-4.6-5.6-16.2-8.3-29.3-7m105 .3c-4.4.6-8.8 2-9.9 3-1 1-1.1 51.5 0 52.3 1.3 1 6.8 2.4 11 3 23 2.6 34.4-7 34.4-28.9 0-22.9-11.7-32.6-35.5-29.4m87.8.1c-10.7 2.5-16.7 11.2-17.6 25.7-1.4 21.5 8.2 33.7 26 32.7 13-.8 20.3-9.1 22-25.1 2.4-22.8-11.1-37.6-30.4-33.3m71.8 0a18.6 18.6 0 0 0-12.3 9.8L301 319v10.8l1.5 2.8c1.8 3.6 4.4 6 10 9.1 2.3 1.4 4.7 4 4.7 5.3 0 3-5.7 4-10.3 1.8-2.4-1.2-2.6-1-4.2 3.9-2.6 7.8-2.6 8.3 0 9.7a47.3 47.3 0 0 0 19.5 1.6c18.3-4.6 21.8-26 5.9-35-6.7-3.8-8.1-5.2-8.1-7.6 0-3.1 4.7-4 10-2 2 .9 2.5.5 3.1-1.8l1.5-4.3c1.4-4.3 1.4-4.7-.9-5.7-5-2.2-13.4-3-18.7-1.6m-115.9.4c-.7.4-.7 2.2-.7 28.4v28l.9.6c1.3.8 17.7.7 18.3-.2.7-1.2.5-56.7-.2-57-1.1-.4-17.5-.2-18.3.2M61.5 316.8c4 1.4 4 13.5 0 16.6-1.6 1.2-4 1.4-4.5.4-.3-.9-.3-16.8 0-17.1.5-.4 3.1-.3 4.5.1m107 2.6c3.6 2.4 4.3 24.5 1 29.5-1.2 1.6-3.9 2.7-4.9 2-.6-.6-1-32-.3-32.7.5-.4 2.6.1 4.2 1.2m82.8-.3c3.2 3.7 3.6 23.6.6 29-2.4 4.3-5.5 1.4-6.3-5.8-.7-6.8-.5-13 .6-20.2.5-3 3.6-4.7 5-3m93.4 0c-.7.6-.8 43.7-.1 44.3.4.4 17.7.4 18.3 0 .8-.5.5-43.5-.3-44.3-1.1-1-17-1-17.9 0m-231.4 8.4c.4 1.5 2 8.4 3 13.9.8 3.6.6 3.8-3.8 3.8-5 0-5.1-.3-3.4-6.6a800 800 0 0 0 3.6-12.6s.4.7.6 1.5"/><path fill="#f48323" d="M0 200v200h400V0H0v200M260.8 64.6c26.5 7.6 20.8 40.4-7 40.3-18.1 0-29.5-17-20.4-30.7 5.3-8 17.8-12.4 27.4-9.6m-75 20.4a59.5 59.5 0 0 1 19.3 5.4c4.8 2.3 4.9 2.5 3.8 5.7l-4.5 13.7c-4.5 13.7-3.8 12.8-8.7 10.5a37 37 0 0 0-21-3c-7.7 2.2-8 9.7-.8 16.2 3.5 3.1 3.7 3.2 11.7 7.5 21.5 11.5 29.2 23 29.2 43.7a47 47 0 0 1-35.5 45.7c-16.1 4.7-45 2.1-57-5-2.9-1.8-2.9-2.1-.8-8.5a484 484 0 0 0 7.1-22.8c1.1-4 1.4-4 5.7-2 10.3 5.2 22.6 5.8 26.5 1.4 4.8-5.5.8-12-11.6-18.9-20.3-11.2-28-22.9-28-42-.1-33.3 27-53.3 64.7-47.6m91.7 33c.4.7.5 111.2.2 112.2-.3.7-45.8 1-47 .2-.7-.4-1.1-110-.4-111.8l.4-1 20.3-.1c25.4-.1 26.1-.1 26.5.6m81 180.3c4.4 2.3 6 8 3.2 11.5-3.5 4.4-11.6 4.8-15.3.8-6.6-7.3 2.8-17 12.1-12.3m-293.2 7.4c9 1.5 13.8 4.6 16.7 10.5 3.2 6.6.7 16.1-5.4 20-2.1 1.3-2 2.2 1.3 9.3a30485.5 30485.5 0 0 1 6.5 14c1.5 3.2 2 2.5 6-11.2a1461 1461 0 0 1 12.6-40.5c.5-1.8.8-1.9 10.6-1.9 9.8 0 10.3 0 10.3 1.8a981 981 0 0 1 9.8 32.2 1245.2 1245.2 0 0 1 6.4 20.3c1.4 3.4 1 3.6-8.4 3.6-11 0-11 0-11.6-4.6-.4-3-.5-3.1-8.1-3-7.3.1-7.6.2-8 2.4-.8 5.6 1.1 5.1-21.2 5.1-20 0-17.8.6-19.7-5.2-1.5-4.6-5-14.5-5.5-15-.6-1.2-.9 1.4-.9 9.6 0 7.2-.1 9.2-.6 9.8-.8 1.1-17 1.2-18 .2s-1-53.4 0-54.4c2.4-2.6 19.1-4.5 27.2-3m105.8.2c13.7 2.8 19.7 11.7 19.7 29.2 0 22-11.4 31.5-34.5 28.8-4.1-.5-9.6-2-11-2.9-1-.8-1-51.3.1-52.3 3-2.9 17.6-4.4 25.7-2.8m82.6-.4c13.5 1.8 21.7 15.6 19.8 33.6-1.7 16-9 24.3-22 25-17.8 1-27.4-11-26-32.6 1.2-18.9 11.4-28.2 28.2-26m74.4.4c7.6 1.6 8.1 2.2 6.4 7.3l-1.5 4.3c-.6 2.3-1.2 2.7-3.2 1.8-5.2-2-9.9-1.1-9.9 2 0 2.4 1.4 3.8 8 7.5 16 9 12.5 30.5-5.8 35.1-4 1-16.2 0-19.5-1.6-2.6-1.4-2.6-2 0-9.7 1.6-5 1.8-5.1 4.2-4 4.6 2.3 10.3 1.3 10.3-1.7 0-1.3-2.4-4-4.8-5.3-5.5-3.1-8-5.5-10-9.1l-1.4-2.8V319l1.7-3.3c4.4-8.6 13.9-12.2 25.5-9.7m-110.8.2c.7.3 1 55.8.2 57-.6.9-17 1-18.3.2l-.9-.6v-28c0-26.2 0-28 .7-28.4.8-.4 17.2-.6 18.3-.2M57 316.7c-.4.3-.4 16.2 0 17 .3 1 2.8.9 4.4-.3 4-3.1 4-15.2 0-16.6-1.4-.4-4-.5-4.4-.1m107.2 1.5c-.7.7-.3 32 .3 32.6 1 .8 3.7-.3 4.9-2 3.3-4.9 2.6-27-1-29.4-1.6-1-3.7-1.6-4.2-1.2m83.2 1.4c-.6.7-1.2 1.8-1.3 2.5-2 12.4-1 25 2 27.5 2.4 2 4.4-1 5.2-7.9 1.9-15.6-1.3-27.6-6-22m115-.6c1 .8 1.2 43.8.4 44.3-.6.4-18 .4-18.3 0-.7-.6-.6-43.7.1-44.4 1-1 16.8-1 17.9 0m-250.3 7.5a310.4 310.4 0 0 0-3.2 12.1c-1.7 6.3-1.5 6.6 3.4 6.6 5 0 5 1 2.3-11.4-1.6-7.2-2-8.6-2.5-7.3"/></g></svg>