<?xml version="1.0" encoding="utf-8"?>
<!-- Generator: Adobe Illustrator 26.3.1, SVG Export Plug-In . SVG Version: 6.00 Build 0)  -->
<svg version="1.1" id="Layer_1" xmlns="http://www.w3.org/2000/svg" xmlns:xlink="http://www.w3.org/1999/xlink" x="0px" y="0px"
	 viewBox="0 0 306.8 303.5" style="enable-background:new 0 0 306.8 303.5;" xml:space="preserve">
<g>
	<path d="M18.7,273.8h-4.6v21c0,2.8-0.6,4.8-1.8,6.1c-1.2,1.3-2.8,2-4.8,2c-2.1,0-3.7-0.7-4.9-2s-1.7-3.4-1.7-6v-50.3
		c0-2.9,0.6-4.9,1.9-6.2c1.3-1.3,3.3-1.9,6.2-1.9h21.5c3,0,5.5,0.1,7.6,0.4c2.1,0.3,4,0.8,5.7,1.5c2.1,0.9,3.9,2.1,5.4,3.7
		c1.6,1.6,2.8,3.5,3.6,5.6c0.8,2.1,1.2,4.4,1.2,6.8c0,4.9-1.4,8.8-4.1,11.7c-2.7,2.9-6.9,5-12.5,6.2c2.3,1.2,4.6,3.1,6.7,5.5
		c2.1,2.4,4,5,5.7,7.8c1.7,2.7,3,5.2,3.9,7.4c0.9,2.2,1.4,3.7,1.4,4.6c0,0.9-0.3,1.7-0.8,2.6c-0.5,0.8-1.3,1.5-2.3,2
		c-1,0.5-2,0.7-3.3,0.7c-1.5,0-2.7-0.3-3.7-1c-1-0.7-1.9-1.6-2.6-2.7c-0.7-1.1-1.7-2.6-3-4.7l-5.3-8.8c-1.9-3.2-3.6-5.7-5.1-7.4
		c-1.5-1.7-3-2.9-4.6-3.5C23,274.2,21.1,273.8,18.7,273.8z M26.3,246.4H14.1v18h11.9c3.2,0,5.9-0.3,8-0.8c2.2-0.5,3.8-1.5,5-2.8
		c1.1-1.3,1.7-3.1,1.7-5.5c0-1.8-0.5-3.4-1.4-4.8c-0.9-1.4-2.2-2.4-3.8-3.1C33.9,246.7,30.8,246.4,26.3,246.4z"/>
	<path d="M95.3,296c-2.9,2.3-5.8,4-8.5,5.1c-2.7,1.1-5.8,1.7-9.2,1.7c-3.1,0-5.9-0.6-8.2-1.8s-4.2-2.9-5.5-5
		c-1.3-2.1-1.9-4.4-1.9-6.9c0-3.3,1.1-6.2,3.2-8.5c2.1-2.3,5-3.9,8.7-4.7c0.8-0.2,2.7-0.6,5.7-1.2c3.1-0.6,5.7-1.2,7.9-1.7
		c2.2-0.5,4.6-1.2,7.1-1.9c-0.1-3.2-0.8-5.6-1.9-7.1c-1.1-1.5-3.5-2.3-7.1-2.3c-3.1,0-5.4,0.4-7,1.3s-2.9,2.2-4,3.9
		c-1.1,1.7-1.9,2.9-2.4,3.4c-0.5,0.5-1.4,0.8-3,0.8c-1.4,0-2.5-0.4-3.5-1.3c-1-0.9-1.5-2-1.5-3.4c0-2.1,0.8-4.2,2.3-6.2
		s3.9-3.7,7.1-5s7.2-2,12-2c5.3,0,9.6,0.6,12.6,1.9c3.1,1.3,5.2,3.3,6.5,6c1.3,2.7,1.9,6.4,1.9,10.9c0,2.9,0,5.3,0,7.3
		c0,2,0,4.2-0.1,6.6c0,2.3,0.4,4.7,1.1,7.2c0.8,2.5,1.1,4.1,1.1,4.8c0,1.2-0.6,2.4-1.8,3.4c-1.2,1-2.5,1.5-4,1.5
		c-1.2,0-2.5-0.6-3.7-1.8C97.9,300,96.7,298.3,95.3,296z M94.5,278.4c-1.8,0.7-4.4,1.3-7.8,2.1c-3.4,0.7-5.8,1.3-7.1,1.6
		c-1.3,0.3-2.6,1-3.7,2c-1.2,1-1.8,2.4-1.8,4.2c0,1.8,0.7,3.4,2.1,4.7c1.4,1.3,3.2,1.9,5.5,1.9c2.4,0,4.6-0.5,6.7-1.6
		c2-1.1,3.5-2.4,4.5-4.1c1.1-1.8,1.6-4.9,1.6-9.1V278.4z"/>
	<path d="M152.1,295.9v-1.2c-1.6,1.9-3.2,3.4-4.8,4.6c-1.6,1.2-3.3,2.1-5.2,2.7c-1.9,0.6-3.9,0.9-6.1,0.9c-2.9,0-5.6-0.6-8.1-1.8
		c-2.5-1.2-4.6-3-6.4-5.3c-1.8-2.3-3.2-5-4.1-8.1c-0.9-3.1-1.4-6.4-1.4-10c0-7.6,1.9-13.5,5.6-17.8c3.7-4.2,8.6-6.4,14.7-6.4
		c3.5,0,6.5,0.6,8.9,1.8c2.4,1.2,4.8,3.1,7,5.5v-18c0-2.5,0.5-4.4,1.5-5.7c1-1.3,2.4-1.9,4.3-1.9s3.3,0.6,4.3,1.8s1.5,2.9,1.5,5.2
		v53.7c0,2.3-0.5,4.1-1.6,5.2c-1.1,1.2-2.5,1.7-4.1,1.7c-1.7,0-3-0.6-4.1-1.8C152.6,299.9,152.1,298.2,152.1,295.9z M128.2,278.1
		c0,3.3,0.5,6.1,1.5,8.4s2.4,4.1,4.2,5.2s3.7,1.8,5.8,1.8c2.1,0,4.1-0.6,5.9-1.7s3.2-2.8,4.2-5.1c1.1-2.3,1.6-5.2,1.6-8.6
		c0-3.2-0.5-6-1.6-8.4c-1.1-2.3-2.5-4.1-4.3-5.3c-1.8-1.2-3.8-1.8-5.9-1.8c-2.2,0-4.2,0.6-6,1.9c-1.8,1.3-3.1,3.1-4.1,5.4
		C128.7,272.2,128.2,275,128.2,278.1z"/>
	<path d="M182,247.8c-1.7,0-3.1-0.5-4.3-1.6s-1.8-2.5-1.8-4.4c0-1.7,0.6-3.1,1.8-4.3c1.2-1.1,2.7-1.7,4.3-1.7c1.6,0,3,0.5,4.2,1.5
		c1.2,1,1.8,2.5,1.8,4.4c0,1.9-0.6,3.3-1.8,4.4C185,247.2,183.6,247.8,182,247.8z M188,260.3v35.2c0,2.4-0.6,4.3-1.7,5.5
		c-1.2,1.2-2.6,1.9-4.4,1.9c-1.8,0-3.2-0.6-4.3-1.9c-1.1-1.3-1.7-3.1-1.7-5.5v-34.8c0-2.4,0.6-4.2,1.7-5.4c1.1-1.2,2.6-1.8,4.3-1.8
		c1.8,0,3.3,0.6,4.4,1.8C187.4,256.5,188,258.2,188,260.3z"/>
	<path d="M246.1,278.2c0,3.6-0.6,7-1.7,10c-1.1,3.1-2.8,5.7-4.9,7.9c-2.1,2.2-4.7,3.9-7.7,5.1c-3,1.2-6.3,1.8-10,1.8
		c-3.7,0-7-0.6-9.9-1.8c-2.9-1.2-5.5-2.9-7.6-5.1c-2.2-2.2-3.8-4.8-4.9-7.8c-1.1-3-1.7-6.4-1.7-10c0-3.7,0.6-7.1,1.7-10.1
		c1.1-3.1,2.7-5.7,4.9-7.8c2.1-2.2,4.7-3.8,7.7-5c3-1.2,6.3-1.8,9.9-1.8c3.7,0,7,0.6,10,1.8c3,1.2,5.6,2.9,7.7,5.1
		c2.1,2.2,3.8,4.8,4.9,7.8S246.1,274.5,246.1,278.2z M233.9,278.2c0-5-1.1-8.8-3.3-11.6s-5.1-4.1-8.8-4.1c-2.4,0-4.5,0.6-6.3,1.8
		c-1.8,1.2-3.2,3.1-4.2,5.5c-1,2.4-1.5,5.2-1.5,8.4c0,3.2,0.5,6,1.4,8.3c1,2.4,2.3,4.2,4.1,5.5s3.9,1.9,6.4,1.9
		c3.7,0,6.6-1.4,8.8-4.2S233.9,283.1,233.9,278.2z"/>
	<path d="M306.2,282.2c0,4-1,7.5-3.1,10.7c-2,3.1-5,5.6-8.9,7.4s-8.6,2.7-13.9,2.7c-6.4,0-11.8-1.2-16-3.7c-3-1.8-5.4-4.1-7.2-7
		c-1.9-2.9-2.8-5.8-2.8-8.5c0-1.6,0.6-3,1.7-4.1s2.5-1.7,4.3-1.7c1.4,0,2.6,0.4,3.5,1.3c1,0.9,1.8,2.2,2.5,4
		c0.8,2.1,1.7,3.8,2.7,5.2c1,1.4,2.3,2.5,4.1,3.5c1.8,0.9,4.1,1.4,6.9,1.4c3.9,0,7.1-0.9,9.6-2.7s3.7-4.1,3.7-6.8
		c0-2.2-0.7-3.9-2-5.3c-1.3-1.4-3-2.4-5.1-3.1c-2.1-0.7-4.9-1.5-8.4-2.3c-4.7-1.1-8.6-2.4-11.8-3.9s-5.7-3.5-7.5-6
		c-1.9-2.5-2.8-5.7-2.8-9.5c0-3.6,1-6.8,2.9-9.6c2-2.8,4.8-4.9,8.5-6.4s8.1-2.3,13.1-2.3c4,0,7.5,0.5,10.4,1.5c2.9,1,5.4,2.3,7.3,4
		c1.9,1.6,3.3,3.4,4.2,5.2c0.9,1.8,1.3,3.6,1.3,5.3c0,1.6-0.6,3-1.7,4.3s-2.5,1.9-4.2,1.9c-1.5,0-2.7-0.4-3.5-1.1
		c-0.8-0.8-1.6-2-2.6-3.7c-1.2-2.5-2.6-4.4-4.3-5.8c-1.7-1.4-4.3-2.1-8-2.1c-3.4,0-6.2,0.8-8.3,2.2c-2.1,1.5-3.1,3.3-3.1,5.4
		c0,1.3,0.4,2.4,1.1,3.4s1.7,1.8,2.9,2.5c1.2,0.7,2.5,1.2,3.8,1.6c1.3,0.4,3.4,1,6.3,1.7c3.7,0.9,7,1.8,10,2.9s5.5,2.3,7.6,3.8
		c2.1,1.5,3.7,3.4,4.9,5.6C305.6,276.1,306.2,278.9,306.2,282.2z"/>
</g>
<path d="M65.6,5.1c5.4,5.4,5.4,14.1,0,19.5c-48.4,48.5-48.4,127.1,0,175.7c5.5,5.3,5.6,14,0.3,19.5c-5.3,5.5-14,5.6-19.5,0.3
	c-0.1-0.1-0.2-0.2-0.3-0.3C-13.2,160.4-13.2,64.4,46,5.1C51.4-0.3,60.2-0.3,65.6,5.1z M241.2,200.3c-5.5,5.3-5.6,14-0.3,19.5
	c5.3,5.5,14,5.6,19.5,0.3c0.1-0.1,0.2-0.2,0.3-0.3c59.2-59.3,59.2-155.4,0-214.7c-5.3-5.5-14-5.6-19.5-0.3c-5.5,5.3-5.6,14-0.3,19.5
	c0.1,0.1,0.2,0.2,0.3,0.3C289.6,73.1,289.6,151.7,241.2,200.3z M89.6,191l0.5,0.5c2.4,2.3,5.6,3.6,9,3.6c3.8,0,7.4-1.6,10-4.4
	c5.2-5.6,4.9-14.3-0.5-19.7c-32.3-32.4-32.3-84.8,0-117.1c5.5-5.3,5.6-14,0.3-19.5c-5.3-5.5-14-5.6-19.5-0.3
	c-0.1,0.1-0.2,0.2-0.3,0.3C46,77.7,46.2,147.8,89.6,191C89.5,190.9,89.6,190.9,89.6,191z M199.6,35c-5.4,5.3-5.5,14-0.2,19.4
	c31.6,32.5,31.4,84.4-0.6,116.5c-5.5,5.3-5.6,14-0.3,19.5c5.3,5.5,14,5.6,19.5,0.3c0.1-0.1,0.2-0.2,0.3-0.3
	c42.6-42.9,43-112,0.8-155.3C213.8,29.7,205.1,29.6,199.6,35L199.6,35z M194.8,112.4c0,22.9-18.5,41.4-41.4,41.4
	S112,135.3,112,112.4S130.5,71,153.4,71S194.8,89.6,194.8,112.4z M167.2,112.4c0-7.6-6.2-13.8-13.8-13.8s-13.8,6.2-13.8,13.8
	s6.2,13.8,13.8,13.8S167.2,120,167.2,112.4z"/>
</svg>
