<svg xmlns="http://www.w3.org/2000/svg" width="288" height="288"><g stroke-miterlimit="10" data-paper-data="{&quot;isPaintingLayer&quot;:true}" style="mix-blend-mode:normal"><path fill="#fbfbfb" d="M0 288V0h288v288z"/><path fill="#fbcc04" fill-rule="evenodd" d="M137.2 89.2a69.2 69.2 0 0 1 15.4 1.2l1.8.5 1.5.5a4 4 0 0 1 1.3.5l1.3.5 1.3.5 1 .5 1 .5 1 .6c.4.2 1 .5 1.1.7l.6.3c.2 0 2 1.2 2.4 1.7l.5.4c.4 0 2.5 2.1 2.7 2.8.4 1 .3 5.5-.2 8.2-.5 2.5-.3 2-3.4 11.6-1.3 3.8-2.3 7-2.2 7l13-7.5c15.9-9.3 28.3-9.8 41.3-1.9 13.4 8.3 13.3 21.5-.4 29.7-6.4 3.8-14 6.1-30.1 9.4-29 5.8-56.8 14.8-70 22.7l-1.8 1-.1-6.4c0-6.2-.3-13.4-.7-19.3-1.4-21 .1-41 4.3-57.3.6-2.4.9-3 1.4-3.4a25.9 25.9 0 0 1 4.6-2.3l1.5-.5 1.4-.5 2-.5 2-.5 2-.4 2.5-.3m63 5.5c.7-.8 1.3-1.3 1.4-1.3 0 .1-1.3 2-2 2.7l-.2.4-.6.9-.6.8c0 .3-1.4 1.6-1.7 1.6l-.6.1c-.7.3.6-1.3 4.3-5.2m0 4.4h.8-.7m6 0h.7-.8m21.6 56.4c.9-.7 1-.3.2.7a32.8 32.8 0 0 1-5.6 5.6c-.6.7-1.5 1.4-2.1 1.7-.3.1-.5.3-.5.4l-.7.5-.7.5-.7.5-1 .6-.7.5-.6.4-1 .5-.8.5-1 .5-.9.5-1 .5-1 .5-1 .5-1 .6-1.1.5-1.1.5-1.1.5c-.6.1-1.1.4-1.1.4 0 .1-.6.4-1.4.6l-1.3.5-1.1.5-1.3.5-1.3.5a6 6 0 0 0-1.3.5l-1.3.5-1.5.5-1.3.5-1.4.5-1.5.5a9 9 0 0 0-1.4.5l-1.4.5-1.5.6-1.3.5a7 7 0 0 0-1.3.4l-1.3.5-2 .8-1 .4-1 .3-1.5.6-1.3.5a20.5 20.5 0 0 0-2.9 1.1l-1.7.6c-.4 0-.7.2-.7.3l-1.2.5-1.2.5-1.4.5a4 4 0 0 0-1.3.5c0 .1-.3.3-.7.4a21.7 21.7 0 0 0-3 1.2l-1.1.5c-.5.3-1.2.6-1.6.6l-.6.3-1 .6c-.7.2-1.3.4-1.4.6l-.5.3-1.2.4-1.7.8c-.4 0-.7.3-.7.3l-1 .6-1 .5-1 .5a4 4 0 0 0-1.3.6c0 .2-.6.4-1 .6l-1 .5-.9.5-.9.5-.9.5-1 .6s-.2.3-.6.4l-.7.5s-.3.3-.7.4l-1 .6a14 14 0 0 1-2.6 1.7s-.3.1-.4.4c0 .2-.3.4-.4.4-.2 0-.6.3-1 .7a4 4 0 0 1-1 .7c-.2 0-.4.2-.6.5l-.6.5a70 70 0 0 0-12.9 14 4 4 0 0 0-.7.9l-.8.8-.4.5-.5.8c-.3.3-.8.8-1 1.2-.4.3-1 1-1.3 1.5-.5.4-.8.8-.8.9 0 .3-.8 1-1 1-.3 0-.4-.8-.4-5.9 0-8.5-.3-18.1-.5-18.7-.3-1 6.7-7.4 11.7-10.8a102 102 0 0 1 22.2-10.9l8-2.7c6.7-2.1 21.3-6 33.3-8.8a194 194 0 0 0 31.2-8.7c3.9-1.5 9.9-4.6 11.6-6"/><path fill="#accc34" fill-rule="evenodd" d="M138.2 43c1.4-.2 13 0 15 .2a2527.8 2527.8 0 0 0 8.5 1.2l2.8.5 2.4.5 2 .5 2 .5 1.7.6a9 9 0 0 1 1.8.5l1.2.3c.6.2 1.3.4 1.5.6l1.6.6a8 8 0 0 1 1.4.5l1.3.5 1.3.5 1.3.5 1 .5 1.2.5 1 .5 1.2.5 1.1.5 1 .5.8.5 1 .5 1 .5c0 .1.4.4 1 .6 1.4.8 2.1 1.2 2.2 1.4l1 .5.7.5.7.6.7.5.4.3c.2 0 .6.4 1 .7l.9.6.6.4c.8.8 1.3 1.2 1.9 1.5l1 .9.5.4s.4.2.6.5a17.3 17.3 0 0 0 2 1.7c.2 0 .6.4 1 .6l.8.7c.1.2.3.4.5.4l.6.4c.7.7 3 2.3 4.7 3.4l.7.7c0 .2.1.3.3.4.4.1.4 2 0 2.3-.3.2-.6.8-.5 1.2a98.8 98.8 0 0 0-5.4 6.2 513.1 513.1 0 0 0-8 8.9l-1.3 1.1c-.2 0-.3 0-.2.1l-1.4 1.6a95 95 0 0 0-4 4.2c-1 1.2-.9 1.3.3 1a52.7 52.7 0 0 1 20.8 1.2l.3.2c.1 0 .4 0 .7.2l1.3.3.7.3s.4.3.9.4l2.3 1 1.6.6s.2 0 .3.2l.8.5a30.4 30.4 0 0 1 5.9 3.8 27.6 27.6 0 0 1 6.8 6.7c0 .2.2.4.3.4l.5.7.5.7.4.8.5 1 .5 1 .7 1.4.5 1.8a27.3 27.3 0 0 1-.6 15.4l-.5 1a59.3 59.3 0 0 0-2.5 5l-.5.9-.6.8-.3.5a38.2 38.2 0 0 1-10.4 9.1 82.4 82.4 0 0 1-21 9 343 343 0 0 1-21.5 5.4 533.4 533.4 0 0 0-41.3 11.5 79.4 79.4 0 0 0-35.9 23.2 73.3 73.3 0 0 1-7.8 7.3c-.4 0-.6-.3-.3-.7.1 0 .4-2.2.6-4.6l.5-4.5.5-4.4.5-4.6a269.3 269.3 0 0 0 0-42.9 292.3 292.3 0 0 1 .2-36.4 67 67 0 0 1 2.3-15l.5-2 .2-.5c0-.5.5-2.2.8-2.9l.6-1.4.5-1.1.3-.8c.2-.4.4-.9.6-1l.6-1c.1-.5.4-.8.5-.8l.3-.4c.2-.7 1.4-2.5 2.5-3.6l.4-.7.6-.7a59.6 59.6 0 0 0 3.7-3.8l1.3-1C119 76 121.6 74 122 74l.3-.2c0-.2.5-.5 1-.7l1-.5 1-.5 1-.5 1-.5 1.2-.5c.1-.2 2.1-.8 2.5-.8.2 0 .3 0 .3-.2l1.6-.5 1.9-.5 3-.6a61.3 61.3 0 0 1 14-.2c2 .2 4.2.6 4.4.8l1.8.5 1.8.5 1 .4a7 7 0 0 1 1.5.5l1.5.6 1 .5 1 .5 1 .5.8.4 1.1.6.7.4.6.4 1.2.7.7.5c0 .1.2.3.5.4.5.2.9.6 3 2.3a28.6 28.6 0 0 1 8.3 11l.1.4c0 .3.6 2.3.9 2.9l.4 1.7.3 1.2 1.7-1.8a3981.5 3981.5 0 0 1 9-9.5l8.3-8.6c1.3-1.4 1.3-1.4.2-2.1a9 9 0 0 1-1.2-1c-.2-.3-.5-.5-.6-.5l-.6-.4-1.1-1a112.8 112.8 0 0 1-4.2-3.2l-1.1-.7c-.6-.4-1-.8-1.2-.8-.1 0-.3 0-.4-.2a81.7 81.7 0 0 0-18-8.7l-1.2-.5c0-.1-.8-.4-1.7-.6a6 6 0 0 1-1.6-.5L170 55l-2.1-.5-2.7-.5-3-.5a103.1 103.1 0 0 0-27.7 1c-.2.1-1.3.4-2.4.5a16 16 0 0 0-2.3.6l-1.8.4-1.7.5-1.8.6-1.6.5-1.4.4c-.7.2-1.5.5-1.7.7l-1.4.5-1 .4-.8.4-1.5.6-1.4.6c-.5.1-.9.3-.9.4l-1 .5-1 .5-1 .5-1 .5c0 .1-.8.6-1.7 1a26 26 0 0 0-4 2.5c-.2 0-.7.3-1.2.7-.5.4-1 .7-1.2.7l-.3.3c0 .1-.2.3-.4.3l-1 .6a4 4 0 0 1-.8.6l-.6.4L96 72a23 23 0 0 0-2.1 1.6s-.6.4-1 .9l-2 1.7a134.9 134.9 0 0 0-20.4 24.5c-.4.4-1.2 1.8-1.6 2.6l-.4.8-.5.8c-.2.4-.5.9-.7 1l-.5 1.1-.4.8-.5 1a45.5 45.5 0 0 0-4 8.4c0 .4-.3 1-.4 1.2-.2.2-.4 1-.6 1.7l-.5 1.2c-.1 0-.3.5-.4 1.2l-.5 1.5c-.2.3-.4 1.1-.6 2l-.5 1.7-.6 1.9-.5 1.8-.5 2.5a66.5 66.5 0 0 0-1.6 14.2v1.1c.2.3.3 2.1.4 4.2a55.3 55.3 0 0 0 2.3 16.5 36 36 0 0 0 2 7.1c.1.9.4 1.5.5 1.5l.5 1.4.5 1.4.5 1.2.5 1.4.5 1 .5 1 .5 1.2.5 1.3a72.3 72.3 0 0 1 3.6 6.4l1.4 2.3.6.8.6.9c.2 0 .3.3.3.4l.3.6a68.7 68.7 0 0 1 4 5.1l.7.8a83.3 83.3 0 0 0 75.6 28.7l3.5-.5 2.8-.5a19 19 0 0 0 2.7-.5l2-.5 2-.5 1.8-.5 1.6-.5c0-.1.7-.4 1.5-.6l1.5-.5 1.3-.5c.7-.2 1.4-.4 1.6-.6l1.3-.5c.5-.1.9-.3.9-.4a74.9 74.9 0 0 0 17.4-9.7l2-1.5a458.8 458.8 0 0 1 4-3A99.8 99.8 0 0 0 214 198a1539.3 1539.3 0 0 1 7.2-8.9l1-1.5 1.1-1.5a33.7 33.7 0 0 1 2.2-3.5l.5-1 1-1.7 1-1.7.4-.8a87.6 87.6 0 0 1 2.5-5.9l.6-1.5c.2-.6.5-1.4.7-1.6l.4-1.1c0-.4.3-1 .5-1.5l.6-2 .4-1.2.5-1.4.5-1.7.5-1.7c.3-1.4.8-1.9 1.2-1.2l.7.6a21.3 21.3 0 0 1 3.6 3.7l.7 1.2.3.5.6 1.2.5 1.3a28 28 0 0 1-1.6 17l-.4.8c-.1 0-.3.4-.4.9-.2.5-.4 1-.6 1.1a5 5 0 0 0-.6 1.2l-.5 1-.5 1-.5.8-.5.8-.5.8-.3.5c0 .2-.3.6-.5.8l-.7 1a21.3 21.3 0 0 1-2 3.1 13.7 13.7 0 0 1-1.5 2 62.3 62.3 0 0 1-5.9 7.1l-.6.9-1 1.2-2.7 2.8a389.6 389.6 0 0 1-12.5 12.3 51 51 0 0 0-3.1 2.5 8 8 0 0 1-2 1.5l-1 .8c0 .2-.3.3-.4.3l-.5.3c-.5.5-2.4 1.7-2.7 1.7l-.3.3-1.7 1.2a25.5 25.5 0 0 0-2.5 1.5l-1.1.6a1 1 0 0 1-.5.3 3 3 0 0 0-1 .5c-.4.2-1 .6-1.5.7l-.7.4-.4.3c-.3 0-1.1.5-2 .8l-1.6.7c-.1 0-.2 0-.2.2l-1.2.5-1.3.5c0 .1-.5.3-1.3.5-.7.2-1.3.5-1.3.6l-1.4.5-1.4.5-1.5.5-1.6.5-1.8.5c-.8.2-1.7.4-2 .6l-2.3.5-1.8.4-2.9.5a51 51 0 0 1-9.2 1.2 108.5 108.5 0 0 1-22.3-.7l-3-.5-2.7-.5-2.2-.5c-1.1-.2-2-.5-2-.6l-.5-.1c-.6 0-3-.6-3.3-.8l-1.7-.5-1.5-.5-1.5-.6a5 5 0 0 1-1.5-.5l-1.3-.5a4 4 0 0 1-1.3-.5l-1.2-.5-1.2-.5-1.1-.5a73.6 73.6 0 0 1-10-5 4 4 0 0 1-.9-.5c0-.1-.4-.4-.9-.6-1.2-.7-2.2-1.3-2.3-1.5l-.8-.5-.9-.6c0-.2-.2-.3-.4-.3l-.6-.3a7 7 0 0 0-1.1-.8l-1-.8-.6-.3-.5-.4c0-.2-.3-.4-.5-.4l-.5-.4-.4-.4a30.9 30.9 0 0 1-5.4-4.3 107.1 107.1 0 0 1-33.5-55c-.1-1-.4-2-.5-2.2l-.5-2.9-.5-3-.5-4.5-.5-4.3a64.2 64.2 0 0 1 1-17.2 44 44 0 0 0 1-5.2l.5-2 .5-2 .5-1.7.5-1.6c.1 0 .3-.5.4-1.2l.6-2 .7-1.7c.1-.6.3-1 .4-1l.2-.6.7-1.7.7-1.9.4-.8.2-.2.7-1.8.7-1.7.3-.4.6-1.2.5-1 .5-1 .5-.8.6-1a35.2 35.2 0 0 1 2.7-4.5c0-.2.2-.7.6-1.2l.6-1 .3-.5c.2-.2.5-.5.5-.7l.8-1.2.5-.7.5-.8c.8-1 1.6-2.2 1.6-2.4l.4-.4c.2 0 .4-.3.4-.5l.4-.5.4-.4a34 34 0 0 1 4-5.2A157.4 157.4 0 0 1 85 63.8c1.3-1 2.5-2 2.7-2l.4-.4.5-.4c.1 0 .4-.1.5-.3.5-.4 1.6-1.2 2.4-1.6l.8-.7.4-.2.6-.4a6 6 0 0 1 1.2-.7c.5-.2 1-.5 1-.7a3 3 0 0 1 1-.5c.3-.1.7-.3.8-.5l1-.5.8-.4a36.8 36.8 0 0 1 6-3l1-.5 1.3-.5 1.2-.5a10 10 0 0 0 1.5-.6c.2-.2.7-.3 1-.4l1.4-.5 1.8-.7c.6-.1 1-.3 1.1-.4l1.7-.5 1.7-.5 2-.5 2-.5 2.2-.5c1.3-.1 2.4-.4 2.7-.5.4-.2 2.9-.5 5.3-.7.9 0 1.6-.2 1.6-.3 0-.1.6-.2 1.3-.2l2.4-.2m9.4 38.5c-1.5-.3-6.7-.5-8-.4a23.4 23.4 0 0 0-10 3.1 22.2 22.2 0 0 0-8.6 10.1c-.4 0-1.2 2.8-2.3 8-3.3 15-4.4 33.7-3.2 52.6a312.2 312.2 0 0 1 .8 25.7c.1 0 1-.4 1.9-1 13.1-7.9 40.8-16.9 69.9-22.7 16.1-3.3 23.7-5.6 30-9.4 13.8-8.2 14-21.4.5-29.7-13-8-25.4-7.4-41.3 2a301 301 0 0 1-13 7.4l2.2-7c3-9.6 3-9.1 3.4-11.6.8-4 .6-7.5-.5-10.3l-.5-1.6-.4-1-.5-.8a4 4 0 0 0-.7-1.3l-.4-.6-.4-.5a20.2 20.2 0 0 0-4.9-4.7 44 44 0 0 0-6.9-4c-.3-.3-5-1.9-7.1-2.3"/></g></svg>