<?xml version="1.0" encoding="UTF-8"?><svg id="a" xmlns="http://www.w3.org/2000/svg" xmlns:xlink="http://www.w3.org/1999/xlink" viewBox="0 0 418.29 462.89"><defs><style>.c{fill:#fff;}.d{fill:none;}.e{fill:#ffce32;}.f{clip-path:url(#b);}.g{fill:#0069b4;}.h{fill:#ffd042;}</style><clipPath id="b"><rect class="d" width="418.29" height="455.8"/></clipPath></defs><g class="f"><path class="g" d="M71.98,398.81c-30.12,0-44.41-15.79-51.09-29.04-7.17-14.22-7.25-28.24-7.25-28.83V67.98c0-21.16,7.78-37.02,23.12-47.14,11.95-7.88,25.16-10,31.97-10.56h.09s284.75,0,284.75,0h.07c27.44,1.76,40.44,17.42,46.51,30.24,6.52,13.76,6.59,26.92,6.59,27.48v272.96c0,29.89-15.93,44.06-29.29,50.68-14.33,7.11-28.45,7.19-29.04,7.19H71.98Z"/><path class="c" d="M353.49,12.47c51.05,3.26,51.04,55.51,51.04,55.51v272.96c0,55.67-56.13,55.67-56.13,55.67H71.98c-56.14,0-56.14-55.67-56.14-55.67V67.98c0-47.77,41.33-54.54,53.07-55.51h284.58M353.63,8.07H68.72l-.18.02c-7.02.58-20.64,2.77-33,10.92-15.77,10.41-24.11,27.35-24.11,48.98v272.96c0,.61.09,15.13,7.49,29.82,6.96,13.8,21.81,30.26,53.06,30.26h276.42c.62,0,15.24-.08,30.02-7.42,13.92-6.9,30.51-21.64,30.51-52.66V67.99c0-.57-.07-14.22-6.8-28.42-6.33-13.36-19.85-29.67-48.36-31.49h-.14Z"/><path class="e" d="M94.84,206.31c0,14.26,9.84,22.56,19.37,30.6,8.22,6.93,16,13.49,16,23.26,0,6.94-3.72,13.93-12.01,13.93s-10.33-9.9-12.28-18.67c-1.46-6.6-2.62-11.81-6.42-11.81-4.89,0-5.37,4.5-5.74,11.84l-.07,1.56c-.14,3.11-.34,7.39-.34,14.89,0,8.35,14.96,9.59,23.89,9.59,18.76,0,32.91-14.37,32.91-33.42,0-16.57-10.86-25.11-20.45-32.63-8-6.29-14.9-11.72-14.9-20.59,0-6.4,3.1-10.22,8.32-10.22,6.52,0,9.61,8.41,12.09,15.17,1.99,5.44,3.56,9.74,6.75,9.74,4.51,0,4.51-3.54,4.51-8.02,0,.03.14-15.33.14-15.33,0-3.32-1.94-4.24-3.65-5.06l-.46-.21c-4.42-2.1-11.93-3.68-17.47-3.68-14.83,0-30.18,10.87-30.18,29.07"/><path class="h" d="M175.27,261.53v-35.92c0-2.38,2.85-4.02,5.42-4.02,6.86,0,10.79,8.41,10.79,23.08,0,12.05-1.6,26.4-9.24,26.4-3.38,0-6.97-3.34-6.97-9.54M179.84,213.56l-2.61,1.9c-.78.59-1.71,1.29-2.27,1.58-.11-.89-.11-2.72-.11-3.72,0-1.54,0-3.85-2.23-3.85-.72,0-1.55.48-4.09,2-3.11,1.86-7.83,4.67-12.57,6.21-6.68,2.12-9.62,3.27-9.62,5.46,0,2.53,2.23,2.86,3.7,3.1,2.25.35,4.36.66,4.36,5.74v64.65c0,3.96-2.22,4.73-5.61,5.46-1.9.41-4.28.93-4.28,3.25,0,1.81,1.56,3.31,3.49,3.31l13.87-.57,20.09.57c4.43,0,4.77-2.44,4.77-3.18,0-3.35-3.68-3.55-6.11-3.7-3.46-.14-5.35-3.05-5.35-8.18v-17.12c0-.63.33-.71.47-.71.32.02,1.64.48,2.7.84,2.72.93,6.44,2.2,9.18,2.2,16.07,0,27.27-17.69,27.27-33.56s-6.33-35.76-24.16-35.76c-4.4,0-8.32,2.33-10.88,4.09"/><path class="c" d="M235.02,212.11c-4.56,2.41-10.8,5.72-16.37,7.07-2.4.57-3.77,1.86-3.77,3.52,0,2.26,2.3,2.77,3.99,3.13,2.67.58,3.93,1.08,3.93,3.22v38.68c0,1.51-.88,1.89-3.04,2.42-1.7.41-4.03.99-4.03,3.52,0,2.09,1.82,3.43,4.63,3.43l3.05-.14c2.49-.16,6.25-.39,10.68-.39l12.31.53c5.01,0,5.75-2.14,5.75-3.43,0-2.75-2.43-3.21-4.21-3.55-2.39-.46-4.28-.82-4.28-4.47v-50.27c0-3.44,0-5.93-2.64-5.93-.97,0-2.45.76-5.99,2.64M221.52,194.94c0,6.64,4.92,11.46,11.7,11.46s11.71-4.82,11.71-11.46-4.91-11.45-11.71-11.45-11.7,4.82-11.7,11.45"/><path class="c" d="M282.25,215.72h0M282.26,215.71s-1.79,1.62-1.79,1.62c-.46.44-.98.91-1.23,1.04,0-.11-.02-.22-.02-.22v-5.66c0-2.72-1.55-3.02-2.22-3.02s-1.39.41-4.05,1.98c-3.97,2.33-10.63,6.26-16.76,7.72-2.09.52-3.34,1.84-3.34,3.54,0,2.23,2.03,2.75,3.52,3.11,2.09.54,3.27.94,3.27,3.26v38.67c0,1.78-.88,2.08-2.71,2.54-1.45.36-3.66.89-3.66,3.41,0,2.28,1.56,3.44,4.63,3.44l3.39-.19c2.3-.16,5.46-.38,8.49-.38l6.43.3,5.47.26c1.1,0,4.48,0,4.48-3.02,0-2.55-1.82-3.08-3.03-3.43-1.47-.43-2.64-.76-2.64-4.18v-37.85c0-4.73,2.43-7.34,6.83-7.34s6.54,2.55,6.54,7.34v39.09c0,2.22-.75,2.39-2.15,2.74-1.16.27-3.07.72-3.07,3.21,0,2.28,1.55,3.44,4.62,3.44l4.08-.23c1.95-.14,4.18-.33,6.95-.33l6.73.27,7.28.3c3.2,0,4.35-1.77,4.35-3.44,0-2.4-2.05-2.83-3.53-3.14-.79-.16-1.61-.33-2.4-.72-.93-.41-2-3.7-2-7.19v-32.05c0-13.23-6.81-21.12-18.21-21.12-5.98,0-11.05,3.4-14.26,6.24"/><path class="c" d="M140.02,133.64c0,.75.33,1.03,2.93,1.03,3.59,0,4.84-1.3,5.67-3.45.92-2.33.92-3.87,2.59-3.87.75,0,1.34.46,1.34,1.76,0,2.14-.33,4.8-.33,7.96,0,3.54.33,5.51.33,7.46,0,1.31-.33,2.04-1.6,2.04-1.58,0-1.83-1.5-2.91-4.29-.83-2.23-1.84-3.72-5.27-3.72-1.99,0-2.76.19-2.76.84v20.93c0,2.98,1,3.54,4.1,3.54,12.36,0,8.93-13.7,13.94-13.7,1.51,0,1.75-1.38,1.75,9.51,0,7.82-.24,8.1-2.92,8.1s-7.52-.38-16.37-.38c-11.53,0-14.7.38-16.54.38-1.34,0-2.17-.28-2.17-1.31,0-1.3.59-1.96,2.34-2.24,2.18-.37,3.01-1.66,3.01-5.02v-42.61c0-6.51-5.18-2.97-5.18-6.51,0-1.3,1.75-1.3,3.85-1.3,4.18,0,9.86.38,14.86.38,3.17,0,10.02-.38,15.03-.38,1.76,0,2.34.74,2.34,2.05v9.79c0,2.05-.67,2.98-2.09,2.98-2.67,0-3.75-10.9-12.87-10.9-2.08,0-3.09.56-3.09,1.4v19.52Z"/><path class="c" d="M230.76,136.53c-.34,0-.76-.19-.76-.46v-20.01c0-3.54.93-4.28,2.59-4.28,4.51,0,7.61,5.68,7.61,12.18,0,7.36-3.6,12.57-9.44,12.57M253.56,159.97l-5.84-16.37c-1.09-3.71-2.13-6.07-3.13-7.52,4.03-1.45,8.47-4.68,8.47-12.66,0-9.77-6.69-14.61-15.7-14.61-5.35,0-10.37.38-13.78.38-5.27,0-7.86-.38-9.61-.38-1.42,0-2.17.28-2.17,1.3,0,1.11,1.42,1.4,2.67,1.67,1.34.28,2.67,1.31,2.67,4.1v44.83c0,2.79-1.34,3.26-2.67,3.53-1.34.29-2.34.56-2.34,2.24,0,1.03.76,1.31,1.84,1.31,1.75,0,4.34-.38,9.61-.38s7.84.38,9.26.38,2.26-.28,2.26-1.31c0-1.76-1.43-1.48-3.01-2.24-2-.93-2.09-3.16-2.09-6.04v-17.4c0-.37.17-.74.76-.74,2.43,0,3.33,2.05,4.43,5.4l5.93,17.95c1.34,4,1.59,4.38,5.18,4.38h11.27c.76,0,1.5-.38,1.5-1.4,0-2.69-3.09.28-5.51-6.42"/><path class="c" d="M281.35,110.67c-5.51,0-8.35,11.63-8.35,21.31,0,17.95,3.85,33.95,10.69,33.95,5.01,0,7.85-9.12,7.85-23.16,0-14.89-3.51-32.1-10.19-32.1M282.28,168.9c-14.87,0-23.31-16.55-23.31-30.6,0-15.9,8.11-30.61,23.31-30.61s23.31,16.56,23.31,30.61c0,15.91-8.11,30.6-23.31,30.6"/><path class="c" d="M186.63,168.9c-10.95,0-19.5-5.02-19.5-17.12v-35.91c0-1.67-.51-3.34-1.51-3.53-1.84-.38-3.51-.94-3.51-2.25,0-.73.42-1.29,1.58-1.29,2.01,0,4.59.37,9.87.37,2.76,0,5.18-.37,8.76-.37,1.17,0,2.26.46,2.18,1.67-.26,2.42-4.52.1-4.52,4.2v40.46c0,6.79,2.58,9.85,7.35,9.85h-1.63c4.77,0,7.4-3.06,7.4-9.85v-40.46c0-4.1-4.26-1.78-4.51-4.2-.08-1.21,1-1.67,2.18-1.67,3.59,0,6.01.37,8.76.37,5.27,0,7.85-.37,9.86-.37,1.16,0,1.6.56,1.6,1.29,0,1.31-1.68,1.87-3.51,2.25-1,.19-1.51,1.85-1.51,3.53v35.91c0,12.1-8.55,17.12-19.5,17.12h.17Z"/><path class="e" d="M224.55,48.6c.34-.26.57-.66.57-1.13,0-.82-.68-1.49-1.52-1.49,0,0,0,0-.02,0h0s-10.29,0-10.29,0l-3.19-9.72h-.04c-.2-.59-.74-1.03-1.4-1.03s-1.24.45-1.42,1.07h-.02l-3.17,9.68h-10.23s-.08-.02-.12-.02c-.82,0-1.5.67-1.5,1.49,0,.51.28.93.66,1.2v.02s8.34,6.02,8.34,6.02l-3.12,9.52.04.03c-.06.18-.1.36-.1.55,0,.82.68,1.49,1.5,1.49.32,0,.61-.12.87-.31l.04.03,8.24-5.93,8.23,5.93.04-.05c.26.21.57.35.93.35.84,0,1.51-.66,1.51-1.49,0-.15-.04-.31-.1-.44l.04-.04-3.17-9.65,8.41-6.06-.02-.04Z"/><path class="e" d="M224.55,353.07c.34-.28.57-.68.57-1.14,0-.83-.68-1.49-1.52-1.49h-10.31l-3.19-9.72h-.04c-.2-.6-.74-1.04-1.4-1.04s-1.24.46-1.42,1.07h-.02l-3.17,9.68h-10.23s-.08-.03-.12-.03c-.82,0-1.5.68-1.5,1.49,0,.5.28.93.66,1.21h0s8.35,6.04,8.35,6.04l-3.12,9.51.04.05c-.06.16-.1.35-.1.53,0,.83.68,1.5,1.5,1.5.32,0,.61-.13.87-.32l.04.05,8.24-5.94,8.23,5.93.04-.04c.26.21.57.35.93.35.84,0,1.51-.66,1.51-1.49,0-.16-.04-.32-.1-.46l.04-.02-3.17-9.65,8.41-6.07h-.02Z"/><path class="e" d="M301.74,329.45c.33-.27.56-.68.56-1.13,0-.82-.68-1.49-1.51-1.49,0,0-.02.02-.02.02v-.02h-10.28l-3.2-9.7h-.03c-.2-.62-.74-1.04-1.41-1.04s-1.23.44-1.42,1.05h-.02l-3.17,9.69h-10.23s-.09-.02-.12-.02c-.83,0-1.5.66-1.5,1.48,0,.52.28.94.66,1.21v.02s8.33,6.02,8.33,6.02l-3.12,9.51.05.03c-.06.19-.11.36-.11.55,0,.82.68,1.49,1.51,1.49.32,0,.61-.13.86-.32l.05.05,8.24-5.94,8.22,5.93.04-.04c.27.21.58.35.93.35.84,0,1.51-.68,1.51-1.5,0-.16-.04-.3-.1-.44l.04-.03-3.17-9.65,8.4-6.05v-.04Z"/><path class="e" d="M360.87,275.7c.33-.27.56-.66.56-1.13,0-.82-.68-1.49-1.5-1.49-.02,0-.02.02-.02.02v-.02h-10.3l-3.18-9.72h-.05c-.19-.6-.75-1.02-1.41-1.02s-1.23.46-1.42,1.07h-.02l-3.16,9.67h-10.24s-.07-.02-.12-.02c-.83,0-1.5.66-1.5,1.5,0,.5.28.93.66,1.19v.03s8.33,6.01,8.33,6.01l-3.11,9.53.05.03c-.07.18-.11.35-.11.55,0,.82.68,1.49,1.49,1.49.34,0,.63-.14.88-.31l.04.03,8.22-5.94,8.23,5.94.04-.05c.27.2.58.35.94.35.83,0,1.5-.66,1.5-1.48,0-.16-.05-.31-.09-.46l.02-.03-3.15-9.66,8.4-6.05v-.03Z"/><path class="e" d="M377.28,197.52c.33-.27.57-.67.57-1.12,0-.83-.68-1.5-1.5-1.5-.02,0-.02,0-.03,0h0s-10.3,0-10.3,0l-3.17-9.71h-.03c-.2-.6-.75-1.03-1.42-1.03s-1.23.45-1.42,1.06h-.02l-3.15,9.68h-10.24s-.07-.02-.12-.02c-.82,0-1.5.66-1.5,1.49,0,.51.27.94.67,1.2v.02s8.33,6.01,8.33,6.01l-3.12,9.52.05.03c-.07.17-.11.36-.11.55,0,.83.68,1.49,1.49,1.49.34,0,.63-.13.88-.31l.05.03,8.24-5.94,8.22,5.93.04-.03c.27.2.57.34.93.34.84,0,1.52-.66,1.52-1.49,0-.16-.06-.3-.11-.45l.03-.03-3.16-9.65,8.41-6.06-.02-.03Z"/><path class="e" d="M358.4,122.61c.34-.27.56-.67.56-1.14,0-.82-.68-1.49-1.49-1.49-.01,0-.01,0-.03,0h0s-10.29,0-10.29,0l-3.18-9.72h-.04c-.2-.59-.75-1.03-1.42-1.03s-1.23.46-1.41,1.07h-.02l-3.17,9.68h-10.23s-.07-.02-.12-.02c-.83,0-1.5.66-1.5,1.49,0,.5.27.93.66,1.2v.02s8.33,6.02,8.33,6.02l-3.11,9.52.04.03c-.06.17-.11.35-.11.54,0,.83.68,1.5,1.5,1.5.33,0,.62-.12.87-.31l.05.04,8.23-5.93,8.22,5.92.04-.04c.27.2.58.35.93.35.83,0,1.51-.65,1.51-1.48,0-.17-.05-.32-.09-.46l.03-.02-3.16-9.66,8.41-6.06-.02-.02Z"/><path class="e" d="M305.02,63.98c.34-.28.56-.67.56-1.13,0-.83-.67-1.49-1.49-1.49-.01,0-.01,0-.03,0h0s-10.29,0-10.29,0l-3.18-9.71h-.04c-.21-.6-.75-1.04-1.41-1.04s-1.23.45-1.42,1.07h-.02l-3.16,9.68h-10.24s-.07-.02-.12-.02c-.83,0-1.5.67-1.5,1.49,0,.51.27.94.66,1.21v.02s8.33,6.01,8.33,6.01l-3.11,9.51.05.05c-.06.17-.11.35-.11.54,0,.83.68,1.49,1.5,1.49.33,0,.62-.13.87-.3l.05.03,8.23-5.94,8.22,5.92.04-.03c.26.2.59.35.95.35.82,0,1.5-.66,1.5-1.49,0-.16-.06-.31-.09-.44l.02-.03-3.16-9.66,8.41-6.06-.02-.02Z"/><path class="e" d="M115.51,329.45c-.33-.27-.56-.68-.56-1.13,0-.82.68-1.49,1.5-1.49,0,0,0,.02.02.02v-.02h10.3l3.18-9.7h.04c.2-.62.75-1.04,1.42-1.04s1.23.44,1.42,1.05h0l3.17,9.69h10.24s.07-.02.11-.02c.84,0,1.51.66,1.51,1.48,0,.52-.27.94-.66,1.21h0s-8.34,6.04-8.34,6.04l3.11,9.51-.05.03c.06.19.11.36.11.55,0,.82-.68,1.49-1.5,1.49-.33,0-.62-.12-.87-.32l-.05.05-8.23-5.94-8.22,5.93-.04-.04c-.27.21-.58.35-.94.35-.83,0-1.5-.68-1.5-1.5,0-.16.05-.3.09-.44l-.03-.03,3.16-9.65-8.41-6.05.02-.04Z"/><path class="e" d="M56.39,275.7c-.34-.27-.56-.66-.56-1.13,0-.82.67-1.49,1.5-1.49,0,0,0,.02.02.02v-.02h10.3l3.18-9.72h.04c.2-.6.75-1.02,1.42-1.02s1.23.46,1.41,1.07h.02l3.16,9.67h10.25s.07-.02.11-.02c.84,0,1.51.66,1.51,1.5,0,.5-.27.93-.66,1.19v.03s-8.33,6.01-8.33,6.01l3.11,9.53-.05.03c.06.18.1.35.1.55,0,.82-.67,1.49-1.49,1.49-.33,0-.62-.14-.87-.31l-.05.03-8.23-5.94-8.22,5.94-.04-.05c-.27.2-.58.35-.94.35-.83,0-1.51-.66-1.51-1.48,0-.16.05-.31.09-.46l-.03-.03,3.16-9.66-8.41-6.05.02-.03Z"/><path class="e" d="M39.97,197.52c-.33-.27-.57-.67-.57-1.12,0-.83.68-1.5,1.52-1.5,0,0,0,0,.02,0h0s10.29,0,10.29,0l3.19-9.71h.03c.2-.6.75-1.03,1.41-1.03s1.23.45,1.42,1.06h.01l3.18,9.68h10.23s.08-.02.12-.02c.83,0,1.5.66,1.5,1.49,0,.51-.28.94-.67,1.2v.02s-8.33,6.01-8.33,6.01l3.12,9.52-.05.03c.06.17.1.36.1.55,0,.83-.68,1.49-1.5,1.49-.33,0-.61-.13-.87-.31l-.04.03-8.24-5.94-8.22,5.93-.05-.03c-.25.2-.57.34-.92.34-.84,0-1.52-.66-1.52-1.49,0-.16.05-.3.09-.45l-.03-.03,3.17-9.65-8.41-6.06.02-.03Z"/><path class="e" d="M58.85,122.61c-.33-.27-.56-.67-.56-1.14,0-.82.68-1.49,1.5-1.49,0,0,.02,0,.02,0h0s10.3,0,10.3,0l3.18-9.72h.04c.2-.59.75-1.03,1.41-1.03s1.23.46,1.42,1.07h.02l3.17,9.68h10.24s.07-.02.12-.02c.83,0,1.5.66,1.5,1.49,0,.5-.28.93-.66,1.2v.02s-8.33,6.02-8.33,6.02l3.11,9.52-.05.03c.06.17.11.35.11.54,0,.83-.68,1.5-1.5,1.5-.33,0-.62-.12-.87-.31l-.05.04-8.22-5.93-8.23,5.92-.04-.04c-.27.2-.58.35-.94.35-.83,0-1.51-.65-1.51-1.48,0-.17.06-.32.09-.46l-.03-.02,3.16-9.66-8.41-6.06v-.02Z"/><path class="e" d="M112.22,63.98c-.33-.28-.56-.67-.56-1.13,0-.83.68-1.49,1.5-1.49,0,0,0,0,.02,0h0s10.3,0,10.3,0l3.18-9.71h.04c.19-.6.74-1.04,1.41-1.04s1.23.45,1.42,1.07h.02l3.17,9.68h10.24s.07-.02.12-.02c.83,0,1.5.67,1.5,1.49,0,.51-.27.94-.66,1.21v.02s-8.33,6.01-8.33,6.01l3.11,9.51-.05.05c.06.17.11.35.11.54,0,.83-.68,1.49-1.5,1.49-.33,0-.62-.13-.87-.3l-.05.03-8.22-5.94-8.23,5.92-.04-.03c-.26.2-.58.35-.94.35-.83,0-1.5-.66-1.5-1.49,0-.16.05-.31.09-.44l-.03-.03,3.16-9.66-8.4-6.06v-.02Z"/><path class="c" d="M63.11,438.65h-6.84v-28.28h11.08c3.36,0,5.92.83,7.68,2.5,1.76,1.67,2.64,3.91,2.64,6.74,0,1.76-.39,3.33-1.18,4.7s-1.95,2.45-3.5,3.24c-1.55.79-3.43,1.18-5.64,1.18h-4.24v9.92ZM66.59,415.89h-3.48v7.36h3.48c2.75,0,4.12-1.21,4.12-3.64s-1.37-3.72-4.12-3.72Z"/><path class="c" d="M96.63,420.37v-4.04h6.8v22.32h-6.8v-4.04c-.59,1.33-1.49,2.39-2.72,3.16s-2.69,1.16-4.4,1.16c-1.84,0-3.49-.46-4.94-1.38s-2.6-2.25-3.44-3.98-1.26-3.76-1.26-6.08.42-4.38,1.26-6.1,1.99-3.04,3.44-3.96,3.1-1.38,4.94-1.38c1.71,0,3.17.39,4.4,1.16s2.13,1.83,2.72,3.16ZM86.83,427.49c0,1.71.45,3.04,1.34,4,.89.96,2.07,1.44,3.54,1.44s2.62-.49,3.54-1.48c.92-.99,1.38-2.31,1.38-3.96s-.46-3.01-1.38-3.98c-.92-.97-2.1-1.46-3.54-1.46s-2.65.48-3.54,1.44-1.34,2.29-1.34,4Z"/><path class="c" d="M145.9,425.69v12.96h-6.8v-12.16c0-1.41-.38-2.51-1.14-3.3-.76-.79-1.79-1.18-3.1-1.18s-2.43.42-3.22,1.26c-.79.84-1.18,2.02-1.18,3.54v11.84h-6.84v-12.16c0-1.41-.37-2.51-1.12-3.3-.75-.79-1.77-1.18-3.08-1.18s-2.44.41-3.24,1.24c-.8.83-1.2,2.01-1.2,3.56v11.84h-6.84v-22.32h6.84v3.8c.59-1.25,1.49-2.24,2.7-2.96,1.21-.72,2.63-1.08,4.26-1.08,1.71,0,3.21.39,4.52,1.18,1.31.79,2.29,1.91,2.96,3.38.77-1.39,1.83-2.49,3.18-3.32,1.35-.83,2.83-1.24,4.46-1.24,2.75,0,4.91.85,6.48,2.54,1.57,1.69,2.36,4.05,2.36,7.06Z"/><path class="c" d="M155.99,428.73c.08,1.68.51,2.89,1.28,3.62.77.73,1.76,1.1,2.96,1.1,1.01,0,1.85-.25,2.52-.76s1.11-1.16,1.32-1.96h7.24c-.29,1.57-.93,2.98-1.92,4.22-.99,1.24-2.24,2.21-3.76,2.92-1.52.71-3.21,1.06-5.08,1.06-2.19,0-4.13-.46-5.82-1.38-1.69-.92-3.02-2.25-3.98-3.98s-1.44-3.76-1.44-6.08.47-4.38,1.42-6.1c.95-1.72,2.27-3.04,3.98-3.96,1.71-.92,3.65-1.38,5.84-1.38s4.16.45,5.84,1.36,2.98,2.18,3.9,3.82,1.38,3.53,1.38,5.66c0,.56-.07,1.17-.2,1.84h-15.48ZM160.55,421.45c-1.25,0-2.29.37-3.12,1.12-.83.75-1.29,1.84-1.4,3.28h8.72c.03-1.47-.37-2.57-1.18-3.3-.81-.73-1.82-1.1-3.02-1.1Z"/><path class="c" d="M187.87,438.65h-3.08c-2.61,0-4.65-.65-6.1-1.94s-2.18-3.43-2.18-6.42v-8.2h-3v-5.76h3v-5.48h6.84v5.48h4.48v5.76h-4.48v8.32c0,.88.18,1.49.54,1.84.36.35.97.52,1.82.52h2.16v5.88Z"/><path class="c" d="M214.22,425.69v12.96h-6.84v-12.16c0-1.49-.39-2.66-1.18-3.5-.79-.84-1.83-1.26-3.14-1.26-1.39,0-2.49.44-3.3,1.32-.81.88-1.22,2.13-1.22,3.76v11.84h-6.84v-22.32h6.84v4.08c.64-1.33,1.59-2.39,2.86-3.16,1.27-.77,2.75-1.16,4.46-1.16,2.56,0,4.59.85,6.1,2.56,1.51,1.71,2.26,4.05,2.26,7.04Z"/><path class="c" d="M222.19,406.45c1.23,0,2.21.34,2.96,1.02.75.68,1.12,1.54,1.12,2.58s-.37,1.86-1.12,2.54c-.75.68-1.73,1.02-2.96,1.02s-2.21-.34-2.96-1.02c-.75-.68-1.12-1.53-1.12-2.54s.37-1.9,1.12-2.58c.75-.68,1.73-1.02,2.96-1.02ZM225.58,438.65h-6.84v-22.32h6.84v22.32Z"/><path class="c" d="M260.82,425.69v12.96h-6.84v-12.16c0-1.49-.39-2.66-1.18-3.5-.79-.84-1.83-1.26-3.14-1.26-1.39,0-2.49.44-3.3,1.32-.81.88-1.22,2.13-1.22,3.76v11.84h-6.84v-22.32h6.84v4.08c.64-1.33,1.59-2.39,2.86-3.16,1.27-.77,2.75-1.16,4.46-1.16,2.56,0,4.59.85,6.1,2.56,1.51,1.71,2.26,4.05,2.26,7.04Z"/><path class="c" d="M280.94,420.37v-4.04h6.8v22.32h-6.8v-4.04c-.59,1.33-1.49,2.39-2.72,3.16s-2.69,1.16-4.4,1.16c-1.84,0-3.49-.46-4.94-1.38s-2.6-2.25-3.44-3.98-1.26-3.76-1.26-6.08.42-4.38,1.26-6.1,1.99-3.04,3.44-3.96,3.1-1.38,4.94-1.38c1.71,0,3.17.39,4.4,1.16s2.13,1.83,2.72,3.16ZM271.14,427.49c0,1.71.45,3.04,1.34,4,.89.96,2.07,1.44,3.54,1.44s2.62-.49,3.54-1.48c.92-.99,1.38-2.31,1.38-3.96s-.46-3.01-1.38-3.98c-.92-.97-2.1-1.46-3.54-1.46s-2.65.48-3.54,1.44c-.89.96-1.34,2.29-1.34,4Z"/><path class="c" d="M299.3,429.17v9.48h-6.84v-29.59h6.84v16.24l6.68-8.96h8.04l-9,11.16,9.2,11.16h-8.24l-6.68-9.48Z"/><path class="c" d="M338.9,438.65h-6.88v-4.04c-.64,1.31-1.59,2.35-2.86,3.12s-2.74,1.16-4.42,1.16c-2.56,0-4.59-.85-6.1-2.56-1.51-1.71-2.26-4.05-2.26-7.04v-12.96h6.8v12.12c0,1.52.39,2.7,1.18,3.54.79.84,1.85,1.26,3.18,1.26s2.48-.44,3.28-1.32,1.2-2.13,1.2-3.76v-11.84h6.88v22.32Z"/><path class="c" d="M365.92,421.39c.84,1.72,1.26,3.75,1.26,6.1s-.42,4.35-1.26,6.08-1.99,3.06-3.44,3.98-3.1,1.38-4.94,1.38c-1.71,0-3.17-.39-4.4-1.16s-2.12-1.83-2.68-3.16v14.68h-6.84v-32.96h6.84v4.04c.56-1.33,1.45-2.39,2.68-3.16s2.69-1.16,4.4-1.16c1.84,0,3.49.46,4.94,1.38s2.6,2.24,3.44,3.96ZM350.42,427.49c0,1.65.46,2.97,1.38,3.96.92.99,2.1,1.48,3.54,1.48s2.65-.48,3.54-1.44c.89-.96,1.34-2.29,1.34-4s-.45-3.04-1.34-4c-.89-.96-2.07-1.44-3.54-1.44s-2.62.49-3.54,1.46c-.92.97-1.38,2.3-1.38,3.98Z"/></g></svg>