<svg version="1.1" xmlns="http://www.w3.org/2000/svg" xmlns:xlink="http://www.w3.org/1999/xlink" width="273.27327" height="273.27327" viewBox="0,0,273.27327,273.27327"><g transform="translate(-103.36336,-43.36336)"><g data-paper-data="{&quot;isPaintingLayer&quot;:true}" stroke="none" stroke-linecap="butt" stroke-linejoin="miter" stroke-miterlimit="10" stroke-dasharray="" stroke-dashoffset="0" style="mix-blend-mode: normal"><path d="M103.36336,316.63664v-273.27327h273.27327v273.27327z" fill="#045cac" fill-rule="nonzero" stroke-width="0"/><path d="M247.303,85.87326c7.96,-1.301 17.165,2.883 19.399,8.816c4.63,12.298 -16.092,20.1 -27.698,10.428l-1.66,-1.384l-0.077,1.121c-0.042,0.617 -0.45,8.44 -0.907,17.386c-0.456,8.946 -0.911,17.2 -1.011,18.341l-0.181,2.074h4.115c6.076,0 11.579,1.081 16.827,3.306l2.169,0.919l5.3,-9.152c6.969,-12.032 7.049,-12.12 11.11,-12.129c8.846,-0.019 13.961,10.796 6.566,13.885c-3.332,1.392 -8.94,-0.555 -11.131,-3.866c-1.072,-1.62 -0.752,-1.974 -5.348,5.911c-4.041,6.931 -4.031,6.906 -2.95,7.463c3.629,1.868 9.772,7.761 13.049,12.518c0.037,0.055 5.202,-3.082 11.476,-6.971l11.408,-7.07h2.49c10.498,0 16.261,17.294 6.803,20.415c-5.798,1.914 -13.322,-5.091 -13.49,-12.559c-0.038,-1.683 -0.06,-1.721 -0.743,-1.287c-0.386,0.246 -4.064,2.514 -8.172,5.039c-4.108,2.525 -7.595,4.702 -7.749,4.838c-0.154,0.136 0.241,1.348 0.879,2.692c1.673,3.526 2.835,7.271 3.435,11.069c0.288,1.826 0.584,3.656 0.658,4.066c0.129,0.716 0.275,0.748 3.531,0.763c15.759,0.071 39.104,1.235 40.649,2.026c8.58,4.397 5.416,22.136 -3.829,21.467c-7.07,-0.511 -10.473,-13.044 -5.142,-18.935c0.498,-0.55 0.48,-0.591 -0.264,-0.598c-0.439,-0.004 -7.595,-0.225 -15.902,-0.49c-8.307,-0.266 -15.948,-0.487 -16.98,-0.491l-1.876,-0.007l-0.206,2.075c-0.114,1.141 -0.451,3.457 -0.749,5.148c-0.299,1.69 -0.461,3.155 -0.359,3.257c0.101,0.101 5.569,2.092 12.151,4.426c12.851,4.555 13.793,5.028 15.009,7.54c3.752,7.75 -3.343,19.471 -10.715,17.702c-6.766,-1.623 -7.558,-12.528 -1.36,-18.726l1.745,-1.744l-6.878,-2.411c-3.783,-1.326 -7.82,-2.762 -8.972,-3.192l-2.095,-0.782l-0.498,1.237c-2.433,6.046 -6.041,11.341 -10.744,15.768c-1.645,1.549 -2.992,2.907 -2.992,3.018c0,0.111 5.562,7.784 12.359,17.053c14.538,19.822 13.961,18.872 13.791,22.702c-0.375,8.475 -10.185,16.637 -18.943,15.76c-15.532,-1.557 -8.113,-23.843 8.341,-25.058l2.769,-0.205l-10.379,-14.273c-5.708,-7.851 -10.407,-14.317 -10.442,-14.369c-0.036,-0.052 -0.959,0.438 -2.053,1.09c-4.526,2.696 -11.36,4.927 -16.391,5.352l-2.525,0.213l-0.212,7.01c-0.116,3.856 -0.299,11.417 -0.406,16.803c-0.136,6.796 -0.337,10.308 -0.658,11.476c-1.835,6.676 -13.383,8.751 -19.187,3.447c-9.07,-8.29 5.062,-18.889 15.764,-11.823l0.874,0.577l0.208,-7.067c0.115,-3.886 0.298,-10.004 0.409,-13.594l0.2,-6.527l-1.946,-0.199c-1.07,-0.109 -3.589,-0.514 -5.598,-0.899c-2.008,-0.385 -3.937,-0.72 -4.287,-0.743c-0.499,-0.033 -1.857,2.079 -6.312,9.817c-7.386,12.829 -7.637,13.072 -13.192,12.828c-10.003,-0.439 -16.647,-11.782 -9.733,-16.615c4.699,-3.284 12.997,-0.667 16.775,5.29l0.932,1.47l0.498,-0.773c0.977,-1.516 7.518,-13.008 7.518,-13.207c0,-0.112 -1.008,-0.7 -2.24,-1.306c-3.014,-1.483 -7.173,-4.234 -9.261,-6.124c-0.939,-0.85 -1.801,-1.547 -1.915,-1.547c-0.114,0 -7.557,3.518 -16.54,7.817c-19.942,9.542 -19.756,9.493 -24.387,6.489c-10.004,-6.49 -9.615,-22.818 0.541,-22.757c6.944,0.041 13.936,9.601 12.375,16.92c-0.175,0.819 -0.26,1.49 -0.19,1.49c0.16,0 12.877,-6.037 15.472,-7.344l1.904,-0.96l-1.186,-2.072c-3.47,-6.064 -9.095,-19.85 -9.095,-22.291c0,-0.909 -0.804,-1 -16.657,-1.893l-15.828,-0.892l-1.707,-0.929c-9.984,-5.434 -6.565,-26.039 4.316,-26.015c9.089,0.02 13.065,15.269 6.13,23.51l-0.878,1.044l0.943,0.004c0.518,0.002 7.664,0.374 15.88,0.826c8.216,0.452 15.236,0.824 15.601,0.825c0.633,0.002 0.665,-0.223 0.679,-4.727c0.025,-8.188 2.144,-15.454 6.441,-22.093c1.657,-2.559 2.915,-0.74 -10.107,-14.618c-11.848,-12.628 -12.22,-13.127 -11.992,-16.087c0.546,-7.1 9.454,-12.959 14.865,-9.778c5.813,3.417 2.502,13.148 -5.454,16.029l-1.974,0.715l7.88,8.435c4.334,4.639 8.366,8.938 8.96,9.552l1.08,1.117l2.689,-2.647c1.48,-1.456 3.215,-3.004 3.855,-3.441c1.517,-1.033 1.91,0.141 -4.197,-12.547c-6.06,-12.592 -6.29,-13.417 -4.623,-16.603c4.414,-8.439 17.779,-10.095 20.281,-2.512c1.877,5.688 -4.587,12.348 -12.346,12.719c-1.608,0.077 -2.924,0.199 -2.924,0.271c0,0.336 3.68,7.423 3.855,7.423c0.109,0 0.652,-0.382 1.206,-0.849c2.794,-2.35 8.336,-4.11 13.777,-4.374c2.054,-0.1 3.75,-0.198 3.769,-0.218c0.019,-0.02 0.53,-8.908 1.134,-19.751c0.893,-16.002 1.208,-19.998 1.677,-21.225c1.439,-3.767 6.45,-7.147 11.926,-8.042M232.378,140.41426l0.239,-2.738l-1.122,0.044c-5.745,0.226 -10.717,1.533 -13.889,3.652c-2.644,1.765 -2.669,1.869 -1.188,4.906l1.246,2.556l2.703,-1.425c2.596,-1.368 9.195,-3.752 10.415,-3.763c1.114,-0.01 1.358,-0.504 1.596,-3.232M196.52,192.11626c-0.774,0 -2.1,-0.095 -2.947,-0.211c-1.889,-0.259 -1.876,-0.417 -0.354,4.458c1.486,4.76 3.768,10.168 6.193,14.676c2.835,5.27 2.287,4.95 5.633,3.291l2.852,-1.415l-1.798,-2.389c-3.621,-4.811 -6.011,-9.795 -7.451,-15.536l-0.721,-2.874h-1.407" fill="#fafbfb" fill-rule="evenodd" stroke-width="1"/></g></g></svg>