<svg version="1.1" xmlns="http://www.w3.org/2000/svg" xmlns:xlink="http://www.w3.org/1999/xlink" width="319" height="319" viewBox="0,0,319,319"><g transform="translate(-80.5,-20.5)"><g data-paper-data="{&quot;isPaintingLayer&quot;:true}" stroke="none" stroke-linecap="butt" stroke-linejoin="miter" stroke-miterlimit="10" stroke-dasharray="" stroke-dashoffset="0" style="mix-blend-mode: normal"><path d="M156.83333,326.16667v-70.33333h174.66667v70.33333z" fill="#ffffff" fill-rule="nonzero" stroke-width="0"/><path d="M80.5,180v-159.5h159.5h159.5v159.5v159.5h-159.5h-159.5v-159.5M244.23672,83.55234c-0.86167,-0.86167 -13.58554,-0.92585 -17.63223,-0.0891c-1.3707,0.28349 -4.22613,0.53208 -6.34573,0.5514c-5.25665,0.04922 -6.77003,0.76074 -10.58619,4.97752c-1.80746,1.99749 -4.63235,4.49528 -6.2772,5.55072c-2.84732,1.8274 -9.52701,4.65914 -13.55065,5.74449c-8.93698,2.41057 -12.05097,3.07785 -14.36435,3.07785c-5.37129,0 -5.73203,2.29032 -2.45169,15.57617c0.46542,1.88472 1.21681,4.9688 1.66914,6.85352l0.82304,3.42676l4.04669,0.21059c2.22552,0.11589 6.28966,-0.08785 9.03106,-0.45233c2.74141,-0.36448 6.31583,-0.80435 7.94385,-0.97756l2.95947,-0.31464v43.89116c0,42.75597 0.03115,43.90736 1.20497,44.53601c1.81431,0.97071 42.55223,0.87476 43.52979,-0.1028c1.08472,-1.08472 1.08472,-131.37504 0,-132.45977M273.89811,83.97352c-6.72018,-1.12896 -19.09639,-1.41494 -20.03532,-0.46292c-1.08223,1.09719 -1.11089,23.63466 -0.03115,24.7144c0.41121,0.41121 1.88347,0.75015 3.271,0.75389c1.38815,0.00312 3.9551,0.67227 5.70462,1.48721c2.60932,1.21494 3.44981,2.02677 4.67161,4.51086c1.29531,2.63362 1.51899,4.1065 1.70777,11.25659c0.18816,7.1289 0.03863,8.76378 -1.12335,12.25596c-1.59625,4.79497 -2.68409,5.65415 -8.91144,7.03358c-2.48035,0.55015 -4.86039,1.27662 -5.28904,1.61556c-0.57383,0.45358 -0.77881,3.70277 -0.77881,12.33259c0,14.60858 -0.41744,13.93507 8.36627,13.49146c24.9549,-1.2598 42.01579,-10.80239 48.69298,-27.23525c2.68907,-6.61676 3.55261,-11.97185 3.20682,-19.87893c-0.36884,-8.42172 -1.45045,-12.92012 -4.65852,-19.36804c-5.58562,-11.22793 -18.89265,-19.83532 -34.79343,-22.50695M196.15432,267.25585c-7.07283,-3.02115 -26.50254,-1.75762 -28.43274,1.84858c-0.37321,0.69844 -0.61806,9.37872 -0.61806,21.93c0,17.79422 0.13894,20.973 0.97008,22.15866c0.89968,1.28535 1.45232,1.38503 7.66908,1.38503c4.38874,0 7.05787,-0.26853 7.73949,-0.77881c0.84672,-0.63426 1.07164,-2.11026 1.20933,-7.94385l0.16885,-7.16504l3.11523,-0.15452c11.1326,-0.55077 18.43471,-8.06534 17.53441,-18.04344c-0.5894,-6.53701 -3.5819,-10.76999 -9.35567,-13.23663M237.59068,266.93373c-3.42863,-1.16884 -13.71139,-1.68783 -19.39732,-0.98005c-5.48344,0.68286 -8.0697,1.73581 -8.76689,3.57068c-0.31838,0.83675 -0.57881,10.87591 -0.57881,22.30882c0,18.06649 0.12835,20.91506 0.97881,21.76614c0.76884,0.76822 2.41804,0.97881 7.66908,0.97881c9.02234,0 8.94135,0.07352 8.92515,-8.1426c-0.01371,-6.99432 0.15202,-6.95694 2.42926,0.55389c0.76012,2.50901 1.92459,5.25042 2.58689,6.09278c1.18441,1.50528 1.34329,1.52833 9.40115,1.35762l8.19618,-0.17321l0.18006,-1.55762c0.10218,-0.88099 -1.33955,-4.93952 -3.31897,-9.3457c-1.92459,-4.28345 -3.5657,-8.48901 -3.64669,-9.3457c-0.0972,-1.02803 0.57507,-2.37568 1.97755,-3.96258c2.76259,-3.12707 3.8766,-5.88842 3.85978,-9.56875c-0.02679,-5.87596 -4.35011,-11.45908 -10.49522,-13.55252M265.73557,267.09323c-0.86292,-0.95388 -2.10652,-1.11276 -8.71144,-1.11276c-7.54759,0 -7.71893,0.03115 -8.39244,1.5084c-0.55576,1.22055 -0.38691,2.38191 0.88597,6.07471c1.37506,3.99062 5.06412,15.65094 7.65413,24.19229c0.46791,1.54204 1.72459,5.6797 2.7925,9.19493c1.27102,4.18189 2.34141,6.6043 3.09717,7.00928c1.92459,1.0299 12.8223,0.78192 13.92074,-0.31651c0.51401,-0.51401 1.95886,-4.22924 3.21056,-8.25537c1.2517,-4.02675 3.11835,-9.98433 4.14887,-13.23975c5.32518,-16.82351 6.79806,-22.14059 6.6261,-23.91129l-0.18941,-1.94515l-7.29339,-0.17508c-7.0018,-0.16822 -7.33077,-0.11838 -8.21923,1.24609c-1.36447,2.09531 -3.96819,14.18553 -4.13018,19.17801c-0.08287,2.55823 -0.19065,2.34016 -1.22865,-2.49219c-0.62554,-2.91274 -1.59375,-7.66908 -2.15138,-10.56937c-0.557,-2.90091 -1.46603,-5.7744 -2.01992,-6.38623M310.41987,267.57858c-0.60747,-1.59687 -0.6137,-1.59812 -8.33512,-1.59812c-5.86225,0 -7.90148,0.21059 -8.45101,0.87227c-0.76884,0.92585 -1.04734,44.78336 -0.29719,46.73911c0.31838,0.82803 1.64734,0.98628 8.28715,0.98628c5.3202,0 8.15319,-0.24486 8.65599,-0.74766c0.94329,-0.94329 1.07289,-43.79833 0.14019,-46.25188M226.68362,276.44454c0.15202,-0.24673 0.93893,-0.14642 1.74827,0.22243c1.48784,0.67787 2.22241,2.72147 2.22241,6.18436c0,3.23299 -2.13892,6.23608 -3.73766,5.2473c-0.52274,-0.32274 -0.73333,-10.84475 -0.23302,-11.65409M184.54883,282.17969c0,-5.54449 0.01745,-5.60742 1.53581,-5.60742c1.94079,0 2.82552,1.6193 2.82552,5.17067c0,2.92022 -1.79437,6.04418 -3.47224,6.04418c-0.70404,0 -0.88909,-1.1651 -0.88909,-5.60742" fill="#0095aa" fill-rule="evenodd" stroke-width="1"/><path d="M273.88776,83.92462c15.90078,2.67163 29.25633,11.29563 34.84195,22.52356c3.20807,6.44792 4.30139,10.975 4.67023,19.39672c0.34579,7.90708 -0.52584,13.29326 -3.21491,19.91002c-6.67719,16.43286 -23.80167,25.99297 -48.75657,27.25277c-8.78371,0.44361 -8.37906,1.10822 -8.37906,-13.50036c0,-8.62982 0.19768,-11.88783 0.7715,-12.34141c0.42865,-0.33894 2.89105,-1.12206 5.3714,-1.67221c6.22735,-1.37943 7.23357,-2.18085 8.82982,-6.97582c1.16198,-3.49218 1.30308,-5.1618 1.11492,-12.2907c-0.18878,-7.15009 -0.40136,-8.64852 -1.69666,-11.28214c-1.2218,-2.48409 -1.98589,-3.23139 -4.59521,-4.44633c-1.74952,-0.81494 -4.31398,-1.48724 -5.70213,-1.49036c-1.38753,-0.00374 -2.94165,-0.40009 -3.35286,-0.8113c-1.07974,-1.07974 -1.03715,-23.63101 0.04509,-24.7282c0.93893,-0.95202 13.33231,-0.67322 20.05249,0.45574" data-paper-data="{&quot;noHover&quot;:false,&quot;origItem&quot;:[&quot;Path&quot;,{&quot;applyMatrix&quot;:true,&quot;segments&quot;:[[[547.79622,167.94704],[0,0],[-13.44036,-2.25792]],[[507.72558,167.0212],[1.87786,-1.90404],[-2.16446,2.19438]],[[507.66328,216.45],[-2.15948,-2.15948],[0.82242,0.82242]],[[514.20528,217.95778],[-2.77506,-0.00748],[2.7763,0.00624]],[[525.61452,220.9322],[-3.49904,-1.62988],[5.21864,2.42988]],[[534.95774,229.95392],[-2.4436,-4.96818],[2.59062,5.26724]],[[538.37328,252.4671],[-0.37756,-14.30018],[0.37632,14.2578]],[[536.12658,276.97902],[2.32396,-6.98436],[-3.1925,9.58994]],[[518.3037,291.04618],[12.4547,-2.75886],[-4.9607,1.1003]],[[507.72562,294.2773],[0.8573,-0.67788],[-1.14766,0.90716]],[[506.168,318.94248],[0,-17.25964],[0,29.21716]],[[522.90054,345.9254],[-17.56742,0.88722],[49.9098,-2.5196]],[[620.2865,291.4549],[-13.35438,32.86572],[5.37814,-13.23352]],[[626.70014,251.69704],[0.69158,15.81416],[-0.73768,-16.84344]],[[617.3831,212.96096],[6.41614,12.89584],[-11.17124,-22.45586]],[[547.79624,167.94706],[31.80156,5.34326],[0,0]]],&quot;fillColor&quot;:[0,0,0],&quot;fillRule&quot;:&quot;evenodd&quot;}]}" fill="#ffffff" fill-rule="evenodd" stroke-width="0.5"/><path d="M244.26068,83.50846c1.08472,1.08473 1.08475,131.46277 0.00003,132.54749c-0.97756,0.97756 -41.74496,1.07936 -43.55927,0.10865c-1.17382,-0.62865 -1.21768,-1.78316 -1.21768,-44.53913l0.00028,-43.98443l-2.91836,0.40561c-1.62802,0.17321 -5.19161,0.60542 -7.93302,0.9699c-2.7414,0.36448 -6.79897,0.56076 -9.02448,0.44486l-4.12952,-0.26654l-0.82136,-3.42923c-0.45233,-1.88472 -1.20066,-4.97264 -1.66608,-6.85736c-3.28034,-13.28585 -2.91079,-15.58403 2.4605,-15.58403c2.31338,0 5.43884,-0.67326 14.37582,-3.08383c4.02364,-1.08535 10.71638,-3.91997 13.5637,-5.74737c1.64485,-1.05544 4.47527,-3.55338 6.28272,-5.55087c3.81616,-4.21678 5.33732,-4.92747 10.59397,-4.97669c2.1196,-0.01932 4.97937,-0.2669 6.35007,-0.55039c4.04669,-0.83675 16.78104,-0.7683 17.64271,0.09337" data-paper-data="{&quot;noHover&quot;:false,&quot;origItem&quot;:[&quot;Path&quot;,{&quot;applyMatrix&quot;:true,&quot;segments&quot;:[[[488.47344,167.10468],[0,0],[-1.72334,-1.72334]],[[453.20898,166.92648],[8.09338,-1.6735],[-2.7414,0.56698]],[[440.51752,168.02928],[4.2392,-0.03864],[-10.5133,0.09844]],[[419.34514,177.98432],[7.63232,-8.43356],[-3.61492,3.99498]],[[406.79074,189.08576],[3.2897,-2.11088],[-5.69464,3.6548]],[[379.68944,200.57474],[8.04728,-2.1707],[-17.87396,4.82114]],[[350.96074,206.73044],[4.62676,0],[-10.74258,0]],[[346.05736,237.88278],[-6.56068,-26.5717],[0.93084,3.76944]],[[349.39564,251.58982],[-0.90466,-3.76944],[0,0]],[351.04172,258.44334],[[359.1351,258.86452],[0,0],[4.45104,0.23178]],[[377.19722,257.95986],[-5.4828,0.72896],[5.48282,-0.72896]],[[393.08492,256.00474],[-3.25604,0.34642],[0,0]],[399.00386,255.37546],[[399.00386,343.15778],[0,0],[0,85.51194]],[[401.4138,432.2298],[-2.34764,-1.2573],[3.62862,1.94142]],[[488.47338,432.0242],[-1.95512,1.95512],[2.16944,-2.16944]],[[488.47338,167.10466],[2.16944,2.16946],[0,0]]],&quot;fillColor&quot;:[0,0,0],&quot;fillRule&quot;:&quot;evenodd&quot;}]}" fill="#ffffff" fill-rule="evenodd" stroke-width="0.5"/></g></g></svg>