<svg version="1.1" xmlns="http://www.w3.org/2000/svg" xmlns:xlink="http://www.w3.org/1999/xlink" width="302" height="302" viewBox="0,0,302,302"><g transform="translate(-89,-29)"><g data-paper-data="{&quot;isPaintingLayer&quot;:true}" fill-rule="nonzero" stroke="none" stroke-linecap="butt" stroke-linejoin="miter" stroke-miterlimit="10" stroke-dasharray="" stroke-dashoffset="0" style="mix-blend-mode: normal"><path d="M266.80988,74.75583c32.5,15.8 53.2,31.9 79.6,62c13.2,14.9 19.1,29.7 19.1,48c0.1,20.8 -6.3,32.6 -29.4,55.1c-30.3,29.4 -66.9,50.2 -106.2,60.4c-42,10.9 -63,7.6 -83.6,-13c-10.3,-10.2 -13.9,-16.7 -20.3,-36.5c-9.1,-28 -12.2,-50.8 -11.4,-83.4c0.8,-33.9 7.9,-64.2 19.5,-83.5c8.7,-14.6 26.3,-26.5 43.5,-29.6c18.2,-3.2 59.9,6.3 89.2,20.5zM202.00988,90.75583c-21,4 -47.7,16.7 -47.7,22.8c0,1.1 2.4,6.2 5.4,11.2c3,5.1 5.7,10.3 6.1,11.6c2.2,7.3 7.1,7.6 18.9,1.4c11.8,-6.2 19.6,-8.6 28.1,-8.7c11.9,-0.1 17.3,4.1 16.6,13.2c-0.7,9.4 -4.3,13.2 -40.1,41.9c-35.8,28.7 -37.6,30.6 -40.6,42.2c-3.5,13.8 3.5,26.7 17.4,31.9c5,1.9 7.9,2 56,2c38.8,0 51.3,-0.3 53.2,-1.3c2.5,-1.3 2.5,-1.3 2.8,-17.5c0.2,-15.1 0.1,-16.3 -1.8,-18.2c-1.9,-1.9 -3.2,-2 -34,-2c-17.6,0 -32,-0.4 -32,-0.9c0,-0.5 7.3,-6.6 16.3,-13.7c31.7,-25.1 38.8,-32.8 44.9,-47.9c2.9,-7.2 3.2,-9 3.2,-18c-0.1,-25.5 -12.9,-42.4 -37,-49c-8.5,-2.3 -26.2,-2.8 -35.7,-1z" fill="#895d99" stroke-width="1"/><path d="M89,331v-302h302v302z" fill="none" stroke-width="0"/></g></g></svg>