<svg version="1.1" xmlns="http://www.w3.org/2000/svg" xmlns:xlink="http://www.w3.org/1999/xlink" width="199.98381" height="259.75976" viewBox="0,0,199.98381,259.75976"><g transform="translate(-140.00809,-51.62162)"><g data-paper-data="{&quot;isPaintingLayer&quot;:true}" stroke="none" stroke-linecap="butt" stroke-linejoin="miter" stroke-miterlimit="10" stroke-dasharray="" stroke-dashoffset="0" style="mix-blend-mode: normal"><path d="M233.16514,125.17785c1.50006,-0.35822 12.31025,0.2122 13.43947,0.70936c0.22231,0.09751 1.13174,0.33043 2.02097,0.51737c0.88923,0.18644 1.70772,0.41026 1.81888,0.49767c0.11115,0.0869 0.7705,0.31628 1.46521,0.50979c0.69471,0.19301 1.26311,0.40773 1.26311,0.47644c0,0.06871 0.59113,0.30314 1.31363,0.52141c0.7225,0.21827 1.31363,0.45573 1.31363,0.52848c0,0.07225 0.43198,0.29456 0.95996,0.49413c0.52798,0.19957 1.00544,0.42592 1.06101,0.50272c0.05558,0.0773 0.46482,0.30971 0.90943,0.51737c0.44461,0.20715 0.98472,0.53909 1.19995,0.73715c0.21574,0.19806 0.46331,0.36024 0.55021,0.36024c0.19806,0 1.93811,1.19389 2.42971,1.66731c0.2021,0.19452 0.43754,0.35367 0.52293,0.35367c0.35468,0 2.43275,2.17305 2.67779,2.80006c0.43249,1.10749 0.33043,5.57839 -0.18795,8.21425c-0.48857,2.48277 -0.35973,2.05078 -3.45435,11.58927c-1.23835,3.81711 -2.22054,6.97185 -2.18265,7.01025c0.06215,0.06215 3.24063,-1.7633 12.99536,-7.46295c15.89192,-9.28586 28.27998,-9.85931 41.27685,-1.91184c13.48039,8.24304 13.31316,21.46122 -0.37539,29.65019c-6.36101,3.80499 -13.9528,6.18468 -30.10087,9.4339c-29.03481,5.84263 -56.73679,14.84253 -69.91353,22.71321c-0.94481,0.56385 -1.77189,1.02564 -1.83807,1.02564c-0.06669,0 -0.12631,-2.88746 -0.13238,-6.41659c-0.01111,-6.17811 -0.25818,-13.40561 -0.66187,-19.35081c-1.42024,-20.93829 0.07478,-41.04242 4.25819,-57.24911c0.62044,-2.40395 0.86548,-3.01226 1.3874,-3.44172c0.4335,-0.3567 3.4695,-1.80372 4.13339,-1.97045c0.29304,-0.07377 0.53252,-0.20362 0.53252,-0.289c0,-0.08538 0.63661,-0.32083 1.41468,-0.52242c0.77808,-0.20159 1.41468,-0.42693 1.41468,-0.50019c0,-0.07377 0.90943,-0.30567 2.02097,-0.51636c1.11153,-0.21018 2.02097,-0.44057 2.02097,-0.51181c0,-0.07124 0.93218,-0.23847 2.0715,-0.37186c1.13932,-0.13339 2.20791,-0.27485 2.37464,-0.31476M296.20181,130.69056c0.71341,-0.75028 1.34041,-1.32071 1.39346,-1.26816c0.0869,0.08741 -1.31666,2.04775 -1.93154,2.698c-0.13894,0.14652 -0.25262,0.32841 -0.25312,0.40419c0,0.07528 -0.27283,0.45522 -0.60578,0.84426c-0.33296,0.38903 -0.60578,0.76797 -0.60578,0.84173c-0.00101,0.26526 -1.41468,1.58343 -1.69812,1.58343c-0.15966,0 -0.44663,0.06013 -0.63762,0.13339c-0.70027,0.26879 0.61791,-1.32222 4.33852,-5.23684M296.27002,135.12507c-0.19452,-0.05103 -0.03537,-0.09246 0.35367,-0.09246c0.38903,0 0.54819,0.04143 0.35367,0.09246c-0.19452,0.05053 -0.51282,0.05053 -0.70734,0M302.23442,135.12861c-0.25161,-0.04851 -0.09347,-0.08993 0.35115,-0.09195c0.44461,-0.00253 0.65025,0.03739 0.45724,0.08791c-0.19351,0.05053 -0.55729,0.05255 -0.80839,0.00404M323.80577,191.49203c0.86498,-0.66439 0.94733,-0.27435 0.15157,0.71947c-0.95845,1.19641 -1.11962,1.37477 -2.91526,3.21891c-0.964,0.99078 -1.8305,1.80119 -1.92548,1.80119c-0.09448,0 -0.40015,0.25009 -0.67904,0.55577c-0.63206,0.69319 -1.56322,1.43388 -2.15991,1.71782c-0.25009,0.11924 -0.45472,0.29405 -0.45472,0.38954c0,0.09498 -0.3183,0.32436 -0.70734,0.5103c-0.38903,0.18543 -0.70734,0.40672 -0.70734,0.49211c0,0.08538 -0.34104,0.31375 -0.75786,0.50777c-0.41683,0.19351 -0.82405,0.45876 -0.90489,0.58911c-0.08033,0.13036 -0.42138,0.35115 -0.75786,0.49009c-0.33599,0.13945 -0.61084,0.31274 -0.61084,0.3855c0,0.07276 -0.40824,0.31173 -0.90741,0.53101c-0.49918,0.21978 -0.90842,0.45371 -0.90943,0.5204c-0.00101,0.06669 -0.41127,0.2895 -0.91145,0.49615c-0.50019,0.20614 -0.90943,0.43805 -0.90943,0.51535c0,0.0773 -0.45472,0.30365 -1.01049,0.50373c-0.55577,0.19957 -1.01049,0.42693 -1.01049,0.50524c0,0.07781 -0.45472,0.30517 -1.01049,0.50524c-0.55577,0.19957 -1.01049,0.43148 -1.01049,0.51535c0,0.08336 -0.50019,0.30921 -1.11153,0.50221c-0.61134,0.1925 -1.11153,0.42188 -1.11153,0.50979c0,0.08791 -0.50019,0.30466 -1.11153,0.48251c-0.61134,0.17784 -1.11153,0.39661 -1.11153,0.48605c0,0.08943 -0.59113,0.33195 -1.31363,0.53859c-0.7225,0.20715 -1.31363,0.43754 -1.31363,0.51181c0,0.07427 -0.52293,0.29708 -1.16206,0.49514c-0.63914,0.19806 -1.20753,0.42239 -1.26311,0.49918c-0.05558,0.0768 -0.64671,0.30769 -1.31363,0.51232c-0.66692,0.20513 -1.25805,0.43451 -1.31363,0.50979c-0.05558,0.07528 -0.64671,0.29355 -1.31363,0.48504c-0.66692,0.19099 -1.30353,0.41531 -1.41468,0.49817c-0.11115,0.08336 -0.70229,0.30466 -1.31363,0.4916c-0.61134,0.18745 -1.24795,0.41228 -1.41468,0.49969c-0.16673,0.08741 -0.84881,0.32487 -1.51573,0.52747c-0.66692,0.20311 -1.30353,0.43653 -1.41468,0.51888c-0.11115,0.08235 -0.74776,0.30567 -1.41468,0.49615c-0.66692,0.19099 -1.31464,0.42845 -1.43944,0.52798c-0.12429,0.09902 -0.71543,0.32487 -1.31363,0.5012c-0.5977,0.17633 -1.17772,0.39004 -1.28888,0.47543c-0.11115,0.08488 -0.70229,0.31224 -1.31363,0.50524c-0.61134,0.1925 -1.48137,0.52293 -1.93306,0.73361c-0.45219,0.21119 -0.95238,0.38449 -1.11153,0.38499c-0.15966,0.00101 -0.56284,0.14652 -0.8963,0.32386c-0.33346,0.17734 -1.06101,0.45876 -1.61678,0.62549c-0.55577,0.16723 -1.10143,0.37337 -1.21258,0.45876c-0.11115,0.08538 -0.56588,0.2693 -1.01049,0.40874c-0.44461,0.13945 -1.27523,0.46331 -1.84565,0.71997c-0.57042,0.25666 -1.36618,0.52798 -1.76835,0.60376c-0.40217,0.07528 -0.73109,0.2122 -0.73109,0.30466c0,0.09195 -0.54566,0.32942 -1.21258,0.52747c-0.66692,0.19806 -1.21258,0.41935 -1.21258,0.49211c0,0.07276 -0.59113,0.30163 -1.31363,0.50828c-0.7225,0.20715 -1.31363,0.43855 -1.31363,0.51484c0,0.07629 -0.34104,0.24757 -0.75786,0.38146c-0.41683,0.13339 -1.23785,0.45876 -1.82494,0.723c-0.58659,0.26374 -1.13326,0.47998 -1.2141,0.47998c-0.08084,0 -0.55577,0.21624 -1.05494,0.48049c-0.49918,0.26425 -1.20349,0.54414 -1.56474,0.62246c-0.36125,0.07781 -0.65682,0.21827 -0.65682,0.31173c0,0.09296 -0.47543,0.3274 -1.05646,0.5204c-0.58103,0.19301 -1.17873,0.47341 -1.32778,0.62246c-0.14955,0.14955 -0.3658,0.27182 -0.48049,0.27182c-0.1152,0 -0.63509,0.21422 -1.156,0.47543c-0.5204,0.26172 -1.28382,0.58709 -1.69661,0.723c-0.41228,0.13642 -0.74978,0.31375 -0.74978,0.39409c0,0.08033 -0.45472,0.31022 -1.01049,0.50979c-0.55577,0.20008 -1.01049,0.42744 -1.01049,0.50524c0,0.07831 -0.44967,0.30365 -0.99937,0.5012c-0.5492,0.19755 -1.10244,0.48352 -1.22825,0.6356c-0.12631,0.15208 -0.63156,0.42996 -1.12315,0.6174c-0.4911,0.18795 -0.89327,0.40116 -0.89327,0.47442c0,0.07326 -0.40925,0.30213 -0.90943,0.50828c-0.50019,0.20665 -0.90943,0.43198 -0.90943,0.50171c0,0.06922 -0.40824,0.30567 -0.90741,0.52495c-0.49918,0.21978 -0.90842,0.46634 -0.90943,0.54819c-0.00101,0.08185 -0.32032,0.28142 -0.70936,0.44411c-0.38903,0.16269 -0.70734,0.36883 -0.70734,0.45876c0,0.08943 -0.29557,0.29052 -0.65682,0.44613c-0.36125,0.15561 -0.79323,0.40622 -0.95996,0.55729c-0.51838,0.46886 -2.40496,1.68347 -2.61514,1.68347c-0.11014,0 -0.29759,0.18189 -0.41632,0.40419c-0.11874,0.22231 -0.3279,0.40419 -0.46381,0.40419c-0.13642,0 -0.61084,0.31678 -1.05393,0.7033c-0.4436,0.38701 -0.88418,0.70532 -0.97916,0.70734c-0.09549,0.00253 -0.35216,0.2314 -0.57042,0.50929c-0.21877,0.27789 -0.47341,0.50524 -0.56638,0.50524c-0.33548,0 -5.82242,5.32779 -7.1785,6.97034c-0.33346,0.40369 -0.69723,0.84274 -0.80839,0.97461c-0.11115,0.13238 -0.53303,0.64974 -0.93723,1.14994c-0.4047,0.49969 -0.90489,1.10648 -1.11153,1.34849c-0.20715,0.2415 -0.60376,0.73664 -0.88165,1.09991c-0.27789,0.36378 -0.75534,0.90741 -1.06101,1.20803c-0.30567,0.30112 -0.55577,0.64217 -0.55577,0.75786c0,0.1157 -0.16067,0.32942 -0.35721,0.47442c-0.19654,0.14551 -0.53,0.53707 -0.7417,0.87054c-0.2117,0.33346 -0.55071,0.72503 -0.75433,0.87054c-0.20362,0.14501 -0.36984,0.35872 -0.36984,0.47442c0,0.1157 -0.25009,0.45674 -0.55577,0.75786c-0.30567,0.30062 -0.78313,0.85083 -1.06101,1.22168c-0.27789,0.37135 -0.84628,1.03676 -1.26311,1.47885c-0.41683,0.44158 -0.76089,0.86043 -0.76443,0.93016c-0.01566,0.289 -0.78768,1.03676 -1.07112,1.03676c-0.26475,0 -0.31072,-0.78717 -0.34357,-5.91134c-0.05406,-8.48202 -0.31224,-18.15945 -0.49918,-18.71775c-0.30163,-0.90085 6.70609,-7.34876 11.72214,-10.78644c5.72138,-3.92068 13.58902,-7.77822 22.2307,-10.90011c2.6692,-0.96451 3.86107,-1.36567 7.98284,-2.6879c6.72276,-2.15637 21.31318,-6.01644 33.245,-8.79629c19.17196,-4.46635 23.91619,-5.78605 31.22757,-8.68867c3.88078,-1.54049 9.88104,-4.61035 11.61706,-5.94318" fill="#fbcc04" fill-rule="evenodd" stroke-width="1"/><path d="M234.17563,79.00367c1.43236,-0.21018 12.97212,-0.06871 14.95519,0.1834c0.83365,0.1061 3.0163,0.37944 4.85034,0.6078c1.83403,0.22786 3.51649,0.49969 3.7388,0.60376c0.22231,0.10357 1.47278,0.34761 2.77884,0.54162c1.30606,0.19402 2.37464,0.4138 2.37464,0.48857c0,0.07427 0.90943,0.30213 2.02097,0.50625c1.11153,0.20412 2.02097,0.43148 2.02097,0.50625c0,0.07427 0.75028,0.30365 1.66731,0.5103c0.91702,0.20614 1.71277,0.43502 1.76835,0.50878c0.05558,0.07377 0.60124,0.24807 1.21258,0.38802c0.61134,0.13995 1.29343,0.36731 1.51573,0.50575c0.22231,0.13844 0.94986,0.40975 1.61678,0.60275c0.66692,0.19301 1.30353,0.42138 1.41468,0.50727c0.11115,0.08589 0.70229,0.31678 1.31363,0.51282c0.61134,0.19604 1.2045,0.42946 1.31869,0.51888c0.11368,0.08943 0.65934,0.31527 1.21258,0.50221c0.55274,0.18694 1.0509,0.40672 1.10648,0.48857c0.05558,0.08185 0.5785,0.30567 1.16206,0.49767c0.58356,0.192 1.06101,0.42037 1.06101,0.50727c0,0.08741 0.50019,0.31577 1.11153,0.50777c0.61134,0.1925 1.11153,0.4138 1.11153,0.4916c0,0.07831 0.40925,0.31072 0.90943,0.51686c0.50019,0.20665 0.90943,0.43451 0.90943,0.50676c0,0.07276 0.45472,0.29557 1.01049,0.49514c0.55577,0.20008 1.01049,0.44108 1.01049,0.53555c0,0.09498 0.38651,0.36175 0.85892,0.59315c1.51573,0.74271 2.19882,1.13326 2.33877,1.33889c0.07528,0.11014 0.47796,0.35923 0.89478,0.55324c0.41683,0.19351 0.75786,0.41834 0.75786,0.49918c0,0.08033 0.3183,0.31779 0.70734,0.52747c0.38903,0.20968 0.70734,0.45169 0.70734,0.53758c0,0.08639 0.15915,0.20766 0.35367,0.27031c0.19452,0.06265 0.67197,0.38701 1.06101,0.72048c0.38903,0.33397 0.76241,0.6073 0.82961,0.6073c0.06669,0.00051 0.35064,0.20513 0.63055,0.45522c0.80132,0.71644 1.29848,1.10699 1.91184,1.50107c0.31274,0.20159 0.73462,0.57143 0.93723,0.82203c0.2026,0.2506 0.44865,0.45573 0.54667,0.45573c0.09801,0 0.39409,0.20463 0.65833,0.45472c0.26425,0.25009 0.77808,0.68208 1.14185,0.95996c0.36378,0.27789 0.76595,0.60225 0.89327,0.72098c0.12732,0.11823 0.50423,0.38954 0.83769,0.60275c0.33346,0.21271 0.72503,0.54768 0.87054,0.74422c0.14501,0.19654 0.36226,0.35721 0.482,0.35721c0.11975,0 0.42491,0.20463 0.67803,0.45472c0.67551,0.66743 2.939,2.31654 4.68916,3.41645c0.36125,0.22685 0.65682,0.5305 0.65682,0.6745c0,0.14349 0.13642,0.31375 0.30314,0.37792c0.3956,0.15157 0.42491,2.05634 0.03537,2.29128c-0.32184,0.19452 -0.62195,0.86397 -0.5583,1.24593c0.02526,0.15208 -0.36277,0.69774 -0.86195,1.21258c-0.49969,0.51535 -1.51573,1.6188 -2.25793,2.45245c-0.7422,0.83365 -1.77239,1.98106 -2.28926,2.54946c-0.51636,0.5684 -1.53038,1.69459 -2.25288,2.50297c-0.7225,0.80839 -1.74107,1.93457 -2.264,2.50297c-0.52242,0.5684 -1.28433,1.3975 -1.69256,1.84212c-0.40874,0.44461 -1.19995,1.33131 -1.75825,1.97045c-0.5583,0.63914 -1.15297,1.16206 -1.32172,1.16206c-0.16824,0 -0.26121,0.04497 -0.20614,0.10003c0.05457,0.05507 -0.54465,0.75988 -1.33283,1.56625c-0.78768,0.80637 -1.79866,1.87546 -2.24581,2.37565c-0.44714,0.50019 -1.21006,1.34344 -1.69459,1.87344c-1.02969,1.12618 -0.99381,1.27574 0.2117,0.88266c2.63737,-0.85993 14.62073,-0.7124 16.75033,0.20564c0.40318,0.1738 0.45421,0.18694 2.32412,0.58305c0.88923,0.18846 1.67034,0.42794 1.73652,0.53151c0.06568,0.10408 0.2021,0.16976 0.30314,0.14602c0.10054,-0.02425 0.4239,0.05608 0.71745,0.17784c0.29405,0.12177 0.86245,0.28344 1.26311,0.35822c0.40116,0.07528 0.72907,0.20362 0.72907,0.28445c0,0.08134 0.38651,0.26323 0.85892,0.40419c0.4724,0.14096 1.49552,0.55779 2.2736,0.92662c0.77808,0.36883 1.49552,0.66894 1.59405,0.66793c0.09902,-0.00152 0.23544,0.08589 0.30314,0.19402c0.06821,0.10812 0.44209,0.34104 0.83112,0.51787c0.94076,0.42693 2.52217,1.32828 3.61552,2.06038c0.48756,0.32689 1.10749,0.71543 1.37679,0.86397c0.2698,0.14854 0.5396,0.39863 0.59972,0.55577c0.06063,0.15713 0.19856,0.28597 0.30668,0.28597c0.43956,0 3.70747,2.89453 5.31768,4.70988c0.95996,1.08223 1.28433,1.53341 1.44399,2.00985c0.06568,0.19452 0.20058,0.35367 0.30062,0.35367c0.10003,0 0.33346,0.3183 0.51939,0.70734c0.18543,0.38903 0.40116,0.70734 0.47998,0.70734c0.07831,0 0.29708,0.386 0.48605,0.85841c0.18896,0.47189 0.40571,0.90388 0.482,0.95996c0.07629,0.05558 0.30567,0.5108 0.50878,1.01099c0.20362,0.50019 0.48807,1.1368 0.63206,1.41468c0.14399,0.27789 0.3759,1.09638 0.51585,1.81888c0.13945,0.7225 0.32234,1.35961 0.40622,1.41619c0.63257,0.42441 0.70583,8.33954 0.09397,10.1569c-0.15814,0.47088 -0.43704,1.51523 -0.61892,2.32109c-0.18189,0.80586 -0.39813,1.46521 -0.47998,1.46521c-0.08185,0 -0.30668,0.47745 -0.49969,1.06101c-0.1925,0.58356 -0.61488,1.5612 -0.93824,2.17255c-0.32335,0.61134 -0.76999,1.49804 -0.9928,1.97045c-0.22281,0.4724 -0.47796,0.85892 -0.56638,0.85892c-0.08892,0 -0.31931,0.36378 -0.51181,0.80839c-0.19301,0.44461 -0.42693,0.80839 -0.5209,0.80839c-0.09347,0 -0.26879,0.21675 -0.38954,0.4815c-0.47948,1.05242 -6.12759,6.794 -6.68336,6.794c-0.12177,0 -0.31881,0.18189 -0.43754,0.40419c-0.11874,0.22231 -0.32689,0.40773 -0.46179,0.41228c-0.1349,0.00455 -0.55577,0.27384 -0.93521,0.59821c-0.37944,0.32436 -0.76493,0.54313 -0.8574,0.48605c-0.09195,-0.05709 -0.55476,0.15713 -1.02817,0.47594c-4.71038,3.17293 -12.62502,6.58484 -20.96911,9.03981c-4.91097,1.445 -7.59986,2.11445 -21.52336,5.3576c-11.93182,2.77985 -26.52224,6.6399 -33.245,8.79629c-4.12177,1.32222 -5.31364,1.72338 -7.98284,2.6879c-16.36584,5.91235 -23.63123,10.60202 -35.91521,23.18157c-3.55438,3.64078 -7.43566,7.26489 -7.85249,7.33411c-0.40318,0.06669 -0.53101,-0.33093 -0.21978,-0.68107c0.09397,-0.10559 0.33548,-2.19276 0.53657,-4.63813c0.20159,-2.44537 0.42441,-4.49161 0.49615,-4.54719c0.07174,-0.05558 0.29102,-2.01086 0.48706,-4.34509c0.19654,-2.33423 0.43552,-4.42593 0.53151,-4.64824c0.5876,-1.36062 0.96653,-21.13937 0.58861,-30.71879c-0.23039,-5.8401 -0.51888,-11.07392 -0.66793,-12.12584c-0.7033,-4.95593 -0.61387,-35.3645 0.10458,-35.63632c0.09801,-0.03739 0.17784,-0.40116 0.17734,-0.80839c-0.00101,-1.20551 0.66035,-7.19972 0.80637,-7.30935c0.07427,-0.05558 0.29304,-1.23633 0.48706,-2.62373c0.19402,-1.3874 0.42744,-2.61514 0.51939,-2.72831c0.09195,-0.11318 0.31982,-1.11507 0.50727,-2.2266c0.18694,-1.11153 0.4239,-2.05129 0.52596,-2.08817c0.10256,-0.03739 0.18694,-0.26475 0.18795,-0.50524c0.00253,-0.46432 0.47745,-2.18568 0.7902,-2.86321c0.10307,-0.22231 0.34862,-0.85892 0.54566,-1.41468c0.19755,-0.55577 0.4143,-1.05595 0.482,-1.11153c0.0677,-0.05558 0.24656,-0.41935 0.39762,-0.80839c0.15056,-0.38903 0.39207,-0.84729 0.53657,-1.01807c0.14399,-0.17077 0.40318,-0.64823 0.57547,-1.06101c0.17228,-0.41279 0.39712,-0.75028 0.49918,-0.75028c0.10256,0 0.24352,-0.18189 0.31426,-0.40419c0.20715,-0.65278 1.46622,-2.46559 2.47569,-3.565c0.25009,-0.27233 0.45472,-0.56689 0.45472,-0.6548c0,-0.08791 0.25009,-0.40521 0.55577,-0.70532c0.30567,-0.30011 1.14691,-1.20904 1.8694,-2.01996c0.7225,-0.81092 1.54907,-1.62284 1.83706,-1.80422c0.28799,-0.18138 0.88872,-0.6745 1.33485,-1.09537c1.30959,-1.23583 3.89391,-3.08956 4.3072,-3.08956c0.11722,0 0.26121,-0.1248 0.31982,-0.27738c0.05861,-0.15258 0.5103,-0.44411 1.00392,-0.64772c0.49413,-0.20362 0.89782,-0.4335 0.89782,-0.5108c0,-0.0773 0.45472,-0.30365 1.01049,-0.50373c0.55577,-0.19957 1.01049,-0.42895 1.01049,-0.50929c0,-0.08033 0.47745,-0.30314 1.06101,-0.49514c0.58356,-0.192 1.10648,-0.40824 1.16206,-0.48099c0.1253,-0.16319 2.16648,-0.819 2.54946,-0.819c0.1541,0 0.27991,-0.0773 0.27991,-0.17178c0,-0.09448 0.70482,-0.3279 1.56625,-0.51838c0.86144,-0.18997 1.72338,-0.43097 1.91588,-0.53454c0.1925,-0.10357 1.55665,-0.33346 3.03146,-0.5108c1.4748,-0.17784 2.83998,-0.40521 3.03297,-0.50625c0.44562,-0.23292 9.24848,-0.24302 9.24848,-0.01061c0,0.09549 0.75028,0.23443 1.66731,0.30921c2.01642,0.16471 4.25718,0.53202 4.39562,0.72098c0.05558,0.07579 0.8968,0.30213 1.8694,0.50373c0.97259,0.20109 1.76835,0.42794 1.76835,0.50373c0,0.07629 0.47745,0.25666 1.06101,0.40116c0.58356,0.14399 1.2429,0.37337 1.46521,0.50929c0.22231,0.13541 0.88165,0.41632 1.46521,0.62397c0.58356,0.20715 1.06101,0.44057 1.06101,0.51888c0,0.07781 0.45472,0.30517 1.01049,0.50524c0.55577,0.19957 1.01049,0.42946 1.01049,0.50979c0,0.08033 0.30921,0.24858 0.68662,0.37287c0.37742,0.1248 0.89175,0.4047 1.14236,0.62195c0.2506,0.21776 0.56133,0.3956 0.69016,0.3956c0.12884,0 0.41026,0.16218 0.626,0.36024c0.21523,0.19806 0.7326,0.5209 1.14943,0.71694c0.41683,0.19604 0.75786,0.42845 0.75786,0.51686c0,0.08791 0.20463,0.25717 0.45472,0.3764c0.49059,0.23342 0.91095,0.5583 2.94304,2.2736c2.16294,1.82545 4.02426,3.84995 5.29495,5.75977c0.4436,0.66692 0.94127,1.38841 1.10598,1.60314c0.1642,0.21473 0.39863,0.69218 0.5204,1.06101c0.12177,0.36883 0.28748,0.67046 0.36782,0.67046c0.08033,0 0.31022,0.45472 0.50979,1.01049c0.20008,0.55577 0.44512,1.01049 0.54515,1.01049c0.10003,0 0.18189,0.12581 0.18189,0.27991c0,0.34559 0.57648,2.29128 0.85538,2.88645c0.11318,0.241 0.3082,1.01251 0.434,1.7153l0.22837,1.27675l1.75421,-1.81585c0.96451,-0.99887 2.6788,-2.77126 3.80954,-3.93837c1.13073,-1.16711 2.28117,-2.39486 2.55653,-2.72831c0.27536,-0.33346 1.47076,-1.61425 2.65606,-2.84553c1.96035,-2.03613 5.33992,-5.58799 8.2198,-8.63713c1.32929,-1.4071 1.32525,-1.37932 0.28041,-2.09524c-0.45674,-0.31274 -1.01908,-0.77353 -1.24947,-1.02362c-0.22988,-0.25009 -0.48908,-0.45472 -0.57497,-0.45472c-0.08589,0 -0.37944,-0.20463 -0.65177,-0.45472c-0.27233,-0.25009 -0.75382,-0.65278 -1.07011,-0.89478c-0.31628,-0.24251 -0.98421,-0.76847 -1.4844,-1.16913c-0.50019,-0.40116 -1.11962,-0.88468 -1.37679,-1.07567c-0.25717,-0.19048 -0.64368,-0.50575 -0.85892,-0.70027c-0.21523,-0.19452 -0.44764,-0.35367 -0.51585,-0.35367c-0.06871,0 -0.5583,-0.3183 -1.0883,-0.70734c-0.53,-0.38903 -1.0605,-0.70734 -1.17924,-0.70734c-0.11823,0 -0.28799,-0.11368 -0.37691,-0.25262c-0.08892,-0.13894 -0.57093,-0.45926 -1.07112,-0.71189c-0.50019,-0.25262 -1.72793,-0.89529 -2.72831,-1.42731c-5.15449,-2.74347 -9.57638,-4.88368 -10.0892,-4.88368c-0.17532,0 -0.31881,-0.0768 -0.31881,-0.17026c0,-0.09347 -0.54566,-0.33498 -1.21258,-0.53707c-0.66692,-0.2021 -1.21258,-0.42996 -1.21258,-0.50727c0,-0.0768 -0.59113,-0.30011 -1.31363,-0.49565c-0.7225,-0.19553 -1.31363,-0.42138 -1.31363,-0.50221c0,-0.08084 -0.72755,-0.31274 -1.61678,-0.51585c-0.88923,-0.20311 -1.61678,-0.42794 -1.61678,-0.49969c0,-0.07174 -0.84123,-0.29759 -1.8694,-0.50221c-1.02817,-0.20412 -1.96186,-0.44259 -2.07503,-0.52949c-0.11318,-0.0869 -1.34091,-0.30921 -2.72831,-0.49413c-1.3874,-0.18492 -2.70457,-0.4138 -2.92688,-0.50828c-1.75117,-0.74422 -19.67872,-0.74877 -21.42231,-0.00556c-0.22231,0.09498 -1.6668,0.32537 -3.21032,0.51232c-1.54301,0.18694 -2.95264,0.41834 -3.13251,0.51484c-0.17936,0.0965 -1.23381,0.32891 -2.34281,0.51686c-1.10901,0.18795 -2.15486,0.41683 -2.32412,0.50878c-0.16925,0.09145 -0.98724,0.31224 -1.81787,0.49059c-0.83062,0.17835 -1.60364,0.39712 -1.71782,0.48605c-0.11419,0.08943 -0.88973,0.32487 -1.72338,0.52343c-0.83365,0.19907 -1.5612,0.42239 -1.61678,0.49716c-0.05558,0.07427 -0.68763,0.29759 -1.40458,0.49615c-0.71694,0.19856 -1.48996,0.47594 -1.71782,0.6169c-0.22786,0.14046 -0.84628,0.37792 -1.37426,0.52747c-0.52798,0.14955 -0.95996,0.32841 -0.95996,0.39712c0,0.06922 -0.38651,0.24656 -0.85892,0.39409c-0.4724,0.14753 -1.13174,0.42592 -1.46521,0.61892c-0.33346,0.19301 -0.9928,0.46533 -1.46521,0.60477c-0.4724,0.13945 -0.85892,0.32083 -0.85892,0.40318c0,0.08235 -0.45472,0.31325 -1.01049,0.51333c-0.55577,0.19957 -1.01049,0.4239 -1.01049,0.49817c0,0.07377 -0.43198,0.29759 -0.95996,0.49716c-0.52798,0.19957 -1.00544,0.42946 -1.06101,0.5108c-0.05558,0.08185 -0.81344,0.53 -1.68448,0.99634c-1.54604,0.82809 -2.66263,1.51422 -3.4594,2.12606c-0.21726,0.16673 -0.47796,0.30314 -0.57952,0.30314c-0.10155,0 -0.61791,0.3183 -1.14792,0.70734c-0.53,0.38903 -1.05545,0.70734 -1.16762,0.70734c-0.11216,0 -0.25616,0.13642 -0.32032,0.30314c-0.06366,0.16673 -0.23292,0.30314 -0.37489,0.30365c-0.14248,0 -0.57749,0.27283 -0.96653,0.60578c-0.38903,0.33296 -0.76241,0.60578 -0.82961,0.60578c-0.06669,0.00051 -0.3562,0.20513 -0.64267,0.45522c-0.28597,0.25009 -0.95845,0.77302 -1.49451,1.16206c-0.53555,0.38903 -1.20045,0.91196 -1.47733,1.16206c-0.27688,0.25009 -0.56234,0.45472 -0.63408,0.45472c-0.07225,0 -0.54111,0.38651 -1.04181,0.85892c-0.5007,0.4724 -1.39296,1.26816 -1.98308,1.76835c-1.24896,1.05949 -7.12292,6.94204 -8.50628,8.51992c-1.81837,2.07301 -4.0278,4.73311 -4.9721,5.98511c-0.19048,0.25312 -0.50322,0.66237 -0.69521,0.90943c-0.192,0.24757 -0.71038,0.95036 -1.15246,1.5617c-0.44209,0.61134 -0.88064,1.20248 -0.97461,1.31363c-0.09397,0.11115 -0.34559,0.49767 -0.5583,0.85892c-0.21321,0.36125 -0.43805,0.65682 -0.49969,0.65682c-0.06215,0 -0.29153,0.34104 -0.5103,0.75786c-0.21877,0.41683 -0.51232,0.83062 -0.65227,0.91954c-0.13995,0.08892 -0.25464,0.27637 -0.25464,0.41632c0,0.14046 -0.17228,0.44007 -0.38247,0.66591c-0.21069,0.22584 -0.53859,0.71189 -0.72907,1.08021c-0.19048,0.36832 -0.43451,0.76898 -0.54212,0.89024c-0.29153,0.32992 -1.12164,1.74057 -1.49754,2.54542c-0.18138,0.38903 -0.39813,0.75281 -0.48099,0.80839c-0.08336,0.05558 -0.31123,0.41935 -0.50676,0.80839c-0.19604,0.38903 -0.47038,0.84376 -0.60983,1.01049c-0.13945,0.16673 -0.37438,0.64419 -0.52141,1.06101c-0.14703,0.41683 -0.3279,0.75786 -0.40167,0.75786c-0.07377,0 -0.29708,0.43198 -0.49666,0.95996c-0.19957,0.52798 -0.42037,1.00544 -0.4911,1.06101c-0.27283,0.21422 -2.54845,5.1358 -2.75458,5.95631c-0.07073,0.28092 -0.19452,0.5108 -0.27587,0.5108c-0.08134,0 -0.26778,0.38651 -0.4143,0.85892c-0.14652,0.4724 -0.37893,1.04535 -0.51585,1.27321c-0.13743,0.22786 -0.40773,0.97815 -0.60124,1.66731c-0.19301,0.68915 -0.41582,1.253 -0.49464,1.253c-0.07882,0 -0.25717,0.52293 -0.39661,1.16206c-0.13945,0.63914 -0.36883,1.34495 -0.5103,1.56777c-0.14096,0.22332 -0.41127,1.08526 -0.59972,1.91487c-0.18896,0.82961 -0.41329,1.60162 -0.49868,1.7158c-0.08538,0.11419 -0.32436,0.98067 -0.53151,1.92548c-0.20665,0.94481 -0.43148,1.7633 -0.49969,1.81888c-0.06821,0.05558 -0.29001,1.19237 -0.49262,2.52621c-0.20311,1.33384 -0.43956,2.51611 -0.52545,2.62727c-0.22584,0.29203 -0.80132,6.74399 -0.80132,8.98171c0,1.04636 -0.10812,2.20185 -0.23999,2.56664c-0.17885,0.49413 -0.18239,0.78263 -0.01465,1.12618c0.12783,0.26172 0.2693,2.08008 0.32689,4.20059c0.1066,3.951 0.49767,8.72252 0.72856,8.89228c0.07528,0.05558 0.2991,1.28332 0.49716,2.72831c0.19806,1.445 0.42491,2.67273 0.50373,2.72831c0.07882,0.05558 0.33548,1.01049 0.56992,2.12202c0.5588,2.64545 1.29494,5.43036 1.46975,5.55768c0.07629,0.05558 0.2991,0.76039 0.49464,1.56625c0.19553,0.80586 0.41935,1.46521 0.49716,1.46521c0.07781,0 0.30668,0.63661 0.50828,1.41468c0.20159,0.77808 0.43451,1.41468 0.51737,1.41468c0.08286,0 0.30314,0.54263 0.48908,1.20601c0.18644,0.66338 0.41885,1.25553 0.51636,1.31616c0.09801,0.06013 0.32891,0.56335 0.51333,1.1181c0.18391,0.55425 0.39965,1.00796 0.47847,1.00796c0.07932,0 0.31881,0.52293 0.53202,1.16206c0.21321,0.63914 0.44865,1.20753 0.52343,1.26311c0.11419,0.08538 1.41114,2.48277 2.56967,4.74929c0.17026,0.33346 0.37287,0.65177 0.45017,0.70734c0.0773,0.05558 0.33649,0.46482 0.57699,0.90943c0.67197,1.24441 1.26513,2.21246 1.42377,2.32412c0.07932,0.05558 0.31931,0.41935 0.53303,0.80839c0.21422,0.38903 0.50272,0.7801 0.64166,0.86902c0.13894,0.08892 0.25262,0.27637 0.25262,0.41632c0,0.14046 0.15915,0.43198 0.35367,0.64772c0.29708,0.32992 1.83454,2.33372 2.31502,3.01731c0.23494,0.33397 1.24088,1.53341 1.7158,2.04523c0.24403,0.26273 0.51686,0.60882 0.60629,0.76847c1.19035,2.12253 10.23673,10.55302 14.11447,13.153c0.66288,0.44461 1.27826,0.92207 1.36719,1.06101c0.08892,0.13894 0.23898,0.25262 0.33346,0.25262c0.20968,0 2.21145,1.29393 2.65455,1.7158c0.17582,0.16774 0.38701,0.30517 0.46836,0.30517c0.08185,0 0.54566,0.27283 1.03019,0.60629c0.48453,0.33346 0.97209,0.60629 1.08274,0.60629c0.11115,0 0.32234,0.11722 0.46886,0.2602c0.14703,0.14349 0.63105,0.42946 1.07567,0.6361c0.44461,0.20665 0.85386,0.43704 0.90943,0.51181c0.05558,0.07427 0.50979,0.29658 1.00998,0.49363c0.49969,0.19705 0.9544,0.4234 1.01049,0.50322c0.1445,0.20665 3.08704,1.59253 3.71758,1.75067c0.29001,0.07276 0.52697,0.20109 0.52697,0.28496c0,0.08387 0.50019,0.30971 1.11103,0.50171c0.61134,0.1925 1.156,0.42188 1.21056,0.50979c0.05457,0.08842 0.69117,0.32083 1.41468,0.51686c0.72402,0.19553 1.31616,0.41986 1.31616,0.49817c0,0.07831 0.61387,0.30668 1.36416,0.50777c0.75028,0.20058 1.40963,0.42845 1.46521,0.50625c0.05558,0.0773 0.8286,0.30011 1.71782,0.49514c0.88923,0.19452 1.7158,0.434 1.83706,0.53151c0.12076,0.09801 0.93925,0.32032 1.81888,0.49413c0.87912,0.1738 1.78047,0.39762 2.00278,0.49716c0.22231,0.10003 1.40458,0.33043 2.62727,0.51282c1.22269,0.18189 2.40496,0.41077 2.62727,0.50878c0.22231,0.09801 1.85929,0.31476 3.63775,0.482c1.77845,0.16723 3.73375,0.36226 4.34509,0.43299c1.52079,0.17683 11.56047,0.18239 12.93423,0.00707c0.61134,-0.07781 2.6116,-0.28142 4.44462,-0.45219c1.83353,-0.17127 3.42505,-0.38045 3.5367,-0.46482c0.11216,-0.08437 1.34041,-0.31931 2.72983,-0.52192c1.38942,-0.2026 2.61716,-0.43603 2.72831,-0.51787c0.11115,-0.08235 1.01958,-0.30213 2.01895,-0.48807c0.99937,-0.18644 1.90881,-0.41026 2.02097,-0.49767c0.11216,-0.08741 0.8862,-0.32184 1.71984,-0.5204c0.83365,-0.19907 1.5612,-0.42441 1.61678,-0.5007c0.05558,-0.07629 0.73765,-0.30719 1.51573,-0.51282c0.77808,-0.20513 1.46015,-0.42996 1.51573,-0.49918c0.05558,-0.06972 0.64671,-0.29405 1.31363,-0.49918c0.66692,-0.20513 1.39447,-0.48099 1.61678,-0.61235c0.22231,-0.13187 0.79071,-0.35923 1.26311,-0.50575c0.4724,-0.14652 0.85892,-0.34256 0.85892,-0.43603c0,-0.09347 0.14349,-0.16976 0.31881,-0.16976c0.60023,0 9.4248,-4.34459 9.78454,-4.81699c0.05659,-0.07377 0.46634,-0.31628 0.91095,-0.53859c0.83718,-0.41834 2.04422,-1.15802 2.46407,-1.51017c0.13288,-0.11115 0.61033,-0.39459 1.06101,-0.62954c0.45118,-0.23494 0.82001,-0.50929 0.82001,-0.60882c0,-0.10003 0.11368,-0.18189 0.25262,-0.18239c0.13894,0 0.57093,-0.27283 0.95996,-0.60578c0.38903,-0.33296 0.76291,-0.60578 0.83112,-0.60578c0.10964,-0.00051 0.41632,-0.22079 2.09929,-1.50815c0.22231,-0.17026 0.85488,-0.65075 1.40609,-1.06809c0.55071,-0.41733 1.15903,-0.89529 1.35152,-1.06202c0.1925,-0.16673 0.68359,-0.57598 1.09082,-0.90943c2.31199,-1.89315 6.7743,-6.24077 8.88773,-8.65886c0.66439,-0.76039 1.48137,-1.67589 1.81484,-2.03361c0.33346,-0.35771 1.01554,-1.13578 1.51573,-1.72894c0.50019,-0.59315 1.12467,-1.31515 1.3879,-1.60415c0.26323,-0.289 0.80889,-0.93117 1.21258,-1.4268c0.40369,-0.49565 0.87054,-1.06809 1.03726,-1.2722c0.16673,-0.20463 0.55324,-0.61488 0.85892,-0.91247c0.30567,-0.29759 0.55577,-0.62347 0.55577,-0.72503c0,-0.10155 0.20463,-0.37944 0.45472,-0.61841c0.25009,-0.23847 0.68208,-0.74372 0.95996,-1.12366c0.27789,-0.37944 0.75534,-0.97966 1.06101,-1.33384c0.30567,-0.35418 0.55577,-0.74271 0.55577,-0.86296c0,-0.12025 0.18189,-0.31628 0.40419,-0.43502c0.22231,-0.11874 0.40419,-0.34458 0.40419,-0.5007c0,-0.15662 0.16521,-0.40369 0.36681,-0.54869c0.2021,-0.14551 0.42794,-0.40066 0.50221,-0.56739c0.07377,-0.16673 0.54515,-0.84881 1.04737,-1.51573c0.50221,-0.66692 0.97461,-1.349 1.0509,-1.51573c0.1253,-0.27637 1.26412,-2.04118 1.62991,-2.52621c0.08336,-0.11115 0.33397,-0.56588 0.55628,-1.01049c0.22231,-0.44461 0.46482,-0.85437 0.53909,-0.91095c0.07377,-0.05659 0.51838,-0.82961 0.98724,-1.71782c0.46937,-0.88822 0.91398,-1.66074 0.98825,-1.71631c0.07478,-0.05558 0.25767,-0.41935 0.40672,-0.80839c0.25616,-0.66793 0.98876,-2.31553 1.84868,-4.15613c0.21069,-0.45219 0.38348,-0.96855 0.38348,-1.14792c0,-0.17936 0.11823,-0.44613 0.26222,-0.59265c0.14399,-0.14703 0.43148,-0.81294 0.63813,-1.47986c0.20715,-0.66692 0.48908,-1.39447 0.62751,-1.61678c0.13844,-0.22231 0.31628,-0.7225 0.3951,-1.11153c0.07932,-0.38903 0.30517,-1.07112 0.50272,-1.51573c0.19755,-0.44461 0.47493,-1.33131 0.61589,-1.97045c0.14096,-0.63914 0.32285,-1.16206 0.4047,-1.16206c0.08134,0 0.30668,-0.65934 0.5007,-1.46521c0.19351,-0.80586 0.42087,-1.55615 0.50423,-1.66731c0.08387,-0.11115 0.31123,-0.86144 0.50524,-1.66731c0.35418,-1.47076 0.80738,-1.90931 1.24795,-1.20753c0.08892,0.14147 0.39409,0.4047 0.67803,0.58457c0.56133,0.3567 3.02034,2.77985 3.02034,2.97689c0.00051,0.0672 0.23847,0.39459 0.52899,0.72806c0.29052,0.33346 0.61791,0.85639 0.72705,1.16206c0.10913,0.30567 0.26526,0.55577 0.34761,0.55577c0.08235,0 0.32335,0.52293 0.53505,1.16206c0.2122,0.63914 0.45926,1.21612 0.5497,1.28231c0.90943,0.66591 0.87508,11.63373 -0.0384,12.30873c-0.07528,0.05558 -0.25919,0.60124 -0.40824,1.21258c-0.14905,0.61134 -0.43047,1.47531 -0.62499,1.91992c-0.19402,0.44461 -0.4628,1.14943 -0.59669,1.56625c-0.13339,0.41683 -0.30719,0.75786 -0.3855,0.75786c-0.07831,0 -0.26425,0.4143 -0.4138,0.92055c-0.14955,0.50625 -0.38095,1.02918 -0.51383,1.16206c-0.13238,0.13288 -0.40622,0.67349 -0.6078,1.20146c-0.20159,0.52798 -0.42643,0.95996 -0.49969,0.95996c-0.07326,0 -0.30213,0.40925 -0.50828,0.90943c-0.20665,0.50019 -0.43855,0.90943 -0.51636,0.90943c-0.0773,0 -0.30466,0.36378 -0.50524,0.80839c-0.20058,0.44461 -0.43552,0.80839 -0.52242,0.80839c-0.0869,0 -0.21978,0.20463 -0.29557,0.45472c-0.07579,0.25009 -0.2986,0.63661 -0.49514,0.85892c-0.19654,0.22231 -0.50828,0.67702 -0.69269,1.01049c-0.32184,0.58154 -1.13376,1.7931 -1.49299,2.22812c-0.09448,0.11419 -0.34609,0.47796 -0.55931,0.80839c-0.21321,0.33043 -0.49767,0.73765 -0.63206,0.90438c-0.1344,0.16673 -0.51787,0.66692 -0.85285,1.11153c-1.34445,1.78553 -2.77328,3.56702 -3.2477,4.04902c-0.22281,0.22635 -0.4047,0.47745 -0.4047,0.5583c0,0.13743 -0.58861,0.82203 -2.17255,2.52823c-0.36125,0.38903 -0.65682,0.76595 -0.65682,0.83769c0,0.07225 -0.47745,0.63358 -1.06101,1.24745c-0.58356,0.61387 -1.74309,1.87041 -2.57674,2.79248c-1.37123,1.51674 -9.53798,9.73502 -10.58181,10.64901c-0.23645,0.20715 -1.11305,0.94531 -1.94721,1.63951c-0.83415,0.69471 -1.70166,1.445 -1.92801,1.66731c-0.22635,0.22281 -0.48857,0.4047 -0.58305,0.4047c-0.09448,0 -0.38499,0.20463 -0.64469,0.45472c-0.82152,0.7897 -1.21612,1.09537 -1.92043,1.48794c-0.3764,0.20968 -0.80334,0.54061 -0.94885,0.73513c-0.14501,0.19452 -0.36479,0.35367 -0.48807,0.35367c-0.12328,0 -0.36832,0.13743 -0.54414,0.30567c-0.48301,0.46179 -2.40496,1.7153 -2.62929,1.7153c-0.10863,0 -0.2698,0.11671 -0.35872,0.25919c-0.08892,0.14248 -0.84376,0.66237 -1.67741,1.15549c-0.83365,0.49363 -1.5612,0.94531 -1.61678,1.00443c-0.05558,0.05861 -0.46482,0.289 -0.90943,0.5108c-0.44461,0.22231 -0.92864,0.51787 -1.07567,0.65682c-0.14652,0.13945 -0.38398,0.25312 -0.52747,0.25312c-0.14298,0 -0.58154,0.21776 -0.97411,0.48403c-0.39207,0.26627 -1.0413,0.60326 -1.44247,0.74826c-0.40116,0.14501 -0.72957,0.32992 -0.72957,0.41127c0,0.08134 -0.20463,0.2122 -0.45472,0.29052c-0.25009,0.07831 -1.11002,0.44815 -1.91083,0.82203c-0.80031,0.37388 -1.55059,0.67955 -1.66731,0.67955c-0.11621,0 -0.21119,0.0768 -0.21119,0.17026c0,0.09347 -0.54566,0.33498 -1.21258,0.53707c-0.66692,0.2021 -1.21258,0.42895 -1.21258,0.50474c0,0.07579 -0.59113,0.30668 -1.31363,0.51333c-0.7225,0.20665 -1.31363,0.44108 -1.31363,0.52141c0,0.07983 -0.63661,0.30921 -1.41468,0.50979c-0.77808,0.20058 -1.41468,0.42542 -1.41468,0.50019c0,0.07427 -0.65934,0.29405 -1.46521,0.48807c-0.80586,0.19351 -1.55615,0.41834 -1.66731,0.49918c-0.11115,0.08084 -0.88418,0.31072 -1.71782,0.5103c-0.83365,0.20008 -1.78856,0.47594 -2.12202,0.61336c-0.33346,0.13743 -1.33384,0.36277 -2.22307,0.5012c-0.88923,0.13844 -1.71126,0.32487 -1.82696,0.4143c-0.1157,0.08993 -1.38891,0.32285 -2.82936,0.51787c-1.44045,0.19503 -2.66465,0.41329 -2.72023,0.48504c-0.09145,0.11823 -2.18872,0.34761 -6.52067,0.71341c-0.86296,0.07276 -1.6188,0.21271 -1.67892,0.31072c-0.14399,0.23241 -12.15463,0.23241 -12.29812,0c-0.06063,-0.09801 -0.90741,-0.23898 -1.88153,-0.31274c-3.59127,-0.27334 -6.02604,-0.54414 -6.41962,-0.71391c-0.22231,-0.09549 -1.58647,-0.32992 -3.03146,-0.51989c-1.445,-0.18997 -2.67273,-0.40874 -2.72831,-0.48554c-0.05558,-0.0768 -1.03322,-0.3082 -2.17255,-0.51434c-1.13932,-0.20614 -2.0715,-0.45068 -2.0715,-0.54313c0,-0.09246 -0.19856,-0.16824 -0.44158,-0.16824c-0.55324,0 -3.02489,-0.60376 -3.29722,-0.80536c-0.11115,-0.08235 -0.86144,-0.3087 -1.66731,-0.50221c-0.80586,-0.19402 -1.46521,-0.41582 -1.46521,-0.49262c0,-0.0768 -0.68208,-0.30971 -1.51573,-0.51737c-0.83365,-0.20766 -1.51573,-0.43956 -1.51573,-0.51585c0,-0.07579 -0.59113,-0.29809 -1.31363,-0.49363c-0.7225,-0.19553 -1.31363,-0.41784 -1.31363,-0.49363c0,-0.07579 -0.52293,-0.31224 -1.16206,-0.52545c-0.63914,-0.21321 -1.20753,-0.44512 -1.26311,-0.51484c-0.05558,-0.07023 -0.55577,-0.2991 -1.11153,-0.50929c-0.55577,-0.20968 -2.51106,-1.14185 -4.34509,-2.07099c-4.17382,-2.11445 -4.52395,-2.29936 -4.64824,-2.45649c-0.05558,-0.06972 -0.46482,-0.29506 -0.90943,-0.50019c-0.44461,-0.20513 -0.85386,-0.43805 -0.90943,-0.51787c-0.05558,-0.07983 -0.46482,-0.34155 -0.90943,-0.58204c-1.24441,-0.67197 -2.21246,-1.26513 -2.32412,-1.42377c-0.05558,-0.07932 -0.41935,-0.31931 -0.80839,-0.53303c-0.38903,-0.21422 -0.7801,-0.50272 -0.86902,-0.64166c-0.08892,-0.13894 -0.27637,-0.25262 -0.41632,-0.25262c-0.14046,0 -0.43148,-0.1637 -0.64722,-0.36378c-0.21523,-0.20008 -0.70987,-0.54111 -1.0989,-0.75786c-0.38903,-0.21675 -0.82607,-0.55324 -0.97158,-0.74776c-0.14501,-0.19452 -0.39207,-0.35367 -0.54869,-0.35367c-0.15612,0 -0.38196,-0.18189 -0.5007,-0.40419c-0.11874,-0.22231 -0.34862,-0.40419 -0.5108,-0.40419c-0.16168,0 -0.40773,-0.18189 -0.54667,-0.40419c-0.13894,-0.22231 -0.33093,-0.40419 -0.42744,-0.40419c-0.26778,0 -2.91223,-2.1003 -4.49515,-3.57056c-0.2597,-0.241 -0.64974,-0.56234 -0.8675,-0.71492c-1.53897,-1.07819 -8.1521,-7.64686 -10.19177,-10.12407c-0.9928,-1.20601 -2.10535,-2.47923 -2.51358,-2.87736c-0.25009,-0.24352 -0.45472,-0.5204 -0.45472,-0.61488c0,-0.09448 -0.1834,-0.3567 -0.40824,-0.58305c-0.62701,-0.63206 -2.01693,-2.46862 -2.01693,-2.66516c0,-0.0965 -0.18189,-0.28849 -0.40419,-0.42744c-0.22231,-0.13894 -0.40773,-0.36529 -0.41228,-0.50322c-0.00455,-0.13844 -0.27738,-0.56588 -0.60629,-0.95087c-0.32891,-0.38499 -0.59821,-0.81698 -0.59821,-0.95996c0,-0.14298 -0.09246,-0.2602 -0.20513,-0.2602c-0.11318,0 -0.35721,-0.3183 -0.54313,-0.70734c-0.18543,-0.38903 -0.40672,-0.70734 -0.49211,-0.70734c-0.08538,0 -0.31476,-0.34104 -0.50979,-0.75786c-0.19553,-0.41683 -0.45472,-0.84881 -0.57699,-0.95996c-0.3279,-0.2991 -1.71479,-2.65253 -1.71479,-2.9102c0,-0.12227 -0.0869,-0.22231 -0.1925,-0.22231c-0.1061,0 -0.38348,-0.38651 -0.61639,-0.85892c-0.58962,-1.19439 -1.16004,-2.2362 -1.35607,-2.47569c-0.33397,-0.40773 -2.88746,-5.60971 -2.88746,-5.88255c0,-0.1546 -0.07276,-0.28142 -0.16218,-0.28142c-0.08943,0 -0.33195,-0.47745 -0.53909,-1.06101c-0.20766,-0.58356 -0.48807,-1.2429 -0.62397,-1.46521c-0.13541,-0.22231 -0.34963,-0.73008 -0.47543,-1.1282c-0.12631,-0.39813 -0.40925,-1.07668 -0.62903,-1.50765c-0.21978,-0.43148 -0.39965,-0.9064 -0.39965,-1.05595c0,-0.14905 -0.17279,-0.65278 -0.38348,-1.11911c-0.21069,-0.46634 -0.50221,-1.25704 -0.64671,-1.75724c-0.14501,-0.50019 -0.31375,-0.95491 -0.37489,-1.01049c-0.12278,-0.11166 -0.1344,-0.15208 -0.58709,-2.02097c-0.17481,-0.7225 -0.37893,-1.3591 -0.4527,-1.41468c-0.07427,-0.05558 -0.29355,-0.8286 -0.48807,-1.71782c-0.19402,-0.88923 -0.41935,-1.70772 -0.5007,-1.81888c-0.08134,-0.11115 -0.30264,-1.06606 -0.4916,-2.12202c-0.18947,-1.05595 -0.41986,-2.06291 -0.51282,-2.23721c-0.09246,-0.17431 -0.32386,-1.49299 -0.51434,-2.93041c-0.19048,-1.43742 -0.42289,-2.76368 -0.51636,-2.94759c-0.09296,-0.18391 -0.32285,-2.23014 -0.50979,-4.54719c-0.18745,-2.31705 -0.41329,-4.24101 -0.50272,-4.27587c-0.22837,-0.08892 -0.2415,-9.28081 -0.01364,-9.36619c0.10206,-0.03789 0.33953,-1.74259 0.52798,-3.78781c0.18846,-2.04523 0.42037,-3.8641 0.51585,-4.04195c0.14551,-0.27182 0.82152,-4.22636 0.85841,-5.02211c0.00657,-0.13894 0.07225,-0.25262 0.14652,-0.25262c0.07377,0 0.30112,-0.90943 0.50524,-2.02097c0.20412,-1.11153 0.43148,-2.02097 0.50625,-2.02097c0.07427,0 0.30112,-0.72755 0.50423,-1.61678c0.20311,-0.88923 0.42441,-1.61678 0.49211,-1.61678c0.0677,0 0.24403,-0.52293 0.39156,-1.16206c0.14753,-0.63914 0.42744,-1.52584 0.62246,-1.97045c0.19452,-0.44461 0.47038,-1.24037 0.61235,-1.76835c0.14197,-0.52798 0.32588,-0.95996 0.40874,-0.95996c0.08286,0 0.20816,-0.28849 0.2789,-0.64166c0.07073,-0.35266 0.34812,-1.10648 0.6169,-1.67488c0.2693,-0.5684 0.60882,-1.41619 0.75483,-1.88456c0.14602,-0.46836 0.33447,-0.85134 0.41834,-0.85134c0.08437,0 0.15309,-0.09498 0.15309,-0.21119c0,-0.11671 0.3183,-0.89175 0.70734,-1.72237c0.38903,-0.83112 0.70734,-1.59354 0.70734,-1.69408c0,-0.10104 0.11823,-0.30365 0.26323,-0.45017c0.1445,-0.14703 0.42592,-0.67601 0.62448,-1.17621c0.19907,-0.49969 0.42138,-0.9544 0.49464,-1.01049c0.07326,-0.05558 0.31426,-0.46533 0.53555,-0.90994c0.2213,-0.44461 0.44865,-0.85386 0.50524,-0.90943c0.05659,-0.05558 0.3082,-0.5103 0.5588,-1.01049c0.2511,-0.50019 0.72907,-1.36416 1.06303,-1.91992c0.33397,-0.55577 0.74372,-1.30606 0.91095,-1.66731c0.16723,-0.36125 0.39358,-0.65682 0.50322,-0.65682c0.10964,0 0.19957,-0.12278 0.19957,-0.27283c0,-0.15006 0.27283,-0.64924 0.60629,-1.11002c0.33346,-0.46027 0.60629,-0.91145 0.60629,-1.00241c0,-0.09145 0.1637,-0.34205 0.36378,-0.55779c0.20008,-0.21523 0.42693,-0.52798 0.50423,-0.69471c0.17026,-0.36883 0.60882,-1.07415 0.75332,-1.21258c0.05811,-0.05558 0.27839,-0.37135 0.48908,-0.70229c0.21069,-0.33043 0.45775,-0.6942 0.54869,-0.80839c0.75129,-0.94329 1.58495,-2.16547 1.58495,-2.32362c0,-0.1066 0.18189,-0.29102 0.40419,-0.40975c0.22231,-0.11874 0.40419,-0.34862 0.40419,-0.5108c0,-0.16168 0.18189,-0.40773 0.40419,-0.54667c0.22231,-0.13894 0.40419,-0.32942 0.40419,-0.4239c0,-0.22231 2.3029,-3.18808 3.28408,-4.2299c0.41683,-0.44259 0.75786,-0.84578 0.75786,-0.89579c0,-0.3562 9.05598,-9.63095 10.75258,-11.01228c0.3663,-0.2986 0.89327,-0.73816 1.17115,-0.97764c0.27789,-0.23948 0.81395,-0.67753 1.19136,-0.9736c0.37742,-0.29607 0.87761,-0.69622 1.11153,-0.88923c1.26462,-1.04484 2.5252,-1.97298 2.6793,-1.97298c0.0965,0 0.28849,-0.18189 0.42744,-0.40419c0.13894,-0.22231 0.35771,-0.40419 0.48655,-0.40419c0.12884,0 0.37792,-0.13894 0.55375,-0.3087c0.40369,-0.38954 1.55009,-1.18732 2.3413,-1.62991c0.33346,-0.18644 0.67904,-0.46331 0.76797,-0.61488c0.08892,-0.15157 0.27637,-0.27587 0.41632,-0.27587c0.14046,0 0.43148,-0.16218 0.64722,-0.36024c0.21523,-0.19806 0.75534,-0.53101 1.19995,-0.74018c0.44461,-0.20867 0.89933,-0.48706 1.01049,-0.61892c0.11115,-0.13137 0.5204,-0.36175 0.90943,-0.51131c0.38903,-0.14955 0.771,-0.37489 0.84881,-0.5007c0.07831,-0.12581 0.5103,-0.35064 0.95996,-0.49918c0.45017,-0.14854 0.81849,-0.33649 0.81849,-0.41834c0,-0.20564 5.30657,-2.81824 5.7239,-2.81824c0.18644,0 0.33902,-0.08387 0.33902,-0.18593c0,-0.10206 0.47745,-0.34306 1.06101,-0.53505c0.58356,-0.192 1.10648,-0.41329 1.16206,-0.4916c0.05558,-0.07831 0.60124,-0.30618 1.21258,-0.50625c0.61134,-0.20058 1.29343,-0.47594 1.51573,-0.61235c0.22231,-0.13642 0.67399,-0.31072 1.00342,-0.38802c0.32942,-0.0768 0.97158,-0.30921 1.4263,-0.51636c0.45472,-0.20715 1.27624,-0.48807 1.82595,-0.62448c0.5492,-0.13591 1.04434,-0.30971 1.09991,-0.386c0.05558,-0.07629 0.78313,-0.30112 1.61678,-0.50019c0.83365,-0.19856 1.60667,-0.43148 1.71782,-0.51686c0.11115,-0.08538 1.02059,-0.31527 2.02097,-0.51131c1.00039,-0.19553 1.86434,-0.42087 1.91992,-0.50019c0.05558,-0.07983 1.10143,-0.29557 2.32412,-0.47998c1.22269,-0.18441 2.40496,-0.41632 2.62727,-0.51535c0.46836,-0.20867 2.90667,-0.54819 5.30505,-0.73917c0.91702,-0.07326 1.66731,-0.21069 1.66731,-0.30618c0,-0.09498 0.5684,-0.18189 1.26311,-0.19301c0.69471,-0.01061 1.7633,-0.09296 2.37464,-0.1829M243.57315,117.49158c-1.43287,-0.28193 -6.68487,-0.52747 -7.98284,-0.37337c-2.36858,0.28092 -3.96717,0.54364 -4.14299,0.68056c-0.11115,0.0869 -0.6937,0.27283 -1.29444,0.4138c-0.97966,0.22988 -2.88847,1.06101 -4.5674,1.98864c-1.83807,1.01605 -4.87913,3.92119 -6.08566,5.81535c-0.20412,0.32032 -0.42895,0.62751 -0.49918,0.68309c-0.07023,0.05558 -0.28799,0.41935 -0.48352,0.80839c-0.19604,0.38903 -0.46987,0.84376 -0.60932,1.01049c-0.13894,0.16673 -0.36277,0.64419 -0.49615,1.06101c-0.13389,0.41683 -0.31779,0.75786 -0.40824,0.75786c-0.36933,0 -1.16509,2.71821 -2.30694,7.88179c-3.31439,14.99057 -4.44159,33.76186 -3.1603,52.64634c0.40369,5.9452 0.65075,13.1727 0.66187,19.35081c0.00606,3.52912 0.06568,6.41659 0.13238,6.41659c0.06619,0 0.89327,-0.46179 1.83807,-1.02564c13.17674,-7.87068 40.87872,-16.87057 69.91353,-22.71321c16.14808,-3.24922 23.73986,-5.62892 30.10087,-9.4339c13.68855,-8.18898 13.85579,-21.40715 0.37539,-29.65019c-12.99688,-7.94747 -25.38493,-7.37402 -41.27685,1.91184c-9.75473,5.69965 -12.93322,7.52509 -12.99536,7.46295c-0.03789,-0.0384 0.9443,-3.19313 2.18265,-7.01025c3.09512,-9.54051 2.96628,-9.10701 3.45283,-11.58927c0.79424,-4.04952 0.62094,-7.45385 -0.52495,-10.30696c-0.13389,-0.33346 -0.35923,-1.03827 -0.50019,-1.56625c-0.14096,-0.52798 -0.32335,-0.95996 -0.40521,-0.95996c-0.08134,0 -0.30011,-0.39813 -0.48605,-0.88468c-0.18593,-0.48655 -0.51636,-1.04636 -0.73462,-1.24391c-0.21827,-0.19755 -0.39712,-0.47847 -0.39712,-0.62397c0,-0.14551 -0.18189,-0.36226 -0.40419,-0.48099c-0.22231,-0.11874 -0.40419,-0.32335 -0.40419,-0.45421c0,-0.27789 -2.38323,-2.62626 -3.54478,-3.49325c-0.44007,-0.32841 -0.84578,-0.64823 -0.90135,-0.70987c-0.10307,-0.11469 -1.70974,-1.2141 -2.62727,-1.79765c-0.27789,-0.17633 -0.77808,-0.45219 -1.11153,-0.61235c-0.33346,-0.16067 -0.74271,-0.39207 -0.90943,-0.51535c-0.16673,-0.12278 -0.7124,-0.39712 -1.21258,-0.60932c-0.50019,-0.2122 -0.95491,-0.43855 -1.01049,-0.50272c-0.31881,-0.36832 -5.1166,-1.9275 -7.17446,-2.33221" fill="#accc34" fill-rule="evenodd" stroke-width="1"/><path d="M209.84234,311.38138v-259.75976h61.56156v259.75976z" fill="none" fill-rule="nonzero" stroke-width="0"/></g></g></svg>